M48
;Layer_Color=9474304
;FILE_FORMAT=2:5
INCH
;TYPE=PLATED
T01F00S00C0.01500
T02F00S00C0.01800
T03F00S00C0.04331
T04F00S00C0.14173
%
T01
X0490000Y0168000
Y0186500
Y0191000
X0486000Y0201500
X0484500Y0206500
X0472000Y0196500
Y0191500
X0469227Y0194000
X0470517Y0249620
X0463017
X0455517
X0448017
X0440517
X0433017
X0425517
X0422351Y0256506
X0429851
X0437351
X0444851
X0452351
X0459851
X0467351
X0454500Y0215000
X0450000Y0204000
X0437500Y0199500
X0430000Y0190000
X0433000Y0178500
X0421000Y0176500
X0415756Y0181244
X0407500Y0181000
X0404500Y0172000
X0406000Y0164500
X0463000Y0165000
X0468500Y0174500
X0466500Y0191500
Y0196500
X0455500Y0183500
X0410517Y0249620
X0403017
X0395517
X0388017
X0380517
X0373017
X0365517
X0358017
X0350517
X0343017
X0342750Y0257000
X0333500Y0259000
Y0255000
X0328500
Y0259000
X0324500
Y0255000
X0319500
Y0259000
X0321933Y0261567
X0319500Y0264000
X0324500
X0328500
X0333500
X0331067Y0261567
Y0252433
X0333500Y0250000
X0328500
X0324500
X0321933Y0252433
X0319500Y0250000
X0317686Y0240718
X0314105Y0234128
X0314743Y0223772
X0320047Y0229076
X0324738Y0234927
X0328000Y0240500
X0342000Y0233500
X0346000Y0227000
X0345500Y0220500
X0356000Y0230500
X0356500Y0238500
X0354851Y0256506
X0362351
X0369851
X0377351
X0384851
X0392351
X0399851
X0407351
X0394500Y0284000
X0401000Y0294500
X0399000Y0301000
X0378500Y0296500
X0369500Y0290500
X0359000Y0304500
X0354550Y0305500
X0344000Y0309500
X0338500Y0297000
X0319232Y0285578
X0324197Y0279957
X0317566Y0275713
X0312537Y0281278
X0313929Y0290882
X0347500Y0273000
X0381500Y0271500
X0380500Y0311000
X0427744Y0305244
X0438500Y0300000
X0308625Y0296185
X0303322Y0301488
X0298019Y0306792
X0292715Y0312095
X0291324Y0302491
X0284952Y0306446
X0296627Y0297188
X0301931Y0291885
X0307234Y0286581
X0294000Y0287000
X0293000Y0277500
X0294787Y0265809
X0302287
X0309787
X0308500Y0273500
X0307052Y0255966
X0299552
X0292052
X0284552
X0277052
X0269552
X0262057Y0255700
X0257280Y0259885
X0255920Y0251388
X0250617Y0246084
X0245314Y0240781
X0238007Y0239087
X0230737Y0240928
X0225532Y0246327
X0218135Y0245086
X0210639Y0245328
X0206479Y0239087
X0199090Y0240375
X0199967Y0230437
X0207416Y0231313
X0213796Y0227370
X0220638Y0224297
X0228138Y0224304
X0235005Y0227319
X0241354Y0231313
X0248603Y0233235
X0253986Y0238458
X0259289Y0243761
X0265340Y0248191
X0272840
X0280341
X0287841
X0295340
X0302840
X0310340
X0308801Y0228825
X0302000Y0230500
X0303498Y0223522
X0298195Y0218218
X0292892Y0212915
X0286264Y0209405
X0282753Y0202777
X0277450Y0197474
X0270079Y0196087
X0262579
X0255079
X0247579
X0240079
X0238841Y0188313
X0246340
X0253840
X0261340
X0268841
X0276340Y0188359
X0282924Y0191952
X0288227Y0197256
X0293530Y0202559
X0298834Y0207862
X0304137Y0213166
X0309440Y0218469
X0293000Y0235000
Y0241000
X0287287Y0265809
X0279787
X0272287
X0264787
X0258393Y0269728
X0253090Y0275032
X0247702Y0280249
X0240430Y0282087
X0232930
X0232712Y0274313
X0240212
X0246654Y0270472
X0251958Y0265169
X0230546Y0267132
X0223647Y0264191
X0218710Y0269836
X0212692Y0274313
X0205192
X0205943Y0282087
X0213443
X0198580Y0283514
X0197855Y0272759
X0191300Y0271143
X0181000Y0274000
Y0282000
X0188500Y0287000
X0221349Y0291261
X0226335Y0285659
X0232242Y0312338
X0239733Y0311966
X0188500Y0244000
X0181000Y0239500
Y0231000
X0190910Y0227955
X0190375Y0200292
X0198628Y0197497
X0205995Y0196087
X0213494
X0212878Y0188313
X0205378
X0198036Y0186783
X0190840Y0185070
X0181000Y0188000
Y0196500
X0220655Y0198318
X0220378Y0188313
X0226795Y0184431
X0234053Y0182540
X0232783Y0197825
X0226898Y0202474
X0226699Y0317391
X0219200Y0317313
X0211700
X0204200
X0196860Y0315773
X0191000Y0314500
X0181000Y0317000
Y0325500
X0187500Y0330500
X0198359Y0326575
X0205710Y0325087
X0213210
X0220710
X0237492Y0325813
X0244957Y0325087
X0252457
X0259957
X0267457
X0274957
X0274992Y0317313
X0267492
X0259992
X0252492
X0244992
X0232506Y0331415
X0282046Y0322638
X0287412Y0317398
X0280997Y0312819
X0334500Y0332500
X0341720Y0332625
X0348000Y0328000
X0354000Y0326500
X0360500Y0328000
X0364500Y0320500
X0365272Y0343500
X0376500Y0347500
X0386000Y0341500
X0380107Y0330107
X0387500Y0324000
X0398500Y0328500
X0399000Y0319500
X0437000Y0324500
Y0334000
X0427404Y0335905
X0465500Y0330500
X0468500Y0322000
X0355000Y0350000
X0346500Y0344000
X0331500Y0342000
Y0349500
T02
X0479000Y0248800
X0484000Y0248000
X0489000
X0494000
X0499000Y0248800
Y0257200
X0494000Y0258000
X0489000
X0484000
X0479000Y0257200
X0174000Y0274000
X0169000Y0273200
X0164000
X0159000
Y0283200
X0164000
X0169000
X0174000Y0282400
Y0239400
X0169000Y0240200
X0164000
X0159000
Y0230200
X0164000
X0169000
X0174000Y0231000
Y0196400
X0169000Y0197200
X0164000
X0159000
Y0187200
X0164000
X0169000
X0174000Y0188000
X0154000
Y0196400
Y0231000
Y0239400
Y0274000
Y0282400
Y0317000
Y0325400
X0159000Y0326200
X0164000
X0169000
X0174000Y0325400
Y0317000
X0169000Y0316200
X0164000
X0159000
T03
X0396000Y0157000
X0406000
X0416000
X0426000
X0436000
X0431500Y0357000
X0421500
X0411500
X0401500
X0391500
X0381500
X0371500
X0361500
X0351500
X0341500
X0331500
X0321500
T04
X0476500Y0157000
X0176500
Y0357000
X0476500
M30
