G04*
G04 #@! TF.GenerationSoftware,Altium Limited,Altium Designer,26.4.1 (12)*
G04*
G04 Layer_Color=16711935*
%FSLAX25Y25*%
%MOIN*%
G70*
G04*
G04 #@! TF.SameCoordinates,2EABD70A-8345-44E5-BABD-0BEDDB5D8E19*
G04*
G04*
G04 #@! TF.FilePolarity,Negative*
G04*
G01*
G75*
%ADD51C,0.07099*%
G04:AMPARAMS|DCode=52|XSize=70.99mil|YSize=70.99mil|CornerRadius=19.75mil|HoleSize=0mil|Usage=FLASHONLY|Rotation=180.000|XOffset=0mil|YOffset=0mil|HoleType=Round|Shape=RoundedRectangle|*
%AMROUNDEDRECTD52*
21,1,0.07099,0.03150,0,0,180.0*
21,1,0.03150,0.07099,0,0,180.0*
1,1,0.03950,-0.01575,0.01575*
1,1,0.03950,0.01575,0.01575*
1,1,0.03950,0.01575,-0.01575*
1,1,0.03950,-0.01575,-0.01575*
%
%ADD52ROUNDEDRECTD52*%
%ADD53C,0.03387*%
%ADD54C,0.18110*%
G36*
X175700Y305200D02*
X151500D01*
Y337200D01*
X175700D01*
Y305200D01*
D02*
G37*
G36*
Y262200D02*
X151500D01*
Y294200D01*
X175700D01*
Y262200D01*
D02*
G37*
G36*
X501500Y237000D02*
X477300D01*
Y269000D01*
X501500D01*
Y237000D01*
D02*
G37*
G36*
X175700Y219200D02*
X151500D01*
Y251200D01*
X175700D01*
Y219200D01*
D02*
G37*
G36*
Y176200D02*
X151500D01*
Y208200D01*
X175700D01*
Y176200D01*
D02*
G37*
D51*
X396000Y157000D02*
D03*
X406000D02*
D03*
X426000D02*
D03*
X416000D02*
D03*
X351500Y357000D02*
D03*
X381500D02*
D03*
X401500D02*
D03*
X421500D02*
D03*
X411500D02*
D03*
X391500D02*
D03*
X371500D02*
D03*
X361500D02*
D03*
X341500D02*
D03*
X331500D02*
D03*
X321500D02*
D03*
D52*
X436000Y157000D02*
D03*
X431500Y357000D02*
D03*
D53*
X494000Y258000D02*
D03*
X484000D02*
D03*
X489000D02*
D03*
X499000Y257200D02*
D03*
X479000D02*
D03*
Y248800D02*
D03*
X499000D02*
D03*
X494000Y248000D02*
D03*
X484000D02*
D03*
X489000D02*
D03*
X169000Y326200D02*
D03*
X174000Y325400D02*
D03*
X164000Y326200D02*
D03*
X174000Y317000D02*
D03*
X169000Y316200D02*
D03*
X164000D02*
D03*
X159000Y326200D02*
D03*
X154000Y325400D02*
D03*
Y317000D02*
D03*
X159000Y316200D02*
D03*
X174000Y282400D02*
D03*
Y274000D02*
D03*
X164000Y283200D02*
D03*
X169000D02*
D03*
X164000Y273200D02*
D03*
X169000D02*
D03*
X159000Y283200D02*
D03*
X154000Y282400D02*
D03*
X159000Y273200D02*
D03*
X154000Y274000D02*
D03*
X174000Y239400D02*
D03*
Y231000D02*
D03*
X164000Y240200D02*
D03*
X169000D02*
D03*
X164000Y230200D02*
D03*
X169000D02*
D03*
X159000Y240200D02*
D03*
X154000Y239400D02*
D03*
Y231000D02*
D03*
X159000Y230200D02*
D03*
X174000Y196400D02*
D03*
Y188000D02*
D03*
X164000Y197200D02*
D03*
X169000D02*
D03*
X164000Y187200D02*
D03*
X169000D02*
D03*
X159000Y197200D02*
D03*
X154000Y196400D02*
D03*
X159000Y187200D02*
D03*
X154000Y188000D02*
D03*
D54*
X476500Y357000D02*
D03*
Y157000D02*
D03*
X176500Y357000D02*
D03*
Y157000D02*
D03*
M02*
