G04*
G04 #@! TF.GenerationSoftware,Altium Limited,Altium Designer,26.4.1 (12)*
G04*
G04 Layer_Color=8421504*
%FSLAX25Y25*%
%MOIN*%
G70*
G04*
G04 #@! TF.SameCoordinates,2EABD70A-8345-44E5-BABD-0BEDDB5D8E19*
G04*
G04*
G04 #@! TF.FilePolarity,Positive*
G04*
G01*
G75*
%ADD19C,0.03200*%
%ADD20R,0.02593X0.03197*%
%ADD21R,0.02756X0.02756*%
G04:AMPARAMS|DCode=22|XSize=38.19mil|YSize=20.87mil|CornerRadius=2.61mil|HoleSize=0mil|Usage=FLASHONLY|Rotation=270.000|XOffset=0mil|YOffset=0mil|HoleType=Round|Shape=RoundedRectangle|*
%AMROUNDEDRECTD22*
21,1,0.03819,0.01565,0,0,270.0*
21,1,0.03297,0.02087,0,0,270.0*
1,1,0.00522,-0.00783,-0.01649*
1,1,0.00522,-0.00783,0.01649*
1,1,0.00522,0.00783,0.01649*
1,1,0.00522,0.00783,-0.01649*
%
%ADD22ROUNDEDRECTD22*%
G04:AMPARAMS|DCode=23|XSize=61.81mil|YSize=9.45mil|CornerRadius=1.18mil|HoleSize=0mil|Usage=FLASHONLY|Rotation=270.000|XOffset=0mil|YOffset=0mil|HoleType=Round|Shape=RoundedRectangle|*
%AMROUNDEDRECTD23*
21,1,0.06181,0.00709,0,0,270.0*
21,1,0.05945,0.00945,0,0,270.0*
1,1,0.00236,-0.00354,-0.02972*
1,1,0.00236,-0.00354,0.02972*
1,1,0.00236,0.00354,0.02972*
1,1,0.00236,0.00354,-0.02972*
%
%ADD23ROUNDEDRECTD23*%
%ADD24R,0.01181X0.01181*%
%ADD25R,0.01100X0.02978*%
%ADD26R,0.02756X0.02756*%
%ADD27R,0.03197X0.02593*%
%ADD28R,0.03200X0.04100*%
%ADD29R,0.03366X0.03568*%
%ADD30R,0.09000X0.09000*%
%ADD31R,0.08189X0.08189*%
%ADD32R,0.03960X0.05151*%
%ADD33R,0.03150X0.03150*%
%ADD34R,0.03175X0.03379*%
%ADD35R,0.03379X0.03175*%
%ADD36R,0.05151X0.03960*%
%ADD37R,0.02400X0.04700*%
%ADD38R,0.02600X0.00800*%
%ADD39R,0.05755X0.02200*%
%ADD40R,0.03773X0.04355*%
%ADD41R,0.05000X0.02850*%
%ADD42R,0.03174X0.03379*%
%ADD43C,0.01396*%
G36*
X175700Y323625D02*
X171700D01*
Y324700D01*
X155500D01*
Y323625D01*
X151500D01*
Y337200D01*
X175700D01*
Y323625D01*
D02*
G37*
G36*
Y305200D02*
X151500D01*
Y318775D01*
X155500D01*
Y317700D01*
X171700D01*
Y318775D01*
X175700D01*
Y305200D01*
D02*
G37*
G36*
Y280625D02*
X171700D01*
Y281700D01*
X155500D01*
Y280625D01*
X151500D01*
Y294200D01*
X175700D01*
Y280625D01*
D02*
G37*
G36*
Y262200D02*
X151500D01*
Y275775D01*
X155500D01*
Y274700D01*
X171700D01*
Y275775D01*
X175700D01*
Y262200D01*
D02*
G37*
G36*
X337524Y266350D02*
X336539D01*
X335850Y267039D01*
Y268024D01*
X337524D01*
Y266350D01*
D02*
G37*
G36*
X317150Y267039D02*
X316461Y266350D01*
X315476D01*
Y268024D01*
X317150D01*
Y267039D01*
D02*
G37*
G36*
X501500Y255425D02*
X497500D01*
Y256500D01*
X481300D01*
Y255425D01*
X477300D01*
Y269000D01*
X501500D01*
Y255425D01*
D02*
G37*
G36*
Y237000D02*
X477300D01*
Y250575D01*
X481300D01*
Y249500D01*
X497500D01*
Y250575D01*
X501500D01*
Y237000D01*
D02*
G37*
G36*
X337524Y245976D02*
X335850D01*
Y246961D01*
X336539Y247650D01*
X337524D01*
Y245976D01*
D02*
G37*
G36*
X317150Y246961D02*
Y245976D01*
X315476D01*
Y247650D01*
X316461D01*
X317150Y246961D01*
D02*
G37*
G36*
X175700Y237625D02*
X171700D01*
Y238700D01*
X155500D01*
Y237625D01*
X151500D01*
Y251200D01*
X175700D01*
Y237625D01*
D02*
G37*
G36*
Y219200D02*
X151500D01*
Y232775D01*
X155500D01*
Y231700D01*
X171700D01*
Y232775D01*
X175700D01*
Y219200D01*
D02*
G37*
G36*
Y194625D02*
X171700D01*
Y195700D01*
X155500D01*
Y194625D01*
X151500D01*
Y208200D01*
X175700D01*
Y194625D01*
D02*
G37*
G36*
Y176200D02*
X151500D01*
Y189775D01*
X155500D01*
Y188700D01*
X171700D01*
Y189775D01*
X175700D01*
Y176200D01*
D02*
G37*
D19*
X417437Y275937D02*
D03*
X401500Y268000D02*
D03*
X405500Y279500D02*
D03*
X390500Y273000D02*
D03*
X365224Y281724D02*
D03*
X383500Y300500D02*
D03*
X355500Y278500D02*
D03*
X371766Y305734D02*
D03*
X358925Y286425D02*
D03*
X387000Y288000D02*
D03*
X352500Y284500D02*
D03*
X350509Y304609D02*
D03*
X445125Y200752D02*
D03*
X498523Y197511D02*
D03*
X463591Y208618D02*
D03*
X422730Y286000D02*
D03*
X437000Y317500D02*
D03*
X342286Y322122D02*
D03*
D20*
X428000Y286000D02*
D03*
X433328D02*
D03*
X337202Y322122D02*
D03*
X331874D02*
D03*
D21*
X356000Y315256D02*
D03*
Y309744D02*
D03*
X380214Y334323D02*
D03*
X360314Y334178D02*
D03*
X380500Y322000D02*
D03*
X492275Y203114D02*
D03*
X351500Y221244D02*
D03*
X298913Y237744D02*
D03*
X380500Y316488D02*
D03*
X360314Y339690D02*
D03*
X380214Y339835D02*
D03*
X492275Y197602D02*
D03*
X351500Y226756D02*
D03*
X298913Y243256D02*
D03*
D22*
X365224Y293555D02*
D03*
X362075D02*
D03*
X358925D02*
D03*
X355776D02*
D03*
Y300445D02*
D03*
X358925D02*
D03*
X362075D02*
D03*
X365224D02*
D03*
D23*
X409563Y300201D02*
D03*
X419012Y322799D02*
D03*
X417437D02*
D03*
X415862D02*
D03*
X414287D02*
D03*
X412713D02*
D03*
X411138D02*
D03*
X422161D02*
D03*
Y300201D02*
D03*
X420587D02*
D03*
X404839D02*
D03*
X419012D02*
D03*
X404839Y322799D02*
D03*
X406413D02*
D03*
X420587D02*
D03*
X409563D02*
D03*
X407988D02*
D03*
X406413Y300201D02*
D03*
X407988D02*
D03*
X411138D02*
D03*
X412713D02*
D03*
X414287D02*
D03*
X415862D02*
D03*
X417437D02*
D03*
D24*
X332405Y267531D02*
D03*
X337032Y258968D02*
D03*
Y257000D02*
D03*
Y255031D02*
D03*
Y251095D02*
D03*
Y249126D02*
D03*
X328468Y246468D02*
D03*
X332405D02*
D03*
X330437D02*
D03*
X326500Y267531D02*
D03*
X324532D02*
D03*
X318626D02*
D03*
X315968Y258968D02*
D03*
Y264874D02*
D03*
Y255031D02*
D03*
Y257000D02*
D03*
X326500Y246468D02*
D03*
X318626D02*
D03*
X324532D02*
D03*
X315968Y249126D02*
D03*
X334374Y246468D02*
D03*
X322563D02*
D03*
X320595D02*
D03*
X315968Y251095D02*
D03*
Y253063D02*
D03*
Y260937D02*
D03*
Y262906D02*
D03*
X320595Y267531D02*
D03*
X322563D02*
D03*
X328468D02*
D03*
X330437D02*
D03*
X334374D02*
D03*
X337032Y264874D02*
D03*
Y262906D02*
D03*
Y260937D02*
D03*
Y253063D02*
D03*
D25*
X372000Y322122D02*
D03*
X352100D02*
D03*
X372000Y334500D02*
D03*
X352100D02*
D03*
X368063Y322122D02*
D03*
X373969Y334500D02*
D03*
X354068D02*
D03*
X373969Y322122D02*
D03*
X354068D02*
D03*
X348163D02*
D03*
Y334500D02*
D03*
X368063D02*
D03*
X350132D02*
D03*
Y322122D02*
D03*
X370031Y334500D02*
D03*
Y322122D02*
D03*
D26*
X415756Y168504D02*
D03*
X410244D02*
D03*
X415756Y176000D02*
D03*
X410244D02*
D03*
X427309Y329513D02*
D03*
X341720Y338004D02*
D03*
X341634Y345500D02*
D03*
X427744Y300000D02*
D03*
X345905Y257000D02*
D03*
X452914Y208898D02*
D03*
X441744Y194504D02*
D03*
X463012Y178500D02*
D03*
X462927Y170511D02*
D03*
X336122Y345500D02*
D03*
X336208Y338004D02*
D03*
X432821Y329513D02*
D03*
X340281Y229705D02*
D03*
X297987Y281587D02*
D03*
X433256Y300000D02*
D03*
X351760Y242730D02*
D03*
X351417Y257000D02*
D03*
X447256Y194504D02*
D03*
X458426Y208898D02*
D03*
X457415Y170511D02*
D03*
X457500Y178500D02*
D03*
X334769Y229705D02*
D03*
X303499Y281587D02*
D03*
X346248Y242730D02*
D03*
D27*
X364500Y315164D02*
D03*
X430000Y322664D02*
D03*
X364500Y309836D02*
D03*
X430000Y317336D02*
D03*
D28*
X436000Y169500D02*
D03*
X449000D02*
D03*
D29*
X343037Y297000D02*
D03*
X347963D02*
D03*
D30*
X469227Y194000D02*
D03*
D31*
X331067Y261567D02*
D03*
Y252433D02*
D03*
X321933Y261567D02*
D03*
Y252433D02*
D03*
D32*
X435782Y185000D02*
D03*
X441500D02*
D03*
D33*
X472000Y330500D02*
D03*
X477906D02*
D03*
D34*
X298414Y273500D02*
D03*
X351173Y234643D02*
D03*
X339876Y237791D02*
D03*
X334948D02*
D03*
X303342Y273500D02*
D03*
X346245Y234643D02*
D03*
D35*
X307000Y238036D02*
D03*
Y242964D02*
D03*
D36*
X490087Y173864D02*
D03*
Y179583D02*
D03*
D37*
X191650Y321200D02*
D03*
Y278200D02*
D03*
Y235200D02*
D03*
Y192200D02*
D03*
D38*
X187800Y318600D02*
D03*
Y323800D02*
D03*
Y275600D02*
D03*
Y280800D02*
D03*
Y194800D02*
D03*
Y237800D02*
D03*
Y232600D02*
D03*
Y189600D02*
D03*
Y192200D02*
D03*
X195500Y189600D02*
D03*
Y192200D02*
D03*
Y194800D02*
D03*
X187800Y235200D02*
D03*
X195500Y232600D02*
D03*
Y235200D02*
D03*
Y237800D02*
D03*
X187800Y278200D02*
D03*
X195500Y275600D02*
D03*
Y278200D02*
D03*
Y280800D02*
D03*
X187800Y321200D02*
D03*
X195500Y318600D02*
D03*
Y321200D02*
D03*
Y323800D02*
D03*
D39*
X458500Y191500D02*
D03*
Y201500D02*
D03*
Y196500D02*
D03*
X479955Y186500D02*
D03*
Y191500D02*
D03*
Y196500D02*
D03*
Y201500D02*
D03*
X458500Y186500D02*
D03*
D40*
X449638Y183929D02*
D03*
Y178605D02*
D03*
D41*
X154000Y192200D02*
D03*
X499000Y253000D02*
D03*
X154000Y321200D02*
D03*
Y278200D02*
D03*
Y235200D02*
D03*
D42*
X477867Y322000D02*
D03*
X473134D02*
D03*
D43*
X336743Y267243D02*
D03*
X316257D02*
D03*
Y246757D02*
D03*
X336743D02*
D03*
M02*
