G04*
G04 #@! TF.GenerationSoftware,Altium Limited,Altium Designer,26.4.1 (12)*
G04*
G04 Layer_Color=8388736*
%FSLAX25Y25*%
%MOIN*%
G70*
G04*
G04 #@! TF.SameCoordinates,2EABD70A-8345-44E5-BABD-0BEDDB5D8E19*
G04*
G04*
G04 #@! TF.FilePolarity,Negative*
G04*
G01*
G75*
%ADD18C,0.00800*%
%ADD20R,0.02593X0.03197*%
%ADD21R,0.02756X0.02756*%
%ADD24R,0.01181X0.01181*%
%ADD25R,0.01100X0.02978*%
%ADD26R,0.02756X0.02756*%
%ADD27R,0.03197X0.02593*%
%ADD28R,0.03200X0.04100*%
%ADD29R,0.03366X0.03568*%
%ADD30R,0.09000X0.09000*%
%ADD31R,0.08189X0.08189*%
%ADD32R,0.03960X0.05151*%
%ADD33R,0.03150X0.03150*%
%ADD34R,0.03175X0.03379*%
%ADD35R,0.03379X0.03175*%
%ADD36R,0.05151X0.03960*%
%ADD37R,0.02400X0.04700*%
%ADD38R,0.02600X0.00800*%
%ADD39R,0.05755X0.02200*%
%ADD40R,0.03773X0.04355*%
%ADD42R,0.03174X0.03379*%
%ADD43C,0.01396*%
%ADD44C,0.01146*%
%ADD45C,0.01146*%
%ADD46C,0.04000*%
G04:AMPARAMS|DCode=47|XSize=46.19mil|YSize=28.87mil|CornerRadius=6.61mil|HoleSize=0mil|Usage=FLASHONLY|Rotation=270.000|XOffset=0mil|YOffset=0mil|HoleType=Round|Shape=RoundedRectangle|*
%AMROUNDEDRECTD47*
21,1,0.04619,0.01565,0,0,270.0*
21,1,0.03297,0.02887,0,0,270.0*
1,1,0.01322,-0.00783,-0.01649*
1,1,0.01322,-0.00783,0.01649*
1,1,0.01322,0.00783,0.01649*
1,1,0.01322,0.00783,-0.01649*
%
%ADD47ROUNDEDRECTD47*%
G04:AMPARAMS|DCode=48|XSize=69.81mil|YSize=17.45mil|CornerRadius=5.18mil|HoleSize=0mil|Usage=FLASHONLY|Rotation=270.000|XOffset=0mil|YOffset=0mil|HoleType=Round|Shape=RoundedRectangle|*
%AMROUNDEDRECTD48*
21,1,0.06981,0.00709,0,0,270.0*
21,1,0.05945,0.01745,0,0,270.0*
1,1,0.01036,-0.00354,-0.02972*
1,1,0.01036,-0.00354,0.02972*
1,1,0.01036,0.00354,0.02972*
1,1,0.01036,0.00354,-0.02972*
%
%ADD48ROUNDEDRECTD48*%
%ADD49R,0.05800X0.03650*%
%ADD50C,0.02254*%
%ADD51C,0.07099*%
G04:AMPARAMS|DCode=52|XSize=70.99mil|YSize=70.99mil|CornerRadius=19.75mil|HoleSize=0mil|Usage=FLASHONLY|Rotation=180.000|XOffset=0mil|YOffset=0mil|HoleType=Round|Shape=RoundedRectangle|*
%AMROUNDEDRECTD52*
21,1,0.07099,0.03150,0,0,180.0*
21,1,0.03150,0.07099,0,0,180.0*
1,1,0.03950,-0.01575,0.01575*
1,1,0.03950,0.01575,0.01575*
1,1,0.03950,0.01575,-0.01575*
1,1,0.03950,-0.01575,-0.01575*
%
%ADD52ROUNDEDRECTD52*%
%ADD53C,0.03387*%
%ADD54C,0.18110*%
G36*
X176094Y323231D02*
X171306D01*
Y324306D01*
X155894D01*
Y323231D01*
X151106D01*
Y337594D01*
X176094D01*
Y323231D01*
D02*
G37*
G36*
X184693Y321922D02*
X184824Y321854D01*
X184990Y321795D01*
X185189Y321743D01*
X185423Y321699D01*
X185994Y321636D01*
X186702Y321604D01*
X187108Y321600D01*
Y320800D01*
X186702Y320796D01*
X185423Y320701D01*
X185189Y320657D01*
X184990Y320605D01*
X184824Y320546D01*
X184693Y320478D01*
X184596Y320403D01*
Y321997D01*
X184693Y321922D01*
D02*
G37*
G36*
X156510Y322559D02*
X156578Y322510D01*
X156691Y322467D01*
X156849Y322430D01*
X157052Y322398D01*
X157592Y322353D01*
X158314Y322330D01*
X158742Y322327D01*
Y320073D01*
X158314Y320070D01*
X156849Y319970D01*
X156691Y319933D01*
X156578Y319890D01*
X156510Y319841D01*
X156488Y319787D01*
Y322613D01*
X156510Y322559D01*
D02*
G37*
G36*
X176094Y304806D02*
X151106D01*
Y319169D01*
X155894D01*
Y318094D01*
X171306D01*
Y319169D01*
X176094D01*
Y304806D01*
D02*
G37*
G36*
Y280231D02*
X171306D01*
Y281306D01*
X155894D01*
Y280231D01*
X151106D01*
Y294594D01*
X176094D01*
Y280231D01*
D02*
G37*
G36*
X184693Y278922D02*
X184824Y278854D01*
X184990Y278795D01*
X185189Y278743D01*
X185423Y278699D01*
X185994Y278636D01*
X186702Y278604D01*
X187108Y278600D01*
Y277800D01*
X186702Y277796D01*
X185423Y277701D01*
X185189Y277657D01*
X184990Y277605D01*
X184824Y277546D01*
X184693Y277478D01*
X184596Y277403D01*
Y278997D01*
X184693Y278922D01*
D02*
G37*
G36*
X156510Y279559D02*
X156578Y279510D01*
X156691Y279467D01*
X156849Y279430D01*
X157052Y279398D01*
X157592Y279353D01*
X158314Y279330D01*
X158742Y279327D01*
Y277073D01*
X158314Y277070D01*
X156849Y276970D01*
X156691Y276933D01*
X156578Y276890D01*
X156510Y276841D01*
X156488Y276787D01*
Y279613D01*
X156510Y279559D01*
D02*
G37*
G36*
X176094Y261806D02*
X151106D01*
Y276169D01*
X155894D01*
Y275094D01*
X171306D01*
Y276169D01*
X176094D01*
Y261806D01*
D02*
G37*
G36*
X337524Y266350D02*
X336539D01*
X335850Y267039D01*
Y268024D01*
X337524D01*
Y266350D01*
D02*
G37*
G36*
X317150Y267039D02*
X316461Y266350D01*
X315476D01*
Y268024D01*
X317150D01*
Y267039D01*
D02*
G37*
G36*
X501894Y255031D02*
X497106D01*
Y256106D01*
X481694D01*
Y255031D01*
X476906D01*
Y269394D01*
X501894D01*
Y255031D01*
D02*
G37*
G36*
X338798Y252181D02*
X338715Y252236D01*
X338611Y252286D01*
X338486Y252330D01*
X338340Y252367D01*
X338174Y252400D01*
X337779Y252446D01*
X337550Y252461D01*
X337032Y252472D01*
Y253654D01*
X337301Y253656D01*
X337986Y253700D01*
X338174Y253726D01*
X338486Y253796D01*
X338611Y253840D01*
X338715Y253890D01*
X338798Y253945D01*
Y252181D01*
D02*
G37*
G36*
X496512Y251587D02*
X496489Y251653D01*
X496422Y251713D01*
X496309Y251765D01*
X496151Y251810D01*
X495949Y251849D01*
X495701Y251880D01*
X495069Y251922D01*
X494258Y251936D01*
Y254190D01*
X494686Y254192D01*
X496309Y254299D01*
X496422Y254333D01*
X496489Y254371D01*
X496512Y254413D01*
Y251587D01*
D02*
G37*
G36*
X501894Y236606D02*
X476906D01*
Y250969D01*
X481694D01*
Y249894D01*
X497106D01*
Y250969D01*
X501894D01*
Y236606D01*
D02*
G37*
G36*
X337524Y245976D02*
X335850D01*
Y246961D01*
X336539Y247650D01*
X337524D01*
Y245976D01*
D02*
G37*
G36*
X317150Y246961D02*
Y245976D01*
X315476D01*
Y247650D01*
X316461D01*
X317150Y246961D01*
D02*
G37*
G36*
X176094Y237231D02*
X171306D01*
Y238306D01*
X155894D01*
Y237231D01*
X151106D01*
Y251594D01*
X176094D01*
Y237231D01*
D02*
G37*
G36*
X184693Y235922D02*
X184824Y235854D01*
X184990Y235795D01*
X185189Y235743D01*
X185423Y235699D01*
X185994Y235636D01*
X186702Y235604D01*
X187108Y235600D01*
Y234800D01*
X186702Y234796D01*
X185423Y234701D01*
X185189Y234657D01*
X184990Y234605D01*
X184824Y234546D01*
X184693Y234478D01*
X184596Y234403D01*
Y235997D01*
X184693Y235922D01*
D02*
G37*
G36*
X156510Y236559D02*
X156578Y236510D01*
X156691Y236467D01*
X156849Y236430D01*
X157052Y236399D01*
X157592Y236353D01*
X158314Y236330D01*
X158742Y236327D01*
Y234073D01*
X158314Y234070D01*
X156849Y233970D01*
X156691Y233933D01*
X156578Y233890D01*
X156510Y233841D01*
X156488Y233787D01*
Y236613D01*
X156510Y236559D01*
D02*
G37*
G36*
X176094Y218806D02*
X151106D01*
Y233169D01*
X155894D01*
Y232094D01*
X171306D01*
Y233169D01*
X176094D01*
Y218806D01*
D02*
G37*
G36*
Y194231D02*
X171306D01*
Y195306D01*
X155894D01*
Y194231D01*
X151106D01*
Y208594D01*
X176094D01*
Y194231D01*
D02*
G37*
G36*
X184693Y192922D02*
X184824Y192854D01*
X184990Y192795D01*
X185189Y192743D01*
X185423Y192699D01*
X185994Y192636D01*
X186702Y192604D01*
X187108Y192600D01*
Y191800D01*
X186702Y191796D01*
X185423Y191701D01*
X185189Y191657D01*
X184990Y191605D01*
X184824Y191546D01*
X184693Y191478D01*
X184596Y191403D01*
Y192997D01*
X184693Y192922D01*
D02*
G37*
G36*
X156510Y193559D02*
X156578Y193510D01*
X156691Y193467D01*
X156849Y193430D01*
X157052Y193398D01*
X157592Y193353D01*
X158314Y193330D01*
X158742Y193327D01*
Y191073D01*
X158314Y191070D01*
X156849Y190970D01*
X156691Y190933D01*
X156578Y190890D01*
X156510Y190841D01*
X156488Y190787D01*
Y193613D01*
X156510Y193559D01*
D02*
G37*
G36*
X176094Y175806D02*
X151106D01*
Y190169D01*
X155894D01*
Y189094D01*
X171306D01*
Y190169D01*
X176094D01*
Y175806D01*
D02*
G37*
D18*
X195500Y237800D02*
X197300D01*
X195500Y232600D02*
X197300D01*
X197300Y323800D02*
X197300D01*
X195500D02*
X197300D01*
X195500Y318600D02*
X197300D01*
X195500Y194800D02*
X197300D01*
X195500Y189600D02*
X197300D01*
X195500Y280800D02*
X197300D01*
X195500Y275600D02*
X197300D01*
D20*
X428000Y286000D02*
D03*
X433328D02*
D03*
X337202Y322122D02*
D03*
X331874D02*
D03*
D21*
X356000Y315256D02*
D03*
Y309744D02*
D03*
X380214Y334323D02*
D03*
X360314Y334178D02*
D03*
X380500Y322000D02*
D03*
X492275Y203114D02*
D03*
X351500Y221244D02*
D03*
X298913Y237744D02*
D03*
X380500Y316488D02*
D03*
X360314Y339690D02*
D03*
X380214Y339835D02*
D03*
X492275Y197602D02*
D03*
X351500Y226756D02*
D03*
X298913Y243256D02*
D03*
D24*
X332405Y267531D02*
D03*
X337032Y258968D02*
D03*
Y257000D02*
D03*
Y255031D02*
D03*
Y251095D02*
D03*
Y249126D02*
D03*
X328468Y246468D02*
D03*
X332405D02*
D03*
X330437D02*
D03*
X326500Y267531D02*
D03*
X324532D02*
D03*
X318626D02*
D03*
X315968Y258968D02*
D03*
Y264874D02*
D03*
Y255031D02*
D03*
Y257000D02*
D03*
X326500Y246468D02*
D03*
X318626D02*
D03*
X324532D02*
D03*
X315968Y249126D02*
D03*
X334374Y246468D02*
D03*
X322563D02*
D03*
X320595D02*
D03*
X315968Y251095D02*
D03*
Y253063D02*
D03*
Y260937D02*
D03*
Y262906D02*
D03*
X320595Y267531D02*
D03*
X322563D02*
D03*
X328468D02*
D03*
X330437D02*
D03*
X334374D02*
D03*
X337032Y264874D02*
D03*
Y262906D02*
D03*
Y260937D02*
D03*
Y253063D02*
D03*
D25*
X372000Y322122D02*
D03*
X352100D02*
D03*
X372000Y334500D02*
D03*
X352100D02*
D03*
X368063Y322122D02*
D03*
X373969Y334500D02*
D03*
X354068D02*
D03*
X373969Y322122D02*
D03*
X354068D02*
D03*
X348163D02*
D03*
Y334500D02*
D03*
X368063D02*
D03*
X350132D02*
D03*
Y322122D02*
D03*
X370031Y334500D02*
D03*
Y322122D02*
D03*
D26*
X415756Y168504D02*
D03*
X410244D02*
D03*
X415756Y176000D02*
D03*
X410244D02*
D03*
X427309Y329513D02*
D03*
X341720Y338004D02*
D03*
X341634Y345500D02*
D03*
X427744Y300000D02*
D03*
X345905Y257000D02*
D03*
X452914Y208898D02*
D03*
X441744Y194504D02*
D03*
X463012Y178500D02*
D03*
X462927Y170511D02*
D03*
X336122Y345500D02*
D03*
X336208Y338004D02*
D03*
X432821Y329513D02*
D03*
X340281Y229705D02*
D03*
X297987Y281587D02*
D03*
X433256Y300000D02*
D03*
X351760Y242730D02*
D03*
X351417Y257000D02*
D03*
X447256Y194504D02*
D03*
X458426Y208898D02*
D03*
X457415Y170511D02*
D03*
X457500Y178500D02*
D03*
X334769Y229705D02*
D03*
X303499Y281587D02*
D03*
X346248Y242730D02*
D03*
D27*
X364500Y315164D02*
D03*
X430000Y322664D02*
D03*
X364500Y309836D02*
D03*
X430000Y317336D02*
D03*
D28*
X436000Y169500D02*
D03*
X449000D02*
D03*
D29*
X343037Y297000D02*
D03*
X347963D02*
D03*
D30*
X469227Y194000D02*
D03*
D31*
X331067Y261567D02*
D03*
Y252433D02*
D03*
X321933Y261567D02*
D03*
Y252433D02*
D03*
D32*
X435782Y185000D02*
D03*
X441500D02*
D03*
D33*
X472000Y330500D02*
D03*
X477906D02*
D03*
D34*
X298414Y273500D02*
D03*
X351173Y234643D02*
D03*
X339876Y237791D02*
D03*
X334948D02*
D03*
X303342Y273500D02*
D03*
X346245Y234643D02*
D03*
D35*
X307000Y238036D02*
D03*
Y242964D02*
D03*
D36*
X490087Y173864D02*
D03*
Y179583D02*
D03*
D37*
X191650Y321200D02*
D03*
Y278200D02*
D03*
Y235200D02*
D03*
Y192200D02*
D03*
D38*
X187800Y318600D02*
D03*
Y323800D02*
D03*
Y275600D02*
D03*
Y280800D02*
D03*
Y194800D02*
D03*
Y237800D02*
D03*
Y232600D02*
D03*
Y189600D02*
D03*
Y192200D02*
D03*
X195500Y189600D02*
D03*
Y192200D02*
D03*
Y194800D02*
D03*
X187800Y235200D02*
D03*
X195500Y232600D02*
D03*
Y235200D02*
D03*
Y237800D02*
D03*
X187800Y278200D02*
D03*
X195500Y275600D02*
D03*
Y278200D02*
D03*
Y280800D02*
D03*
X187800Y321200D02*
D03*
X195500Y318600D02*
D03*
Y321200D02*
D03*
Y323800D02*
D03*
D39*
X458500Y191500D02*
D03*
Y201500D02*
D03*
Y196500D02*
D03*
X479955Y186500D02*
D03*
Y191500D02*
D03*
Y196500D02*
D03*
Y201500D02*
D03*
X458500Y186500D02*
D03*
D40*
X449638Y183929D02*
D03*
Y178605D02*
D03*
D42*
X477867Y322000D02*
D03*
X473134D02*
D03*
D43*
X336743Y267243D02*
D03*
X316257D02*
D03*
Y246757D02*
D03*
X336743D02*
D03*
D44*
X241322Y320227D02*
G03*
X239749Y318654I0J-1573D01*
G01*
X232711Y317328D02*
G03*
X239749Y317328I3519J0D01*
G01*
X232711Y325154D02*
G03*
X229565Y325154I-1573J0D01*
G01*
X226046Y320227D02*
G03*
X229565Y323746I0J3519D01*
G01*
X241322Y322173D02*
G03*
X237803Y318654I0J-3519D01*
G01*
X234657Y317328D02*
G03*
X237803Y317328I1573J0D01*
G01*
X234657Y325154D02*
G03*
X227619Y325154I-3519J0D01*
G01*
X226046Y322173D02*
G03*
X227619Y323746I0J1573D01*
G01*
X230165Y277227D02*
G03*
X228592Y275654I0J-1573D01*
G01*
X221554Y270432D02*
G03*
X228592Y270432I3519J0D01*
G01*
X221554Y285000D02*
G03*
X218408Y285000I-1573J0D01*
G01*
X214889Y277227D02*
G03*
X218408Y280746I0J3519D01*
G01*
X230165Y279173D02*
G03*
X226646Y275654I0J-3519D01*
G01*
X223500Y270432D02*
G03*
X226646Y270432I1573J0D01*
G01*
X223500Y285000D02*
G03*
X216462Y285000I-3519J0D01*
G01*
X214889Y279173D02*
G03*
X216462Y280746I0J1573D01*
G01*
X234598Y234227D02*
G03*
X233025Y232654I0J-1573D01*
G01*
X225987Y230565D02*
G03*
X233025Y230565I3519J0D01*
G01*
X225987Y240034D02*
G03*
X222841Y240034I-1573J0D01*
G01*
X215803Y230565D02*
G03*
X222841Y230565I3519J0D01*
G01*
X215803Y240034D02*
G03*
X212657Y240034I-1573J0D01*
G01*
X209138Y234227D02*
G03*
X212657Y237746I0J3519D01*
G01*
X234598Y236173D02*
G03*
X231079Y232654I0J-3519D01*
G01*
X227933Y230565D02*
G03*
X231079Y230565I1573J0D01*
G01*
X227933Y240034D02*
G03*
X220895Y240034I-3519J0D01*
G01*
X217749Y230565D02*
G03*
X220895Y230565I1573J0D01*
G01*
X217749Y240034D02*
G03*
X210711Y240034I-3519J0D01*
G01*
X209138Y236173D02*
G03*
X210711Y237746I0J1573D01*
G01*
X236822Y191227D02*
G03*
X235249Y189654I0J-1573D01*
G01*
X228211Y188490D02*
G03*
X235249Y188490I3519J0D01*
G01*
X228211Y196075D02*
G03*
X225065Y196075I-1573J0D01*
G01*
X221546Y191227D02*
G03*
X225065Y194746I0J3519D01*
G01*
X236822Y193173D02*
G03*
X233303Y189654I0J-3519D01*
G01*
X230157Y188490D02*
G03*
X233303Y188490I1573J0D01*
G01*
X230157Y196075D02*
G03*
X223119Y196075I-3519J0D01*
G01*
X221546Y193173D02*
G03*
X223119Y194746I0J1573D01*
G01*
X288575Y206348D02*
G03*
X290446Y206348I936J936D01*
G01*
X288551Y206372D02*
G03*
X286680Y206372I-936J-936D01*
G01*
X286680Y206372D02*
G03*
X286680Y204501I936J-936D01*
G01*
X286704Y202606D02*
G03*
X286704Y204477I-936J936D01*
G01*
X288235Y309701D02*
G03*
X286365Y309701I-936J-936D01*
G01*
X284483Y309690D02*
G03*
X286353Y309690I936J936D01*
G01*
X284483Y311561D02*
G03*
X284483Y309690I936J-936D01*
G01*
X284493Y311572D02*
G03*
X284493Y313443I-936J936D01*
G01*
X279316Y318621D02*
G03*
X277015Y319951I-3648J-3655D01*
G01*
D02*
G03*
X276654Y320035I-1347J-4986D01*
G01*
X320497Y269295D02*
G03*
X320501Y269148I3092J0D01*
G01*
X320497Y275488D02*
G03*
X319122Y278815I-4712J0D01*
G01*
D02*
G03*
X319121Y278816I-810J-810D01*
G01*
X275670Y320227D02*
G03*
X275668Y320227I-7J-1146D01*
G01*
X275944Y320208D02*
G03*
X275942Y320209I-151J-1136D01*
G01*
X322443Y275488D02*
G03*
X320499Y280190I-6658J0D01*
G01*
X280692Y319997D02*
G03*
X277032Y321944I-5024J-5032D01*
G01*
X276913Y321974D02*
G03*
X277032Y321944I347J1092D01*
G01*
X276204Y322137D02*
G03*
X276199Y322138I-411J-3065D01*
G01*
X275676Y322173D02*
G03*
X275673Y322173I-13J-3092D01*
G01*
X275942Y320209D02*
G03*
X275670Y320227I-274J-2041D01*
G01*
X275673Y322173D02*
G03*
X275668Y322173I-5J-1946D01*
G01*
X322443Y269295D02*
G03*
X322445Y269229I1146J0D01*
G01*
X276913Y321974D02*
G03*
X276204Y322137I-1245J-3807D01*
G01*
X276199Y322138D02*
G03*
X275676Y322173I-531J-3970D01*
G01*
X320499Y280190D02*
G03*
X320496Y280193I-2188J-2185D01*
G01*
X276313Y320123D02*
G03*
X275944Y320208I-645J-1955D01*
G01*
X276313Y320123D02*
G03*
X276654Y320035I948J2943D01*
G01*
X319166Y235068D02*
X319165Y235067D01*
X319168Y235070D02*
G03*
X319166Y235068I1373J-1379D01*
G01*
X319170Y235072D02*
G03*
X320600Y238526I-3455J3453D01*
G01*
X320546Y233696D02*
G03*
X322546Y238526I-4830J4830D01*
G01*
X320541Y233691D02*
G03*
X320543Y233694I-1376J1376D01*
G01*
X278435Y194337D02*
G03*
X278434Y194336I1377J-1376D01*
G01*
X278435Y194338D02*
G03*
X278435Y194337I688J-688D01*
G01*
X276107Y191246D02*
G03*
X279809Y192959I-474J5879D01*
G01*
X275958Y193186D02*
G03*
X278433Y194335I-325J3939D01*
G01*
X278434Y194336D02*
G03*
X278433Y194335I1378J-1374D01*
G01*
X279809Y192959D02*
G03*
X279812Y192962I-1374J1378D01*
G01*
X275626Y193173D02*
G03*
X275956Y193186I8J3952D01*
G01*
X275626Y191227D02*
G03*
X275629Y191227I0J1946D01*
G01*
X276105Y191246D02*
G03*
X276107Y191246I-72J970D01*
G01*
X275629Y191227D02*
G03*
X276105Y191246I5J5898D01*
G01*
X275958Y193186D02*
G03*
X275956Y193186I74J-970D01*
G01*
X199446Y193727D02*
G03*
X200789Y193173I1344J1352D01*
G01*
X199132Y194041D02*
G03*
X197300Y194800I-1832J-1832D01*
G01*
X200548Y191227D02*
G03*
X199612Y190840I0J-1323D01*
G01*
X197300Y189600D02*
G03*
X199132Y190359I0J2590D01*
G01*
X200548Y320227D02*
G03*
X199612Y319840I0J-1323D01*
G01*
X197300Y318600D02*
G03*
X199132Y319359I0J2590D01*
G01*
X199446Y322727D02*
G03*
X200789Y322173I1344J1352D01*
G01*
X243126Y236173D02*
G03*
X243457Y236186I8J4088D01*
G01*
X243460Y236186D02*
G03*
X243457Y236186I72J-970D01*
G01*
X243460Y236186D02*
G03*
X246024Y237370I-326J4075D01*
G01*
X246028Y237374D02*
G03*
X246024Y237370I1376J-1376D01*
G01*
X243126Y234227D02*
G03*
X243129Y234227I0J1946D01*
G01*
X243603Y234245D02*
G03*
X243605Y234245I-70J970D01*
G01*
D02*
G03*
X247404Y235998I-471J6015D01*
G01*
D02*
G03*
X247405Y235999I-1375J1377D01*
G01*
X243129Y234227D02*
G03*
X243603Y234245I5J6034D01*
G01*
X264039Y253052D02*
G03*
X264030Y253052I0J-1946D01*
G01*
D02*
G03*
X264024Y253052I-3J-3092D01*
G01*
X199132Y237041D02*
G03*
X197300Y237800I-1832J-1832D01*
G01*
X199446Y236727D02*
G03*
X200789Y236173I1344J1352D01*
G01*
X264036Y251106D02*
G03*
X264039Y251106I3J973D01*
G01*
X264036D02*
G03*
X264027Y251106I-9J-1146D01*
G01*
X261428Y250022D02*
G03*
X261430Y250024I-1376J1376D01*
G01*
X264024Y253052D02*
G03*
X260054Y251400I15J-5633D01*
G01*
X197300Y232600D02*
G03*
X199132Y233359I0J2590D01*
G01*
X200548Y234227D02*
G03*
X199612Y233840I0J-1323D01*
G01*
X264027Y251106D02*
G03*
X261430Y250024I12J-3687D01*
G01*
X260054Y251400D02*
G03*
X260051Y251397I1374J-1378D01*
G01*
X259223Y262025D02*
G03*
X261828Y260948I2610J2622D01*
G01*
X246575Y277425D02*
G03*
X246568Y277432I-1382J-1370D01*
G01*
X260596Y263404D02*
G03*
X261830Y262894I1236J1244D01*
G01*
X246563Y277437D02*
G03*
X242383Y279173I-4188J-4183D01*
G01*
D02*
G03*
X242375Y279173I-8J-1946D01*
G01*
X246568Y277432D02*
G03*
X246563Y277437I-1376J-1376D01*
G01*
X245187Y276061D02*
G03*
X242375Y277227I-2811J-2807D01*
G01*
X245189Y276059D02*
G03*
X245193Y276055I1380J1372D01*
G01*
X200548Y277227D02*
G03*
X199612Y276839I0J-1323D01*
G01*
X197300Y275600D02*
G03*
X199132Y276359I0J2590D01*
G01*
X199446Y279727D02*
G03*
X200789Y279173I1344J1352D01*
G01*
X199132Y280041D02*
G03*
X197300Y280800I-1832J-1832D01*
G01*
X199132Y323041D02*
G03*
X197300Y323800I-1832J-1832D01*
G01*
X241322Y320227D02*
X249000D01*
X239749Y317328D02*
Y318654D01*
X232711Y317328D02*
Y325154D01*
X229565Y323746D02*
Y325154D01*
X224500Y320227D02*
X226046D01*
X241322Y322173D02*
X249000D01*
X237803Y317328D02*
Y318654D01*
X234657Y317328D02*
Y325154D01*
X227619Y323746D02*
Y325154D01*
X224500Y322173D02*
X226046D01*
X230165Y277227D02*
X234944D01*
X228592Y270432D02*
Y275654D01*
X221554Y270432D02*
Y285000D01*
X218408Y280746D02*
Y285000D01*
X213343Y277227D02*
X214889D01*
X230165Y279173D02*
X234944D01*
X226646Y270432D02*
Y275654D01*
X223500Y270432D02*
Y285000D01*
X216462Y280746D02*
Y285000D01*
X213343Y279173D02*
X214889D01*
X234598Y234227D02*
X242451D01*
X233025Y230565D02*
Y232654D01*
X225987Y230565D02*
Y240034D01*
X222841Y230565D02*
Y240034D01*
X215803Y230565D02*
Y240034D01*
X212657Y237746D02*
Y240034D01*
X207592Y234227D02*
X209138D01*
X234598Y236173D02*
X242451D01*
X231079Y230565D02*
Y232654D01*
X227933Y230565D02*
Y240034D01*
X220895Y230565D02*
Y240034D01*
X217749Y230565D02*
Y240034D01*
X210711Y237746D02*
Y240034D01*
X207592Y236173D02*
X209138D01*
X236822Y191227D02*
X266277D01*
X235249Y188490D02*
Y189654D01*
X228211Y188490D02*
Y196075D01*
X225065Y194746D02*
Y196075D01*
X220000Y191227D02*
X221546D01*
X236822Y193173D02*
X266277D01*
X233303Y188490D02*
Y189654D01*
X230157Y188490D02*
Y196075D01*
X223119Y194746D02*
Y196075D01*
X220000Y193173D02*
X221546D01*
X266277Y191227D02*
X275626D01*
X266277Y193173D02*
X275626D01*
X200548Y191227D02*
X220000D01*
X200789Y193173D02*
X220000D01*
X200548Y234227D02*
X207592D01*
X200789Y236173D02*
X207592D01*
X242451Y234227D02*
X243126D01*
X242451Y236173D02*
X243126D01*
X200548Y320227D02*
X224500D01*
X200789Y322173D02*
X224500D01*
X249000Y320227D02*
X275668D01*
X249000Y322173D02*
X275668D01*
X234944Y277227D02*
X242375D01*
X234944Y279173D02*
X242375D01*
X200548Y277227D02*
X213343D01*
X200789Y279173D02*
X213343D01*
X290446Y206348D02*
X297299Y213201D01*
X288575Y206348D02*
X288575Y206348D01*
X288551Y206372D02*
X288575Y206348D01*
X286680Y206372D02*
X286680Y206372D01*
X286680Y204501D02*
X286704Y204477D01*
X286299Y202201D02*
X286704Y202606D01*
X297299Y213201D02*
X319165Y235067D01*
X278435Y194338D02*
X286299Y202201D01*
X291822Y306115D02*
X319121Y278816D01*
X291417Y306520D02*
X291822Y306115D01*
X288235Y309701D02*
X291417Y306520D01*
X286353Y309690D02*
X286365Y309701D01*
X284483Y311561D02*
X284493Y311572D01*
X282622Y315315D02*
X284493Y313443D01*
X282217Y315720D02*
X282622Y315315D01*
X282217Y315720D02*
X282217D01*
X279316Y318621D02*
X282217Y315720D01*
X291845Y308844D02*
X298457Y302232D01*
X320496Y280193D01*
X280692Y319997D02*
X291845Y308844D01*
X320577Y267549D02*
X320595Y267531D01*
X320501Y269148D02*
X320577Y267549D01*
X322445Y269229D02*
X322545Y267549D01*
X322540Y267554D02*
X322545Y267549D01*
X320497Y269295D02*
Y275488D01*
X322443Y269295D02*
Y275488D01*
X319168Y235070D02*
X319170Y235072D01*
X279812Y192962D02*
X320541Y233691D01*
X320600Y238526D02*
Y246451D01*
X320543Y233694D02*
X320546Y233696D01*
X322546Y238526D02*
Y246451D01*
X322563Y246468D01*
X320595D02*
X320600Y246451D01*
X199271Y193902D02*
X199446Y193727D01*
X199132Y194041D02*
X199271Y193902D01*
X199132Y190359D02*
X199612Y190840D01*
X200789Y193173D02*
X200789Y193173D01*
X200548Y191227D02*
X200548D01*
X199132Y319359D02*
X199612Y319840D01*
X200789Y322173D02*
X200789Y322173D01*
X247405Y235999D02*
X261427Y250022D01*
X246028Y237374D02*
X260051Y251397D01*
X200789Y236173D02*
X200789Y236173D01*
X199132Y237041D02*
X199271Y236902D01*
X200548Y234227D02*
X200548D01*
X199271Y236902D02*
X199446Y236727D01*
X199132Y233359D02*
X199612Y233840D01*
X264039Y251106D02*
X315922D01*
X264039Y253052D02*
X315957D01*
X315968Y253063D01*
X315922Y251106D02*
X315933Y251095D01*
X315968D01*
X261830Y262894D02*
X315951D01*
X261828Y260948D02*
X315951D01*
Y262894D02*
X315968Y262906D01*
X246575Y277425D02*
X260596Y263404D01*
X245193Y276055D02*
X259223Y262025D01*
X315951Y260948D02*
X315968Y260937D01*
X245187Y276061D02*
X245189Y276059D01*
X199132Y276359D02*
X199612Y276839D01*
X200789Y279173D02*
X200789Y279173D01*
X199132Y280041D02*
X199271Y279902D01*
X199446Y279727D01*
X199271Y322902D02*
X199446Y322727D01*
X199132Y323041D02*
X199271Y322902D01*
D45*
X278434Y194336D02*
D03*
D46*
X417437Y275937D02*
D03*
X401500Y268000D02*
D03*
X405500Y279500D02*
D03*
X390500Y273000D02*
D03*
X365224Y281724D02*
D03*
X383500Y300500D02*
D03*
X355500Y278500D02*
D03*
X371766Y305734D02*
D03*
X358925Y286425D02*
D03*
X387000Y288000D02*
D03*
X352500Y284500D02*
D03*
X350509Y304609D02*
D03*
X445125Y200752D02*
D03*
X498523Y197511D02*
D03*
X463591Y208618D02*
D03*
X422730Y286000D02*
D03*
X437000Y317500D02*
D03*
X342286Y322122D02*
D03*
D47*
X365224Y293555D02*
D03*
X362075D02*
D03*
X358925D02*
D03*
X355776D02*
D03*
Y300445D02*
D03*
X358925D02*
D03*
X362075D02*
D03*
X365224D02*
D03*
D48*
X409563Y300201D02*
D03*
X419012Y322799D02*
D03*
X417437D02*
D03*
X415862D02*
D03*
X414287D02*
D03*
X412713D02*
D03*
X411138D02*
D03*
X422161D02*
D03*
Y300201D02*
D03*
X420587D02*
D03*
X404839D02*
D03*
X419012D02*
D03*
X404839Y322799D02*
D03*
X406413D02*
D03*
X420587D02*
D03*
X409563D02*
D03*
X407988D02*
D03*
X406413Y300201D02*
D03*
X407988D02*
D03*
X411138D02*
D03*
X412713D02*
D03*
X414287D02*
D03*
X415862D02*
D03*
X417437D02*
D03*
D49*
X154000Y192200D02*
D03*
X499000Y253000D02*
D03*
X154000Y321200D02*
D03*
Y278200D02*
D03*
Y235200D02*
D03*
D50*
Y321200D02*
X183800D01*
X154000Y192200D02*
X183800D01*
X154000Y235200D02*
X183800D01*
X154000Y278200D02*
X183800D01*
X339500Y253063D02*
X498000Y253063D01*
D51*
X396000Y157000D02*
D03*
X406000D02*
D03*
X426000D02*
D03*
X416000D02*
D03*
X351500Y357000D02*
D03*
X381500D02*
D03*
X401500D02*
D03*
X421500D02*
D03*
X411500D02*
D03*
X391500D02*
D03*
X371500D02*
D03*
X361500D02*
D03*
X341500D02*
D03*
X331500D02*
D03*
X321500D02*
D03*
D52*
X436000Y157000D02*
D03*
X431500Y357000D02*
D03*
D53*
X494000Y258000D02*
D03*
X484000D02*
D03*
X489000D02*
D03*
X499000Y257200D02*
D03*
X479000D02*
D03*
Y248800D02*
D03*
X499000D02*
D03*
X494000Y248000D02*
D03*
X484000D02*
D03*
X489000D02*
D03*
X169000Y326200D02*
D03*
X174000Y325400D02*
D03*
X164000Y326200D02*
D03*
X174000Y317000D02*
D03*
X169000Y316200D02*
D03*
X164000D02*
D03*
X159000Y326200D02*
D03*
X154000Y325400D02*
D03*
Y317000D02*
D03*
X159000Y316200D02*
D03*
X174000Y282400D02*
D03*
Y274000D02*
D03*
X164000Y283200D02*
D03*
X169000D02*
D03*
X164000Y273200D02*
D03*
X169000D02*
D03*
X159000Y283200D02*
D03*
X154000Y282400D02*
D03*
X159000Y273200D02*
D03*
X154000Y274000D02*
D03*
X174000Y239400D02*
D03*
Y231000D02*
D03*
X164000Y240200D02*
D03*
X169000D02*
D03*
X164000Y230200D02*
D03*
X169000D02*
D03*
X159000Y240200D02*
D03*
X154000Y239400D02*
D03*
Y231000D02*
D03*
X159000Y230200D02*
D03*
X174000Y196400D02*
D03*
Y188000D02*
D03*
X164000Y197200D02*
D03*
X169000D02*
D03*
X164000Y187200D02*
D03*
X169000D02*
D03*
X159000Y197200D02*
D03*
X154000Y196400D02*
D03*
X159000Y187200D02*
D03*
X154000Y188000D02*
D03*
D54*
X476500Y357000D02*
D03*
Y157000D02*
D03*
X176500Y357000D02*
D03*
Y157000D02*
D03*
M02*
