G04*
G04 #@! TF.GenerationSoftware,Altium Limited,Altium Designer,26.4.1 (12)*
G04*
G04 Layer_Physical_Order=3*
G04 Layer_Color=16440176*
%FSLAX25Y25*%
%MOIN*%
G70*
G04*
G04 #@! TF.SameCoordinates,2EABD70A-8345-44E5-BABD-0BEDDB5D8E19*
G04*
G04*
G04 #@! TF.FilePolarity,Positive*
G04*
G01*
G75*
%ADD12C,0.02000*%
%ADD54C,0.18110*%
%ADD86C,0.06299*%
G04:AMPARAMS|DCode=87|XSize=62.99mil|YSize=62.99mil|CornerRadius=15.75mil|HoleSize=0mil|Usage=FLASHONLY|Rotation=180.000|XOffset=0mil|YOffset=0mil|HoleType=Round|Shape=RoundedRectangle|*
%AMROUNDEDRECTD87*
21,1,0.06299,0.03150,0,0,180.0*
21,1,0.03150,0.06299,0,0,180.0*
1,1,0.03150,-0.01575,0.01575*
1,1,0.03150,0.01575,0.01575*
1,1,0.03150,0.01575,-0.01575*
1,1,0.03150,-0.01575,-0.01575*
%
%ADD87ROUNDEDRECTD87*%
%ADD88C,0.02587*%
%ADD89C,0.02500*%
%ADD102R,0.07000X0.12000*%
G36*
X480173Y381759D02*
X482582Y381280D01*
X484932Y380567D01*
X487202Y379627D01*
X489368Y378469D01*
X491410Y377104D01*
X493309Y375546D01*
X495046Y373809D01*
X496604Y371910D01*
X497969Y369868D01*
X499127Y367702D01*
X500067Y365432D01*
X500780Y363082D01*
X501259Y360673D01*
X501500Y358228D01*
Y357000D01*
Y258204D01*
X500900Y258084D01*
X500775Y258386D01*
X500186Y258975D01*
X499416Y259294D01*
X498584D01*
X497814Y258975D01*
X497225Y258386D01*
X496906Y257616D01*
Y256784D01*
X497225Y256014D01*
X497814Y255425D01*
X498584Y255106D01*
X499416D01*
X500186Y255425D01*
X500775Y256014D01*
X500900Y256316D01*
X501500Y256196D01*
Y249803D01*
X500900Y249684D01*
X500775Y249986D01*
X500186Y250575D01*
X499416Y250894D01*
X498584D01*
X497814Y250575D01*
X497225Y249986D01*
X496906Y249217D01*
Y248383D01*
X497225Y247614D01*
X497814Y247025D01*
X498584Y246706D01*
X499416D01*
X500186Y247025D01*
X500775Y247614D01*
X500900Y247916D01*
X501500Y247797D01*
Y157000D01*
Y155772D01*
X501259Y153327D01*
X500780Y150918D01*
X500067Y148568D01*
X499127Y146298D01*
X497969Y144132D01*
X496604Y142090D01*
X495046Y140191D01*
X493309Y138454D01*
X491410Y136896D01*
X489368Y135531D01*
X487202Y134373D01*
X484932Y133433D01*
X482582Y132720D01*
X480173Y132241D01*
X477728Y132000D01*
X175272D01*
X172827Y132241D01*
X170418Y132720D01*
X168068Y133433D01*
X165798Y134373D01*
X163632Y135531D01*
X161590Y136896D01*
X159691Y138454D01*
X157954Y140191D01*
X156396Y142090D01*
X155031Y144132D01*
X153873Y146298D01*
X152933Y148568D01*
X152220Y150918D01*
X151741Y153327D01*
X151500Y155772D01*
Y157000D01*
Y186997D01*
X152100Y187116D01*
X152225Y186814D01*
X152814Y186225D01*
X153584Y185906D01*
X154417D01*
X155186Y186225D01*
X155775Y186814D01*
X156094Y187583D01*
Y188417D01*
X155775Y189186D01*
X155186Y189775D01*
X154417Y190094D01*
X153584D01*
X152814Y189775D01*
X152225Y189186D01*
X152100Y188884D01*
X151500Y189003D01*
Y195397D01*
X152100Y195516D01*
X152225Y195214D01*
X152814Y194625D01*
X153584Y194306D01*
X154417D01*
X155186Y194625D01*
X155775Y195214D01*
X156094Y195984D01*
Y196817D01*
X155775Y197586D01*
X155186Y198175D01*
X154417Y198494D01*
X153584D01*
X152814Y198175D01*
X152225Y197586D01*
X152100Y197284D01*
X151500Y197403D01*
Y229997D01*
X152100Y230116D01*
X152225Y229814D01*
X152814Y229225D01*
X153584Y228906D01*
X154417D01*
X155186Y229225D01*
X155775Y229814D01*
X156094Y230584D01*
Y231417D01*
X155775Y232186D01*
X155186Y232775D01*
X154417Y233094D01*
X153584D01*
X152814Y232775D01*
X152225Y232186D01*
X152100Y231884D01*
X151500Y232003D01*
Y238397D01*
X152100Y238516D01*
X152225Y238214D01*
X152814Y237625D01*
X153584Y237306D01*
X154417D01*
X155186Y237625D01*
X155775Y238214D01*
X156094Y238983D01*
Y239816D01*
X155775Y240586D01*
X155186Y241175D01*
X154417Y241494D01*
X153584D01*
X152814Y241175D01*
X152225Y240586D01*
X152100Y240284D01*
X151500Y240403D01*
X151500Y272997D01*
X152100Y273116D01*
X152225Y272814D01*
X152814Y272225D01*
X153584Y271906D01*
X154417D01*
X155186Y272225D01*
X155775Y272814D01*
X156094Y273584D01*
Y274416D01*
X155775Y275186D01*
X155186Y275775D01*
X154417Y276094D01*
X153584D01*
X152814Y275775D01*
X152225Y275186D01*
X152100Y274884D01*
X151500Y275003D01*
Y281397D01*
X152100Y281516D01*
X152225Y281214D01*
X152814Y280625D01*
X153584Y280306D01*
X154417D01*
X155186Y280625D01*
X155775Y281214D01*
X156094Y281983D01*
Y282817D01*
X155775Y283586D01*
X155186Y284175D01*
X154417Y284494D01*
X153584D01*
X152814Y284175D01*
X152225Y283586D01*
X152100Y283284D01*
X151500Y283403D01*
Y315997D01*
X152100Y316116D01*
X152225Y315814D01*
X152814Y315225D01*
X153584Y314906D01*
X154417D01*
X155186Y315225D01*
X155775Y315814D01*
X156094Y316583D01*
Y317417D01*
X155775Y318186D01*
X155186Y318775D01*
X154417Y319094D01*
X153584D01*
X152814Y318775D01*
X152225Y318186D01*
X152100Y317884D01*
X151500Y318003D01*
Y324397D01*
X152100Y324516D01*
X152225Y324214D01*
X152814Y323625D01*
X153584Y323306D01*
X154417D01*
X155186Y323625D01*
X155775Y324214D01*
X156094Y324984D01*
Y325816D01*
X155775Y326586D01*
X155186Y327175D01*
X154417Y327494D01*
X153584D01*
X152814Y327175D01*
X152225Y326586D01*
X152100Y326284D01*
X151500Y326403D01*
Y357000D01*
Y358228D01*
X151741Y360673D01*
X152220Y363082D01*
X152933Y365432D01*
X153873Y367702D01*
X155031Y369868D01*
X156396Y371910D01*
X157954Y373809D01*
X159691Y375546D01*
X161590Y377104D01*
X163632Y378469D01*
X165798Y379627D01*
X168068Y380567D01*
X170418Y381280D01*
X172827Y381759D01*
X175272Y382000D01*
X176500Y382000D01*
X176500Y382000D01*
X477728D01*
X480173Y381759D01*
D02*
G37*
%LPC*%
G36*
X332046Y361150D02*
X332000D01*
Y357500D01*
X335650D01*
Y357546D01*
X335367Y358602D01*
X334821Y359548D01*
X334048Y360320D01*
X333102Y360867D01*
X332046Y361150D01*
D02*
G37*
G36*
X331000D02*
X330954D01*
X329898Y360867D01*
X328952Y360320D01*
X328180Y359548D01*
X327633Y358602D01*
X327350Y357546D01*
Y357500D01*
X331000D01*
Y361150D01*
D02*
G37*
G36*
X422020Y360950D02*
X420980D01*
X419976Y360680D01*
X419075Y360160D01*
X418339Y359425D01*
X417820Y358524D01*
X417550Y357520D01*
Y356480D01*
X417820Y355475D01*
X418339Y354575D01*
X419075Y353839D01*
X419976Y353320D01*
X420980Y353050D01*
X422020D01*
X423025Y353320D01*
X423925Y353839D01*
X424660Y354575D01*
X425180Y355475D01*
X425450Y356480D01*
Y357520D01*
X425180Y358524D01*
X424660Y359425D01*
X423925Y360160D01*
X423025Y360680D01*
X422020Y360950D01*
D02*
G37*
G36*
X412020D02*
X410980D01*
X409975Y360680D01*
X409075Y360160D01*
X408340Y359425D01*
X407820Y358524D01*
X407550Y357520D01*
Y356480D01*
X407820Y355475D01*
X408340Y354575D01*
X409075Y353839D01*
X409975Y353320D01*
X410980Y353050D01*
X412020D01*
X413025Y353320D01*
X413925Y353839D01*
X414661Y354575D01*
X415180Y355475D01*
X415450Y356480D01*
Y357520D01*
X415180Y358524D01*
X414661Y359425D01*
X413925Y360160D01*
X413025Y360680D01*
X412020Y360950D01*
D02*
G37*
G36*
X402020D02*
X400980D01*
X399975Y360680D01*
X399075Y360160D01*
X398340Y359425D01*
X397820Y358524D01*
X397550Y357520D01*
Y356480D01*
X397820Y355475D01*
X398340Y354575D01*
X399075Y353839D01*
X399975Y353320D01*
X400980Y353050D01*
X402020D01*
X403024Y353320D01*
X403925Y353839D01*
X404661Y354575D01*
X405180Y355475D01*
X405450Y356480D01*
Y357520D01*
X405180Y358524D01*
X404661Y359425D01*
X403925Y360160D01*
X403024Y360680D01*
X402020Y360950D01*
D02*
G37*
G36*
X392020D02*
X390980D01*
X389976Y360680D01*
X389075Y360160D01*
X388339Y359425D01*
X387820Y358524D01*
X387550Y357520D01*
Y356480D01*
X387820Y355475D01*
X388339Y354575D01*
X389075Y353839D01*
X389976Y353320D01*
X390980Y353050D01*
X392020D01*
X393024Y353320D01*
X393925Y353839D01*
X394660Y354575D01*
X395180Y355475D01*
X395450Y356480D01*
Y357520D01*
X395180Y358524D01*
X394660Y359425D01*
X393925Y360160D01*
X393024Y360680D01*
X392020Y360950D01*
D02*
G37*
G36*
X382020D02*
X380980D01*
X379976Y360680D01*
X379075Y360160D01*
X378340Y359425D01*
X377820Y358524D01*
X377550Y357520D01*
Y356480D01*
X377820Y355475D01*
X378340Y354575D01*
X379075Y353839D01*
X379976Y353320D01*
X380980Y353050D01*
X382020D01*
X383025Y353320D01*
X383925Y353839D01*
X384661Y354575D01*
X385180Y355475D01*
X385450Y356480D01*
Y357520D01*
X385180Y358524D01*
X384661Y359425D01*
X383925Y360160D01*
X383025Y360680D01*
X382020Y360950D01*
D02*
G37*
G36*
X372020D02*
X370980D01*
X369975Y360680D01*
X369075Y360160D01*
X368339Y359425D01*
X367820Y358524D01*
X367550Y357520D01*
Y356480D01*
X367820Y355475D01*
X368339Y354575D01*
X369075Y353839D01*
X369975Y353320D01*
X370980Y353050D01*
X372020D01*
X373025Y353320D01*
X373925Y353839D01*
X374660Y354575D01*
X375180Y355475D01*
X375450Y356480D01*
Y357520D01*
X375180Y358524D01*
X374660Y359425D01*
X373925Y360160D01*
X373025Y360680D01*
X372020Y360950D01*
D02*
G37*
G36*
X362020D02*
X360980D01*
X359976Y360680D01*
X359075Y360160D01*
X358340Y359425D01*
X357820Y358524D01*
X357550Y357520D01*
Y356480D01*
X357820Y355475D01*
X358340Y354575D01*
X359075Y353839D01*
X359976Y353320D01*
X360980Y353050D01*
X362020D01*
X363024Y353320D01*
X363925Y353839D01*
X364661Y354575D01*
X365180Y355475D01*
X365450Y356480D01*
Y357520D01*
X365180Y358524D01*
X364661Y359425D01*
X363925Y360160D01*
X363024Y360680D01*
X362020Y360950D01*
D02*
G37*
G36*
X352020D02*
X350980D01*
X349975Y360680D01*
X349075Y360160D01*
X348340Y359425D01*
X347820Y358524D01*
X347550Y357520D01*
Y356480D01*
X347820Y355475D01*
X348340Y354575D01*
X349075Y353839D01*
X349975Y353320D01*
X350980Y353050D01*
X352020D01*
X353025Y353320D01*
X353925Y353839D01*
X354661Y354575D01*
X355180Y355475D01*
X355450Y356480D01*
Y357520D01*
X355180Y358524D01*
X354661Y359425D01*
X353925Y360160D01*
X353025Y360680D01*
X352020Y360950D01*
D02*
G37*
G36*
X342020D02*
X340980D01*
X339976Y360680D01*
X339075Y360160D01*
X338339Y359425D01*
X337820Y358524D01*
X337550Y357520D01*
Y356480D01*
X337820Y355475D01*
X338339Y354575D01*
X339075Y353839D01*
X339976Y353320D01*
X340980Y353050D01*
X342020D01*
X343024Y353320D01*
X343925Y353839D01*
X344660Y354575D01*
X345180Y355475D01*
X345450Y356480D01*
Y357520D01*
X345180Y358524D01*
X344660Y359425D01*
X343925Y360160D01*
X343024Y360680D01*
X342020Y360950D01*
D02*
G37*
G36*
X322020D02*
X320980D01*
X319975Y360680D01*
X319075Y360160D01*
X318339Y359425D01*
X317820Y358524D01*
X317550Y357520D01*
Y356480D01*
X317820Y355475D01*
X318339Y354575D01*
X319075Y353839D01*
X319975Y353320D01*
X320980Y353050D01*
X322020D01*
X323025Y353320D01*
X323925Y353839D01*
X324660Y354575D01*
X325180Y355475D01*
X325450Y356480D01*
Y357520D01*
X325180Y358524D01*
X324660Y359425D01*
X323925Y360160D01*
X323025Y360680D01*
X322020Y360950D01*
D02*
G37*
G36*
X433075Y360996D02*
X429925D01*
X428999Y360812D01*
X428213Y360287D01*
X427688Y359501D01*
X427504Y358575D01*
Y355425D01*
X427688Y354499D01*
X428213Y353713D01*
X428999Y353188D01*
X429925Y353004D01*
X433075D01*
X434001Y353188D01*
X434787Y353713D01*
X435312Y354499D01*
X435496Y355425D01*
Y358575D01*
X435312Y359501D01*
X434787Y360287D01*
X434001Y360812D01*
X433075Y360996D01*
D02*
G37*
G36*
X335650Y356500D02*
X332000D01*
Y352850D01*
X332046D01*
X333102Y353133D01*
X334048Y353679D01*
X334821Y354452D01*
X335367Y355398D01*
X335650Y356454D01*
Y356500D01*
D02*
G37*
G36*
X331000D02*
X327350D01*
Y356454D01*
X327633Y355398D01*
X328180Y354452D01*
X328952Y353679D01*
X329898Y353133D01*
X330954Y352850D01*
X331000D01*
Y356500D01*
D02*
G37*
G36*
X355408Y352050D02*
X354592D01*
X353839Y351738D01*
X353262Y351161D01*
X352950Y350408D01*
Y349592D01*
X353262Y348839D01*
X353839Y348262D01*
X354592Y347950D01*
X355408D01*
X356161Y348262D01*
X356738Y348839D01*
X357050Y349592D01*
Y350408D01*
X356738Y351161D01*
X356161Y351738D01*
X355408Y352050D01*
D02*
G37*
G36*
X331908Y351550D02*
X331092D01*
X330339Y351238D01*
X329762Y350661D01*
X329450Y349908D01*
Y349092D01*
X329762Y348339D01*
X330339Y347762D01*
X331092Y347450D01*
X331908D01*
X332661Y347762D01*
X333238Y348339D01*
X333550Y349092D01*
Y349908D01*
X333238Y350661D01*
X332661Y351238D01*
X331908Y351550D01*
D02*
G37*
G36*
X477471Y366855D02*
X475529D01*
X473625Y366476D01*
X471832Y365734D01*
X470218Y364655D01*
X468845Y363282D01*
X467767Y361668D01*
X467024Y359875D01*
X466645Y357971D01*
Y356029D01*
X467024Y354125D01*
X467767Y352332D01*
X468845Y350718D01*
X470218Y349345D01*
X471832Y348267D01*
X473625Y347524D01*
X475529Y347145D01*
X477471D01*
X479375Y347524D01*
X481168Y348267D01*
X482782Y349345D01*
X484155Y350718D01*
X485233Y352332D01*
X485976Y354125D01*
X486355Y356029D01*
Y357971D01*
X485976Y359875D01*
X485233Y361668D01*
X484155Y363282D01*
X482782Y364655D01*
X481168Y365734D01*
X479375Y366476D01*
X477471Y366855D01*
D02*
G37*
G36*
X177471D02*
X175529D01*
X173625Y366476D01*
X171832Y365734D01*
X170218Y364655D01*
X168845Y363282D01*
X167766Y361668D01*
X167024Y359875D01*
X166645Y357971D01*
Y356029D01*
X167024Y354125D01*
X167766Y352332D01*
X168845Y350718D01*
X170218Y349345D01*
X171832Y348267D01*
X173625Y347524D01*
X175529Y347145D01*
X177471D01*
X179375Y347524D01*
X181168Y348267D01*
X182782Y349345D01*
X184155Y350718D01*
X185233Y352332D01*
X185976Y354125D01*
X186355Y356029D01*
Y357971D01*
X185976Y359875D01*
X185233Y361668D01*
X184155Y363282D01*
X182782Y364655D01*
X181168Y365734D01*
X179375Y366476D01*
X177471Y366855D01*
D02*
G37*
G36*
X376908Y349550D02*
X376092D01*
X375339Y349238D01*
X374762Y348661D01*
X374450Y347908D01*
Y347092D01*
X374762Y346339D01*
X375339Y345762D01*
X376092Y345450D01*
X376908D01*
X377661Y345762D01*
X378238Y346339D01*
X378550Y347092D01*
Y347908D01*
X378238Y348661D01*
X377661Y349238D01*
X376908Y349550D01*
D02*
G37*
G36*
X346908Y346050D02*
X346092D01*
X345339Y345738D01*
X344762Y345161D01*
X344450Y344408D01*
Y343592D01*
X344762Y342839D01*
X345339Y342262D01*
X346092Y341950D01*
X346908D01*
X347661Y342262D01*
X348238Y342839D01*
X348550Y343592D01*
Y344408D01*
X348238Y345161D01*
X347661Y345738D01*
X346908Y346050D01*
D02*
G37*
G36*
X365680Y345550D02*
X364864D01*
X364110Y345238D01*
X363534Y344661D01*
X363222Y343908D01*
Y343092D01*
X363534Y342339D01*
X364110Y341762D01*
X364864Y341450D01*
X365680D01*
X366433Y341762D01*
X367010Y342339D01*
X367322Y343092D01*
Y343908D01*
X367010Y344661D01*
X366433Y345238D01*
X365680Y345550D01*
D02*
G37*
G36*
X331908Y344050D02*
X331092D01*
X330339Y343738D01*
X329762Y343161D01*
X329450Y342408D01*
Y341592D01*
X329762Y340839D01*
X330339Y340262D01*
X331092Y339950D01*
X331908D01*
X332661Y340262D01*
X333238Y340839D01*
X333550Y341592D01*
Y342408D01*
X333238Y343161D01*
X332661Y343738D01*
X331908Y344050D01*
D02*
G37*
G36*
X386408Y343550D02*
X385592D01*
X384839Y343238D01*
X384262Y342661D01*
X383950Y341908D01*
Y341092D01*
X384262Y340339D01*
X384839Y339762D01*
X385592Y339450D01*
X386408D01*
X387161Y339762D01*
X387738Y340339D01*
X388050Y341092D01*
Y341908D01*
X387738Y342661D01*
X387161Y343238D01*
X386408Y343550D01*
D02*
G37*
G36*
X437408Y336050D02*
X436592D01*
X435839Y335738D01*
X435262Y335161D01*
X434950Y334408D01*
Y333592D01*
X435262Y332839D01*
X435839Y332262D01*
X436592Y331950D01*
X437408D01*
X438161Y332262D01*
X438738Y332839D01*
X439050Y333592D01*
Y334408D01*
X438738Y335161D01*
X438161Y335738D01*
X437408Y336050D01*
D02*
G37*
G36*
X334908Y334550D02*
X334092D01*
X333339Y334238D01*
X332762Y333661D01*
X332450Y332908D01*
Y332092D01*
X332762Y331339D01*
X333339Y330762D01*
X334092Y330450D01*
X334908D01*
X335661Y330762D01*
X336238Y331339D01*
X336550Y332092D01*
Y332908D01*
X336238Y333661D01*
X335661Y334238D01*
X334908Y334550D01*
D02*
G37*
G36*
X427812Y337954D02*
X426997D01*
X426478Y337740D01*
X385905D01*
X385202Y337600D01*
X384607Y337202D01*
X379464Y332060D01*
X378946Y331845D01*
X378369Y331268D01*
X378154Y330750D01*
X377240Y329835D01*
X361426D01*
X361143Y329953D01*
X357173Y333923D01*
X356578Y334320D01*
X355875Y334460D01*
X342646D01*
X342127Y334675D01*
X341312D01*
X340558Y334363D01*
X339982Y333786D01*
X339669Y333032D01*
Y332217D01*
X339982Y331464D01*
X340558Y330887D01*
X341312Y330575D01*
X342127D01*
X342646Y330789D01*
X355115D01*
X358547Y327357D01*
X358762Y326839D01*
X359339Y326262D01*
X360092Y325950D01*
X360908D01*
X361426Y326165D01*
X378000D01*
X378702Y326304D01*
X379298Y326702D01*
X380750Y328154D01*
X381268Y328369D01*
X381845Y328946D01*
X382060Y329464D01*
X386665Y334069D01*
X426478D01*
X426997Y333855D01*
X427812D01*
X428566Y334167D01*
X429142Y334743D01*
X429455Y335497D01*
Y336312D01*
X429142Y337066D01*
X428566Y337642D01*
X427812Y337954D01*
D02*
G37*
G36*
X232913Y333465D02*
X232098D01*
X231345Y333153D01*
X230768Y332576D01*
X230456Y331823D01*
Y331007D01*
X230768Y330254D01*
X231345Y329677D01*
X232098Y329365D01*
X232913D01*
X233667Y329677D01*
X234244Y330254D01*
X234556Y331007D01*
Y331823D01*
X234244Y332576D01*
X233667Y333153D01*
X232913Y333465D01*
D02*
G37*
G36*
X465908Y332550D02*
X465092D01*
X464339Y332238D01*
X463762Y331661D01*
X463450Y330908D01*
Y330092D01*
X463762Y329339D01*
X464339Y328762D01*
X465092Y328450D01*
X465908D01*
X466661Y328762D01*
X467238Y329339D01*
X467550Y330092D01*
Y330908D01*
X467238Y331661D01*
X466661Y332238D01*
X465908Y332550D01*
D02*
G37*
G36*
X187908D02*
X187092D01*
X186339Y332238D01*
X185762Y331661D01*
X185450Y330908D01*
Y330092D01*
X185762Y329339D01*
X186339Y328762D01*
X187092Y328450D01*
X187908D01*
X188661Y328762D01*
X189238Y329339D01*
X189550Y330092D01*
Y330908D01*
X189238Y331661D01*
X188661Y332238D01*
X187908Y332550D01*
D02*
G37*
G36*
X398908Y330550D02*
X398092D01*
X397339Y330238D01*
X396762Y329661D01*
X396450Y328908D01*
Y328092D01*
X396762Y327339D01*
X397339Y326762D01*
X398092Y326450D01*
X398908D01*
X399661Y326762D01*
X400238Y327339D01*
X400550Y328092D01*
Y328908D01*
X400238Y329661D01*
X399661Y330238D01*
X398908Y330550D01*
D02*
G37*
G36*
X348408Y330050D02*
X347592D01*
X346839Y329738D01*
X346262Y329161D01*
X345950Y328408D01*
Y327592D01*
X346262Y326839D01*
X346839Y326262D01*
X347592Y325950D01*
X348408D01*
X349161Y326262D01*
X349738Y326839D01*
X350050Y327592D01*
Y328408D01*
X349738Y329161D01*
X349161Y329738D01*
X348408Y330050D01*
D02*
G37*
G36*
X198767Y328625D02*
X197951D01*
X197197Y328313D01*
X196621Y327736D01*
X196309Y326982D01*
Y326167D01*
X196621Y325413D01*
X197197Y324837D01*
X197951Y324525D01*
X198767D01*
X199520Y324837D01*
X200097Y325413D01*
X200409Y326167D01*
Y326982D01*
X200097Y327736D01*
X199520Y328313D01*
X198767Y328625D01*
D02*
G37*
G36*
X169416Y328294D02*
X168584D01*
X167814Y327975D01*
X167225Y327386D01*
X166906Y326617D01*
Y325783D01*
X167225Y325014D01*
X167814Y324425D01*
X168584Y324106D01*
X169416D01*
X170186Y324425D01*
X170775Y325014D01*
X171094Y325783D01*
Y326617D01*
X170775Y327386D01*
X170186Y327975D01*
X169416Y328294D01*
D02*
G37*
G36*
X164417D02*
X163584D01*
X162814Y327975D01*
X162225Y327386D01*
X161906Y326617D01*
Y325783D01*
X162225Y325014D01*
X162814Y324425D01*
X163584Y324106D01*
X164417D01*
X165186Y324425D01*
X165775Y325014D01*
X166094Y325783D01*
Y326617D01*
X165775Y327386D01*
X165186Y327975D01*
X164417Y328294D01*
D02*
G37*
G36*
X159416D02*
X158583D01*
X157814Y327975D01*
X157225Y327386D01*
X156906Y326617D01*
Y325783D01*
X157225Y325014D01*
X157814Y324425D01*
X158583Y324106D01*
X159416D01*
X160186Y324425D01*
X160775Y325014D01*
X161094Y325783D01*
Y326617D01*
X160775Y327386D01*
X160186Y327975D01*
X159416Y328294D01*
D02*
G37*
G36*
X237900Y327863D02*
X237085D01*
X236331Y327551D01*
X235755Y326974D01*
X235442Y326221D01*
Y325405D01*
X235755Y324652D01*
X236331Y324075D01*
X237085Y323763D01*
X237900D01*
X238654Y324075D01*
X239230Y324652D01*
X239543Y325405D01*
Y326221D01*
X239230Y326974D01*
X238654Y327551D01*
X237900Y327863D01*
D02*
G37*
G36*
X181408Y327550D02*
X180592D01*
X179839Y327238D01*
X179262Y326661D01*
X178950Y325908D01*
Y325092D01*
X179262Y324339D01*
X179839Y323762D01*
X180592Y323450D01*
X181408D01*
X182161Y323762D01*
X182738Y324339D01*
X183050Y325092D01*
Y325908D01*
X182738Y326661D01*
X182161Y327238D01*
X181408Y327550D01*
D02*
G37*
G36*
X174416Y327494D02*
X173583D01*
X172814Y327175D01*
X172225Y326586D01*
X171906Y325816D01*
Y324984D01*
X172225Y324214D01*
X172814Y323625D01*
X173583Y323306D01*
X174416D01*
X175186Y323625D01*
X175775Y324214D01*
X176094Y324984D01*
Y325816D01*
X175775Y326586D01*
X175186Y327175D01*
X174416Y327494D01*
D02*
G37*
G36*
X275365Y327137D02*
X274550D01*
X273796Y326825D01*
X273219Y326249D01*
X272907Y325495D01*
Y324679D01*
X273219Y323926D01*
X273796Y323349D01*
X274550Y323037D01*
X275365D01*
X276118Y323349D01*
X276695Y323926D01*
X277007Y324679D01*
Y325495D01*
X276695Y326249D01*
X276118Y326825D01*
X275365Y327137D01*
D02*
G37*
G36*
X267865D02*
X267050D01*
X266296Y326825D01*
X265719Y326249D01*
X265407Y325495D01*
Y324679D01*
X265719Y323926D01*
X266296Y323349D01*
X267050Y323037D01*
X267865D01*
X268618Y323349D01*
X269195Y323926D01*
X269507Y324679D01*
Y325495D01*
X269195Y326249D01*
X268618Y326825D01*
X267865Y327137D01*
D02*
G37*
G36*
X260365D02*
X259549D01*
X258796Y326825D01*
X258219Y326249D01*
X257907Y325495D01*
Y324679D01*
X258219Y323926D01*
X258796Y323349D01*
X259549Y323037D01*
X260365D01*
X261119Y323349D01*
X261695Y323926D01*
X262007Y324679D01*
Y325495D01*
X261695Y326249D01*
X261119Y326825D01*
X260365Y327137D01*
D02*
G37*
G36*
X252865D02*
X252049D01*
X251296Y326825D01*
X250719Y326249D01*
X250407Y325495D01*
Y324679D01*
X250719Y323926D01*
X251296Y323349D01*
X252049Y323037D01*
X252865D01*
X253619Y323349D01*
X254195Y323926D01*
X254507Y324679D01*
Y325495D01*
X254195Y326249D01*
X253619Y326825D01*
X252865Y327137D01*
D02*
G37*
G36*
X245365D02*
X244549D01*
X243796Y326825D01*
X243219Y326249D01*
X242907Y325495D01*
Y324679D01*
X243219Y323926D01*
X243796Y323349D01*
X244549Y323037D01*
X245365D01*
X246118Y323349D01*
X246695Y323926D01*
X247007Y324679D01*
Y325495D01*
X246695Y326249D01*
X246118Y326825D01*
X245365Y327137D01*
D02*
G37*
G36*
X221117D02*
X220302D01*
X219549Y326825D01*
X218972Y326249D01*
X218660Y325495D01*
Y324679D01*
X218972Y323926D01*
X219549Y323349D01*
X220302Y323037D01*
X221117D01*
X221871Y323349D01*
X222448Y323926D01*
X222760Y324679D01*
Y325495D01*
X222448Y326249D01*
X221871Y326825D01*
X221117Y327137D01*
D02*
G37*
G36*
X213617D02*
X212802D01*
X212049Y326825D01*
X211472Y326249D01*
X211160Y325495D01*
Y324679D01*
X211472Y323926D01*
X212049Y323349D01*
X212802Y323037D01*
X213617D01*
X214371Y323349D01*
X214948Y323926D01*
X215260Y324679D01*
Y325495D01*
X214948Y326249D01*
X214371Y326825D01*
X213617Y327137D01*
D02*
G37*
G36*
X206118D02*
X205302D01*
X204549Y326825D01*
X203972Y326249D01*
X203660Y325495D01*
Y324679D01*
X203972Y323926D01*
X204549Y323349D01*
X205302Y323037D01*
X206118D01*
X206871Y323349D01*
X207448Y323926D01*
X207760Y324679D01*
Y325495D01*
X207448Y326249D01*
X206871Y326825D01*
X206118Y327137D01*
D02*
G37*
G36*
X469000Y324228D02*
Y322500D01*
X470728D01*
X470407Y323274D01*
X469774Y323907D01*
X469000Y324228D01*
D02*
G37*
G36*
X468000D02*
X467226Y323907D01*
X466593Y323274D01*
X466272Y322500D01*
X468000D01*
Y324228D01*
D02*
G37*
G36*
X437408Y326550D02*
X436592D01*
X435839Y326238D01*
X435262Y325661D01*
X434950Y324908D01*
Y324092D01*
X435262Y323339D01*
X435839Y322762D01*
X436592Y322450D01*
X437408D01*
X438161Y322762D01*
X438738Y323339D01*
X439050Y324092D01*
Y324908D01*
X438738Y325661D01*
X438161Y326238D01*
X437408Y326550D01*
D02*
G37*
G36*
X282454Y324688D02*
X281638D01*
X280885Y324376D01*
X280308Y323799D01*
X279996Y323046D01*
Y322231D01*
X280308Y321477D01*
X280885Y320900D01*
X281638Y320588D01*
X282454D01*
X283207Y320900D01*
X283784Y321477D01*
X284096Y322231D01*
Y323046D01*
X283784Y323799D01*
X283207Y324376D01*
X282454Y324688D01*
D02*
G37*
G36*
X470728Y321500D02*
X469000D01*
Y319772D01*
X469774Y320093D01*
X470407Y320725D01*
X470728Y321500D01*
D02*
G37*
G36*
X468000D02*
X466272D01*
X466593Y320725D01*
X467226Y320093D01*
X468000Y319772D01*
Y321500D01*
D02*
G37*
G36*
X399408Y321550D02*
X398592D01*
X397839Y321238D01*
X397262Y320661D01*
X396950Y319908D01*
Y319092D01*
X397262Y318339D01*
X397839Y317762D01*
X398592Y317450D01*
X399408D01*
X400161Y317762D01*
X400738Y318339D01*
X401050Y319092D01*
Y319908D01*
X400738Y320661D01*
X400161Y321238D01*
X399408Y321550D01*
D02*
G37*
G36*
X287820Y319448D02*
X287004D01*
X286251Y319136D01*
X285674Y318560D01*
X285362Y317806D01*
Y316991D01*
X285674Y316237D01*
X286251Y315660D01*
X287004Y315348D01*
X287820D01*
X288573Y315660D01*
X289150Y316237D01*
X289462Y316991D01*
Y317806D01*
X289150Y318560D01*
X288573Y319136D01*
X287820Y319448D01*
D02*
G37*
G36*
X227107Y319441D02*
X226292D01*
X225538Y319129D01*
X224961Y318552D01*
X224649Y317799D01*
Y316983D01*
X224961Y316230D01*
X225538Y315653D01*
X226292Y315341D01*
X227107D01*
X227861Y315653D01*
X228437Y316230D01*
X228749Y316983D01*
Y317799D01*
X228437Y318552D01*
X227861Y319129D01*
X227107Y319441D01*
D02*
G37*
G36*
X275400Y319363D02*
X274584D01*
X273831Y319051D01*
X273254Y318474D01*
X272942Y317721D01*
Y316905D01*
X273254Y316151D01*
X273831Y315575D01*
X274584Y315263D01*
X275400D01*
X276153Y315575D01*
X276730Y316151D01*
X277042Y316905D01*
Y317721D01*
X276730Y318474D01*
X276153Y319051D01*
X275400Y319363D01*
D02*
G37*
G36*
X267900D02*
X267084D01*
X266331Y319051D01*
X265754Y318474D01*
X265442Y317721D01*
Y316905D01*
X265754Y316151D01*
X266331Y315575D01*
X267084Y315263D01*
X267900D01*
X268653Y315575D01*
X269230Y316151D01*
X269542Y316905D01*
Y317721D01*
X269230Y318474D01*
X268653Y319051D01*
X267900Y319363D01*
D02*
G37*
G36*
X260400D02*
X259584D01*
X258831Y319051D01*
X258254Y318474D01*
X257942Y317721D01*
Y316905D01*
X258254Y316151D01*
X258831Y315575D01*
X259584Y315263D01*
X260400D01*
X261153Y315575D01*
X261730Y316151D01*
X262042Y316905D01*
Y317721D01*
X261730Y318474D01*
X261153Y319051D01*
X260400Y319363D01*
D02*
G37*
G36*
X252900D02*
X252084D01*
X251331Y319051D01*
X250754Y318474D01*
X250442Y317721D01*
Y316905D01*
X250754Y316151D01*
X251331Y315575D01*
X252084Y315263D01*
X252900D01*
X253653Y315575D01*
X254230Y316151D01*
X254542Y316905D01*
Y317721D01*
X254230Y318474D01*
X253653Y319051D01*
X252900Y319363D01*
D02*
G37*
G36*
X245400D02*
X244584D01*
X243831Y319051D01*
X243254Y318474D01*
X242942Y317721D01*
Y316905D01*
X243254Y316151D01*
X243831Y315575D01*
X244584Y315263D01*
X245400D01*
X246153Y315575D01*
X246730Y316151D01*
X247042Y316905D01*
Y317721D01*
X246730Y318474D01*
X246153Y319051D01*
X245400Y319363D01*
D02*
G37*
G36*
X219608D02*
X218792D01*
X218039Y319051D01*
X217462Y318474D01*
X217150Y317721D01*
Y316905D01*
X217462Y316151D01*
X218039Y315575D01*
X218792Y315263D01*
X219608D01*
X220361Y315575D01*
X220938Y316151D01*
X221250Y316905D01*
Y317721D01*
X220938Y318474D01*
X220361Y319051D01*
X219608Y319363D01*
D02*
G37*
G36*
X212108D02*
X211292D01*
X210539Y319051D01*
X209962Y318474D01*
X209650Y317721D01*
Y316905D01*
X209962Y316151D01*
X210539Y315575D01*
X211292Y315263D01*
X212108D01*
X212861Y315575D01*
X213438Y316151D01*
X213750Y316905D01*
Y317721D01*
X213438Y318474D01*
X212861Y319051D01*
X212108Y319363D01*
D02*
G37*
G36*
X204608D02*
X203792D01*
X203039Y319051D01*
X202462Y318474D01*
X202150Y317721D01*
Y316905D01*
X202462Y316151D01*
X203039Y315575D01*
X203792Y315263D01*
X204608D01*
X205361Y315575D01*
X205938Y316151D01*
X206250Y316905D01*
Y317721D01*
X205938Y318474D01*
X205361Y319051D01*
X204608Y319363D01*
D02*
G37*
G36*
X181408Y319050D02*
X180592D01*
X179839Y318738D01*
X179262Y318161D01*
X178950Y317408D01*
Y316592D01*
X179262Y315839D01*
X179839Y315262D01*
X180592Y314950D01*
X181408D01*
X182161Y315262D01*
X182738Y315839D01*
X183050Y316592D01*
Y317408D01*
X182738Y318161D01*
X182161Y318738D01*
X181408Y319050D01*
D02*
G37*
G36*
X174416Y319094D02*
X173583D01*
X172814Y318775D01*
X172225Y318186D01*
X171906Y317417D01*
Y316583D01*
X172225Y315814D01*
X172814Y315225D01*
X173583Y314906D01*
X174416D01*
X175186Y315225D01*
X175775Y315814D01*
X176094Y316583D01*
Y317417D01*
X175775Y318186D01*
X175186Y318775D01*
X174416Y319094D01*
D02*
G37*
G36*
X169416Y318294D02*
X168584D01*
X167814Y317975D01*
X167225Y317386D01*
X166906Y316617D01*
Y315784D01*
X167225Y315014D01*
X167814Y314425D01*
X168584Y314106D01*
X169416D01*
X170186Y314425D01*
X170775Y315014D01*
X171094Y315784D01*
Y316617D01*
X170775Y317386D01*
X170186Y317975D01*
X169416Y318294D01*
D02*
G37*
G36*
X164417D02*
X163584D01*
X162814Y317975D01*
X162225Y317386D01*
X161906Y316617D01*
Y315784D01*
X162225Y315014D01*
X162814Y314425D01*
X163584Y314106D01*
X164417D01*
X165186Y314425D01*
X165775Y315014D01*
X166094Y315784D01*
Y316617D01*
X165775Y317386D01*
X165186Y317975D01*
X164417Y318294D01*
D02*
G37*
G36*
X159416D02*
X158583D01*
X157814Y317975D01*
X157225Y317386D01*
X156906Y316617D01*
Y315784D01*
X157225Y315014D01*
X157814Y314425D01*
X158583Y314106D01*
X159416D01*
X160186Y314425D01*
X160775Y315014D01*
X161094Y315784D01*
Y316617D01*
X160775Y317386D01*
X160186Y317975D01*
X159416Y318294D01*
D02*
G37*
G36*
X197267Y317823D02*
X196452D01*
X195698Y317511D01*
X195122Y316934D01*
X194809Y316181D01*
Y315366D01*
X195122Y314612D01*
X195698Y314035D01*
X196452Y313723D01*
X197267D01*
X198021Y314035D01*
X198597Y314612D01*
X198909Y315366D01*
Y316181D01*
X198597Y316934D01*
X198021Y317511D01*
X197267Y317823D01*
D02*
G37*
G36*
X191408Y316550D02*
X190592D01*
X189839Y316238D01*
X189262Y315661D01*
X188950Y314908D01*
Y314092D01*
X189262Y313339D01*
X189839Y312762D01*
X190592Y312450D01*
X191408D01*
X192161Y312762D01*
X192738Y313339D01*
X193050Y314092D01*
Y314908D01*
X192738Y315661D01*
X192161Y316238D01*
X191408Y316550D01*
D02*
G37*
G36*
X281404Y314869D02*
X280589D01*
X279836Y314557D01*
X279259Y313980D01*
X278947Y313227D01*
Y312411D01*
X279259Y311658D01*
X279836Y311081D01*
X280589Y310769D01*
X281404D01*
X282158Y311081D01*
X282735Y311658D01*
X283047Y312411D01*
Y313227D01*
X282735Y313980D01*
X282158Y314557D01*
X281404Y314869D01*
D02*
G37*
G36*
X232650Y314388D02*
X231834D01*
X231081Y314076D01*
X230504Y313499D01*
X230192Y312746D01*
Y311930D01*
X230504Y311177D01*
X231081Y310600D01*
X231834Y310288D01*
X232650D01*
X233403Y310600D01*
X233980Y311177D01*
X234292Y311930D01*
Y312746D01*
X233980Y313499D01*
X233403Y314076D01*
X232650Y314388D01*
D02*
G37*
G36*
X293123Y314145D02*
X292308D01*
X291554Y313833D01*
X290978Y313256D01*
X290665Y312503D01*
Y311687D01*
X290978Y310934D01*
X291554Y310357D01*
X292308Y310045D01*
X293123D01*
X293877Y310357D01*
X294453Y310934D01*
X294765Y311687D01*
Y312503D01*
X294453Y313256D01*
X293877Y313833D01*
X293123Y314145D01*
D02*
G37*
G36*
X240141Y314016D02*
X239325D01*
X238572Y313704D01*
X237995Y313127D01*
X237683Y312374D01*
Y311558D01*
X237995Y310805D01*
X238572Y310228D01*
X239325Y309916D01*
X240141D01*
X240894Y310228D01*
X241471Y310805D01*
X241783Y311558D01*
Y312374D01*
X241471Y313127D01*
X240894Y313704D01*
X240141Y314016D01*
D02*
G37*
G36*
X380908Y313050D02*
X380092D01*
X379339Y312738D01*
X378762Y312161D01*
X378450Y311408D01*
Y310592D01*
X378762Y309839D01*
X379339Y309262D01*
X380092Y308950D01*
X380908D01*
X381661Y309262D01*
X382238Y309839D01*
X382550Y310592D01*
Y311408D01*
X382238Y312161D01*
X381661Y312738D01*
X380908Y313050D01*
D02*
G37*
G36*
X344408Y311550D02*
X343592D01*
X342839Y311238D01*
X342262Y310661D01*
X341950Y309908D01*
Y309092D01*
X342262Y308339D01*
X342839Y307762D01*
X343592Y307450D01*
X344408D01*
X345161Y307762D01*
X345738Y308339D01*
X346050Y309092D01*
Y309908D01*
X345738Y310661D01*
X345161Y311238D01*
X344408Y311550D01*
D02*
G37*
G36*
X298426Y308842D02*
X297611D01*
X296857Y308530D01*
X296281Y307953D01*
X295969Y307200D01*
Y306384D01*
X296281Y305630D01*
X296857Y305054D01*
X297611Y304742D01*
X298426D01*
X299180Y305054D01*
X299757Y305630D01*
X300069Y306384D01*
Y307200D01*
X299757Y307953D01*
X299180Y308530D01*
X298426Y308842D01*
D02*
G37*
G36*
X285360Y308496D02*
X284544D01*
X283791Y308184D01*
X283214Y307608D01*
X282902Y306854D01*
Y306039D01*
X283214Y305285D01*
X283791Y304709D01*
X284544Y304396D01*
X285360D01*
X286113Y304709D01*
X286690Y305285D01*
X287002Y306039D01*
Y306854D01*
X286690Y307608D01*
X286113Y308184D01*
X285360Y308496D01*
D02*
G37*
G36*
X354958Y307550D02*
X354142D01*
X353389Y307238D01*
X352812Y306661D01*
X352500Y305908D01*
Y305092D01*
X352812Y304339D01*
X353389Y303762D01*
X354142Y303450D01*
X354958D01*
X355711Y303762D01*
X356288Y304339D01*
X356350Y304489D01*
X356950Y304369D01*
Y304092D01*
X357262Y303339D01*
X357839Y302762D01*
X358592Y302450D01*
X359408D01*
X360161Y302762D01*
X360738Y303339D01*
X361050Y304092D01*
Y304908D01*
X360738Y305661D01*
X360161Y306238D01*
X359408Y306550D01*
X358592D01*
X357839Y306238D01*
X357262Y305661D01*
X357200Y305511D01*
X356600Y305631D01*
Y305908D01*
X356288Y306661D01*
X355711Y307238D01*
X354958Y307550D01*
D02*
G37*
G36*
X291732Y304541D02*
X290916D01*
X290163Y304229D01*
X289586Y303653D01*
X289274Y302899D01*
Y302083D01*
X289586Y301330D01*
X290163Y300753D01*
X290916Y300441D01*
X291732D01*
X292485Y300753D01*
X293062Y301330D01*
X293374Y302083D01*
Y302899D01*
X293062Y303653D01*
X292485Y304229D01*
X291732Y304541D01*
D02*
G37*
G36*
X303730Y303538D02*
X302914D01*
X302161Y303226D01*
X301584Y302650D01*
X301272Y301896D01*
Y301081D01*
X301584Y300327D01*
X302161Y299750D01*
X302914Y299438D01*
X303730D01*
X304483Y299750D01*
X305060Y300327D01*
X305372Y301081D01*
Y301896D01*
X305060Y302650D01*
X304483Y303226D01*
X303730Y303538D01*
D02*
G37*
G36*
X399408Y303050D02*
X398592D01*
X397839Y302738D01*
X397262Y302161D01*
X396950Y301408D01*
Y300592D01*
X397262Y299839D01*
X397839Y299262D01*
X398592Y298950D01*
X399408D01*
X400161Y299262D01*
X400738Y299839D01*
X401050Y300592D01*
Y301408D01*
X400738Y302161D01*
X400161Y302738D01*
X399408Y303050D01*
D02*
G37*
G36*
X438908Y302050D02*
X438092D01*
X437339Y301738D01*
X436762Y301161D01*
X436450Y300408D01*
Y299592D01*
X436762Y298839D01*
X437339Y298262D01*
X438092Y297950D01*
X438908D01*
X439661Y298262D01*
X440238Y298839D01*
X440550Y299592D01*
Y300408D01*
X440238Y301161D01*
X439661Y301738D01*
X438908Y302050D01*
D02*
G37*
G36*
X297035Y299238D02*
X296220D01*
X295466Y298926D01*
X294890Y298349D01*
X294578Y297596D01*
Y296780D01*
X294890Y296027D01*
X295466Y295450D01*
X296220Y295138D01*
X297035D01*
X297789Y295450D01*
X298365Y296027D01*
X298677Y296780D01*
Y297596D01*
X298365Y298349D01*
X297789Y298926D01*
X297035Y299238D01*
D02*
G37*
G36*
X378908Y298550D02*
X378092D01*
X377339Y298238D01*
X376762Y297661D01*
X376450Y296908D01*
Y296092D01*
X376762Y295339D01*
X377339Y294762D01*
X378092Y294450D01*
X378908D01*
X379661Y294762D01*
X380238Y295339D01*
X380550Y296092D01*
Y296908D01*
X380238Y297661D01*
X379661Y298238D01*
X378908Y298550D01*
D02*
G37*
G36*
X309033Y298235D02*
X308218D01*
X307464Y297923D01*
X306887Y297346D01*
X306575Y296593D01*
Y295777D01*
X306887Y295024D01*
X307464Y294447D01*
X308218Y294135D01*
X309033D01*
X309787Y294447D01*
X310363Y295024D01*
X310675Y295777D01*
Y296593D01*
X310363Y297346D01*
X309787Y297923D01*
X309033Y298235D01*
D02*
G37*
G36*
X401408Y296550D02*
X400592D01*
X399839Y296238D01*
X399262Y295661D01*
X398950Y294908D01*
Y294092D01*
X399262Y293339D01*
X399839Y292762D01*
X400592Y292450D01*
X401408D01*
X402161Y292762D01*
X402738Y293339D01*
X403050Y294092D01*
Y294908D01*
X402738Y295661D01*
X402161Y296238D01*
X401408Y296550D01*
D02*
G37*
G36*
X302339Y293935D02*
X301523D01*
X300770Y293622D01*
X300193Y293046D01*
X299881Y292292D01*
Y291477D01*
X300193Y290723D01*
X300770Y290147D01*
X301523Y289835D01*
X302339D01*
X303092Y290147D01*
X303669Y290723D01*
X303981Y291477D01*
Y292292D01*
X303669Y293046D01*
X303092Y293622D01*
X302339Y293935D01*
D02*
G37*
G36*
X221756Y293311D02*
X220941D01*
X220187Y292999D01*
X219611Y292422D01*
X219299Y291669D01*
Y290853D01*
X219611Y290100D01*
X220187Y289523D01*
X220941Y289211D01*
X221756D01*
X222510Y289523D01*
X223087Y290100D01*
X223399Y290853D01*
Y291669D01*
X223087Y292422D01*
X222510Y292999D01*
X221756Y293311D01*
D02*
G37*
G36*
X314336Y292932D02*
X313521D01*
X312767Y292620D01*
X312191Y292043D01*
X311879Y291290D01*
Y290474D01*
X312191Y289721D01*
X312767Y289144D01*
X313521Y288832D01*
X314336D01*
X315090Y289144D01*
X315667Y289721D01*
X315979Y290474D01*
Y291290D01*
X315667Y292043D01*
X315090Y292620D01*
X314336Y292932D01*
D02*
G37*
G36*
X369908Y292550D02*
X369092D01*
X368339Y292238D01*
X367762Y291661D01*
X367450Y290908D01*
Y290092D01*
X367762Y289339D01*
X368339Y288762D01*
X369092Y288450D01*
X369908D01*
X370661Y288762D01*
X371238Y289339D01*
X371550Y290092D01*
Y290908D01*
X371238Y291661D01*
X370661Y292238D01*
X369908Y292550D01*
D02*
G37*
G36*
X294408Y289050D02*
X293592D01*
X292839Y288738D01*
X292262Y288161D01*
X291950Y287408D01*
Y286592D01*
X292262Y285839D01*
X292839Y285262D01*
X293592Y284950D01*
X294408D01*
X295161Y285262D01*
X295738Y285839D01*
X296050Y286592D01*
Y287408D01*
X295738Y288161D01*
X295161Y288738D01*
X294408Y289050D01*
D02*
G37*
G36*
X188908D02*
X188092D01*
X187339Y288738D01*
X186762Y288161D01*
X186450Y287408D01*
Y286592D01*
X186762Y285839D01*
X187339Y285262D01*
X188092Y284950D01*
X188908D01*
X189661Y285262D01*
X190238Y285839D01*
X190550Y286592D01*
Y287408D01*
X190238Y288161D01*
X189661Y288738D01*
X188908Y289050D01*
D02*
G37*
G36*
X307642Y288631D02*
X306826D01*
X306073Y288319D01*
X305496Y287743D01*
X305184Y286989D01*
Y286174D01*
X305496Y285420D01*
X306073Y284843D01*
X306826Y284531D01*
X307642D01*
X308395Y284843D01*
X308972Y285420D01*
X309284Y286174D01*
Y286989D01*
X308972Y287743D01*
X308395Y288319D01*
X307642Y288631D01*
D02*
G37*
G36*
X226743Y287709D02*
X225928D01*
X225174Y287397D01*
X224598Y286820D01*
X224285Y286067D01*
Y285251D01*
X224598Y284498D01*
X225174Y283921D01*
X225928Y283609D01*
X226743D01*
X227497Y283921D01*
X228073Y284498D01*
X228385Y285251D01*
Y286067D01*
X228073Y286820D01*
X227497Y287397D01*
X226743Y287709D01*
D02*
G37*
G36*
X319640Y287629D02*
X318824D01*
X318071Y287316D01*
X317494Y286740D01*
X317182Y285986D01*
Y285171D01*
X317494Y284417D01*
X318071Y283841D01*
X318824Y283528D01*
X319640D01*
X320393Y283841D01*
X320970Y284417D01*
X321282Y285171D01*
Y285986D01*
X320970Y286740D01*
X320393Y287316D01*
X319640Y287629D01*
D02*
G37*
G36*
X394908Y286050D02*
X394092D01*
X393339Y285738D01*
X392762Y285161D01*
X392450Y284408D01*
Y283592D01*
X392762Y282839D01*
X393339Y282262D01*
X394092Y281950D01*
X394908D01*
X395661Y282262D01*
X396238Y282839D01*
X396550Y283592D01*
Y284408D01*
X396238Y285161D01*
X395661Y285738D01*
X394908Y286050D01*
D02*
G37*
G36*
X198987Y285564D02*
X198172D01*
X197418Y285252D01*
X196842Y284675D01*
X196529Y283921D01*
Y283106D01*
X196842Y282352D01*
X197418Y281776D01*
X198172Y281464D01*
X198987D01*
X199741Y281776D01*
X200317Y282352D01*
X200629Y283106D01*
Y283921D01*
X200317Y284675D01*
X199741Y285252D01*
X198987Y285564D01*
D02*
G37*
G36*
X169416Y285294D02*
X168584D01*
X167814Y284975D01*
X167225Y284386D01*
X166906Y283616D01*
Y282784D01*
X167225Y282014D01*
X167814Y281425D01*
X168584Y281106D01*
X169416D01*
X170186Y281425D01*
X170775Y282014D01*
X171094Y282784D01*
Y283616D01*
X170775Y284386D01*
X170186Y284975D01*
X169416Y285294D01*
D02*
G37*
G36*
X164417D02*
X163584D01*
X162814Y284975D01*
X162225Y284386D01*
X161906Y283616D01*
Y282784D01*
X162225Y282014D01*
X162814Y281425D01*
X163584Y281106D01*
X164417D01*
X165186Y281425D01*
X165775Y282014D01*
X166094Y282784D01*
Y283616D01*
X165775Y284386D01*
X165186Y284975D01*
X164417Y285294D01*
D02*
G37*
G36*
X159416D02*
X158583D01*
X157814Y284975D01*
X157225Y284386D01*
X156906Y283616D01*
Y282784D01*
X157225Y282014D01*
X157814Y281425D01*
X158583Y281106D01*
X159416D01*
X160186Y281425D01*
X160775Y282014D01*
X161094Y282784D01*
Y283616D01*
X160775Y284386D01*
X160186Y284975D01*
X159416Y285294D01*
D02*
G37*
G36*
X174416Y284494D02*
X173583D01*
X172814Y284175D01*
X172225Y283586D01*
X171906Y282817D01*
Y281983D01*
X172225Y281214D01*
X172814Y280625D01*
X173583Y280306D01*
X174416D01*
X175186Y280625D01*
X175775Y281214D01*
X176094Y281983D01*
Y282817D01*
X175775Y283586D01*
X175186Y284175D01*
X174416Y284494D01*
D02*
G37*
G36*
X240838Y284137D02*
X240022D01*
X239269Y283825D01*
X238692Y283248D01*
X238380Y282495D01*
Y281680D01*
X238692Y280926D01*
X239269Y280349D01*
X240022Y280037D01*
X240838D01*
X241592Y280349D01*
X242168Y280926D01*
X242480Y281680D01*
Y282495D01*
X242168Y283248D01*
X241592Y283825D01*
X240838Y284137D01*
D02*
G37*
G36*
X233338D02*
X232523D01*
X231769Y283825D01*
X231192Y283248D01*
X230880Y282495D01*
Y281680D01*
X231192Y280926D01*
X231769Y280349D01*
X232523Y280037D01*
X233338D01*
X234091Y280349D01*
X234668Y280926D01*
X234980Y281680D01*
Y282495D01*
X234668Y283248D01*
X234091Y283825D01*
X233338Y284137D01*
D02*
G37*
G36*
X213850D02*
X213035D01*
X212281Y283825D01*
X211705Y283248D01*
X211393Y282495D01*
Y281680D01*
X211705Y280926D01*
X212281Y280349D01*
X213035Y280037D01*
X213850D01*
X214604Y280349D01*
X215180Y280926D01*
X215493Y281680D01*
Y282495D01*
X215180Y283248D01*
X214604Y283825D01*
X213850Y284137D01*
D02*
G37*
G36*
X206350D02*
X205535D01*
X204781Y283825D01*
X204205Y283248D01*
X203893Y282495D01*
Y281680D01*
X204205Y280926D01*
X204781Y280349D01*
X205535Y280037D01*
X206350D01*
X207104Y280349D01*
X207681Y280926D01*
X207993Y281680D01*
Y282495D01*
X207681Y283248D01*
X207104Y283825D01*
X206350Y284137D01*
D02*
G37*
G36*
X181408Y284050D02*
X180592D01*
X179839Y283738D01*
X179262Y283161D01*
X178950Y282408D01*
Y281592D01*
X179262Y280839D01*
X179839Y280262D01*
X180592Y279950D01*
X181408D01*
X182161Y280262D01*
X182738Y280839D01*
X183050Y281592D01*
Y282408D01*
X182738Y283161D01*
X182161Y283738D01*
X181408Y284050D01*
D02*
G37*
G36*
X312945Y283328D02*
X312130D01*
X311376Y283016D01*
X310800Y282439D01*
X310487Y281686D01*
Y280870D01*
X310800Y280117D01*
X311376Y279540D01*
X312130Y279228D01*
X312945D01*
X313699Y279540D01*
X314275Y280117D01*
X314587Y280870D01*
Y281686D01*
X314275Y282439D01*
X313699Y283016D01*
X312945Y283328D01*
D02*
G37*
G36*
X248109Y282299D02*
X247294D01*
X246540Y281987D01*
X245964Y281410D01*
X245652Y280657D01*
Y279841D01*
X245964Y279088D01*
X246540Y278511D01*
X247294Y278199D01*
X248109D01*
X248863Y278511D01*
X249439Y279088D01*
X249751Y279841D01*
Y280657D01*
X249439Y281410D01*
X248863Y281987D01*
X248109Y282299D01*
D02*
G37*
G36*
X324605Y282007D02*
X323789D01*
X323036Y281695D01*
X322459Y281118D01*
X322147Y280365D01*
Y279549D01*
X322459Y278796D01*
X323036Y278219D01*
X323789Y277907D01*
X324605D01*
X325358Y278219D01*
X325935Y278796D01*
X326247Y279549D01*
Y280365D01*
X325935Y281118D01*
X325358Y281695D01*
X324605Y282007D01*
D02*
G37*
G36*
X293408Y279550D02*
X292592D01*
X291839Y279238D01*
X291262Y278661D01*
X290950Y277908D01*
Y277092D01*
X291262Y276339D01*
X291839Y275762D01*
X292592Y275450D01*
X293408D01*
X294161Y275762D01*
X294738Y276339D01*
X295050Y277092D01*
Y277908D01*
X294738Y278661D01*
X294161Y279238D01*
X293408Y279550D01*
D02*
G37*
G36*
X309000Y275728D02*
Y274000D01*
X310728D01*
X310407Y274775D01*
X309774Y275408D01*
X309000Y275728D01*
D02*
G37*
G36*
X308000D02*
X307225Y275408D01*
X306592Y274775D01*
X306272Y274000D01*
X308000D01*
Y275728D01*
D02*
G37*
G36*
X317974Y277763D02*
X317158D01*
X316405Y277451D01*
X315828Y276875D01*
X315516Y276121D01*
Y275306D01*
X315828Y274552D01*
X316405Y273975D01*
X317158Y273663D01*
X317974D01*
X318727Y273975D01*
X319304Y274552D01*
X319616Y275306D01*
Y276121D01*
X319304Y276875D01*
X318727Y277451D01*
X317974Y277763D01*
D02*
G37*
G36*
X253497Y277082D02*
X252682D01*
X251928Y276770D01*
X251352Y276193D01*
X251040Y275440D01*
Y274624D01*
X251352Y273871D01*
X251928Y273294D01*
X252682Y272982D01*
X253497D01*
X254251Y273294D01*
X254827Y273871D01*
X255140Y274624D01*
Y275440D01*
X254827Y276193D01*
X254251Y276770D01*
X253497Y277082D01*
D02*
G37*
G36*
X240620Y276363D02*
X239804D01*
X239051Y276051D01*
X238474Y275474D01*
X238162Y274721D01*
Y273905D01*
X238474Y273151D01*
X239051Y272575D01*
X239804Y272263D01*
X240620D01*
X241373Y272575D01*
X241950Y273151D01*
X242262Y273905D01*
Y274721D01*
X241950Y275474D01*
X241373Y276051D01*
X240620Y276363D01*
D02*
G37*
G36*
X233120D02*
X232304D01*
X231551Y276051D01*
X230974Y275474D01*
X230662Y274721D01*
Y273905D01*
X230974Y273151D01*
X231551Y272575D01*
X232304Y272263D01*
X233120D01*
X233873Y272575D01*
X234450Y273151D01*
X234762Y273905D01*
Y274721D01*
X234450Y275474D01*
X233873Y276051D01*
X233120Y276363D01*
D02*
G37*
G36*
X213100D02*
X212285D01*
X211531Y276051D01*
X210955Y275474D01*
X210643Y274721D01*
Y273905D01*
X210955Y273151D01*
X211531Y272575D01*
X212285Y272263D01*
X213100D01*
X213854Y272575D01*
X214430Y273151D01*
X214742Y273905D01*
Y274721D01*
X214430Y275474D01*
X213854Y276051D01*
X213100Y276363D01*
D02*
G37*
G36*
X205600D02*
X204785D01*
X204031Y276051D01*
X203455Y275474D01*
X203142Y274721D01*
Y273905D01*
X203455Y273151D01*
X204031Y272575D01*
X204785Y272263D01*
X205600D01*
X206354Y272575D01*
X206930Y273151D01*
X207242Y273905D01*
Y274721D01*
X206930Y275474D01*
X206354Y276051D01*
X205600Y276363D01*
D02*
G37*
G36*
X181408Y276050D02*
X180592D01*
X179839Y275738D01*
X179262Y275161D01*
X178950Y274408D01*
Y273592D01*
X179262Y272839D01*
X179839Y272262D01*
X180592Y271950D01*
X181408D01*
X182161Y272262D01*
X182738Y272839D01*
X183050Y273592D01*
Y274408D01*
X182738Y275161D01*
X182161Y275738D01*
X181408Y276050D01*
D02*
G37*
G36*
X174416Y276094D02*
X173583D01*
X172814Y275775D01*
X172225Y275186D01*
X171906Y274416D01*
Y273584D01*
X172225Y272814D01*
X172814Y272225D01*
X173583Y271906D01*
X174416D01*
X175186Y272225D01*
X175775Y272814D01*
X176094Y273584D01*
Y274416D01*
X175775Y275186D01*
X175186Y275775D01*
X174416Y276094D01*
D02*
G37*
G36*
X310728Y273000D02*
X309000D01*
Y271272D01*
X309774Y271592D01*
X310407Y272225D01*
X310728Y273000D01*
D02*
G37*
G36*
X308000D02*
X306272D01*
X306592Y272225D01*
X307225Y271592D01*
X308000Y271272D01*
Y273000D01*
D02*
G37*
G36*
X169416Y275294D02*
X168584D01*
X167814Y274975D01*
X167225Y274386D01*
X166906Y273617D01*
Y272783D01*
X167225Y272014D01*
X167814Y271425D01*
X168584Y271106D01*
X169416D01*
X170186Y271425D01*
X170775Y272014D01*
X171094Y272783D01*
Y273617D01*
X170775Y274386D01*
X170186Y274975D01*
X169416Y275294D01*
D02*
G37*
G36*
X164417D02*
X163584D01*
X162814Y274975D01*
X162225Y274386D01*
X161906Y273617D01*
Y272783D01*
X162225Y272014D01*
X162814Y271425D01*
X163584Y271106D01*
X164417D01*
X165186Y271425D01*
X165775Y272014D01*
X166094Y272783D01*
Y273617D01*
X165775Y274386D01*
X165186Y274975D01*
X164417Y275294D01*
D02*
G37*
G36*
X159416D02*
X158583D01*
X157814Y274975D01*
X157225Y274386D01*
X156906Y273617D01*
Y272783D01*
X157225Y272014D01*
X157814Y271425D01*
X158583Y271106D01*
X159416D01*
X160186Y271425D01*
X160775Y272014D01*
X161094Y272783D01*
Y273617D01*
X160775Y274386D01*
X160186Y274975D01*
X159416Y275294D01*
D02*
G37*
G36*
X347908Y275050D02*
X347092D01*
X346339Y274738D01*
X345762Y274161D01*
X345450Y273408D01*
Y272592D01*
X345762Y271839D01*
X346339Y271262D01*
X347092Y270950D01*
X347908D01*
X348661Y271262D01*
X349238Y271839D01*
X349550Y272592D01*
Y273408D01*
X349238Y274161D01*
X348661Y274738D01*
X347908Y275050D01*
D02*
G37*
G36*
X198263Y274809D02*
X197447D01*
X196694Y274497D01*
X196117Y273920D01*
X195805Y273167D01*
Y272351D01*
X196117Y271598D01*
X196694Y271021D01*
X197447Y270709D01*
X198263D01*
X199016Y271021D01*
X199593Y271598D01*
X199905Y272351D01*
Y273167D01*
X199593Y273920D01*
X199016Y274497D01*
X198263Y274809D01*
D02*
G37*
G36*
X381908Y273550D02*
X381092D01*
X380339Y273238D01*
X379762Y272661D01*
X379450Y271908D01*
Y271092D01*
X379762Y270339D01*
X380339Y269762D01*
X381092Y269450D01*
X381908D01*
X382661Y269762D01*
X383238Y270339D01*
X383550Y271092D01*
Y271908D01*
X383238Y272661D01*
X382661Y273238D01*
X381908Y273550D01*
D02*
G37*
G36*
X191708Y273193D02*
X190892D01*
X190139Y272881D01*
X189562Y272304D01*
X189250Y271550D01*
Y270735D01*
X189562Y269981D01*
X190139Y269405D01*
X190892Y269093D01*
X191708D01*
X192461Y269405D01*
X193038Y269981D01*
X193350Y270735D01*
Y271550D01*
X193038Y272304D01*
X192461Y272881D01*
X191708Y273193D01*
D02*
G37*
G36*
X247062Y272522D02*
X246246D01*
X245493Y272210D01*
X244916Y271634D01*
X244604Y270880D01*
Y270064D01*
X244916Y269311D01*
X245493Y268734D01*
X246246Y268422D01*
X247062D01*
X247815Y268734D01*
X248392Y269311D01*
X248704Y270064D01*
Y270880D01*
X248392Y271634D01*
X247815Y272210D01*
X247062Y272522D01*
D02*
G37*
G36*
X219118Y271886D02*
X218302D01*
X217549Y271574D01*
X216972Y270998D01*
X216660Y270244D01*
Y269429D01*
X216972Y268675D01*
X217549Y268099D01*
X218302Y267787D01*
X219118D01*
X219871Y268099D01*
X220448Y268675D01*
X220760Y269429D01*
Y270244D01*
X220448Y270998D01*
X219871Y271574D01*
X219118Y271886D01*
D02*
G37*
G36*
X258801Y271778D02*
X257985D01*
X257232Y271466D01*
X256655Y270890D01*
X256343Y270136D01*
Y269321D01*
X256655Y268567D01*
X257232Y267991D01*
X257985Y267678D01*
X258801D01*
X259554Y267991D01*
X260131Y268567D01*
X260443Y269321D01*
Y270136D01*
X260131Y270890D01*
X259554Y271466D01*
X258801Y271778D01*
D02*
G37*
G36*
X230954Y269182D02*
X230139D01*
X229385Y268870D01*
X228808Y268293D01*
X228496Y267540D01*
Y266724D01*
X228808Y265971D01*
X229385Y265394D01*
X230139Y265082D01*
X230954D01*
X231708Y265394D01*
X232284Y265971D01*
X232596Y266724D01*
Y267540D01*
X232284Y268293D01*
X231708Y268870D01*
X230954Y269182D01*
D02*
G37*
G36*
X333908Y266050D02*
X333092D01*
X332339Y265738D01*
X331762Y265161D01*
X331450Y264408D01*
Y264041D01*
X331230Y263822D01*
X330584Y263999D01*
X330550Y264171D01*
Y264408D01*
X330238Y265161D01*
X329661Y265738D01*
X328908Y266050D01*
X328092D01*
X327339Y265738D01*
X326851Y265250D01*
X326500Y265199D01*
X326149Y265250D01*
X325661Y265738D01*
X324908Y266050D01*
X324092D01*
X323339Y265738D01*
X322762Y265161D01*
X322450Y264408D01*
Y264171D01*
X322416Y263999D01*
X321770Y263822D01*
X321550Y264041D01*
Y264408D01*
X321238Y265161D01*
X320661Y265738D01*
X319908Y266050D01*
X319092D01*
X318339Y265738D01*
X317762Y265161D01*
X317450Y264408D01*
Y263592D01*
X317762Y262839D01*
X318339Y262262D01*
X319092Y261950D01*
X319459D01*
X319678Y261730D01*
X319501Y261084D01*
X319329Y261050D01*
X319092D01*
X318339Y260738D01*
X317762Y260161D01*
X317450Y259408D01*
Y258592D01*
X317762Y257839D01*
X318250Y257351D01*
X318301Y257000D01*
X318250Y256649D01*
X317762Y256161D01*
X317450Y255408D01*
Y254592D01*
X317762Y253839D01*
X318339Y253262D01*
X319092Y252950D01*
X319329D01*
X319501Y252916D01*
X319678Y252270D01*
X319459Y252050D01*
X319092D01*
X318339Y251738D01*
X317762Y251161D01*
X317450Y250408D01*
Y249592D01*
X317762Y248839D01*
X318339Y248262D01*
X319092Y247950D01*
X319908D01*
X320661Y248262D01*
X321238Y248839D01*
X321550Y249592D01*
Y249959D01*
X321770Y250178D01*
X322416Y250001D01*
X322450Y249829D01*
Y249592D01*
X322762Y248839D01*
X323339Y248262D01*
X324092Y247950D01*
X324908D01*
X325661Y248262D01*
X326149Y248750D01*
X326500Y248801D01*
X326851Y248750D01*
X327339Y248262D01*
X328092Y247950D01*
X328908D01*
X329661Y248262D01*
X330238Y248839D01*
X330550Y249592D01*
Y249829D01*
X330584Y250001D01*
X331230Y250178D01*
X331450Y249959D01*
Y249592D01*
X331762Y248839D01*
X332339Y248262D01*
X333092Y247950D01*
X333908D01*
X334661Y248262D01*
X335238Y248839D01*
X335550Y249592D01*
Y250408D01*
X335238Y251161D01*
X334661Y251738D01*
X333908Y252050D01*
X333541D01*
X333322Y252270D01*
X333499Y252916D01*
X333671Y252950D01*
X333908D01*
X334661Y253262D01*
X335238Y253839D01*
X335550Y254592D01*
Y255408D01*
X335238Y256161D01*
X334750Y256649D01*
X334699Y257000D01*
X334750Y257351D01*
X335238Y257839D01*
X335550Y258592D01*
Y259408D01*
X335238Y260161D01*
X334661Y260738D01*
X333908Y261050D01*
X333671D01*
X333499Y261084D01*
X333322Y261730D01*
X333541Y261950D01*
X333908D01*
X334661Y262262D01*
X335238Y262839D01*
X335550Y263592D01*
Y264408D01*
X335238Y265161D01*
X334661Y265738D01*
X333908Y266050D01*
D02*
G37*
G36*
X310195Y267859D02*
X309379D01*
X308626Y267546D01*
X308049Y266970D01*
X307737Y266216D01*
Y265401D01*
X308049Y264647D01*
X308626Y264071D01*
X309379Y263758D01*
X310195D01*
X310948Y264071D01*
X311525Y264647D01*
X311837Y265401D01*
Y266216D01*
X311525Y266970D01*
X310948Y267546D01*
X310195Y267859D01*
D02*
G37*
G36*
X302695D02*
X301879D01*
X301126Y267546D01*
X300549Y266970D01*
X300237Y266216D01*
Y265401D01*
X300549Y264647D01*
X301126Y264071D01*
X301879Y263758D01*
X302695D01*
X303448Y264071D01*
X304025Y264647D01*
X304337Y265401D01*
Y266216D01*
X304025Y266970D01*
X303448Y267546D01*
X302695Y267859D01*
D02*
G37*
G36*
X295195D02*
X294379D01*
X293626Y267546D01*
X293049Y266970D01*
X292737Y266216D01*
Y265401D01*
X293049Y264647D01*
X293626Y264071D01*
X294379Y263758D01*
X295195D01*
X295948Y264071D01*
X296525Y264647D01*
X296837Y265401D01*
Y266216D01*
X296525Y266970D01*
X295948Y267546D01*
X295195Y267859D01*
D02*
G37*
G36*
X287695D02*
X286879D01*
X286126Y267546D01*
X285549Y266970D01*
X285237Y266216D01*
Y265401D01*
X285549Y264647D01*
X286126Y264071D01*
X286879Y263758D01*
X287695D01*
X288448Y264071D01*
X289025Y264647D01*
X289337Y265401D01*
Y266216D01*
X289025Y266970D01*
X288448Y267546D01*
X287695Y267859D01*
D02*
G37*
G36*
X280195D02*
X279379D01*
X278626Y267546D01*
X278049Y266970D01*
X277737Y266216D01*
Y265401D01*
X278049Y264647D01*
X278626Y264071D01*
X279379Y263758D01*
X280195D01*
X280948Y264071D01*
X281525Y264647D01*
X281837Y265401D01*
Y266216D01*
X281525Y266970D01*
X280948Y267546D01*
X280195Y267859D01*
D02*
G37*
G36*
X272695D02*
X271879D01*
X271126Y267546D01*
X270549Y266970D01*
X270237Y266216D01*
Y265401D01*
X270549Y264647D01*
X271126Y264071D01*
X271879Y263758D01*
X272695D01*
X273448Y264071D01*
X274025Y264647D01*
X274337Y265401D01*
Y266216D01*
X274025Y266970D01*
X273448Y267546D01*
X272695Y267859D01*
D02*
G37*
G36*
X265195D02*
X264379D01*
X263626Y267546D01*
X263049Y266970D01*
X262737Y266216D01*
Y265401D01*
X263049Y264647D01*
X263626Y264071D01*
X264379Y263758D01*
X265195D01*
X265948Y264071D01*
X266525Y264647D01*
X266837Y265401D01*
Y266216D01*
X266525Y266970D01*
X265948Y267546D01*
X265195Y267859D01*
D02*
G37*
G36*
X252365Y267219D02*
X251550D01*
X250796Y266907D01*
X250220Y266330D01*
X249907Y265577D01*
Y264761D01*
X250220Y264008D01*
X250796Y263431D01*
X251550Y263119D01*
X252365D01*
X253119Y263431D01*
X253695Y264008D01*
X254008Y264761D01*
Y265577D01*
X253695Y266330D01*
X253119Y266907D01*
X252365Y267219D01*
D02*
G37*
G36*
X224055Y266241D02*
X223239D01*
X222486Y265929D01*
X221909Y265352D01*
X221597Y264598D01*
Y263783D01*
X221909Y263029D01*
X222486Y262453D01*
X223239Y262141D01*
X224055D01*
X224809Y262453D01*
X225385Y263029D01*
X225697Y263783D01*
Y264598D01*
X225385Y265352D01*
X224809Y265929D01*
X224055Y266241D01*
D02*
G37*
G36*
X257688Y261935D02*
X256872D01*
X256119Y261623D01*
X255542Y261046D01*
X255230Y260293D01*
Y259477D01*
X255542Y258724D01*
X256119Y258147D01*
X256872Y257835D01*
X257688D01*
X258441Y258147D01*
X259018Y258724D01*
X259330Y259477D01*
Y260293D01*
X259018Y261046D01*
X258441Y261623D01*
X257688Y261935D01*
D02*
G37*
G36*
X494417Y260094D02*
X493583D01*
X492814Y259775D01*
X492225Y259186D01*
X491906Y258417D01*
Y257583D01*
X492225Y256814D01*
X492814Y256225D01*
X493583Y255906D01*
X494417D01*
X495186Y256225D01*
X495775Y256814D01*
X496094Y257583D01*
Y258417D01*
X495775Y259186D01*
X495186Y259775D01*
X494417Y260094D01*
D02*
G37*
G36*
X489417D02*
X488584D01*
X487814Y259775D01*
X487225Y259186D01*
X486906Y258417D01*
Y257583D01*
X487225Y256814D01*
X487814Y256225D01*
X488584Y255906D01*
X489417D01*
X490186Y256225D01*
X490775Y256814D01*
X491094Y257583D01*
Y258417D01*
X490775Y259186D01*
X490186Y259775D01*
X489417Y260094D01*
D02*
G37*
G36*
X484416D02*
X483583D01*
X482814Y259775D01*
X482225Y259186D01*
X481906Y258417D01*
Y257583D01*
X482225Y256814D01*
X482814Y256225D01*
X483583Y255906D01*
X484416D01*
X485186Y256225D01*
X485775Y256814D01*
X486094Y257583D01*
Y258417D01*
X485775Y259186D01*
X485186Y259775D01*
X484416Y260094D01*
D02*
G37*
G36*
X479417Y259294D02*
X478583D01*
X477814Y258975D01*
X477225Y258386D01*
X476906Y257616D01*
Y256784D01*
X477225Y256014D01*
X477814Y255425D01*
X478583Y255106D01*
X479417D01*
X480186Y255425D01*
X480775Y256014D01*
X481094Y256784D01*
Y257616D01*
X480775Y258386D01*
X480186Y258975D01*
X479417Y259294D01*
D02*
G37*
G36*
X467759Y258556D02*
X466943D01*
X466190Y258244D01*
X465613Y257667D01*
X465301Y256914D01*
Y256098D01*
X465613Y255345D01*
X466190Y254768D01*
X466943Y254456D01*
X467759D01*
X468512Y254768D01*
X469089Y255345D01*
X469401Y256098D01*
Y256914D01*
X469089Y257667D01*
X468512Y258244D01*
X467759Y258556D01*
D02*
G37*
G36*
X460259D02*
X459443D01*
X458690Y258244D01*
X458113Y257667D01*
X457801Y256914D01*
Y256098D01*
X458113Y255345D01*
X458690Y254768D01*
X459443Y254456D01*
X460259D01*
X461012Y254768D01*
X461589Y255345D01*
X461901Y256098D01*
Y256914D01*
X461589Y257667D01*
X461012Y258244D01*
X460259Y258556D01*
D02*
G37*
G36*
X452759D02*
X451943D01*
X451190Y258244D01*
X450613Y257667D01*
X450301Y256914D01*
Y256098D01*
X450613Y255345D01*
X451190Y254768D01*
X451943Y254456D01*
X452759D01*
X453512Y254768D01*
X454089Y255345D01*
X454401Y256098D01*
Y256914D01*
X454089Y257667D01*
X453512Y258244D01*
X452759Y258556D01*
D02*
G37*
G36*
X445259D02*
X444443D01*
X443690Y258244D01*
X443113Y257667D01*
X442801Y256914D01*
Y256098D01*
X443113Y255345D01*
X443690Y254768D01*
X444443Y254456D01*
X445259D01*
X446012Y254768D01*
X446589Y255345D01*
X446901Y256098D01*
Y256914D01*
X446589Y257667D01*
X446012Y258244D01*
X445259Y258556D01*
D02*
G37*
G36*
X437759D02*
X436943D01*
X436190Y258244D01*
X435613Y257667D01*
X435301Y256914D01*
Y256098D01*
X435613Y255345D01*
X436190Y254768D01*
X436943Y254456D01*
X437759D01*
X438512Y254768D01*
X439089Y255345D01*
X439401Y256098D01*
Y256914D01*
X439089Y257667D01*
X438512Y258244D01*
X437759Y258556D01*
D02*
G37*
G36*
X430259D02*
X429443D01*
X428690Y258244D01*
X428113Y257667D01*
X427801Y256914D01*
Y256098D01*
X428113Y255345D01*
X428690Y254768D01*
X429443Y254456D01*
X430259D01*
X431012Y254768D01*
X431589Y255345D01*
X431901Y256098D01*
Y256914D01*
X431589Y257667D01*
X431012Y258244D01*
X430259Y258556D01*
D02*
G37*
G36*
X422759D02*
X421943D01*
X421190Y258244D01*
X420613Y257667D01*
X420301Y256914D01*
Y256098D01*
X420613Y255345D01*
X421190Y254768D01*
X421943Y254456D01*
X422759D01*
X423512Y254768D01*
X424089Y255345D01*
X424401Y256098D01*
Y256914D01*
X424089Y257667D01*
X423512Y258244D01*
X422759Y258556D01*
D02*
G37*
G36*
X407759D02*
X406943D01*
X406190Y258244D01*
X405613Y257667D01*
X405301Y256914D01*
Y256098D01*
X405613Y255345D01*
X406190Y254768D01*
X406943Y254456D01*
X407759D01*
X408512Y254768D01*
X409089Y255345D01*
X409401Y256098D01*
Y256914D01*
X409089Y257667D01*
X408512Y258244D01*
X407759Y258556D01*
D02*
G37*
G36*
X400259D02*
X399443D01*
X398690Y258244D01*
X398113Y257667D01*
X397801Y256914D01*
Y256098D01*
X398113Y255345D01*
X398690Y254768D01*
X399443Y254456D01*
X400259D01*
X401012Y254768D01*
X401589Y255345D01*
X401901Y256098D01*
Y256914D01*
X401589Y257667D01*
X401012Y258244D01*
X400259Y258556D01*
D02*
G37*
G36*
X392759D02*
X391943D01*
X391190Y258244D01*
X390613Y257667D01*
X390301Y256914D01*
Y256098D01*
X390613Y255345D01*
X391190Y254768D01*
X391943Y254456D01*
X392759D01*
X393512Y254768D01*
X394089Y255345D01*
X394401Y256098D01*
Y256914D01*
X394089Y257667D01*
X393512Y258244D01*
X392759Y258556D01*
D02*
G37*
G36*
X385259D02*
X384443D01*
X383690Y258244D01*
X383113Y257667D01*
X382801Y256914D01*
Y256098D01*
X383113Y255345D01*
X383690Y254768D01*
X384443Y254456D01*
X385259D01*
X386012Y254768D01*
X386589Y255345D01*
X386901Y256098D01*
Y256914D01*
X386589Y257667D01*
X386012Y258244D01*
X385259Y258556D01*
D02*
G37*
G36*
X377759D02*
X376943D01*
X376190Y258244D01*
X375613Y257667D01*
X375301Y256914D01*
Y256098D01*
X375613Y255345D01*
X376190Y254768D01*
X376943Y254456D01*
X377759D01*
X378512Y254768D01*
X379089Y255345D01*
X379401Y256098D01*
Y256914D01*
X379089Y257667D01*
X378512Y258244D01*
X377759Y258556D01*
D02*
G37*
G36*
X370259D02*
X369443D01*
X368690Y258244D01*
X368113Y257667D01*
X367801Y256914D01*
Y256098D01*
X368113Y255345D01*
X368690Y254768D01*
X369443Y254456D01*
X370259D01*
X371012Y254768D01*
X371589Y255345D01*
X371901Y256098D01*
Y256914D01*
X371589Y257667D01*
X371012Y258244D01*
X370259Y258556D01*
D02*
G37*
G36*
X362759D02*
X361943D01*
X361190Y258244D01*
X360613Y257667D01*
X360301Y256914D01*
Y256098D01*
X360613Y255345D01*
X361190Y254768D01*
X361943Y254456D01*
X362759D01*
X363512Y254768D01*
X364089Y255345D01*
X364401Y256098D01*
Y256914D01*
X364089Y257667D01*
X363512Y258244D01*
X362759Y258556D01*
D02*
G37*
G36*
X355259D02*
X354443D01*
X353690Y258244D01*
X353113Y257667D01*
X352801Y256914D01*
Y256098D01*
X353113Y255345D01*
X353690Y254768D01*
X354443Y254456D01*
X355259D01*
X356012Y254768D01*
X356589Y255345D01*
X356901Y256098D01*
Y256914D01*
X356589Y257667D01*
X356012Y258244D01*
X355259Y258556D01*
D02*
G37*
G36*
X307460Y258016D02*
X306644D01*
X305891Y257704D01*
X305314Y257127D01*
X305002Y256374D01*
Y255558D01*
X305314Y254805D01*
X305891Y254228D01*
X306644Y253916D01*
X307460D01*
X308213Y254228D01*
X308790Y254805D01*
X309102Y255558D01*
Y256374D01*
X308790Y257127D01*
X308213Y257704D01*
X307460Y258016D01*
D02*
G37*
G36*
X299960D02*
X299144D01*
X298391Y257704D01*
X297814Y257127D01*
X297502Y256374D01*
Y255558D01*
X297814Y254805D01*
X298391Y254228D01*
X299144Y253916D01*
X299960D01*
X300713Y254228D01*
X301290Y254805D01*
X301602Y255558D01*
Y256374D01*
X301290Y257127D01*
X300713Y257704D01*
X299960Y258016D01*
D02*
G37*
G36*
X292460D02*
X291644D01*
X290891Y257704D01*
X290314Y257127D01*
X290002Y256374D01*
Y255558D01*
X290314Y254805D01*
X290891Y254228D01*
X291644Y253916D01*
X292460D01*
X293213Y254228D01*
X293790Y254805D01*
X294102Y255558D01*
Y256374D01*
X293790Y257127D01*
X293213Y257704D01*
X292460Y258016D01*
D02*
G37*
G36*
X284960D02*
X284144D01*
X283391Y257704D01*
X282814Y257127D01*
X282502Y256374D01*
Y255558D01*
X282814Y254805D01*
X283391Y254228D01*
X284144Y253916D01*
X284960D01*
X285713Y254228D01*
X286290Y254805D01*
X286602Y255558D01*
Y256374D01*
X286290Y257127D01*
X285713Y257704D01*
X284960Y258016D01*
D02*
G37*
G36*
X277460D02*
X276644D01*
X275891Y257704D01*
X275314Y257127D01*
X275002Y256374D01*
Y255558D01*
X275314Y254805D01*
X275891Y254228D01*
X276644Y253916D01*
X277460D01*
X278213Y254228D01*
X278790Y254805D01*
X279102Y255558D01*
Y256374D01*
X278790Y257127D01*
X278213Y257704D01*
X277460Y258016D01*
D02*
G37*
G36*
X269960D02*
X269144D01*
X268391Y257704D01*
X267814Y257127D01*
X267502Y256374D01*
Y255558D01*
X267814Y254805D01*
X268391Y254228D01*
X269144Y253916D01*
X269960D01*
X270713Y254228D01*
X271290Y254805D01*
X271602Y255558D01*
Y256374D01*
X271290Y257127D01*
X270713Y257704D01*
X269960Y258016D01*
D02*
G37*
G36*
X262464Y257750D02*
X261649D01*
X260895Y257438D01*
X260319Y256861D01*
X260007Y256108D01*
Y255292D01*
X260319Y254539D01*
X260895Y253962D01*
X261649Y253650D01*
X262464D01*
X263218Y253962D01*
X263795Y254539D01*
X264107Y255292D01*
Y256108D01*
X263795Y256861D01*
X263218Y257438D01*
X262464Y257750D01*
D02*
G37*
G36*
X256328Y253438D02*
X255513D01*
X254759Y253126D01*
X254183Y252549D01*
X253870Y251796D01*
Y250980D01*
X254183Y250227D01*
X254759Y249650D01*
X255513Y249338D01*
X256328D01*
X257082Y249650D01*
X257658Y250227D01*
X257970Y250980D01*
Y251796D01*
X257658Y252549D01*
X257082Y253126D01*
X256328Y253438D01*
D02*
G37*
G36*
X470925Y251670D02*
X470109D01*
X469356Y251358D01*
X468779Y250781D01*
X468467Y250028D01*
Y249212D01*
X468779Y248459D01*
X469356Y247882D01*
X470109Y247570D01*
X470925D01*
X471678Y247882D01*
X472255Y248459D01*
X472567Y249212D01*
Y250028D01*
X472255Y250781D01*
X471678Y251358D01*
X470925Y251670D01*
D02*
G37*
G36*
X463425D02*
X462609D01*
X461856Y251358D01*
X461279Y250781D01*
X460967Y250028D01*
Y249212D01*
X461279Y248459D01*
X461856Y247882D01*
X462609Y247570D01*
X463425D01*
X464178Y247882D01*
X464755Y248459D01*
X465067Y249212D01*
Y250028D01*
X464755Y250781D01*
X464178Y251358D01*
X463425Y251670D01*
D02*
G37*
G36*
X455925D02*
X455109D01*
X454356Y251358D01*
X453779Y250781D01*
X453467Y250028D01*
Y249212D01*
X453779Y248459D01*
X454356Y247882D01*
X455109Y247570D01*
X455925D01*
X456678Y247882D01*
X457255Y248459D01*
X457567Y249212D01*
Y250028D01*
X457255Y250781D01*
X456678Y251358D01*
X455925Y251670D01*
D02*
G37*
G36*
X448425D02*
X447609D01*
X446856Y251358D01*
X446279Y250781D01*
X445967Y250028D01*
Y249212D01*
X446279Y248459D01*
X446856Y247882D01*
X447609Y247570D01*
X448425D01*
X449178Y247882D01*
X449755Y248459D01*
X450067Y249212D01*
Y250028D01*
X449755Y250781D01*
X449178Y251358D01*
X448425Y251670D01*
D02*
G37*
G36*
X440925D02*
X440109D01*
X439356Y251358D01*
X438779Y250781D01*
X438467Y250028D01*
Y249212D01*
X438779Y248459D01*
X439356Y247882D01*
X440109Y247570D01*
X440925D01*
X441678Y247882D01*
X442255Y248459D01*
X442567Y249212D01*
Y250028D01*
X442255Y250781D01*
X441678Y251358D01*
X440925Y251670D01*
D02*
G37*
G36*
X433425D02*
X432609D01*
X431856Y251358D01*
X431279Y250781D01*
X430967Y250028D01*
Y249212D01*
X431279Y248459D01*
X431856Y247882D01*
X432609Y247570D01*
X433425D01*
X434178Y247882D01*
X434755Y248459D01*
X435067Y249212D01*
Y250028D01*
X434755Y250781D01*
X434178Y251358D01*
X433425Y251670D01*
D02*
G37*
G36*
X425925D02*
X425109D01*
X424356Y251358D01*
X423779Y250781D01*
X423467Y250028D01*
Y249212D01*
X423779Y248459D01*
X424356Y247882D01*
X425109Y247570D01*
X425925D01*
X426678Y247882D01*
X427255Y248459D01*
X427567Y249212D01*
Y250028D01*
X427255Y250781D01*
X426678Y251358D01*
X425925Y251670D01*
D02*
G37*
G36*
X410925D02*
X410109D01*
X409356Y251358D01*
X408779Y250781D01*
X408467Y250028D01*
Y249212D01*
X408779Y248459D01*
X409356Y247882D01*
X410109Y247570D01*
X410925D01*
X411678Y247882D01*
X412255Y248459D01*
X412567Y249212D01*
Y250028D01*
X412255Y250781D01*
X411678Y251358D01*
X410925Y251670D01*
D02*
G37*
G36*
X403425D02*
X402609D01*
X401856Y251358D01*
X401279Y250781D01*
X400967Y250028D01*
Y249212D01*
X401279Y248459D01*
X401856Y247882D01*
X402609Y247570D01*
X403425D01*
X404178Y247882D01*
X404755Y248459D01*
X405067Y249212D01*
Y250028D01*
X404755Y250781D01*
X404178Y251358D01*
X403425Y251670D01*
D02*
G37*
G36*
X395925D02*
X395109D01*
X394356Y251358D01*
X393779Y250781D01*
X393467Y250028D01*
Y249212D01*
X393779Y248459D01*
X394356Y247882D01*
X395109Y247570D01*
X395925D01*
X396678Y247882D01*
X397255Y248459D01*
X397567Y249212D01*
Y250028D01*
X397255Y250781D01*
X396678Y251358D01*
X395925Y251670D01*
D02*
G37*
G36*
X388425D02*
X387609D01*
X386856Y251358D01*
X386279Y250781D01*
X385967Y250028D01*
Y249212D01*
X386279Y248459D01*
X386856Y247882D01*
X387609Y247570D01*
X388425D01*
X389178Y247882D01*
X389755Y248459D01*
X390067Y249212D01*
Y250028D01*
X389755Y250781D01*
X389178Y251358D01*
X388425Y251670D01*
D02*
G37*
G36*
X380925D02*
X380109D01*
X379356Y251358D01*
X378779Y250781D01*
X378467Y250028D01*
Y249212D01*
X378779Y248459D01*
X379356Y247882D01*
X380109Y247570D01*
X380925D01*
X381678Y247882D01*
X382255Y248459D01*
X382567Y249212D01*
Y250028D01*
X382255Y250781D01*
X381678Y251358D01*
X380925Y251670D01*
D02*
G37*
G36*
X373425D02*
X372609D01*
X371856Y251358D01*
X371279Y250781D01*
X370967Y250028D01*
Y249212D01*
X371279Y248459D01*
X371856Y247882D01*
X372609Y247570D01*
X373425D01*
X374178Y247882D01*
X374755Y248459D01*
X375067Y249212D01*
Y250028D01*
X374755Y250781D01*
X374178Y251358D01*
X373425Y251670D01*
D02*
G37*
G36*
X365925D02*
X365109D01*
X364356Y251358D01*
X363779Y250781D01*
X363467Y250028D01*
Y249212D01*
X363779Y248459D01*
X364356Y247882D01*
X365109Y247570D01*
X365925D01*
X366678Y247882D01*
X367255Y248459D01*
X367567Y249212D01*
Y250028D01*
X367255Y250781D01*
X366678Y251358D01*
X365925Y251670D01*
D02*
G37*
G36*
X358425D02*
X357609D01*
X356856Y251358D01*
X356279Y250781D01*
X355967Y250028D01*
Y249212D01*
X356279Y248459D01*
X356856Y247882D01*
X357609Y247570D01*
X358425D01*
X359178Y247882D01*
X359755Y248459D01*
X360067Y249212D01*
Y250028D01*
X359755Y250781D01*
X359178Y251358D01*
X358425Y251670D01*
D02*
G37*
G36*
X350925D02*
X350109D01*
X349356Y251358D01*
X348779Y250781D01*
X348467Y250028D01*
Y249212D01*
X348779Y248459D01*
X349356Y247882D01*
X350109Y247570D01*
X350925D01*
X351678Y247882D01*
X352255Y248459D01*
X352567Y249212D01*
Y250028D01*
X352255Y250781D01*
X351678Y251358D01*
X350925Y251670D01*
D02*
G37*
G36*
X343425D02*
X342609D01*
X341856Y251358D01*
X341279Y250781D01*
X340967Y250028D01*
Y249212D01*
X341279Y248459D01*
X341856Y247882D01*
X342609Y247570D01*
X343425D01*
X344178Y247882D01*
X344755Y248459D01*
X345067Y249212D01*
Y250028D01*
X344755Y250781D01*
X344178Y251358D01*
X343425Y251670D01*
D02*
G37*
G36*
X479417Y250894D02*
X478583D01*
X477814Y250575D01*
X477225Y249986D01*
X476906Y249217D01*
Y248383D01*
X477225Y247614D01*
X477814Y247025D01*
X478583Y246706D01*
X479417D01*
X480186Y247025D01*
X480775Y247614D01*
X481094Y248383D01*
Y249217D01*
X480775Y249986D01*
X480186Y250575D01*
X479417Y250894D01*
D02*
G37*
G36*
X310748Y250241D02*
X309933D01*
X309179Y249929D01*
X308603Y249353D01*
X308291Y248599D01*
Y247784D01*
X308603Y247030D01*
X309179Y246453D01*
X309933Y246141D01*
X310748D01*
X311502Y246453D01*
X312078Y247030D01*
X312390Y247784D01*
Y248599D01*
X312078Y249353D01*
X311502Y249929D01*
X310748Y250241D01*
D02*
G37*
G36*
X303248D02*
X302433D01*
X301679Y249929D01*
X301103Y249353D01*
X300791Y248599D01*
Y247784D01*
X301103Y247030D01*
X301679Y246453D01*
X302433Y246141D01*
X303248D01*
X304002Y246453D01*
X304578Y247030D01*
X304890Y247784D01*
Y248599D01*
X304578Y249353D01*
X304002Y249929D01*
X303248Y250241D01*
D02*
G37*
G36*
X295748D02*
X294933D01*
X294179Y249929D01*
X293603Y249353D01*
X293290Y248599D01*
Y247784D01*
X293603Y247030D01*
X294179Y246453D01*
X294933Y246141D01*
X295748D01*
X296502Y246453D01*
X297078Y247030D01*
X297391Y247784D01*
Y248599D01*
X297078Y249353D01*
X296502Y249929D01*
X295748Y250241D01*
D02*
G37*
G36*
X288248D02*
X287433D01*
X286679Y249929D01*
X286103Y249353D01*
X285790Y248599D01*
Y247784D01*
X286103Y247030D01*
X286679Y246453D01*
X287433Y246141D01*
X288248D01*
X289002Y246453D01*
X289578Y247030D01*
X289891Y247784D01*
Y248599D01*
X289578Y249353D01*
X289002Y249929D01*
X288248Y250241D01*
D02*
G37*
G36*
X280748D02*
X279933D01*
X279179Y249929D01*
X278603Y249353D01*
X278291Y248599D01*
Y247784D01*
X278603Y247030D01*
X279179Y246453D01*
X279933Y246141D01*
X280748D01*
X281502Y246453D01*
X282078Y247030D01*
X282390Y247784D01*
Y248599D01*
X282078Y249353D01*
X281502Y249929D01*
X280748Y250241D01*
D02*
G37*
G36*
X273248D02*
X272433D01*
X271679Y249929D01*
X271103Y249353D01*
X270791Y248599D01*
Y247784D01*
X271103Y247030D01*
X271679Y246453D01*
X272433Y246141D01*
X273248D01*
X274002Y246453D01*
X274578Y247030D01*
X274890Y247784D01*
Y248599D01*
X274578Y249353D01*
X274002Y249929D01*
X273248Y250241D01*
D02*
G37*
G36*
X265748D02*
X264933D01*
X264179Y249929D01*
X263603Y249353D01*
X263291Y248599D01*
Y247784D01*
X263603Y247030D01*
X264179Y246453D01*
X264933Y246141D01*
X265748D01*
X266502Y246453D01*
X267078Y247030D01*
X267390Y247784D01*
Y248599D01*
X267078Y249353D01*
X266502Y249929D01*
X265748Y250241D01*
D02*
G37*
G36*
X494417Y250094D02*
X493583D01*
X492814Y249775D01*
X492225Y249186D01*
X491906Y248416D01*
Y247584D01*
X492225Y246814D01*
X492814Y246225D01*
X493583Y245906D01*
X494417D01*
X495186Y246225D01*
X495775Y246814D01*
X496094Y247584D01*
Y248416D01*
X495775Y249186D01*
X495186Y249775D01*
X494417Y250094D01*
D02*
G37*
G36*
X489417D02*
X488584D01*
X487814Y249775D01*
X487225Y249186D01*
X486906Y248416D01*
Y247584D01*
X487225Y246814D01*
X487814Y246225D01*
X488584Y245906D01*
X489417D01*
X490186Y246225D01*
X490775Y246814D01*
X491094Y247584D01*
Y248416D01*
X490775Y249186D01*
X490186Y249775D01*
X489417Y250094D01*
D02*
G37*
G36*
X484416D02*
X483583D01*
X482814Y249775D01*
X482225Y249186D01*
X481906Y248416D01*
Y247584D01*
X482225Y246814D01*
X482814Y246225D01*
X483583Y245906D01*
X484416D01*
X485186Y246225D01*
X485775Y246814D01*
X486094Y247584D01*
Y248416D01*
X485775Y249186D01*
X485186Y249775D01*
X484416Y250094D01*
D02*
G37*
G36*
X225939Y248377D02*
X225124D01*
X224370Y248065D01*
X223794Y247489D01*
X223481Y246735D01*
Y245920D01*
X223794Y245166D01*
X224370Y244590D01*
X225124Y244278D01*
X225939D01*
X226693Y244590D01*
X227269Y245166D01*
X227582Y245920D01*
Y246735D01*
X227269Y247489D01*
X226693Y248065D01*
X225939Y248377D01*
D02*
G37*
G36*
X251025Y248134D02*
X250209D01*
X249456Y247822D01*
X248879Y247246D01*
X248567Y246492D01*
Y245677D01*
X248879Y244923D01*
X249456Y244347D01*
X250209Y244035D01*
X251025D01*
X251778Y244347D01*
X252355Y244923D01*
X252667Y245677D01*
Y246492D01*
X252355Y247246D01*
X251778Y247822D01*
X251025Y248134D01*
D02*
G37*
G36*
X211047Y247378D02*
X210231D01*
X209478Y247066D01*
X208901Y246489D01*
X208589Y245736D01*
Y244920D01*
X208901Y244166D01*
X209478Y243590D01*
X210231Y243278D01*
X211047D01*
X211800Y243590D01*
X212377Y244166D01*
X212689Y244920D01*
Y245736D01*
X212377Y246489D01*
X211800Y247066D01*
X211047Y247378D01*
D02*
G37*
G36*
X218543Y247136D02*
X217727D01*
X216974Y246824D01*
X216397Y246248D01*
X216085Y245494D01*
Y244678D01*
X216397Y243925D01*
X216974Y243348D01*
X217727Y243036D01*
X218543D01*
X219296Y243348D01*
X219873Y243925D01*
X220185Y244678D01*
Y245494D01*
X219873Y246248D01*
X219296Y246824D01*
X218543Y247136D01*
D02*
G37*
G36*
X188908Y246050D02*
X188092D01*
X187339Y245738D01*
X186762Y245161D01*
X186450Y244408D01*
Y243592D01*
X186762Y242839D01*
X187339Y242262D01*
X188092Y241950D01*
X188908D01*
X189661Y242262D01*
X190238Y242839D01*
X190550Y243592D01*
Y244408D01*
X190238Y245161D01*
X189661Y245738D01*
X188908Y246050D01*
D02*
G37*
G36*
X259697Y245811D02*
X258881D01*
X258127Y245499D01*
X257551Y244922D01*
X257239Y244169D01*
Y243354D01*
X257551Y242600D01*
X258127Y242023D01*
X258881Y241711D01*
X259697D01*
X260450Y242023D01*
X261027Y242600D01*
X261339Y243354D01*
Y244169D01*
X261027Y244922D01*
X260450Y245499D01*
X259697Y245811D01*
D02*
G37*
G36*
X293500Y243228D02*
Y241500D01*
X295228D01*
X294907Y242274D01*
X294274Y242908D01*
X293500Y243228D01*
D02*
G37*
G36*
X292500D02*
X291725Y242908D01*
X291092Y242274D01*
X290772Y241500D01*
X292500D01*
Y243228D01*
D02*
G37*
G36*
X231145Y242978D02*
X230329D01*
X229576Y242666D01*
X228999Y242089D01*
X228687Y241336D01*
Y240520D01*
X228999Y239767D01*
X229576Y239190D01*
X230329Y238878D01*
X231145D01*
X231898Y239190D01*
X232475Y239767D01*
X232787Y240520D01*
Y241336D01*
X232475Y242089D01*
X231898Y242666D01*
X231145Y242978D01*
D02*
G37*
G36*
X295228Y240500D02*
X293500D01*
Y238772D01*
X294274Y239092D01*
X294907Y239725D01*
X295228Y240500D01*
D02*
G37*
G36*
X292500D02*
X290772D01*
X291092Y239725D01*
X291725Y239092D01*
X292500Y238772D01*
Y240500D01*
D02*
G37*
G36*
X245722Y242831D02*
X244906D01*
X244152Y242519D01*
X243576Y241942D01*
X243264Y241189D01*
Y240373D01*
X243576Y239620D01*
X244152Y239043D01*
X244906Y238731D01*
X245722D01*
X246475Y239043D01*
X247052Y239620D01*
X247364Y240373D01*
Y241189D01*
X247052Y241942D01*
X246475Y242519D01*
X245722Y242831D01*
D02*
G37*
G36*
X318094Y242768D02*
X317278D01*
X316525Y242456D01*
X315948Y241879D01*
X315636Y241126D01*
Y240310D01*
X315948Y239557D01*
X316525Y238980D01*
X317278Y238668D01*
X318094D01*
X318847Y238980D01*
X319424Y239557D01*
X319736Y240310D01*
Y241126D01*
X319424Y241879D01*
X318847Y242456D01*
X318094Y242768D01*
D02*
G37*
G36*
X328408Y242550D02*
X327592D01*
X326839Y242238D01*
X326262Y241661D01*
X325950Y240908D01*
Y240092D01*
X326262Y239339D01*
X326839Y238762D01*
X327592Y238450D01*
X328408D01*
X329161Y238762D01*
X329738Y239339D01*
X330050Y240092D01*
Y240908D01*
X329738Y241661D01*
X329161Y242238D01*
X328408Y242550D01*
D02*
G37*
G36*
X199498Y242425D02*
X198682D01*
X197929Y242113D01*
X197352Y241536D01*
X197040Y240783D01*
Y239967D01*
X197352Y239214D01*
X197929Y238637D01*
X198682Y238325D01*
X199498D01*
X200251Y238637D01*
X200828Y239214D01*
X201140Y239967D01*
Y240783D01*
X200828Y241536D01*
X200251Y242113D01*
X199498Y242425D01*
D02*
G37*
G36*
X169416Y242294D02*
X168584D01*
X167814Y241975D01*
X167225Y241386D01*
X166906Y240616D01*
Y239784D01*
X167225Y239014D01*
X167814Y238425D01*
X168584Y238106D01*
X169416D01*
X170186Y238425D01*
X170775Y239014D01*
X171094Y239784D01*
Y240616D01*
X170775Y241386D01*
X170186Y241975D01*
X169416Y242294D01*
D02*
G37*
G36*
X164417D02*
X163584D01*
X162814Y241975D01*
X162225Y241386D01*
X161906Y240616D01*
Y239784D01*
X162225Y239014D01*
X162814Y238425D01*
X163584Y238106D01*
X164417D01*
X165186Y238425D01*
X165775Y239014D01*
X166094Y239784D01*
Y240616D01*
X165775Y241386D01*
X165186Y241975D01*
X164417Y242294D01*
D02*
G37*
G36*
X159416D02*
X158583D01*
X157814Y241975D01*
X157225Y241386D01*
X156906Y240616D01*
Y239784D01*
X157225Y239014D01*
X157814Y238425D01*
X158583Y238106D01*
X159416D01*
X160186Y238425D01*
X160775Y239014D01*
X161094Y239784D01*
Y240616D01*
X160775Y241386D01*
X160186Y241975D01*
X159416Y242294D01*
D02*
G37*
G36*
X181408Y241550D02*
X180592D01*
X179839Y241238D01*
X179262Y240661D01*
X178950Y239908D01*
Y239092D01*
X179262Y238339D01*
X179839Y237762D01*
X180592Y237450D01*
X181408D01*
X182161Y237762D01*
X182738Y238339D01*
X183050Y239092D01*
Y239908D01*
X182738Y240661D01*
X182161Y241238D01*
X181408Y241550D01*
D02*
G37*
G36*
X174416Y241494D02*
X173583D01*
X172814Y241175D01*
X172225Y240586D01*
X171906Y239816D01*
Y238983D01*
X172225Y238214D01*
X172814Y237625D01*
X173583Y237306D01*
X174416D01*
X175186Y237625D01*
X175775Y238214D01*
X176094Y238983D01*
Y239816D01*
X175775Y240586D01*
X175186Y241175D01*
X174416Y241494D01*
D02*
G37*
G36*
X238415Y241137D02*
X237600D01*
X236846Y240825D01*
X236270Y240248D01*
X235958Y239495D01*
Y238680D01*
X236270Y237926D01*
X236846Y237349D01*
X237600Y237037D01*
X238415D01*
X239169Y237349D01*
X239745Y237926D01*
X240057Y238680D01*
Y239495D01*
X239745Y240248D01*
X239169Y240825D01*
X238415Y241137D01*
D02*
G37*
G36*
X206886D02*
X206071D01*
X205317Y240825D01*
X204741Y240248D01*
X204429Y239495D01*
Y238680D01*
X204741Y237926D01*
X205317Y237349D01*
X206071Y237037D01*
X206886D01*
X207640Y237349D01*
X208217Y237926D01*
X208529Y238680D01*
Y239495D01*
X208217Y240248D01*
X207640Y240825D01*
X206886Y241137D01*
D02*
G37*
G36*
X356908Y240550D02*
X356092D01*
X355339Y240238D01*
X354762Y239661D01*
X354450Y238908D01*
Y238092D01*
X354762Y237339D01*
X355339Y236762D01*
X356092Y236450D01*
X356908D01*
X357661Y236762D01*
X358238Y237339D01*
X358550Y238092D01*
Y238908D01*
X358238Y239661D01*
X357661Y240238D01*
X356908Y240550D01*
D02*
G37*
G36*
X254393Y240508D02*
X253578D01*
X252824Y240196D01*
X252248Y239619D01*
X251936Y238866D01*
Y238050D01*
X252248Y237297D01*
X252824Y236720D01*
X253578Y236408D01*
X254393D01*
X255147Y236720D01*
X255723Y237297D01*
X256035Y238050D01*
Y238866D01*
X255723Y239619D01*
X255147Y240196D01*
X254393Y240508D01*
D02*
G37*
G36*
X293408Y237050D02*
X292592D01*
X291839Y236738D01*
X291262Y236161D01*
X290950Y235408D01*
Y234592D01*
X291262Y233839D01*
X291839Y233262D01*
X292592Y232950D01*
X293408D01*
X294161Y233262D01*
X294738Y233839D01*
X295050Y234592D01*
Y235408D01*
X294738Y236161D01*
X294161Y236738D01*
X293408Y237050D01*
D02*
G37*
G36*
X325146Y236977D02*
X324330D01*
X323577Y236665D01*
X323000Y236088D01*
X322688Y235335D01*
Y234519D01*
X323000Y233766D01*
X323577Y233189D01*
X324330Y232877D01*
X325146D01*
X325899Y233189D01*
X326476Y233766D01*
X326788Y234519D01*
Y235335D01*
X326476Y236088D01*
X325899Y236665D01*
X325146Y236977D01*
D02*
G37*
G36*
X314512Y236178D02*
X313697D01*
X312944Y235866D01*
X312367Y235290D01*
X312055Y234536D01*
Y233720D01*
X312367Y232967D01*
X312944Y232390D01*
X313697Y232078D01*
X314512D01*
X315266Y232390D01*
X315843Y232967D01*
X316155Y233720D01*
Y234536D01*
X315843Y235290D01*
X315266Y235866D01*
X314512Y236178D01*
D02*
G37*
G36*
X342408Y235550D02*
X341592D01*
X340839Y235238D01*
X340262Y234661D01*
X339950Y233908D01*
Y233092D01*
X340262Y232339D01*
X340839Y231762D01*
X341592Y231450D01*
X342408D01*
X343161Y231762D01*
X343738Y232339D01*
X344050Y233092D01*
Y233908D01*
X343738Y234661D01*
X343161Y235238D01*
X342408Y235550D01*
D02*
G37*
G36*
X249011Y235285D02*
X248195D01*
X247442Y234973D01*
X246865Y234396D01*
X246553Y233643D01*
Y232827D01*
X246865Y232074D01*
X247442Y231497D01*
X248195Y231185D01*
X249011D01*
X249764Y231497D01*
X250341Y232074D01*
X250653Y232827D01*
Y233643D01*
X250341Y234396D01*
X249764Y234973D01*
X249011Y235285D01*
D02*
G37*
G36*
X241761Y233363D02*
X240946D01*
X240193Y233051D01*
X239616Y232474D01*
X239304Y231720D01*
Y230905D01*
X239616Y230152D01*
X240193Y229575D01*
X240946Y229263D01*
X241761D01*
X242515Y229575D01*
X243092Y230152D01*
X243404Y230905D01*
Y231720D01*
X243092Y232474D01*
X242515Y233051D01*
X241761Y233363D01*
D02*
G37*
G36*
X207824D02*
X207008D01*
X206255Y233051D01*
X205678Y232474D01*
X205366Y231720D01*
Y230905D01*
X205678Y230152D01*
X206255Y229575D01*
X207008Y229263D01*
X207824D01*
X208577Y229575D01*
X209154Y230152D01*
X209466Y230905D01*
Y231720D01*
X209154Y232474D01*
X208577Y233051D01*
X207824Y233363D01*
D02*
G37*
G36*
X181408Y233050D02*
X180592D01*
X179839Y232738D01*
X179262Y232161D01*
X178950Y231408D01*
Y230592D01*
X179262Y229839D01*
X179839Y229262D01*
X180592Y228950D01*
X181408D01*
X182161Y229262D01*
X182738Y229839D01*
X183050Y230592D01*
Y231408D01*
X182738Y232161D01*
X182161Y232738D01*
X181408Y233050D01*
D02*
G37*
G36*
X174416Y233094D02*
X173583D01*
X172814Y232775D01*
X172225Y232186D01*
X171906Y231417D01*
Y230584D01*
X172225Y229814D01*
X172814Y229225D01*
X173583Y228906D01*
X174416D01*
X175186Y229225D01*
X175775Y229814D01*
X176094Y230584D01*
Y231417D01*
X175775Y232186D01*
X175186Y232775D01*
X174416Y233094D01*
D02*
G37*
G36*
X356408Y232550D02*
X355592D01*
X354839Y232238D01*
X354262Y231661D01*
X353950Y230908D01*
Y230092D01*
X354262Y229339D01*
X354839Y228762D01*
X355592Y228450D01*
X356408D01*
X357161Y228762D01*
X357738Y229339D01*
X358050Y230092D01*
Y230908D01*
X357738Y231661D01*
X357161Y232238D01*
X356408Y232550D01*
D02*
G37*
G36*
X302408D02*
X301592D01*
X300839Y232238D01*
X300262Y231661D01*
X299950Y230908D01*
Y230092D01*
X300262Y229339D01*
X300839Y228762D01*
X301592Y228450D01*
X302408D01*
X303161Y228762D01*
X303738Y229339D01*
X304050Y230092D01*
Y230908D01*
X303738Y231661D01*
X303161Y232238D01*
X302408Y232550D01*
D02*
G37*
G36*
X200375Y232487D02*
X199560D01*
X198806Y232175D01*
X198230Y231599D01*
X197917Y230845D01*
Y230030D01*
X198230Y229276D01*
X198806Y228699D01*
X199560Y228387D01*
X200375D01*
X201129Y228699D01*
X201705Y229276D01*
X202017Y230030D01*
Y230845D01*
X201705Y231599D01*
X201129Y232175D01*
X200375Y232487D01*
D02*
G37*
G36*
X169416Y232294D02*
X168584D01*
X167814Y231975D01*
X167225Y231386D01*
X166906Y230616D01*
Y229784D01*
X167225Y229014D01*
X167814Y228425D01*
X168584Y228106D01*
X169416D01*
X170186Y228425D01*
X170775Y229014D01*
X171094Y229784D01*
Y230616D01*
X170775Y231386D01*
X170186Y231975D01*
X169416Y232294D01*
D02*
G37*
G36*
X164417D02*
X163584D01*
X162814Y231975D01*
X162225Y231386D01*
X161906Y230616D01*
Y229784D01*
X162225Y229014D01*
X162814Y228425D01*
X163584Y228106D01*
X164417D01*
X165186Y228425D01*
X165775Y229014D01*
X166094Y229784D01*
Y230616D01*
X165775Y231386D01*
X165186Y231975D01*
X164417Y232294D01*
D02*
G37*
G36*
X159416D02*
X158583D01*
X157814Y231975D01*
X157225Y231386D01*
X156906Y230616D01*
Y229784D01*
X157225Y229014D01*
X157814Y228425D01*
X158583Y228106D01*
X159416D01*
X160186Y228425D01*
X160775Y229014D01*
X161094Y229784D01*
Y230616D01*
X160775Y231386D01*
X160186Y231975D01*
X159416Y232294D01*
D02*
G37*
G36*
X346500Y229228D02*
Y227500D01*
X348228D01*
X347907Y228274D01*
X347274Y228907D01*
X346500Y229228D01*
D02*
G37*
G36*
X345500D02*
X344725Y228907D01*
X344092Y228274D01*
X343772Y227500D01*
X345500D01*
Y229228D01*
D02*
G37*
G36*
X320455Y231125D02*
X319639D01*
X318886Y230813D01*
X318309Y230237D01*
X317997Y229483D01*
Y228668D01*
X318309Y227914D01*
X318886Y227338D01*
X319639Y227026D01*
X320455D01*
X321208Y227338D01*
X321785Y227914D01*
X322097Y228668D01*
Y229483D01*
X321785Y230237D01*
X321208Y230813D01*
X320455Y231125D01*
D02*
G37*
G36*
X309209Y230875D02*
X308394D01*
X307640Y230563D01*
X307064Y229986D01*
X306751Y229233D01*
Y228417D01*
X307064Y227664D01*
X307640Y227087D01*
X308394Y226775D01*
X309209D01*
X309963Y227087D01*
X310539Y227664D01*
X310851Y228417D01*
Y229233D01*
X310539Y229986D01*
X309963Y230563D01*
X309209Y230875D01*
D02*
G37*
G36*
X191318Y230005D02*
X190502D01*
X189749Y229693D01*
X189172Y229116D01*
X188860Y228363D01*
Y227547D01*
X189172Y226794D01*
X189749Y226217D01*
X190502Y225905D01*
X191318D01*
X192071Y226217D01*
X192648Y226794D01*
X192960Y227547D01*
Y228363D01*
X192648Y229116D01*
X192071Y229693D01*
X191318Y230005D01*
D02*
G37*
G36*
X214204Y229420D02*
X213389D01*
X212635Y229108D01*
X212058Y228532D01*
X211746Y227778D01*
Y226963D01*
X212058Y226209D01*
X212635Y225632D01*
X213389Y225320D01*
X214204D01*
X214958Y225632D01*
X215534Y226209D01*
X215846Y226963D01*
Y227778D01*
X215534Y228532D01*
X214958Y229108D01*
X214204Y229420D01*
D02*
G37*
G36*
X235413Y229369D02*
X234598D01*
X233844Y229057D01*
X233267Y228480D01*
X232955Y227727D01*
Y226911D01*
X233267Y226158D01*
X233844Y225581D01*
X234598Y225269D01*
X235413D01*
X236167Y225581D01*
X236743Y226158D01*
X237055Y226911D01*
Y227727D01*
X236743Y228480D01*
X236167Y229057D01*
X235413Y229369D01*
D02*
G37*
G36*
X348228Y226500D02*
X346500D01*
Y224772D01*
X347274Y225093D01*
X347907Y225726D01*
X348228Y226500D01*
D02*
G37*
G36*
X345500D02*
X343772D01*
X344092Y225726D01*
X344725Y225093D01*
X345500Y224772D01*
Y226500D01*
D02*
G37*
G36*
X228546Y226354D02*
X227730D01*
X226977Y226042D01*
X226400Y225465D01*
X226088Y224712D01*
Y223897D01*
X226400Y223143D01*
X226977Y222566D01*
X227730Y222254D01*
X228546D01*
X229299Y222566D01*
X229876Y223143D01*
X230188Y223897D01*
Y224712D01*
X229876Y225465D01*
X229299Y226042D01*
X228546Y226354D01*
D02*
G37*
G36*
X221046Y226347D02*
X220230D01*
X219477Y226035D01*
X218900Y225459D01*
X218588Y224705D01*
Y223890D01*
X218900Y223136D01*
X219477Y222560D01*
X220230Y222248D01*
X221046D01*
X221799Y222560D01*
X222376Y223136D01*
X222688Y223890D01*
Y224705D01*
X222376Y225459D01*
X221799Y226035D01*
X221046Y226347D01*
D02*
G37*
G36*
X315151Y225822D02*
X314336D01*
X313582Y225510D01*
X313006Y224933D01*
X312694Y224180D01*
Y223364D01*
X313006Y222611D01*
X313582Y222034D01*
X314336Y221722D01*
X315151D01*
X315905Y222034D01*
X316481Y222611D01*
X316793Y223364D01*
Y224180D01*
X316481Y224933D01*
X315905Y225510D01*
X315151Y225822D01*
D02*
G37*
G36*
X303906Y225572D02*
X303090D01*
X302337Y225260D01*
X301760Y224683D01*
X301448Y223929D01*
Y223114D01*
X301760Y222360D01*
X302337Y221784D01*
X303090Y221472D01*
X303906D01*
X304659Y221784D01*
X305236Y222360D01*
X305548Y223114D01*
Y223929D01*
X305236Y224683D01*
X304659Y225260D01*
X303906Y225572D01*
D02*
G37*
G36*
X345908Y222550D02*
X345092D01*
X344339Y222238D01*
X343762Y221661D01*
X343450Y220908D01*
Y220092D01*
X343762Y219339D01*
X344339Y218762D01*
X345092Y218450D01*
X345908D01*
X346661Y218762D01*
X347238Y219339D01*
X347550Y220092D01*
Y220908D01*
X347238Y221661D01*
X346661Y222238D01*
X345908Y222550D01*
D02*
G37*
G36*
X309848Y220519D02*
X309032D01*
X308279Y220207D01*
X307702Y219630D01*
X307390Y218877D01*
Y218061D01*
X307702Y217308D01*
X308279Y216731D01*
X309032Y216419D01*
X309848D01*
X310601Y216731D01*
X311178Y217308D01*
X311490Y218061D01*
Y218877D01*
X311178Y219630D01*
X310601Y220207D01*
X309848Y220519D01*
D02*
G37*
G36*
X298603Y220268D02*
X297787D01*
X297034Y219956D01*
X296457Y219380D01*
X296145Y218626D01*
Y217811D01*
X296457Y217057D01*
X297034Y216480D01*
X297787Y216168D01*
X298603D01*
X299356Y216480D01*
X299933Y217057D01*
X300245Y217811D01*
Y218626D01*
X299933Y219380D01*
X299356Y219956D01*
X298603Y220268D01*
D02*
G37*
G36*
X454908Y217050D02*
X454092D01*
X453339Y216738D01*
X452762Y216161D01*
X452450Y215408D01*
Y214592D01*
X452762Y213839D01*
X453339Y213262D01*
X454092Y212950D01*
X454908D01*
X455661Y213262D01*
X456238Y213839D01*
X456550Y214592D01*
Y215408D01*
X456238Y216161D01*
X455661Y216738D01*
X454908Y217050D01*
D02*
G37*
G36*
X304545Y215216D02*
X303729D01*
X302976Y214903D01*
X302399Y214327D01*
X302087Y213573D01*
Y212758D01*
X302399Y212004D01*
X302976Y211428D01*
X303729Y211116D01*
X304545D01*
X305298Y211428D01*
X305875Y212004D01*
X306187Y212758D01*
Y213573D01*
X305875Y214327D01*
X305298Y214903D01*
X304545Y215216D01*
D02*
G37*
G36*
X293299Y214965D02*
X292484D01*
X291730Y214653D01*
X291154Y214076D01*
X290842Y213323D01*
Y212507D01*
X291154Y211754D01*
X291730Y211177D01*
X292484Y210865D01*
X293299D01*
X294053Y211177D01*
X294629Y211754D01*
X294941Y212507D01*
Y213323D01*
X294629Y214076D01*
X294053Y214653D01*
X293299Y214965D01*
D02*
G37*
G36*
X286671Y211455D02*
X285856D01*
X285103Y211143D01*
X284526Y210566D01*
X284214Y209812D01*
Y208997D01*
X284526Y208243D01*
X285103Y207667D01*
X285856Y207355D01*
X286671D01*
X287425Y207667D01*
X288002Y208243D01*
X288314Y208997D01*
Y209812D01*
X288002Y210566D01*
X287425Y211143D01*
X286671Y211455D01*
D02*
G37*
G36*
X299241Y209912D02*
X298426D01*
X297672Y209600D01*
X297096Y209023D01*
X296784Y208270D01*
Y207454D01*
X297096Y206701D01*
X297672Y206124D01*
X298426Y205812D01*
X299241D01*
X299995Y206124D01*
X300571Y206701D01*
X300884Y207454D01*
Y208270D01*
X300571Y209023D01*
X299995Y209600D01*
X299241Y209912D01*
D02*
G37*
G36*
X484908Y208550D02*
X484092D01*
X483339Y208238D01*
X482762Y207661D01*
X482450Y206908D01*
Y206092D01*
X482762Y205339D01*
X483339Y204762D01*
X484092Y204450D01*
X484908D01*
X485661Y204762D01*
X486238Y205339D01*
X486550Y206092D01*
Y206908D01*
X486238Y207661D01*
X485661Y208238D01*
X484908Y208550D01*
D02*
G37*
G36*
X450408Y206050D02*
X449592D01*
X448839Y205738D01*
X448262Y205161D01*
X447950Y204408D01*
Y203592D01*
X448262Y202839D01*
X448839Y202262D01*
X449592Y201950D01*
X450408D01*
X451161Y202262D01*
X451738Y202839D01*
X452050Y203592D01*
Y204408D01*
X451738Y205161D01*
X451161Y205738D01*
X450408Y206050D01*
D02*
G37*
G36*
X283161Y204827D02*
X282346D01*
X281592Y204515D01*
X281015Y203938D01*
X280703Y203185D01*
Y202369D01*
X281015Y201616D01*
X281592Y201039D01*
X282346Y200727D01*
X283161D01*
X283915Y201039D01*
X284491Y201616D01*
X284803Y202369D01*
Y203185D01*
X284491Y203938D01*
X283915Y204515D01*
X283161Y204827D01*
D02*
G37*
G36*
X293938Y204609D02*
X293123D01*
X292369Y204297D01*
X291792Y203720D01*
X291480Y202967D01*
Y202151D01*
X291792Y201398D01*
X292369Y200821D01*
X293123Y200509D01*
X293938D01*
X294691Y200821D01*
X295268Y201398D01*
X295580Y202151D01*
Y202967D01*
X295268Y203720D01*
X294691Y204297D01*
X293938Y204609D01*
D02*
G37*
G36*
X227306Y204524D02*
X226491D01*
X225737Y204212D01*
X225161Y203635D01*
X224848Y202882D01*
Y202066D01*
X225161Y201313D01*
X225737Y200736D01*
X226491Y200424D01*
X227306D01*
X228060Y200736D01*
X228636Y201313D01*
X228948Y202066D01*
Y202882D01*
X228636Y203635D01*
X228060Y204212D01*
X227306Y204524D01*
D02*
G37*
G36*
X190783Y202343D02*
X189968D01*
X189214Y202030D01*
X188638Y201454D01*
X188326Y200700D01*
Y199885D01*
X188638Y199131D01*
X189214Y198555D01*
X189968Y198242D01*
X190783D01*
X191537Y198555D01*
X192113Y199131D01*
X192426Y199885D01*
Y200700D01*
X192113Y201454D01*
X191537Y202030D01*
X190783Y202343D01*
D02*
G37*
G36*
X437908Y201550D02*
X437092D01*
X436339Y201238D01*
X435762Y200661D01*
X435450Y199908D01*
Y199092D01*
X435762Y198339D01*
X436339Y197762D01*
X437092Y197450D01*
X437908D01*
X438661Y197762D01*
X439238Y198339D01*
X439550Y199092D01*
Y199908D01*
X439238Y200661D01*
X438661Y201238D01*
X437908Y201550D01*
D02*
G37*
G36*
X221063Y200368D02*
X220247D01*
X219494Y200056D01*
X218917Y199479D01*
X218605Y198726D01*
Y197910D01*
X218917Y197157D01*
X219494Y196580D01*
X220247Y196268D01*
X221063D01*
X221816Y196580D01*
X222393Y197157D01*
X222705Y197910D01*
Y198726D01*
X222393Y199479D01*
X221816Y200056D01*
X221063Y200368D01*
D02*
G37*
G36*
X472408Y198550D02*
X471592D01*
X470839Y198238D01*
X470262Y197661D01*
X469950Y196908D01*
Y196569D01*
X469647Y196069D01*
X469396Y196050D01*
X469104D01*
X468808Y196073D01*
X468550Y196588D01*
Y196908D01*
X468238Y197661D01*
X467661Y198238D01*
X466908Y198550D01*
X466092D01*
X465339Y198238D01*
X464762Y197661D01*
X464450Y196908D01*
Y196092D01*
X464762Y195339D01*
X465339Y194762D01*
X466092Y194450D01*
X466623D01*
X466695Y194445D01*
X466936Y194000D01*
X466695Y193555D01*
X466623Y193550D01*
X466092D01*
X465339Y193238D01*
X464762Y192661D01*
X464450Y191908D01*
Y191092D01*
X464762Y190339D01*
X465339Y189762D01*
X466092Y189450D01*
X466908D01*
X467661Y189762D01*
X468238Y190339D01*
X468550Y191092D01*
Y191412D01*
X468808Y191927D01*
X469104Y191950D01*
X469396D01*
X469647Y191931D01*
X469950Y191431D01*
Y191092D01*
X470262Y190339D01*
X470839Y189762D01*
X471592Y189450D01*
X472408D01*
X473161Y189762D01*
X473738Y190339D01*
X474050Y191092D01*
Y191908D01*
X473738Y192661D01*
X473161Y193238D01*
X472408Y193550D01*
X471832D01*
X471749Y193556D01*
X471506Y194000D01*
X471749Y194444D01*
X471832Y194450D01*
X472408D01*
X473161Y194762D01*
X473738Y195339D01*
X474050Y196092D01*
Y196908D01*
X473738Y197661D01*
X473161Y198238D01*
X472408Y198550D01*
D02*
G37*
G36*
X233191Y199874D02*
X232376D01*
X231622Y199562D01*
X231045Y198986D01*
X230733Y198232D01*
Y197417D01*
X231045Y196663D01*
X231622Y196087D01*
X232376Y195774D01*
X233191D01*
X233945Y196087D01*
X234521Y196663D01*
X234833Y197417D01*
Y198232D01*
X234521Y198986D01*
X233945Y199562D01*
X233191Y199874D01*
D02*
G37*
G36*
X199036Y199547D02*
X198220D01*
X197467Y199235D01*
X196890Y198658D01*
X196578Y197905D01*
Y197089D01*
X196890Y196336D01*
X197467Y195759D01*
X198220Y195447D01*
X199036D01*
X199789Y195759D01*
X200366Y196336D01*
X200678Y197089D01*
Y197905D01*
X200366Y198658D01*
X199789Y199235D01*
X199036Y199547D01*
D02*
G37*
G36*
X277858Y199524D02*
X277042D01*
X276289Y199212D01*
X275712Y198635D01*
X275400Y197881D01*
Y197066D01*
X275712Y196312D01*
X276289Y195736D01*
X277042Y195424D01*
X277858D01*
X278611Y195736D01*
X279188Y196312D01*
X279500Y197066D01*
Y197881D01*
X279188Y198635D01*
X278611Y199212D01*
X277858Y199524D01*
D02*
G37*
G36*
X288635Y199306D02*
X287819D01*
X287066Y198994D01*
X286489Y198417D01*
X286177Y197663D01*
Y196848D01*
X286489Y196094D01*
X287066Y195518D01*
X287819Y195206D01*
X288635D01*
X289388Y195518D01*
X289965Y196094D01*
X290277Y196848D01*
Y197663D01*
X289965Y198417D01*
X289388Y198994D01*
X288635Y199306D01*
D02*
G37*
G36*
X169416Y199294D02*
X168584D01*
X167814Y198975D01*
X167225Y198386D01*
X166906Y197617D01*
Y196783D01*
X167225Y196014D01*
X167814Y195425D01*
X168584Y195106D01*
X169416D01*
X170186Y195425D01*
X170775Y196014D01*
X171094Y196783D01*
Y197617D01*
X170775Y198386D01*
X170186Y198975D01*
X169416Y199294D01*
D02*
G37*
G36*
X164417D02*
X163584D01*
X162814Y198975D01*
X162225Y198386D01*
X161906Y197617D01*
Y196783D01*
X162225Y196014D01*
X162814Y195425D01*
X163584Y195106D01*
X164417D01*
X165186Y195425D01*
X165775Y196014D01*
X166094Y196783D01*
Y197617D01*
X165775Y198386D01*
X165186Y198975D01*
X164417Y199294D01*
D02*
G37*
G36*
X159416D02*
X158583D01*
X157814Y198975D01*
X157225Y198386D01*
X156906Y197617D01*
Y196783D01*
X157225Y196014D01*
X157814Y195425D01*
X158583Y195106D01*
X159416D01*
X160186Y195425D01*
X160775Y196014D01*
X161094Y196783D01*
Y197617D01*
X160775Y198386D01*
X160186Y198975D01*
X159416Y199294D01*
D02*
G37*
G36*
X181408Y198550D02*
X180592D01*
X179839Y198238D01*
X179262Y197661D01*
X178950Y196908D01*
Y196092D01*
X179262Y195339D01*
X179839Y194762D01*
X180592Y194450D01*
X181408D01*
X182161Y194762D01*
X182738Y195339D01*
X183050Y196092D01*
Y196908D01*
X182738Y197661D01*
X182161Y198238D01*
X181408Y198550D01*
D02*
G37*
G36*
X174416Y198494D02*
X173583D01*
X172814Y198175D01*
X172225Y197586D01*
X171906Y196817D01*
Y195984D01*
X172225Y195214D01*
X172814Y194625D01*
X173583Y194306D01*
X174416D01*
X175186Y194625D01*
X175775Y195214D01*
X176094Y195984D01*
Y196817D01*
X175775Y197586D01*
X175186Y198175D01*
X174416Y198494D01*
D02*
G37*
G36*
X270487Y198137D02*
X269672D01*
X268918Y197825D01*
X268341Y197248D01*
X268029Y196495D01*
Y195679D01*
X268341Y194926D01*
X268918Y194349D01*
X269672Y194037D01*
X270487D01*
X271240Y194349D01*
X271817Y194926D01*
X272129Y195679D01*
Y196495D01*
X271817Y197248D01*
X271240Y197825D01*
X270487Y198137D01*
D02*
G37*
G36*
X262987D02*
X262172D01*
X261418Y197825D01*
X260841Y197248D01*
X260529Y196495D01*
Y195679D01*
X260841Y194926D01*
X261418Y194349D01*
X262172Y194037D01*
X262987D01*
X263740Y194349D01*
X264317Y194926D01*
X264629Y195679D01*
Y196495D01*
X264317Y197248D01*
X263740Y197825D01*
X262987Y198137D01*
D02*
G37*
G36*
X255487D02*
X254672D01*
X253918Y197825D01*
X253341Y197248D01*
X253029Y196495D01*
Y195679D01*
X253341Y194926D01*
X253918Y194349D01*
X254672Y194037D01*
X255487D01*
X256241Y194349D01*
X256817Y194926D01*
X257129Y195679D01*
Y196495D01*
X256817Y197248D01*
X256241Y197825D01*
X255487Y198137D01*
D02*
G37*
G36*
X247987D02*
X247171D01*
X246418Y197825D01*
X245841Y197248D01*
X245529Y196495D01*
Y195679D01*
X245841Y194926D01*
X246418Y194349D01*
X247171Y194037D01*
X247987D01*
X248741Y194349D01*
X249317Y194926D01*
X249629Y195679D01*
Y196495D01*
X249317Y197248D01*
X248741Y197825D01*
X247987Y198137D01*
D02*
G37*
G36*
X240487D02*
X239671D01*
X238918Y197825D01*
X238341Y197248D01*
X238029Y196495D01*
Y195679D01*
X238341Y194926D01*
X238918Y194349D01*
X239671Y194037D01*
X240487D01*
X241241Y194349D01*
X241817Y194926D01*
X242129Y195679D01*
Y196495D01*
X241817Y197248D01*
X241241Y197825D01*
X240487Y198137D01*
D02*
G37*
G36*
X213902D02*
X213087D01*
X212333Y197825D01*
X211757Y197248D01*
X211444Y196495D01*
Y195679D01*
X211757Y194926D01*
X212333Y194349D01*
X213087Y194037D01*
X213902D01*
X214656Y194349D01*
X215232Y194926D01*
X215545Y195679D01*
Y196495D01*
X215232Y197248D01*
X214656Y197825D01*
X213902Y198137D01*
D02*
G37*
G36*
X206402D02*
X205587D01*
X204833Y197825D01*
X204257Y197248D01*
X203944Y196495D01*
Y195679D01*
X204257Y194926D01*
X204833Y194349D01*
X205587Y194037D01*
X206402D01*
X207156Y194349D01*
X207732Y194926D01*
X208045Y195679D01*
Y196495D01*
X207732Y197248D01*
X207156Y197825D01*
X206402Y198137D01*
D02*
G37*
G36*
X490500Y193228D02*
Y191500D01*
X492228D01*
X491908Y192274D01*
X491274Y192908D01*
X490500Y193228D01*
D02*
G37*
G36*
X489500D02*
X488726Y192908D01*
X488093Y192274D01*
X487772Y191500D01*
X489500D01*
Y193228D01*
D02*
G37*
G36*
X283331Y194002D02*
X282516D01*
X281763Y193690D01*
X281186Y193114D01*
X280874Y192360D01*
Y191545D01*
X281186Y190791D01*
X281763Y190215D01*
X282516Y189902D01*
X283331D01*
X284085Y190215D01*
X284662Y190791D01*
X284974Y191545D01*
Y192360D01*
X284662Y193114D01*
X284085Y193690D01*
X283331Y194002D01*
D02*
G37*
G36*
X430408Y192050D02*
X429592D01*
X428839Y191738D01*
X428262Y191161D01*
X427950Y190408D01*
Y189592D01*
X428262Y188839D01*
X428839Y188262D01*
X429592Y187950D01*
X430408D01*
X431161Y188262D01*
X431738Y188839D01*
X432050Y189592D01*
Y190408D01*
X431738Y191161D01*
X431161Y191738D01*
X430408Y192050D01*
D02*
G37*
G36*
X492228Y190500D02*
X487772D01*
X488093Y189725D01*
X488726Y189093D01*
X488828Y189050D01*
Y188450D01*
X488726Y188408D01*
X488093Y187775D01*
X487772Y187000D01*
X492228D01*
X491908Y187775D01*
X491274Y188408D01*
X491172Y188450D01*
Y189050D01*
X491274Y189093D01*
X491908Y189725D01*
X492228Y190500D01*
D02*
G37*
G36*
X276748Y190409D02*
X275933D01*
X275179Y190097D01*
X274603Y189521D01*
X274290Y188767D01*
Y187952D01*
X274603Y187198D01*
X275179Y186621D01*
X275933Y186309D01*
X276748D01*
X277502Y186621D01*
X278078Y187198D01*
X278390Y187952D01*
Y188767D01*
X278078Y189521D01*
X277502Y190097D01*
X276748Y190409D01*
D02*
G37*
G36*
X269248Y190363D02*
X268433D01*
X267679Y190051D01*
X267103Y189474D01*
X266791Y188721D01*
Y187905D01*
X267103Y187152D01*
X267679Y186575D01*
X268433Y186263D01*
X269248D01*
X270002Y186575D01*
X270579Y187152D01*
X270890Y187905D01*
Y188721D01*
X270579Y189474D01*
X270002Y190051D01*
X269248Y190363D01*
D02*
G37*
G36*
X261748D02*
X260933D01*
X260179Y190051D01*
X259603Y189474D01*
X259291Y188721D01*
Y187905D01*
X259603Y187152D01*
X260179Y186575D01*
X260933Y186263D01*
X261748D01*
X262502Y186575D01*
X263078Y187152D01*
X263390Y187905D01*
Y188721D01*
X263078Y189474D01*
X262502Y190051D01*
X261748Y190363D01*
D02*
G37*
G36*
X254248D02*
X253433D01*
X252679Y190051D01*
X252103Y189474D01*
X251790Y188721D01*
Y187905D01*
X252103Y187152D01*
X252679Y186575D01*
X253433Y186263D01*
X254248D01*
X255002Y186575D01*
X255578Y187152D01*
X255890Y187905D01*
Y188721D01*
X255578Y189474D01*
X255002Y190051D01*
X254248Y190363D01*
D02*
G37*
G36*
X246748D02*
X245933D01*
X245179Y190051D01*
X244603Y189474D01*
X244290Y188721D01*
Y187905D01*
X244603Y187152D01*
X245179Y186575D01*
X245933Y186263D01*
X246748D01*
X247502Y186575D01*
X248078Y187152D01*
X248391Y187905D01*
Y188721D01*
X248078Y189474D01*
X247502Y190051D01*
X246748Y190363D01*
D02*
G37*
G36*
X239248D02*
X238433D01*
X237679Y190051D01*
X237103Y189474D01*
X236790Y188721D01*
Y187905D01*
X237103Y187152D01*
X237679Y186575D01*
X238433Y186263D01*
X239248D01*
X240002Y186575D01*
X240579Y187152D01*
X240891Y187905D01*
Y188721D01*
X240579Y189474D01*
X240002Y190051D01*
X239248Y190363D01*
D02*
G37*
G36*
X220786D02*
X219970D01*
X219217Y190051D01*
X218640Y189474D01*
X218328Y188721D01*
Y187905D01*
X218640Y187152D01*
X219217Y186575D01*
X219970Y186263D01*
X220786D01*
X221539Y186575D01*
X222116Y187152D01*
X222428Y187905D01*
Y188721D01*
X222116Y189474D01*
X221539Y190051D01*
X220786Y190363D01*
D02*
G37*
G36*
X213286D02*
X212470D01*
X211717Y190051D01*
X211140Y189474D01*
X210828Y188721D01*
Y187905D01*
X211140Y187152D01*
X211717Y186575D01*
X212470Y186263D01*
X213286D01*
X214039Y186575D01*
X214616Y187152D01*
X214928Y187905D01*
Y188721D01*
X214616Y189474D01*
X214039Y190051D01*
X213286Y190363D01*
D02*
G37*
G36*
X205786D02*
X204970D01*
X204217Y190051D01*
X203640Y189474D01*
X203328Y188721D01*
Y187905D01*
X203640Y187152D01*
X204217Y186575D01*
X204970Y186263D01*
X205786D01*
X206539Y186575D01*
X207116Y187152D01*
X207428Y187905D01*
Y188721D01*
X207116Y189474D01*
X206539Y190051D01*
X205786Y190363D01*
D02*
G37*
G36*
X181408Y190050D02*
X180592D01*
X179839Y189738D01*
X179262Y189161D01*
X178950Y188408D01*
Y187592D01*
X179262Y186839D01*
X179839Y186262D01*
X180592Y185950D01*
X181408D01*
X182161Y186262D01*
X182738Y186839D01*
X183050Y187592D01*
Y188408D01*
X182738Y189161D01*
X182161Y189738D01*
X181408Y190050D01*
D02*
G37*
G36*
X174416Y190094D02*
X173583D01*
X172814Y189775D01*
X172225Y189186D01*
X171906Y188417D01*
Y187583D01*
X172225Y186814D01*
X172814Y186225D01*
X173583Y185906D01*
X174416D01*
X175186Y186225D01*
X175775Y186814D01*
X176094Y187583D01*
Y188417D01*
X175775Y189186D01*
X175186Y189775D01*
X174416Y190094D01*
D02*
G37*
G36*
X486408Y203550D02*
X485592D01*
X484839Y203238D01*
X484262Y202661D01*
X483950Y201908D01*
Y201092D01*
X484165Y200574D01*
Y197260D01*
X472240Y185335D01*
X456426D01*
X455908Y185550D01*
X455092D01*
X454339Y185238D01*
X453762Y184661D01*
X453450Y183908D01*
Y183092D01*
X453762Y182339D01*
X454339Y181762D01*
X455092Y181450D01*
X455908D01*
X456426Y181665D01*
X473000D01*
X473702Y181804D01*
X474298Y182202D01*
X487298Y195202D01*
X487696Y195798D01*
X487835Y196500D01*
Y200574D01*
X488050Y201092D01*
Y201908D01*
X487738Y202661D01*
X487161Y203238D01*
X486408Y203550D01*
D02*
G37*
G36*
X169416Y189294D02*
X168584D01*
X167814Y188975D01*
X167225Y188386D01*
X166906Y187617D01*
Y186784D01*
X167225Y186014D01*
X167814Y185425D01*
X168584Y185106D01*
X169416D01*
X170186Y185425D01*
X170775Y186014D01*
X171094Y186784D01*
Y187617D01*
X170775Y188386D01*
X170186Y188975D01*
X169416Y189294D01*
D02*
G37*
G36*
X164417D02*
X163584D01*
X162814Y188975D01*
X162225Y188386D01*
X161906Y187617D01*
Y186784D01*
X162225Y186014D01*
X162814Y185425D01*
X163584Y185106D01*
X164417D01*
X165186Y185425D01*
X165775Y186014D01*
X166094Y186784D01*
Y187617D01*
X165775Y188386D01*
X165186Y188975D01*
X164417Y189294D01*
D02*
G37*
G36*
X159416D02*
X158583D01*
X157814Y188975D01*
X157225Y188386D01*
X156906Y187617D01*
Y186784D01*
X157225Y186014D01*
X157814Y185425D01*
X158583Y185106D01*
X159416D01*
X160186Y185425D01*
X160775Y186014D01*
X161094Y186784D01*
Y187617D01*
X160775Y188386D01*
X160186Y188975D01*
X159416Y189294D01*
D02*
G37*
G36*
X198443Y188833D02*
X197628D01*
X196874Y188521D01*
X196298Y187944D01*
X195985Y187190D01*
Y186375D01*
X196298Y185621D01*
X196874Y185045D01*
X197628Y184733D01*
X198443D01*
X199197Y185045D01*
X199773Y185621D01*
X200085Y186375D01*
Y187190D01*
X199773Y187944D01*
X199197Y188521D01*
X198443Y188833D01*
D02*
G37*
G36*
X492228Y186000D02*
X490500D01*
Y184272D01*
X491274Y184592D01*
X491908Y185225D01*
X492228Y186000D01*
D02*
G37*
G36*
X489500D02*
X487772D01*
X488093Y185225D01*
X488726Y184592D01*
X489500Y184272D01*
Y186000D01*
D02*
G37*
G36*
X191248Y187120D02*
X190432D01*
X189679Y186808D01*
X189102Y186232D01*
X188790Y185478D01*
Y184663D01*
X189102Y183909D01*
X189679Y183333D01*
X190432Y183020D01*
X191248D01*
X192001Y183333D01*
X192578Y183909D01*
X192890Y184663D01*
Y185478D01*
X192578Y186232D01*
X192001Y186808D01*
X191248Y187120D01*
D02*
G37*
G36*
X227203Y186481D02*
X226387D01*
X225634Y186169D01*
X225057Y185592D01*
X224745Y184839D01*
Y184023D01*
X225057Y183270D01*
X225634Y182693D01*
X226387Y182381D01*
X227203D01*
X227956Y182693D01*
X228533Y183270D01*
X228845Y184023D01*
Y184839D01*
X228533Y185592D01*
X227956Y186169D01*
X227203Y186481D01*
D02*
G37*
G36*
X234460Y184590D02*
X233645D01*
X232892Y184278D01*
X232315Y183701D01*
X232003Y182948D01*
Y182132D01*
X232315Y181378D01*
X232892Y180802D01*
X233645Y180490D01*
X234460D01*
X235214Y180802D01*
X235791Y181378D01*
X236103Y182132D01*
Y182948D01*
X235791Y183701D01*
X235214Y184278D01*
X234460Y184590D01*
D02*
G37*
G36*
X354408Y328550D02*
X353592D01*
X352839Y328238D01*
X352262Y327661D01*
X352047Y327143D01*
X337202Y312298D01*
X336804Y311702D01*
X336665Y311000D01*
Y297926D01*
X336450Y297408D01*
Y296592D01*
X336762Y295839D01*
X337339Y295262D01*
X337857Y295047D01*
X340915Y291990D01*
Y257926D01*
X340700Y257408D01*
Y256592D01*
X341012Y255839D01*
X341589Y255262D01*
X342342Y254950D01*
X343158D01*
X343911Y255262D01*
X344488Y255839D01*
X344800Y256592D01*
Y257408D01*
X344585Y257926D01*
Y292750D01*
X344446Y293452D01*
X344048Y294048D01*
X340453Y297643D01*
X340335Y297926D01*
Y310240D01*
X354000Y323905D01*
X363202Y314702D01*
X363798Y314304D01*
X364500Y314165D01*
X379500D01*
X380202Y314304D01*
X380798Y314702D01*
X388143Y322047D01*
X388426Y322165D01*
X408228D01*
X425149Y305244D01*
X414458Y294554D01*
X414060Y293958D01*
X413921Y293256D01*
Y182170D01*
X413706Y181652D01*
Y180836D01*
X414018Y180083D01*
X414595Y179506D01*
X415348Y179194D01*
X416164D01*
X416917Y179506D01*
X417494Y180083D01*
X417806Y180836D01*
Y181652D01*
X417591Y182170D01*
Y292496D01*
X428387Y303291D01*
X428905Y303506D01*
X429482Y304083D01*
X429794Y304836D01*
Y305652D01*
X429482Y306405D01*
X428905Y306982D01*
X428387Y307197D01*
X410286Y325298D01*
X409691Y325696D01*
X408988Y325835D01*
X388426D01*
X387908Y326050D01*
X387092D01*
X386339Y325738D01*
X385762Y325161D01*
X385547Y324643D01*
X378740Y317835D01*
X365778D01*
X365578Y318078D01*
X365661Y318762D01*
X366238Y319339D01*
X366550Y320092D01*
Y320908D01*
X366238Y321661D01*
X365661Y322238D01*
X364908Y322550D01*
X364092D01*
X363339Y322238D01*
X362762Y321661D01*
X362622Y321322D01*
X361914Y321182D01*
X355953Y327143D01*
X355738Y327661D01*
X355161Y328238D01*
X354408Y328550D01*
D02*
G37*
G36*
X407908Y183050D02*
X407092D01*
X406339Y182738D01*
X405762Y182161D01*
X405450Y181408D01*
Y180592D01*
X405762Y179839D01*
X406339Y179262D01*
X407092Y178950D01*
X407908D01*
X408661Y179262D01*
X409238Y179839D01*
X409550Y180592D01*
Y181408D01*
X409238Y182161D01*
X408661Y182738D01*
X407908Y183050D01*
D02*
G37*
G36*
X433408Y180550D02*
X432592D01*
X431839Y180238D01*
X431262Y179661D01*
X430950Y178908D01*
Y178092D01*
X431262Y177339D01*
X431839Y176762D01*
X432592Y176450D01*
X433408D01*
X434161Y176762D01*
X434738Y177339D01*
X435050Y178092D01*
Y178908D01*
X434738Y179661D01*
X434161Y180238D01*
X433408Y180550D01*
D02*
G37*
G36*
X421408Y178550D02*
X420592D01*
X419839Y178238D01*
X419262Y177661D01*
X418950Y176908D01*
Y176092D01*
X419262Y175339D01*
X419839Y174762D01*
X420592Y174450D01*
X421408D01*
X422161Y174762D01*
X422738Y175339D01*
X423050Y176092D01*
Y176908D01*
X422738Y177661D01*
X422161Y178238D01*
X421408Y178550D01*
D02*
G37*
G36*
X468908Y176550D02*
X468092D01*
X467339Y176238D01*
X466762Y175661D01*
X466450Y174908D01*
Y174092D01*
X466762Y173339D01*
X467339Y172762D01*
X468092Y172450D01*
X468908D01*
X469661Y172762D01*
X470238Y173339D01*
X470550Y174092D01*
Y174908D01*
X470238Y175661D01*
X469661Y176238D01*
X468908Y176550D01*
D02*
G37*
G36*
X404908Y174050D02*
X404092D01*
X403339Y173738D01*
X402762Y173161D01*
X402450Y172408D01*
Y171592D01*
X402762Y170839D01*
X403339Y170262D01*
X404092Y169950D01*
X404908D01*
X405661Y170262D01*
X406238Y170839D01*
X406550Y171592D01*
Y172408D01*
X406238Y173161D01*
X405661Y173738D01*
X404908Y174050D01*
D02*
G37*
G36*
X490408Y170050D02*
X489592D01*
X488839Y169738D01*
X488262Y169161D01*
X487950Y168408D01*
Y167592D01*
X488262Y166839D01*
X488839Y166262D01*
X489592Y165950D01*
X490408D01*
X491161Y166262D01*
X491738Y166839D01*
X492050Y167592D01*
Y168408D01*
X491738Y169161D01*
X491161Y169738D01*
X490408Y170050D01*
D02*
G37*
G36*
X463408Y167050D02*
X462592D01*
X461839Y166738D01*
X461262Y166161D01*
X460950Y165408D01*
Y164592D01*
X461262Y163839D01*
X461839Y163262D01*
X462592Y162950D01*
X463408D01*
X464161Y163262D01*
X464738Y163839D01*
X465050Y164592D01*
Y165408D01*
X464738Y166161D01*
X464161Y166738D01*
X463408Y167050D01*
D02*
G37*
G36*
X406408Y166550D02*
X405592D01*
X404839Y166238D01*
X404262Y165661D01*
X403950Y164908D01*
Y164092D01*
X404262Y163339D01*
X404839Y162762D01*
X405592Y162450D01*
X406408D01*
X407161Y162762D01*
X407738Y163339D01*
X408050Y164092D01*
Y164908D01*
X407738Y165661D01*
X407161Y166238D01*
X406408Y166550D01*
D02*
G37*
G36*
X426520Y160950D02*
X425480D01*
X424475Y160680D01*
X423575Y160161D01*
X422839Y159425D01*
X422320Y158525D01*
X422050Y157520D01*
Y156480D01*
X422320Y155475D01*
X422839Y154575D01*
X423575Y153840D01*
X424475Y153320D01*
X425480Y153050D01*
X426520D01*
X427525Y153320D01*
X428425Y153840D01*
X429160Y154575D01*
X429680Y155475D01*
X429950Y156480D01*
Y157520D01*
X429680Y158525D01*
X429160Y159425D01*
X428425Y160161D01*
X427525Y160680D01*
X426520Y160950D01*
D02*
G37*
G36*
X416520D02*
X415480D01*
X414475Y160680D01*
X413575Y160161D01*
X412840Y159425D01*
X412320Y158525D01*
X412050Y157520D01*
Y156480D01*
X412320Y155475D01*
X412840Y154575D01*
X413575Y153840D01*
X414475Y153320D01*
X415480Y153050D01*
X416520D01*
X417524Y153320D01*
X418425Y153840D01*
X419161Y154575D01*
X419680Y155475D01*
X419950Y156480D01*
Y157520D01*
X419680Y158525D01*
X419161Y159425D01*
X418425Y160161D01*
X417524Y160680D01*
X416520Y160950D01*
D02*
G37*
G36*
X406520D02*
X405480D01*
X404475Y160680D01*
X403575Y160161D01*
X402840Y159425D01*
X402320Y158525D01*
X402050Y157520D01*
Y156480D01*
X402320Y155475D01*
X402840Y154575D01*
X403575Y153840D01*
X404475Y153320D01*
X405480Y153050D01*
X406520D01*
X407524Y153320D01*
X408425Y153840D01*
X409161Y154575D01*
X409680Y155475D01*
X409950Y156480D01*
Y157520D01*
X409680Y158525D01*
X409161Y159425D01*
X408425Y160161D01*
X407524Y160680D01*
X406520Y160950D01*
D02*
G37*
G36*
X396520D02*
X395480D01*
X394476Y160680D01*
X393575Y160161D01*
X392840Y159425D01*
X392320Y158525D01*
X392050Y157520D01*
Y156480D01*
X392320Y155475D01*
X392840Y154575D01*
X393575Y153840D01*
X394476Y153320D01*
X395480Y153050D01*
X396520D01*
X397524Y153320D01*
X398425Y153840D01*
X399161Y154575D01*
X399680Y155475D01*
X399950Y156480D01*
Y157520D01*
X399680Y158525D01*
X399161Y159425D01*
X398425Y160161D01*
X397524Y160680D01*
X396520Y160950D01*
D02*
G37*
G36*
X437575Y160996D02*
X434425D01*
X433499Y160812D01*
X432713Y160287D01*
X432188Y159501D01*
X432004Y158575D01*
Y155425D01*
X432188Y154499D01*
X432713Y153713D01*
X433499Y153188D01*
X434425Y153004D01*
X437575D01*
X438501Y153188D01*
X439287Y153713D01*
X439812Y154499D01*
X439996Y155425D01*
Y158575D01*
X439812Y159501D01*
X439287Y160287D01*
X438501Y160812D01*
X437575Y160996D01*
D02*
G37*
G36*
X477471Y166855D02*
X475529D01*
X473625Y166476D01*
X471832Y165734D01*
X470218Y164655D01*
X468845Y163282D01*
X467767Y161668D01*
X467024Y159875D01*
X466645Y157971D01*
Y156029D01*
X467024Y154125D01*
X467767Y152332D01*
X468845Y150718D01*
X470218Y149345D01*
X471832Y148266D01*
X473625Y147524D01*
X475529Y147145D01*
X477471D01*
X479375Y147524D01*
X481168Y148266D01*
X482782Y149345D01*
X484155Y150718D01*
X485233Y152332D01*
X485976Y154125D01*
X486355Y156029D01*
Y157971D01*
X485976Y159875D01*
X485233Y161668D01*
X484155Y163282D01*
X482782Y164655D01*
X481168Y165734D01*
X479375Y166476D01*
X477471Y166855D01*
D02*
G37*
G36*
X177471D02*
X175529D01*
X173625Y166476D01*
X171832Y165734D01*
X170218Y164655D01*
X168845Y163282D01*
X167766Y161668D01*
X167024Y159875D01*
X166645Y157971D01*
Y156029D01*
X167024Y154125D01*
X167766Y152332D01*
X168845Y150718D01*
X170218Y149345D01*
X171832Y148266D01*
X173625Y147524D01*
X175529Y147145D01*
X177471D01*
X179375Y147524D01*
X181168Y148266D01*
X182782Y149345D01*
X184155Y150718D01*
X185233Y152332D01*
X185976Y154125D01*
X186355Y156029D01*
Y157971D01*
X185976Y159875D01*
X185233Y161668D01*
X184155Y163282D01*
X182782Y164655D01*
X181168Y165734D01*
X179375Y166476D01*
X177471Y166855D01*
D02*
G37*
%LPD*%
D12*
X473000Y183500D02*
X486000Y196500D01*
Y201500D01*
X455500Y183500D02*
X473000D01*
X338500Y297000D02*
X342750Y292750D01*
Y257000D02*
Y292750D01*
X338500Y311000D02*
X354000Y326500D01*
X338500Y297000D02*
Y311000D01*
X379500Y316000D02*
X387500Y324000D01*
X364500Y316000D02*
X379500D01*
X354000Y326500D02*
X364500Y316000D01*
X341720Y332625D02*
X355875D01*
X415756Y181244D02*
Y293256D01*
X387500Y324000D02*
X408988D01*
X427744Y305244D01*
X415756Y293256D02*
X427744Y305244D01*
X355875Y332625D02*
X360500Y328000D01*
X385905Y335905D02*
X427404D01*
X380107Y330107D02*
X385905Y335905D01*
X378000Y328000D02*
X380107Y330107D01*
X360500Y328000D02*
X378000D01*
D54*
X476500Y357000D02*
D03*
Y157000D02*
D03*
X176500Y357000D02*
D03*
Y157000D02*
D03*
D86*
X396000D02*
D03*
X406000D02*
D03*
X426000D02*
D03*
X416000D02*
D03*
X351500Y357000D02*
D03*
X381500D02*
D03*
X401500D02*
D03*
X421500D02*
D03*
X411500D02*
D03*
X391500D02*
D03*
X371500D02*
D03*
X361500D02*
D03*
X341500D02*
D03*
X331500D02*
D03*
X321500D02*
D03*
D87*
X436000Y157000D02*
D03*
X431500Y357000D02*
D03*
D88*
X494000Y258000D02*
D03*
X484000D02*
D03*
X489000D02*
D03*
X499000Y257200D02*
D03*
X479000D02*
D03*
Y248800D02*
D03*
X499000D02*
D03*
X494000Y248000D02*
D03*
X484000D02*
D03*
X489000D02*
D03*
X169000Y326200D02*
D03*
X174000Y325400D02*
D03*
X164000Y326200D02*
D03*
X174000Y317000D02*
D03*
X169000Y316200D02*
D03*
X164000D02*
D03*
X159000Y326200D02*
D03*
X154000Y325400D02*
D03*
Y317000D02*
D03*
X159000Y316200D02*
D03*
X174000Y282400D02*
D03*
Y274000D02*
D03*
X164000Y283200D02*
D03*
X169000D02*
D03*
X164000Y273200D02*
D03*
X169000D02*
D03*
X159000Y283200D02*
D03*
X154000Y282400D02*
D03*
X159000Y273200D02*
D03*
X154000Y274000D02*
D03*
X174000Y239400D02*
D03*
Y231000D02*
D03*
X164000Y240200D02*
D03*
X169000D02*
D03*
X164000Y230200D02*
D03*
X169000D02*
D03*
X159000Y240200D02*
D03*
X154000Y239400D02*
D03*
Y231000D02*
D03*
X159000Y230200D02*
D03*
X174000Y196400D02*
D03*
Y188000D02*
D03*
X164000Y197200D02*
D03*
X169000D02*
D03*
X164000Y187200D02*
D03*
X169000D02*
D03*
X159000Y197200D02*
D03*
X154000Y196400D02*
D03*
X159000Y187200D02*
D03*
X154000Y188000D02*
D03*
D89*
X328000Y240500D02*
D03*
X191000Y314500D02*
D03*
X187500Y330500D02*
D03*
X188500Y287000D02*
D03*
X191300Y271143D02*
D03*
X188500Y244000D02*
D03*
X190910Y227955D02*
D03*
X190375Y200292D02*
D03*
X190840Y185070D02*
D03*
X181000Y188000D02*
D03*
Y196500D02*
D03*
Y231000D02*
D03*
Y239500D02*
D03*
Y274000D02*
D03*
Y282000D02*
D03*
Y317000D02*
D03*
Y325500D02*
D03*
X344000Y309500D02*
D03*
X302000Y230500D02*
D03*
X293000Y235000D02*
D03*
Y277500D02*
D03*
X294000Y287000D02*
D03*
X356500Y238500D02*
D03*
X356000Y230500D02*
D03*
X345500Y220500D02*
D03*
X454500Y215000D02*
D03*
X484500Y206500D02*
D03*
X490000Y168000D02*
D03*
X463000Y165000D02*
D03*
X468500Y174500D02*
D03*
X433000Y178500D02*
D03*
X421000Y176500D02*
D03*
X406000Y164500D02*
D03*
X404500Y172000D02*
D03*
X407500Y181000D02*
D03*
X430000Y190000D02*
D03*
X437500Y199500D02*
D03*
X450000Y204000D02*
D03*
X465500Y330500D02*
D03*
X437000Y334000D02*
D03*
Y324500D02*
D03*
X438500Y300000D02*
D03*
X348000Y328000D02*
D03*
X334500Y332500D02*
D03*
X331500Y349500D02*
D03*
Y342000D02*
D03*
X346500Y344000D02*
D03*
X355000Y350000D02*
D03*
X365272Y343500D02*
D03*
X376500Y347500D02*
D03*
X386000Y341500D02*
D03*
X398500Y328500D02*
D03*
X399000Y319500D02*
D03*
X380500Y311000D02*
D03*
X399000Y301000D02*
D03*
X401000Y294500D02*
D03*
X381500Y271500D02*
D03*
X394500Y284000D02*
D03*
X347500Y273000D02*
D03*
X369500Y290500D02*
D03*
X354550Y305500D02*
D03*
X425517Y249620D02*
D03*
X463017D02*
D03*
X342750Y257000D02*
D03*
X308500Y273500D02*
D03*
X293000Y241000D02*
D03*
X342000Y233500D02*
D03*
X346000Y227000D02*
D03*
X303498Y223522D02*
D03*
X220710Y325087D02*
D03*
X213210D02*
D03*
X205710D02*
D03*
X198359Y326575D02*
D03*
X196860Y315773D02*
D03*
X204200Y317313D02*
D03*
X211700D02*
D03*
X219200D02*
D03*
X226699Y317391D02*
D03*
X232242Y312338D02*
D03*
X239733Y311966D02*
D03*
X244992Y317313D02*
D03*
X252492D02*
D03*
X259992D02*
D03*
X267492D02*
D03*
X274992D02*
D03*
X280997Y312819D02*
D03*
X284952Y306446D02*
D03*
X291324Y302491D02*
D03*
X296627Y297188D02*
D03*
X301931Y291885D02*
D03*
X307234Y286581D02*
D03*
X312537Y281278D02*
D03*
X317566Y275713D02*
D03*
X324197Y279957D02*
D03*
X319232Y285578D02*
D03*
X313929Y290882D02*
D03*
X308625Y296185D02*
D03*
X303322Y301488D02*
D03*
X298019Y306792D02*
D03*
X292715Y312095D02*
D03*
X287412Y317398D02*
D03*
X282046Y322638D02*
D03*
X274957Y325087D02*
D03*
X267457D02*
D03*
X259957D02*
D03*
X252457D02*
D03*
X244957D02*
D03*
X237492Y325813D02*
D03*
X232506Y331415D02*
D03*
X213443Y282087D02*
D03*
X205943D02*
D03*
X198580Y283514D02*
D03*
X197855Y272759D02*
D03*
X205192Y274313D02*
D03*
X212692D02*
D03*
X218710Y269836D02*
D03*
X223647Y264191D02*
D03*
X230546Y267132D02*
D03*
X232712Y274313D02*
D03*
X240212D02*
D03*
X246654Y270472D02*
D03*
X251958Y265169D02*
D03*
X257280Y259885D02*
D03*
X309787Y265809D02*
D03*
X302287D02*
D03*
X294787D02*
D03*
X287287D02*
D03*
X279787D02*
D03*
X272287D02*
D03*
X264787D02*
D03*
X258393Y269728D02*
D03*
X253090Y275032D02*
D03*
X247702Y280249D02*
D03*
X240430Y282087D02*
D03*
X232930D02*
D03*
X226335Y285659D02*
D03*
X221349Y291261D02*
D03*
X307052Y255966D02*
D03*
X299552D02*
D03*
X292052D02*
D03*
X284552D02*
D03*
X277052D02*
D03*
X269552D02*
D03*
X262057Y255700D02*
D03*
X255920Y251388D02*
D03*
X250617Y246084D02*
D03*
X245314Y240781D02*
D03*
X238007Y239087D02*
D03*
X230737Y240928D02*
D03*
X225532Y246327D02*
D03*
X218135Y245086D02*
D03*
X210639Y245328D02*
D03*
X206479Y239087D02*
D03*
X199090Y240375D02*
D03*
X199967Y230437D02*
D03*
X207416Y231313D02*
D03*
X213796Y227370D02*
D03*
X220638Y224297D02*
D03*
X228138Y224304D02*
D03*
X235005Y227319D02*
D03*
X241354Y231313D02*
D03*
X248603Y233235D02*
D03*
X253986Y238458D02*
D03*
X259289Y243761D02*
D03*
X265340Y248191D02*
D03*
X272840D02*
D03*
X280341D02*
D03*
X287841D02*
D03*
X295340D02*
D03*
X302840D02*
D03*
X310340D02*
D03*
X317686Y240718D02*
D03*
X314105Y234128D02*
D03*
X308801Y228825D02*
D03*
X298195Y218218D02*
D03*
X292892Y212915D02*
D03*
X286264Y209405D02*
D03*
X282753Y202777D02*
D03*
X277450Y197474D02*
D03*
X270079Y196087D02*
D03*
X262579D02*
D03*
X255079D02*
D03*
X247579D02*
D03*
X240079D02*
D03*
X232783Y197825D02*
D03*
X226898Y202474D02*
D03*
X220655Y198318D02*
D03*
X213494Y196087D02*
D03*
X205995D02*
D03*
X198628Y197497D02*
D03*
X198036Y186783D02*
D03*
X205378Y188313D02*
D03*
X212878D02*
D03*
X220378D02*
D03*
X226795Y184431D02*
D03*
X234053Y182540D02*
D03*
X238841Y188313D02*
D03*
X246340D02*
D03*
X253840D02*
D03*
X261340D02*
D03*
X268841D02*
D03*
X276340Y188359D02*
D03*
X282924Y191952D02*
D03*
X288227Y197256D02*
D03*
X293530Y202559D02*
D03*
X298834Y207862D02*
D03*
X304137Y213166D02*
D03*
X309440Y218469D02*
D03*
X314743Y223772D02*
D03*
X320047Y229076D02*
D03*
X324738Y234927D02*
D03*
X338500Y297000D02*
D03*
X378500Y296500D02*
D03*
X359000Y304500D02*
D03*
X467351Y256506D02*
D03*
X459851D02*
D03*
X452351D02*
D03*
X444851D02*
D03*
X437351D02*
D03*
X429851D02*
D03*
X422351D02*
D03*
X407351D02*
D03*
X399851D02*
D03*
X392351D02*
D03*
X384851D02*
D03*
X377351D02*
D03*
X369851D02*
D03*
X362351D02*
D03*
X354851D02*
D03*
X343017Y249620D02*
D03*
X350517D02*
D03*
X358017D02*
D03*
X365517D02*
D03*
X373017D02*
D03*
X380517D02*
D03*
X388017D02*
D03*
X395517D02*
D03*
X403017D02*
D03*
X410517D02*
D03*
X433017D02*
D03*
X440517D02*
D03*
X448017D02*
D03*
X455517D02*
D03*
X470517D02*
D03*
X354000Y326500D02*
D03*
X341720Y332625D02*
D03*
X415756Y181244D02*
D03*
X427744Y305244D02*
D03*
X387500Y324000D02*
D03*
X364500Y320500D02*
D03*
X427404Y335905D02*
D03*
X380107Y330107D02*
D03*
X360500Y328000D02*
D03*
X472000Y196500D02*
D03*
Y191500D02*
D03*
X333500Y264000D02*
D03*
Y259000D02*
D03*
Y255000D02*
D03*
X331067Y252433D02*
D03*
Y261567D02*
D03*
X328500Y264000D02*
D03*
Y259000D02*
D03*
Y250000D02*
D03*
Y255000D02*
D03*
X466500Y196500D02*
D03*
X469227Y194000D02*
D03*
X466500Y191500D02*
D03*
X333500Y250000D02*
D03*
X324500Y264000D02*
D03*
X319500D02*
D03*
X321933Y261567D02*
D03*
X324500Y259000D02*
D03*
X319500D02*
D03*
X324500Y255000D02*
D03*
X321933Y252433D02*
D03*
X319500Y255000D02*
D03*
Y250000D02*
D03*
X324500D02*
D03*
X468500Y322000D02*
D03*
X455500Y183500D02*
D03*
X486000Y201500D02*
D03*
X490000Y191000D02*
D03*
Y186500D02*
D03*
D102*
X490500Y188000D02*
D03*
M02*
