G04*
G04 #@! TF.GenerationSoftware,Altium Limited,Altium Designer,26.4.1 (12)*
G04*
G04 Layer_Physical_Order=1*
G04 Layer_Color=255*
%FSLAX25Y25*%
%MOIN*%
G70*
G04*
G04 #@! TF.SameCoordinates,2EABD70A-8345-44E5-BABD-0BEDDB5D8E19*
G04*
G04*
G04 #@! TF.FilePolarity,Positive*
G04*
G01*
G75*
%ADD12C,0.02000*%
%ADD13C,0.01000*%
%ADD18C,0.00800*%
%ADD19C,0.03200*%
%ADD20R,0.02593X0.03197*%
%ADD21R,0.02756X0.02756*%
G04:AMPARAMS|DCode=22|XSize=38.19mil|YSize=20.87mil|CornerRadius=2.61mil|HoleSize=0mil|Usage=FLASHONLY|Rotation=270.000|XOffset=0mil|YOffset=0mil|HoleType=Round|Shape=RoundedRectangle|*
%AMROUNDEDRECTD22*
21,1,0.03819,0.01565,0,0,270.0*
21,1,0.03297,0.02087,0,0,270.0*
1,1,0.00522,-0.00783,-0.01649*
1,1,0.00522,-0.00783,0.01649*
1,1,0.00522,0.00783,0.01649*
1,1,0.00522,0.00783,-0.01649*
%
%ADD22ROUNDEDRECTD22*%
G04:AMPARAMS|DCode=23|XSize=61.81mil|YSize=9.45mil|CornerRadius=1.18mil|HoleSize=0mil|Usage=FLASHONLY|Rotation=270.000|XOffset=0mil|YOffset=0mil|HoleType=Round|Shape=RoundedRectangle|*
%AMROUNDEDRECTD23*
21,1,0.06181,0.00709,0,0,270.0*
21,1,0.05945,0.00945,0,0,270.0*
1,1,0.00236,-0.00354,-0.02972*
1,1,0.00236,-0.00354,0.02972*
1,1,0.00236,0.00354,0.02972*
1,1,0.00236,0.00354,-0.02972*
%
%ADD23ROUNDEDRECTD23*%
%ADD24R,0.01181X0.01181*%
%ADD25R,0.01100X0.02978*%
%ADD26R,0.02756X0.02756*%
%ADD27R,0.03197X0.02593*%
%ADD28R,0.03200X0.04100*%
%ADD29R,0.03366X0.03568*%
%ADD30R,0.09000X0.09000*%
%ADD31R,0.08189X0.08189*%
%ADD32R,0.03960X0.05151*%
%ADD33R,0.03150X0.03150*%
%ADD34R,0.03175X0.03379*%
%ADD35R,0.03379X0.03175*%
%ADD36R,0.05151X0.03960*%
%ADD37R,0.02400X0.04700*%
%ADD38R,0.02600X0.00800*%
%ADD39R,0.05755X0.02200*%
%ADD40R,0.03773X0.04355*%
%ADD41R,0.05000X0.02850*%
%ADD42R,0.03174X0.03379*%
%ADD43C,0.01396*%
%ADD44C,0.01146*%
%ADD45C,0.01146*%
%ADD50C,0.02254*%
%ADD54C,0.18110*%
%ADD55R,0.03937X0.03937*%
%ADD56C,0.01181*%
%ADD57R,0.05500X0.06500*%
%ADD58R,0.05500X0.05500*%
%ADD59R,0.04928X0.05200*%
%ADD60R,0.07000X0.05500*%
%ADD61R,0.06200X0.06200*%
%ADD62R,0.06500X0.05500*%
%ADD63R,0.06200X0.05700*%
%ADD64R,0.06000X0.05500*%
%ADD65R,0.06800X0.04835*%
%ADD66R,0.05800X0.04735*%
%ADD67R,0.06300X0.05335*%
%ADD68R,0.05800X0.05235*%
%ADD69R,0.05800X0.04835*%
%ADD70R,0.05300X0.05235*%
%ADD71R,0.08143X0.05335*%
%ADD72R,0.22977X0.06506*%
%ADD73R,0.05500X0.12000*%
%ADD74R,0.18000X0.16500*%
%ADD75R,0.19500X0.20000*%
%ADD76R,0.05800X0.04075*%
%ADD77R,0.05800X0.03575*%
%ADD78R,0.05300X0.04275*%
%ADD79R,0.05300X0.04051*%
%ADD80R,0.05300X0.04375*%
%ADD81R,0.05300X0.03775*%
%ADD82R,0.06300X0.03875*%
%ADD83R,0.05300X0.04775*%
%ADD84R,0.07755X0.09000*%
%ADD85R,0.13134X0.14928*%
%ADD86C,0.06299*%
G04:AMPARAMS|DCode=87|XSize=62.99mil|YSize=62.99mil|CornerRadius=15.75mil|HoleSize=0mil|Usage=FLASHONLY|Rotation=180.000|XOffset=0mil|YOffset=0mil|HoleType=Round|Shape=RoundedRectangle|*
%AMROUNDEDRECTD87*
21,1,0.06299,0.03150,0,0,180.0*
21,1,0.03150,0.06299,0,0,180.0*
1,1,0.03150,-0.01575,0.01575*
1,1,0.03150,0.01575,0.01575*
1,1,0.03150,0.01575,-0.01575*
1,1,0.03150,-0.01575,-0.01575*
%
%ADD87ROUNDEDRECTD87*%
%ADD88C,0.02587*%
%ADD89C,0.02500*%
G36*
X480173Y381759D02*
X482582Y381280D01*
X484932Y380567D01*
X487202Y379627D01*
X489368Y378469D01*
X491410Y377104D01*
X493309Y375546D01*
X495046Y373809D01*
X496604Y371910D01*
X497969Y369868D01*
X499127Y367702D01*
X500067Y365432D01*
X500780Y363082D01*
X501259Y360673D01*
X501500Y358228D01*
Y357000D01*
Y269000D01*
Y255425D01*
X497500D01*
Y256500D01*
X481300D01*
Y255425D01*
X477300D01*
Y255559D01*
X477080Y255028D01*
X353795Y255028D01*
Y256500D01*
X351417D01*
Y257500D01*
X353795D01*
Y259378D01*
X354256Y259714D01*
X402437D01*
X402905Y259807D01*
X403302Y260072D01*
X416977Y273746D01*
X416999Y273737D01*
X417875D01*
X418683Y274072D01*
X419302Y274691D01*
X419637Y275499D01*
Y276375D01*
X419302Y277183D01*
X418683Y277802D01*
X418660Y277812D01*
Y287556D01*
X419215Y287785D01*
X420540Y286460D01*
X420530Y286438D01*
Y285562D01*
X420865Y284754D01*
X421484Y284135D01*
X422293Y283800D01*
X423168D01*
X423977Y284135D01*
X424595Y284754D01*
X424605Y284776D01*
X426103D01*
Y283801D01*
X429897D01*
Y288199D01*
X426103D01*
Y287224D01*
X424605D01*
X424595Y287246D01*
X423977Y287865D01*
X423168Y288200D01*
X422293D01*
X422270Y288191D01*
X420235Y290225D01*
Y296496D01*
X420941D01*
X421221Y296552D01*
X421374Y296654D01*
X421527Y296552D01*
X421807Y296496D01*
X422516D01*
X422796Y296552D01*
X423034Y296711D01*
X423192Y296948D01*
X423248Y297228D01*
Y298777D01*
X425766D01*
Y298022D01*
X429722D01*
Y301978D01*
X429070D01*
Y303670D01*
X429482Y304083D01*
X429794Y304836D01*
Y305652D01*
X429482Y306405D01*
X428905Y306982D01*
X428152Y307294D01*
X427336D01*
X426583Y306982D01*
X426006Y306405D01*
X425694Y305652D01*
Y304836D01*
X426006Y304083D01*
X426419Y303670D01*
Y301978D01*
X425766D01*
Y301223D01*
X423248D01*
Y303173D01*
X423192Y303453D01*
X423034Y303691D01*
X422796Y303850D01*
X422516Y303905D01*
X421807D01*
X421527Y303850D01*
X421374Y303748D01*
X421221Y303850D01*
X420941Y303905D01*
X420232D01*
X419952Y303850D01*
X419799Y303748D01*
X419646Y303850D01*
X419366Y303905D01*
X418657D01*
X418377Y303850D01*
X418224Y303748D01*
X418072Y303850D01*
X417791Y303905D01*
X417083D01*
X416803Y303850D01*
X416650Y303748D01*
X416497Y303850D01*
X416217Y303905D01*
X415508D01*
X415228Y303850D01*
X415075Y303748D01*
X414922Y303850D01*
X414642Y303905D01*
X413933D01*
X413653Y303850D01*
X413500Y303748D01*
X413347Y303850D01*
X413067Y303905D01*
X412358D01*
X412078Y303850D01*
X411925Y303748D01*
X411772Y303850D01*
X411492Y303905D01*
X410783D01*
X410503Y303850D01*
X410350Y303748D01*
X410197Y303850D01*
X409917Y303905D01*
X409209D01*
X408928Y303850D01*
X408776Y303748D01*
X408623Y303850D01*
X408343Y303905D01*
X407634D01*
X407354Y303850D01*
X407201Y303748D01*
X407048Y303850D01*
X406768Y303905D01*
X406059D01*
X406050Y303904D01*
X405999Y303979D01*
X405629Y304226D01*
X405338Y304284D01*
Y303233D01*
X405327Y303173D01*
Y300201D01*
Y297228D01*
X405338Y297168D01*
Y296117D01*
X405629Y296175D01*
X405999Y296422D01*
X406050Y296498D01*
X406059Y296496D01*
X406768D01*
X407048Y296552D01*
X407086Y296577D01*
X407648Y296396D01*
X407832Y295839D01*
X402716Y290723D01*
X395007D01*
X385691Y300040D01*
X385700Y300062D01*
Y300938D01*
X385365Y301746D01*
X384746Y302365D01*
X383938Y302700D01*
X383062D01*
X382254Y302365D01*
X381635Y301746D01*
X381626Y301724D01*
X366885D01*
Y302094D01*
X366818Y302429D01*
X366628Y302714D01*
X366343Y302904D01*
X366007Y302971D01*
X364442D01*
X364106Y302904D01*
X363859Y302739D01*
X363656Y302808D01*
X363342Y302986D01*
X363300Y303570D01*
X364007Y304276D01*
X370112D01*
X370519Y303869D01*
X371328Y303534D01*
X372203D01*
X373012Y303869D01*
X373631Y304488D01*
X373966Y305297D01*
Y306172D01*
X373631Y306980D01*
X373223Y307388D01*
Y320033D01*
X375118D01*
Y320736D01*
X378522D01*
Y320022D01*
X382478D01*
Y320674D01*
X385500D01*
X386007Y320775D01*
X386437Y321063D01*
X387325Y321950D01*
X387908D01*
X388661Y322262D01*
X389238Y322839D01*
X389550Y323592D01*
Y324408D01*
X389238Y325161D01*
X388661Y325738D01*
X387908Y326050D01*
X387092D01*
X386339Y325738D01*
X385762Y325161D01*
X385450Y324408D01*
Y323825D01*
X384951Y323325D01*
X382478D01*
Y323978D01*
X378522D01*
Y323387D01*
X375118D01*
Y324211D01*
X366913D01*
Y323424D01*
X366099D01*
X365592Y323323D01*
X365161Y323036D01*
X364675Y322550D01*
X364092D01*
X363339Y322238D01*
X362762Y321661D01*
X362450Y320908D01*
Y320092D01*
X362762Y319339D01*
X363175Y318926D01*
Y317061D01*
X362425D01*
X362301Y317061D01*
X361825Y317361D01*
Y326426D01*
X362238Y326839D01*
X362550Y327592D01*
Y328408D01*
X362238Y329161D01*
X361825Y329574D01*
Y332200D01*
X362292D01*
Y336156D01*
X358336D01*
Y335825D01*
X355219D01*
Y336589D01*
X353324D01*
Y340593D01*
X362365Y349635D01*
X362630Y350032D01*
X362723Y350500D01*
Y353239D01*
X363024Y353320D01*
X363925Y353839D01*
X364661Y354575D01*
X365180Y355475D01*
X365450Y356480D01*
Y357520D01*
X365180Y358524D01*
X364661Y359425D01*
X363925Y360160D01*
X363024Y360680D01*
X362020Y360950D01*
X360980D01*
X359976Y360680D01*
X359075Y360160D01*
X358340Y359425D01*
X357820Y358524D01*
X357550Y357520D01*
Y356480D01*
X357820Y355475D01*
X358340Y354575D01*
X359075Y353839D01*
X359976Y353320D01*
X360277Y353239D01*
Y351007D01*
X351235Y341965D01*
X350970Y341568D01*
X350876Y341100D01*
Y336589D01*
X349713D01*
Y336989D01*
X348663D01*
Y334500D01*
Y332011D01*
X349713D01*
Y332411D01*
X355219D01*
Y333174D01*
X358336D01*
Y332200D01*
X359174D01*
Y329574D01*
X358762Y329161D01*
X358450Y328408D01*
Y327592D01*
X358762Y326839D01*
X359174Y326426D01*
Y311000D01*
X359275Y310493D01*
X359563Y310063D01*
X360727Y308898D01*
X361157Y308611D01*
X361664Y308510D01*
X362301D01*
Y307939D01*
X366699D01*
Y311733D01*
X362301D01*
X361825Y312032D01*
Y312968D01*
X362301Y313267D01*
X362425Y313267D01*
X366699D01*
Y317061D01*
X365826D01*
Y318926D01*
X366238Y319339D01*
X366419Y319777D01*
X366913Y320033D01*
X370777D01*
Y307706D01*
X370519Y307599D01*
X369901Y306980D01*
X369794Y306723D01*
X363500D01*
X363032Y306630D01*
X362635Y306365D01*
X361547Y305277D01*
X360839Y305418D01*
X360738Y305661D01*
X360161Y306238D01*
X359408Y306550D01*
X358592D01*
X357839Y306238D01*
X357400Y305799D01*
X356942Y305912D01*
X356795Y305969D01*
X356790Y305973D01*
X356457Y306774D01*
X356420Y306812D01*
X356650Y307366D01*
X358378D01*
Y309244D01*
X356000D01*
X353622D01*
Y307551D01*
X353275Y307407D01*
X352642Y306774D01*
X351992Y306772D01*
X351732Y306985D01*
Y313502D01*
X352965Y314735D01*
X353230Y315132D01*
X353324Y315600D01*
Y317004D01*
X353457Y317117D01*
X353924Y317263D01*
X354022Y317158D01*
Y313278D01*
X357978D01*
Y317234D01*
X357277D01*
Y317548D01*
X357176Y318055D01*
X356889Y318485D01*
X355444Y319931D01*
Y322072D01*
X355394Y322323D01*
Y324995D01*
X355738Y325339D01*
X356050Y326092D01*
Y326908D01*
X355738Y327661D01*
X355161Y328238D01*
X354408Y328550D01*
X353592D01*
X352839Y328238D01*
X352262Y327661D01*
X351950Y326908D01*
Y326092D01*
X352262Y325339D01*
X352743Y324858D01*
Y324211D01*
X347013D01*
Y323346D01*
X344161D01*
X344151Y323368D01*
X343532Y323987D01*
X342724Y324322D01*
X341849D01*
X341040Y323987D01*
X340421Y323368D01*
X340412Y323346D01*
X339099D01*
Y324321D01*
X335306D01*
Y319923D01*
X339099D01*
Y320899D01*
X340412D01*
X340421Y320876D01*
X341040Y320257D01*
X341849Y319922D01*
X342724D01*
X343532Y320257D01*
X344151Y320876D01*
X344161Y320899D01*
X347013D01*
Y320033D01*
X350876D01*
Y316107D01*
X349644Y314874D01*
X349379Y314477D01*
X349286Y314009D01*
Y306483D01*
X349263Y306474D01*
X348644Y305855D01*
X348309Y305046D01*
Y304171D01*
X348644Y303362D01*
X349263Y302744D01*
X349286Y302734D01*
Y301491D01*
X349379Y301023D01*
X349644Y300626D01*
X350314Y299956D01*
X350037Y299384D01*
X345920D01*
X345320Y299384D01*
X345080Y299384D01*
X340754D01*
Y298325D01*
X340074D01*
X339661Y298738D01*
X338908Y299050D01*
X338092D01*
X337339Y298738D01*
X336762Y298161D01*
X336450Y297408D01*
Y296592D01*
X336762Y295839D01*
X337339Y295262D01*
X338092Y294950D01*
X338908D01*
X339661Y295262D01*
X340074Y295674D01*
X340754D01*
Y294616D01*
X345080D01*
X345680Y294616D01*
X345920Y294616D01*
X350246D01*
Y295777D01*
X353674D01*
X354115Y295204D01*
Y291906D01*
X354182Y291571D01*
X354373Y291286D01*
X354552Y291166D01*
Y288282D01*
X352960Y286691D01*
X352938Y286700D01*
X352062D01*
X351254Y286365D01*
X350635Y285746D01*
X350625Y285723D01*
X338000D01*
X337532Y285630D01*
X337135Y285365D01*
X327603Y275834D01*
X327338Y275437D01*
X327245Y274969D01*
Y269122D01*
X327000D01*
Y267531D01*
X326000D01*
Y269122D01*
X325031D01*
Y267531D01*
X324031D01*
Y269248D01*
X323889Y269295D01*
X323882Y269312D01*
X323843Y269909D01*
Y275488D01*
X323855D01*
X323700Y277062D01*
X323241Y278576D01*
X322495Y279971D01*
X321864Y280741D01*
X321498Y281186D01*
X321498Y281187D01*
X321496Y281189D01*
X321493Y281192D01*
X321477Y281192D01*
X321066Y281603D01*
X299447Y303222D01*
X292834Y309834D01*
X281682Y320987D01*
X281682Y320987D01*
X281682Y320988D01*
X281691Y320997D01*
X280404Y322053D01*
X278930Y322841D01*
X277871Y323162D01*
X277351Y323320D01*
X277345Y323331D01*
X277317Y323343D01*
X277073Y323407D01*
X277072Y323408D01*
X276981Y323420D01*
X276388Y323500D01*
X276249Y323528D01*
X276204Y323537D01*
X276204Y323537D01*
X276200Y323537D01*
X276199Y323538D01*
X276199Y323538D01*
X275679Y323591D01*
X275668Y323575D01*
X275666Y323573D01*
X241322D01*
Y323588D01*
X240045Y323420D01*
X238855Y322927D01*
X237833Y322143D01*
X237049Y321121D01*
X236657Y320175D01*
X236057Y320294D01*
Y325154D01*
X236072D01*
X235904Y326431D01*
X235411Y327621D01*
X234627Y328643D01*
X233605Y329427D01*
X232415Y329920D01*
X231138Y330088D01*
X229861Y329920D01*
X228671Y329427D01*
X227649Y328643D01*
X226865Y327621D01*
X226372Y326431D01*
X226204Y325154D01*
X226219D01*
Y323746D01*
X226208D01*
X226161Y323631D01*
X226046Y323584D01*
Y323573D01*
X200789D01*
X200762Y323568D01*
X200566Y323649D01*
X200127Y324036D01*
X200127Y324036D01*
X199299Y324672D01*
X198335Y325071D01*
X197300Y325207D01*
Y325200D01*
X196764Y325093D01*
X196660Y325024D01*
X195500D01*
X195032Y324930D01*
X194837Y324800D01*
X193600D01*
Y324550D01*
X192150D01*
Y321200D01*
Y317850D01*
X193600D01*
Y317600D01*
X194837D01*
X195032Y317470D01*
X195500Y317376D01*
X196660D01*
X196764Y317307D01*
X197300Y317200D01*
Y317193D01*
X197300Y317193D01*
X198335Y317329D01*
X199299Y317728D01*
X200127Y318364D01*
X200122Y318369D01*
X200549Y318796D01*
X200624Y318827D01*
X226046D01*
Y318812D01*
X227323Y318980D01*
X228513Y319473D01*
X229535Y320257D01*
X230319Y321279D01*
X230711Y322225D01*
X231311Y322106D01*
Y317328D01*
X231296D01*
X231464Y316051D01*
X231957Y314861D01*
X232741Y313839D01*
X233763Y313054D01*
X234953Y312561D01*
X236230Y312393D01*
X237507Y312561D01*
X238697Y313054D01*
X239719Y313839D01*
X240503Y314861D01*
X240996Y316051D01*
X241164Y317328D01*
X241149D01*
Y318654D01*
X241160D01*
X241207Y318769D01*
X241322Y318816D01*
Y318827D01*
X275069D01*
X275209Y318825D01*
X275648Y318795D01*
X275661Y318782D01*
X275662Y318782D01*
X276095Y318717D01*
X276095Y318717D01*
X276384Y318645D01*
X276460Y318635D01*
X276545Y318623D01*
X276926Y318494D01*
X277555Y318233D01*
X278312Y317653D01*
X278326Y317631D01*
X281227Y314730D01*
X281227Y314730D01*
X283450Y312507D01*
X283455Y312496D01*
X283063Y311985D01*
X282791Y311330D01*
X282699Y310626D01*
X282791Y309922D01*
X283063Y309266D01*
X283462Y308746D01*
X283492Y308700D01*
X283492Y308700D01*
X283492Y308700D01*
X283493Y308700D01*
X283958Y308348D01*
X284058Y308271D01*
X284714Y307999D01*
X285418Y307907D01*
X286122Y307999D01*
X286778Y308271D01*
X287288Y308663D01*
X287299Y308658D01*
X290832Y305125D01*
X317740Y278217D01*
X318099Y277793D01*
X318496Y277357D01*
X318658Y277147D01*
X318989Y276347D01*
X319100Y275504D01*
X319097Y275488D01*
Y269866D01*
X319086Y269295D01*
X318934Y269122D01*
X317582D01*
Y270243D01*
X317481Y270750D01*
X317194Y271181D01*
X313937Y274437D01*
X313507Y274725D01*
X313000Y274826D01*
X310074D01*
X309661Y275238D01*
X308908Y275550D01*
X308092D01*
X307339Y275238D01*
X306926Y274826D01*
X305530D01*
Y275789D01*
X304824D01*
Y279609D01*
X305476D01*
Y283565D01*
X301521D01*
Y279609D01*
X302173D01*
Y276214D01*
X301749Y275789D01*
X301436Y275789D01*
X301002Y276189D01*
X300720Y276189D01*
X298914D01*
Y273500D01*
Y270811D01*
X300720D01*
X301002Y270811D01*
X301436Y271211D01*
X301602Y271211D01*
X305530D01*
Y272175D01*
X306926D01*
X307339Y271762D01*
X308092Y271450D01*
X308908D01*
X309661Y271762D01*
X310074Y272175D01*
X312451D01*
X314931Y269694D01*
Y268621D01*
X314900Y268600D01*
X314723Y268336D01*
X314661Y268024D01*
Y266465D01*
X314378D01*
Y265374D01*
X315968D01*
Y264374D01*
X314378D01*
Y264294D01*
X261830D01*
X261824Y264293D01*
X261588Y264391D01*
X261586Y264394D01*
X247978Y278002D01*
X247559Y278432D01*
X247556Y278435D01*
X247110Y278802D01*
X246446Y279346D01*
X245179Y280024D01*
X243805Y280440D01*
X242955Y280524D01*
X242385Y280580D01*
X242375Y280575D01*
X241775Y280573D01*
X230165D01*
Y280588D01*
X228888Y280420D01*
X227698Y279927D01*
X226676Y279143D01*
X225892Y278121D01*
X225500Y277175D01*
X224900Y277294D01*
Y285000D01*
X224915D01*
X224747Y286277D01*
X224254Y287467D01*
X223470Y288489D01*
X222448Y289273D01*
X221258Y289766D01*
X219981Y289934D01*
X218704Y289766D01*
X217514Y289273D01*
X216492Y288489D01*
X215708Y287467D01*
X215215Y286277D01*
X215047Y285000D01*
X215062D01*
Y280746D01*
X215051D01*
X215004Y280631D01*
X214889Y280584D01*
Y280573D01*
X200789D01*
X200762Y280568D01*
X200566Y280649D01*
X200127Y281036D01*
X200127Y281036D01*
X199299Y281672D01*
X198335Y282071D01*
X197300Y282207D01*
Y282200D01*
X196764Y282093D01*
X196660Y282024D01*
X195500D01*
X195032Y281930D01*
X194837Y281800D01*
X193600D01*
Y281550D01*
X192150D01*
Y278200D01*
Y274850D01*
X193600D01*
Y274600D01*
X194837D01*
X195032Y274470D01*
X195500Y274377D01*
X196660D01*
X196764Y274307D01*
X197300Y274200D01*
Y274193D01*
X197300Y274193D01*
X198335Y274329D01*
X199299Y274728D01*
X200127Y275364D01*
X200122Y275369D01*
X200549Y275796D01*
X200624Y275827D01*
X214889D01*
Y275812D01*
X216166Y275980D01*
X217356Y276473D01*
X218378Y277257D01*
X219162Y278279D01*
X219554Y279225D01*
X220154Y279106D01*
Y270432D01*
X220139D01*
X220307Y269155D01*
X220800Y267965D01*
X221584Y266943D01*
X222606Y266159D01*
X223796Y265666D01*
X225073Y265498D01*
X226350Y265666D01*
X227540Y266159D01*
X228562Y266943D01*
X229346Y267965D01*
X229839Y269155D01*
X230007Y270432D01*
X229992D01*
Y275654D01*
X230003D01*
X230050Y275769D01*
X230165Y275816D01*
Y275827D01*
X242375D01*
X242375Y275827D01*
X242940Y275742D01*
X243370Y275656D01*
X243737Y275411D01*
X244196Y275071D01*
X244201Y275064D01*
X244203Y275065D01*
X244620Y274648D01*
X258233Y261036D01*
X258233Y261031D01*
X258224Y261022D01*
X259274Y260217D01*
X260508Y259706D01*
X261827Y259532D01*
X261827Y259547D01*
X261828Y259548D01*
X314378D01*
Y259469D01*
X315968D01*
Y258469D01*
X314378D01*
Y257500D01*
X315968D01*
Y256500D01*
X314378D01*
Y255532D01*
X315968D01*
Y254532D01*
X314378D01*
Y254452D01*
X264631D01*
X264031Y254463D01*
X264027Y254463D01*
X264022Y254463D01*
Y254463D01*
X264020Y254457D01*
X262666Y254323D01*
X261345Y253923D01*
X260128Y253272D01*
X259508Y252763D01*
X259061Y252397D01*
X259059Y252394D01*
X258640Y251966D01*
X245462Y238788D01*
X245037Y238366D01*
X245037Y238366D01*
X244575Y238008D01*
X244478Y237933D01*
X243916Y237701D01*
X243346Y237601D01*
X242755Y237573D01*
X234598D01*
Y237588D01*
X233320Y237420D01*
X232131Y236927D01*
X231109Y236143D01*
X230324Y235121D01*
X229932Y234175D01*
X229332Y234294D01*
Y240034D01*
X229348D01*
X229180Y241311D01*
X228687Y242501D01*
X227903Y243523D01*
X226881Y244307D01*
X225691Y244800D01*
X224414Y244968D01*
X223136Y244800D01*
X221947Y244307D01*
X220924Y243523D01*
X220140Y242501D01*
X219648Y241311D01*
X219624Y241133D01*
X219019D01*
X218996Y241311D01*
X218503Y242501D01*
X217719Y243523D01*
X216697Y244307D01*
X215507Y244800D01*
X214230Y244968D01*
X212952Y244800D01*
X211762Y244307D01*
X210740Y243523D01*
X209956Y242501D01*
X209464Y241311D01*
X209295Y240034D01*
X209311D01*
Y237746D01*
X209300D01*
X209252Y237631D01*
X209138Y237584D01*
Y237573D01*
X200789D01*
X200762Y237567D01*
X200566Y237649D01*
X200127Y238036D01*
X200127Y238036D01*
X199299Y238672D01*
X198335Y239071D01*
X197300Y239207D01*
Y239200D01*
X196764Y239093D01*
X196660Y239023D01*
X195500D01*
X195032Y238930D01*
X194837Y238800D01*
X193600D01*
Y238550D01*
X192150D01*
Y235200D01*
Y231850D01*
X193600D01*
Y231600D01*
X194837D01*
X195032Y231470D01*
X195500Y231377D01*
X196660D01*
X196764Y231307D01*
X197300Y231200D01*
Y231193D01*
X197300Y231193D01*
X198335Y231329D01*
X199299Y231728D01*
X200127Y232364D01*
X200122Y232369D01*
X200549Y232796D01*
X200624Y232827D01*
X209138D01*
Y232812D01*
X210415Y232980D01*
X211605Y233473D01*
X212627Y234257D01*
X213411Y235279D01*
X213803Y236225D01*
X214403Y236106D01*
Y230565D01*
X214387D01*
X214556Y229288D01*
X215048Y228098D01*
X215832Y227076D01*
X216855Y226292D01*
X218044Y225799D01*
X219322Y225631D01*
X220599Y225799D01*
X221789Y226292D01*
X222811Y227076D01*
X223595Y228098D01*
X224088Y229288D01*
X224111Y229466D01*
X224716D01*
X224740Y229288D01*
X225232Y228098D01*
X226017Y227076D01*
X227039Y226292D01*
X228228Y225799D01*
X229506Y225631D01*
X230783Y225799D01*
X231973Y226292D01*
X232995Y227076D01*
X233779Y228098D01*
X234272Y229288D01*
X234440Y230565D01*
X234424D01*
Y232299D01*
X234953Y232827D01*
X242526D01*
X243113Y232825D01*
X243126Y232825D01*
X243128Y232824D01*
X243128Y232819D01*
X243134Y232818D01*
X243134Y232818D01*
X243205Y232823D01*
X243603Y232845D01*
X243603Y232845D01*
X243605Y232845D01*
X243628Y232848D01*
X243703Y232858D01*
X243707Y232858D01*
X243708Y232858D01*
X243707Y232859D01*
X243747Y232870D01*
X244289Y232932D01*
X244586Y232961D01*
X245982Y233385D01*
X247269Y234072D01*
X247951Y234632D01*
X248396Y234998D01*
X248400Y235003D01*
X248817Y235431D01*
X262417Y249032D01*
X262419Y249030D01*
X262423Y249036D01*
X262884Y249370D01*
X263156Y249551D01*
X263444Y249609D01*
X263449Y249610D01*
X263476Y249612D01*
X264020Y249659D01*
X264033Y249660D01*
X264627Y249706D01*
X314378D01*
Y249626D01*
X315968D01*
Y248626D01*
X314378D01*
Y248082D01*
X313757D01*
X313249Y247981D01*
X312820Y247694D01*
X309889Y244764D01*
X309289Y245012D01*
Y245152D01*
X304711D01*
Y244581D01*
X300891D01*
Y245234D01*
X296935D01*
Y244581D01*
X295256D01*
X294749Y244480D01*
X294319Y244193D01*
X293176Y243050D01*
X292592D01*
X291839Y242738D01*
X291262Y242161D01*
X290950Y241408D01*
Y240592D01*
X291262Y239839D01*
X291839Y239262D01*
X292592Y238950D01*
X293408D01*
X294161Y239262D01*
X294738Y239839D01*
X295050Y240592D01*
Y241176D01*
X295805Y241930D01*
X296935D01*
Y241278D01*
X300891D01*
Y241930D01*
X304286D01*
X304711Y241506D01*
X304711Y241058D01*
X304311Y240624D01*
X304311Y240342D01*
Y238536D01*
X307000D01*
X309689D01*
Y240342D01*
X309689Y240624D01*
X309289Y241058D01*
X309289Y241506D01*
X309714Y241930D01*
X310256D01*
X310763Y242031D01*
X311193Y242319D01*
X314306Y245431D01*
X314878D01*
X314900Y245400D01*
X315164Y245223D01*
X315476Y245161D01*
X317035D01*
Y244878D01*
X318126D01*
Y246468D01*
X319126D01*
Y244878D01*
X319200D01*
Y238526D01*
X319200Y238526D01*
X319200D01*
X319132Y237954D01*
X319088Y237622D01*
X318739Y236780D01*
X318537Y236517D01*
X318163Y236072D01*
X318162Y236071D01*
X318174Y236058D01*
X317753Y235635D01*
X296309Y214191D01*
X289510Y207392D01*
X289502Y207388D01*
X289495Y207393D01*
X288975Y207792D01*
X288319Y208064D01*
X287616Y208156D01*
X286912Y208064D01*
X286256Y207792D01*
X286147Y207708D01*
X285690Y207362D01*
X285690Y207362D01*
X285690Y207362D01*
X285690Y207362D01*
X285660Y207316D01*
X285261Y206797D01*
X284989Y206141D01*
X284896Y205437D01*
X284989Y204733D01*
X285261Y204077D01*
X285660Y203557D01*
X285664Y203551D01*
X285661Y203543D01*
X277868Y195750D01*
X277445Y195328D01*
X277432Y195341D01*
X277431Y195339D01*
X276979Y194982D01*
X276621Y194743D01*
X276407Y194700D01*
X276193Y194658D01*
X275710Y194585D01*
X275256Y194573D01*
X275029D01*
X236822D01*
Y194588D01*
X235545Y194420D01*
X234355Y193927D01*
X233333Y193143D01*
X232549Y192121D01*
X232157Y191175D01*
X231557Y191294D01*
Y196075D01*
X231572D01*
X231404Y197352D01*
X230911Y198542D01*
X230127Y199564D01*
X229105Y200348D01*
X227915Y200841D01*
X226638Y201009D01*
X225361Y200841D01*
X224171Y200348D01*
X223149Y199564D01*
X222365Y198542D01*
X221872Y197352D01*
X221704Y196075D01*
X221719D01*
Y194746D01*
X221708D01*
X221661Y194631D01*
X221546Y194584D01*
Y194573D01*
X200789D01*
X200762Y194568D01*
X200566Y194649D01*
X200127Y195036D01*
X200127Y195036D01*
X199299Y195672D01*
X198335Y196071D01*
X197300Y196207D01*
Y196200D01*
X196764Y196093D01*
X196660Y196023D01*
X195500D01*
X195032Y195930D01*
X194837Y195800D01*
X193600D01*
Y195550D01*
X192150D01*
Y192200D01*
Y188850D01*
X193600D01*
Y188600D01*
X194837D01*
X195032Y188470D01*
X195500Y188376D01*
X196660D01*
X196764Y188307D01*
X197300Y188200D01*
Y188193D01*
X197300Y188193D01*
X198335Y188329D01*
X199299Y188728D01*
X200127Y189364D01*
X200122Y189369D01*
X200549Y189796D01*
X200624Y189827D01*
X221546D01*
Y189812D01*
X222823Y189980D01*
X224013Y190473D01*
X225035Y191257D01*
X225819Y192279D01*
X226211Y193225D01*
X226811Y193106D01*
Y188490D01*
X226796D01*
X226964Y187213D01*
X227457Y186023D01*
X228241Y185001D01*
X229263Y184217D01*
X230453Y183724D01*
X231730Y183556D01*
X233007Y183724D01*
X234197Y184217D01*
X235219Y185001D01*
X236003Y186023D01*
X236496Y187213D01*
X236664Y188490D01*
X236649D01*
Y189654D01*
X236660D01*
X236707Y189769D01*
X236822Y189816D01*
Y189827D01*
X275624D01*
X275626Y189825D01*
X275628Y189824D01*
X275628Y189819D01*
X275634Y189819D01*
X275634Y189819D01*
X275698Y189823D01*
X276105Y189846D01*
X276106Y189846D01*
X276107Y189846D01*
X276134Y189850D01*
X276209Y189859D01*
X276214Y189860D01*
X276214Y189860D01*
X276214Y189861D01*
X276252Y189871D01*
X276795Y189933D01*
X277059Y189959D01*
X278430Y190375D01*
X279693Y191050D01*
X280357Y191595D01*
X280800Y191959D01*
X280806Y191965D01*
X281224Y192395D01*
X321111Y232281D01*
X321544Y232697D01*
X321544Y232697D01*
X321915Y233148D01*
X322570Y233946D01*
X323331Y235371D01*
X323800Y236917D01*
X323959Y238526D01*
X323946Y238526D01*
Y244878D01*
X324031D01*
Y246468D01*
X325031D01*
Y244878D01*
X326000D01*
Y246468D01*
X327000D01*
Y244878D01*
X327969D01*
Y246468D01*
X328969D01*
Y244878D01*
X329937D01*
Y246468D01*
X330937D01*
Y244878D01*
X331906D01*
Y246468D01*
X332906D01*
Y244878D01*
X333049D01*
Y240081D01*
X332760D01*
Y235502D01*
X332934D01*
Y231683D01*
X332791D01*
Y227727D01*
X332934D01*
Y226731D01*
X333074Y226028D01*
X333471Y225433D01*
X334702Y224202D01*
X335298Y223804D01*
X336000Y223665D01*
X344164D01*
X344866Y223804D01*
X345462Y224202D01*
X346210Y224950D01*
X346408D01*
X346632Y225043D01*
X349522D01*
Y224778D01*
X353478D01*
Y228734D01*
X349522D01*
Y228713D01*
X347835D01*
Y231829D01*
X348435Y232092D01*
X348586Y231954D01*
X348867Y231954D01*
X350673D01*
Y234643D01*
Y237333D01*
X348867D01*
X348586Y237333D01*
X348080Y237562D01*
Y240752D01*
X348226D01*
Y244708D01*
X344270D01*
Y244419D01*
X343670Y244204D01*
X340180Y247694D01*
X339751Y247981D01*
X339243Y248082D01*
X338622D01*
Y248626D01*
X337032D01*
Y249626D01*
X338622D01*
Y250665D01*
X339222Y251153D01*
X339500Y251098D01*
X477206Y251098D01*
X477423Y250575D01*
X481300D01*
Y249500D01*
X497500D01*
Y250575D01*
X501500D01*
Y237000D01*
Y157000D01*
Y155772D01*
X501259Y153327D01*
X500780Y150918D01*
X500067Y148568D01*
X499127Y146298D01*
X497969Y144132D01*
X496604Y142090D01*
X495046Y140191D01*
X493309Y138454D01*
X491410Y136896D01*
X489368Y135531D01*
X487202Y134373D01*
X484932Y133433D01*
X482582Y132720D01*
X480173Y132241D01*
X477728Y132000D01*
X175272D01*
X172827Y132241D01*
X170418Y132720D01*
X168068Y133433D01*
X165798Y134373D01*
X163632Y135531D01*
X161590Y136896D01*
X159691Y138454D01*
X157954Y140191D01*
X156396Y142090D01*
X155031Y144132D01*
X153873Y146298D01*
X152933Y148568D01*
X152220Y150918D01*
X151741Y153327D01*
X151500Y155772D01*
Y157000D01*
Y186474D01*
D01*
Y189775D01*
X155500D01*
Y188700D01*
X171700D01*
Y189775D01*
X175666D01*
X175857Y190235D01*
X179205D01*
X179453Y189635D01*
X179093Y189275D01*
X178772Y188500D01*
X183228D01*
X182907Y189275D01*
X182547Y189635D01*
X182795Y190235D01*
X183800D01*
X184552Y190385D01*
X184900Y190617D01*
X185486Y190304D01*
X185500Y190275D01*
Y190100D01*
X187800D01*
Y189600D01*
X188300D01*
Y188200D01*
X190100D01*
Y188850D01*
X191150D01*
Y192200D01*
Y195550D01*
X190100D01*
Y196200D01*
X188300D01*
Y194800D01*
X187800D01*
Y194300D01*
X185500D01*
Y194125D01*
X185486Y194096D01*
X184900Y193783D01*
X184552Y194015D01*
X183800Y194165D01*
X182690D01*
X182447Y194765D01*
X182907Y195226D01*
X183228Y196000D01*
X178772D01*
X179093Y195226D01*
X179553Y194765D01*
X179310Y194165D01*
X175857D01*
X175666Y194625D01*
X171700D01*
Y195700D01*
X155500D01*
Y194625D01*
X151500D01*
Y197926D01*
Y197926D01*
Y229474D01*
D01*
Y232775D01*
X155500D01*
Y231700D01*
X171700D01*
Y232775D01*
X175666D01*
X175857Y233235D01*
X179205D01*
X179453Y232635D01*
X179093Y232275D01*
X178772Y231500D01*
X183228D01*
X182907Y232275D01*
X182547Y232635D01*
X182795Y233235D01*
X183800D01*
X184552Y233385D01*
X184900Y233617D01*
X185486Y233304D01*
X185500Y233275D01*
Y233100D01*
X187800D01*
Y232600D01*
X188300D01*
Y231200D01*
X190100D01*
Y231850D01*
X191150D01*
Y235200D01*
Y238550D01*
X190100D01*
Y239200D01*
X188300D01*
Y237800D01*
X187800D01*
Y237300D01*
X185500D01*
Y237125D01*
X185486Y237096D01*
X184900Y236783D01*
X184552Y237015D01*
X183800Y237165D01*
X182690D01*
X182447Y237765D01*
X182907Y238226D01*
X183228Y239000D01*
X178772D01*
X179093Y238226D01*
X179553Y237765D01*
X179310Y237165D01*
X175857D01*
X175666Y237625D01*
X171700D01*
Y238700D01*
X155500D01*
Y237625D01*
X151500D01*
Y240926D01*
D01*
X151500Y272474D01*
X151500Y272474D01*
Y275775D01*
X155500D01*
Y274700D01*
X171700D01*
Y275775D01*
X175666D01*
X175857Y276235D01*
X179205D01*
X179453Y275635D01*
X179093Y275274D01*
X178772Y274500D01*
X183228D01*
X182907Y275274D01*
X182547Y275635D01*
X182795Y276235D01*
X183800D01*
X184552Y276385D01*
X184900Y276617D01*
X185486Y276304D01*
X185500Y276275D01*
Y276100D01*
X187800D01*
Y275600D01*
X188300D01*
Y274200D01*
X190100D01*
Y274850D01*
X191150D01*
Y278200D01*
Y281550D01*
X190100D01*
Y282200D01*
X188300D01*
Y280800D01*
X187800D01*
Y280300D01*
X185500D01*
Y280125D01*
X185486Y280096D01*
X184900Y279783D01*
X184552Y280015D01*
X183800Y280165D01*
X183131D01*
X182901Y280719D01*
X182907Y280726D01*
X183228Y281500D01*
X178772D01*
X179093Y280726D01*
X179099Y280719D01*
X178869Y280165D01*
X175857D01*
X175666Y280625D01*
X171700D01*
Y281700D01*
X155500D01*
Y280625D01*
X151500D01*
Y283926D01*
X151500D01*
Y315474D01*
X151500D01*
Y318775D01*
X155500D01*
Y317700D01*
X171700D01*
Y318775D01*
X175666D01*
X175857Y319235D01*
X179205D01*
X179453Y318635D01*
X179093Y318274D01*
X178772Y317500D01*
X183228D01*
X182907Y318274D01*
X182547Y318635D01*
X182795Y319235D01*
X183800D01*
X184552Y319385D01*
X184900Y319617D01*
X185486Y319304D01*
X185500Y319275D01*
Y319100D01*
X187800D01*
Y318600D01*
X188300D01*
Y317200D01*
X190100D01*
Y317850D01*
X191150D01*
Y321200D01*
Y324550D01*
X190100D01*
Y325200D01*
X188300D01*
Y323800D01*
X187800D01*
Y323300D01*
X185500D01*
Y323125D01*
X185486Y323096D01*
X184900Y322783D01*
X184552Y323015D01*
X183800Y323165D01*
X182690D01*
X182447Y323765D01*
X182907Y324225D01*
X183228Y325000D01*
X178772D01*
X179093Y324225D01*
X179553Y323765D01*
X179310Y323165D01*
X175857D01*
X175666Y323625D01*
X171700D01*
Y324700D01*
X155500D01*
Y323625D01*
X151500D01*
Y326926D01*
X151500D01*
Y357000D01*
Y358228D01*
X151741Y360673D01*
X152220Y363082D01*
X152933Y365432D01*
X153873Y367702D01*
X155031Y369868D01*
X156396Y371910D01*
X157954Y373809D01*
X159691Y375546D01*
X161590Y377104D01*
X163632Y378469D01*
X165798Y379627D01*
X168068Y380567D01*
X170418Y381280D01*
X172827Y381759D01*
X175272Y382000D01*
X176500Y382000D01*
X176500Y382000D01*
X477728D01*
X480173Y381759D01*
D02*
G37*
G36*
X184693Y321922D02*
X184824Y321854D01*
X184990Y321795D01*
X185189Y321743D01*
X185423Y321699D01*
X185994Y321636D01*
X186702Y321604D01*
X187108Y321600D01*
Y320800D01*
X186702Y320796D01*
X185423Y320701D01*
X185189Y320657D01*
X184990Y320605D01*
X184824Y320546D01*
X184693Y320478D01*
X184596Y320403D01*
Y321997D01*
X184693Y321922D01*
D02*
G37*
G36*
X156510Y322559D02*
X156578Y322510D01*
X156691Y322467D01*
X156849Y322430D01*
X157052Y322398D01*
X157592Y322353D01*
X158314Y322330D01*
X158742Y322327D01*
Y320073D01*
X158314Y320070D01*
X156849Y319970D01*
X156691Y319933D01*
X156578Y319890D01*
X156510Y319841D01*
X156488Y319787D01*
Y322613D01*
X156510Y322559D01*
D02*
G37*
G36*
X381635Y299254D02*
X382254Y298635D01*
X383062Y298300D01*
X383938D01*
X383960Y298309D01*
X392492Y289778D01*
X392262Y289224D01*
X388875D01*
X388865Y289246D01*
X388246Y289865D01*
X387438Y290200D01*
X386562D01*
X386540Y290191D01*
X380550Y296180D01*
Y296908D01*
X380238Y297661D01*
X379661Y298238D01*
X378908Y298550D01*
X378092D01*
X377339Y298238D01*
X376762Y297661D01*
X376450Y296908D01*
Y296092D01*
X376762Y295339D01*
X377339Y294762D01*
X378092Y294450D01*
X378820D01*
X384809Y288460D01*
X384800Y288438D01*
Y287562D01*
X385135Y286754D01*
X385754Y286135D01*
X386562Y285800D01*
X387438D01*
X388246Y286135D01*
X388865Y286754D01*
X388875Y286776D01*
X393756D01*
X393875Y286176D01*
X393226Y285908D01*
X392593Y285275D01*
X392272Y284500D01*
X396728D01*
X396408Y285275D01*
X395775Y285908D01*
X395125Y286176D01*
X395244Y286776D01*
X401945D01*
X402175Y286222D01*
X391090Y275137D01*
X390938Y275200D01*
X390062D01*
X389254Y274865D01*
X388635Y274246D01*
X388300Y273438D01*
Y272562D01*
X388363Y272410D01*
X384419Y268467D01*
X338190D01*
X338100Y268600D01*
X337836Y268777D01*
X337524Y268839D01*
X335850D01*
X335597Y269047D01*
Y272367D01*
X338507Y275276D01*
X345746D01*
X345994Y274676D01*
X345592Y274274D01*
X345272Y273500D01*
X349728D01*
X349408Y274274D01*
X349006Y274676D01*
X349254Y275276D01*
X351586D01*
X352728Y274135D01*
X353124Y273870D01*
X353593Y273777D01*
X358500D01*
X358968Y273870D01*
X359365Y274135D01*
X364764Y279534D01*
X364787Y279524D01*
X365662D01*
X366471Y279859D01*
X367090Y280478D01*
X367424Y281287D01*
Y282162D01*
X367090Y282971D01*
X366471Y283590D01*
X366448Y283599D01*
Y291166D01*
X366628Y291286D01*
X366818Y291571D01*
X366885Y291906D01*
Y295204D01*
X366818Y295540D01*
X366628Y295824D01*
X366343Y296015D01*
X366007Y296081D01*
X364442D01*
X364106Y296015D01*
X363821Y295824D01*
X363478D01*
X363193Y296015D01*
X362857Y296081D01*
X361292D01*
X360956Y296015D01*
X360710Y295850D01*
X360506Y295918D01*
X360149Y296122D01*
Y296414D01*
X360056Y296882D01*
X359790Y297279D01*
X359738Y297331D01*
X359735Y297395D01*
X359951Y297967D01*
X360044Y297985D01*
X360328Y298176D01*
X360672D01*
X360956Y297985D01*
X361292Y297919D01*
X362857D01*
X363193Y297985D01*
X363478Y298176D01*
X363821D01*
X364106Y297985D01*
X364442Y297919D01*
X366007D01*
X366343Y297985D01*
X366628Y298176D01*
X366818Y298460D01*
X366885Y298796D01*
Y299276D01*
X381626D01*
X381635Y299254D01*
D02*
G37*
G36*
X184693Y278922D02*
X184824Y278854D01*
X184990Y278795D01*
X185189Y278743D01*
X185423Y278699D01*
X185994Y278636D01*
X186702Y278604D01*
X187108Y278600D01*
Y277800D01*
X186702Y277796D01*
X185423Y277701D01*
X185189Y277657D01*
X184990Y277605D01*
X184824Y277546D01*
X184693Y277478D01*
X184596Y277403D01*
Y278997D01*
X184693Y278922D01*
D02*
G37*
G36*
X156510Y279559D02*
X156578Y279510D01*
X156691Y279467D01*
X156849Y279430D01*
X157052Y279398D01*
X157592Y279353D01*
X158314Y279330D01*
X158742Y279327D01*
Y277073D01*
X158314Y277070D01*
X156849Y276970D01*
X156691Y276933D01*
X156578Y276890D01*
X156510Y276841D01*
X156488Y276787D01*
Y279613D01*
X156510Y279559D01*
D02*
G37*
G36*
X337524Y266350D02*
X336539D01*
X335850Y267039D01*
Y268024D01*
X337524D01*
Y266350D01*
D02*
G37*
G36*
X317150Y267039D02*
X316461Y266350D01*
X315476D01*
Y268024D01*
X317150D01*
Y267039D01*
D02*
G37*
G36*
X338798Y252181D02*
X338715Y252236D01*
X338611Y252286D01*
X338486Y252330D01*
X338340Y252367D01*
X338174Y252400D01*
X337779Y252446D01*
X337550Y252461D01*
X337032Y252472D01*
Y253654D01*
X337301Y253656D01*
X337986Y253700D01*
X338174Y253726D01*
X338486Y253796D01*
X338611Y253840D01*
X338715Y253890D01*
X338798Y253945D01*
Y252181D01*
D02*
G37*
G36*
X496512Y251587D02*
X496489Y251653D01*
X496422Y251713D01*
X496309Y251765D01*
X496151Y251810D01*
X495949Y251849D01*
X495701Y251880D01*
X495069Y251922D01*
X494258Y251936D01*
Y254190D01*
X494686Y254192D01*
X496309Y254299D01*
X496422Y254333D01*
X496489Y254371D01*
X496512Y254413D01*
Y251587D01*
D02*
G37*
G36*
X337524Y245976D02*
X335850D01*
Y246961D01*
X336539Y247650D01*
X337524D01*
Y245976D01*
D02*
G37*
G36*
X317150Y246961D02*
Y245976D01*
X315476D01*
Y247650D01*
X316461D01*
X317150Y246961D01*
D02*
G37*
G36*
X342336Y241789D02*
X342766Y241502D01*
X343273Y241401D01*
X344270D01*
Y240752D01*
X344410D01*
Y236933D01*
X344057D01*
Y235473D01*
X343458Y235225D01*
X343274Y235407D01*
X342463Y235743D01*
Y237291D01*
X339876D01*
Y237791D01*
X339376D01*
Y240481D01*
X337288D01*
X337136Y240081D01*
X335700D01*
Y245037D01*
X335850Y245161D01*
X337524D01*
X337836Y245223D01*
X338100Y245400D01*
X338122Y245431D01*
X338694D01*
X342336Y241789D01*
D02*
G37*
G36*
X184693Y235922D02*
X184824Y235854D01*
X184990Y235795D01*
X185189Y235743D01*
X185423Y235699D01*
X185994Y235636D01*
X186702Y235604D01*
X187108Y235600D01*
Y234800D01*
X186702Y234796D01*
X185423Y234701D01*
X185189Y234657D01*
X184990Y234605D01*
X184824Y234546D01*
X184693Y234478D01*
X184596Y234403D01*
Y235997D01*
X184693Y235922D01*
D02*
G37*
G36*
X156510Y236559D02*
X156578Y236510D01*
X156691Y236467D01*
X156849Y236430D01*
X157052Y236399D01*
X157592Y236353D01*
X158314Y236330D01*
X158742Y236327D01*
Y234073D01*
X158314Y234070D01*
X156849Y233970D01*
X156691Y233933D01*
X156578Y233890D01*
X156510Y233841D01*
X156488Y233787D01*
Y236613D01*
X156510Y236559D01*
D02*
G37*
G36*
X184693Y192922D02*
X184824Y192854D01*
X184990Y192795D01*
X185189Y192743D01*
X185423Y192699D01*
X185994Y192636D01*
X186702Y192604D01*
X187108Y192600D01*
Y191800D01*
X186702Y191796D01*
X185423Y191701D01*
X185189Y191657D01*
X184990Y191605D01*
X184824Y191546D01*
X184693Y191478D01*
X184596Y191403D01*
Y192997D01*
X184693Y192922D01*
D02*
G37*
G36*
X156510Y193559D02*
X156578Y193510D01*
X156691Y193467D01*
X156849Y193430D01*
X157052Y193398D01*
X157592Y193353D01*
X158314Y193330D01*
X158742Y193327D01*
Y191073D01*
X158314Y191070D01*
X156849Y190970D01*
X156691Y190933D01*
X156578Y190890D01*
X156510Y190841D01*
X156488Y190787D01*
Y193613D01*
X156510Y193559D01*
D02*
G37*
%LPC*%
G36*
X322046Y361150D02*
X322000D01*
Y357500D01*
X325650D01*
Y357546D01*
X325367Y358602D01*
X324820Y359548D01*
X324048Y360320D01*
X323102Y360867D01*
X322046Y361150D01*
D02*
G37*
G36*
X477490Y367055D02*
X477000D01*
Y357500D01*
X486555D01*
Y357990D01*
X486169Y359933D01*
X485411Y361763D01*
X484310Y363410D01*
X482910Y364810D01*
X481263Y365911D01*
X479433Y366669D01*
X477490Y367055D01*
D02*
G37*
G36*
X476000D02*
X475510D01*
X473567Y366669D01*
X471737Y365911D01*
X470090Y364810D01*
X468690Y363410D01*
X467589Y361763D01*
X466831Y359933D01*
X466445Y357990D01*
Y357500D01*
X476000D01*
Y367055D01*
D02*
G37*
G36*
X177490D02*
X177000D01*
Y357500D01*
X186555D01*
Y357990D01*
X186169Y359933D01*
X185411Y361763D01*
X184310Y363410D01*
X182910Y364810D01*
X181263Y365911D01*
X179433Y366669D01*
X177490Y367055D01*
D02*
G37*
G36*
X176000D02*
X175510D01*
X173567Y366669D01*
X171737Y365911D01*
X170090Y364810D01*
X168690Y363410D01*
X167589Y361763D01*
X166831Y359933D01*
X166445Y357990D01*
Y357500D01*
X176000D01*
Y367055D01*
D02*
G37*
G36*
X321000Y361150D02*
X320954D01*
X319898Y360867D01*
X318952Y360320D01*
X318179Y359548D01*
X317633Y358602D01*
X317350Y357546D01*
Y357500D01*
X321000D01*
Y361150D01*
D02*
G37*
G36*
X352020Y360950D02*
X350980D01*
X349975Y360680D01*
X349075Y360160D01*
X348340Y359425D01*
X347820Y358524D01*
X347550Y357520D01*
Y356480D01*
X347820Y355475D01*
X348340Y354575D01*
X349075Y353839D01*
X349975Y353320D01*
X350980Y353050D01*
X352020D01*
X353025Y353320D01*
X353925Y353839D01*
X354661Y354575D01*
X355180Y355475D01*
X355450Y356480D01*
Y357520D01*
X355180Y358524D01*
X354661Y359425D01*
X353925Y360160D01*
X353025Y360680D01*
X352020Y360950D01*
D02*
G37*
G36*
X332020D02*
X330980D01*
X329976Y360680D01*
X329075Y360160D01*
X328340Y359425D01*
X327820Y358524D01*
X327550Y357520D01*
Y356480D01*
X327820Y355475D01*
X328340Y354575D01*
X329075Y353839D01*
X329976Y353320D01*
X330980Y353050D01*
X332020D01*
X333025Y353320D01*
X333925Y353839D01*
X334661Y354575D01*
X335180Y355475D01*
X335450Y356480D01*
Y357520D01*
X335180Y358524D01*
X334661Y359425D01*
X333925Y360160D01*
X333025Y360680D01*
X332020Y360950D01*
D02*
G37*
G36*
X325650Y356500D02*
X322000D01*
Y352850D01*
X322046D01*
X323102Y353133D01*
X324048Y353679D01*
X324820Y354452D01*
X325367Y355398D01*
X325650Y356454D01*
Y356500D01*
D02*
G37*
G36*
X321000D02*
X317350D01*
Y356454D01*
X317633Y355398D01*
X318179Y354452D01*
X318952Y353679D01*
X319898Y353133D01*
X320954Y352850D01*
X321000D01*
Y356500D01*
D02*
G37*
G36*
X355500Y352228D02*
Y350500D01*
X357228D01*
X356908Y351274D01*
X356275Y351907D01*
X355500Y352228D01*
D02*
G37*
G36*
X354500D02*
X353726Y351907D01*
X353093Y351274D01*
X352772Y350500D01*
X354500D01*
Y352228D01*
D02*
G37*
G36*
X332000Y351728D02*
Y350000D01*
X333728D01*
X333407Y350775D01*
X332774Y351408D01*
X332000Y351728D01*
D02*
G37*
G36*
X331000D02*
X330225Y351408D01*
X329592Y350775D01*
X329272Y350000D01*
X331000D01*
Y351728D01*
D02*
G37*
G36*
X377000Y349728D02*
Y348000D01*
X378728D01*
X378408Y348775D01*
X377775Y349408D01*
X377000Y349728D01*
D02*
G37*
G36*
X376000D02*
X375225Y349408D01*
X374592Y348775D01*
X374272Y348000D01*
X376000D01*
Y349728D01*
D02*
G37*
G36*
X357228Y349500D02*
X355500D01*
Y347772D01*
X356275Y348093D01*
X356908Y348726D01*
X357228Y349500D01*
D02*
G37*
G36*
X354500D02*
X352772D01*
X353093Y348726D01*
X353726Y348093D01*
X354500Y347772D01*
Y349500D01*
D02*
G37*
G36*
X331000Y349000D02*
X329272D01*
X329592Y348225D01*
X330225Y347592D01*
X331000Y347272D01*
Y349000D01*
D02*
G37*
G36*
X486555Y356500D02*
X477000D01*
Y346945D01*
X477490D01*
X479433Y347331D01*
X481263Y348089D01*
X482910Y349190D01*
X484310Y350590D01*
X485411Y352237D01*
X486169Y354067D01*
X486555Y356010D01*
Y356500D01*
D02*
G37*
G36*
X476000D02*
X466445D01*
Y356010D01*
X466831Y354067D01*
X467589Y352237D01*
X468690Y350590D01*
X470090Y349190D01*
X471737Y348089D01*
X473567Y347331D01*
X475510Y346945D01*
X476000D01*
Y356500D01*
D02*
G37*
G36*
X186555D02*
X177000D01*
Y346945D01*
X177490D01*
X179433Y347331D01*
X181263Y348089D01*
X182910Y349190D01*
X184310Y350590D01*
X185411Y352237D01*
X186169Y354067D01*
X186555Y356010D01*
Y356500D01*
D02*
G37*
G36*
X176000D02*
X166445D01*
Y356010D01*
X166831Y354067D01*
X167589Y352237D01*
X168690Y350590D01*
X170090Y349190D01*
X171737Y348089D01*
X173567Y347331D01*
X175510Y346945D01*
X176000D01*
Y356500D01*
D02*
G37*
G36*
X336622Y347878D02*
Y346000D01*
X338500D01*
Y347878D01*
X336622D01*
D02*
G37*
G36*
X333728Y349000D02*
X332000D01*
Y347272D01*
X332774Y347592D01*
X333204Y348022D01*
X333744Y347714D01*
X333744Y347336D01*
X333744Y347336D01*
X333744Y347327D01*
Y346000D01*
X335622D01*
Y347878D01*
X334318D01*
X333863Y347878D01*
X333815Y347915D01*
X333464Y348362D01*
X333532Y348525D01*
X333728Y349000D01*
D02*
G37*
G36*
X378728Y347000D02*
X377000D01*
Y345272D01*
X377775Y345592D01*
X378408Y346226D01*
X378728Y347000D01*
D02*
G37*
G36*
X376000D02*
X374272D01*
X374592Y346226D01*
X375225Y345592D01*
X376000Y345272D01*
Y347000D01*
D02*
G37*
G36*
X347000Y346228D02*
Y344500D01*
X348728D01*
X348408Y345274D01*
X347775Y345907D01*
X347000Y346228D01*
D02*
G37*
G36*
X346000D02*
X345226Y345907D01*
X344592Y345274D01*
X344272Y344500D01*
X346000D01*
Y346228D01*
D02*
G37*
G36*
X365772Y345728D02*
Y344000D01*
X367500D01*
X367179Y344775D01*
X366546Y345408D01*
X365772Y345728D01*
D02*
G37*
G36*
X364772D02*
X363997Y345408D01*
X363364Y344775D01*
X363043Y344000D01*
X364772D01*
Y345728D01*
D02*
G37*
G36*
X335622Y345000D02*
X333744D01*
Y343786D01*
X333144Y343538D01*
X332774Y343907D01*
X332000Y344228D01*
Y342500D01*
X333728D01*
X333714Y342534D01*
X334120Y343122D01*
X335622D01*
Y345000D01*
D02*
G37*
G36*
X338500D02*
X336622D01*
Y343122D01*
X338500D01*
Y345000D01*
D02*
G37*
G36*
X331000Y344228D02*
X330225Y343907D01*
X329592Y343274D01*
X329272Y342500D01*
X331000D01*
Y344228D01*
D02*
G37*
G36*
X385500Y343728D02*
X384725Y343408D01*
X384092Y342775D01*
X383772Y342000D01*
X385500D01*
Y343728D01*
D02*
G37*
G36*
X348728Y343500D02*
X347000D01*
Y341772D01*
X347775Y342092D01*
X348408Y342725D01*
X348728Y343500D01*
D02*
G37*
G36*
X346000D02*
X344272D01*
X344592Y342725D01*
X345226Y342092D01*
X346000Y341772D01*
Y343500D01*
D02*
G37*
G36*
X367500Y343000D02*
X365772D01*
Y341272D01*
X366546Y341593D01*
X367179Y342226D01*
X367500Y343000D01*
D02*
G37*
G36*
X364772D02*
X363043D01*
X363364Y342226D01*
X363997Y341593D01*
X364772Y341272D01*
Y343000D01*
D02*
G37*
G36*
X433075Y360996D02*
X429925D01*
X428999Y360812D01*
X428213Y360287D01*
X427688Y359501D01*
X427504Y358575D01*
Y355425D01*
X427688Y354499D01*
X428213Y353713D01*
X428999Y353188D01*
X429925Y353004D01*
X430276D01*
Y351507D01*
X419215Y340445D01*
X418660Y340675D01*
Y343430D01*
X422365Y347135D01*
X422630Y347532D01*
X422723Y348000D01*
Y353239D01*
X423025Y353320D01*
X423925Y353839D01*
X424660Y354575D01*
X425180Y355475D01*
X425450Y356480D01*
Y357520D01*
X425180Y358524D01*
X424660Y359425D01*
X423925Y360160D01*
X423025Y360680D01*
X422020Y360950D01*
X420980D01*
X419976Y360680D01*
X419075Y360160D01*
X418339Y359425D01*
X417820Y358524D01*
X417550Y357520D01*
Y356480D01*
X417820Y355475D01*
X418339Y354575D01*
X419075Y353839D01*
X419976Y353320D01*
X420276Y353239D01*
Y348507D01*
X417165Y345395D01*
X416326Y345405D01*
X412723Y349007D01*
Y353239D01*
X413025Y353320D01*
X413925Y353839D01*
X414661Y354575D01*
X415180Y355475D01*
X415450Y356480D01*
Y357520D01*
X415180Y358524D01*
X414661Y359425D01*
X413925Y360160D01*
X413025Y360680D01*
X412020Y360950D01*
X410980D01*
X409975Y360680D01*
X409075Y360160D01*
X408340Y359425D01*
X407820Y358524D01*
X407550Y357520D01*
Y356480D01*
X407820Y355475D01*
X408340Y354575D01*
X409075Y353839D01*
X409975Y353320D01*
X410277Y353239D01*
Y348500D01*
X410370Y348032D01*
X410635Y347635D01*
X414639Y343631D01*
Y339376D01*
X414084Y339146D01*
X402724Y350507D01*
Y353239D01*
X403024Y353320D01*
X403925Y353839D01*
X404661Y354575D01*
X405180Y355475D01*
X405450Y356480D01*
Y357520D01*
X405180Y358524D01*
X404661Y359425D01*
X403925Y360160D01*
X403024Y360680D01*
X402020Y360950D01*
X400980D01*
X399975Y360680D01*
X399075Y360160D01*
X398340Y359425D01*
X397820Y358524D01*
X397550Y357520D01*
Y356480D01*
X397820Y355475D01*
X398340Y354575D01*
X399075Y353839D01*
X399975Y353320D01*
X400277Y353239D01*
Y350000D01*
X400370Y349532D01*
X400635Y349135D01*
X413064Y336706D01*
Y332450D01*
X412510Y332221D01*
X392723Y352007D01*
Y353239D01*
X393024Y353320D01*
X393925Y353839D01*
X394660Y354575D01*
X395180Y355475D01*
X395450Y356480D01*
Y357520D01*
X395180Y358524D01*
X394660Y359425D01*
X393925Y360160D01*
X393024Y360680D01*
X392020Y360950D01*
X390980D01*
X389976Y360680D01*
X389075Y360160D01*
X388339Y359425D01*
X387820Y358524D01*
X387550Y357520D01*
Y356480D01*
X387820Y355475D01*
X388339Y354575D01*
X389075Y353839D01*
X389976Y353320D01*
X390277Y353239D01*
Y351500D01*
X390370Y351032D01*
X390635Y350635D01*
X408946Y332324D01*
X408698Y331723D01*
X403007D01*
X382723Y352007D01*
Y353239D01*
X383025Y353320D01*
X383925Y353839D01*
X384661Y354575D01*
X385180Y355475D01*
X385450Y356480D01*
Y357520D01*
X385180Y358524D01*
X384661Y359425D01*
X383925Y360160D01*
X383025Y360680D01*
X382020Y360950D01*
X380980D01*
X379976Y360680D01*
X379075Y360160D01*
X378340Y359425D01*
X377820Y358524D01*
X377550Y357520D01*
Y356480D01*
X377820Y355475D01*
X378340Y354575D01*
X379075Y353839D01*
X379976Y353320D01*
X380276Y353239D01*
Y351500D01*
X380370Y351032D01*
X380635Y350635D01*
X387169Y344100D01*
X386829Y343592D01*
X386500Y343728D01*
Y342000D01*
X388228D01*
X388092Y342329D01*
X388600Y342669D01*
X401635Y329635D01*
X402032Y329370D01*
X402500Y329276D01*
X408493D01*
X409914Y327855D01*
Y326504D01*
X409209D01*
X408928Y326448D01*
X408776Y326346D01*
X408623Y326448D01*
X408343Y326504D01*
X407634D01*
X407624Y326502D01*
X407574Y326578D01*
X407204Y326825D01*
X406913Y326883D01*
Y325832D01*
X406902Y325772D01*
Y322799D01*
Y319827D01*
X406913Y319767D01*
Y318716D01*
X407204Y318774D01*
X407574Y319021D01*
X407624Y319096D01*
X407634Y319095D01*
X408343D01*
X408623Y319150D01*
X408776Y319252D01*
X408928Y319150D01*
X409209Y319095D01*
X409917D01*
X410197Y319150D01*
X410350Y319252D01*
X410503Y319150D01*
X410783Y319095D01*
X411492D01*
X411772Y319150D01*
X411925Y319252D01*
X412078Y319150D01*
X412358Y319095D01*
X413067D01*
X413347Y319150D01*
X413500Y319252D01*
X413653Y319150D01*
X413933Y319095D01*
X414642D01*
X414922Y319150D01*
X415075Y319252D01*
X415228Y319150D01*
X415508Y319095D01*
X416217D01*
X416497Y319150D01*
X416650Y319252D01*
X416803Y319150D01*
X417083Y319095D01*
X417791D01*
X418072Y319150D01*
X418224Y319252D01*
X418377Y319150D01*
X418657Y319095D01*
X419363D01*
Y318413D01*
X419456Y317945D01*
X419722Y317548D01*
X420799Y316471D01*
X421196Y316205D01*
X421664Y316112D01*
X427801D01*
Y315439D01*
X432199D01*
Y316092D01*
X435296D01*
X435754Y315635D01*
X436562Y315300D01*
X437438D01*
X438246Y315635D01*
X438865Y316254D01*
X439200Y317062D01*
Y317938D01*
X438865Y318746D01*
X438246Y319365D01*
X437438Y319700D01*
X436562D01*
X435754Y319365D01*
X435135Y318746D01*
X435134Y318743D01*
X432199D01*
Y319233D01*
X427801D01*
Y318559D01*
X422900D01*
X422796Y319150D01*
X423034Y319309D01*
X423192Y319547D01*
X423248Y319827D01*
Y322265D01*
X423292Y322331D01*
X423385Y322799D01*
Y327155D01*
X424520Y328290D01*
X425331D01*
Y327535D01*
X426215D01*
Y327221D01*
X426308Y326753D01*
X426573Y326356D01*
X427967Y324962D01*
X427801Y324561D01*
X427801D01*
Y320767D01*
X432199D01*
Y324561D01*
X431008D01*
Y324875D01*
X430915Y325343D01*
X430650Y325740D01*
X429160Y327229D01*
X429287Y327535D01*
X429287D01*
Y331491D01*
X428635D01*
Y334235D01*
X429142Y334743D01*
X429455Y335497D01*
Y336312D01*
X429142Y337066D01*
X428566Y337642D01*
X427812Y337954D01*
X426997D01*
X426243Y337642D01*
X425667Y337066D01*
X425354Y336312D01*
Y335497D01*
X425667Y334743D01*
X425984Y334426D01*
Y331491D01*
X425331D01*
Y330737D01*
X424013D01*
X423545Y330644D01*
X423148Y330379D01*
X421296Y328527D01*
X421031Y328130D01*
X420938Y327661D01*
Y326504D01*
X420235D01*
Y338005D01*
X432365Y350135D01*
X432630Y350532D01*
X432724Y351000D01*
Y353004D01*
X433075D01*
X434001Y353188D01*
X434787Y353713D01*
X435312Y354499D01*
X435496Y355425D01*
Y358575D01*
X435312Y359501D01*
X434787Y360287D01*
X434001Y360812D01*
X433075Y360996D01*
D02*
G37*
G36*
X382592Y342213D02*
X380714D01*
Y340335D01*
X382592D01*
Y342213D01*
D02*
G37*
G36*
X379714D02*
X377836D01*
Y340335D01*
X379714D01*
Y342213D01*
D02*
G37*
G36*
X362692Y342068D02*
X360814D01*
Y340190D01*
X362692D01*
Y342068D01*
D02*
G37*
G36*
X359814D02*
X357936D01*
Y340190D01*
X359814D01*
Y342068D01*
D02*
G37*
G36*
X331000Y341500D02*
X329272D01*
X329592Y340725D01*
X330225Y340092D01*
X331000Y339772D01*
Y341500D01*
D02*
G37*
G36*
X388228Y341000D02*
X386500D01*
Y339272D01*
X387275Y339593D01*
X387908Y340226D01*
X388228Y341000D01*
D02*
G37*
G36*
X385500D02*
X383772D01*
X384092Y340226D01*
X384725Y339593D01*
X385500Y339272D01*
Y341000D01*
D02*
G37*
G36*
X336708Y340382D02*
Y338504D01*
X338586D01*
Y340382D01*
X336708D01*
D02*
G37*
G36*
X333728Y341500D02*
X332000D01*
Y339772D01*
X332774Y340092D01*
X333285Y340603D01*
X333348Y340582D01*
X333570Y340496D01*
X333809Y340315D01*
X333830Y339841D01*
X333830Y339797D01*
Y338504D01*
X335708D01*
Y340382D01*
X334424D01*
X334110Y340382D01*
X333778Y340459D01*
X333550Y340711D01*
X333556Y341084D01*
X333728Y341500D01*
D02*
G37*
G36*
X382592Y339335D02*
X380714D01*
Y337457D01*
X382592D01*
Y339335D01*
D02*
G37*
G36*
X379714D02*
X377836D01*
Y337457D01*
X379714D01*
Y339335D01*
D02*
G37*
G36*
X362692Y339190D02*
X360814D01*
Y337312D01*
X362692D01*
Y339190D01*
D02*
G37*
G36*
X359814D02*
X357936D01*
Y337312D01*
X359814D01*
Y339190D01*
D02*
G37*
G36*
X372020Y360950D02*
X370980D01*
X369975Y360680D01*
X369075Y360160D01*
X368339Y359425D01*
X367820Y358524D01*
X367550Y357520D01*
Y356480D01*
X367820Y355475D01*
X368339Y354575D01*
X369075Y353839D01*
X369975Y353320D01*
X370726Y353118D01*
Y336589D01*
X369613D01*
Y336989D01*
X368563D01*
Y334500D01*
Y332011D01*
X369613D01*
Y332411D01*
X375118D01*
Y332997D01*
X378236D01*
Y332345D01*
X378781D01*
Y331680D01*
X378369Y331268D01*
X378057Y330515D01*
Y329699D01*
X378369Y328946D01*
X378946Y328369D01*
X379699Y328057D01*
X380515D01*
X381268Y328369D01*
X381845Y328946D01*
X382157Y329699D01*
Y330515D01*
X381845Y331268D01*
X381432Y331680D01*
Y332345D01*
X382192D01*
Y336301D01*
X378236D01*
Y335648D01*
X375118D01*
Y336589D01*
X373173D01*
Y353406D01*
X373925Y353839D01*
X374660Y354575D01*
X375180Y355475D01*
X375450Y356480D01*
Y357520D01*
X375180Y358524D01*
X374660Y359425D01*
X373925Y360160D01*
X373025Y360680D01*
X372020Y360950D01*
D02*
G37*
G36*
X338586Y337504D02*
X336708D01*
Y335626D01*
X338586D01*
Y337504D01*
D02*
G37*
G36*
X335708D02*
X333830D01*
Y335626D01*
X335708D01*
Y337504D01*
D02*
G37*
G36*
X367563Y336989D02*
X366513D01*
Y335000D01*
X367563D01*
Y336989D01*
D02*
G37*
G36*
X347663D02*
X346613D01*
Y335000D01*
X347663D01*
Y336989D01*
D02*
G37*
G36*
X437500Y336228D02*
Y334500D01*
X439228D01*
X438907Y335275D01*
X438274Y335908D01*
X437500Y336228D01*
D02*
G37*
G36*
X436500D02*
X435725Y335908D01*
X435092Y335275D01*
X434772Y334500D01*
X436500D01*
Y336228D01*
D02*
G37*
G36*
X335000Y334728D02*
Y333000D01*
X336728D01*
X336407Y333774D01*
X335774Y334407D01*
X335000Y334728D01*
D02*
G37*
G36*
X334000D02*
X333225Y334407D01*
X332593Y333774D01*
X332272Y333000D01*
X334000D01*
Y334728D01*
D02*
G37*
G36*
X367563Y334000D02*
X366513D01*
Y332011D01*
X367563D01*
Y334000D01*
D02*
G37*
G36*
X347663D02*
X346613D01*
Y332011D01*
X347663D01*
Y334000D01*
D02*
G37*
G36*
X439228Y333500D02*
X437500D01*
Y331772D01*
X438274Y332092D01*
X438907Y332726D01*
X439228Y333500D01*
D02*
G37*
G36*
X436500D02*
X434772D01*
X435092Y332726D01*
X435417Y332401D01*
X435078Y331891D01*
X434649Y331891D01*
X433321D01*
Y330013D01*
X435199D01*
Y331305D01*
X435199Y331771D01*
X435674Y332087D01*
X435725Y332092D01*
X435888Y332025D01*
X436500Y331772D01*
Y333500D01*
D02*
G37*
G36*
X474575Y333075D02*
X472500D01*
Y331000D01*
X474575D01*
Y333075D01*
D02*
G37*
G36*
X471500D02*
X469425D01*
Y331000D01*
X471500D01*
Y333075D01*
D02*
G37*
G36*
X466000Y332728D02*
Y331000D01*
X467728D01*
X467408Y331774D01*
X466775Y332407D01*
X466000Y332728D01*
D02*
G37*
G36*
X465000D02*
X464225Y332407D01*
X463592Y331774D01*
X463272Y331000D01*
X465000D01*
Y332728D01*
D02*
G37*
G36*
X188000D02*
Y331000D01*
X189728D01*
X189408Y331774D01*
X188775Y332407D01*
X188000Y332728D01*
D02*
G37*
G36*
X187000D02*
X186225Y332407D01*
X185592Y331774D01*
X185272Y331000D01*
X187000D01*
Y332728D01*
D02*
G37*
G36*
X342020Y360950D02*
X340980D01*
X339976Y360680D01*
X339075Y360160D01*
X338339Y359425D01*
X337820Y358524D01*
X337550Y357520D01*
Y356480D01*
X337820Y355475D01*
X338339Y354575D01*
X339075Y353839D01*
X339732Y353460D01*
Y347478D01*
X339656D01*
Y343522D01*
X339841D01*
Y339982D01*
X339741D01*
Y336026D01*
X339884D01*
Y333551D01*
X339669Y333032D01*
Y332217D01*
X339982Y331464D01*
X340558Y330887D01*
X341312Y330575D01*
X342127D01*
X342881Y330887D01*
X343457Y331464D01*
X343770Y332217D01*
Y333032D01*
X343555Y333551D01*
Y336026D01*
X343697D01*
Y339982D01*
X343512D01*
Y343522D01*
X343612D01*
Y347478D01*
X343402D01*
Y353538D01*
X343925Y353839D01*
X344660Y354575D01*
X345180Y355475D01*
X345450Y356480D01*
Y357520D01*
X345180Y358524D01*
X344660Y359425D01*
X343925Y360160D01*
X343024Y360680D01*
X342020Y360950D01*
D02*
G37*
G36*
X336728Y332000D02*
X335000D01*
Y330272D01*
X335774Y330592D01*
X336407Y331225D01*
X336728Y332000D01*
D02*
G37*
G36*
X334000D02*
X332272D01*
X332593Y331225D01*
X333225Y330592D01*
X334000Y330272D01*
Y332000D01*
D02*
G37*
G36*
X432321Y331891D02*
X430443D01*
Y330013D01*
X432321D01*
Y331891D01*
D02*
G37*
G36*
X399000Y330728D02*
Y329000D01*
X400728D01*
X400408Y329774D01*
X399775Y330408D01*
X399000Y330728D01*
D02*
G37*
G36*
X398000D02*
X397225Y330408D01*
X396592Y329774D01*
X396272Y329000D01*
X398000D01*
Y330728D01*
D02*
G37*
G36*
X348500Y330228D02*
Y328500D01*
X350228D01*
X349907Y329275D01*
X349274Y329907D01*
X348500Y330228D01*
D02*
G37*
G36*
X347500D02*
X346726Y329907D01*
X346093Y329275D01*
X345772Y328500D01*
X347500D01*
Y330228D01*
D02*
G37*
G36*
X467728Y330000D02*
X466000D01*
Y328272D01*
X466775Y328592D01*
X467408Y329225D01*
X467728Y330000D01*
D02*
G37*
G36*
X465000D02*
X463272D01*
X463592Y329225D01*
X464225Y328592D01*
X465000Y328272D01*
Y330000D01*
D02*
G37*
G36*
X189728D02*
X188000D01*
Y328272D01*
X188775Y328592D01*
X189408Y329225D01*
X189728Y330000D01*
D02*
G37*
G36*
X187000D02*
X185272D01*
X185592Y329225D01*
X186225Y328592D01*
X187000Y328272D01*
Y330000D01*
D02*
G37*
G36*
X474575D02*
X472500D01*
Y327925D01*
X474575D01*
Y330000D01*
D02*
G37*
G36*
X471500D02*
X469425D01*
Y327925D01*
X471500D01*
Y330000D01*
D02*
G37*
G36*
X435199Y329013D02*
X433321D01*
Y327135D01*
X435199D01*
Y329013D01*
D02*
G37*
G36*
X432321D02*
X430443D01*
Y327135D01*
X432321D01*
Y329013D01*
D02*
G37*
G36*
X405913Y326883D02*
X405626Y326825D01*
X405339Y326883D01*
Y322799D01*
Y318716D01*
X405626Y318773D01*
X405913Y318716D01*
Y322799D01*
Y326883D01*
D02*
G37*
G36*
X400728Y328000D02*
X399000D01*
Y326272D01*
X399775Y326592D01*
X400408Y327225D01*
X400728Y328000D01*
D02*
G37*
G36*
X398000D02*
X396272D01*
X396592Y327225D01*
X397225Y326592D01*
X398000Y326272D01*
Y328000D01*
D02*
G37*
G36*
X181500Y327728D02*
Y326000D01*
X183228D01*
X182907Y326775D01*
X182274Y327408D01*
X181500Y327728D01*
D02*
G37*
G36*
X180500D02*
X179726Y327408D01*
X179093Y326775D01*
X178772Y326000D01*
X180500D01*
Y327728D01*
D02*
G37*
G36*
X175700Y326944D02*
Y325900D01*
X176276D01*
X175944Y326699D01*
X175700Y326944D01*
D02*
G37*
G36*
X350228Y327500D02*
X348500D01*
Y325772D01*
X349274Y326093D01*
X349907Y326726D01*
X350228Y327500D01*
D02*
G37*
G36*
X347500D02*
X345772D01*
X346093Y326726D01*
X346726Y326093D01*
X347500Y325772D01*
Y327500D01*
D02*
G37*
G36*
X437500Y326728D02*
Y325000D01*
X439228D01*
X438907Y325775D01*
X438274Y326408D01*
X437500Y326728D01*
D02*
G37*
G36*
X436500D02*
X435725Y326408D01*
X435092Y325775D01*
X434772Y325000D01*
X436500D01*
Y326728D01*
D02*
G37*
G36*
X187300Y325200D02*
X185500D01*
Y324300D01*
X187300D01*
Y325200D01*
D02*
G37*
G36*
X480080Y332675D02*
X475731D01*
Y328325D01*
X476580D01*
Y324714D01*
X476156Y324289D01*
X475320Y324289D01*
X475080Y324289D01*
X470947D01*
Y323325D01*
X470074D01*
X469661Y323738D01*
X468908Y324050D01*
X468092D01*
X467339Y323738D01*
X466762Y323161D01*
X466450Y322408D01*
Y321592D01*
X466762Y320839D01*
X467339Y320262D01*
X468092Y319950D01*
X468908D01*
X469661Y320262D01*
X470074Y320674D01*
X470947D01*
Y319711D01*
X475080D01*
X475680Y319711D01*
X475920Y319711D01*
X480053D01*
Y324289D01*
X479231D01*
Y328325D01*
X480080D01*
Y332675D01*
D02*
G37*
G36*
X176276Y324900D02*
X175700D01*
Y323856D01*
X175944Y324101D01*
X176276Y324900D01*
D02*
G37*
G36*
X404339Y326883D02*
X404048Y326825D01*
X403678Y326578D01*
X403431Y326208D01*
X403344Y325772D01*
Y323299D01*
X404339D01*
Y326883D01*
D02*
G37*
G36*
X334170Y324721D02*
X332374D01*
Y322622D01*
X334170D01*
Y324721D01*
D02*
G37*
G36*
X331374D02*
X329577D01*
Y322622D01*
X331374D01*
Y324721D01*
D02*
G37*
G36*
X439228Y324000D02*
X437500D01*
Y322272D01*
X438274Y322592D01*
X438907Y323225D01*
X439228Y324000D01*
D02*
G37*
G36*
X436500D02*
X434772D01*
X435092Y323225D01*
X435725Y322592D01*
X436500Y322272D01*
Y324000D01*
D02*
G37*
G36*
X399500Y321728D02*
Y320000D01*
X401228D01*
X400908Y320775D01*
X400275Y321408D01*
X399500Y321728D01*
D02*
G37*
G36*
X398500D02*
X397726Y321408D01*
X397093Y320775D01*
X396772Y320000D01*
X398500D01*
Y321728D01*
D02*
G37*
G36*
X334170Y321622D02*
X332374D01*
Y319523D01*
X334170D01*
Y321622D01*
D02*
G37*
G36*
X331374D02*
X329577D01*
Y319523D01*
X331374D01*
Y321622D01*
D02*
G37*
G36*
X404339Y322299D02*
X403344D01*
Y319827D01*
X403431Y319391D01*
X403678Y319021D01*
X404048Y318774D01*
X404339Y318716D01*
Y322299D01*
D02*
G37*
G36*
X175700Y318544D02*
Y317500D01*
X176276D01*
X175944Y318299D01*
X175700Y318544D01*
D02*
G37*
G36*
X401228Y319000D02*
X399500D01*
Y317272D01*
X400275Y317593D01*
X400908Y318226D01*
X401228Y319000D01*
D02*
G37*
G36*
X398500D02*
X396772D01*
X397093Y318226D01*
X397726Y317593D01*
X398500Y317272D01*
Y319000D01*
D02*
G37*
G36*
X187300Y318100D02*
X185500D01*
Y317200D01*
X187300D01*
Y318100D01*
D02*
G37*
G36*
X382878Y318866D02*
X381000D01*
Y316988D01*
X382878D01*
Y318866D01*
D02*
G37*
G36*
X380000D02*
X378122D01*
Y316988D01*
X380000D01*
Y318866D01*
D02*
G37*
G36*
X176276Y316500D02*
X175700D01*
Y315456D01*
X175944Y315701D01*
X176276Y316500D01*
D02*
G37*
G36*
X191500Y316728D02*
Y315000D01*
X193228D01*
X192908Y315774D01*
X192274Y316407D01*
X191500Y316728D01*
D02*
G37*
G36*
X190500D02*
X189725Y316407D01*
X189093Y315774D01*
X188772Y315000D01*
X190500D01*
Y316728D01*
D02*
G37*
G36*
X183228Y316500D02*
X181500D01*
Y314772D01*
X182274Y315092D01*
X182907Y315725D01*
X183228Y316500D01*
D02*
G37*
G36*
X180500D02*
X178772D01*
X179093Y315725D01*
X179726Y315092D01*
X180500Y314772D01*
Y316500D01*
D02*
G37*
G36*
X382878Y315988D02*
X381000D01*
Y314110D01*
X382878D01*
Y315988D01*
D02*
G37*
G36*
X380000D02*
X378122D01*
Y314110D01*
X380000D01*
Y315988D01*
D02*
G37*
G36*
X193228Y314000D02*
X191500D01*
Y312272D01*
X192274Y312593D01*
X192908Y313226D01*
X193228Y314000D01*
D02*
G37*
G36*
X190500D02*
X188772D01*
X189093Y313226D01*
X189725Y312593D01*
X190500Y312272D01*
Y314000D01*
D02*
G37*
G36*
X381000Y313228D02*
Y311500D01*
X382728D01*
X382407Y312275D01*
X381774Y312908D01*
X381000Y313228D01*
D02*
G37*
G36*
X380000D02*
X379225Y312908D01*
X378592Y312275D01*
X378272Y311500D01*
X380000D01*
Y313228D01*
D02*
G37*
G36*
X358378Y312122D02*
X356500D01*
Y310244D01*
X358378D01*
Y312122D01*
D02*
G37*
G36*
X355500D02*
X353622D01*
Y310244D01*
X355500D01*
Y312122D01*
D02*
G37*
G36*
X344500Y311728D02*
Y310000D01*
X346228D01*
X345907Y310774D01*
X345274Y311407D01*
X344500Y311728D01*
D02*
G37*
G36*
X343500D02*
X342725Y311407D01*
X342092Y310774D01*
X341772Y310000D01*
X343500D01*
Y311728D01*
D02*
G37*
G36*
X382728Y310500D02*
X381000D01*
Y308772D01*
X381774Y309092D01*
X382407Y309725D01*
X382728Y310500D01*
D02*
G37*
G36*
X380000D02*
X378272D01*
X378592Y309725D01*
X379225Y309092D01*
X380000Y308772D01*
Y310500D01*
D02*
G37*
G36*
X346228Y309000D02*
X344500D01*
Y307272D01*
X345274Y307593D01*
X345907Y308225D01*
X346228Y309000D01*
D02*
G37*
G36*
X343500D02*
X341772D01*
X342092Y308225D01*
X342725Y307593D01*
X343500Y307272D01*
Y309000D01*
D02*
G37*
G36*
X399500Y303228D02*
Y301500D01*
X401228D01*
X400908Y302274D01*
X400275Y302907D01*
X399500Y303228D01*
D02*
G37*
G36*
X398500D02*
X397726Y302907D01*
X397093Y302274D01*
X396772Y301500D01*
X398500D01*
Y303228D01*
D02*
G37*
G36*
X404339Y304284D02*
X404048Y304226D01*
X403678Y303979D01*
X403431Y303609D01*
X403344Y303173D01*
Y300701D01*
X404339D01*
Y304284D01*
D02*
G37*
G36*
X439000Y302228D02*
Y300500D01*
X440728D01*
X440408Y301274D01*
X439775Y301907D01*
X439000Y302228D01*
D02*
G37*
G36*
X438000D02*
X437225Y301907D01*
X436592Y301274D01*
X436272Y300500D01*
X438000D01*
Y302228D01*
D02*
G37*
G36*
X435634Y302378D02*
X433756D01*
Y300500D01*
X435634D01*
Y302378D01*
D02*
G37*
G36*
X432756D02*
X430878D01*
Y300500D01*
X432756D01*
Y302378D01*
D02*
G37*
G36*
X401228Y300500D02*
X399500D01*
Y298772D01*
X400275Y299093D01*
X400908Y299726D01*
X401228Y300500D01*
D02*
G37*
G36*
X398500D02*
X396772D01*
X397093Y299726D01*
X397726Y299093D01*
X398500Y298772D01*
Y300500D01*
D02*
G37*
G36*
X440728Y299500D02*
X439000D01*
Y297772D01*
X439775Y298093D01*
X440408Y298726D01*
X440728Y299500D01*
D02*
G37*
G36*
X438000D02*
X436272D01*
X436592Y298726D01*
X437225Y298093D01*
X438000Y297772D01*
Y299500D01*
D02*
G37*
G36*
X435634D02*
X433756D01*
Y297622D01*
X435634D01*
Y299500D01*
D02*
G37*
G36*
X432756D02*
X430878D01*
Y297622D01*
X432756D01*
Y299500D01*
D02*
G37*
G36*
X404339Y299701D02*
X403344D01*
Y297228D01*
X403431Y296792D01*
X403678Y296422D01*
X404048Y296175D01*
X404339Y296117D01*
Y299701D01*
D02*
G37*
G36*
X401500Y296728D02*
Y295000D01*
X403228D01*
X402908Y295775D01*
X402275Y296408D01*
X401500Y296728D01*
D02*
G37*
G36*
X400500D02*
X399726Y296408D01*
X399093Y295775D01*
X398772Y295000D01*
X400500D01*
Y296728D01*
D02*
G37*
G36*
X403228Y294000D02*
X401500D01*
Y292272D01*
X402275Y292593D01*
X402908Y293226D01*
X403228Y294000D01*
D02*
G37*
G36*
X400500D02*
X398772D01*
X399093Y293226D01*
X399726Y292593D01*
X400500Y292272D01*
Y294000D01*
D02*
G37*
G36*
X294500Y289228D02*
Y287500D01*
X296228D01*
X295907Y288275D01*
X295274Y288908D01*
X294500Y289228D01*
D02*
G37*
G36*
X293500D02*
X292725Y288908D01*
X292092Y288275D01*
X291772Y287500D01*
X293500D01*
Y289228D01*
D02*
G37*
G36*
X189000D02*
Y287500D01*
X190728D01*
X190408Y288275D01*
X189775Y288908D01*
X189000Y289228D01*
D02*
G37*
G36*
X188000D02*
X187225Y288908D01*
X186592Y288275D01*
X186272Y287500D01*
X188000D01*
Y289228D01*
D02*
G37*
G36*
X435625Y288599D02*
X433828D01*
Y286500D01*
X435625D01*
Y288599D01*
D02*
G37*
G36*
X432828D02*
X431032D01*
Y286500D01*
X432828D01*
Y288599D01*
D02*
G37*
G36*
X296228Y286500D02*
X294500D01*
Y284772D01*
X295274Y285092D01*
X295907Y285725D01*
X296228Y286500D01*
D02*
G37*
G36*
X293500D02*
X291772D01*
X292092Y285725D01*
X292725Y285092D01*
X293500Y284772D01*
Y286500D01*
D02*
G37*
G36*
X190728D02*
X189000D01*
Y284772D01*
X189775Y285092D01*
X190408Y285725D01*
X190728Y286500D01*
D02*
G37*
G36*
X188000D02*
X186272D01*
X186592Y285725D01*
X187225Y285092D01*
X188000Y284772D01*
Y286500D01*
D02*
G37*
G36*
X435625Y285500D02*
X433828D01*
Y283401D01*
X435625D01*
Y285500D01*
D02*
G37*
G36*
X432828D02*
X431032D01*
Y283401D01*
X432828D01*
Y285500D01*
D02*
G37*
G36*
X175700Y283944D02*
Y282900D01*
X176276D01*
X175944Y283699D01*
X175700Y283944D01*
D02*
G37*
G36*
X181500Y284228D02*
Y282500D01*
X183228D01*
X182907Y283275D01*
X182274Y283908D01*
X181500Y284228D01*
D02*
G37*
G36*
X180500D02*
X179726Y283908D01*
X179093Y283275D01*
X178772Y282500D01*
X180500D01*
Y284228D01*
D02*
G37*
G36*
X300365Y283965D02*
X298487D01*
Y282087D01*
X300365D01*
Y283965D01*
D02*
G37*
G36*
X297487D02*
X295609D01*
Y282087D01*
X297487D01*
Y283965D01*
D02*
G37*
G36*
X187300Y282200D02*
X185500D01*
Y281300D01*
X187300D01*
Y282200D01*
D02*
G37*
G36*
X176276Y281900D02*
X175700D01*
Y280856D01*
X175944Y281101D01*
X176276Y281900D01*
D02*
G37*
G36*
X300365Y281087D02*
X298487D01*
Y279209D01*
X300365D01*
Y281087D01*
D02*
G37*
G36*
X297487D02*
X295609D01*
Y279209D01*
X297487D01*
Y281087D01*
D02*
G37*
G36*
X293500Y279728D02*
Y278000D01*
X295228D01*
X294907Y278774D01*
X294274Y279408D01*
X293500Y279728D01*
D02*
G37*
G36*
X292500D02*
X291725Y279408D01*
X291092Y278774D01*
X290772Y278000D01*
X292500D01*
Y279728D01*
D02*
G37*
G36*
X295228Y277000D02*
X293500D01*
Y275272D01*
X294274Y275592D01*
X294907Y276225D01*
X295228Y277000D01*
D02*
G37*
G36*
X292500D02*
X290772D01*
X291092Y276225D01*
X291725Y275592D01*
X292500Y275272D01*
Y277000D01*
D02*
G37*
G36*
X175700Y275544D02*
Y274500D01*
X176276D01*
X175944Y275299D01*
X175700Y275544D01*
D02*
G37*
G36*
X187300Y275100D02*
X185500D01*
Y274200D01*
X187300D01*
Y275100D01*
D02*
G37*
G36*
X297914Y276189D02*
X295826D01*
Y274000D01*
X297914D01*
Y276189D01*
D02*
G37*
G36*
X176276Y273500D02*
X175700D01*
Y272456D01*
X175944Y272701D01*
X176276Y273500D01*
D02*
G37*
G36*
X183228D02*
X181500D01*
Y271772D01*
X182274Y272093D01*
X182907Y272726D01*
X183228Y273500D01*
D02*
G37*
G36*
X180500D02*
X178772D01*
X179093Y272726D01*
X179726Y272093D01*
X180500Y271772D01*
Y273500D01*
D02*
G37*
G36*
X191800Y273371D02*
Y271643D01*
X193528D01*
X193207Y272417D01*
X192574Y273050D01*
X191800Y273371D01*
D02*
G37*
G36*
X190800D02*
X190025Y273050D01*
X189392Y272417D01*
X189072Y271643D01*
X190800D01*
Y273371D01*
D02*
G37*
G36*
X297914Y273000D02*
X295826D01*
Y270811D01*
X297914D01*
Y273000D01*
D02*
G37*
G36*
X193528Y270643D02*
X191800D01*
Y268914D01*
X192574Y269235D01*
X193207Y269868D01*
X193528Y270643D01*
D02*
G37*
G36*
X190800D02*
X189072D01*
X189392Y269868D01*
X190025Y269235D01*
X190800Y268914D01*
Y270643D01*
D02*
G37*
G36*
X477300Y258744D02*
X477056Y258499D01*
X476724Y257700D01*
X477300D01*
Y258744D01*
D02*
G37*
G36*
Y256700D02*
X476724D01*
X477056Y255901D01*
X477300Y255656D01*
Y256700D01*
D02*
G37*
G36*
Y250344D02*
X477056Y250099D01*
X476724Y249300D01*
X477300D01*
Y250344D01*
D02*
G37*
G36*
Y248300D02*
X476724D01*
X477056Y247501D01*
X477300Y247256D01*
Y248300D01*
D02*
G37*
G36*
X189000Y246228D02*
Y244500D01*
X190728D01*
X190408Y245274D01*
X189775Y245907D01*
X189000Y246228D01*
D02*
G37*
G36*
X188000D02*
X187225Y245907D01*
X186592Y245274D01*
X186272Y244500D01*
X188000D01*
Y246228D01*
D02*
G37*
G36*
X354138Y245108D02*
X352260D01*
Y243230D01*
X354138D01*
Y245108D01*
D02*
G37*
G36*
X351260D02*
X349382D01*
Y243230D01*
X351260D01*
Y245108D01*
D02*
G37*
G36*
X190728Y243500D02*
X189000D01*
Y241772D01*
X189775Y242092D01*
X190408Y242725D01*
X190728Y243500D01*
D02*
G37*
G36*
X188000D02*
X186272D01*
X186592Y242725D01*
X187225Y242092D01*
X188000Y241772D01*
Y243500D01*
D02*
G37*
G36*
X328500Y242728D02*
Y241000D01*
X330228D01*
X329907Y241775D01*
X329275Y242407D01*
X328500Y242728D01*
D02*
G37*
G36*
X327500D02*
X326726Y242407D01*
X326093Y241775D01*
X325772Y241000D01*
X327500D01*
Y242728D01*
D02*
G37*
G36*
X354138Y242230D02*
X352260D01*
Y240352D01*
X354138D01*
Y242230D01*
D02*
G37*
G36*
X351260D02*
X349382D01*
Y240352D01*
X351260D01*
Y242230D01*
D02*
G37*
G36*
X181500Y241728D02*
Y240000D01*
X183228D01*
X182907Y240774D01*
X182274Y241407D01*
X181500Y241728D01*
D02*
G37*
G36*
X180500D02*
X179726Y241407D01*
X179093Y240774D01*
X178772Y240000D01*
X180500D01*
Y241728D01*
D02*
G37*
G36*
X175700Y240944D02*
Y239900D01*
X176276D01*
X175944Y240699D01*
X175700Y240944D01*
D02*
G37*
G36*
X357000Y240728D02*
Y239000D01*
X358728D01*
X358407Y239774D01*
X357774Y240407D01*
X357000Y240728D01*
D02*
G37*
G36*
X356000D02*
X355225Y240407D01*
X354592Y239774D01*
X354272Y239000D01*
X356000D01*
Y240728D01*
D02*
G37*
G36*
X187300Y239200D02*
X185500D01*
Y238300D01*
X187300D01*
Y239200D01*
D02*
G37*
G36*
X330228Y240000D02*
X328500D01*
Y238272D01*
X329275Y238593D01*
X329907Y239226D01*
X330228Y240000D01*
D02*
G37*
G36*
X327500D02*
X325772D01*
X326093Y239226D01*
X326726Y238593D01*
X327500Y238272D01*
Y240000D01*
D02*
G37*
G36*
X301291Y240122D02*
X299413D01*
Y238244D01*
X301291D01*
Y240122D01*
D02*
G37*
G36*
X298413D02*
X296535D01*
Y238244D01*
X298413D01*
Y240122D01*
D02*
G37*
G36*
X176276Y238900D02*
X175700D01*
Y237856D01*
X175944Y238101D01*
X176276Y238900D01*
D02*
G37*
G36*
X358728Y238000D02*
X357000D01*
Y236272D01*
X357774Y236593D01*
X358407Y237226D01*
X358728Y238000D01*
D02*
G37*
G36*
X356000D02*
X354272D01*
X354592Y237226D01*
X355225Y236593D01*
X356000Y236272D01*
Y238000D01*
D02*
G37*
G36*
X293500Y237228D02*
Y235500D01*
X295228D01*
X294907Y236275D01*
X294274Y236908D01*
X293500Y237228D01*
D02*
G37*
G36*
X292500D02*
X291725Y236908D01*
X291092Y236275D01*
X290772Y235500D01*
X292500D01*
Y237228D01*
D02*
G37*
G36*
X309689Y237536D02*
X307500D01*
Y235448D01*
X309689D01*
Y237536D01*
D02*
G37*
G36*
X306500D02*
X304311D01*
Y235448D01*
X306500D01*
Y237536D01*
D02*
G37*
G36*
X301291Y237244D02*
X299413D01*
Y235366D01*
X301291D01*
Y237244D01*
D02*
G37*
G36*
X298413D02*
X296535D01*
Y235366D01*
X298413D01*
Y237244D01*
D02*
G37*
G36*
X351673Y237333D02*
Y235143D01*
X353761D01*
Y237333D01*
X351673D01*
D02*
G37*
G36*
X295228Y234500D02*
X293500D01*
Y232772D01*
X294274Y233092D01*
X294907Y233726D01*
X295228Y234500D01*
D02*
G37*
G36*
X292500D02*
X290772D01*
X291092Y233726D01*
X291725Y233092D01*
X292500Y232772D01*
Y234500D01*
D02*
G37*
G36*
X175700Y232544D02*
Y231500D01*
X176276D01*
X175944Y232299D01*
X175700Y232544D01*
D02*
G37*
G36*
X187300Y232100D02*
X185500D01*
Y231200D01*
X187300D01*
Y232100D01*
D02*
G37*
G36*
X356500Y232728D02*
Y231000D01*
X358228D01*
X357908Y231774D01*
X357275Y232407D01*
X356500Y232728D01*
D02*
G37*
G36*
X353761Y234143D02*
X351673D01*
Y231954D01*
X353300Y231954D01*
X353314D01*
X353314D01*
X353517Y231954D01*
X353785Y231631D01*
D01*
X353786Y231631D01*
X353796Y231058D01*
X353772Y231000D01*
X355500D01*
Y232728D01*
X354726Y232407D01*
X354667Y232349D01*
X354152Y232129D01*
X354152Y232129D01*
D01*
X353761Y232291D01*
X353761Y232452D01*
X353761Y232452D01*
X353761Y232453D01*
Y234143D01*
D02*
G37*
G36*
X302500Y232728D02*
Y231000D01*
X304228D01*
X303907Y231774D01*
X303274Y232407D01*
X302500Y232728D01*
D02*
G37*
G36*
X301500D02*
X300726Y232407D01*
X300093Y231774D01*
X299772Y231000D01*
X301500D01*
Y232728D01*
D02*
G37*
G36*
X176276Y230500D02*
X175700D01*
Y229456D01*
X175944Y229701D01*
X176276Y230500D01*
D02*
G37*
G36*
X183228D02*
X181500D01*
Y228772D01*
X182274Y229093D01*
X182907Y229726D01*
X183228Y230500D01*
D02*
G37*
G36*
X180500D02*
X178772D01*
X179093Y229726D01*
X179726Y229093D01*
X180500Y228772D01*
Y230500D01*
D02*
G37*
G36*
X191410Y230183D02*
Y228455D01*
X193138D01*
X192818Y229230D01*
X192185Y229862D01*
X191410Y230183D01*
D02*
G37*
G36*
X190410D02*
X189636Y229862D01*
X189003Y229230D01*
X188682Y228455D01*
X190410D01*
Y230183D01*
D02*
G37*
G36*
X358228Y230000D02*
X356500D01*
Y228272D01*
X357275Y228592D01*
X357908Y229225D01*
X358228Y230000D01*
D02*
G37*
G36*
X355500D02*
X353772D01*
X354093Y229225D01*
X354726Y228592D01*
X355500Y228272D01*
Y230000D01*
D02*
G37*
G36*
X304228D02*
X302500D01*
Y228272D01*
X303274Y228592D01*
X303907Y229225D01*
X304228Y230000D01*
D02*
G37*
G36*
X301500D02*
X299772D01*
X300093Y229225D01*
X300726Y228592D01*
X301500Y228272D01*
Y230000D01*
D02*
G37*
G36*
X193138Y227455D02*
X191410D01*
Y225727D01*
X192185Y226048D01*
X192818Y226681D01*
X193138Y227455D01*
D02*
G37*
G36*
X190410D02*
X188682D01*
X189003Y226681D01*
X189636Y226048D01*
X190410Y225727D01*
Y227455D01*
D02*
G37*
G36*
X353878Y223622D02*
X352000D01*
Y221744D01*
X353878D01*
Y223622D01*
D02*
G37*
G36*
X351000D02*
X349122D01*
Y221744D01*
X351000D01*
Y223622D01*
D02*
G37*
G36*
X346000Y222728D02*
Y221000D01*
X347728D01*
X347408Y221775D01*
X346775Y222408D01*
X346000Y222728D01*
D02*
G37*
G36*
X345000D02*
X344226Y222408D01*
X343593Y221775D01*
X343272Y221000D01*
X345000D01*
Y222728D01*
D02*
G37*
G36*
X353878Y220744D02*
X352000D01*
Y218866D01*
X353878D01*
Y220744D01*
D02*
G37*
G36*
X351000D02*
X349122D01*
Y218866D01*
X351000D01*
Y220744D01*
D02*
G37*
G36*
X347728Y220000D02*
X346000D01*
Y218272D01*
X346775Y218593D01*
X347408Y219226D01*
X347728Y220000D01*
D02*
G37*
G36*
X345000D02*
X343272D01*
X343593Y219226D01*
X344226Y218593D01*
X345000Y218272D01*
Y220000D01*
D02*
G37*
G36*
X455000Y217228D02*
Y215500D01*
X456728D01*
X456407Y216274D01*
X455774Y216908D01*
X455000Y217228D01*
D02*
G37*
G36*
X454000D02*
X453226Y216908D01*
X452593Y216274D01*
X452272Y215500D01*
X454000D01*
Y217228D01*
D02*
G37*
G36*
X456728Y214500D02*
X455000D01*
Y212772D01*
X455774Y213092D01*
X456407Y213725D01*
X456728Y214500D01*
D02*
G37*
G36*
X454000D02*
X452272D01*
X452593Y213725D01*
X453226Y213092D01*
X454000Y212772D01*
Y214500D01*
D02*
G37*
G36*
X455292Y211276D02*
X453414D01*
Y209398D01*
X455292D01*
Y211276D01*
D02*
G37*
G36*
X452414D02*
X450536D01*
Y209398D01*
X452414D01*
Y211276D01*
D02*
G37*
G36*
X485000Y208728D02*
Y207000D01*
X486728D01*
X486408Y207774D01*
X485775Y208407D01*
X485000Y208728D01*
D02*
G37*
G36*
X484000D02*
X483225Y208407D01*
X482592Y207774D01*
X482272Y207000D01*
X484000D01*
Y208728D01*
D02*
G37*
G36*
X455292Y208398D02*
X453414D01*
Y206520D01*
X455292D01*
Y208398D01*
D02*
G37*
G36*
X460404Y210876D02*
X456448D01*
Y206920D01*
X456591D01*
Y204416D01*
X454623D01*
X454311Y204354D01*
X454046Y204177D01*
X453869Y203912D01*
X453807Y203600D01*
Y194600D01*
X453869Y194288D01*
X453613Y193646D01*
X453486Y193609D01*
X451294Y195802D01*
X450698Y196200D01*
X449996Y196339D01*
X449234D01*
Y196482D01*
X449091D01*
Y198498D01*
X448951Y199201D01*
X448554Y199796D01*
X447326Y201024D01*
Y201190D01*
X446991Y201998D01*
X446372Y202617D01*
X445563Y202952D01*
X444688D01*
X443879Y202617D01*
X443260Y201998D01*
X442926Y201190D01*
Y200314D01*
X443260Y199506D01*
X443879Y198887D01*
X444549Y198609D01*
X445421Y197738D01*
Y196482D01*
X445278D01*
Y192526D01*
X449234D01*
X449700Y192204D01*
X451702Y190202D01*
X452298Y189804D01*
X453000Y189665D01*
X458500D01*
X459180Y189800D01*
X461977D01*
Y193184D01*
X461977Y193200D01*
X462015Y193784D01*
X462377D01*
X462689Y193846D01*
X462954Y194023D01*
X463131Y194288D01*
X463727Y194211D01*
Y188500D01*
X468727D01*
Y194000D01*
Y199500D01*
X463793D01*
X463727Y199500D01*
X463193Y199659D01*
Y203600D01*
X463131Y203912D01*
X462954Y204177D01*
X462689Y204354D01*
X462377Y204416D01*
X460261D01*
Y206792D01*
X462306D01*
X462345Y206753D01*
X463154Y206418D01*
X464029D01*
X464837Y206753D01*
X465456Y207372D01*
X465791Y208180D01*
Y209056D01*
X465456Y209864D01*
X464837Y210483D01*
X464029Y210818D01*
X463154D01*
X462345Y210483D01*
X462325Y210463D01*
X460404D01*
Y210876D01*
D02*
G37*
G36*
X452414Y208398D02*
X450536D01*
Y206813D01*
X450500Y206584D01*
Y204500D01*
X452228D01*
X451907Y205275D01*
X451274Y205908D01*
X451244Y205920D01*
X451363Y206520D01*
X452414D01*
Y208398D01*
D02*
G37*
G36*
X449500Y206228D02*
X448726Y205908D01*
X448093Y205275D01*
X447772Y204500D01*
X449500D01*
Y206228D01*
D02*
G37*
G36*
X486728Y206000D02*
X485000D01*
Y204272D01*
X485775Y204592D01*
X486408Y205225D01*
X486728Y206000D01*
D02*
G37*
G36*
X484000D02*
X482272D01*
X482592Y205225D01*
X483225Y204592D01*
X484000Y204272D01*
Y206000D01*
D02*
G37*
G36*
X494653Y205492D02*
X492775D01*
Y203614D01*
X494653D01*
Y205492D01*
D02*
G37*
G36*
X491775D02*
X489897D01*
Y203614D01*
X491775D01*
Y205492D01*
D02*
G37*
G36*
X452228Y203500D02*
X450500D01*
Y201772D01*
X451274Y202093D01*
X451907Y202726D01*
X452228Y203500D01*
D02*
G37*
G36*
X449500D02*
X447772D01*
X448093Y202726D01*
X448726Y202093D01*
X449500Y201772D01*
Y203500D01*
D02*
G37*
G36*
X190875Y202521D02*
Y200793D01*
X192604D01*
X192283Y201567D01*
X191650Y202200D01*
X190875Y202521D01*
D02*
G37*
G36*
X189875D02*
X189101Y202200D01*
X188468Y201567D01*
X188147Y200793D01*
X189875D01*
Y202521D01*
D02*
G37*
G36*
X494653Y202614D02*
X492775D01*
Y200736D01*
X494653D01*
Y202614D01*
D02*
G37*
G36*
X491775D02*
X489897D01*
Y200736D01*
X491775D01*
Y202614D01*
D02*
G37*
G36*
X438000Y201728D02*
Y200000D01*
X439728D01*
X439407Y200775D01*
X438774Y201408D01*
X438000Y201728D01*
D02*
G37*
G36*
X437000D02*
X436226Y201408D01*
X435593Y200775D01*
X435272Y200000D01*
X437000D01*
Y201728D01*
D02*
G37*
G36*
X192604Y199793D02*
X190875D01*
Y198064D01*
X191650Y198385D01*
X192283Y199018D01*
X192604Y199793D01*
D02*
G37*
G36*
X189875D02*
X188147D01*
X188468Y199018D01*
X189101Y198385D01*
X189875Y198064D01*
Y199793D01*
D02*
G37*
G36*
X439728Y199000D02*
X438000D01*
Y197272D01*
X438774Y197592D01*
X439407Y198225D01*
X439728Y199000D01*
D02*
G37*
G36*
X437000D02*
X435272D01*
X435593Y198225D01*
X436226Y197592D01*
X437000Y197272D01*
Y199000D01*
D02*
G37*
G36*
X181500Y198728D02*
Y197000D01*
X183228D01*
X182907Y197775D01*
X182274Y198407D01*
X181500Y198728D01*
D02*
G37*
G36*
X180500D02*
X179726Y198407D01*
X179093Y197775D01*
X178772Y197000D01*
X180500D01*
Y198728D01*
D02*
G37*
G36*
X175700Y197944D02*
Y196900D01*
X176276D01*
X175944Y197699D01*
X175700Y197944D01*
D02*
G37*
G36*
X187300Y196200D02*
X185500D01*
Y195300D01*
X187300D01*
Y196200D01*
D02*
G37*
G36*
X444122Y196882D02*
X442244D01*
Y195004D01*
X444122D01*
Y196882D01*
D02*
G37*
G36*
X441244D02*
X439366D01*
Y195004D01*
X441244D01*
Y196882D01*
D02*
G37*
G36*
X176276Y195900D02*
X175700D01*
Y194856D01*
X175944Y195101D01*
X176276Y195900D01*
D02*
G37*
G36*
X486408Y203550D02*
X485592D01*
X485074Y203335D01*
X479955D01*
X479275Y203200D01*
X476477D01*
Y199800D01*
X479275D01*
X479955Y199665D01*
X485074D01*
X485592Y199450D01*
X485599D01*
X485780Y198850D01*
X485702Y198798D01*
X485240Y198335D01*
X479955D01*
X479275Y198200D01*
X476477D01*
Y194916D01*
X476477Y194800D01*
X476198Y194316D01*
X476000D01*
X475688Y194254D01*
X475423Y194077D01*
X475327Y193933D01*
X474727Y194044D01*
Y199500D01*
X469727D01*
Y194000D01*
Y188500D01*
X474584D01*
X474727Y188500D01*
X475184Y188155D01*
Y177000D01*
X475246Y176688D01*
X475423Y176423D01*
X475688Y176246D01*
X476000Y176184D01*
X486512D01*
Y174364D01*
X490087D01*
Y173864D01*
D01*
Y174364D01*
X493662D01*
Y176184D01*
X494000D01*
X494312Y176246D01*
X494577Y176423D01*
X494754Y176688D01*
X494816Y177000D01*
Y193500D01*
X494754Y193812D01*
X494577Y194077D01*
X494312Y194254D01*
X494000Y194316D01*
X487051D01*
X486869Y194916D01*
X487298Y195202D01*
X487760Y195665D01*
X490298D01*
Y195624D01*
X494253D01*
Y195721D01*
X497202D01*
X497277Y195646D01*
X498086Y195311D01*
X498961D01*
X499770Y195646D01*
X500388Y196265D01*
X500723Y197073D01*
Y197948D01*
X500388Y198757D01*
X499770Y199376D01*
X498961Y199711D01*
X498086D01*
X497316Y199392D01*
X494253D01*
Y199580D01*
X490298D01*
Y199335D01*
X487579D01*
X487334Y199935D01*
X487738Y200339D01*
X488050Y201092D01*
Y201908D01*
X487738Y202661D01*
X487161Y203238D01*
X486408Y203550D01*
D02*
G37*
G36*
X444122Y194004D02*
X442244D01*
Y192126D01*
X444122D01*
Y194004D01*
D02*
G37*
G36*
X441244D02*
X439366D01*
Y192126D01*
X441244D01*
Y194004D01*
D02*
G37*
G36*
X430500Y192228D02*
Y190500D01*
X432228D01*
X431908Y191274D01*
X431275Y191908D01*
X430500Y192228D01*
D02*
G37*
G36*
X429500D02*
X428725Y191908D01*
X428092Y191274D01*
X427772Y190500D01*
X429500D01*
Y192228D01*
D02*
G37*
G36*
X175700Y189544D02*
Y188500D01*
X176276D01*
X175944Y189299D01*
X175700Y189544D01*
D02*
G37*
G36*
X187300Y189100D02*
X185500D01*
Y188200D01*
X187300D01*
Y189100D01*
D02*
G37*
G36*
X432228Y189500D02*
X430500D01*
Y187772D01*
X431275Y188093D01*
X431908Y188725D01*
X432228Y189500D01*
D02*
G37*
G36*
X429500D02*
X427772D01*
X428092Y188725D01*
X428725Y188093D01*
X429500Y187772D01*
Y189500D01*
D02*
G37*
G36*
X176276Y187500D02*
X175700D01*
Y186456D01*
X175944Y186701D01*
X176276Y187500D01*
D02*
G37*
G36*
X183228D02*
X181500D01*
Y185772D01*
X182274Y186092D01*
X182907Y186725D01*
X183228Y187500D01*
D02*
G37*
G36*
X180500D02*
X178772D01*
X179093Y186725D01*
X179726Y186092D01*
X180500Y185772D01*
Y187500D01*
D02*
G37*
G36*
X191340Y187299D02*
Y185570D01*
X193068D01*
X192748Y186345D01*
X192115Y186978D01*
X191340Y187299D01*
D02*
G37*
G36*
X190340D02*
X189566Y186978D01*
X188933Y186345D01*
X188612Y185570D01*
X190340D01*
Y187299D01*
D02*
G37*
G36*
X435282Y188575D02*
X432802D01*
Y185500D01*
X435282D01*
Y188575D01*
D02*
G37*
G36*
X193068Y184570D02*
X191340D01*
Y182842D01*
X192115Y183163D01*
X192748Y183796D01*
X193068Y184570D01*
D02*
G37*
G36*
X190340D02*
X188612D01*
X188933Y183796D01*
X189566Y183163D01*
X190340Y182842D01*
Y184570D01*
D02*
G37*
G36*
X408000Y183228D02*
Y181500D01*
X409728D01*
X409408Y182274D01*
X408775Y182907D01*
X408000Y183228D01*
D02*
G37*
G36*
X407000D02*
X406225Y182907D01*
X405592Y182274D01*
X405272Y181500D01*
X407000D01*
Y183228D01*
D02*
G37*
G36*
X435282Y184500D02*
X432802D01*
Y181425D01*
X435282D01*
Y184500D01*
D02*
G37*
G36*
X433500Y180728D02*
Y179000D01*
X435228D01*
X434907Y179774D01*
X434274Y180408D01*
X433500Y180728D01*
D02*
G37*
G36*
X432500D02*
X431726Y180408D01*
X431093Y179774D01*
X430772Y179000D01*
X432500D01*
Y180728D01*
D02*
G37*
G36*
X421500Y178728D02*
Y177000D01*
X423228D01*
X422907Y177775D01*
X422274Y178408D01*
X421500Y178728D01*
D02*
G37*
G36*
X420500D02*
X419726Y178408D01*
X419093Y177775D01*
X418772Y177000D01*
X420500D01*
Y178728D01*
D02*
G37*
G36*
X412622Y178378D02*
X410744D01*
Y176500D01*
X412622D01*
Y178378D01*
D02*
G37*
G36*
X409728Y180500D02*
X405272D01*
X405592Y179726D01*
X406225Y179093D01*
X407052Y178750D01*
X407420D01*
X407866Y178378D01*
X407866Y178150D01*
Y176500D01*
X409744D01*
Y178378D01*
X408617D01*
X408498Y178978D01*
X408775Y179093D01*
X409408Y179726D01*
X409728Y180500D01*
D02*
G37*
G36*
X435228Y178000D02*
X433500D01*
Y176272D01*
X434274Y176593D01*
X434907Y177225D01*
X435228Y178000D01*
D02*
G37*
G36*
X432500D02*
X430772D01*
X431093Y177225D01*
X431726Y176593D01*
X432500Y176272D01*
Y178000D01*
D02*
G37*
G36*
X465390D02*
X463512D01*
Y176122D01*
X465390D01*
Y178000D01*
D02*
G37*
G36*
X469000Y176728D02*
Y175000D01*
X470728D01*
X470407Y175775D01*
X469774Y176408D01*
X469000Y176728D01*
D02*
G37*
G36*
X468000D02*
X467226Y176408D01*
X466593Y175775D01*
X466272Y175000D01*
X468000D01*
Y176728D01*
D02*
G37*
G36*
X423228Y176000D02*
X421500D01*
Y174272D01*
X422274Y174592D01*
X422907Y175225D01*
X423228Y176000D01*
D02*
G37*
G36*
X420500D02*
X418772D01*
X419093Y175225D01*
X419726Y174592D01*
X420500Y174272D01*
Y176000D01*
D02*
G37*
G36*
X412622Y175500D02*
X410744D01*
Y173622D01*
X412622D01*
Y175500D01*
D02*
G37*
G36*
X409744D02*
X407866D01*
Y173622D01*
X409744D01*
Y175500D01*
D02*
G37*
G36*
X405000Y174228D02*
Y172500D01*
X406728D01*
X406407Y173275D01*
X405774Y173907D01*
X405000Y174228D01*
D02*
G37*
G36*
X404000D02*
X403226Y173907D01*
X402593Y173275D01*
X402272Y172500D01*
X404000D01*
Y174228D01*
D02*
G37*
G36*
X470728Y174000D02*
X469000D01*
Y172272D01*
X469774Y172592D01*
X470407Y173225D01*
X470728Y174000D01*
D02*
G37*
G36*
X468000D02*
X466272D01*
X466593Y173225D01*
X467226Y172592D01*
X468000Y172272D01*
Y174000D01*
D02*
G37*
G36*
X463427Y172889D02*
Y171011D01*
X465305D01*
Y172889D01*
X463427D01*
D02*
G37*
G36*
X493662Y173364D02*
X490587D01*
Y170885D01*
X493662D01*
Y173364D01*
D02*
G37*
G36*
X489587D02*
X486512D01*
Y170885D01*
X489587D01*
Y173364D01*
D02*
G37*
G36*
X406728Y171500D02*
X405000D01*
Y169772D01*
X405774Y170092D01*
X406407Y170726D01*
X406728Y171500D01*
D02*
G37*
G36*
X404000D02*
X402272D01*
X402593Y170726D01*
X403226Y170092D01*
X404000Y169772D01*
Y171500D01*
D02*
G37*
G36*
X412622Y170882D02*
X410744D01*
Y169004D01*
X412622D01*
Y170882D01*
D02*
G37*
G36*
X409744D02*
X407866D01*
Y169004D01*
X409744D01*
Y170882D01*
D02*
G37*
G36*
X490500Y170228D02*
Y168500D01*
X492228D01*
X491908Y169274D01*
X491274Y169907D01*
X490500Y170228D01*
D02*
G37*
G36*
X489500D02*
X488726Y169907D01*
X488093Y169274D01*
X487772Y168500D01*
X489500D01*
Y170228D01*
D02*
G37*
G36*
X465305Y170011D02*
X463427D01*
Y168133D01*
X465305D01*
Y170011D01*
D02*
G37*
G36*
X409744Y168004D02*
X407866D01*
Y166664D01*
X407274Y166408D01*
X406500Y166728D01*
Y165000D01*
X408228D01*
X408010Y165526D01*
X408324Y166096D01*
X408362Y166126D01*
X409744D01*
Y168004D01*
D02*
G37*
G36*
X412622D02*
X410744D01*
Y166126D01*
X412622D01*
Y168004D01*
D02*
G37*
G36*
X492228Y167500D02*
X490500D01*
Y165772D01*
X491274Y166093D01*
X491908Y166726D01*
X492228Y167500D01*
D02*
G37*
G36*
X489500D02*
X487772D01*
X488093Y166726D01*
X488726Y166093D01*
X489500Y165772D01*
Y167500D01*
D02*
G37*
G36*
X463500Y167228D02*
Y165500D01*
X465228D01*
X464908Y166274D01*
X464275Y166908D01*
X463500Y167228D01*
D02*
G37*
G36*
X405500Y166728D02*
X404726Y166408D01*
X404093Y165775D01*
X403772Y165000D01*
X405500D01*
Y166728D01*
D02*
G37*
G36*
X465228Y164500D02*
X463500D01*
Y162772D01*
X464275Y163093D01*
X464908Y163725D01*
X465228Y164500D01*
D02*
G37*
G36*
X461977Y189016D02*
X439000D01*
X438688Y188954D01*
X438423Y188777D01*
X438289Y188575D01*
X436282D01*
Y185000D01*
Y181425D01*
X438238D01*
X438246Y181381D01*
X438423Y181117D01*
X438688Y180940D01*
X439000Y180878D01*
X445684D01*
Y165950D01*
X445746Y165638D01*
X445923Y165373D01*
X446188Y165196D01*
X446500Y165134D01*
X459634D01*
X459946Y165196D01*
X460150Y165333D01*
X460428Y165263D01*
X460750Y165101D01*
Y164552D01*
X461093Y163725D01*
X461726Y163093D01*
X462500Y162772D01*
Y165000D01*
Y167228D01*
X461726Y166908D01*
X461093Y166274D01*
X461050Y166171D01*
X460450Y166290D01*
Y167575D01*
X460549Y168133D01*
X461050Y168133D01*
X462427D01*
Y170511D01*
Y172889D01*
X460549Y172889D01*
X460450Y173448D01*
Y175598D01*
X460634Y176122D01*
X462512D01*
Y178500D01*
X463012D01*
Y179000D01*
X465390D01*
Y180878D01*
X463116D01*
X462911Y181146D01*
X462750Y181478D01*
X462793Y181694D01*
Y188200D01*
X462731Y188512D01*
X462554Y188777D01*
X462289Y188954D01*
X461977Y189016D01*
D02*
G37*
G36*
X408228Y164000D02*
X406500D01*
Y162272D01*
X407274Y162592D01*
X407907Y163225D01*
X408228Y164000D01*
D02*
G37*
G36*
X405500D02*
X403772D01*
X404093Y163225D01*
X404726Y162592D01*
X405500Y162272D01*
Y164000D01*
D02*
G37*
G36*
X406546Y161150D02*
X406500D01*
Y157500D01*
X410150D01*
Y157546D01*
X409867Y158602D01*
X409320Y159548D01*
X408548Y160320D01*
X407602Y160867D01*
X406546Y161150D01*
D02*
G37*
G36*
X396546D02*
X396500D01*
Y157500D01*
X400150D01*
Y157546D01*
X399867Y158602D01*
X399321Y159548D01*
X398548Y160320D01*
X397602Y160867D01*
X396546Y161150D01*
D02*
G37*
G36*
X477490Y167055D02*
X477000D01*
Y157500D01*
X486555D01*
Y157990D01*
X486169Y159933D01*
X485411Y161763D01*
X484310Y163410D01*
X482910Y164810D01*
X481263Y165911D01*
X479433Y166669D01*
X477490Y167055D01*
D02*
G37*
G36*
X476000D02*
X475510D01*
X473567Y166669D01*
X471737Y165911D01*
X470090Y164810D01*
X468690Y163410D01*
X467589Y161763D01*
X466831Y159933D01*
X466445Y157990D01*
Y157500D01*
X476000D01*
Y167055D01*
D02*
G37*
G36*
X177490D02*
X177000D01*
Y157500D01*
X186555D01*
Y157990D01*
X186169Y159933D01*
X185411Y161763D01*
X184310Y163410D01*
X182910Y164810D01*
X181263Y165911D01*
X179433Y166669D01*
X177490Y167055D01*
D02*
G37*
G36*
X176000D02*
X175510D01*
X173567Y166669D01*
X171737Y165911D01*
X170090Y164810D01*
X168690Y163410D01*
X167589Y161763D01*
X166831Y159933D01*
X166445Y157990D01*
Y157500D01*
X176000D01*
Y167055D01*
D02*
G37*
G36*
X405500Y161150D02*
X405454D01*
X404398Y160867D01*
X403452Y160320D01*
X402679Y159548D01*
X402133Y158602D01*
X401850Y157546D01*
Y157500D01*
X405500D01*
Y161150D01*
D02*
G37*
G36*
X395500D02*
X395454D01*
X394398Y160867D01*
X393452Y160320D01*
X392680Y159548D01*
X392133Y158602D01*
X391850Y157546D01*
Y157500D01*
X395500D01*
Y161150D01*
D02*
G37*
G36*
X410150Y156500D02*
X406500D01*
Y152850D01*
X406546D01*
X407602Y153133D01*
X408548Y153680D01*
X409320Y154452D01*
X409867Y155398D01*
X410150Y156454D01*
Y156500D01*
D02*
G37*
G36*
X405500D02*
X401850D01*
Y156454D01*
X402133Y155398D01*
X402679Y154452D01*
X403452Y153680D01*
X404398Y153133D01*
X405454Y152850D01*
X405500D01*
Y156500D01*
D02*
G37*
G36*
X400150D02*
X396500D01*
Y152850D01*
X396546D01*
X397602Y153133D01*
X398548Y153680D01*
X399321Y154452D01*
X399867Y155398D01*
X400150Y156454D01*
Y156500D01*
D02*
G37*
G36*
X395500D02*
X391850D01*
Y156454D01*
X392133Y155398D01*
X392680Y154452D01*
X393452Y153680D01*
X394398Y153133D01*
X395454Y152850D01*
X395500D01*
Y156500D01*
D02*
G37*
G36*
X416164Y183294D02*
X415348D01*
X414595Y182982D01*
X414018Y182405D01*
X413706Y181652D01*
Y180836D01*
X413921Y180318D01*
Y177978D01*
X413778D01*
Y174022D01*
X413921D01*
Y170482D01*
X413778D01*
Y166526D01*
X413921D01*
Y160360D01*
X413575Y160161D01*
X412840Y159425D01*
X412320Y158525D01*
X412050Y157520D01*
Y156480D01*
X412320Y155475D01*
X412840Y154575D01*
X413575Y153840D01*
X414475Y153320D01*
X415480Y153050D01*
X416520D01*
X417524Y153320D01*
X418425Y153840D01*
X419161Y154575D01*
X419584Y155309D01*
X420184Y155148D01*
Y152500D01*
X420246Y152188D01*
X420423Y151923D01*
X420688Y151746D01*
X421000Y151684D01*
X440500D01*
X440812Y151746D01*
X441077Y151923D01*
X441254Y152188D01*
X441316Y152500D01*
Y172500D01*
X441254Y172812D01*
X441077Y173077D01*
X440812Y173254D01*
X440500Y173316D01*
X421000D01*
X420688Y173254D01*
X420423Y173077D01*
X420246Y172812D01*
X420184Y172500D01*
Y158852D01*
X419584Y158691D01*
X419161Y159425D01*
X418425Y160161D01*
X417591Y160642D01*
Y166526D01*
X417734D01*
Y170482D01*
X417591D01*
Y174022D01*
X417734D01*
Y177978D01*
X417591D01*
Y180318D01*
X417806Y180836D01*
Y181652D01*
X417494Y182405D01*
X416917Y182982D01*
X416164Y183294D01*
D02*
G37*
G36*
X486555Y156500D02*
X477000D01*
Y146945D01*
X477490D01*
X479433Y147331D01*
X481263Y148089D01*
X482910Y149190D01*
X484310Y150590D01*
X485411Y152237D01*
X486169Y154067D01*
X486555Y156010D01*
Y156500D01*
D02*
G37*
G36*
X476000D02*
X466445D01*
Y156010D01*
X466831Y154067D01*
X467589Y152237D01*
X468690Y150590D01*
X470090Y149190D01*
X471737Y148089D01*
X473567Y147331D01*
X475510Y146945D01*
X476000D01*
Y156500D01*
D02*
G37*
G36*
X186555D02*
X177000D01*
Y146945D01*
X177490D01*
X179433Y147331D01*
X181263Y148089D01*
X182910Y149190D01*
X184310Y150590D01*
X185411Y152237D01*
X186169Y154067D01*
X186555Y156010D01*
Y156500D01*
D02*
G37*
G36*
X176000D02*
X166445D01*
Y156010D01*
X166831Y154067D01*
X167589Y152237D01*
X168690Y150590D01*
X170090Y149190D01*
X171737Y148089D01*
X173567Y147331D01*
X175510Y146945D01*
X176000D01*
Y156500D01*
D02*
G37*
G36*
X370000Y292728D02*
Y291000D01*
X371728D01*
X371408Y291775D01*
X370775Y292407D01*
X370000Y292728D01*
D02*
G37*
G36*
X369000D02*
X368226Y292407D01*
X367593Y291775D01*
X367272Y291000D01*
X369000D01*
Y292728D01*
D02*
G37*
G36*
X371728Y290000D02*
X370000D01*
Y288272D01*
X370775Y288593D01*
X371408Y289226D01*
X371728Y290000D01*
D02*
G37*
G36*
X369000D02*
X367272D01*
X367593Y289226D01*
X368226Y288593D01*
X369000Y288272D01*
Y290000D01*
D02*
G37*
G36*
X396728Y283500D02*
X395000D01*
Y281772D01*
X395775Y282092D01*
X396408Y282726D01*
X396728Y283500D01*
D02*
G37*
G36*
X394000D02*
X392272D01*
X392593Y282726D01*
X393226Y282092D01*
X394000Y281772D01*
Y283500D01*
D02*
G37*
G36*
X382000Y273728D02*
Y272000D01*
X383728D01*
X383407Y272775D01*
X382774Y273408D01*
X382000Y273728D01*
D02*
G37*
G36*
X381000D02*
X380225Y273408D01*
X379592Y272775D01*
X379272Y272000D01*
X381000D01*
Y273728D01*
D02*
G37*
G36*
X349728Y272500D02*
X348000D01*
Y270772D01*
X348775Y271093D01*
X349408Y271726D01*
X349728Y272500D01*
D02*
G37*
G36*
X347000D02*
X345272D01*
X345592Y271726D01*
X346226Y271093D01*
X347000Y270772D01*
Y272500D01*
D02*
G37*
G36*
X383728Y271000D02*
X382000D01*
Y269272D01*
X382774Y269592D01*
X383407Y270226D01*
X383728Y271000D01*
D02*
G37*
G36*
X381000D02*
X379272D01*
X379592Y270226D01*
X380225Y269592D01*
X381000Y269272D01*
Y271000D01*
D02*
G37*
G36*
X342463Y240481D02*
X340376D01*
Y238291D01*
X342463D01*
Y240481D01*
D02*
G37*
%LPD*%
D12*
X458696Y208628D02*
X463321D01*
X491954Y197556D02*
X498478D01*
X445125Y200629D02*
X447256Y198498D01*
Y194504D02*
Y198498D01*
X345664Y227000D02*
X346000D01*
X344164Y225500D02*
X345664Y227000D01*
X334769Y226731D02*
Y229705D01*
Y226731D02*
X336000Y225500D01*
X344164D01*
X346000Y227000D02*
X346122Y226878D01*
X351378D01*
X351500Y226756D01*
X346000Y234398D02*
X346245Y234643D01*
X346000Y227000D02*
Y234398D01*
X346245Y234643D02*
Y242727D01*
X334769Y229705D02*
Y237613D01*
X415756Y157000D02*
Y168504D01*
X341567Y345567D02*
Y356933D01*
X341634Y345500D02*
X341677Y345457D01*
Y338047D02*
Y345457D01*
X341720Y332625D02*
Y338004D01*
X415756Y176000D02*
Y181244D01*
Y168504D02*
Y176000D01*
X341677Y338047D02*
X341720Y338004D01*
X487000Y197500D02*
X491897D01*
X486000Y196500D02*
X487000Y197500D01*
X447256Y194504D02*
X449996D01*
X453000Y191500D02*
X458500D01*
X449996Y194504D02*
X453000Y191500D01*
X458426Y201926D02*
Y208898D01*
X479955Y196500D02*
X486000D01*
X479955Y201500D02*
X486000D01*
D13*
X337202Y322122D02*
X337324Y322244D01*
X436918Y317418D02*
X437000Y317500D01*
X430082Y317418D02*
X436918D01*
X430000Y317336D02*
X430082Y317418D01*
X458426Y208898D02*
X458696Y208628D01*
X463321Y208889D02*
X463591Y208618D01*
X491897Y197500D02*
X491954Y197556D01*
X498478D02*
X498523Y197511D01*
X445125Y200629D02*
Y200752D01*
X354550Y305550D02*
X356000Y307000D01*
X354550Y305500D02*
Y305550D01*
X324500Y264000D02*
X324532Y264032D01*
Y267531D01*
X326000Y270000D02*
X326500Y269500D01*
Y267531D02*
Y269500D01*
X332405Y248905D02*
X333500Y250000D01*
X332405Y246468D02*
Y248905D01*
X330437Y251803D02*
X331067Y252433D01*
X330437Y246468D02*
Y251803D01*
X328468Y249969D02*
X328500Y250000D01*
X328468Y246468D02*
Y249969D01*
X324500Y250000D02*
X324532Y249969D01*
Y246468D02*
Y249969D01*
X318626Y246468D02*
Y249126D01*
X315968Y249126D02*
X318626D01*
X319468Y255031D02*
X319500Y255000D01*
X315968Y255031D02*
X319468D01*
X313500Y257000D02*
X315968D01*
X315968Y257000D01*
X319468Y258968D02*
X319500Y259000D01*
X315968Y258968D02*
X319468D01*
X318626Y264874D02*
Y267531D01*
X315992Y264850D02*
X318650D01*
X315968Y264874D02*
X315992Y264850D01*
X310340Y248191D02*
X310746D01*
X326500Y243500D02*
Y246468D01*
X333500Y250000D02*
X334374Y249126D01*
X337032D01*
X333500Y250000D02*
X334594Y251095D01*
X337032D01*
X333500Y255000D02*
X333531Y255031D01*
X337032D01*
X354604Y256753D02*
X354851Y256506D01*
X351664Y256753D02*
X354604D01*
X351417Y257000D02*
X351664Y256753D01*
X342750Y257000D02*
X342750Y257000D01*
X345905D01*
X337032Y257000D02*
X342750D01*
X345905Y257000D02*
X345905Y257000D01*
X293000Y241000D02*
X295256Y243256D01*
X298913D01*
X310256D01*
X334374Y238008D02*
X334769Y237613D01*
X334374Y238008D02*
Y246468D01*
X336743Y246757D02*
X339243D01*
X343273Y242727D01*
X346245D01*
X313757Y246757D02*
X316257D01*
X310256Y243256D02*
X313757Y246757D01*
X313000Y273500D02*
X316257Y270243D01*
Y267243D02*
Y270243D01*
X302342Y273500D02*
X313000D01*
X302342D02*
X302499Y273657D01*
X303499D02*
Y281587D01*
X356000Y307000D02*
Y309744D01*
X338500Y297000D02*
X343037D01*
X339500Y253063D02*
X339500Y253063D01*
X354000Y326500D02*
X354068Y326431D01*
Y322122D02*
Y326431D01*
X360500Y311000D02*
X361664Y309836D01*
X360500Y311000D02*
Y333992D01*
X361664Y309836D02*
X364500D01*
X354068Y334500D02*
X360314D01*
X341500Y357000D02*
X341567Y356933D01*
Y345567D02*
X341634Y345500D01*
X427404Y335905D02*
X427500Y336000D01*
X427309Y335809D02*
X427404Y335905D01*
X427744Y300000D02*
Y305244D01*
X385500Y322000D02*
X387500Y324000D01*
X380500Y322000D02*
X385500D01*
X371500Y357000D02*
X371950Y356550D01*
Y334550D02*
X372000Y334500D01*
X368036Y322122D02*
X368063D01*
X364500Y320500D02*
X366099Y322099D01*
X368013D01*
X368036Y322122D01*
X364500Y316664D02*
Y320500D01*
X427309Y329513D02*
Y335809D01*
X373969Y334373D02*
X374019Y334323D01*
X380107Y334216D02*
X380214Y334323D01*
X374019D02*
X380214D01*
X373969Y334373D02*
Y334500D01*
X360314Y334178D02*
X360500Y333992D01*
X380107Y330107D02*
Y334216D01*
X373969Y322111D02*
X374019Y322061D01*
X380439D02*
X380500Y322000D01*
X374019Y322061D02*
X380439D01*
X354068Y322122D02*
X354118Y322072D01*
X373969Y322111D02*
Y322122D01*
X355952Y315304D02*
Y317548D01*
X354118Y319381D02*
X355952Y317548D01*
Y315304D02*
X356000Y315256D01*
X354118Y319381D02*
Y322072D01*
X337032Y257000D02*
Y258968D01*
X468500Y322000D02*
X473134D01*
X477867D02*
X477906Y322039D01*
Y330500D01*
X458250Y201750D02*
X458426Y201926D01*
D18*
X396406Y262906D02*
X415862Y282362D01*
Y300201D01*
X337032Y262906D02*
X396406D01*
X402437Y260937D02*
X417437Y275937D01*
Y300201D01*
X337032Y260937D02*
X402437D01*
X414287Y288287D02*
Y300201D01*
X337032Y264874D02*
X390874D01*
X414287Y288287D01*
X338286Y322122D02*
X348163D01*
X337202Y322244D02*
X337324D01*
X419012Y289719D02*
Y300201D01*
Y289719D02*
X422730Y286000D01*
X428000D01*
X394500Y289500D02*
X403223D01*
X409490Y295768D01*
X383500Y300500D02*
X394500Y289500D01*
X380000Y300500D02*
X383500D01*
X365280D02*
X380000D01*
X353593Y275000D02*
X358500D01*
X352093Y276500D02*
X353593Y275000D01*
X338000Y276500D02*
X352093D01*
X358500Y275000D02*
X365224Y281724D01*
Y293555D01*
X371531Y305500D02*
X372000Y305969D01*
Y322122D01*
X363500Y305500D02*
X371531D01*
X358925Y286425D02*
Y293555D01*
X352500Y280000D02*
X358925Y286425D01*
X336040Y280000D02*
X352500D01*
X330437Y274397D02*
X336040Y280000D01*
X355500Y278500D02*
X362075Y285075D01*
X332405Y273406D02*
X337500Y278500D01*
X355500D01*
X334374Y272874D02*
X338000Y276500D01*
X362075Y285075D02*
Y293555D01*
X351555Y300445D02*
X355776D01*
X350509Y301491D02*
Y314009D01*
Y301491D02*
X351555Y300445D01*
X352100Y315600D02*
Y322122D01*
X350509Y314009D02*
X352100Y315600D01*
X420614Y300000D02*
X427744D01*
X378500Y296500D02*
X387000Y288000D01*
X403703D01*
X358963Y300482D02*
Y304463D01*
X359000Y304500D01*
X358925Y300445D02*
X358963Y300482D01*
X358925Y293555D02*
Y296414D01*
X358339Y297000D02*
X358925Y296414D01*
X347963Y297000D02*
X358339D01*
X409490Y295768D02*
Y300128D01*
X409563Y300201D01*
X332405Y267531D02*
Y273406D01*
X362075Y304075D02*
X363500Y305500D01*
X362075Y300445D02*
Y304075D01*
X195500Y237800D02*
X197300D01*
X195500Y232600D02*
X197300D01*
X197300Y323800D02*
X197300D01*
X195500D02*
X197300D01*
X195500Y318600D02*
X197300D01*
X195500Y194800D02*
X197300D01*
X195500Y189600D02*
X197300D01*
X195500Y280800D02*
X197300D01*
X195500Y275600D02*
X197300D01*
X183800Y321200D02*
X187800D01*
X330437Y267531D02*
Y274397D01*
X328468Y267531D02*
Y274969D01*
X338000Y284500D02*
X345500D01*
X328468Y274969D02*
X338000Y284500D01*
X334374Y267531D02*
Y272874D01*
X183800Y192200D02*
X187800D01*
X183800Y235200D02*
X187800D01*
X183800Y278200D02*
X187800D01*
X419012Y338512D02*
X431500Y351000D01*
Y357000D01*
X419012Y322799D02*
Y338512D01*
X417437Y322799D02*
Y343937D01*
X421500Y348000D02*
Y357000D01*
X417437Y343937D02*
X421500Y348000D01*
X415862Y322799D02*
Y344138D01*
X411500Y348500D02*
Y357000D01*
Y348500D02*
X415862Y344138D01*
X401500Y350000D02*
X414287Y337213D01*
X401500Y350000D02*
Y357000D01*
X414287Y322799D02*
Y337213D01*
X391500Y351500D02*
X412713Y330287D01*
Y322799D02*
Y330287D01*
X391500Y351500D02*
Y357000D01*
X381500Y351500D02*
X402500Y330500D01*
X409000D01*
X381500Y351500D02*
Y357000D01*
X411138Y322799D02*
Y328362D01*
X409000Y330500D02*
X411138Y328362D01*
X371950Y334550D02*
Y356550D01*
X352100Y341100D02*
X361500Y350500D01*
X352100Y334500D02*
Y341100D01*
X361500Y350500D02*
Y357000D01*
X427438Y327221D02*
X429784Y324875D01*
Y322880D02*
Y324875D01*
X424013Y329513D02*
X427309D01*
X422161Y327661D02*
X424013Y329513D01*
X427438Y327221D02*
Y329384D01*
X427309Y329513D02*
X427438Y329384D01*
X422161Y322799D02*
Y327661D01*
X429784Y322880D02*
X430000Y322664D01*
X420587Y300028D02*
Y300201D01*
Y300028D02*
X420614Y300000D01*
X421664Y317336D02*
X430000D01*
X420587Y318413D02*
X421664Y317336D01*
X420587Y318413D02*
Y322799D01*
X384926Y267243D02*
X412710Y295028D01*
X382893Y267243D02*
X384926D01*
X412710Y295028D02*
Y300198D01*
X412713Y300201D01*
X411138Y295435D02*
Y300201D01*
X403703Y288000D02*
X411138Y295435D01*
X336743Y267243D02*
X382893D01*
X352500Y284500D02*
X355776Y287776D01*
X345500Y284500D02*
X352500D01*
X355776Y287776D02*
Y293555D01*
D19*
X417437Y275937D02*
D03*
X401500Y268000D02*
D03*
X405500Y279500D02*
D03*
X390500Y273000D02*
D03*
X365224Y281724D02*
D03*
X383500Y300500D02*
D03*
X355500Y278500D02*
D03*
X371766Y305734D02*
D03*
X358925Y286425D02*
D03*
X387000Y288000D02*
D03*
X352500Y284500D02*
D03*
X350509Y304609D02*
D03*
X445125Y200752D02*
D03*
X498523Y197511D02*
D03*
X463591Y208618D02*
D03*
X422730Y286000D02*
D03*
X437000Y317500D02*
D03*
X342286Y322122D02*
D03*
D20*
X428000Y286000D02*
D03*
X433328D02*
D03*
X337202Y322122D02*
D03*
X331874D02*
D03*
D21*
X356000Y315256D02*
D03*
Y309744D02*
D03*
X380214Y334323D02*
D03*
X360314Y334178D02*
D03*
X380500Y322000D02*
D03*
X492275Y203114D02*
D03*
X351500Y221244D02*
D03*
X298913Y237744D02*
D03*
X380500Y316488D02*
D03*
X360314Y339690D02*
D03*
X380214Y339835D02*
D03*
X492275Y197602D02*
D03*
X351500Y226756D02*
D03*
X298913Y243256D02*
D03*
D22*
X365224Y293555D02*
D03*
X362075D02*
D03*
X358925D02*
D03*
X355776D02*
D03*
Y300445D02*
D03*
X358925D02*
D03*
X362075D02*
D03*
X365224D02*
D03*
D23*
X409563Y300201D02*
D03*
X419012Y322799D02*
D03*
X417437D02*
D03*
X415862D02*
D03*
X414287D02*
D03*
X412713D02*
D03*
X411138D02*
D03*
X422161D02*
D03*
Y300201D02*
D03*
X420587D02*
D03*
X404839D02*
D03*
X419012D02*
D03*
X404839Y322799D02*
D03*
X406413D02*
D03*
X420587D02*
D03*
X409563D02*
D03*
X407988D02*
D03*
X406413Y300201D02*
D03*
X407988D02*
D03*
X411138D02*
D03*
X412713D02*
D03*
X414287D02*
D03*
X415862D02*
D03*
X417437D02*
D03*
D24*
X332405Y267531D02*
D03*
X337032Y258968D02*
D03*
Y257000D02*
D03*
Y255031D02*
D03*
Y251095D02*
D03*
Y249126D02*
D03*
X328468Y246468D02*
D03*
X332405D02*
D03*
X330437D02*
D03*
X326500Y267531D02*
D03*
X324532D02*
D03*
X318626D02*
D03*
X315968Y258968D02*
D03*
Y264874D02*
D03*
Y255031D02*
D03*
Y257000D02*
D03*
X326500Y246468D02*
D03*
X318626D02*
D03*
X324532D02*
D03*
X315968Y249126D02*
D03*
X334374Y246468D02*
D03*
X322563D02*
D03*
X320595D02*
D03*
X315968Y251095D02*
D03*
Y253063D02*
D03*
Y260937D02*
D03*
Y262906D02*
D03*
X320595Y267531D02*
D03*
X322563D02*
D03*
X328468D02*
D03*
X330437D02*
D03*
X334374D02*
D03*
X337032Y264874D02*
D03*
Y262906D02*
D03*
Y260937D02*
D03*
Y253063D02*
D03*
D25*
X372000Y322122D02*
D03*
X352100D02*
D03*
X372000Y334500D02*
D03*
X352100D02*
D03*
X368063Y322122D02*
D03*
X373969Y334500D02*
D03*
X354068D02*
D03*
X373969Y322122D02*
D03*
X354068D02*
D03*
X348163D02*
D03*
Y334500D02*
D03*
X368063D02*
D03*
X350132D02*
D03*
Y322122D02*
D03*
X370031Y334500D02*
D03*
Y322122D02*
D03*
D26*
X415756Y168504D02*
D03*
X410244D02*
D03*
X415756Y176000D02*
D03*
X410244D02*
D03*
X427309Y329513D02*
D03*
X341720Y338004D02*
D03*
X341634Y345500D02*
D03*
X427744Y300000D02*
D03*
X345905Y257000D02*
D03*
X452914Y208898D02*
D03*
X441744Y194504D02*
D03*
X463012Y178500D02*
D03*
X462927Y170511D02*
D03*
X336122Y345500D02*
D03*
X336208Y338004D02*
D03*
X432821Y329513D02*
D03*
X340281Y229705D02*
D03*
X297987Y281587D02*
D03*
X433256Y300000D02*
D03*
X351760Y242730D02*
D03*
X351417Y257000D02*
D03*
X447256Y194504D02*
D03*
X458426Y208898D02*
D03*
X457415Y170511D02*
D03*
X457500Y178500D02*
D03*
X334769Y229705D02*
D03*
X303499Y281587D02*
D03*
X346248Y242730D02*
D03*
D27*
X364500Y315164D02*
D03*
X430000Y322664D02*
D03*
X364500Y309836D02*
D03*
X430000Y317336D02*
D03*
D28*
X436000Y169500D02*
D03*
X449000D02*
D03*
D29*
X343037Y297000D02*
D03*
X347963D02*
D03*
D30*
X469227Y194000D02*
D03*
D31*
X331067Y261567D02*
D03*
Y252433D02*
D03*
X321933Y261567D02*
D03*
Y252433D02*
D03*
D32*
X435782Y185000D02*
D03*
X441500D02*
D03*
D33*
X472000Y330500D02*
D03*
X477906D02*
D03*
D34*
X298414Y273500D02*
D03*
X351173Y234643D02*
D03*
X339876Y237791D02*
D03*
X334948D02*
D03*
X303342Y273500D02*
D03*
X346245Y234643D02*
D03*
D35*
X307000Y238036D02*
D03*
Y242964D02*
D03*
D36*
X490087Y173864D02*
D03*
Y179583D02*
D03*
D37*
X191650Y321200D02*
D03*
Y278200D02*
D03*
Y235200D02*
D03*
Y192200D02*
D03*
D38*
X187800Y318600D02*
D03*
Y323800D02*
D03*
Y275600D02*
D03*
Y280800D02*
D03*
Y194800D02*
D03*
Y237800D02*
D03*
Y232600D02*
D03*
Y189600D02*
D03*
Y192200D02*
D03*
X195500Y189600D02*
D03*
Y192200D02*
D03*
Y194800D02*
D03*
X187800Y235200D02*
D03*
X195500Y232600D02*
D03*
Y235200D02*
D03*
Y237800D02*
D03*
X187800Y278200D02*
D03*
X195500Y275600D02*
D03*
Y278200D02*
D03*
Y280800D02*
D03*
X187800Y321200D02*
D03*
X195500Y318600D02*
D03*
Y321200D02*
D03*
Y323800D02*
D03*
D39*
X458500Y191500D02*
D03*
Y201500D02*
D03*
Y196500D02*
D03*
X479955Y186500D02*
D03*
Y191500D02*
D03*
Y196500D02*
D03*
Y201500D02*
D03*
X458500Y186500D02*
D03*
D40*
X449638Y183929D02*
D03*
Y178605D02*
D03*
D41*
X154000Y192200D02*
D03*
X499000Y253000D02*
D03*
X154000Y321200D02*
D03*
Y278200D02*
D03*
Y235200D02*
D03*
D42*
X477867Y322000D02*
D03*
X473134D02*
D03*
D43*
X336743Y267243D02*
D03*
X316257D02*
D03*
Y246757D02*
D03*
X336743D02*
D03*
D44*
X241322Y320227D02*
G03*
X239749Y318654I0J-1573D01*
G01*
X232711Y317328D02*
G03*
X239749Y317328I3519J0D01*
G01*
X232711Y325154D02*
G03*
X229565Y325154I-1573J0D01*
G01*
X226046Y320227D02*
G03*
X229565Y323746I0J3519D01*
G01*
X241322Y322173D02*
G03*
X237803Y318654I0J-3519D01*
G01*
X234657Y317328D02*
G03*
X237803Y317328I1573J0D01*
G01*
X234657Y325154D02*
G03*
X227619Y325154I-3519J0D01*
G01*
X226046Y322173D02*
G03*
X227619Y323746I0J1573D01*
G01*
X230165Y277227D02*
G03*
X228592Y275654I0J-1573D01*
G01*
X221554Y270432D02*
G03*
X228592Y270432I3519J0D01*
G01*
X221554Y285000D02*
G03*
X218408Y285000I-1573J0D01*
G01*
X214889Y277227D02*
G03*
X218408Y280746I0J3519D01*
G01*
X230165Y279173D02*
G03*
X226646Y275654I0J-3519D01*
G01*
X223500Y270432D02*
G03*
X226646Y270432I1573J0D01*
G01*
X223500Y285000D02*
G03*
X216462Y285000I-3519J0D01*
G01*
X214889Y279173D02*
G03*
X216462Y280746I0J1573D01*
G01*
X234598Y234227D02*
G03*
X233025Y232654I0J-1573D01*
G01*
X225987Y230565D02*
G03*
X233025Y230565I3519J0D01*
G01*
X225987Y240034D02*
G03*
X222841Y240034I-1573J0D01*
G01*
X215803Y230565D02*
G03*
X222841Y230565I3519J0D01*
G01*
X215803Y240034D02*
G03*
X212657Y240034I-1573J0D01*
G01*
X209138Y234227D02*
G03*
X212657Y237746I0J3519D01*
G01*
X234598Y236173D02*
G03*
X231079Y232654I0J-3519D01*
G01*
X227933Y230565D02*
G03*
X231079Y230565I1573J0D01*
G01*
X227933Y240034D02*
G03*
X220895Y240034I-3519J0D01*
G01*
X217749Y230565D02*
G03*
X220895Y230565I1573J0D01*
G01*
X217749Y240034D02*
G03*
X210711Y240034I-3519J0D01*
G01*
X209138Y236173D02*
G03*
X210711Y237746I0J1573D01*
G01*
X236822Y191227D02*
G03*
X235249Y189654I0J-1573D01*
G01*
X228211Y188490D02*
G03*
X235249Y188490I3519J0D01*
G01*
X228211Y196075D02*
G03*
X225065Y196075I-1573J0D01*
G01*
X221546Y191227D02*
G03*
X225065Y194746I0J3519D01*
G01*
X236822Y193173D02*
G03*
X233303Y189654I0J-3519D01*
G01*
X230157Y188490D02*
G03*
X233303Y188490I1573J0D01*
G01*
X230157Y196075D02*
G03*
X223119Y196075I-3519J0D01*
G01*
X221546Y193173D02*
G03*
X223119Y194746I0J1573D01*
G01*
X288575Y206348D02*
G03*
X290446Y206348I936J936D01*
G01*
X288551Y206372D02*
G03*
X286680Y206372I-936J-936D01*
G01*
X286680Y206372D02*
G03*
X286680Y204501I936J-936D01*
G01*
X286704Y202606D02*
G03*
X286704Y204477I-936J936D01*
G01*
X288235Y309701D02*
G03*
X286365Y309701I-936J-936D01*
G01*
X284483Y309690D02*
G03*
X286353Y309690I936J936D01*
G01*
X284483Y311561D02*
G03*
X284483Y309690I936J-936D01*
G01*
X284493Y311572D02*
G03*
X284493Y313443I-936J936D01*
G01*
X279316Y318621D02*
G03*
X277015Y319951I-3648J-3655D01*
G01*
D02*
G03*
X276654Y320035I-1347J-4986D01*
G01*
X320497Y269295D02*
G03*
X320501Y269148I3092J0D01*
G01*
X320497Y275488D02*
G03*
X319122Y278815I-4712J0D01*
G01*
D02*
G03*
X319121Y278816I-810J-810D01*
G01*
X275670Y320227D02*
G03*
X275668Y320227I-7J-1146D01*
G01*
X275944Y320208D02*
G03*
X275942Y320209I-151J-1136D01*
G01*
X322443Y275488D02*
G03*
X320499Y280190I-6658J0D01*
G01*
X280692Y319997D02*
G03*
X277032Y321944I-5024J-5032D01*
G01*
X276913Y321974D02*
G03*
X277032Y321944I347J1092D01*
G01*
X276204Y322137D02*
G03*
X276199Y322138I-411J-3065D01*
G01*
X275676Y322173D02*
G03*
X275673Y322173I-13J-3092D01*
G01*
X275942Y320209D02*
G03*
X275670Y320227I-274J-2041D01*
G01*
X275673Y322173D02*
G03*
X275668Y322173I-5J-1946D01*
G01*
X322443Y269295D02*
G03*
X322445Y269229I1146J0D01*
G01*
X276913Y321974D02*
G03*
X276204Y322137I-1245J-3807D01*
G01*
X276199Y322138D02*
G03*
X275676Y322173I-531J-3970D01*
G01*
X320499Y280190D02*
G03*
X320496Y280193I-2188J-2185D01*
G01*
X276313Y320123D02*
G03*
X275944Y320208I-645J-1955D01*
G01*
X276313Y320123D02*
G03*
X276654Y320035I948J2943D01*
G01*
X319166Y235068D02*
X319165Y235067D01*
X319168Y235070D02*
G03*
X319166Y235068I1373J-1379D01*
G01*
X319170Y235072D02*
G03*
X320600Y238526I-3455J3453D01*
G01*
X320546Y233696D02*
G03*
X322546Y238526I-4830J4830D01*
G01*
X320541Y233691D02*
G03*
X320543Y233694I-1376J1376D01*
G01*
X278435Y194337D02*
G03*
X278434Y194336I1377J-1376D01*
G01*
X278435Y194338D02*
G03*
X278435Y194337I688J-688D01*
G01*
X276107Y191246D02*
G03*
X279809Y192959I-474J5879D01*
G01*
X275958Y193186D02*
G03*
X278433Y194335I-325J3939D01*
G01*
X278434Y194336D02*
G03*
X278433Y194335I1378J-1374D01*
G01*
X279809Y192959D02*
G03*
X279812Y192962I-1374J1378D01*
G01*
X275626Y193173D02*
G03*
X275956Y193186I8J3952D01*
G01*
X275626Y191227D02*
G03*
X275629Y191227I0J1946D01*
G01*
X276105Y191246D02*
G03*
X276107Y191246I-72J970D01*
G01*
X275629Y191227D02*
G03*
X276105Y191246I5J5898D01*
G01*
X275958Y193186D02*
G03*
X275956Y193186I74J-970D01*
G01*
X199446Y193727D02*
G03*
X200789Y193173I1344J1352D01*
G01*
X199132Y194041D02*
G03*
X197300Y194800I-1832J-1832D01*
G01*
X200548Y191227D02*
G03*
X199612Y190840I0J-1323D01*
G01*
X197300Y189600D02*
G03*
X199132Y190359I0J2590D01*
G01*
X200548Y320227D02*
G03*
X199612Y319840I0J-1323D01*
G01*
X197300Y318600D02*
G03*
X199132Y319359I0J2590D01*
G01*
X199446Y322727D02*
G03*
X200789Y322173I1344J1352D01*
G01*
X243126Y236173D02*
G03*
X243457Y236186I8J4088D01*
G01*
X243460Y236186D02*
G03*
X243457Y236186I72J-970D01*
G01*
X243460Y236186D02*
G03*
X246024Y237370I-326J4075D01*
G01*
X246028Y237374D02*
G03*
X246024Y237370I1376J-1376D01*
G01*
X243126Y234227D02*
G03*
X243129Y234227I0J1946D01*
G01*
X243603Y234245D02*
G03*
X243605Y234245I-70J970D01*
G01*
D02*
G03*
X247404Y235998I-471J6015D01*
G01*
D02*
G03*
X247405Y235999I-1375J1377D01*
G01*
X243129Y234227D02*
G03*
X243603Y234245I5J6034D01*
G01*
X264039Y253052D02*
G03*
X264030Y253052I0J-1946D01*
G01*
D02*
G03*
X264024Y253052I-3J-3092D01*
G01*
X199132Y237041D02*
G03*
X197300Y237800I-1832J-1832D01*
G01*
X199446Y236727D02*
G03*
X200789Y236173I1344J1352D01*
G01*
X264036Y251106D02*
G03*
X264039Y251106I3J973D01*
G01*
X264036D02*
G03*
X264027Y251106I-9J-1146D01*
G01*
X261428Y250022D02*
G03*
X261430Y250024I-1376J1376D01*
G01*
X264024Y253052D02*
G03*
X260054Y251400I15J-5633D01*
G01*
X197300Y232600D02*
G03*
X199132Y233359I0J2590D01*
G01*
X200548Y234227D02*
G03*
X199612Y233840I0J-1323D01*
G01*
X264027Y251106D02*
G03*
X261430Y250024I12J-3687D01*
G01*
X260054Y251400D02*
G03*
X260051Y251397I1374J-1378D01*
G01*
X259223Y262025D02*
G03*
X261828Y260948I2610J2622D01*
G01*
X246575Y277425D02*
G03*
X246568Y277432I-1382J-1370D01*
G01*
X260596Y263404D02*
G03*
X261830Y262894I1236J1244D01*
G01*
X246563Y277437D02*
G03*
X242383Y279173I-4188J-4183D01*
G01*
D02*
G03*
X242375Y279173I-8J-1946D01*
G01*
X246568Y277432D02*
G03*
X246563Y277437I-1376J-1376D01*
G01*
X245187Y276061D02*
G03*
X242375Y277227I-2811J-2807D01*
G01*
X245189Y276059D02*
G03*
X245193Y276055I1380J1372D01*
G01*
X200548Y277227D02*
G03*
X199612Y276839I0J-1323D01*
G01*
X197300Y275600D02*
G03*
X199132Y276359I0J2590D01*
G01*
X199446Y279727D02*
G03*
X200789Y279173I1344J1352D01*
G01*
X199132Y280041D02*
G03*
X197300Y280800I-1832J-1832D01*
G01*
X199132Y323041D02*
G03*
X197300Y323800I-1832J-1832D01*
G01*
X241322Y320227D02*
X249000D01*
X239749Y317328D02*
Y318654D01*
X232711Y317328D02*
Y325154D01*
X229565Y323746D02*
Y325154D01*
X224500Y320227D02*
X226046D01*
X241322Y322173D02*
X249000D01*
X237803Y317328D02*
Y318654D01*
X234657Y317328D02*
Y325154D01*
X227619Y323746D02*
Y325154D01*
X224500Y322173D02*
X226046D01*
X230165Y277227D02*
X234944D01*
X228592Y270432D02*
Y275654D01*
X221554Y270432D02*
Y285000D01*
X218408Y280746D02*
Y285000D01*
X213343Y277227D02*
X214889D01*
X230165Y279173D02*
X234944D01*
X226646Y270432D02*
Y275654D01*
X223500Y270432D02*
Y285000D01*
X216462Y280746D02*
Y285000D01*
X213343Y279173D02*
X214889D01*
X234598Y234227D02*
X242451D01*
X233025Y230565D02*
Y232654D01*
X225987Y230565D02*
Y240034D01*
X222841Y230565D02*
Y240034D01*
X215803Y230565D02*
Y240034D01*
X212657Y237746D02*
Y240034D01*
X207592Y234227D02*
X209138D01*
X234598Y236173D02*
X242451D01*
X231079Y230565D02*
Y232654D01*
X227933Y230565D02*
Y240034D01*
X220895Y230565D02*
Y240034D01*
X217749Y230565D02*
Y240034D01*
X210711Y237746D02*
Y240034D01*
X207592Y236173D02*
X209138D01*
X236822Y191227D02*
X266277D01*
X235249Y188490D02*
Y189654D01*
X228211Y188490D02*
Y196075D01*
X225065Y194746D02*
Y196075D01*
X220000Y191227D02*
X221546D01*
X236822Y193173D02*
X266277D01*
X233303Y188490D02*
Y189654D01*
X230157Y188490D02*
Y196075D01*
X223119Y194746D02*
Y196075D01*
X220000Y193173D02*
X221546D01*
X266277Y191227D02*
X275626D01*
X266277Y193173D02*
X275626D01*
X200548Y191227D02*
X220000D01*
X200789Y193173D02*
X220000D01*
X200548Y234227D02*
X207592D01*
X200789Y236173D02*
X207592D01*
X242451Y234227D02*
X243126D01*
X242451Y236173D02*
X243126D01*
X200548Y320227D02*
X224500D01*
X200789Y322173D02*
X224500D01*
X249000Y320227D02*
X275668D01*
X249000Y322173D02*
X275668D01*
X234944Y277227D02*
X242375D01*
X234944Y279173D02*
X242375D01*
X200548Y277227D02*
X213343D01*
X200789Y279173D02*
X213343D01*
X290446Y206348D02*
X297299Y213201D01*
X288575Y206348D02*
X288575Y206348D01*
X288551Y206372D02*
X288575Y206348D01*
X286680Y206372D02*
X286680Y206372D01*
X286680Y204501D02*
X286704Y204477D01*
X286299Y202201D02*
X286704Y202606D01*
X297299Y213201D02*
X319165Y235067D01*
X278435Y194338D02*
X286299Y202201D01*
X291822Y306115D02*
X319121Y278816D01*
X291417Y306520D02*
X291822Y306115D01*
X288235Y309701D02*
X291417Y306520D01*
X286353Y309690D02*
X286365Y309701D01*
X284483Y311561D02*
X284493Y311572D01*
X282622Y315315D02*
X284493Y313443D01*
X282217Y315720D02*
X282622Y315315D01*
X282217Y315720D02*
X282217D01*
X279316Y318621D02*
X282217Y315720D01*
X291845Y308844D02*
X298457Y302232D01*
X320496Y280193D01*
X280692Y319997D02*
X291845Y308844D01*
X320577Y267549D02*
X320595Y267531D01*
X320501Y269148D02*
X320577Y267549D01*
X322445Y269229D02*
X322545Y267549D01*
X322540Y267554D02*
X322545Y267549D01*
X320497Y269295D02*
Y275488D01*
X322443Y269295D02*
Y275488D01*
X319168Y235070D02*
X319170Y235072D01*
X279812Y192962D02*
X320541Y233691D01*
X320600Y238526D02*
Y246451D01*
X320543Y233694D02*
X320546Y233696D01*
X322546Y238526D02*
Y246451D01*
X322563Y246468D01*
X320595D02*
X320600Y246451D01*
X199271Y193902D02*
X199446Y193727D01*
X199132Y194041D02*
X199271Y193902D01*
X199132Y190359D02*
X199612Y190840D01*
X200789Y193173D02*
X200789Y193173D01*
X200548Y191227D02*
X200548D01*
X199132Y319359D02*
X199612Y319840D01*
X200789Y322173D02*
X200789Y322173D01*
X247405Y235999D02*
X261427Y250022D01*
X246028Y237374D02*
X260051Y251397D01*
X200789Y236173D02*
X200789Y236173D01*
X199132Y237041D02*
X199271Y236902D01*
X200548Y234227D02*
X200548D01*
X199271Y236902D02*
X199446Y236727D01*
X199132Y233359D02*
X199612Y233840D01*
X264039Y251106D02*
X315922D01*
X264039Y253052D02*
X315957D01*
X315968Y253063D01*
X315922Y251106D02*
X315933Y251095D01*
X315968D01*
X261830Y262894D02*
X315951D01*
X261828Y260948D02*
X315951D01*
Y262894D02*
X315968Y262906D01*
X246575Y277425D02*
X260596Y263404D01*
X245193Y276055D02*
X259223Y262025D01*
X315951Y260948D02*
X315968Y260937D01*
X245187Y276061D02*
X245189Y276059D01*
X199132Y276359D02*
X199612Y276839D01*
X200789Y279173D02*
X200789Y279173D01*
X199132Y280041D02*
X199271Y279902D01*
X199446Y279727D01*
X199271Y322902D02*
X199446Y322727D01*
X199132Y323041D02*
X199271Y322902D01*
D45*
X278434Y194336D02*
D03*
D50*
X154000Y321200D02*
X183800D01*
X154000Y192200D02*
X183800D01*
X154000Y235200D02*
X183800D01*
X154000Y278200D02*
X183800D01*
X339500Y253063D02*
X498000Y253063D01*
D54*
X476500Y357000D02*
D03*
Y157000D02*
D03*
X176500Y357000D02*
D03*
Y157000D02*
D03*
D55*
X489400Y262000D02*
D03*
Y244000D02*
D03*
X163600Y330200D02*
D03*
Y312200D02*
D03*
Y269200D02*
D03*
Y287200D02*
D03*
Y226200D02*
D03*
Y244200D02*
D03*
Y183200D02*
D03*
Y201200D02*
D03*
D56*
X337032Y253063D02*
X339500D01*
D57*
X327750Y240250D02*
D03*
D58*
X187250Y330250D02*
D03*
D59*
X190764Y314600D02*
D03*
D60*
X189000Y286750D02*
D03*
X190500Y184750D02*
D03*
D61*
X191400Y271100D02*
D03*
D62*
X188250Y244250D02*
D03*
D63*
X190400Y228350D02*
D03*
D64*
X190000Y200750D02*
D03*
D65*
X180400Y282582D02*
D03*
D66*
X180900Y273868D02*
D03*
Y316868D02*
D03*
D67*
X180650Y239832D02*
D03*
D68*
X180900Y230618D02*
D03*
D69*
Y196582D02*
D03*
D70*
X181150Y187618D02*
D03*
D71*
X179929Y325832D02*
D03*
D72*
X450489Y184947D02*
D03*
D73*
X340750Y234000D02*
D03*
D74*
X485000Y185250D02*
D03*
D75*
X430750Y162500D02*
D03*
D76*
X478400Y257463D02*
D03*
D77*
Y248787D02*
D03*
D78*
X174350Y316637D02*
D03*
Y230638D02*
D03*
D79*
Y325650D02*
D03*
D80*
Y282812D02*
D03*
Y196812D02*
D03*
D81*
Y273887D02*
D03*
D82*
X174850Y239563D02*
D03*
D83*
X174350Y187388D02*
D03*
D84*
X458500Y199100D02*
D03*
D85*
X453067Y173414D02*
D03*
D86*
X396000Y157000D02*
D03*
X406000D02*
D03*
X426000D02*
D03*
X416000D02*
D03*
X351500Y357000D02*
D03*
X381500D02*
D03*
X401500D02*
D03*
X421500D02*
D03*
X411500D02*
D03*
X391500D02*
D03*
X371500D02*
D03*
X361500D02*
D03*
X341500D02*
D03*
X331500D02*
D03*
X321500D02*
D03*
D87*
X436000Y157000D02*
D03*
X431500Y357000D02*
D03*
D88*
X494000Y258000D02*
D03*
X484000D02*
D03*
X489000D02*
D03*
X499000Y257200D02*
D03*
X479000D02*
D03*
Y248800D02*
D03*
X499000D02*
D03*
X494000Y248000D02*
D03*
X484000D02*
D03*
X489000D02*
D03*
X169000Y326200D02*
D03*
X174000Y325400D02*
D03*
X164000Y326200D02*
D03*
X174000Y317000D02*
D03*
X169000Y316200D02*
D03*
X164000D02*
D03*
X159000Y326200D02*
D03*
X154000Y325400D02*
D03*
Y317000D02*
D03*
X159000Y316200D02*
D03*
X174000Y282400D02*
D03*
Y274000D02*
D03*
X164000Y283200D02*
D03*
X169000D02*
D03*
X164000Y273200D02*
D03*
X169000D02*
D03*
X159000Y283200D02*
D03*
X154000Y282400D02*
D03*
X159000Y273200D02*
D03*
X154000Y274000D02*
D03*
X174000Y239400D02*
D03*
Y231000D02*
D03*
X164000Y240200D02*
D03*
X169000D02*
D03*
X164000Y230200D02*
D03*
X169000D02*
D03*
X159000Y240200D02*
D03*
X154000Y239400D02*
D03*
Y231000D02*
D03*
X159000Y230200D02*
D03*
X174000Y196400D02*
D03*
Y188000D02*
D03*
X164000Y197200D02*
D03*
X169000D02*
D03*
X164000Y187200D02*
D03*
X169000D02*
D03*
X159000Y197200D02*
D03*
X154000Y196400D02*
D03*
X159000Y187200D02*
D03*
X154000Y188000D02*
D03*
D89*
X328000Y240500D02*
D03*
X191000Y314500D02*
D03*
X187500Y330500D02*
D03*
X188500Y287000D02*
D03*
X191300Y271143D02*
D03*
X188500Y244000D02*
D03*
X190910Y227955D02*
D03*
X190375Y200292D02*
D03*
X190840Y185070D02*
D03*
X181000Y188000D02*
D03*
Y196500D02*
D03*
Y231000D02*
D03*
Y239500D02*
D03*
Y274000D02*
D03*
Y282000D02*
D03*
Y317000D02*
D03*
Y325500D02*
D03*
X344000Y309500D02*
D03*
X302000Y230500D02*
D03*
X293000Y235000D02*
D03*
Y277500D02*
D03*
X294000Y287000D02*
D03*
X356500Y238500D02*
D03*
X356000Y230500D02*
D03*
X345500Y220500D02*
D03*
X454500Y215000D02*
D03*
X484500Y206500D02*
D03*
X490000Y168000D02*
D03*
X463000Y165000D02*
D03*
X468500Y174500D02*
D03*
X433000Y178500D02*
D03*
X421000Y176500D02*
D03*
X406000Y164500D02*
D03*
X404500Y172000D02*
D03*
X407500Y181000D02*
D03*
X430000Y190000D02*
D03*
X437500Y199500D02*
D03*
X450000Y204000D02*
D03*
X465500Y330500D02*
D03*
X437000Y334000D02*
D03*
Y324500D02*
D03*
X438500Y300000D02*
D03*
X348000Y328000D02*
D03*
X334500Y332500D02*
D03*
X331500Y349500D02*
D03*
Y342000D02*
D03*
X346500Y344000D02*
D03*
X355000Y350000D02*
D03*
X365272Y343500D02*
D03*
X376500Y347500D02*
D03*
X386000Y341500D02*
D03*
X398500Y328500D02*
D03*
X399000Y319500D02*
D03*
X380500Y311000D02*
D03*
X399000Y301000D02*
D03*
X401000Y294500D02*
D03*
X381500Y271500D02*
D03*
X394500Y284000D02*
D03*
X347500Y273000D02*
D03*
X369500Y290500D02*
D03*
X354550Y305500D02*
D03*
X425517Y249620D02*
D03*
X463017D02*
D03*
X342750Y257000D02*
D03*
X308500Y273500D02*
D03*
X293000Y241000D02*
D03*
X342000Y233500D02*
D03*
X346000Y227000D02*
D03*
X303498Y223522D02*
D03*
X220710Y325087D02*
D03*
X213210D02*
D03*
X205710D02*
D03*
X198359Y326575D02*
D03*
X196860Y315773D02*
D03*
X204200Y317313D02*
D03*
X211700D02*
D03*
X219200D02*
D03*
X226699Y317391D02*
D03*
X232242Y312338D02*
D03*
X239733Y311966D02*
D03*
X244992Y317313D02*
D03*
X252492D02*
D03*
X259992D02*
D03*
X267492D02*
D03*
X274992D02*
D03*
X280997Y312819D02*
D03*
X284952Y306446D02*
D03*
X291324Y302491D02*
D03*
X296627Y297188D02*
D03*
X301931Y291885D02*
D03*
X307234Y286581D02*
D03*
X312537Y281278D02*
D03*
X317566Y275713D02*
D03*
X324197Y279957D02*
D03*
X319232Y285578D02*
D03*
X313929Y290882D02*
D03*
X308625Y296185D02*
D03*
X303322Y301488D02*
D03*
X298019Y306792D02*
D03*
X292715Y312095D02*
D03*
X287412Y317398D02*
D03*
X282046Y322638D02*
D03*
X274957Y325087D02*
D03*
X267457D02*
D03*
X259957D02*
D03*
X252457D02*
D03*
X244957D02*
D03*
X237492Y325813D02*
D03*
X232506Y331415D02*
D03*
X213443Y282087D02*
D03*
X205943D02*
D03*
X198580Y283514D02*
D03*
X197855Y272759D02*
D03*
X205192Y274313D02*
D03*
X212692D02*
D03*
X218710Y269836D02*
D03*
X223647Y264191D02*
D03*
X230546Y267132D02*
D03*
X232712Y274313D02*
D03*
X240212D02*
D03*
X246654Y270472D02*
D03*
X251958Y265169D02*
D03*
X257280Y259885D02*
D03*
X309787Y265809D02*
D03*
X302287D02*
D03*
X294787D02*
D03*
X287287D02*
D03*
X279787D02*
D03*
X272287D02*
D03*
X264787D02*
D03*
X258393Y269728D02*
D03*
X253090Y275032D02*
D03*
X247702Y280249D02*
D03*
X240430Y282087D02*
D03*
X232930D02*
D03*
X226335Y285659D02*
D03*
X221349Y291261D02*
D03*
X307052Y255966D02*
D03*
X299552D02*
D03*
X292052D02*
D03*
X284552D02*
D03*
X277052D02*
D03*
X269552D02*
D03*
X262057Y255700D02*
D03*
X255920Y251388D02*
D03*
X250617Y246084D02*
D03*
X245314Y240781D02*
D03*
X238007Y239087D02*
D03*
X230737Y240928D02*
D03*
X225532Y246327D02*
D03*
X218135Y245086D02*
D03*
X210639Y245328D02*
D03*
X206479Y239087D02*
D03*
X199090Y240375D02*
D03*
X199967Y230437D02*
D03*
X207416Y231313D02*
D03*
X213796Y227370D02*
D03*
X220638Y224297D02*
D03*
X228138Y224304D02*
D03*
X235005Y227319D02*
D03*
X241354Y231313D02*
D03*
X248603Y233235D02*
D03*
X253986Y238458D02*
D03*
X259289Y243761D02*
D03*
X265340Y248191D02*
D03*
X272840D02*
D03*
X280341D02*
D03*
X287841D02*
D03*
X295340D02*
D03*
X302840D02*
D03*
X310340D02*
D03*
X317686Y240718D02*
D03*
X314105Y234128D02*
D03*
X308801Y228825D02*
D03*
X298195Y218218D02*
D03*
X292892Y212915D02*
D03*
X286264Y209405D02*
D03*
X282753Y202777D02*
D03*
X277450Y197474D02*
D03*
X270079Y196087D02*
D03*
X262579D02*
D03*
X255079D02*
D03*
X247579D02*
D03*
X240079D02*
D03*
X232783Y197825D02*
D03*
X226898Y202474D02*
D03*
X220655Y198318D02*
D03*
X213494Y196087D02*
D03*
X205995D02*
D03*
X198628Y197497D02*
D03*
X198036Y186783D02*
D03*
X205378Y188313D02*
D03*
X212878D02*
D03*
X220378D02*
D03*
X226795Y184431D02*
D03*
X234053Y182540D02*
D03*
X238841Y188313D02*
D03*
X246340D02*
D03*
X253840D02*
D03*
X261340D02*
D03*
X268841D02*
D03*
X276340Y188359D02*
D03*
X282924Y191952D02*
D03*
X288227Y197256D02*
D03*
X293530Y202559D02*
D03*
X298834Y207862D02*
D03*
X304137Y213166D02*
D03*
X309440Y218469D02*
D03*
X314743Y223772D02*
D03*
X320047Y229076D02*
D03*
X324738Y234927D02*
D03*
X338500Y297000D02*
D03*
X378500Y296500D02*
D03*
X359000Y304500D02*
D03*
X467351Y256506D02*
D03*
X459851D02*
D03*
X452351D02*
D03*
X444851D02*
D03*
X437351D02*
D03*
X429851D02*
D03*
X422351D02*
D03*
X407351D02*
D03*
X399851D02*
D03*
X392351D02*
D03*
X384851D02*
D03*
X377351D02*
D03*
X369851D02*
D03*
X362351D02*
D03*
X354851D02*
D03*
X343017Y249620D02*
D03*
X350517D02*
D03*
X358017D02*
D03*
X365517D02*
D03*
X373017D02*
D03*
X380517D02*
D03*
X388017D02*
D03*
X395517D02*
D03*
X403017D02*
D03*
X410517D02*
D03*
X433017D02*
D03*
X440517D02*
D03*
X448017D02*
D03*
X455517D02*
D03*
X470517D02*
D03*
X354000Y326500D02*
D03*
X341720Y332625D02*
D03*
X415756Y181244D02*
D03*
X427744Y305244D02*
D03*
X387500Y324000D02*
D03*
X364500Y320500D02*
D03*
X427404Y335905D02*
D03*
X380107Y330107D02*
D03*
X360500Y328000D02*
D03*
X472000Y196500D02*
D03*
Y191500D02*
D03*
X333500Y264000D02*
D03*
Y259000D02*
D03*
Y255000D02*
D03*
X331067Y252433D02*
D03*
Y261567D02*
D03*
X328500Y264000D02*
D03*
Y259000D02*
D03*
Y250000D02*
D03*
Y255000D02*
D03*
X466500Y196500D02*
D03*
X469227Y194000D02*
D03*
X466500Y191500D02*
D03*
X333500Y250000D02*
D03*
X324500Y264000D02*
D03*
X319500D02*
D03*
X321933Y261567D02*
D03*
X324500Y259000D02*
D03*
X319500D02*
D03*
X324500Y255000D02*
D03*
X321933Y252433D02*
D03*
X319500Y255000D02*
D03*
Y250000D02*
D03*
X324500D02*
D03*
X468500Y322000D02*
D03*
X455500Y183500D02*
D03*
X486000Y201500D02*
D03*
X490000Y191000D02*
D03*
Y186500D02*
D03*
M02*
