G04*
G04 #@! TF.GenerationSoftware,Altium Limited,Altium Designer,26.4.1 (12)*
G04*
G04 Layer_Physical_Order=2*
G04 Layer_Color=36540*
%FSLAX25Y25*%
%MOIN*%
G70*
G04*
G04 #@! TF.SameCoordinates,2EABD70A-8345-44E5-BABD-0BEDDB5D8E19*
G04*
G04*
G04 #@! TF.FilePolarity,Positive*
G04*
G01*
G75*
%ADD54C,0.18110*%
%ADD86C,0.06299*%
G04:AMPARAMS|DCode=87|XSize=62.99mil|YSize=62.99mil|CornerRadius=15.75mil|HoleSize=0mil|Usage=FLASHONLY|Rotation=180.000|XOffset=0mil|YOffset=0mil|HoleType=Round|Shape=RoundedRectangle|*
%AMROUNDEDRECTD87*
21,1,0.06299,0.03150,0,0,180.0*
21,1,0.03150,0.06299,0,0,180.0*
1,1,0.03150,-0.01575,0.01575*
1,1,0.03150,0.01575,0.01575*
1,1,0.03150,0.01575,-0.01575*
1,1,0.03150,-0.01575,-0.01575*
%
%ADD87ROUNDEDRECTD87*%
%ADD88C,0.02587*%
%ADD89C,0.02500*%
%ADD90R,0.06000X0.07000*%
%ADD91R,0.16000X0.24500*%
%ADD92R,0.17000X0.28000*%
%ADD93R,0.18500X0.26500*%
%ADD94R,0.16000X0.25500*%
%ADD95R,0.26000X0.18500*%
%ADD96R,0.11500X0.11000*%
%ADD97R,0.25000X0.18000*%
%ADD98R,0.26500X0.19000*%
%ADD99R,0.28000X0.28000*%
%ADD100R,0.25500X0.20000*%
%ADD101R,0.26000X0.16500*%
G36*
X480173Y381759D02*
X482582Y381280D01*
X484932Y380567D01*
X487202Y379627D01*
X489368Y378469D01*
X491410Y377104D01*
X493309Y375546D01*
X495046Y373809D01*
X496604Y371910D01*
X497969Y369868D01*
X499127Y367702D01*
X500067Y365432D01*
X500780Y363082D01*
X501259Y360673D01*
X501500Y358228D01*
Y357000D01*
Y258726D01*
X501107Y258565D01*
X500900Y258544D01*
X500299Y259144D01*
X499500Y259476D01*
Y257200D01*
Y254924D01*
X500299Y255256D01*
X500900Y255856D01*
X501107Y255835D01*
X501500Y255674D01*
Y250326D01*
X501107Y250166D01*
X500900Y250144D01*
X500299Y250745D01*
X499500Y251076D01*
Y248800D01*
Y246524D01*
X500299Y246855D01*
X500900Y247456D01*
X501107Y247434D01*
X501500Y247274D01*
Y157000D01*
Y155772D01*
X501259Y153327D01*
X500780Y150918D01*
X500067Y148568D01*
X499127Y146298D01*
X497969Y144132D01*
X496604Y142090D01*
X495046Y140191D01*
X493309Y138454D01*
X491410Y136896D01*
X489368Y135531D01*
X487202Y134373D01*
X484932Y133433D01*
X482582Y132720D01*
X480173Y132241D01*
X477728Y132000D01*
X175272D01*
X172827Y132241D01*
X170418Y132720D01*
X168068Y133433D01*
X165798Y134373D01*
X163632Y135531D01*
X161590Y136896D01*
X159691Y138454D01*
X157954Y140191D01*
X156396Y142090D01*
X155031Y144132D01*
X153873Y146298D01*
X152933Y148568D01*
X152220Y150918D01*
X151741Y153327D01*
X151500Y155772D01*
Y157000D01*
Y186474D01*
X151893Y186635D01*
X152100Y186656D01*
X152701Y186056D01*
X153500Y185724D01*
Y188000D01*
Y190276D01*
X152701Y189945D01*
X152100Y189344D01*
X151893Y189365D01*
X151500Y189526D01*
Y194874D01*
X151893Y195035D01*
X152100Y195056D01*
X152701Y194456D01*
X153500Y194124D01*
Y196400D01*
Y198676D01*
X152701Y198345D01*
X152100Y197744D01*
X151893Y197766D01*
X151500Y197926D01*
Y229474D01*
X151893Y229634D01*
X152100Y229656D01*
X152701Y229056D01*
X153500Y228724D01*
Y231000D01*
Y233276D01*
X152701Y232944D01*
X152100Y232344D01*
X151893Y232365D01*
X151500Y232526D01*
Y237874D01*
X151893Y238035D01*
X152100Y238056D01*
X152701Y237456D01*
X153500Y237124D01*
Y239400D01*
Y241676D01*
X152701Y241344D01*
X152100Y240744D01*
X151893Y240766D01*
X151500Y240926D01*
X151500Y272474D01*
X151893Y272635D01*
X152100Y272656D01*
X152701Y272056D01*
X153500Y271724D01*
Y274000D01*
Y276276D01*
X152701Y275944D01*
X152100Y275344D01*
X151893Y275365D01*
X151500Y275526D01*
Y280874D01*
X151893Y281034D01*
X152100Y281056D01*
X152701Y280455D01*
X153500Y280124D01*
Y282400D01*
Y284676D01*
X152701Y284345D01*
X152100Y283744D01*
X151893Y283766D01*
X151500Y283926D01*
Y315474D01*
X151893Y315634D01*
X152100Y315656D01*
X152701Y315055D01*
X153500Y314724D01*
Y317000D01*
Y319276D01*
X152701Y318945D01*
X152100Y318344D01*
X151893Y318366D01*
X151500Y318526D01*
Y323874D01*
X151893Y324035D01*
X152100Y324056D01*
X152701Y323456D01*
X153500Y323124D01*
Y325400D01*
Y327676D01*
X152701Y327344D01*
X152100Y326744D01*
X151893Y326765D01*
X151500Y326926D01*
Y357000D01*
Y358228D01*
X151741Y360673D01*
X152220Y363082D01*
X152933Y365432D01*
X153873Y367702D01*
X155031Y369868D01*
X156396Y371910D01*
X157954Y373809D01*
X159691Y375546D01*
X161590Y377104D01*
X163632Y378469D01*
X165798Y379627D01*
X168068Y380567D01*
X170418Y381280D01*
X172827Y381759D01*
X175272Y382000D01*
X176500Y382000D01*
X176500Y382000D01*
X477728D01*
X480173Y381759D01*
D02*
G37*
%LPC*%
G36*
X322046Y361150D02*
X322000D01*
Y357500D01*
X325650D01*
Y357546D01*
X325367Y358602D01*
X324820Y359548D01*
X324048Y360320D01*
X323102Y360867D01*
X322046Y361150D01*
D02*
G37*
G36*
X477490Y367055D02*
X477000D01*
Y357500D01*
X486555D01*
Y357990D01*
X486169Y359933D01*
X485411Y361763D01*
X484310Y363410D01*
X482910Y364810D01*
X481263Y365911D01*
X479433Y366669D01*
X477490Y367055D01*
D02*
G37*
G36*
X476000D02*
X475510D01*
X473567Y366669D01*
X471737Y365911D01*
X470090Y364810D01*
X468690Y363410D01*
X467589Y361763D01*
X466831Y359933D01*
X466445Y357990D01*
Y357500D01*
X476000D01*
Y367055D01*
D02*
G37*
G36*
X177490D02*
X177000D01*
Y357500D01*
X186555D01*
Y357990D01*
X186169Y359933D01*
X185411Y361763D01*
X184310Y363410D01*
X182910Y364810D01*
X181263Y365911D01*
X179433Y366669D01*
X177490Y367055D01*
D02*
G37*
G36*
X176000D02*
X175510D01*
X173567Y366669D01*
X171737Y365911D01*
X170090Y364810D01*
X168690Y363410D01*
X167589Y361763D01*
X166831Y359933D01*
X166445Y357990D01*
Y357500D01*
X176000D01*
Y367055D01*
D02*
G37*
G36*
X321000Y361150D02*
X320954D01*
X319898Y360867D01*
X318952Y360320D01*
X318179Y359548D01*
X317633Y358602D01*
X317350Y357546D01*
Y357500D01*
X321000D01*
Y361150D01*
D02*
G37*
G36*
X422020Y360950D02*
X420980D01*
X419976Y360680D01*
X419075Y360160D01*
X418339Y359425D01*
X417820Y358524D01*
X417550Y357520D01*
Y356480D01*
X417820Y355475D01*
X418339Y354575D01*
X419075Y353839D01*
X419976Y353320D01*
X420980Y353050D01*
X422020D01*
X423025Y353320D01*
X423925Y353839D01*
X424660Y354575D01*
X425180Y355475D01*
X425450Y356480D01*
Y357520D01*
X425180Y358524D01*
X424660Y359425D01*
X423925Y360160D01*
X423025Y360680D01*
X422020Y360950D01*
D02*
G37*
G36*
X412020D02*
X410980D01*
X409975Y360680D01*
X409075Y360160D01*
X408340Y359425D01*
X407820Y358524D01*
X407550Y357520D01*
Y356480D01*
X407820Y355475D01*
X408340Y354575D01*
X409075Y353839D01*
X409975Y353320D01*
X410980Y353050D01*
X412020D01*
X413025Y353320D01*
X413925Y353839D01*
X414661Y354575D01*
X415180Y355475D01*
X415450Y356480D01*
Y357520D01*
X415180Y358524D01*
X414661Y359425D01*
X413925Y360160D01*
X413025Y360680D01*
X412020Y360950D01*
D02*
G37*
G36*
X402020D02*
X400980D01*
X399975Y360680D01*
X399075Y360160D01*
X398340Y359425D01*
X397820Y358524D01*
X397550Y357520D01*
Y356480D01*
X397820Y355475D01*
X398340Y354575D01*
X399075Y353839D01*
X399975Y353320D01*
X400980Y353050D01*
X402020D01*
X403024Y353320D01*
X403925Y353839D01*
X404661Y354575D01*
X405180Y355475D01*
X405450Y356480D01*
Y357520D01*
X405180Y358524D01*
X404661Y359425D01*
X403925Y360160D01*
X403024Y360680D01*
X402020Y360950D01*
D02*
G37*
G36*
X392020D02*
X390980D01*
X389976Y360680D01*
X389075Y360160D01*
X388339Y359425D01*
X387820Y358524D01*
X387550Y357520D01*
Y356480D01*
X387820Y355475D01*
X388339Y354575D01*
X389075Y353839D01*
X389976Y353320D01*
X390980Y353050D01*
X392020D01*
X393024Y353320D01*
X393925Y353839D01*
X394660Y354575D01*
X395180Y355475D01*
X395450Y356480D01*
Y357520D01*
X395180Y358524D01*
X394660Y359425D01*
X393925Y360160D01*
X393024Y360680D01*
X392020Y360950D01*
D02*
G37*
G36*
X382020D02*
X380980D01*
X379976Y360680D01*
X379075Y360160D01*
X378340Y359425D01*
X377820Y358524D01*
X377550Y357520D01*
Y356480D01*
X377820Y355475D01*
X378340Y354575D01*
X379075Y353839D01*
X379976Y353320D01*
X380980Y353050D01*
X382020D01*
X383025Y353320D01*
X383925Y353839D01*
X384661Y354575D01*
X385180Y355475D01*
X385450Y356480D01*
Y357520D01*
X385180Y358524D01*
X384661Y359425D01*
X383925Y360160D01*
X383025Y360680D01*
X382020Y360950D01*
D02*
G37*
G36*
X372020D02*
X370980D01*
X369975Y360680D01*
X369075Y360160D01*
X368339Y359425D01*
X367820Y358524D01*
X367550Y357520D01*
Y356480D01*
X367820Y355475D01*
X368339Y354575D01*
X369075Y353839D01*
X369975Y353320D01*
X370980Y353050D01*
X372020D01*
X373025Y353320D01*
X373925Y353839D01*
X374660Y354575D01*
X375180Y355475D01*
X375450Y356480D01*
Y357520D01*
X375180Y358524D01*
X374660Y359425D01*
X373925Y360160D01*
X373025Y360680D01*
X372020Y360950D01*
D02*
G37*
G36*
X362020D02*
X360980D01*
X359976Y360680D01*
X359075Y360160D01*
X358340Y359425D01*
X357820Y358524D01*
X357550Y357520D01*
Y356480D01*
X357820Y355475D01*
X358340Y354575D01*
X359075Y353839D01*
X359976Y353320D01*
X360980Y353050D01*
X362020D01*
X363024Y353320D01*
X363925Y353839D01*
X364661Y354575D01*
X365180Y355475D01*
X365450Y356480D01*
Y357520D01*
X365180Y358524D01*
X364661Y359425D01*
X363925Y360160D01*
X363024Y360680D01*
X362020Y360950D01*
D02*
G37*
G36*
X352020D02*
X350980D01*
X349975Y360680D01*
X349075Y360160D01*
X348340Y359425D01*
X347820Y358524D01*
X347550Y357520D01*
Y356480D01*
X347820Y355475D01*
X348340Y354575D01*
X349075Y353839D01*
X349975Y353320D01*
X350980Y353050D01*
X352020D01*
X353025Y353320D01*
X353925Y353839D01*
X354661Y354575D01*
X355180Y355475D01*
X355450Y356480D01*
Y357520D01*
X355180Y358524D01*
X354661Y359425D01*
X353925Y360160D01*
X353025Y360680D01*
X352020Y360950D01*
D02*
G37*
G36*
X342020D02*
X340980D01*
X339976Y360680D01*
X339075Y360160D01*
X338339Y359425D01*
X337820Y358524D01*
X337550Y357520D01*
Y356480D01*
X337820Y355475D01*
X338339Y354575D01*
X339075Y353839D01*
X339976Y353320D01*
X340980Y353050D01*
X342020D01*
X343024Y353320D01*
X343925Y353839D01*
X344660Y354575D01*
X345180Y355475D01*
X345450Y356480D01*
Y357520D01*
X345180Y358524D01*
X344660Y359425D01*
X343925Y360160D01*
X343024Y360680D01*
X342020Y360950D01*
D02*
G37*
G36*
X332020D02*
X330980D01*
X329976Y360680D01*
X329075Y360160D01*
X328340Y359425D01*
X327820Y358524D01*
X327550Y357520D01*
Y356480D01*
X327820Y355475D01*
X328340Y354575D01*
X329075Y353839D01*
X329976Y353320D01*
X330980Y353050D01*
X332020D01*
X333025Y353320D01*
X333925Y353839D01*
X334661Y354575D01*
X335180Y355475D01*
X335450Y356480D01*
Y357520D01*
X335180Y358524D01*
X334661Y359425D01*
X333925Y360160D01*
X333025Y360680D01*
X332020Y360950D01*
D02*
G37*
G36*
X433075Y360996D02*
X429925D01*
X428999Y360812D01*
X428213Y360287D01*
X427688Y359501D01*
X427504Y358575D01*
Y355425D01*
X427688Y354499D01*
X428213Y353713D01*
X428999Y353188D01*
X429925Y353004D01*
X433075D01*
X434001Y353188D01*
X434787Y353713D01*
X435312Y354499D01*
X435496Y355425D01*
Y358575D01*
X435312Y359501D01*
X434787Y360287D01*
X434001Y360812D01*
X433075Y360996D01*
D02*
G37*
G36*
X325650Y356500D02*
X322000D01*
Y352850D01*
X322046D01*
X323102Y353133D01*
X324048Y353679D01*
X324820Y354452D01*
X325367Y355398D01*
X325650Y356454D01*
Y356500D01*
D02*
G37*
G36*
X321000D02*
X317350D01*
Y356454D01*
X317633Y355398D01*
X318179Y354452D01*
X318952Y353679D01*
X319898Y353133D01*
X320954Y352850D01*
X321000D01*
Y356500D01*
D02*
G37*
G36*
X355500Y352228D02*
Y350500D01*
X357228D01*
X356908Y351274D01*
X356275Y351907D01*
X355500Y352228D01*
D02*
G37*
G36*
X354500D02*
X353726Y351907D01*
X353093Y351274D01*
X352772Y350500D01*
X354500D01*
Y352228D01*
D02*
G37*
G36*
X332000Y351728D02*
Y350000D01*
X333728D01*
X333407Y350775D01*
X332774Y351408D01*
X332000Y351728D01*
D02*
G37*
G36*
X331000D02*
X330225Y351408D01*
X329592Y350775D01*
X329272Y350000D01*
X331000D01*
Y351728D01*
D02*
G37*
G36*
X377000Y349728D02*
Y348000D01*
X378728D01*
X378408Y348775D01*
X377775Y349408D01*
X377000Y349728D01*
D02*
G37*
G36*
X376000D02*
X375225Y349408D01*
X374592Y348775D01*
X374272Y348000D01*
X376000D01*
Y349728D01*
D02*
G37*
G36*
X357228Y349500D02*
X355500D01*
Y347772D01*
X356275Y348093D01*
X356908Y348726D01*
X357228Y349500D01*
D02*
G37*
G36*
X354500D02*
X352772D01*
X353093Y348726D01*
X353726Y348093D01*
X354500Y347772D01*
Y349500D01*
D02*
G37*
G36*
X333728Y349000D02*
X332000D01*
Y347272D01*
X332774Y347592D01*
X333407Y348225D01*
X333728Y349000D01*
D02*
G37*
G36*
X331000D02*
X329272D01*
X329592Y348225D01*
X330225Y347592D01*
X331000Y347272D01*
Y349000D01*
D02*
G37*
G36*
X486555Y356500D02*
X477000D01*
Y346945D01*
X477490D01*
X479433Y347331D01*
X481263Y348089D01*
X482910Y349190D01*
X484310Y350590D01*
X485411Y352237D01*
X486169Y354067D01*
X486555Y356010D01*
Y356500D01*
D02*
G37*
G36*
X476000D02*
X466445D01*
Y356010D01*
X466831Y354067D01*
X467589Y352237D01*
X468690Y350590D01*
X470090Y349190D01*
X471737Y348089D01*
X473567Y347331D01*
X475510Y346945D01*
X476000D01*
Y356500D01*
D02*
G37*
G36*
X186555D02*
X177000D01*
Y346945D01*
X177490D01*
X179433Y347331D01*
X181263Y348089D01*
X182910Y349190D01*
X184310Y350590D01*
X185411Y352237D01*
X186169Y354067D01*
X186555Y356010D01*
Y356500D01*
D02*
G37*
G36*
X176000D02*
X166445D01*
Y356010D01*
X166831Y354067D01*
X167589Y352237D01*
X168690Y350590D01*
X170090Y349190D01*
X171737Y348089D01*
X173567Y347331D01*
X175510Y346945D01*
X176000D01*
Y356500D01*
D02*
G37*
G36*
X378728Y347000D02*
X377000D01*
Y345272D01*
X377775Y345592D01*
X378408Y346226D01*
X378728Y347000D01*
D02*
G37*
G36*
X376000D02*
X374272D01*
X374592Y346226D01*
X375225Y345592D01*
X376000Y345272D01*
Y347000D01*
D02*
G37*
G36*
X347000Y346228D02*
Y344500D01*
X348728D01*
X348408Y345274D01*
X347775Y345907D01*
X347000Y346228D01*
D02*
G37*
G36*
X346000D02*
X345226Y345907D01*
X344592Y345274D01*
X344272Y344500D01*
X346000D01*
Y346228D01*
D02*
G37*
G36*
X365772Y345728D02*
Y344000D01*
X367500D01*
X367179Y344775D01*
X366546Y345408D01*
X365772Y345728D01*
D02*
G37*
G36*
X364772D02*
X363997Y345408D01*
X363364Y344775D01*
X363043Y344000D01*
X364772D01*
Y345728D01*
D02*
G37*
G36*
X332000Y344228D02*
Y342500D01*
X333728D01*
X333407Y343274D01*
X332774Y343907D01*
X332000Y344228D01*
D02*
G37*
G36*
X331000D02*
X330225Y343907D01*
X329592Y343274D01*
X329272Y342500D01*
X331000D01*
Y344228D01*
D02*
G37*
G36*
X386500Y343728D02*
Y342000D01*
X388228D01*
X387908Y342775D01*
X387275Y343408D01*
X386500Y343728D01*
D02*
G37*
G36*
X385500D02*
X384725Y343408D01*
X384092Y342775D01*
X383772Y342000D01*
X385500D01*
Y343728D01*
D02*
G37*
G36*
X348728Y343500D02*
X347000D01*
Y341772D01*
X347775Y342092D01*
X348408Y342725D01*
X348728Y343500D01*
D02*
G37*
G36*
X346000D02*
X344272D01*
X344592Y342725D01*
X345226Y342092D01*
X346000Y341772D01*
Y343500D01*
D02*
G37*
G36*
X367500Y343000D02*
X365772D01*
Y341272D01*
X366546Y341593D01*
X367179Y342226D01*
X367500Y343000D01*
D02*
G37*
G36*
X364772D02*
X363043D01*
X363364Y342226D01*
X363997Y341593D01*
X364772Y341272D01*
Y343000D01*
D02*
G37*
G36*
X333728Y341500D02*
X332000D01*
Y339772D01*
X332774Y340092D01*
X333407Y340725D01*
X333728Y341500D01*
D02*
G37*
G36*
X331000D02*
X329272D01*
X329592Y340725D01*
X330225Y340092D01*
X331000Y339772D01*
Y341500D01*
D02*
G37*
G36*
X388228Y341000D02*
X386500D01*
Y339272D01*
X387275Y339593D01*
X387908Y340226D01*
X388228Y341000D01*
D02*
G37*
G36*
X385500D02*
X383772D01*
X384092Y340226D01*
X384725Y339593D01*
X385500Y339272D01*
Y341000D01*
D02*
G37*
G36*
X437500Y336228D02*
Y334500D01*
X439228D01*
X438907Y335275D01*
X438274Y335908D01*
X437500Y336228D01*
D02*
G37*
G36*
X436500D02*
X435725Y335908D01*
X435092Y335275D01*
X434772Y334500D01*
X436500D01*
Y336228D01*
D02*
G37*
G36*
X427812Y337954D02*
X426997D01*
X426243Y337642D01*
X425667Y337066D01*
X425354Y336312D01*
Y335497D01*
X425667Y334743D01*
X426243Y334167D01*
X426997Y333855D01*
X427812D01*
X428566Y334167D01*
X429142Y334743D01*
X429455Y335497D01*
Y336312D01*
X429142Y337066D01*
X428566Y337642D01*
X427812Y337954D01*
D02*
G37*
G36*
X335000Y334728D02*
Y333000D01*
X336728D01*
X336407Y333774D01*
X335774Y334407D01*
X335000Y334728D01*
D02*
G37*
G36*
X334000D02*
X333225Y334407D01*
X332593Y333774D01*
X332272Y333000D01*
X334000D01*
Y334728D01*
D02*
G37*
G36*
X439228Y333500D02*
X437500D01*
Y331772D01*
X438274Y332092D01*
X438907Y332726D01*
X439228Y333500D01*
D02*
G37*
G36*
X436500D02*
X434772D01*
X435092Y332726D01*
X435725Y332092D01*
X436500Y331772D01*
Y333500D01*
D02*
G37*
G36*
X466000Y332728D02*
Y331000D01*
X467728D01*
X467408Y331774D01*
X466775Y332407D01*
X466000Y332728D01*
D02*
G37*
G36*
X465000D02*
X464225Y332407D01*
X463592Y331774D01*
X463272Y331000D01*
X465000D01*
Y332728D01*
D02*
G37*
G36*
X188000D02*
Y331000D01*
X189728D01*
X189408Y331774D01*
X188775Y332407D01*
X188000Y332728D01*
D02*
G37*
G36*
X187000D02*
X186225Y332407D01*
X185592Y331774D01*
X185272Y331000D01*
X187000D01*
Y332728D01*
D02*
G37*
G36*
X342127Y334675D02*
X341312D01*
X340558Y334363D01*
X339982Y333786D01*
X339669Y333032D01*
Y332217D01*
X339982Y331464D01*
X340558Y330887D01*
X341312Y330575D01*
X342127D01*
X342881Y330887D01*
X343457Y331464D01*
X343770Y332217D01*
Y333032D01*
X343457Y333786D01*
X342881Y334363D01*
X342127Y334675D01*
D02*
G37*
G36*
X336728Y332000D02*
X335000D01*
Y330272D01*
X335774Y330592D01*
X336407Y331225D01*
X336728Y332000D01*
D02*
G37*
G36*
X334000D02*
X332272D01*
X332593Y331225D01*
X333225Y330592D01*
X334000Y330272D01*
Y332000D01*
D02*
G37*
G36*
X399000Y330728D02*
Y329000D01*
X400728D01*
X400408Y329774D01*
X399775Y330408D01*
X399000Y330728D01*
D02*
G37*
G36*
X398000D02*
X397225Y330408D01*
X396592Y329774D01*
X396272Y329000D01*
X398000D01*
Y330728D01*
D02*
G37*
G36*
X348500Y330228D02*
Y328500D01*
X350228D01*
X349907Y329275D01*
X349274Y329907D01*
X348500Y330228D01*
D02*
G37*
G36*
X347500D02*
X346726Y329907D01*
X346093Y329275D01*
X345772Y328500D01*
X347500D01*
Y330228D01*
D02*
G37*
G36*
X189728Y330000D02*
X188000D01*
Y328272D01*
X188775Y328592D01*
X189408Y329225D01*
X189728Y330000D01*
D02*
G37*
G36*
X187000D02*
X185272D01*
X185592Y329225D01*
X186225Y328592D01*
X187000Y328272D01*
Y330000D01*
D02*
G37*
G36*
X467728D02*
X466000D01*
Y328272D01*
X466775Y328592D01*
X467408Y329225D01*
X467728Y330000D01*
D02*
G37*
G36*
X465000D02*
X463272D01*
X463592Y329225D01*
X464225Y328592D01*
X465000Y328272D01*
Y330000D01*
D02*
G37*
G36*
X380515Y332157D02*
X379699D01*
X378946Y331845D01*
X378369Y331268D01*
X378057Y330515D01*
Y329699D01*
X378369Y328946D01*
X378946Y328369D01*
X379699Y328057D01*
X380515D01*
X381268Y328369D01*
X381845Y328946D01*
X382157Y329699D01*
Y330515D01*
X381845Y331268D01*
X381268Y331845D01*
X380515Y332157D01*
D02*
G37*
G36*
X158500Y328476D02*
X157701Y328145D01*
X157055Y327499D01*
X156706Y326656D01*
Y326428D01*
X156106Y326309D01*
X155945Y326699D01*
X155299Y327344D01*
X154500Y327676D01*
Y325400D01*
Y323124D01*
X155299Y323456D01*
X155945Y324101D01*
X156294Y324944D01*
Y325172D01*
X156894Y325291D01*
X157055Y324901D01*
X157701Y324255D01*
X158500Y323924D01*
Y326200D01*
Y328476D01*
D02*
G37*
G36*
X400728Y328000D02*
X399000D01*
Y326272D01*
X399775Y326592D01*
X400408Y327225D01*
X400728Y328000D01*
D02*
G37*
G36*
X398000D02*
X396272D01*
X396592Y327225D01*
X397225Y326592D01*
X398000Y326272D01*
Y328000D01*
D02*
G37*
G36*
X181500Y327728D02*
Y326000D01*
X183228D01*
X182907Y326775D01*
X182274Y327408D01*
X181500Y327728D01*
D02*
G37*
G36*
X180500D02*
X179726Y327408D01*
X179093Y326775D01*
X178772Y326000D01*
X180500D01*
Y327728D01*
D02*
G37*
G36*
X360908Y330050D02*
X360092D01*
X359339Y329738D01*
X358762Y329161D01*
X358450Y328408D01*
Y327592D01*
X358762Y326839D01*
X359339Y326262D01*
X360092Y325950D01*
X360908D01*
X361661Y326262D01*
X362238Y326839D01*
X362550Y327592D01*
Y328408D01*
X362238Y329161D01*
X361661Y329738D01*
X360908Y330050D01*
D02*
G37*
G36*
X174500Y327676D02*
Y325900D01*
X176276D01*
X175944Y326699D01*
X175299Y327344D01*
X174500Y327676D01*
D02*
G37*
G36*
X350228Y327500D02*
X348500D01*
Y325772D01*
X349274Y326093D01*
X349907Y326726D01*
X350228Y327500D01*
D02*
G37*
G36*
X347500D02*
X345772D01*
X346093Y326726D01*
X346726Y326093D01*
X347500Y325772D01*
Y327500D01*
D02*
G37*
G36*
X437500Y326728D02*
Y325000D01*
X439228D01*
X438907Y325775D01*
X438274Y326408D01*
X437500Y326728D01*
D02*
G37*
G36*
X436500D02*
X435725Y326408D01*
X435092Y325775D01*
X434772Y325000D01*
X436500D01*
Y326728D01*
D02*
G37*
G36*
X354408Y328550D02*
X353592D01*
X352839Y328238D01*
X352262Y327661D01*
X351950Y326908D01*
Y326092D01*
X352262Y325339D01*
X352839Y324762D01*
X353592Y324450D01*
X354408D01*
X355161Y324762D01*
X355738Y325339D01*
X356050Y326092D01*
Y326908D01*
X355738Y327661D01*
X355161Y328238D01*
X354408Y328550D01*
D02*
G37*
G36*
X164500Y328476D02*
Y326200D01*
Y323924D01*
X165299Y324255D01*
X165945Y324901D01*
X166175Y325458D01*
X166825D01*
X167055Y324901D01*
X167701Y324255D01*
X168500Y323924D01*
Y326200D01*
Y328476D01*
X167701Y328145D01*
X167055Y327499D01*
X166825Y326942D01*
X166175D01*
X165945Y327499D01*
X165299Y328145D01*
X164500Y328476D01*
D02*
G37*
G36*
X159500D02*
Y326200D01*
Y323924D01*
X160299Y324255D01*
X160944Y324901D01*
X161175Y325458D01*
X161825D01*
X162056Y324901D01*
X162701Y324255D01*
X163500Y323924D01*
Y326200D01*
Y328476D01*
X162701Y328145D01*
X162056Y327499D01*
X161825Y326942D01*
X161175D01*
X160944Y327499D01*
X160299Y328145D01*
X159500Y328476D01*
D02*
G37*
G36*
X183228Y325000D02*
X181500D01*
Y323272D01*
X182274Y323592D01*
X182907Y324225D01*
X183228Y325000D01*
D02*
G37*
G36*
X180500D02*
X178772D01*
X179093Y324225D01*
X179726Y323592D01*
X180500Y323272D01*
Y325000D01*
D02*
G37*
G36*
X176276Y324900D02*
X174500D01*
Y323124D01*
X175299Y323456D01*
X175944Y324101D01*
X176276Y324900D01*
D02*
G37*
G36*
X169500Y328476D02*
Y326200D01*
Y323924D01*
X170299Y324255D01*
X170944Y324901D01*
X171106Y325291D01*
X171706Y325172D01*
Y324944D01*
X172055Y324101D01*
X172701Y323456D01*
X173500Y323124D01*
Y325400D01*
Y327676D01*
X172701Y327344D01*
X172055Y326699D01*
X171894Y326309D01*
X171294Y326428D01*
Y326656D01*
X170944Y327499D01*
X170299Y328145D01*
X169500Y328476D01*
D02*
G37*
G36*
X439228Y324000D02*
X437500D01*
Y322272D01*
X438274Y322592D01*
X438907Y323225D01*
X439228Y324000D01*
D02*
G37*
G36*
X436500D02*
X434772D01*
X435092Y323225D01*
X435725Y322592D01*
X436500Y322272D01*
Y324000D01*
D02*
G37*
G36*
X387908Y326050D02*
X387092D01*
X386339Y325738D01*
X385762Y325161D01*
X385450Y324408D01*
Y323592D01*
X385762Y322839D01*
X386339Y322262D01*
X387092Y321950D01*
X387908D01*
X388661Y322262D01*
X389238Y322839D01*
X389550Y323592D01*
Y324408D01*
X389238Y325161D01*
X388661Y325738D01*
X387908Y326050D01*
D02*
G37*
G36*
X399500Y321728D02*
Y320000D01*
X401228D01*
X400908Y320775D01*
X400275Y321408D01*
X399500Y321728D01*
D02*
G37*
G36*
X398500D02*
X397726Y321408D01*
X397093Y320775D01*
X396772Y320000D01*
X398500D01*
Y321728D01*
D02*
G37*
G36*
X468908Y324050D02*
X468092D01*
X467339Y323738D01*
X466762Y323161D01*
X466450Y322408D01*
Y321592D01*
X466762Y320839D01*
X467339Y320262D01*
X468092Y319950D01*
X468908D01*
X469661Y320262D01*
X470238Y320839D01*
X470550Y321592D01*
Y322408D01*
X470238Y323161D01*
X469661Y323738D01*
X468908Y324050D01*
D02*
G37*
G36*
X364908Y322550D02*
X364092D01*
X363339Y322238D01*
X362762Y321661D01*
X362450Y320908D01*
Y320092D01*
X362762Y319339D01*
X363339Y318762D01*
X364092Y318450D01*
X364908D01*
X365661Y318762D01*
X366238Y319339D01*
X366550Y320092D01*
Y320908D01*
X366238Y321661D01*
X365661Y322238D01*
X364908Y322550D01*
D02*
G37*
G36*
X174500Y319276D02*
Y317500D01*
X176276D01*
X175944Y318299D01*
X175299Y318945D01*
X174500Y319276D01*
D02*
G37*
G36*
X181500Y319228D02*
Y317500D01*
X183228D01*
X182907Y318274D01*
X182274Y318907D01*
X181500Y319228D01*
D02*
G37*
G36*
X180500D02*
X179726Y318907D01*
X179093Y318274D01*
X178772Y317500D01*
X180500D01*
Y319228D01*
D02*
G37*
G36*
X401228Y319000D02*
X399500D01*
Y317272D01*
X400275Y317593D01*
X400908Y318226D01*
X401228Y319000D01*
D02*
G37*
G36*
X398500D02*
X396772D01*
X397093Y318226D01*
X397726Y317593D01*
X398500Y317272D01*
Y319000D01*
D02*
G37*
G36*
X173500Y319276D02*
X172701Y318945D01*
X172055Y318299D01*
X171706Y317456D01*
Y317228D01*
X171106Y317109D01*
X170944Y317499D01*
X170299Y318144D01*
X169500Y318476D01*
Y316200D01*
Y313924D01*
X170299Y314255D01*
X170944Y314901D01*
X171294Y315744D01*
Y315972D01*
X171894Y316091D01*
X172055Y315701D01*
X172701Y315055D01*
X173500Y314724D01*
Y317000D01*
X174000D01*
D01*
X173500D01*
Y319276D01*
D02*
G37*
G36*
X191500Y316728D02*
Y315000D01*
X193228D01*
X192908Y315774D01*
X192274Y316407D01*
X191500Y316728D01*
D02*
G37*
G36*
X190500D02*
X189725Y316407D01*
X189093Y315774D01*
X188772Y315000D01*
X190500D01*
Y316728D01*
D02*
G37*
G36*
X183228Y316500D02*
X181500D01*
Y314772D01*
X182274Y315092D01*
X182907Y315725D01*
X183228Y316500D01*
D02*
G37*
G36*
X180500D02*
X178772D01*
X179093Y315725D01*
X179726Y315092D01*
X180500Y314772D01*
Y316500D01*
D02*
G37*
G36*
X176276D02*
X174500D01*
Y314724D01*
X175299Y315055D01*
X175944Y315701D01*
X176276Y316500D01*
D02*
G37*
G36*
X164500Y318476D02*
Y316200D01*
Y313924D01*
X165299Y314255D01*
X165945Y314901D01*
X166175Y315458D01*
X166825D01*
X167055Y314901D01*
X167701Y314255D01*
X168500Y313924D01*
Y316200D01*
Y318476D01*
X167701Y318144D01*
X167055Y317499D01*
X166825Y316942D01*
X166175D01*
X165945Y317499D01*
X165299Y318144D01*
X164500Y318476D01*
D02*
G37*
G36*
X159500D02*
Y316200D01*
Y313924D01*
X160299Y314255D01*
X160944Y314901D01*
X161175Y315458D01*
X161825D01*
X162056Y314901D01*
X162701Y314255D01*
X163500Y313924D01*
Y316200D01*
Y318476D01*
X162701Y318144D01*
X162056Y317499D01*
X161825Y316942D01*
X161175D01*
X160944Y317499D01*
X160299Y318144D01*
X159500Y318476D01*
D02*
G37*
G36*
X154500Y319276D02*
Y317000D01*
Y314724D01*
X155299Y315055D01*
X155945Y315701D01*
X156106Y316091D01*
X156706Y315972D01*
Y315744D01*
X157055Y314901D01*
X157701Y314255D01*
X158500Y313924D01*
Y316200D01*
Y318476D01*
X157701Y318144D01*
X157055Y317499D01*
X156894Y317109D01*
X156294Y317228D01*
Y317456D01*
X155945Y318299D01*
X155299Y318945D01*
X154500Y319276D01*
D02*
G37*
G36*
X193228Y314000D02*
X191500D01*
Y312272D01*
X192274Y312593D01*
X192908Y313226D01*
X193228Y314000D01*
D02*
G37*
G36*
X190500D02*
X188772D01*
X189093Y313226D01*
X189725Y312593D01*
X190500Y312272D01*
Y314000D01*
D02*
G37*
G36*
X381000Y313228D02*
Y311500D01*
X382728D01*
X382407Y312275D01*
X381774Y312908D01*
X381000Y313228D01*
D02*
G37*
G36*
X380000D02*
X379225Y312908D01*
X378592Y312275D01*
X378272Y311500D01*
X380000D01*
Y313228D01*
D02*
G37*
G36*
X344500Y311728D02*
Y310000D01*
X346228D01*
X345907Y310774D01*
X345274Y311407D01*
X344500Y311728D01*
D02*
G37*
G36*
X343500D02*
X342725Y311407D01*
X342092Y310774D01*
X341772Y310000D01*
X343500D01*
Y311728D01*
D02*
G37*
G36*
X382728Y310500D02*
X381000D01*
Y308772D01*
X381774Y309092D01*
X382407Y309725D01*
X382728Y310500D01*
D02*
G37*
G36*
X380000D02*
X378272D01*
X378592Y309725D01*
X379225Y309092D01*
X380000Y308772D01*
Y310500D01*
D02*
G37*
G36*
X346228Y309000D02*
X344500D01*
Y307272D01*
X345274Y307593D01*
X345907Y308225D01*
X346228Y309000D01*
D02*
G37*
G36*
X343500D02*
X341772D01*
X342092Y308225D01*
X342725Y307593D01*
X343500Y307272D01*
Y309000D01*
D02*
G37*
G36*
X354050Y307728D02*
X353275Y307407D01*
X352642Y306774D01*
X352322Y306000D01*
X354050D01*
Y307728D01*
D02*
G37*
G36*
Y305000D02*
X352322D01*
X352642Y304225D01*
X353275Y303592D01*
X354050Y303272D01*
Y305000D01*
D02*
G37*
G36*
X428152Y307294D02*
X427336D01*
X426583Y306982D01*
X426006Y306405D01*
X425694Y305652D01*
Y304836D01*
X426006Y304083D01*
X426583Y303506D01*
X427336Y303194D01*
X428152D01*
X428905Y303506D01*
X429482Y304083D01*
X429794Y304836D01*
Y305652D01*
X429482Y306405D01*
X428905Y306982D01*
X428152Y307294D01*
D02*
G37*
G36*
X355050Y307728D02*
Y305500D01*
Y303272D01*
X355824Y303592D01*
X356350Y304118D01*
X356648Y304105D01*
X356799Y304070D01*
X356996Y303980D01*
X357262Y303339D01*
X357839Y302762D01*
X358592Y302450D01*
X359408D01*
X360161Y302762D01*
X360738Y303339D01*
X361050Y304092D01*
Y304908D01*
X360738Y305661D01*
X360161Y306238D01*
X359408Y306550D01*
X358592D01*
X357839Y306238D01*
X357400Y305799D01*
X356942Y305912D01*
X356795Y305969D01*
X356790Y305973D01*
X356457Y306774D01*
X355824Y307407D01*
X355050Y307728D01*
D02*
G37*
G36*
X399500Y303228D02*
Y301500D01*
X401228D01*
X400908Y302274D01*
X400275Y302907D01*
X399500Y303228D01*
D02*
G37*
G36*
X398500D02*
X397726Y302907D01*
X397093Y302274D01*
X396772Y301500D01*
X398500D01*
Y303228D01*
D02*
G37*
G36*
X439000Y302228D02*
Y300500D01*
X440728D01*
X440408Y301274D01*
X439775Y301907D01*
X439000Y302228D01*
D02*
G37*
G36*
X438000D02*
X437225Y301907D01*
X436592Y301274D01*
X436272Y300500D01*
X438000D01*
Y302228D01*
D02*
G37*
G36*
X401228Y300500D02*
X399500D01*
Y298772D01*
X400275Y299093D01*
X400908Y299726D01*
X401228Y300500D01*
D02*
G37*
G36*
X398500D02*
X396772D01*
X397093Y299726D01*
X397726Y299093D01*
X398500Y298772D01*
Y300500D01*
D02*
G37*
G36*
X440728Y299500D02*
X439000D01*
Y297772D01*
X439775Y298093D01*
X440408Y298726D01*
X440728Y299500D01*
D02*
G37*
G36*
X438000D02*
X436272D01*
X436592Y298726D01*
X437225Y298093D01*
X438000Y297772D01*
Y299500D01*
D02*
G37*
G36*
X401500Y296728D02*
Y295000D01*
X403228D01*
X402908Y295775D01*
X402275Y296408D01*
X401500Y296728D01*
D02*
G37*
G36*
X400500D02*
X399726Y296408D01*
X399093Y295775D01*
X398772Y295000D01*
X400500D01*
Y296728D01*
D02*
G37*
G36*
X338908Y299050D02*
X338092D01*
X337339Y298738D01*
X336762Y298161D01*
X336450Y297408D01*
Y296592D01*
X336762Y295839D01*
X337339Y295262D01*
X338092Y294950D01*
X338908D01*
X339661Y295262D01*
X340238Y295839D01*
X340550Y296592D01*
Y297408D01*
X340238Y298161D01*
X339661Y298738D01*
X338908Y299050D01*
D02*
G37*
G36*
X378908Y298550D02*
X378092D01*
X377339Y298238D01*
X376762Y297661D01*
X376450Y296908D01*
Y296092D01*
X376762Y295339D01*
X377339Y294762D01*
X378092Y294450D01*
X378908D01*
X379661Y294762D01*
X380238Y295339D01*
X380550Y296092D01*
Y296908D01*
X380238Y297661D01*
X379661Y298238D01*
X378908Y298550D01*
D02*
G37*
G36*
X403228Y294000D02*
X401500D01*
Y292272D01*
X402275Y292593D01*
X402908Y293226D01*
X403228Y294000D01*
D02*
G37*
G36*
X400500D02*
X398772D01*
X399093Y293226D01*
X399726Y292593D01*
X400500Y292272D01*
Y294000D01*
D02*
G37*
G36*
X370000Y292728D02*
Y291000D01*
X371728D01*
X371408Y291775D01*
X370775Y292407D01*
X370000Y292728D01*
D02*
G37*
G36*
X369000D02*
X368226Y292407D01*
X367593Y291775D01*
X367272Y291000D01*
X369000D01*
Y292728D01*
D02*
G37*
G36*
X371728Y290000D02*
X370000D01*
Y288272D01*
X370775Y288593D01*
X371408Y289226D01*
X371728Y290000D01*
D02*
G37*
G36*
X369000D02*
X367272D01*
X367593Y289226D01*
X368226Y288593D01*
X369000Y288272D01*
Y290000D01*
D02*
G37*
G36*
X294500Y289228D02*
Y287500D01*
X296228D01*
X295907Y288275D01*
X295274Y288908D01*
X294500Y289228D01*
D02*
G37*
G36*
X293500D02*
X292725Y288908D01*
X292092Y288275D01*
X291772Y287500D01*
X293500D01*
Y289228D01*
D02*
G37*
G36*
X189000D02*
Y287500D01*
X190728D01*
X190408Y288275D01*
X189775Y288908D01*
X189000Y289228D01*
D02*
G37*
G36*
X188000D02*
X187225Y288908D01*
X186592Y288275D01*
X186272Y287500D01*
X188000D01*
Y289228D01*
D02*
G37*
G36*
X296228Y286500D02*
X294500D01*
Y284772D01*
X295274Y285092D01*
X295907Y285725D01*
X296228Y286500D01*
D02*
G37*
G36*
X293500D02*
X291772D01*
X292092Y285725D01*
X292725Y285092D01*
X293500Y284772D01*
Y286500D01*
D02*
G37*
G36*
X190728D02*
X189000D01*
Y284772D01*
X189775Y285092D01*
X190408Y285725D01*
X190728Y286500D01*
D02*
G37*
G36*
X188000D02*
X186272D01*
X186592Y285725D01*
X187225Y285092D01*
X188000Y284772D01*
Y286500D01*
D02*
G37*
G36*
X395000Y286228D02*
Y284500D01*
X396728D01*
X396408Y285275D01*
X395775Y285908D01*
X395000Y286228D01*
D02*
G37*
G36*
X394000D02*
X393226Y285908D01*
X392593Y285275D01*
X392272Y284500D01*
X394000D01*
Y286228D01*
D02*
G37*
G36*
X158500Y285476D02*
X157701Y285144D01*
X157055Y284499D01*
X156706Y283656D01*
Y283428D01*
X156106Y283309D01*
X155945Y283699D01*
X155299Y284345D01*
X154500Y284676D01*
Y282400D01*
Y280124D01*
X155299Y280455D01*
X155945Y281101D01*
X156294Y281944D01*
Y282172D01*
X156894Y282291D01*
X157055Y281901D01*
X157701Y281256D01*
X158500Y280924D01*
Y283200D01*
Y285476D01*
D02*
G37*
G36*
X174500Y284676D02*
Y282900D01*
X176276D01*
X175944Y283699D01*
X175299Y284345D01*
X174500Y284676D01*
D02*
G37*
G36*
X181500Y284228D02*
Y282500D01*
X183228D01*
X182907Y283275D01*
X182274Y283908D01*
X181500Y284228D01*
D02*
G37*
G36*
X180500D02*
X179726Y283908D01*
X179093Y283275D01*
X178772Y282500D01*
X180500D01*
Y284228D01*
D02*
G37*
G36*
X396728Y283500D02*
X395000D01*
Y281772D01*
X395775Y282092D01*
X396408Y282726D01*
X396728Y283500D01*
D02*
G37*
G36*
X394000D02*
X392272D01*
X392593Y282726D01*
X393226Y282092D01*
X394000Y281772D01*
Y283500D01*
D02*
G37*
G36*
X164500Y285476D02*
Y283200D01*
Y280924D01*
X165299Y281256D01*
X165945Y281901D01*
X166175Y282458D01*
X166825D01*
X167055Y281901D01*
X167701Y281256D01*
X168500Y280924D01*
Y283200D01*
Y285476D01*
X167701Y285144D01*
X167055Y284499D01*
X166825Y283942D01*
X166175D01*
X165945Y284499D01*
X165299Y285144D01*
X164500Y285476D01*
D02*
G37*
G36*
X159500D02*
Y283200D01*
Y280924D01*
X160299Y281256D01*
X160944Y281901D01*
X161175Y282458D01*
X161825D01*
X162056Y281901D01*
X162701Y281256D01*
X163500Y280924D01*
Y283200D01*
Y285476D01*
X162701Y285144D01*
X162056Y284499D01*
X161825Y283942D01*
X161175D01*
X160944Y284499D01*
X160299Y285144D01*
X159500Y285476D01*
D02*
G37*
G36*
X176276Y281900D02*
X174500D01*
Y280124D01*
X175299Y280455D01*
X175944Y281101D01*
X176276Y281900D01*
D02*
G37*
G36*
X169500Y285476D02*
Y283200D01*
Y280924D01*
X170299Y281256D01*
X170944Y281901D01*
X171106Y282291D01*
X171706Y282172D01*
Y281944D01*
X172055Y281101D01*
X172701Y280455D01*
X173500Y280124D01*
Y282400D01*
Y284676D01*
X172701Y284345D01*
X172055Y283699D01*
X171894Y283309D01*
X171294Y283428D01*
Y283656D01*
X170944Y284499D01*
X170299Y285144D01*
X169500Y285476D01*
D02*
G37*
G36*
X183228Y281500D02*
X181500D01*
Y279772D01*
X182274Y280093D01*
X182907Y280726D01*
X183228Y281500D01*
D02*
G37*
G36*
X180500D02*
X178772D01*
X179093Y280726D01*
X179726Y280093D01*
X180500Y279772D01*
Y281500D01*
D02*
G37*
G36*
X293500Y279728D02*
Y278000D01*
X295228D01*
X294907Y278774D01*
X294274Y279408D01*
X293500Y279728D01*
D02*
G37*
G36*
X292500D02*
X291725Y279408D01*
X291092Y278774D01*
X290772Y278000D01*
X292500D01*
Y279728D01*
D02*
G37*
G36*
X295228Y277000D02*
X293500D01*
Y275272D01*
X294274Y275592D01*
X294907Y276225D01*
X295228Y277000D01*
D02*
G37*
G36*
X292500D02*
X290772D01*
X291092Y276225D01*
X291725Y275592D01*
X292500Y275272D01*
Y277000D01*
D02*
G37*
G36*
X174500Y276276D02*
Y274500D01*
X176276D01*
X175944Y275299D01*
X175299Y275944D01*
X174500Y276276D01*
D02*
G37*
G36*
X181500Y276228D02*
Y274500D01*
X183228D01*
X182907Y275274D01*
X182274Y275907D01*
X181500Y276228D01*
D02*
G37*
G36*
X180500D02*
X179726Y275907D01*
X179093Y275274D01*
X178772Y274500D01*
X180500D01*
Y276228D01*
D02*
G37*
G36*
X173500Y276276D02*
X172701Y275944D01*
X172055Y275299D01*
X171706Y274456D01*
Y274228D01*
X171106Y274109D01*
X170944Y274499D01*
X170299Y275145D01*
X169500Y275476D01*
Y273200D01*
Y270924D01*
X170299Y271255D01*
X170944Y271901D01*
X171294Y272744D01*
Y272972D01*
X171894Y273091D01*
X172055Y272701D01*
X172701Y272056D01*
X173500Y271724D01*
Y274000D01*
Y276276D01*
D02*
G37*
G36*
X348000Y275228D02*
Y273500D01*
X349728D01*
X349408Y274274D01*
X348775Y274907D01*
X348000Y275228D01*
D02*
G37*
G36*
X347000D02*
X346226Y274907D01*
X345592Y274274D01*
X345272Y273500D01*
X347000D01*
Y275228D01*
D02*
G37*
G36*
X382000Y273728D02*
Y272000D01*
X383728D01*
X383407Y272775D01*
X382774Y273408D01*
X382000Y273728D01*
D02*
G37*
G36*
X381000D02*
X380225Y273408D01*
X379592Y272775D01*
X379272Y272000D01*
X381000D01*
Y273728D01*
D02*
G37*
G36*
X183228Y273500D02*
X181500D01*
Y271772D01*
X182274Y272093D01*
X182907Y272726D01*
X183228Y273500D01*
D02*
G37*
G36*
X180500D02*
X178772D01*
X179093Y272726D01*
X179726Y272093D01*
X180500Y271772D01*
Y273500D01*
D02*
G37*
G36*
X176276D02*
X174500D01*
Y271724D01*
X175299Y272056D01*
X175944Y272701D01*
X176276Y273500D01*
D02*
G37*
G36*
X191800Y273371D02*
Y271643D01*
X193528D01*
X193207Y272417D01*
X192574Y273050D01*
X191800Y273371D01*
D02*
G37*
G36*
X190800D02*
X190025Y273050D01*
X189392Y272417D01*
X189072Y271643D01*
X190800D01*
Y273371D01*
D02*
G37*
G36*
X308908Y275550D02*
X308092D01*
X307339Y275238D01*
X306762Y274661D01*
X306450Y273908D01*
Y273092D01*
X306762Y272339D01*
X307339Y271762D01*
X308092Y271450D01*
X308908D01*
X309661Y271762D01*
X310238Y272339D01*
X310550Y273092D01*
Y273908D01*
X310238Y274661D01*
X309661Y275238D01*
X308908Y275550D01*
D02*
G37*
G36*
X164500Y275476D02*
Y273200D01*
Y270924D01*
X165299Y271255D01*
X165945Y271901D01*
X166175Y272458D01*
X166825D01*
X167055Y271901D01*
X167701Y271255D01*
X168500Y270924D01*
Y273200D01*
Y275476D01*
X167701Y275145D01*
X167055Y274499D01*
X166825Y273942D01*
X166175D01*
X165945Y274499D01*
X165299Y275145D01*
X164500Y275476D01*
D02*
G37*
G36*
X159500D02*
Y273200D01*
Y270924D01*
X160299Y271255D01*
X160944Y271901D01*
X161175Y272458D01*
X161825D01*
X162056Y271901D01*
X162701Y271255D01*
X163500Y270924D01*
Y273200D01*
Y275476D01*
X162701Y275145D01*
X162056Y274499D01*
X161825Y273942D01*
X161175D01*
X160944Y274499D01*
X160299Y275145D01*
X159500Y275476D01*
D02*
G37*
G36*
X154500Y276276D02*
Y274000D01*
Y271724D01*
X155299Y272056D01*
X155945Y272701D01*
X156106Y273091D01*
X156706Y272972D01*
Y272744D01*
X157055Y271901D01*
X157701Y271255D01*
X158500Y270924D01*
Y273200D01*
Y275476D01*
X157701Y275145D01*
X157055Y274499D01*
X156894Y274109D01*
X156294Y274228D01*
Y274456D01*
X155945Y275299D01*
X155299Y275944D01*
X154500Y276276D01*
D02*
G37*
G36*
X349728Y272500D02*
X348000D01*
Y270772D01*
X348775Y271093D01*
X349408Y271726D01*
X349728Y272500D01*
D02*
G37*
G36*
X347000D02*
X345272D01*
X345592Y271726D01*
X346226Y271093D01*
X347000Y270772D01*
Y272500D01*
D02*
G37*
G36*
X383728Y271000D02*
X382000D01*
Y269272D01*
X382774Y269592D01*
X383407Y270226D01*
X383728Y271000D01*
D02*
G37*
G36*
X381000D02*
X379272D01*
X379592Y270226D01*
X380225Y269592D01*
X381000Y269272D01*
Y271000D01*
D02*
G37*
G36*
X193528Y270643D02*
X191800D01*
Y268914D01*
X192574Y269235D01*
X193207Y269868D01*
X193528Y270643D01*
D02*
G37*
G36*
X190800D02*
X189072D01*
X189392Y269868D01*
X190025Y269235D01*
X190800Y268914D01*
Y270643D01*
D02*
G37*
G36*
X333000Y266228D02*
X332225Y265908D01*
X331592Y265275D01*
X331304Y264579D01*
X330696D01*
X330408Y265275D01*
X329774Y265908D01*
X329000Y266228D01*
Y264000D01*
X328000D01*
Y266228D01*
X327225Y265908D01*
X326892Y265574D01*
X326500Y265332D01*
X326108Y265574D01*
X325775Y265908D01*
X325000Y266228D01*
Y264000D01*
X324000D01*
Y266228D01*
X323225Y265908D01*
X322592Y265275D01*
X322304Y264579D01*
X321696D01*
X321408Y265275D01*
X320775Y265908D01*
X320000Y266228D01*
Y264000D01*
X319500D01*
Y263500D01*
X317272D01*
X317593Y262725D01*
X318226Y262092D01*
X318921Y261804D01*
Y261196D01*
X318226Y260908D01*
X317593Y260275D01*
X317272Y259500D01*
X319500D01*
Y258500D01*
X317272D01*
X317593Y257726D01*
X317926Y257392D01*
X318168Y257000D01*
X317926Y256608D01*
X317593Y256275D01*
X317272Y255500D01*
X319500D01*
Y254500D01*
X317272D01*
X317593Y253726D01*
X318226Y253093D01*
X318921Y252804D01*
Y252196D01*
X318226Y251907D01*
X317593Y251274D01*
X317272Y250500D01*
X319500D01*
Y250000D01*
X320000D01*
Y247772D01*
X320775Y248093D01*
X321408Y248726D01*
X321696Y249421D01*
X322304D01*
X322592Y248726D01*
X323225Y248093D01*
X324000Y247772D01*
Y250000D01*
X325000D01*
Y247772D01*
X325775Y248093D01*
X326108Y248426D01*
X326500Y248668D01*
X326892Y248426D01*
X327225Y248093D01*
X328000Y247772D01*
Y250000D01*
X329000D01*
Y247772D01*
X329774Y248093D01*
X330408Y248726D01*
X330696Y249421D01*
X331304D01*
X331592Y248726D01*
X332225Y248093D01*
X333000Y247772D01*
Y250000D01*
X333500D01*
Y250500D01*
X335728D01*
X335407Y251274D01*
X334774Y251907D01*
X334079Y252196D01*
Y252804D01*
X334774Y253093D01*
X335407Y253726D01*
X335728Y254500D01*
X333500D01*
Y255500D01*
X335728D01*
X335407Y256275D01*
X335074Y256608D01*
X334832Y257000D01*
X335074Y257392D01*
X335407Y257726D01*
X335728Y258500D01*
X333500D01*
Y259500D01*
X335728D01*
X335407Y260275D01*
X334774Y260908D01*
X334079Y261196D01*
Y261804D01*
X334774Y262092D01*
X335407Y262725D01*
X335728Y263500D01*
X333500D01*
Y264000D01*
X333000D01*
Y266228D01*
D02*
G37*
G36*
X334000D02*
Y264500D01*
X335728D01*
X335407Y265275D01*
X334774Y265908D01*
X334000Y266228D01*
D02*
G37*
G36*
X319000D02*
X318226Y265908D01*
X317593Y265275D01*
X317272Y264500D01*
X319000D01*
Y266228D01*
D02*
G37*
G36*
X483500Y260276D02*
X482701Y259945D01*
X482056Y259299D01*
X481706Y258456D01*
Y258228D01*
X481106Y258109D01*
X480944Y258499D01*
X480299Y259144D01*
X479500Y259476D01*
Y257200D01*
Y254924D01*
X480299Y255256D01*
X480944Y255901D01*
X481294Y256744D01*
Y256972D01*
X481894Y257091D01*
X482056Y256701D01*
X482701Y256055D01*
X483500Y255724D01*
Y258000D01*
Y260276D01*
D02*
G37*
G36*
X478500Y259476D02*
X477701Y259144D01*
X477056Y258499D01*
X476724Y257700D01*
X478500D01*
Y259476D01*
D02*
G37*
G36*
X489500Y260276D02*
Y258000D01*
Y255724D01*
X490299Y256055D01*
X490944Y256701D01*
X491175Y257258D01*
X491825D01*
X492056Y256701D01*
X492701Y256055D01*
X493500Y255724D01*
Y258000D01*
Y260276D01*
X492701Y259945D01*
X492056Y259299D01*
X491825Y258742D01*
X491175D01*
X490944Y259299D01*
X490299Y259945D01*
X489500Y260276D01*
D02*
G37*
G36*
X484500D02*
Y258000D01*
Y255724D01*
X485299Y256055D01*
X485945Y256701D01*
X486175Y257258D01*
X486825D01*
X487055Y256701D01*
X487701Y256055D01*
X488500Y255724D01*
Y258000D01*
Y260276D01*
X487701Y259945D01*
X487055Y259299D01*
X486825Y258742D01*
X486175D01*
X485945Y259299D01*
X485299Y259945D01*
X484500Y260276D01*
D02*
G37*
G36*
X343158Y259050D02*
X342342D01*
X341589Y258738D01*
X341012Y258161D01*
X340700Y257408D01*
Y256592D01*
X341012Y255839D01*
X341589Y255262D01*
X342342Y254950D01*
X343158D01*
X343911Y255262D01*
X344488Y255839D01*
X344800Y256592D01*
Y257408D01*
X344488Y258161D01*
X343911Y258738D01*
X343158Y259050D01*
D02*
G37*
G36*
X494500Y260276D02*
Y258000D01*
Y255724D01*
X495299Y256055D01*
X495944Y256701D01*
X496106Y257091D01*
X496706Y256972D01*
Y256744D01*
X497055Y255901D01*
X497701Y255256D01*
X498500Y254924D01*
Y257200D01*
Y259476D01*
X497701Y259144D01*
X497055Y258499D01*
X496894Y258109D01*
X496294Y258228D01*
Y258456D01*
X495944Y259299D01*
X495299Y259945D01*
X494500Y260276D01*
D02*
G37*
G36*
X478500Y256700D02*
X476724D01*
X477056Y255901D01*
X477701Y255256D01*
X478500Y254924D01*
Y256700D01*
D02*
G37*
G36*
Y251076D02*
X477701Y250745D01*
X477056Y250099D01*
X476724Y249300D01*
X478500D01*
Y251076D01*
D02*
G37*
G36*
X498500D02*
X497701Y250745D01*
X497055Y250099D01*
X496706Y249256D01*
Y249028D01*
X496106Y248909D01*
X495944Y249299D01*
X495299Y249944D01*
X494500Y250276D01*
Y248000D01*
Y245724D01*
X495299Y246056D01*
X495944Y246701D01*
X496294Y247544D01*
Y247772D01*
X496894Y247891D01*
X497055Y247501D01*
X497701Y246855D01*
X498500Y246524D01*
Y248800D01*
Y251076D01*
D02*
G37*
G36*
X335728Y249500D02*
X334000D01*
Y247772D01*
X334774Y248093D01*
X335407Y248726D01*
X335728Y249500D01*
D02*
G37*
G36*
X319000D02*
X317272D01*
X317593Y248726D01*
X318226Y248093D01*
X319000Y247772D01*
Y249500D01*
D02*
G37*
G36*
X478500Y248300D02*
X476724D01*
X477056Y247501D01*
X477701Y246855D01*
X478500Y246524D01*
Y248300D01*
D02*
G37*
G36*
X489500Y250276D02*
Y248000D01*
Y245724D01*
X490299Y246056D01*
X490944Y246701D01*
X491175Y247258D01*
X491825D01*
X492056Y246701D01*
X492701Y246056D01*
X493500Y245724D01*
Y248000D01*
Y250276D01*
X492701Y249944D01*
X492056Y249299D01*
X491825Y248742D01*
X491175D01*
X490944Y249299D01*
X490299Y249944D01*
X489500Y250276D01*
D02*
G37*
G36*
X484500D02*
Y248000D01*
Y245724D01*
X485299Y246056D01*
X485945Y246701D01*
X486175Y247258D01*
X486825D01*
X487055Y246701D01*
X487701Y246056D01*
X488500Y245724D01*
Y248000D01*
Y250276D01*
X487701Y249944D01*
X487055Y249299D01*
X486825Y248742D01*
X486175D01*
X485945Y249299D01*
X485299Y249944D01*
X484500Y250276D01*
D02*
G37*
G36*
X479500Y251076D02*
Y248800D01*
Y246524D01*
X480299Y246855D01*
X480944Y247501D01*
X481106Y247891D01*
X481706Y247772D01*
Y247544D01*
X482056Y246701D01*
X482701Y246056D01*
X483500Y245724D01*
Y248000D01*
Y250276D01*
X482701Y249944D01*
X482056Y249299D01*
X481894Y248909D01*
X481294Y249028D01*
Y249256D01*
X480944Y250099D01*
X480299Y250745D01*
X479500Y251076D01*
D02*
G37*
G36*
X189000Y246228D02*
Y244500D01*
X190728D01*
X190408Y245274D01*
X189775Y245907D01*
X189000Y246228D01*
D02*
G37*
G36*
X188000D02*
X187225Y245907D01*
X186592Y245274D01*
X186272Y244500D01*
X188000D01*
Y246228D01*
D02*
G37*
G36*
X190728Y243500D02*
X189000D01*
Y241772D01*
X189775Y242092D01*
X190408Y242725D01*
X190728Y243500D01*
D02*
G37*
G36*
X188000D02*
X186272D01*
X186592Y242725D01*
X187225Y242092D01*
X188000Y241772D01*
Y243500D01*
D02*
G37*
G36*
X328500Y242728D02*
Y241000D01*
X330228D01*
X329907Y241775D01*
X329275Y242407D01*
X328500Y242728D01*
D02*
G37*
G36*
X327500D02*
X326726Y242407D01*
X326093Y241775D01*
X325772Y241000D01*
X327500D01*
Y242728D01*
D02*
G37*
G36*
X158500Y242476D02*
X157701Y242144D01*
X157055Y241499D01*
X156706Y240656D01*
Y240428D01*
X156106Y240309D01*
X155945Y240699D01*
X155299Y241344D01*
X154500Y241676D01*
Y239400D01*
Y237124D01*
X155299Y237456D01*
X155945Y238101D01*
X156294Y238944D01*
Y239172D01*
X156894Y239291D01*
X157055Y238901D01*
X157701Y238256D01*
X158500Y237924D01*
Y240200D01*
Y242476D01*
D02*
G37*
G36*
X181500Y241728D02*
Y240000D01*
X183228D01*
X182907Y240774D01*
X182274Y241407D01*
X181500Y241728D01*
D02*
G37*
G36*
X180500D02*
X179726Y241407D01*
X179093Y240774D01*
X178772Y240000D01*
X180500D01*
Y241728D01*
D02*
G37*
G36*
X174500Y241676D02*
Y239900D01*
X176276D01*
X175944Y240699D01*
X175299Y241344D01*
X174500Y241676D01*
D02*
G37*
G36*
X357000Y240728D02*
Y239000D01*
X358728D01*
X358407Y239774D01*
X357774Y240407D01*
X357000Y240728D01*
D02*
G37*
G36*
X356000D02*
X355225Y240407D01*
X354592Y239774D01*
X354272Y239000D01*
X356000D01*
Y240728D01*
D02*
G37*
G36*
X293408Y243050D02*
X292592D01*
X291839Y242738D01*
X291262Y242161D01*
X290950Y241408D01*
Y240592D01*
X291262Y239839D01*
X291839Y239262D01*
X292592Y238950D01*
X293408D01*
X294161Y239262D01*
X294738Y239839D01*
X295050Y240592D01*
Y241408D01*
X294738Y242161D01*
X294161Y242738D01*
X293408Y243050D01*
D02*
G37*
G36*
X330228Y240000D02*
X328500D01*
Y238272D01*
X329275Y238593D01*
X329907Y239226D01*
X330228Y240000D01*
D02*
G37*
G36*
X327500D02*
X325772D01*
X326093Y239226D01*
X326726Y238593D01*
X327500Y238272D01*
Y240000D01*
D02*
G37*
G36*
X164500Y242476D02*
Y240200D01*
Y237924D01*
X165299Y238256D01*
X165945Y238901D01*
X166175Y239458D01*
X166825D01*
X167055Y238901D01*
X167701Y238256D01*
X168500Y237924D01*
Y240200D01*
Y242476D01*
X167701Y242144D01*
X167055Y241499D01*
X166825Y240942D01*
X166175D01*
X165945Y241499D01*
X165299Y242144D01*
X164500Y242476D01*
D02*
G37*
G36*
X159500D02*
Y240200D01*
Y237924D01*
X160299Y238256D01*
X160944Y238901D01*
X161175Y239458D01*
X161825D01*
X162056Y238901D01*
X162701Y238256D01*
X163500Y237924D01*
Y240200D01*
Y242476D01*
X162701Y242144D01*
X162056Y241499D01*
X161825Y240942D01*
X161175D01*
X160944Y241499D01*
X160299Y242144D01*
X159500Y242476D01*
D02*
G37*
G36*
X183228Y239000D02*
X181500D01*
Y237272D01*
X182274Y237593D01*
X182907Y238226D01*
X183228Y239000D01*
D02*
G37*
G36*
X180500D02*
X178772D01*
X179093Y238226D01*
X179726Y237593D01*
X180500Y237272D01*
Y239000D01*
D02*
G37*
G36*
X176276Y238900D02*
X174500D01*
Y237124D01*
X175299Y237456D01*
X175944Y238101D01*
X176276Y238900D01*
D02*
G37*
G36*
X169500Y242476D02*
Y240200D01*
Y237924D01*
X170299Y238256D01*
X170944Y238901D01*
X171106Y239291D01*
X171706Y239172D01*
Y238944D01*
X172055Y238101D01*
X172701Y237456D01*
X173500Y237124D01*
Y239400D01*
Y241676D01*
X172701Y241344D01*
X172055Y240699D01*
X171894Y240309D01*
X171294Y240428D01*
Y240656D01*
X170944Y241499D01*
X170299Y242144D01*
X169500Y242476D01*
D02*
G37*
G36*
X358728Y238000D02*
X357000D01*
Y236272D01*
X357774Y236593D01*
X358407Y237226D01*
X358728Y238000D01*
D02*
G37*
G36*
X356000D02*
X354272D01*
X354592Y237226D01*
X355225Y236593D01*
X356000Y236272D01*
Y238000D01*
D02*
G37*
G36*
X293500Y237228D02*
Y235500D01*
X295228D01*
X294907Y236275D01*
X294274Y236908D01*
X293500Y237228D01*
D02*
G37*
G36*
X292500D02*
X291725Y236908D01*
X291092Y236275D01*
X290772Y235500D01*
X292500D01*
Y237228D01*
D02*
G37*
G36*
X342500Y235728D02*
Y234000D01*
X344228D01*
X343907Y234774D01*
X343274Y235407D01*
X342500Y235728D01*
D02*
G37*
G36*
X341500D02*
X340725Y235407D01*
X340092Y234774D01*
X339772Y234000D01*
X341500D01*
Y235728D01*
D02*
G37*
G36*
X295228Y234500D02*
X293500D01*
Y232772D01*
X294274Y233092D01*
X294907Y233726D01*
X295228Y234500D01*
D02*
G37*
G36*
X292500D02*
X290772D01*
X291092Y233726D01*
X291725Y233092D01*
X292500Y232772D01*
Y234500D01*
D02*
G37*
G36*
X174500Y233276D02*
Y231500D01*
X176276D01*
X175944Y232299D01*
X175299Y232944D01*
X174500Y233276D01*
D02*
G37*
G36*
X181500Y233228D02*
Y231500D01*
X183228D01*
X182907Y232275D01*
X182274Y232908D01*
X181500Y233228D01*
D02*
G37*
G36*
X180500D02*
X179726Y232908D01*
X179093Y232275D01*
X178772Y231500D01*
X180500D01*
Y233228D01*
D02*
G37*
G36*
X344228Y233000D02*
X342500D01*
Y231272D01*
X343274Y231592D01*
X343907Y232225D01*
X344228Y233000D01*
D02*
G37*
G36*
X341500D02*
X339772D01*
X340092Y232225D01*
X340725Y231592D01*
X341500Y231272D01*
Y233000D01*
D02*
G37*
G36*
X173500Y233276D02*
X172701Y232944D01*
X172055Y232299D01*
X171706Y231456D01*
Y231228D01*
X171106Y231109D01*
X170944Y231499D01*
X170299Y232144D01*
X169500Y232476D01*
Y230200D01*
Y227924D01*
X170299Y228256D01*
X170944Y228901D01*
X171294Y229744D01*
Y229972D01*
X171894Y230091D01*
X172055Y229701D01*
X172701Y229056D01*
X173500Y228724D01*
Y231000D01*
Y233276D01*
D02*
G37*
G36*
X356500Y232728D02*
Y231000D01*
X358228D01*
X357908Y231774D01*
X357275Y232407D01*
X356500Y232728D01*
D02*
G37*
G36*
X355500D02*
X354726Y232407D01*
X354093Y231774D01*
X353772Y231000D01*
X355500D01*
Y232728D01*
D02*
G37*
G36*
X302500D02*
Y231000D01*
X304228D01*
X303907Y231774D01*
X303274Y232407D01*
X302500Y232728D01*
D02*
G37*
G36*
X301500D02*
X300726Y232407D01*
X300093Y231774D01*
X299772Y231000D01*
X301500D01*
Y232728D01*
D02*
G37*
G36*
X183228Y230500D02*
X181500D01*
Y228772D01*
X182274Y229093D01*
X182907Y229726D01*
X183228Y230500D01*
D02*
G37*
G36*
X180500D02*
X178772D01*
X179093Y229726D01*
X179726Y229093D01*
X180500Y228772D01*
Y230500D01*
D02*
G37*
G36*
X176276D02*
X174500D01*
Y228724D01*
X175299Y229056D01*
X175944Y229701D01*
X176276Y230500D01*
D02*
G37*
G36*
X191410Y230183D02*
Y228455D01*
X193138D01*
X192818Y229230D01*
X192185Y229862D01*
X191410Y230183D01*
D02*
G37*
G36*
X190410D02*
X189636Y229862D01*
X189003Y229230D01*
X188682Y228455D01*
X190410D01*
Y230183D01*
D02*
G37*
G36*
X358228Y230000D02*
X356500D01*
Y228272D01*
X357275Y228592D01*
X357908Y229225D01*
X358228Y230000D01*
D02*
G37*
G36*
X355500D02*
X353772D01*
X354093Y229225D01*
X354726Y228592D01*
X355500Y228272D01*
Y230000D01*
D02*
G37*
G36*
X304228D02*
X302500D01*
Y228272D01*
X303274Y228592D01*
X303907Y229225D01*
X304228Y230000D01*
D02*
G37*
G36*
X301500D02*
X299772D01*
X300093Y229225D01*
X300726Y228592D01*
X301500Y228272D01*
Y230000D01*
D02*
G37*
G36*
X164500Y232476D02*
Y230200D01*
Y227924D01*
X165299Y228256D01*
X165945Y228901D01*
X166175Y229458D01*
X166825D01*
X167055Y228901D01*
X167701Y228256D01*
X168500Y227924D01*
Y230200D01*
Y232476D01*
X167701Y232144D01*
X167055Y231499D01*
X166825Y230942D01*
X166175D01*
X165945Y231499D01*
X165299Y232144D01*
X164500Y232476D01*
D02*
G37*
G36*
X159500D02*
Y230200D01*
Y227924D01*
X160299Y228256D01*
X160944Y228901D01*
X161175Y229458D01*
X161825D01*
X162056Y228901D01*
X162701Y228256D01*
X163500Y227924D01*
Y230200D01*
Y232476D01*
X162701Y232144D01*
X162056Y231499D01*
X161825Y230942D01*
X161175D01*
X160944Y231499D01*
X160299Y232144D01*
X159500Y232476D01*
D02*
G37*
G36*
X154500Y233276D02*
Y231000D01*
Y228724D01*
X155299Y229056D01*
X155945Y229701D01*
X156106Y230091D01*
X156706Y229972D01*
Y229744D01*
X157055Y228901D01*
X157701Y228256D01*
X158500Y227924D01*
Y230200D01*
Y232476D01*
X157701Y232144D01*
X157055Y231499D01*
X156894Y231109D01*
X156294Y231228D01*
Y231456D01*
X155945Y232299D01*
X155299Y232944D01*
X154500Y233276D01*
D02*
G37*
G36*
X193138Y227455D02*
X191410D01*
Y225727D01*
X192185Y226048D01*
X192818Y226681D01*
X193138Y227455D01*
D02*
G37*
G36*
X190410D02*
X188682D01*
X189003Y226681D01*
X189636Y226048D01*
X190410Y225727D01*
Y227455D01*
D02*
G37*
G36*
X346408Y229050D02*
X345592D01*
X344839Y228738D01*
X344262Y228161D01*
X343950Y227408D01*
Y226592D01*
X344262Y225839D01*
X344839Y225262D01*
X345592Y224950D01*
X346408D01*
X347161Y225262D01*
X347738Y225839D01*
X348050Y226592D01*
Y227408D01*
X347738Y228161D01*
X347161Y228738D01*
X346408Y229050D01*
D02*
G37*
G36*
X346000Y222728D02*
Y221000D01*
X347728D01*
X347408Y221775D01*
X346775Y222408D01*
X346000Y222728D01*
D02*
G37*
G36*
X345000D02*
X344226Y222408D01*
X343593Y221775D01*
X343272Y221000D01*
X345000D01*
Y222728D01*
D02*
G37*
G36*
X347728Y220000D02*
X346000D01*
Y218272D01*
X346775Y218593D01*
X347408Y219226D01*
X347728Y220000D01*
D02*
G37*
G36*
X345000D02*
X343272D01*
X343593Y219226D01*
X344226Y218593D01*
X345000Y218272D01*
Y220000D01*
D02*
G37*
G36*
X455000Y217228D02*
Y215500D01*
X456728D01*
X456407Y216274D01*
X455774Y216908D01*
X455000Y217228D01*
D02*
G37*
G36*
X454000D02*
X453226Y216908D01*
X452593Y216274D01*
X452272Y215500D01*
X454000D01*
Y217228D01*
D02*
G37*
G36*
X456728Y214500D02*
X455000D01*
Y212772D01*
X455774Y213092D01*
X456407Y213725D01*
X456728Y214500D01*
D02*
G37*
G36*
X454000D02*
X452272D01*
X452593Y213725D01*
X453226Y213092D01*
X454000Y212772D01*
Y214500D01*
D02*
G37*
G36*
X485000Y208728D02*
Y207000D01*
X486728D01*
X486408Y207774D01*
X485775Y208407D01*
X485000Y208728D01*
D02*
G37*
G36*
X484000D02*
X483225Y208407D01*
X482592Y207774D01*
X482272Y207000D01*
X484000D01*
Y208728D01*
D02*
G37*
G36*
X450500Y206228D02*
Y204500D01*
X452228D01*
X451907Y205275D01*
X451274Y205908D01*
X450500Y206228D01*
D02*
G37*
G36*
X449500D02*
X448726Y205908D01*
X448093Y205275D01*
X447772Y204500D01*
X449500D01*
Y206228D01*
D02*
G37*
G36*
X486728Y206000D02*
X485000D01*
Y204272D01*
X485775Y204592D01*
X486408Y205225D01*
X486728Y206000D01*
D02*
G37*
G36*
X484000D02*
X482272D01*
X482592Y205225D01*
X483225Y204592D01*
X484000Y204272D01*
Y206000D01*
D02*
G37*
G36*
X452228Y203500D02*
X450500D01*
Y201772D01*
X451274Y202093D01*
X451907Y202726D01*
X452228Y203500D01*
D02*
G37*
G36*
X449500D02*
X447772D01*
X448093Y202726D01*
X448726Y202093D01*
X449500Y201772D01*
Y203500D01*
D02*
G37*
G36*
X190875Y202521D02*
Y200793D01*
X192604D01*
X192283Y201567D01*
X191650Y202200D01*
X190875Y202521D01*
D02*
G37*
G36*
X189875D02*
X189101Y202200D01*
X188468Y201567D01*
X188147Y200793D01*
X189875D01*
Y202521D01*
D02*
G37*
G36*
X438000Y201728D02*
Y200000D01*
X439728D01*
X439407Y200775D01*
X438774Y201408D01*
X438000Y201728D01*
D02*
G37*
G36*
X437000D02*
X436226Y201408D01*
X435593Y200775D01*
X435272Y200000D01*
X437000D01*
Y201728D01*
D02*
G37*
G36*
X486408Y203550D02*
X485592D01*
X484839Y203238D01*
X484262Y202661D01*
X483950Y201908D01*
Y201092D01*
X484262Y200339D01*
X484839Y199762D01*
X485592Y199450D01*
X486408D01*
X487161Y199762D01*
X487738Y200339D01*
X488050Y201092D01*
Y201908D01*
X487738Y202661D01*
X487161Y203238D01*
X486408Y203550D01*
D02*
G37*
G36*
X192604Y199793D02*
X190875D01*
Y198064D01*
X191650Y198385D01*
X192283Y199018D01*
X192604Y199793D01*
D02*
G37*
G36*
X189875D02*
X188147D01*
X188468Y199018D01*
X189101Y198385D01*
X189875Y198064D01*
Y199793D01*
D02*
G37*
G36*
X158500Y199476D02*
X157701Y199144D01*
X157055Y198499D01*
X156706Y197656D01*
Y197428D01*
X156106Y197309D01*
X155945Y197699D01*
X155299Y198345D01*
X154500Y198676D01*
Y196400D01*
Y194124D01*
X155299Y194456D01*
X155945Y195101D01*
X156294Y195944D01*
Y196172D01*
X156894Y196291D01*
X157055Y195901D01*
X157701Y195255D01*
X158500Y194924D01*
Y197200D01*
Y199476D01*
D02*
G37*
G36*
X439728Y199000D02*
X438000D01*
Y197272D01*
X438774Y197592D01*
X439407Y198225D01*
X439728Y199000D01*
D02*
G37*
G36*
X437000D02*
X435272D01*
X435593Y198225D01*
X436226Y197592D01*
X437000Y197272D01*
Y199000D01*
D02*
G37*
G36*
X472500Y198728D02*
Y197000D01*
X474228D01*
X473908Y197775D01*
X473275Y198407D01*
X472500Y198728D01*
D02*
G37*
G36*
X466000D02*
X465226Y198407D01*
X464593Y197775D01*
X464272Y197000D01*
X466000D01*
Y198728D01*
D02*
G37*
G36*
X181500D02*
Y197000D01*
X183228D01*
X182907Y197775D01*
X182274Y198407D01*
X181500Y198728D01*
D02*
G37*
G36*
X180500D02*
X179726Y198407D01*
X179093Y197775D01*
X178772Y197000D01*
X180500D01*
Y198728D01*
D02*
G37*
G36*
X174500Y198676D02*
Y196900D01*
X176276D01*
X175944Y197699D01*
X175299Y198345D01*
X174500Y198676D01*
D02*
G37*
G36*
X471500Y198728D02*
X470725Y198407D01*
X470092Y197775D01*
X469750Y196948D01*
Y196300D01*
X469675Y196250D01*
X468780D01*
X468750Y196270D01*
Y196948D01*
X468407Y197775D01*
X467774Y198407D01*
X467000Y198728D01*
Y196500D01*
X466500D01*
Y196000D01*
X464272D01*
X464593Y195226D01*
X465226Y194592D01*
X465921Y194304D01*
Y193696D01*
X465226Y193407D01*
X464593Y192774D01*
X464272Y192000D01*
X466500D01*
Y191500D01*
X467000D01*
Y189272D01*
X467774Y189593D01*
X468407Y190226D01*
X468750Y191052D01*
Y191730D01*
X468780Y191750D01*
X469675D01*
X469750Y191700D01*
Y191052D01*
X470092Y190226D01*
X470725Y189593D01*
X471500Y189272D01*
Y191500D01*
X472000D01*
Y192000D01*
X474228D01*
X473908Y192774D01*
X473275Y193407D01*
X472579Y193696D01*
Y194304D01*
X473275Y194592D01*
X473908Y195226D01*
X474228Y196000D01*
X472000D01*
Y196500D01*
X471500D01*
Y198728D01*
D02*
G37*
G36*
X164500Y199476D02*
Y197200D01*
Y194924D01*
X165299Y195255D01*
X165945Y195901D01*
X166175Y196458D01*
X166825D01*
X167055Y195901D01*
X167701Y195255D01*
X168500Y194924D01*
Y197200D01*
Y199476D01*
X167701Y199144D01*
X167055Y198499D01*
X166825Y197942D01*
X166175D01*
X165945Y198499D01*
X165299Y199144D01*
X164500Y199476D01*
D02*
G37*
G36*
X159500D02*
Y197200D01*
Y194924D01*
X160299Y195255D01*
X160944Y195901D01*
X161175Y196458D01*
X161825D01*
X162056Y195901D01*
X162701Y195255D01*
X163500Y194924D01*
Y197200D01*
Y199476D01*
X162701Y199144D01*
X162056Y198499D01*
X161825Y197942D01*
X161175D01*
X160944Y198499D01*
X160299Y199144D01*
X159500Y199476D01*
D02*
G37*
G36*
X183228Y196000D02*
X181500D01*
Y194272D01*
X182274Y194592D01*
X182907Y195226D01*
X183228Y196000D01*
D02*
G37*
G36*
X180500D02*
X178772D01*
X179093Y195226D01*
X179726Y194592D01*
X180500Y194272D01*
Y196000D01*
D02*
G37*
G36*
X176276Y195900D02*
X174500D01*
Y194124D01*
X175299Y194456D01*
X175944Y195101D01*
X176276Y195900D01*
D02*
G37*
G36*
X169500Y199476D02*
Y197200D01*
Y194924D01*
X170299Y195255D01*
X170944Y195901D01*
X171106Y196291D01*
X171706Y196172D01*
Y195944D01*
X172055Y195101D01*
X172701Y194456D01*
X173500Y194124D01*
Y196400D01*
Y198676D01*
X172701Y198345D01*
X172055Y197699D01*
X171894Y197309D01*
X171294Y197428D01*
Y197656D01*
X170944Y198499D01*
X170299Y199144D01*
X169500Y199476D01*
D02*
G37*
G36*
X430500Y192228D02*
Y190500D01*
X432228D01*
X431908Y191274D01*
X431275Y191908D01*
X430500Y192228D01*
D02*
G37*
G36*
X429500D02*
X428725Y191908D01*
X428092Y191274D01*
X427772Y190500D01*
X429500D01*
Y192228D01*
D02*
G37*
G36*
X474228Y191000D02*
X472500D01*
Y189272D01*
X473275Y189593D01*
X473908Y190226D01*
X474228Y191000D01*
D02*
G37*
G36*
X466000D02*
X464272D01*
X464593Y190226D01*
X465226Y189593D01*
X466000Y189272D01*
Y191000D01*
D02*
G37*
G36*
X174500Y190276D02*
Y188500D01*
X176276D01*
X175944Y189299D01*
X175299Y189945D01*
X174500Y190276D01*
D02*
G37*
G36*
X181500Y190228D02*
Y188500D01*
X183228D01*
X182907Y189275D01*
X182274Y189908D01*
X181500Y190228D01*
D02*
G37*
G36*
X180500D02*
X179726Y189908D01*
X179093Y189275D01*
X178772Y188500D01*
X180500D01*
Y190228D01*
D02*
G37*
G36*
X173500Y190276D02*
X172701Y189945D01*
X172055Y189299D01*
X171706Y188456D01*
Y188228D01*
X171106Y188109D01*
X170944Y188499D01*
X170299Y189145D01*
X169500Y189476D01*
Y187200D01*
Y184924D01*
X170299Y185256D01*
X170944Y185901D01*
X171294Y186744D01*
Y186972D01*
X171894Y187091D01*
X172055Y186701D01*
X172701Y186056D01*
X173500Y185724D01*
Y188000D01*
Y190276D01*
D02*
G37*
G36*
X432228Y189500D02*
X430500D01*
Y187772D01*
X431275Y188093D01*
X431908Y188725D01*
X432228Y189500D01*
D02*
G37*
G36*
X429500D02*
X427772D01*
X428092Y188725D01*
X428725Y188093D01*
X429500Y187772D01*
Y189500D01*
D02*
G37*
G36*
X183228Y187500D02*
X181500D01*
Y185772D01*
X182274Y186092D01*
X182907Y186725D01*
X183228Y187500D01*
D02*
G37*
G36*
X180500D02*
X178772D01*
X179093Y186725D01*
X179726Y186092D01*
X180500Y185772D01*
Y187500D01*
D02*
G37*
G36*
X176276D02*
X174500D01*
Y185724D01*
X175299Y186056D01*
X175944Y186701D01*
X176276Y187500D01*
D02*
G37*
G36*
X191340Y187299D02*
Y185570D01*
X193068D01*
X192748Y186345D01*
X192115Y186978D01*
X191340Y187299D01*
D02*
G37*
G36*
X190340D02*
X189566Y186978D01*
X188933Y186345D01*
X188612Y185570D01*
X190340D01*
Y187299D01*
D02*
G37*
G36*
X164500Y189476D02*
Y187200D01*
Y184924D01*
X165299Y185256D01*
X165945Y185901D01*
X166175Y186458D01*
X166825D01*
X167055Y185901D01*
X167701Y185256D01*
X168500Y184924D01*
Y187200D01*
Y189476D01*
X167701Y189145D01*
X167055Y188499D01*
X166825Y187942D01*
X166175D01*
X165945Y188499D01*
X165299Y189145D01*
X164500Y189476D01*
D02*
G37*
G36*
X159500D02*
Y187200D01*
Y184924D01*
X160299Y185256D01*
X160944Y185901D01*
X161175Y186458D01*
X161825D01*
X162056Y185901D01*
X162701Y185256D01*
X163500Y184924D01*
Y187200D01*
Y189476D01*
X162701Y189145D01*
X162056Y188499D01*
X161825Y187942D01*
X161175D01*
X160944Y188499D01*
X160299Y189145D01*
X159500Y189476D01*
D02*
G37*
G36*
X154500Y190276D02*
Y188000D01*
Y185724D01*
X155299Y186056D01*
X155945Y186701D01*
X156106Y187091D01*
X156706Y186972D01*
Y186744D01*
X157055Y185901D01*
X157701Y185256D01*
X158500Y184924D01*
Y187200D01*
Y189476D01*
X157701Y189145D01*
X157055Y188499D01*
X156894Y188109D01*
X156294Y188228D01*
Y188456D01*
X155945Y189299D01*
X155299Y189945D01*
X154500Y190276D01*
D02*
G37*
G36*
X490408Y193050D02*
X489592D01*
X488839Y192738D01*
X488262Y192161D01*
X487950Y191408D01*
Y190592D01*
X488262Y189839D01*
X488839Y189262D01*
X489291Y189075D01*
Y188425D01*
X488839Y188238D01*
X488262Y187661D01*
X487950Y186908D01*
Y186092D01*
X488262Y185339D01*
X488839Y184762D01*
X489592Y184450D01*
X490408D01*
X491161Y184762D01*
X491738Y185339D01*
X492050Y186092D01*
Y186908D01*
X491738Y187661D01*
X491161Y188238D01*
X490709Y188425D01*
Y189075D01*
X491161Y189262D01*
X491738Y189839D01*
X492050Y190592D01*
Y191408D01*
X491738Y192161D01*
X491161Y192738D01*
X490408Y193050D01*
D02*
G37*
G36*
X193068Y184570D02*
X191340D01*
Y182842D01*
X192115Y183163D01*
X192748Y183796D01*
X193068Y184570D01*
D02*
G37*
G36*
X190340D02*
X188612D01*
X188933Y183796D01*
X189566Y183163D01*
X190340Y182842D01*
Y184570D01*
D02*
G37*
G36*
X408000Y183228D02*
Y181500D01*
X409728D01*
X409408Y182274D01*
X408775Y182907D01*
X408000Y183228D01*
D02*
G37*
G36*
X407000D02*
X406225Y182907D01*
X405592Y182274D01*
X405272Y181500D01*
X407000D01*
Y183228D01*
D02*
G37*
G36*
X455908Y185550D02*
X455092D01*
X454339Y185238D01*
X453762Y184661D01*
X453450Y183908D01*
Y183092D01*
X453762Y182339D01*
X454339Y181762D01*
X455092Y181450D01*
X455908D01*
X456661Y181762D01*
X457238Y182339D01*
X457550Y183092D01*
Y183908D01*
X457238Y184661D01*
X456661Y185238D01*
X455908Y185550D01*
D02*
G37*
G36*
X416164Y183294D02*
X415348D01*
X414595Y182982D01*
X414018Y182405D01*
X413706Y181652D01*
Y180836D01*
X414018Y180083D01*
X414595Y179506D01*
X415348Y179194D01*
X416164D01*
X416917Y179506D01*
X417494Y180083D01*
X417806Y180836D01*
Y181652D01*
X417494Y182405D01*
X416917Y182982D01*
X416164Y183294D01*
D02*
G37*
G36*
X433500Y180728D02*
Y179000D01*
X435228D01*
X434907Y179774D01*
X434274Y180408D01*
X433500Y180728D01*
D02*
G37*
G36*
X432500D02*
X431726Y180408D01*
X431093Y179774D01*
X430772Y179000D01*
X432500D01*
Y180728D01*
D02*
G37*
G36*
X409728Y180500D02*
X408000D01*
Y178772D01*
X408775Y179093D01*
X409408Y179726D01*
X409728Y180500D01*
D02*
G37*
G36*
X407000D02*
X405272D01*
X405592Y179726D01*
X406225Y179093D01*
X407000Y178772D01*
Y180500D01*
D02*
G37*
G36*
X421500Y178728D02*
Y177000D01*
X423228D01*
X422907Y177775D01*
X422274Y178408D01*
X421500Y178728D01*
D02*
G37*
G36*
X420500D02*
X419726Y178408D01*
X419093Y177775D01*
X418772Y177000D01*
X420500D01*
Y178728D01*
D02*
G37*
G36*
X435228Y178000D02*
X433500D01*
Y176272D01*
X434274Y176593D01*
X434907Y177225D01*
X435228Y178000D01*
D02*
G37*
G36*
X432500D02*
X430772D01*
X431093Y177225D01*
X431726Y176593D01*
X432500Y176272D01*
Y178000D01*
D02*
G37*
G36*
X469000Y176728D02*
Y175000D01*
X470728D01*
X470407Y175775D01*
X469774Y176408D01*
X469000Y176728D01*
D02*
G37*
G36*
X468000D02*
X467226Y176408D01*
X466593Y175775D01*
X466272Y175000D01*
X468000D01*
Y176728D01*
D02*
G37*
G36*
X423228Y176000D02*
X421500D01*
Y174272D01*
X422274Y174592D01*
X422907Y175225D01*
X423228Y176000D01*
D02*
G37*
G36*
X420500D02*
X418772D01*
X419093Y175225D01*
X419726Y174592D01*
X420500Y174272D01*
Y176000D01*
D02*
G37*
G36*
X405000Y174228D02*
Y172500D01*
X406728D01*
X406407Y173275D01*
X405774Y173907D01*
X405000Y174228D01*
D02*
G37*
G36*
X404000D02*
X403226Y173907D01*
X402593Y173275D01*
X402272Y172500D01*
X404000D01*
Y174228D01*
D02*
G37*
G36*
X470728Y174000D02*
X469000D01*
Y172272D01*
X469774Y172592D01*
X470407Y173225D01*
X470728Y174000D01*
D02*
G37*
G36*
X468000D02*
X466272D01*
X466593Y173225D01*
X467226Y172592D01*
X468000Y172272D01*
Y174000D01*
D02*
G37*
G36*
X406728Y171500D02*
X405000D01*
Y169772D01*
X405774Y170092D01*
X406407Y170726D01*
X406728Y171500D01*
D02*
G37*
G36*
X404000D02*
X402272D01*
X402593Y170726D01*
X403226Y170092D01*
X404000Y169772D01*
Y171500D01*
D02*
G37*
G36*
X490500Y170228D02*
Y168500D01*
X492228D01*
X491908Y169274D01*
X491274Y169907D01*
X490500Y170228D01*
D02*
G37*
G36*
X489500D02*
X488726Y169907D01*
X488093Y169274D01*
X487772Y168500D01*
X489500D01*
Y170228D01*
D02*
G37*
G36*
X492228Y167500D02*
X490500D01*
Y165772D01*
X491274Y166093D01*
X491908Y166726D01*
X492228Y167500D01*
D02*
G37*
G36*
X489500D02*
X487772D01*
X488093Y166726D01*
X488726Y166093D01*
X489500Y165772D01*
Y167500D01*
D02*
G37*
G36*
X463500Y167228D02*
Y165500D01*
X465228D01*
X464908Y166274D01*
X464275Y166908D01*
X463500Y167228D01*
D02*
G37*
G36*
X462500D02*
X461726Y166908D01*
X461093Y166274D01*
X460772Y165500D01*
X462500D01*
Y167228D01*
D02*
G37*
G36*
X406500Y166728D02*
Y165000D01*
X408228D01*
X407907Y165775D01*
X407274Y166408D01*
X406500Y166728D01*
D02*
G37*
G36*
X405500D02*
X404726Y166408D01*
X404093Y165775D01*
X403772Y165000D01*
X405500D01*
Y166728D01*
D02*
G37*
G36*
X465228Y164500D02*
X463500D01*
Y162772D01*
X464275Y163093D01*
X464908Y163725D01*
X465228Y164500D01*
D02*
G37*
G36*
X462500D02*
X460772D01*
X461093Y163725D01*
X461726Y163093D01*
X462500Y162772D01*
Y164500D01*
D02*
G37*
G36*
X408228Y164000D02*
X406500D01*
Y162272D01*
X407274Y162592D01*
X407907Y163225D01*
X408228Y164000D01*
D02*
G37*
G36*
X405500D02*
X403772D01*
X404093Y163225D01*
X404726Y162592D01*
X405500Y162272D01*
Y164000D01*
D02*
G37*
G36*
X406546Y161150D02*
X406500D01*
Y157500D01*
X410150D01*
Y157546D01*
X409867Y158602D01*
X409320Y159548D01*
X408548Y160320D01*
X407602Y160867D01*
X406546Y161150D01*
D02*
G37*
G36*
X396546D02*
X396500D01*
Y157500D01*
X400150D01*
Y157546D01*
X399867Y158602D01*
X399321Y159548D01*
X398548Y160320D01*
X397602Y160867D01*
X396546Y161150D01*
D02*
G37*
G36*
X477490Y167055D02*
X477000D01*
Y157500D01*
X486555D01*
Y157990D01*
X486169Y159933D01*
X485411Y161763D01*
X484310Y163410D01*
X482910Y164810D01*
X481263Y165911D01*
X479433Y166669D01*
X477490Y167055D01*
D02*
G37*
G36*
X476000D02*
X475510D01*
X473567Y166669D01*
X471737Y165911D01*
X470090Y164810D01*
X468690Y163410D01*
X467589Y161763D01*
X466831Y159933D01*
X466445Y157990D01*
Y157500D01*
X476000D01*
Y167055D01*
D02*
G37*
G36*
X177490D02*
X177000D01*
Y157500D01*
X186555D01*
Y157990D01*
X186169Y159933D01*
X185411Y161763D01*
X184310Y163410D01*
X182910Y164810D01*
X181263Y165911D01*
X179433Y166669D01*
X177490Y167055D01*
D02*
G37*
G36*
X176000D02*
X175510D01*
X173567Y166669D01*
X171737Y165911D01*
X170090Y164810D01*
X168690Y163410D01*
X167589Y161763D01*
X166831Y159933D01*
X166445Y157990D01*
Y157500D01*
X176000D01*
Y167055D01*
D02*
G37*
G36*
X405500Y161150D02*
X405454D01*
X404398Y160867D01*
X403452Y160320D01*
X402679Y159548D01*
X402133Y158602D01*
X401850Y157546D01*
Y157500D01*
X405500D01*
Y161150D01*
D02*
G37*
G36*
X395500D02*
X395454D01*
X394398Y160867D01*
X393452Y160320D01*
X392680Y159548D01*
X392133Y158602D01*
X391850Y157546D01*
Y157500D01*
X395500D01*
Y161150D01*
D02*
G37*
G36*
X426520Y160950D02*
X425480D01*
X424475Y160680D01*
X423575Y160161D01*
X422839Y159425D01*
X422320Y158525D01*
X422050Y157520D01*
Y156480D01*
X422320Y155475D01*
X422839Y154575D01*
X423575Y153840D01*
X424475Y153320D01*
X425480Y153050D01*
X426520D01*
X427525Y153320D01*
X428425Y153840D01*
X429160Y154575D01*
X429680Y155475D01*
X429950Y156480D01*
Y157520D01*
X429680Y158525D01*
X429160Y159425D01*
X428425Y160161D01*
X427525Y160680D01*
X426520Y160950D01*
D02*
G37*
G36*
X416520D02*
X415480D01*
X414475Y160680D01*
X413575Y160161D01*
X412840Y159425D01*
X412320Y158525D01*
X412050Y157520D01*
Y156480D01*
X412320Y155475D01*
X412840Y154575D01*
X413575Y153840D01*
X414475Y153320D01*
X415480Y153050D01*
X416520D01*
X417524Y153320D01*
X418425Y153840D01*
X419161Y154575D01*
X419680Y155475D01*
X419950Y156480D01*
Y157520D01*
X419680Y158525D01*
X419161Y159425D01*
X418425Y160161D01*
X417524Y160680D01*
X416520Y160950D01*
D02*
G37*
G36*
X437575Y160996D02*
X434425D01*
X433499Y160812D01*
X432713Y160287D01*
X432188Y159501D01*
X432004Y158575D01*
Y155425D01*
X432188Y154499D01*
X432713Y153713D01*
X433499Y153188D01*
X434425Y153004D01*
X437575D01*
X438501Y153188D01*
X439287Y153713D01*
X439812Y154499D01*
X439996Y155425D01*
Y158575D01*
X439812Y159501D01*
X439287Y160287D01*
X438501Y160812D01*
X437575Y160996D01*
D02*
G37*
G36*
X410150Y156500D02*
X406500D01*
Y152850D01*
X406546D01*
X407602Y153133D01*
X408548Y153680D01*
X409320Y154452D01*
X409867Y155398D01*
X410150Y156454D01*
Y156500D01*
D02*
G37*
G36*
X405500D02*
X401850D01*
Y156454D01*
X402133Y155398D01*
X402679Y154452D01*
X403452Y153680D01*
X404398Y153133D01*
X405454Y152850D01*
X405500D01*
Y156500D01*
D02*
G37*
G36*
X400150D02*
X396500D01*
Y152850D01*
X396546D01*
X397602Y153133D01*
X398548Y153680D01*
X399321Y154452D01*
X399867Y155398D01*
X400150Y156454D01*
Y156500D01*
D02*
G37*
G36*
X395500D02*
X391850D01*
Y156454D01*
X392133Y155398D01*
X392680Y154452D01*
X393452Y153680D01*
X394398Y153133D01*
X395454Y152850D01*
X395500D01*
Y156500D01*
D02*
G37*
G36*
X486555D02*
X477000D01*
Y146945D01*
X477490D01*
X479433Y147331D01*
X481263Y148089D01*
X482910Y149190D01*
X484310Y150590D01*
X485411Y152237D01*
X486169Y154067D01*
X486555Y156010D01*
Y156500D01*
D02*
G37*
G36*
X476000D02*
X466445D01*
Y156010D01*
X466831Y154067D01*
X467589Y152237D01*
X468690Y150590D01*
X470090Y149190D01*
X471737Y148089D01*
X473567Y147331D01*
X475510Y146945D01*
X476000D01*
Y156500D01*
D02*
G37*
G36*
X186555D02*
X177000D01*
Y146945D01*
X177490D01*
X179433Y147331D01*
X181263Y148089D01*
X182910Y149190D01*
X184310Y150590D01*
X185411Y152237D01*
X186169Y154067D01*
X186555Y156010D01*
Y156500D01*
D02*
G37*
G36*
X176000D02*
X166445D01*
Y156010D01*
X166831Y154067D01*
X167589Y152237D01*
X168690Y150590D01*
X170090Y149190D01*
X171737Y148089D01*
X173567Y147331D01*
X175510Y146945D01*
X176000D01*
Y156500D01*
D02*
G37*
%LPD*%
D54*
X476500Y357000D02*
D03*
Y157000D02*
D03*
X176500Y357000D02*
D03*
Y157000D02*
D03*
D86*
X396000D02*
D03*
X406000D02*
D03*
X426000D02*
D03*
X416000D02*
D03*
X351500Y357000D02*
D03*
X381500D02*
D03*
X401500D02*
D03*
X421500D02*
D03*
X411500D02*
D03*
X391500D02*
D03*
X371500D02*
D03*
X361500D02*
D03*
X341500D02*
D03*
X331500D02*
D03*
X321500D02*
D03*
D87*
X436000Y157000D02*
D03*
X431500Y357000D02*
D03*
D88*
X494000Y258000D02*
D03*
X484000D02*
D03*
X489000D02*
D03*
X499000Y257200D02*
D03*
X479000D02*
D03*
Y248800D02*
D03*
X499000D02*
D03*
X494000Y248000D02*
D03*
X484000D02*
D03*
X489000D02*
D03*
X169000Y326200D02*
D03*
X174000Y325400D02*
D03*
X164000Y326200D02*
D03*
X174000Y317000D02*
D03*
X169000Y316200D02*
D03*
X164000D02*
D03*
X159000Y326200D02*
D03*
X154000Y325400D02*
D03*
Y317000D02*
D03*
X159000Y316200D02*
D03*
X174000Y282400D02*
D03*
Y274000D02*
D03*
X164000Y283200D02*
D03*
X169000D02*
D03*
X164000Y273200D02*
D03*
X169000D02*
D03*
X159000Y283200D02*
D03*
X154000Y282400D02*
D03*
X159000Y273200D02*
D03*
X154000Y274000D02*
D03*
X174000Y239400D02*
D03*
Y231000D02*
D03*
X164000Y240200D02*
D03*
X169000D02*
D03*
X164000Y230200D02*
D03*
X169000D02*
D03*
X159000Y240200D02*
D03*
X154000Y239400D02*
D03*
Y231000D02*
D03*
X159000Y230200D02*
D03*
X174000Y196400D02*
D03*
Y188000D02*
D03*
X164000Y197200D02*
D03*
X169000D02*
D03*
X164000Y187200D02*
D03*
X169000D02*
D03*
X159000Y197200D02*
D03*
X154000Y196400D02*
D03*
X159000Y187200D02*
D03*
X154000Y188000D02*
D03*
D89*
X328000Y240500D02*
D03*
X191000Y314500D02*
D03*
X187500Y330500D02*
D03*
X188500Y287000D02*
D03*
X191300Y271143D02*
D03*
X188500Y244000D02*
D03*
X190910Y227955D02*
D03*
X190375Y200292D02*
D03*
X190840Y185070D02*
D03*
X181000Y188000D02*
D03*
Y196500D02*
D03*
Y231000D02*
D03*
Y239500D02*
D03*
Y274000D02*
D03*
Y282000D02*
D03*
Y317000D02*
D03*
Y325500D02*
D03*
X344000Y309500D02*
D03*
X302000Y230500D02*
D03*
X293000Y235000D02*
D03*
Y277500D02*
D03*
X294000Y287000D02*
D03*
X356500Y238500D02*
D03*
X356000Y230500D02*
D03*
X345500Y220500D02*
D03*
X454500Y215000D02*
D03*
X484500Y206500D02*
D03*
X490000Y168000D02*
D03*
X463000Y165000D02*
D03*
X468500Y174500D02*
D03*
X433000Y178500D02*
D03*
X421000Y176500D02*
D03*
X406000Y164500D02*
D03*
X404500Y172000D02*
D03*
X407500Y181000D02*
D03*
X430000Y190000D02*
D03*
X437500Y199500D02*
D03*
X450000Y204000D02*
D03*
X465500Y330500D02*
D03*
X437000Y334000D02*
D03*
Y324500D02*
D03*
X438500Y300000D02*
D03*
X348000Y328000D02*
D03*
X334500Y332500D02*
D03*
X331500Y349500D02*
D03*
Y342000D02*
D03*
X346500Y344000D02*
D03*
X355000Y350000D02*
D03*
X365272Y343500D02*
D03*
X376500Y347500D02*
D03*
X386000Y341500D02*
D03*
X398500Y328500D02*
D03*
X399000Y319500D02*
D03*
X380500Y311000D02*
D03*
X399000Y301000D02*
D03*
X401000Y294500D02*
D03*
X381500Y271500D02*
D03*
X394500Y284000D02*
D03*
X347500Y273000D02*
D03*
X369500Y290500D02*
D03*
X354550Y305500D02*
D03*
X425517Y249620D02*
D03*
X463017D02*
D03*
X342750Y257000D02*
D03*
X308500Y273500D02*
D03*
X293000Y241000D02*
D03*
X342000Y233500D02*
D03*
X346000Y227000D02*
D03*
X303498Y223522D02*
D03*
X220710Y325087D02*
D03*
X213210D02*
D03*
X205710D02*
D03*
X198359Y326575D02*
D03*
X196860Y315773D02*
D03*
X204200Y317313D02*
D03*
X211700D02*
D03*
X219200D02*
D03*
X226699Y317391D02*
D03*
X232242Y312338D02*
D03*
X239733Y311966D02*
D03*
X244992Y317313D02*
D03*
X252492D02*
D03*
X259992D02*
D03*
X267492D02*
D03*
X274992D02*
D03*
X280997Y312819D02*
D03*
X284952Y306446D02*
D03*
X291324Y302491D02*
D03*
X296627Y297188D02*
D03*
X301931Y291885D02*
D03*
X307234Y286581D02*
D03*
X312537Y281278D02*
D03*
X317566Y275713D02*
D03*
X324197Y279957D02*
D03*
X319232Y285578D02*
D03*
X313929Y290882D02*
D03*
X308625Y296185D02*
D03*
X303322Y301488D02*
D03*
X298019Y306792D02*
D03*
X292715Y312095D02*
D03*
X287412Y317398D02*
D03*
X282046Y322638D02*
D03*
X274957Y325087D02*
D03*
X267457D02*
D03*
X259957D02*
D03*
X252457D02*
D03*
X244957D02*
D03*
X237492Y325813D02*
D03*
X232506Y331415D02*
D03*
X213443Y282087D02*
D03*
X205943D02*
D03*
X198580Y283514D02*
D03*
X197855Y272759D02*
D03*
X205192Y274313D02*
D03*
X212692D02*
D03*
X218710Y269836D02*
D03*
X223647Y264191D02*
D03*
X230546Y267132D02*
D03*
X232712Y274313D02*
D03*
X240212D02*
D03*
X246654Y270472D02*
D03*
X251958Y265169D02*
D03*
X257280Y259885D02*
D03*
X309787Y265809D02*
D03*
X302287D02*
D03*
X294787D02*
D03*
X287287D02*
D03*
X279787D02*
D03*
X272287D02*
D03*
X264787D02*
D03*
X258393Y269728D02*
D03*
X253090Y275032D02*
D03*
X247702Y280249D02*
D03*
X240430Y282087D02*
D03*
X232930D02*
D03*
X226335Y285659D02*
D03*
X221349Y291261D02*
D03*
X307052Y255966D02*
D03*
X299552D02*
D03*
X292052D02*
D03*
X284552D02*
D03*
X277052D02*
D03*
X269552D02*
D03*
X262057Y255700D02*
D03*
X255920Y251388D02*
D03*
X250617Y246084D02*
D03*
X245314Y240781D02*
D03*
X238007Y239087D02*
D03*
X230737Y240928D02*
D03*
X225532Y246327D02*
D03*
X218135Y245086D02*
D03*
X210639Y245328D02*
D03*
X206479Y239087D02*
D03*
X199090Y240375D02*
D03*
X199967Y230437D02*
D03*
X207416Y231313D02*
D03*
X213796Y227370D02*
D03*
X220638Y224297D02*
D03*
X228138Y224304D02*
D03*
X235005Y227319D02*
D03*
X241354Y231313D02*
D03*
X248603Y233235D02*
D03*
X253986Y238458D02*
D03*
X259289Y243761D02*
D03*
X265340Y248191D02*
D03*
X272840D02*
D03*
X280341D02*
D03*
X287841D02*
D03*
X295340D02*
D03*
X302840D02*
D03*
X310340D02*
D03*
X317686Y240718D02*
D03*
X314105Y234128D02*
D03*
X308801Y228825D02*
D03*
X298195Y218218D02*
D03*
X292892Y212915D02*
D03*
X286264Y209405D02*
D03*
X282753Y202777D02*
D03*
X277450Y197474D02*
D03*
X270079Y196087D02*
D03*
X262579D02*
D03*
X255079D02*
D03*
X247579D02*
D03*
X240079D02*
D03*
X232783Y197825D02*
D03*
X226898Y202474D02*
D03*
X220655Y198318D02*
D03*
X213494Y196087D02*
D03*
X205995D02*
D03*
X198628Y197497D02*
D03*
X198036Y186783D02*
D03*
X205378Y188313D02*
D03*
X212878D02*
D03*
X220378D02*
D03*
X226795Y184431D02*
D03*
X234053Y182540D02*
D03*
X238841Y188313D02*
D03*
X246340D02*
D03*
X253840D02*
D03*
X261340D02*
D03*
X268841D02*
D03*
X276340Y188359D02*
D03*
X282924Y191952D02*
D03*
X288227Y197256D02*
D03*
X293530Y202559D02*
D03*
X298834Y207862D02*
D03*
X304137Y213166D02*
D03*
X309440Y218469D02*
D03*
X314743Y223772D02*
D03*
X320047Y229076D02*
D03*
X324738Y234927D02*
D03*
X338500Y297000D02*
D03*
X378500Y296500D02*
D03*
X359000Y304500D02*
D03*
X467351Y256506D02*
D03*
X459851D02*
D03*
X452351D02*
D03*
X444851D02*
D03*
X437351D02*
D03*
X429851D02*
D03*
X422351D02*
D03*
X407351D02*
D03*
X399851D02*
D03*
X392351D02*
D03*
X384851D02*
D03*
X377351D02*
D03*
X369851D02*
D03*
X362351D02*
D03*
X354851D02*
D03*
X343017Y249620D02*
D03*
X350517D02*
D03*
X358017D02*
D03*
X365517D02*
D03*
X373017D02*
D03*
X380517D02*
D03*
X388017D02*
D03*
X395517D02*
D03*
X403017D02*
D03*
X410517D02*
D03*
X433017D02*
D03*
X440517D02*
D03*
X448017D02*
D03*
X455517D02*
D03*
X470517D02*
D03*
X354000Y326500D02*
D03*
X341720Y332625D02*
D03*
X415756Y181244D02*
D03*
X427744Y305244D02*
D03*
X387500Y324000D02*
D03*
X364500Y320500D02*
D03*
X427404Y335905D02*
D03*
X380107Y330107D02*
D03*
X360500Y328000D02*
D03*
X472000Y196500D02*
D03*
Y191500D02*
D03*
X333500Y264000D02*
D03*
Y259000D02*
D03*
Y255000D02*
D03*
X331067Y252433D02*
D03*
Y261567D02*
D03*
X328500Y264000D02*
D03*
Y259000D02*
D03*
Y250000D02*
D03*
Y255000D02*
D03*
X466500Y196500D02*
D03*
X469227Y194000D02*
D03*
X466500Y191500D02*
D03*
X333500Y250000D02*
D03*
X324500Y264000D02*
D03*
X319500D02*
D03*
X321933Y261567D02*
D03*
X324500Y259000D02*
D03*
X319500D02*
D03*
X324500Y255000D02*
D03*
X321933Y252433D02*
D03*
X319500Y255000D02*
D03*
Y250000D02*
D03*
X324500D02*
D03*
X468500Y322000D02*
D03*
X455500Y183500D02*
D03*
X486000Y201500D02*
D03*
X490000Y191000D02*
D03*
Y186500D02*
D03*
D90*
X328000Y240500D02*
D03*
D91*
X186000Y191750D02*
D03*
D92*
Y236000D02*
D03*
D93*
X186750Y278250D02*
D03*
D94*
X186000Y322750D02*
D03*
D95*
X488500Y253250D02*
D03*
D96*
X469250Y194000D02*
D03*
D97*
X164000Y321000D02*
D03*
D98*
X164750Y278000D02*
D03*
D99*
X326500Y257000D02*
D03*
D100*
X164250Y237000D02*
D03*
D101*
X164500Y192250D02*
D03*
M02*
