%TF.GenerationSoftware,KiCad,Pcbnew,9.0.2*%
%TF.CreationDate,2026-04-04T19:11:57-05:00*%
%TF.ProjectId,board,626f6172-642e-46b6-9963-61645f706362,rev?*%
%TF.SameCoordinates,Original*%
%TF.FileFunction,Drillmap*%
%TF.FilePolarity,Positive*%
%FSLAX45Y45*%
G04 Gerber Fmt 4.5, Leading zero omitted, Abs format (unit mm)*
G04 Created by KiCad (PCBNEW 9.0.2) date 2026-04-04 19:11:57*
%MOMM*%
%LPD*%
G01*
G04 APERTURE LIST*
%ADD10C,0.050000*%
%ADD11C,0.200000*%
G04 APERTURE END LIST*
D10*
X7100000Y-5450000D02*
X11430340Y-5450000D01*
X11430340Y-7750000D01*
X7100000Y-7750000D01*
X7100000Y-5450000D01*
D11*
X7358277Y-8063984D02*
X7358277Y-7863984D01*
X7358277Y-7863984D02*
X7405896Y-7863984D01*
X7405896Y-7863984D02*
X7434467Y-7873508D01*
X7434467Y-7873508D02*
X7453515Y-7892555D01*
X7453515Y-7892555D02*
X7463039Y-7911603D01*
X7463039Y-7911603D02*
X7472562Y-7949698D01*
X7472562Y-7949698D02*
X7472562Y-7978269D01*
X7472562Y-7978269D02*
X7463039Y-8016365D01*
X7463039Y-8016365D02*
X7453515Y-8035412D01*
X7453515Y-8035412D02*
X7434467Y-8054460D01*
X7434467Y-8054460D02*
X7405896Y-8063984D01*
X7405896Y-8063984D02*
X7358277Y-8063984D01*
X7558277Y-8063984D02*
X7558277Y-7930650D01*
X7558277Y-7968746D02*
X7567801Y-7949698D01*
X7567801Y-7949698D02*
X7577324Y-7940174D01*
X7577324Y-7940174D02*
X7596372Y-7930650D01*
X7596372Y-7930650D02*
X7615420Y-7930650D01*
X7682086Y-8063984D02*
X7682086Y-7930650D01*
X7682086Y-7863984D02*
X7672562Y-7873508D01*
X7672562Y-7873508D02*
X7682086Y-7883031D01*
X7682086Y-7883031D02*
X7691610Y-7873508D01*
X7691610Y-7873508D02*
X7682086Y-7863984D01*
X7682086Y-7863984D02*
X7682086Y-7883031D01*
X7805896Y-8063984D02*
X7786848Y-8054460D01*
X7786848Y-8054460D02*
X7777324Y-8035412D01*
X7777324Y-8035412D02*
X7777324Y-7863984D01*
X7910658Y-8063984D02*
X7891610Y-8054460D01*
X7891610Y-8054460D02*
X7882086Y-8035412D01*
X7882086Y-8035412D02*
X7882086Y-7863984D01*
X8139229Y-8063984D02*
X8139229Y-7863984D01*
X8139229Y-7863984D02*
X8205896Y-8006841D01*
X8205896Y-8006841D02*
X8272562Y-7863984D01*
X8272562Y-7863984D02*
X8272562Y-8063984D01*
X8453515Y-8063984D02*
X8453515Y-7959222D01*
X8453515Y-7959222D02*
X8443991Y-7940174D01*
X8443991Y-7940174D02*
X8424944Y-7930650D01*
X8424944Y-7930650D02*
X8386848Y-7930650D01*
X8386848Y-7930650D02*
X8367801Y-7940174D01*
X8453515Y-8054460D02*
X8434467Y-8063984D01*
X8434467Y-8063984D02*
X8386848Y-8063984D01*
X8386848Y-8063984D02*
X8367801Y-8054460D01*
X8367801Y-8054460D02*
X8358277Y-8035412D01*
X8358277Y-8035412D02*
X8358277Y-8016365D01*
X8358277Y-8016365D02*
X8367801Y-7997317D01*
X8367801Y-7997317D02*
X8386848Y-7987793D01*
X8386848Y-7987793D02*
X8434467Y-7987793D01*
X8434467Y-7987793D02*
X8453515Y-7978269D01*
X8548753Y-7930650D02*
X8548753Y-8130650D01*
X8548753Y-7940174D02*
X8567801Y-7930650D01*
X8567801Y-7930650D02*
X8605896Y-7930650D01*
X8605896Y-7930650D02*
X8624944Y-7940174D01*
X8624944Y-7940174D02*
X8634467Y-7949698D01*
X8634467Y-7949698D02*
X8643991Y-7968746D01*
X8643991Y-7968746D02*
X8643991Y-8025888D01*
X8643991Y-8025888D02*
X8634467Y-8044936D01*
X8634467Y-8044936D02*
X8624944Y-8054460D01*
X8624944Y-8054460D02*
X8605896Y-8063984D01*
X8605896Y-8063984D02*
X8567801Y-8063984D01*
X8567801Y-8063984D02*
X8548753Y-8054460D01*
X8729705Y-8044936D02*
X8739229Y-8054460D01*
X8739229Y-8054460D02*
X8729705Y-8063984D01*
X8729705Y-8063984D02*
X8720182Y-8054460D01*
X8720182Y-8054460D02*
X8729705Y-8044936D01*
X8729705Y-8044936D02*
X8729705Y-8063984D01*
X8729705Y-7940174D02*
X8739229Y-7949698D01*
X8739229Y-7949698D02*
X8729705Y-7959222D01*
X8729705Y-7959222D02*
X8720182Y-7949698D01*
X8720182Y-7949698D02*
X8729705Y-7940174D01*
X8729705Y-7940174D02*
X8729705Y-7959222D01*
M02*
