%TF.GenerationSoftware,KiCad,Pcbnew,9.0.2*%
%TF.CreationDate,2026-04-04T19:11:57-05:00*%
%TF.ProjectId,board,626f6172-642e-46b6-9963-61645f706362,rev?*%
%TF.SameCoordinates,Original*%
%TF.FileFunction,Drillmap*%
%TF.FilePolarity,Positive*%
%FSLAX45Y45*%
G04 Gerber Fmt 4.5, Leading zero omitted, Abs format (unit mm)*
G04 Created by KiCad (PCBNEW 9.0.2) date 2026-04-04 19:11:57*
%MOMM*%
%LPD*%
G01*
G04 APERTURE LIST*
%ADD10C,0.050000*%
%ADD11C,0.200000*%
%ADD12C,0.100000*%
%ADD13C,0.110000*%
G04 APERTURE END LIST*
D10*
X7100000Y-5450000D02*
X11430340Y-5450000D01*
X11430340Y-7750000D01*
X7100000Y-7750000D01*
X7100000Y-5450000D01*
D11*
D12*
X7584680Y-6723620D02*
X7614680Y-6753620D01*
X7614680Y-6723620D02*
X7584680Y-6753620D01*
X8336520Y-6802360D02*
X8366520Y-6832360D01*
X8366520Y-6802360D02*
X8336520Y-6832360D01*
X8389860Y-6286740D02*
X8419860Y-6316740D01*
X8419860Y-6286740D02*
X8389860Y-6316740D01*
X8460000Y-6987000D02*
X8490000Y-7017000D01*
X8490000Y-6987000D02*
X8460000Y-7017000D01*
X8553000Y-6889000D02*
X8583000Y-6919000D01*
X8583000Y-6889000D02*
X8553000Y-6919000D01*
X8598140Y-7488160D02*
X8628140Y-7518160D01*
X8628140Y-7488160D02*
X8598140Y-7518160D01*
X8704680Y-6671020D02*
X8734680Y-6701020D01*
X8734680Y-6671020D02*
X8704680Y-6701020D01*
X8717520Y-7429740D02*
X8747520Y-7459740D01*
X8747520Y-7429740D02*
X8717520Y-7459740D01*
X8728680Y-6541020D02*
X8758680Y-6571020D01*
X8758680Y-6541020D02*
X8728680Y-6571020D01*
X8828680Y-6701020D02*
X8858680Y-6731020D01*
X8858680Y-6701020D02*
X8828680Y-6731020D01*
X8864680Y-6572020D02*
X8894680Y-6602020D01*
X8894680Y-6572020D02*
X8864680Y-6602020D01*
X8979140Y-6159740D02*
X9009140Y-6189740D01*
X9009140Y-6159740D02*
X8979140Y-6189740D01*
X9037560Y-6865860D02*
X9067560Y-6895860D01*
X9067560Y-6865860D02*
X9037560Y-6895860D01*
X9093440Y-6281660D02*
X9123440Y-6311660D01*
X9123440Y-6281660D02*
X9093440Y-6311660D01*
X9126460Y-6355320D02*
X9156460Y-6385320D01*
X9156460Y-6355320D02*
X9126460Y-6385320D01*
X9133560Y-6524560D02*
X9163560Y-6554560D01*
X9163560Y-6524560D02*
X9133560Y-6554560D01*
X9133560Y-6824560D02*
X9163560Y-6854560D01*
X9163560Y-6824560D02*
X9133560Y-6854560D01*
X9184880Y-7079220D02*
X9214880Y-7109220D01*
X9214880Y-7079220D02*
X9184880Y-7109220D01*
X9195040Y-6959840D02*
X9225040Y-6989840D01*
X9225040Y-6959840D02*
X9195040Y-6989840D01*
X9240000Y-6530000D02*
X9270000Y-6560000D01*
X9270000Y-6530000D02*
X9240000Y-6560000D01*
X9240760Y-6769340D02*
X9270760Y-6799340D01*
X9270760Y-6769340D02*
X9240760Y-6799340D01*
X9357600Y-6522960D02*
X9387600Y-6552960D01*
X9387600Y-6522960D02*
X9357600Y-6552960D01*
X9395700Y-6794740D02*
X9425700Y-6824740D01*
X9425700Y-6794740D02*
X9395700Y-6824740D01*
X9410107Y-6282493D02*
X9440107Y-6312493D01*
X9440107Y-6282493D02*
X9410107Y-6312493D01*
X9432967Y-7024173D02*
X9462967Y-7054173D01*
X9462967Y-7024173D02*
X9432967Y-7054173D01*
X9587907Y-6142793D02*
X9617907Y-6172793D01*
X9617907Y-6142793D02*
X9587907Y-6172793D01*
X9610000Y-6662000D02*
X9640000Y-6692000D01*
X9640000Y-6662000D02*
X9610000Y-6692000D01*
X9618387Y-7163873D02*
X9648387Y-7193873D01*
X9648387Y-7163873D02*
X9618387Y-7193873D01*
X9667000Y-6724000D02*
X9697000Y-6754000D01*
X9697000Y-6724000D02*
X9667000Y-6754000D01*
X9685260Y-6594080D02*
X9715260Y-6624080D01*
X9715260Y-6594080D02*
X9685260Y-6624080D01*
X9726000Y-6778000D02*
X9756000Y-6808000D01*
X9756000Y-6778000D02*
X9726000Y-6808000D01*
X9772000Y-7188000D02*
X9802000Y-7218000D01*
X9802000Y-7188000D02*
X9772000Y-7218000D01*
X9774160Y-6507720D02*
X9804160Y-6537720D01*
X9804160Y-6507720D02*
X9774160Y-6537720D01*
X9784000Y-6829000D02*
X9814000Y-6859000D01*
X9814000Y-6829000D02*
X9784000Y-6859000D01*
X9794480Y-6121640D02*
X9824480Y-6151640D01*
X9824480Y-6121640D02*
X9794480Y-6151640D01*
X9819880Y-6434060D02*
X9849880Y-6464060D01*
X9849880Y-6434060D02*
X9819880Y-6464060D01*
X9843000Y-6883000D02*
X9873000Y-6913000D01*
X9873000Y-6883000D02*
X9843000Y-6913000D01*
X9843000Y-7224000D02*
X9873000Y-7254000D01*
X9873000Y-7224000D02*
X9843000Y-7254000D01*
X9860520Y-6022580D02*
X9890520Y-6052580D01*
X9890520Y-6022580D02*
X9860520Y-6052580D01*
X9878300Y-6385800D02*
X9908300Y-6415800D01*
X9908300Y-6385800D02*
X9878300Y-6415800D01*
X9909000Y-6933000D02*
X9939000Y-6963000D01*
X9939000Y-6933000D02*
X9909000Y-6963000D01*
X9929100Y-6327380D02*
X9959100Y-6357380D01*
X9959100Y-6327380D02*
X9929100Y-6357380D01*
X9933000Y-7236000D02*
X9963000Y-7266000D01*
X9963000Y-7236000D02*
X9933000Y-7266000D01*
X9939260Y-5948920D02*
X9969260Y-5978920D01*
X9969260Y-5948920D02*
X9939260Y-5978920D01*
X9981000Y-6964000D02*
X10011000Y-6994000D01*
X10011000Y-6964000D02*
X9981000Y-6994000D01*
X10005300Y-6256260D02*
X10035300Y-6286260D01*
X10035300Y-6256260D02*
X10005300Y-6286260D01*
X10020540Y-5880340D02*
X10050540Y-5910340D01*
X10050540Y-5880340D02*
X10020540Y-5910340D01*
X10029000Y-7236000D02*
X10059000Y-7266000D01*
X10059000Y-7236000D02*
X10029000Y-7266000D01*
X10055000Y-6976000D02*
X10085000Y-7006000D01*
X10085000Y-6976000D02*
X10055000Y-7006000D01*
X10071340Y-6233400D02*
X10101340Y-6263400D01*
X10101340Y-6233400D02*
X10071340Y-6263400D01*
X10127220Y-6157200D02*
X10157220Y-6187200D01*
X10157220Y-6157200D02*
X10127220Y-6187200D01*
X10133000Y-6969000D02*
X10163000Y-6999000D01*
X10163000Y-6969000D02*
X10133000Y-6999000D01*
X10133000Y-7229000D02*
X10163000Y-7259000D01*
X10163000Y-7229000D02*
X10133000Y-7259000D01*
X10145000Y-5814300D02*
X10175000Y-5844300D01*
X10175000Y-5814300D02*
X10145000Y-5844300D01*
X10185640Y-6091160D02*
X10215640Y-6121160D01*
X10215640Y-6091160D02*
X10185640Y-6121160D01*
X10204000Y-6974000D02*
X10234000Y-7004000D01*
X10234000Y-6974000D02*
X10204000Y-7004000D01*
X10221000Y-7228000D02*
X10251000Y-7258000D01*
X10251000Y-7228000D02*
X10221000Y-7258000D01*
X10283000Y-6974000D02*
X10313000Y-7004000D01*
X10313000Y-6974000D02*
X10283000Y-7004000D01*
X10297400Y-5824460D02*
X10327400Y-5854460D01*
X10327400Y-5824460D02*
X10297400Y-5854460D01*
X10304000Y-7221000D02*
X10334000Y-7251000D01*
X10334000Y-7221000D02*
X10304000Y-7251000D01*
X10348200Y-6068300D02*
X10378200Y-6098300D01*
X10378200Y-6068300D02*
X10348200Y-6098300D01*
X10359000Y-6969000D02*
X10389000Y-6999000D01*
X10389000Y-6969000D02*
X10359000Y-6999000D01*
X10388840Y-5804140D02*
X10418840Y-5834140D01*
X10418840Y-5804140D02*
X10388840Y-5834140D01*
X10398000Y-7223000D02*
X10428000Y-7253000D01*
X10428000Y-7223000D02*
X10398000Y-7253000D01*
X10445000Y-6974000D02*
X10475000Y-7004000D01*
X10475000Y-6974000D02*
X10445000Y-7004000D01*
X10485000Y-7216000D02*
X10515000Y-7246000D01*
X10515000Y-7216000D02*
X10485000Y-7246000D01*
X10487900Y-5827000D02*
X10517900Y-5857000D01*
X10517900Y-5827000D02*
X10487900Y-5857000D01*
X10490440Y-6078460D02*
X10520440Y-6108460D01*
X10520440Y-6078460D02*
X10490440Y-6108460D01*
X10523000Y-6974000D02*
X10553000Y-7004000D01*
X10553000Y-6974000D02*
X10523000Y-7004000D01*
X10571720Y-6075920D02*
X10601720Y-6105920D01*
X10601720Y-6075920D02*
X10571720Y-6105920D01*
X10588000Y-7224000D02*
X10618000Y-7254000D01*
X10618000Y-7224000D02*
X10588000Y-7254000D01*
X10592040Y-5829540D02*
X10622040Y-5859540D01*
X10622040Y-5829540D02*
X10592040Y-5859540D01*
X10623000Y-6976000D02*
X10653000Y-7006000D01*
X10653000Y-6976000D02*
X10623000Y-7006000D01*
X10653000Y-6365480D02*
X10683000Y-6395480D01*
X10683000Y-6365480D02*
X10653000Y-6395480D01*
X10658080Y-6169900D02*
X10688080Y-6199900D01*
X10688080Y-6169900D02*
X10658080Y-6199900D01*
X10658080Y-6243560D02*
X10688080Y-6273560D01*
X10688080Y-6243560D02*
X10658080Y-6273560D01*
X10663160Y-5804140D02*
X10693160Y-5834140D01*
X10693160Y-5804140D02*
X10663160Y-5834140D01*
X10665700Y-6081000D02*
X10695700Y-6111000D01*
X10695700Y-6081000D02*
X10665700Y-6111000D01*
X10668240Y-5542520D02*
X10698240Y-5572520D01*
X10698240Y-5542520D02*
X10668240Y-5572520D01*
X10668240Y-5710160D02*
X10698240Y-5740160D01*
X10698240Y-5710160D02*
X10668240Y-5740160D01*
X10680940Y-5623800D02*
X10710940Y-5653800D01*
X10710940Y-5623800D02*
X10680940Y-5653800D01*
X10686000Y-6756000D02*
X10716000Y-6786000D01*
X10716000Y-6756000D02*
X10686000Y-6786000D01*
X10691000Y-6859000D02*
X10721000Y-6889000D01*
X10721000Y-6859000D02*
X10691000Y-6889000D01*
X10692000Y-7226000D02*
X10722000Y-7256000D01*
X10722000Y-7226000D02*
X10692000Y-7256000D01*
X10707000Y-6655000D02*
X10737000Y-6685000D01*
X10737000Y-6655000D02*
X10707000Y-6685000D01*
X10713960Y-6451840D02*
X10743960Y-6481840D01*
X10743960Y-6451840D02*
X10713960Y-6481840D01*
X10726660Y-7589760D02*
X10756660Y-7619760D01*
X10756660Y-7589760D02*
X10726660Y-7619760D01*
X10810000Y-6631000D02*
X10840000Y-6661000D01*
X10840000Y-6631000D02*
X10810000Y-6661000D01*
X10843500Y-6451840D02*
X10873500Y-6481840D01*
X10873500Y-6451840D02*
X10843500Y-6481840D01*
X10843500Y-7602460D02*
X10873500Y-7632460D01*
X10873500Y-7602460D02*
X10843500Y-7632460D01*
X10924780Y-7599920D02*
X10954780Y-7629920D01*
X10954780Y-7599920D02*
X10924780Y-7629920D01*
X10950000Y-6629000D02*
X10980000Y-6659000D01*
X10980000Y-6629000D02*
X10950000Y-6659000D01*
X10957800Y-6444220D02*
X10987800Y-6474220D01*
X10987800Y-6444220D02*
X10957800Y-6474220D01*
X11049240Y-7594840D02*
X11079240Y-7624840D01*
X11079240Y-7594840D02*
X11049240Y-7624840D01*
X11077180Y-6449300D02*
X11107180Y-6479300D01*
X11107180Y-6449300D02*
X11077180Y-6479300D01*
X11082000Y-6634000D02*
X11112000Y-6664000D01*
X11112000Y-6634000D02*
X11082000Y-6664000D01*
X11199100Y-6449300D02*
X11229100Y-6479300D01*
X11229100Y-6449300D02*
X11199100Y-6479300D01*
X11204000Y-6624000D02*
X11234000Y-6654000D01*
X11234000Y-6624000D02*
X11204000Y-6654000D01*
X11209260Y-7594840D02*
X11239260Y-7624840D01*
X11239260Y-7594840D02*
X11209260Y-7624840D01*
X11307000Y-6618000D02*
X11337000Y-6648000D01*
X11337000Y-6618000D02*
X11307000Y-6648000D01*
X11310860Y-7610080D02*
X11340860Y-7640080D01*
X11340860Y-7610080D02*
X11310860Y-7640080D01*
X11323560Y-6456920D02*
X11353560Y-6486920D01*
X11353560Y-6456920D02*
X11323560Y-6486920D01*
X10850880Y-7005320D02*
G75*
G02*
X10805160Y-7005320I-22860J0D01*
G01*
X10805160Y-7005320D02*
G75*
G02*
X10850880Y-7005320I22860J0D01*
G01*
X10850880Y-7218680D02*
G75*
G02*
X10805160Y-7218680I-22860J0D01*
G01*
X10805160Y-7218680D02*
G75*
G02*
X10850880Y-7218680I22860J0D01*
G01*
X10853420Y-5857240D02*
G75*
G02*
X10807700Y-5857240I-22860J0D01*
G01*
X10807700Y-5857240D02*
G75*
G02*
X10853420Y-5857240I22860J0D01*
G01*
X10853420Y-6070600D02*
G75*
G02*
X10807700Y-6070600I-22860J0D01*
G01*
X10807700Y-6070600D02*
G75*
G02*
X10853420Y-6070600I22860J0D01*
G01*
X10977880Y-6985000D02*
G75*
G02*
X10932160Y-6985000I-22860J0D01*
G01*
X10932160Y-6985000D02*
G75*
G02*
X10977880Y-6985000I22860J0D01*
G01*
X10977880Y-7239000D02*
G75*
G02*
X10932160Y-7239000I-22860J0D01*
G01*
X10932160Y-7239000D02*
G75*
G02*
X10977880Y-7239000I22860J0D01*
G01*
X10980420Y-5836920D02*
G75*
G02*
X10934700Y-5836920I-22860J0D01*
G01*
X10934700Y-5836920D02*
G75*
G02*
X10980420Y-5836920I22860J0D01*
G01*
X10980420Y-6090920D02*
G75*
G02*
X10934700Y-6090920I-22860J0D01*
G01*
X10934700Y-6090920D02*
G75*
G02*
X10980420Y-6090920I22860J0D01*
G01*
X11104880Y-6985000D02*
G75*
G02*
X11059160Y-6985000I-22860J0D01*
G01*
X11059160Y-6985000D02*
G75*
G02*
X11104880Y-6985000I22860J0D01*
G01*
X11104880Y-7239000D02*
G75*
G02*
X11059160Y-7239000I-22860J0D01*
G01*
X11059160Y-7239000D02*
G75*
G02*
X11104880Y-7239000I22860J0D01*
G01*
X11107420Y-5836920D02*
G75*
G02*
X11061700Y-5836920I-22860J0D01*
G01*
X11061700Y-5836920D02*
G75*
G02*
X11107420Y-5836920I22860J0D01*
G01*
X11107420Y-6090920D02*
G75*
G02*
X11061700Y-6090920I-22860J0D01*
G01*
X11061700Y-6090920D02*
G75*
G02*
X11107420Y-6090920I22860J0D01*
G01*
X11231880Y-7239000D02*
G75*
G02*
X11186160Y-7239000I-22860J0D01*
G01*
X11186160Y-7239000D02*
G75*
G02*
X11231880Y-7239000I22860J0D01*
G01*
X11234420Y-6090920D02*
G75*
G02*
X11188700Y-6090920I-22860J0D01*
G01*
X11188700Y-6090920D02*
G75*
G02*
X11234420Y-6090920I22860J0D01*
G01*
X11358880Y-7005320D02*
G75*
G02*
X11313160Y-7005320I-22860J0D01*
G01*
X11313160Y-7005320D02*
G75*
G02*
X11358880Y-7005320I22860J0D01*
G01*
X11358880Y-7218680D02*
G75*
G02*
X11313160Y-7218680I-22860J0D01*
G01*
X11313160Y-7218680D02*
G75*
G02*
X11358880Y-7218680I22860J0D01*
G01*
X11361420Y-5857240D02*
G75*
G02*
X11315700Y-5857240I-22860J0D01*
G01*
X11315700Y-5857240D02*
G75*
G02*
X11361420Y-5857240I22860J0D01*
G01*
X11361420Y-6070600D02*
G75*
G02*
X11315700Y-6070600I-22860J0D01*
G01*
X11315700Y-6070600D02*
G75*
G02*
X11361420Y-6070600I22860J0D01*
G01*
X7529040Y-5681780D02*
X7529040Y-5781780D01*
X7479040Y-5731780D02*
X7579040Y-5731780D01*
X7529040Y-5935780D02*
X7529040Y-6035780D01*
X7479040Y-5985780D02*
X7579040Y-5985780D01*
X7529040Y-6189780D02*
X7529040Y-6289780D01*
X7479040Y-6239780D02*
X7579040Y-6239780D01*
X7529040Y-6443780D02*
X7529040Y-6543780D01*
X7479040Y-6493780D02*
X7579040Y-6493780D01*
D13*
X7747791Y-7192551D02*
X7747791Y-7114769D01*
X7670009Y-7114769D01*
X7670009Y-7192551D01*
X7747791Y-7192551D01*
X8001791Y-7192551D02*
X8001791Y-7114769D01*
X7924009Y-7114769D01*
X7924009Y-7192551D01*
X8001791Y-7192551D01*
X8255791Y-7192551D02*
X8255791Y-7114769D01*
X8178009Y-7114769D01*
X8178009Y-7192551D01*
X8255791Y-7192551D01*
D11*
X7358277Y-8063984D02*
X7358277Y-7863984D01*
X7358277Y-7863984D02*
X7405896Y-7863984D01*
X7405896Y-7863984D02*
X7434467Y-7873508D01*
X7434467Y-7873508D02*
X7453515Y-7892555D01*
X7453515Y-7892555D02*
X7463039Y-7911603D01*
X7463039Y-7911603D02*
X7472562Y-7949698D01*
X7472562Y-7949698D02*
X7472562Y-7978269D01*
X7472562Y-7978269D02*
X7463039Y-8016365D01*
X7463039Y-8016365D02*
X7453515Y-8035412D01*
X7453515Y-8035412D02*
X7434467Y-8054460D01*
X7434467Y-8054460D02*
X7405896Y-8063984D01*
X7405896Y-8063984D02*
X7358277Y-8063984D01*
X7558277Y-8063984D02*
X7558277Y-7930650D01*
X7558277Y-7968746D02*
X7567801Y-7949698D01*
X7567801Y-7949698D02*
X7577324Y-7940174D01*
X7577324Y-7940174D02*
X7596372Y-7930650D01*
X7596372Y-7930650D02*
X7615420Y-7930650D01*
X7682086Y-8063984D02*
X7682086Y-7930650D01*
X7682086Y-7863984D02*
X7672562Y-7873508D01*
X7672562Y-7873508D02*
X7682086Y-7883031D01*
X7682086Y-7883031D02*
X7691610Y-7873508D01*
X7691610Y-7873508D02*
X7682086Y-7863984D01*
X7682086Y-7863984D02*
X7682086Y-7883031D01*
X7805896Y-8063984D02*
X7786848Y-8054460D01*
X7786848Y-8054460D02*
X7777324Y-8035412D01*
X7777324Y-8035412D02*
X7777324Y-7863984D01*
X7910658Y-8063984D02*
X7891610Y-8054460D01*
X7891610Y-8054460D02*
X7882086Y-8035412D01*
X7882086Y-8035412D02*
X7882086Y-7863984D01*
X8139229Y-8063984D02*
X8139229Y-7863984D01*
X8139229Y-7863984D02*
X8205896Y-8006841D01*
X8205896Y-8006841D02*
X8272562Y-7863984D01*
X8272562Y-7863984D02*
X8272562Y-8063984D01*
X8453515Y-8063984D02*
X8453515Y-7959222D01*
X8453515Y-7959222D02*
X8443991Y-7940174D01*
X8443991Y-7940174D02*
X8424944Y-7930650D01*
X8424944Y-7930650D02*
X8386848Y-7930650D01*
X8386848Y-7930650D02*
X8367801Y-7940174D01*
X8453515Y-8054460D02*
X8434467Y-8063984D01*
X8434467Y-8063984D02*
X8386848Y-8063984D01*
X8386848Y-8063984D02*
X8367801Y-8054460D01*
X8367801Y-8054460D02*
X8358277Y-8035412D01*
X8358277Y-8035412D02*
X8358277Y-8016365D01*
X8358277Y-8016365D02*
X8367801Y-7997317D01*
X8367801Y-7997317D02*
X8386848Y-7987793D01*
X8386848Y-7987793D02*
X8434467Y-7987793D01*
X8434467Y-7987793D02*
X8453515Y-7978269D01*
X8548753Y-7930650D02*
X8548753Y-8130650D01*
X8548753Y-7940174D02*
X8567801Y-7930650D01*
X8567801Y-7930650D02*
X8605896Y-7930650D01*
X8605896Y-7930650D02*
X8624944Y-7940174D01*
X8624944Y-7940174D02*
X8634467Y-7949698D01*
X8634467Y-7949698D02*
X8643991Y-7968746D01*
X8643991Y-7968746D02*
X8643991Y-8025888D01*
X8643991Y-8025888D02*
X8634467Y-8044936D01*
X8634467Y-8044936D02*
X8624944Y-8054460D01*
X8624944Y-8054460D02*
X8605896Y-8063984D01*
X8605896Y-8063984D02*
X8567801Y-8063984D01*
X8567801Y-8063984D02*
X8548753Y-8054460D01*
X8729705Y-8044936D02*
X8739229Y-8054460D01*
X8739229Y-8054460D02*
X8729705Y-8063984D01*
X8729705Y-8063984D02*
X8720182Y-8054460D01*
X8720182Y-8054460D02*
X8729705Y-8044936D01*
X8729705Y-8044936D02*
X8729705Y-8063984D01*
X8729705Y-7940174D02*
X8739229Y-7949698D01*
X8739229Y-7949698D02*
X8729705Y-7959222D01*
X8729705Y-7959222D02*
X8720182Y-7949698D01*
X8720182Y-7949698D02*
X8729705Y-7940174D01*
X8729705Y-7940174D02*
X8729705Y-7959222D01*
D12*
X7067500Y-8377500D02*
X7097500Y-8407500D01*
X7097500Y-8377500D02*
X7067500Y-8407500D01*
D11*
X7396372Y-8283984D02*
X7415420Y-8283984D01*
X7415420Y-8283984D02*
X7434467Y-8293508D01*
X7434467Y-8293508D02*
X7443991Y-8303031D01*
X7443991Y-8303031D02*
X7453515Y-8322079D01*
X7453515Y-8322079D02*
X7463039Y-8360174D01*
X7463039Y-8360174D02*
X7463039Y-8407793D01*
X7463039Y-8407793D02*
X7453515Y-8445889D01*
X7453515Y-8445889D02*
X7443991Y-8464936D01*
X7443991Y-8464936D02*
X7434467Y-8474460D01*
X7434467Y-8474460D02*
X7415420Y-8483984D01*
X7415420Y-8483984D02*
X7396372Y-8483984D01*
X7396372Y-8483984D02*
X7377324Y-8474460D01*
X7377324Y-8474460D02*
X7367801Y-8464936D01*
X7367801Y-8464936D02*
X7358277Y-8445889D01*
X7358277Y-8445889D02*
X7348753Y-8407793D01*
X7348753Y-8407793D02*
X7348753Y-8360174D01*
X7348753Y-8360174D02*
X7358277Y-8322079D01*
X7358277Y-8322079D02*
X7367801Y-8303031D01*
X7367801Y-8303031D02*
X7377324Y-8293508D01*
X7377324Y-8293508D02*
X7396372Y-8283984D01*
X7548753Y-8464936D02*
X7558277Y-8474460D01*
X7558277Y-8474460D02*
X7548753Y-8483984D01*
X7548753Y-8483984D02*
X7539229Y-8474460D01*
X7539229Y-8474460D02*
X7548753Y-8464936D01*
X7548753Y-8464936D02*
X7548753Y-8483984D01*
X7624943Y-8283984D02*
X7748753Y-8283984D01*
X7748753Y-8283984D02*
X7682086Y-8360174D01*
X7682086Y-8360174D02*
X7710658Y-8360174D01*
X7710658Y-8360174D02*
X7729705Y-8369698D01*
X7729705Y-8369698D02*
X7739229Y-8379222D01*
X7739229Y-8379222D02*
X7748753Y-8398270D01*
X7748753Y-8398270D02*
X7748753Y-8445889D01*
X7748753Y-8445889D02*
X7739229Y-8464936D01*
X7739229Y-8464936D02*
X7729705Y-8474460D01*
X7729705Y-8474460D02*
X7710658Y-8483984D01*
X7710658Y-8483984D02*
X7653515Y-8483984D01*
X7653515Y-8483984D02*
X7634467Y-8474460D01*
X7634467Y-8474460D02*
X7624943Y-8464936D01*
X7872562Y-8283984D02*
X7891610Y-8283984D01*
X7891610Y-8283984D02*
X7910658Y-8293508D01*
X7910658Y-8293508D02*
X7920182Y-8303031D01*
X7920182Y-8303031D02*
X7929705Y-8322079D01*
X7929705Y-8322079D02*
X7939229Y-8360174D01*
X7939229Y-8360174D02*
X7939229Y-8407793D01*
X7939229Y-8407793D02*
X7929705Y-8445889D01*
X7929705Y-8445889D02*
X7920182Y-8464936D01*
X7920182Y-8464936D02*
X7910658Y-8474460D01*
X7910658Y-8474460D02*
X7891610Y-8483984D01*
X7891610Y-8483984D02*
X7872562Y-8483984D01*
X7872562Y-8483984D02*
X7853515Y-8474460D01*
X7853515Y-8474460D02*
X7843991Y-8464936D01*
X7843991Y-8464936D02*
X7834467Y-8445889D01*
X7834467Y-8445889D02*
X7824943Y-8407793D01*
X7824943Y-8407793D02*
X7824943Y-8360174D01*
X7824943Y-8360174D02*
X7834467Y-8322079D01*
X7834467Y-8322079D02*
X7843991Y-8303031D01*
X7843991Y-8303031D02*
X7853515Y-8293508D01*
X7853515Y-8293508D02*
X7872562Y-8283984D01*
X8063039Y-8283984D02*
X8082086Y-8283984D01*
X8082086Y-8283984D02*
X8101134Y-8293508D01*
X8101134Y-8293508D02*
X8110658Y-8303031D01*
X8110658Y-8303031D02*
X8120182Y-8322079D01*
X8120182Y-8322079D02*
X8129705Y-8360174D01*
X8129705Y-8360174D02*
X8129705Y-8407793D01*
X8129705Y-8407793D02*
X8120182Y-8445889D01*
X8120182Y-8445889D02*
X8110658Y-8464936D01*
X8110658Y-8464936D02*
X8101134Y-8474460D01*
X8101134Y-8474460D02*
X8082086Y-8483984D01*
X8082086Y-8483984D02*
X8063039Y-8483984D01*
X8063039Y-8483984D02*
X8043991Y-8474460D01*
X8043991Y-8474460D02*
X8034467Y-8464936D01*
X8034467Y-8464936D02*
X8024943Y-8445889D01*
X8024943Y-8445889D02*
X8015420Y-8407793D01*
X8015420Y-8407793D02*
X8015420Y-8360174D01*
X8015420Y-8360174D02*
X8024943Y-8322079D01*
X8024943Y-8322079D02*
X8034467Y-8303031D01*
X8034467Y-8303031D02*
X8043991Y-8293508D01*
X8043991Y-8293508D02*
X8063039Y-8283984D01*
X8215420Y-8483984D02*
X8215420Y-8350650D01*
X8215420Y-8369698D02*
X8224943Y-8360174D01*
X8224943Y-8360174D02*
X8243991Y-8350650D01*
X8243991Y-8350650D02*
X8272563Y-8350650D01*
X8272563Y-8350650D02*
X8291610Y-8360174D01*
X8291610Y-8360174D02*
X8301134Y-8379222D01*
X8301134Y-8379222D02*
X8301134Y-8483984D01*
X8301134Y-8379222D02*
X8310658Y-8360174D01*
X8310658Y-8360174D02*
X8329705Y-8350650D01*
X8329705Y-8350650D02*
X8358277Y-8350650D01*
X8358277Y-8350650D02*
X8377324Y-8360174D01*
X8377324Y-8360174D02*
X8386848Y-8379222D01*
X8386848Y-8379222D02*
X8386848Y-8483984D01*
X8482086Y-8483984D02*
X8482086Y-8350650D01*
X8482086Y-8369698D02*
X8491610Y-8360174D01*
X8491610Y-8360174D02*
X8510658Y-8350650D01*
X8510658Y-8350650D02*
X8539229Y-8350650D01*
X8539229Y-8350650D02*
X8558277Y-8360174D01*
X8558277Y-8360174D02*
X8567801Y-8379222D01*
X8567801Y-8379222D02*
X8567801Y-8483984D01*
X8567801Y-8379222D02*
X8577325Y-8360174D01*
X8577325Y-8360174D02*
X8596372Y-8350650D01*
X8596372Y-8350650D02*
X8624944Y-8350650D01*
X8624944Y-8350650D02*
X8643991Y-8360174D01*
X8643991Y-8360174D02*
X8653515Y-8379222D01*
X8653515Y-8379222D02*
X8653515Y-8483984D01*
X9043991Y-8274460D02*
X8872563Y-8531603D01*
X9301134Y-8283984D02*
X9320182Y-8283984D01*
X9320182Y-8283984D02*
X9339229Y-8293508D01*
X9339229Y-8293508D02*
X9348753Y-8303031D01*
X9348753Y-8303031D02*
X9358277Y-8322079D01*
X9358277Y-8322079D02*
X9367801Y-8360174D01*
X9367801Y-8360174D02*
X9367801Y-8407793D01*
X9367801Y-8407793D02*
X9358277Y-8445889D01*
X9358277Y-8445889D02*
X9348753Y-8464936D01*
X9348753Y-8464936D02*
X9339229Y-8474460D01*
X9339229Y-8474460D02*
X9320182Y-8483984D01*
X9320182Y-8483984D02*
X9301134Y-8483984D01*
X9301134Y-8483984D02*
X9282087Y-8474460D01*
X9282087Y-8474460D02*
X9272563Y-8464936D01*
X9272563Y-8464936D02*
X9263039Y-8445889D01*
X9263039Y-8445889D02*
X9253515Y-8407793D01*
X9253515Y-8407793D02*
X9253515Y-8360174D01*
X9253515Y-8360174D02*
X9263039Y-8322079D01*
X9263039Y-8322079D02*
X9272563Y-8303031D01*
X9272563Y-8303031D02*
X9282087Y-8293508D01*
X9282087Y-8293508D02*
X9301134Y-8283984D01*
X9453515Y-8464936D02*
X9463039Y-8474460D01*
X9463039Y-8474460D02*
X9453515Y-8483984D01*
X9453515Y-8483984D02*
X9443991Y-8474460D01*
X9443991Y-8474460D02*
X9453515Y-8464936D01*
X9453515Y-8464936D02*
X9453515Y-8483984D01*
X9586848Y-8283984D02*
X9605896Y-8283984D01*
X9605896Y-8283984D02*
X9624944Y-8293508D01*
X9624944Y-8293508D02*
X9634468Y-8303031D01*
X9634468Y-8303031D02*
X9643991Y-8322079D01*
X9643991Y-8322079D02*
X9653515Y-8360174D01*
X9653515Y-8360174D02*
X9653515Y-8407793D01*
X9653515Y-8407793D02*
X9643991Y-8445889D01*
X9643991Y-8445889D02*
X9634468Y-8464936D01*
X9634468Y-8464936D02*
X9624944Y-8474460D01*
X9624944Y-8474460D02*
X9605896Y-8483984D01*
X9605896Y-8483984D02*
X9586848Y-8483984D01*
X9586848Y-8483984D02*
X9567801Y-8474460D01*
X9567801Y-8474460D02*
X9558277Y-8464936D01*
X9558277Y-8464936D02*
X9548753Y-8445889D01*
X9548753Y-8445889D02*
X9539229Y-8407793D01*
X9539229Y-8407793D02*
X9539229Y-8360174D01*
X9539229Y-8360174D02*
X9548753Y-8322079D01*
X9548753Y-8322079D02*
X9558277Y-8303031D01*
X9558277Y-8303031D02*
X9567801Y-8293508D01*
X9567801Y-8293508D02*
X9586848Y-8283984D01*
X9843991Y-8483984D02*
X9729706Y-8483984D01*
X9786848Y-8483984D02*
X9786848Y-8283984D01*
X9786848Y-8283984D02*
X9767801Y-8312555D01*
X9767801Y-8312555D02*
X9748753Y-8331603D01*
X9748753Y-8331603D02*
X9729706Y-8341127D01*
X10034468Y-8483984D02*
X9920182Y-8483984D01*
X9977325Y-8483984D02*
X9977325Y-8283984D01*
X9977325Y-8283984D02*
X9958277Y-8312555D01*
X9958277Y-8312555D02*
X9939229Y-8331603D01*
X9939229Y-8331603D02*
X9920182Y-8341127D01*
X10148753Y-8369698D02*
X10129706Y-8360174D01*
X10129706Y-8360174D02*
X10120182Y-8350650D01*
X10120182Y-8350650D02*
X10110658Y-8331603D01*
X10110658Y-8331603D02*
X10110658Y-8322079D01*
X10110658Y-8322079D02*
X10120182Y-8303031D01*
X10120182Y-8303031D02*
X10129706Y-8293508D01*
X10129706Y-8293508D02*
X10148753Y-8283984D01*
X10148753Y-8283984D02*
X10186849Y-8283984D01*
X10186849Y-8283984D02*
X10205896Y-8293508D01*
X10205896Y-8293508D02*
X10215420Y-8303031D01*
X10215420Y-8303031D02*
X10224944Y-8322079D01*
X10224944Y-8322079D02*
X10224944Y-8331603D01*
X10224944Y-8331603D02*
X10215420Y-8350650D01*
X10215420Y-8350650D02*
X10205896Y-8360174D01*
X10205896Y-8360174D02*
X10186849Y-8369698D01*
X10186849Y-8369698D02*
X10148753Y-8369698D01*
X10148753Y-8369698D02*
X10129706Y-8379222D01*
X10129706Y-8379222D02*
X10120182Y-8388746D01*
X10120182Y-8388746D02*
X10110658Y-8407793D01*
X10110658Y-8407793D02*
X10110658Y-8445889D01*
X10110658Y-8445889D02*
X10120182Y-8464936D01*
X10120182Y-8464936D02*
X10129706Y-8474460D01*
X10129706Y-8474460D02*
X10148753Y-8483984D01*
X10148753Y-8483984D02*
X10186849Y-8483984D01*
X10186849Y-8483984D02*
X10205896Y-8474460D01*
X10205896Y-8474460D02*
X10215420Y-8464936D01*
X10215420Y-8464936D02*
X10224944Y-8445889D01*
X10224944Y-8445889D02*
X10224944Y-8407793D01*
X10224944Y-8407793D02*
X10215420Y-8388746D01*
X10215420Y-8388746D02*
X10205896Y-8379222D01*
X10205896Y-8379222D02*
X10186849Y-8369698D01*
X10301134Y-8283984D02*
X10301134Y-8322079D01*
X10377325Y-8283984D02*
X10377325Y-8322079D01*
X10672563Y-8560174D02*
X10663039Y-8550650D01*
X10663039Y-8550650D02*
X10643991Y-8522079D01*
X10643991Y-8522079D02*
X10634468Y-8503031D01*
X10634468Y-8503031D02*
X10624944Y-8474460D01*
X10624944Y-8474460D02*
X10615420Y-8426841D01*
X10615420Y-8426841D02*
X10615420Y-8388746D01*
X10615420Y-8388746D02*
X10624944Y-8341127D01*
X10624944Y-8341127D02*
X10634468Y-8312555D01*
X10634468Y-8312555D02*
X10643991Y-8293508D01*
X10643991Y-8293508D02*
X10663039Y-8264936D01*
X10663039Y-8264936D02*
X10672563Y-8255412D01*
X10853515Y-8483984D02*
X10739230Y-8483984D01*
X10796372Y-8483984D02*
X10796372Y-8283984D01*
X10796372Y-8283984D02*
X10777325Y-8312555D01*
X10777325Y-8312555D02*
X10758277Y-8331603D01*
X10758277Y-8331603D02*
X10739230Y-8341127D01*
X10977325Y-8283984D02*
X10996372Y-8283984D01*
X10996372Y-8283984D02*
X11015420Y-8293508D01*
X11015420Y-8293508D02*
X11024944Y-8303031D01*
X11024944Y-8303031D02*
X11034468Y-8322079D01*
X11034468Y-8322079D02*
X11043991Y-8360174D01*
X11043991Y-8360174D02*
X11043991Y-8407793D01*
X11043991Y-8407793D02*
X11034468Y-8445889D01*
X11034468Y-8445889D02*
X11024944Y-8464936D01*
X11024944Y-8464936D02*
X11015420Y-8474460D01*
X11015420Y-8474460D02*
X10996372Y-8483984D01*
X10996372Y-8483984D02*
X10977325Y-8483984D01*
X10977325Y-8483984D02*
X10958277Y-8474460D01*
X10958277Y-8474460D02*
X10948753Y-8464936D01*
X10948753Y-8464936D02*
X10939230Y-8445889D01*
X10939230Y-8445889D02*
X10929706Y-8407793D01*
X10929706Y-8407793D02*
X10929706Y-8360174D01*
X10929706Y-8360174D02*
X10939230Y-8322079D01*
X10939230Y-8322079D02*
X10948753Y-8303031D01*
X10948753Y-8303031D02*
X10958277Y-8293508D01*
X10958277Y-8293508D02*
X10977325Y-8283984D01*
X11120182Y-8303031D02*
X11129706Y-8293508D01*
X11129706Y-8293508D02*
X11148753Y-8283984D01*
X11148753Y-8283984D02*
X11196372Y-8283984D01*
X11196372Y-8283984D02*
X11215420Y-8293508D01*
X11215420Y-8293508D02*
X11224944Y-8303031D01*
X11224944Y-8303031D02*
X11234468Y-8322079D01*
X11234468Y-8322079D02*
X11234468Y-8341127D01*
X11234468Y-8341127D02*
X11224944Y-8369698D01*
X11224944Y-8369698D02*
X11110658Y-8483984D01*
X11110658Y-8483984D02*
X11234468Y-8483984D01*
X11472563Y-8483984D02*
X11472563Y-8283984D01*
X11558277Y-8483984D02*
X11558277Y-8379222D01*
X11558277Y-8379222D02*
X11548753Y-8360174D01*
X11548753Y-8360174D02*
X11529706Y-8350650D01*
X11529706Y-8350650D02*
X11501134Y-8350650D01*
X11501134Y-8350650D02*
X11482087Y-8360174D01*
X11482087Y-8360174D02*
X11472563Y-8369698D01*
X11682087Y-8483984D02*
X11663039Y-8474460D01*
X11663039Y-8474460D02*
X11653515Y-8464936D01*
X11653515Y-8464936D02*
X11643991Y-8445889D01*
X11643991Y-8445889D02*
X11643991Y-8388746D01*
X11643991Y-8388746D02*
X11653515Y-8369698D01*
X11653515Y-8369698D02*
X11663039Y-8360174D01*
X11663039Y-8360174D02*
X11682087Y-8350650D01*
X11682087Y-8350650D02*
X11710658Y-8350650D01*
X11710658Y-8350650D02*
X11729706Y-8360174D01*
X11729706Y-8360174D02*
X11739230Y-8369698D01*
X11739230Y-8369698D02*
X11748753Y-8388746D01*
X11748753Y-8388746D02*
X11748753Y-8445889D01*
X11748753Y-8445889D02*
X11739230Y-8464936D01*
X11739230Y-8464936D02*
X11729706Y-8474460D01*
X11729706Y-8474460D02*
X11710658Y-8483984D01*
X11710658Y-8483984D02*
X11682087Y-8483984D01*
X11863039Y-8483984D02*
X11843991Y-8474460D01*
X11843991Y-8474460D02*
X11834468Y-8455412D01*
X11834468Y-8455412D02*
X11834468Y-8283984D01*
X12015420Y-8474460D02*
X11996372Y-8483984D01*
X11996372Y-8483984D02*
X11958277Y-8483984D01*
X11958277Y-8483984D02*
X11939230Y-8474460D01*
X11939230Y-8474460D02*
X11929706Y-8455412D01*
X11929706Y-8455412D02*
X11929706Y-8379222D01*
X11929706Y-8379222D02*
X11939230Y-8360174D01*
X11939230Y-8360174D02*
X11958277Y-8350650D01*
X11958277Y-8350650D02*
X11996372Y-8350650D01*
X11996372Y-8350650D02*
X12015420Y-8360174D01*
X12015420Y-8360174D02*
X12024944Y-8379222D01*
X12024944Y-8379222D02*
X12024944Y-8398270D01*
X12024944Y-8398270D02*
X11929706Y-8417317D01*
X12101134Y-8474460D02*
X12120182Y-8483984D01*
X12120182Y-8483984D02*
X12158277Y-8483984D01*
X12158277Y-8483984D02*
X12177325Y-8474460D01*
X12177325Y-8474460D02*
X12186849Y-8455412D01*
X12186849Y-8455412D02*
X12186849Y-8445889D01*
X12186849Y-8445889D02*
X12177325Y-8426841D01*
X12177325Y-8426841D02*
X12158277Y-8417317D01*
X12158277Y-8417317D02*
X12129706Y-8417317D01*
X12129706Y-8417317D02*
X12110658Y-8407793D01*
X12110658Y-8407793D02*
X12101134Y-8388746D01*
X12101134Y-8388746D02*
X12101134Y-8379222D01*
X12101134Y-8379222D02*
X12110658Y-8360174D01*
X12110658Y-8360174D02*
X12129706Y-8350650D01*
X12129706Y-8350650D02*
X12158277Y-8350650D01*
X12158277Y-8350650D02*
X12177325Y-8360174D01*
X12253515Y-8560174D02*
X12263039Y-8550650D01*
X12263039Y-8550650D02*
X12282087Y-8522079D01*
X12282087Y-8522079D02*
X12291611Y-8503031D01*
X12291611Y-8503031D02*
X12301134Y-8474460D01*
X12301134Y-8474460D02*
X12310658Y-8426841D01*
X12310658Y-8426841D02*
X12310658Y-8388746D01*
X12310658Y-8388746D02*
X12301134Y-8341127D01*
X12301134Y-8341127D02*
X12291611Y-8312555D01*
X12291611Y-8312555D02*
X12282087Y-8293508D01*
X12282087Y-8293508D02*
X12263039Y-8264936D01*
X12263039Y-8264936D02*
X12253515Y-8255412D01*
D12*
X7097500Y-8656500D02*
G75*
G02*
X7051780Y-8656500I-22860J0D01*
G01*
X7051780Y-8656500D02*
G75*
G02*
X7097500Y-8656500I22860J0D01*
G01*
D11*
X7396372Y-8547984D02*
X7415420Y-8547984D01*
X7415420Y-8547984D02*
X7434467Y-8557508D01*
X7434467Y-8557508D02*
X7443991Y-8567031D01*
X7443991Y-8567031D02*
X7453515Y-8586079D01*
X7453515Y-8586079D02*
X7463039Y-8624174D01*
X7463039Y-8624174D02*
X7463039Y-8671793D01*
X7463039Y-8671793D02*
X7453515Y-8709889D01*
X7453515Y-8709889D02*
X7443991Y-8728936D01*
X7443991Y-8728936D02*
X7434467Y-8738460D01*
X7434467Y-8738460D02*
X7415420Y-8747984D01*
X7415420Y-8747984D02*
X7396372Y-8747984D01*
X7396372Y-8747984D02*
X7377324Y-8738460D01*
X7377324Y-8738460D02*
X7367801Y-8728936D01*
X7367801Y-8728936D02*
X7358277Y-8709889D01*
X7358277Y-8709889D02*
X7348753Y-8671793D01*
X7348753Y-8671793D02*
X7348753Y-8624174D01*
X7348753Y-8624174D02*
X7358277Y-8586079D01*
X7358277Y-8586079D02*
X7367801Y-8567031D01*
X7367801Y-8567031D02*
X7377324Y-8557508D01*
X7377324Y-8557508D02*
X7396372Y-8547984D01*
X7548753Y-8728936D02*
X7558277Y-8738460D01*
X7558277Y-8738460D02*
X7548753Y-8747984D01*
X7548753Y-8747984D02*
X7539229Y-8738460D01*
X7539229Y-8738460D02*
X7548753Y-8728936D01*
X7548753Y-8728936D02*
X7548753Y-8747984D01*
X7729705Y-8614650D02*
X7729705Y-8747984D01*
X7682086Y-8538460D02*
X7634467Y-8681317D01*
X7634467Y-8681317D02*
X7758277Y-8681317D01*
X7929705Y-8547984D02*
X7834467Y-8547984D01*
X7834467Y-8547984D02*
X7824943Y-8643222D01*
X7824943Y-8643222D02*
X7834467Y-8633698D01*
X7834467Y-8633698D02*
X7853515Y-8624174D01*
X7853515Y-8624174D02*
X7901134Y-8624174D01*
X7901134Y-8624174D02*
X7920182Y-8633698D01*
X7920182Y-8633698D02*
X7929705Y-8643222D01*
X7929705Y-8643222D02*
X7939229Y-8662270D01*
X7939229Y-8662270D02*
X7939229Y-8709889D01*
X7939229Y-8709889D02*
X7929705Y-8728936D01*
X7929705Y-8728936D02*
X7920182Y-8738460D01*
X7920182Y-8738460D02*
X7901134Y-8747984D01*
X7901134Y-8747984D02*
X7853515Y-8747984D01*
X7853515Y-8747984D02*
X7834467Y-8738460D01*
X7834467Y-8738460D02*
X7824943Y-8728936D01*
X8005896Y-8547984D02*
X8139229Y-8547984D01*
X8139229Y-8547984D02*
X8053515Y-8747984D01*
X8215420Y-8747984D02*
X8215420Y-8614650D01*
X8215420Y-8633698D02*
X8224943Y-8624174D01*
X8224943Y-8624174D02*
X8243991Y-8614650D01*
X8243991Y-8614650D02*
X8272563Y-8614650D01*
X8272563Y-8614650D02*
X8291610Y-8624174D01*
X8291610Y-8624174D02*
X8301134Y-8643222D01*
X8301134Y-8643222D02*
X8301134Y-8747984D01*
X8301134Y-8643222D02*
X8310658Y-8624174D01*
X8310658Y-8624174D02*
X8329705Y-8614650D01*
X8329705Y-8614650D02*
X8358277Y-8614650D01*
X8358277Y-8614650D02*
X8377324Y-8624174D01*
X8377324Y-8624174D02*
X8386848Y-8643222D01*
X8386848Y-8643222D02*
X8386848Y-8747984D01*
X8482086Y-8747984D02*
X8482086Y-8614650D01*
X8482086Y-8633698D02*
X8491610Y-8624174D01*
X8491610Y-8624174D02*
X8510658Y-8614650D01*
X8510658Y-8614650D02*
X8539229Y-8614650D01*
X8539229Y-8614650D02*
X8558277Y-8624174D01*
X8558277Y-8624174D02*
X8567801Y-8643222D01*
X8567801Y-8643222D02*
X8567801Y-8747984D01*
X8567801Y-8643222D02*
X8577325Y-8624174D01*
X8577325Y-8624174D02*
X8596372Y-8614650D01*
X8596372Y-8614650D02*
X8624944Y-8614650D01*
X8624944Y-8614650D02*
X8643991Y-8624174D01*
X8643991Y-8624174D02*
X8653515Y-8643222D01*
X8653515Y-8643222D02*
X8653515Y-8747984D01*
X9043991Y-8538460D02*
X8872563Y-8795603D01*
X9301134Y-8547984D02*
X9320182Y-8547984D01*
X9320182Y-8547984D02*
X9339229Y-8557508D01*
X9339229Y-8557508D02*
X9348753Y-8567031D01*
X9348753Y-8567031D02*
X9358277Y-8586079D01*
X9358277Y-8586079D02*
X9367801Y-8624174D01*
X9367801Y-8624174D02*
X9367801Y-8671793D01*
X9367801Y-8671793D02*
X9358277Y-8709889D01*
X9358277Y-8709889D02*
X9348753Y-8728936D01*
X9348753Y-8728936D02*
X9339229Y-8738460D01*
X9339229Y-8738460D02*
X9320182Y-8747984D01*
X9320182Y-8747984D02*
X9301134Y-8747984D01*
X9301134Y-8747984D02*
X9282087Y-8738460D01*
X9282087Y-8738460D02*
X9272563Y-8728936D01*
X9272563Y-8728936D02*
X9263039Y-8709889D01*
X9263039Y-8709889D02*
X9253515Y-8671793D01*
X9253515Y-8671793D02*
X9253515Y-8624174D01*
X9253515Y-8624174D02*
X9263039Y-8586079D01*
X9263039Y-8586079D02*
X9272563Y-8567031D01*
X9272563Y-8567031D02*
X9282087Y-8557508D01*
X9282087Y-8557508D02*
X9301134Y-8547984D01*
X9453515Y-8728936D02*
X9463039Y-8738460D01*
X9463039Y-8738460D02*
X9453515Y-8747984D01*
X9453515Y-8747984D02*
X9443991Y-8738460D01*
X9443991Y-8738460D02*
X9453515Y-8728936D01*
X9453515Y-8728936D02*
X9453515Y-8747984D01*
X9586848Y-8547984D02*
X9605896Y-8547984D01*
X9605896Y-8547984D02*
X9624944Y-8557508D01*
X9624944Y-8557508D02*
X9634468Y-8567031D01*
X9634468Y-8567031D02*
X9643991Y-8586079D01*
X9643991Y-8586079D02*
X9653515Y-8624174D01*
X9653515Y-8624174D02*
X9653515Y-8671793D01*
X9653515Y-8671793D02*
X9643991Y-8709889D01*
X9643991Y-8709889D02*
X9634468Y-8728936D01*
X9634468Y-8728936D02*
X9624944Y-8738460D01*
X9624944Y-8738460D02*
X9605896Y-8747984D01*
X9605896Y-8747984D02*
X9586848Y-8747984D01*
X9586848Y-8747984D02*
X9567801Y-8738460D01*
X9567801Y-8738460D02*
X9558277Y-8728936D01*
X9558277Y-8728936D02*
X9548753Y-8709889D01*
X9548753Y-8709889D02*
X9539229Y-8671793D01*
X9539229Y-8671793D02*
X9539229Y-8624174D01*
X9539229Y-8624174D02*
X9548753Y-8586079D01*
X9548753Y-8586079D02*
X9558277Y-8567031D01*
X9558277Y-8567031D02*
X9567801Y-8557508D01*
X9567801Y-8557508D02*
X9586848Y-8547984D01*
X9843991Y-8747984D02*
X9729706Y-8747984D01*
X9786848Y-8747984D02*
X9786848Y-8547984D01*
X9786848Y-8547984D02*
X9767801Y-8576555D01*
X9767801Y-8576555D02*
X9748753Y-8595603D01*
X9748753Y-8595603D02*
X9729706Y-8605127D01*
X9958277Y-8633698D02*
X9939229Y-8624174D01*
X9939229Y-8624174D02*
X9929706Y-8614650D01*
X9929706Y-8614650D02*
X9920182Y-8595603D01*
X9920182Y-8595603D02*
X9920182Y-8586079D01*
X9920182Y-8586079D02*
X9929706Y-8567031D01*
X9929706Y-8567031D02*
X9939229Y-8557508D01*
X9939229Y-8557508D02*
X9958277Y-8547984D01*
X9958277Y-8547984D02*
X9996372Y-8547984D01*
X9996372Y-8547984D02*
X10015420Y-8557508D01*
X10015420Y-8557508D02*
X10024944Y-8567031D01*
X10024944Y-8567031D02*
X10034468Y-8586079D01*
X10034468Y-8586079D02*
X10034468Y-8595603D01*
X10034468Y-8595603D02*
X10024944Y-8614650D01*
X10024944Y-8614650D02*
X10015420Y-8624174D01*
X10015420Y-8624174D02*
X9996372Y-8633698D01*
X9996372Y-8633698D02*
X9958277Y-8633698D01*
X9958277Y-8633698D02*
X9939229Y-8643222D01*
X9939229Y-8643222D02*
X9929706Y-8652746D01*
X9929706Y-8652746D02*
X9920182Y-8671793D01*
X9920182Y-8671793D02*
X9920182Y-8709889D01*
X9920182Y-8709889D02*
X9929706Y-8728936D01*
X9929706Y-8728936D02*
X9939229Y-8738460D01*
X9939229Y-8738460D02*
X9958277Y-8747984D01*
X9958277Y-8747984D02*
X9996372Y-8747984D01*
X9996372Y-8747984D02*
X10015420Y-8738460D01*
X10015420Y-8738460D02*
X10024944Y-8728936D01*
X10024944Y-8728936D02*
X10034468Y-8709889D01*
X10034468Y-8709889D02*
X10034468Y-8671793D01*
X10034468Y-8671793D02*
X10024944Y-8652746D01*
X10024944Y-8652746D02*
X10015420Y-8643222D01*
X10015420Y-8643222D02*
X9996372Y-8633698D01*
X10158277Y-8547984D02*
X10177325Y-8547984D01*
X10177325Y-8547984D02*
X10196372Y-8557508D01*
X10196372Y-8557508D02*
X10205896Y-8567031D01*
X10205896Y-8567031D02*
X10215420Y-8586079D01*
X10215420Y-8586079D02*
X10224944Y-8624174D01*
X10224944Y-8624174D02*
X10224944Y-8671793D01*
X10224944Y-8671793D02*
X10215420Y-8709889D01*
X10215420Y-8709889D02*
X10205896Y-8728936D01*
X10205896Y-8728936D02*
X10196372Y-8738460D01*
X10196372Y-8738460D02*
X10177325Y-8747984D01*
X10177325Y-8747984D02*
X10158277Y-8747984D01*
X10158277Y-8747984D02*
X10139229Y-8738460D01*
X10139229Y-8738460D02*
X10129706Y-8728936D01*
X10129706Y-8728936D02*
X10120182Y-8709889D01*
X10120182Y-8709889D02*
X10110658Y-8671793D01*
X10110658Y-8671793D02*
X10110658Y-8624174D01*
X10110658Y-8624174D02*
X10120182Y-8586079D01*
X10120182Y-8586079D02*
X10129706Y-8567031D01*
X10129706Y-8567031D02*
X10139229Y-8557508D01*
X10139229Y-8557508D02*
X10158277Y-8547984D01*
X10301134Y-8547984D02*
X10301134Y-8586079D01*
X10377325Y-8547984D02*
X10377325Y-8586079D01*
X10672563Y-8824174D02*
X10663039Y-8814650D01*
X10663039Y-8814650D02*
X10643991Y-8786079D01*
X10643991Y-8786079D02*
X10634468Y-8767031D01*
X10634468Y-8767031D02*
X10624944Y-8738460D01*
X10624944Y-8738460D02*
X10615420Y-8690841D01*
X10615420Y-8690841D02*
X10615420Y-8652746D01*
X10615420Y-8652746D02*
X10624944Y-8605127D01*
X10624944Y-8605127D02*
X10634468Y-8576555D01*
X10634468Y-8576555D02*
X10643991Y-8557508D01*
X10643991Y-8557508D02*
X10663039Y-8528936D01*
X10663039Y-8528936D02*
X10672563Y-8519412D01*
X10853515Y-8747984D02*
X10739230Y-8747984D01*
X10796372Y-8747984D02*
X10796372Y-8547984D01*
X10796372Y-8547984D02*
X10777325Y-8576555D01*
X10777325Y-8576555D02*
X10758277Y-8595603D01*
X10758277Y-8595603D02*
X10739230Y-8605127D01*
X10967801Y-8633698D02*
X10948753Y-8624174D01*
X10948753Y-8624174D02*
X10939230Y-8614650D01*
X10939230Y-8614650D02*
X10929706Y-8595603D01*
X10929706Y-8595603D02*
X10929706Y-8586079D01*
X10929706Y-8586079D02*
X10939230Y-8567031D01*
X10939230Y-8567031D02*
X10948753Y-8557508D01*
X10948753Y-8557508D02*
X10967801Y-8547984D01*
X10967801Y-8547984D02*
X11005896Y-8547984D01*
X11005896Y-8547984D02*
X11024944Y-8557508D01*
X11024944Y-8557508D02*
X11034468Y-8567031D01*
X11034468Y-8567031D02*
X11043991Y-8586079D01*
X11043991Y-8586079D02*
X11043991Y-8595603D01*
X11043991Y-8595603D02*
X11034468Y-8614650D01*
X11034468Y-8614650D02*
X11024944Y-8624174D01*
X11024944Y-8624174D02*
X11005896Y-8633698D01*
X11005896Y-8633698D02*
X10967801Y-8633698D01*
X10967801Y-8633698D02*
X10948753Y-8643222D01*
X10948753Y-8643222D02*
X10939230Y-8652746D01*
X10939230Y-8652746D02*
X10929706Y-8671793D01*
X10929706Y-8671793D02*
X10929706Y-8709889D01*
X10929706Y-8709889D02*
X10939230Y-8728936D01*
X10939230Y-8728936D02*
X10948753Y-8738460D01*
X10948753Y-8738460D02*
X10967801Y-8747984D01*
X10967801Y-8747984D02*
X11005896Y-8747984D01*
X11005896Y-8747984D02*
X11024944Y-8738460D01*
X11024944Y-8738460D02*
X11034468Y-8728936D01*
X11034468Y-8728936D02*
X11043991Y-8709889D01*
X11043991Y-8709889D02*
X11043991Y-8671793D01*
X11043991Y-8671793D02*
X11034468Y-8652746D01*
X11034468Y-8652746D02*
X11024944Y-8643222D01*
X11024944Y-8643222D02*
X11005896Y-8633698D01*
X11282087Y-8747984D02*
X11282087Y-8547984D01*
X11367801Y-8747984D02*
X11367801Y-8643222D01*
X11367801Y-8643222D02*
X11358277Y-8624174D01*
X11358277Y-8624174D02*
X11339230Y-8614650D01*
X11339230Y-8614650D02*
X11310658Y-8614650D01*
X11310658Y-8614650D02*
X11291610Y-8624174D01*
X11291610Y-8624174D02*
X11282087Y-8633698D01*
X11491610Y-8747984D02*
X11472563Y-8738460D01*
X11472563Y-8738460D02*
X11463039Y-8728936D01*
X11463039Y-8728936D02*
X11453515Y-8709889D01*
X11453515Y-8709889D02*
X11453515Y-8652746D01*
X11453515Y-8652746D02*
X11463039Y-8633698D01*
X11463039Y-8633698D02*
X11472563Y-8624174D01*
X11472563Y-8624174D02*
X11491610Y-8614650D01*
X11491610Y-8614650D02*
X11520182Y-8614650D01*
X11520182Y-8614650D02*
X11539230Y-8624174D01*
X11539230Y-8624174D02*
X11548753Y-8633698D01*
X11548753Y-8633698D02*
X11558277Y-8652746D01*
X11558277Y-8652746D02*
X11558277Y-8709889D01*
X11558277Y-8709889D02*
X11548753Y-8728936D01*
X11548753Y-8728936D02*
X11539230Y-8738460D01*
X11539230Y-8738460D02*
X11520182Y-8747984D01*
X11520182Y-8747984D02*
X11491610Y-8747984D01*
X11672563Y-8747984D02*
X11653515Y-8738460D01*
X11653515Y-8738460D02*
X11643991Y-8719412D01*
X11643991Y-8719412D02*
X11643991Y-8547984D01*
X11824944Y-8738460D02*
X11805896Y-8747984D01*
X11805896Y-8747984D02*
X11767801Y-8747984D01*
X11767801Y-8747984D02*
X11748753Y-8738460D01*
X11748753Y-8738460D02*
X11739230Y-8719412D01*
X11739230Y-8719412D02*
X11739230Y-8643222D01*
X11739230Y-8643222D02*
X11748753Y-8624174D01*
X11748753Y-8624174D02*
X11767801Y-8614650D01*
X11767801Y-8614650D02*
X11805896Y-8614650D01*
X11805896Y-8614650D02*
X11824944Y-8624174D01*
X11824944Y-8624174D02*
X11834468Y-8643222D01*
X11834468Y-8643222D02*
X11834468Y-8662270D01*
X11834468Y-8662270D02*
X11739230Y-8681317D01*
X11910658Y-8738460D02*
X11929706Y-8747984D01*
X11929706Y-8747984D02*
X11967801Y-8747984D01*
X11967801Y-8747984D02*
X11986849Y-8738460D01*
X11986849Y-8738460D02*
X11996372Y-8719412D01*
X11996372Y-8719412D02*
X11996372Y-8709889D01*
X11996372Y-8709889D02*
X11986849Y-8690841D01*
X11986849Y-8690841D02*
X11967801Y-8681317D01*
X11967801Y-8681317D02*
X11939230Y-8681317D01*
X11939230Y-8681317D02*
X11920182Y-8671793D01*
X11920182Y-8671793D02*
X11910658Y-8652746D01*
X11910658Y-8652746D02*
X11910658Y-8643222D01*
X11910658Y-8643222D02*
X11920182Y-8624174D01*
X11920182Y-8624174D02*
X11939230Y-8614650D01*
X11939230Y-8614650D02*
X11967801Y-8614650D01*
X11967801Y-8614650D02*
X11986849Y-8624174D01*
X12063039Y-8824174D02*
X12072563Y-8814650D01*
X12072563Y-8814650D02*
X12091611Y-8786079D01*
X12091611Y-8786079D02*
X12101134Y-8767031D01*
X12101134Y-8767031D02*
X12110658Y-8738460D01*
X12110658Y-8738460D02*
X12120182Y-8690841D01*
X12120182Y-8690841D02*
X12120182Y-8652746D01*
X12120182Y-8652746D02*
X12110658Y-8605127D01*
X12110658Y-8605127D02*
X12101134Y-8576555D01*
X12101134Y-8576555D02*
X12091611Y-8557508D01*
X12091611Y-8557508D02*
X12072563Y-8528936D01*
X12072563Y-8528936D02*
X12063039Y-8519412D01*
D12*
X7047500Y-8870500D02*
X7047500Y-8970500D01*
X6997500Y-8920500D02*
X7097500Y-8920500D01*
D11*
X7463039Y-9011984D02*
X7348753Y-9011984D01*
X7405896Y-9011984D02*
X7405896Y-8811984D01*
X7405896Y-8811984D02*
X7386848Y-8840555D01*
X7386848Y-8840555D02*
X7367801Y-8859603D01*
X7367801Y-8859603D02*
X7348753Y-8869127D01*
X7548753Y-8992936D02*
X7558277Y-9002460D01*
X7558277Y-9002460D02*
X7548753Y-9011984D01*
X7548753Y-9011984D02*
X7539229Y-9002460D01*
X7539229Y-9002460D02*
X7548753Y-8992936D01*
X7548753Y-8992936D02*
X7548753Y-9011984D01*
X7682086Y-8811984D02*
X7701134Y-8811984D01*
X7701134Y-8811984D02*
X7720182Y-8821508D01*
X7720182Y-8821508D02*
X7729705Y-8831031D01*
X7729705Y-8831031D02*
X7739229Y-8850079D01*
X7739229Y-8850079D02*
X7748753Y-8888174D01*
X7748753Y-8888174D02*
X7748753Y-8935793D01*
X7748753Y-8935793D02*
X7739229Y-8973889D01*
X7739229Y-8973889D02*
X7729705Y-8992936D01*
X7729705Y-8992936D02*
X7720182Y-9002460D01*
X7720182Y-9002460D02*
X7701134Y-9011984D01*
X7701134Y-9011984D02*
X7682086Y-9011984D01*
X7682086Y-9011984D02*
X7663039Y-9002460D01*
X7663039Y-9002460D02*
X7653515Y-8992936D01*
X7653515Y-8992936D02*
X7643991Y-8973889D01*
X7643991Y-8973889D02*
X7634467Y-8935793D01*
X7634467Y-8935793D02*
X7634467Y-8888174D01*
X7634467Y-8888174D02*
X7643991Y-8850079D01*
X7643991Y-8850079D02*
X7653515Y-8831031D01*
X7653515Y-8831031D02*
X7663039Y-8821508D01*
X7663039Y-8821508D02*
X7682086Y-8811984D01*
X7872562Y-8811984D02*
X7891610Y-8811984D01*
X7891610Y-8811984D02*
X7910658Y-8821508D01*
X7910658Y-8821508D02*
X7920182Y-8831031D01*
X7920182Y-8831031D02*
X7929705Y-8850079D01*
X7929705Y-8850079D02*
X7939229Y-8888174D01*
X7939229Y-8888174D02*
X7939229Y-8935793D01*
X7939229Y-8935793D02*
X7929705Y-8973889D01*
X7929705Y-8973889D02*
X7920182Y-8992936D01*
X7920182Y-8992936D02*
X7910658Y-9002460D01*
X7910658Y-9002460D02*
X7891610Y-9011984D01*
X7891610Y-9011984D02*
X7872562Y-9011984D01*
X7872562Y-9011984D02*
X7853515Y-9002460D01*
X7853515Y-9002460D02*
X7843991Y-8992936D01*
X7843991Y-8992936D02*
X7834467Y-8973889D01*
X7834467Y-8973889D02*
X7824943Y-8935793D01*
X7824943Y-8935793D02*
X7824943Y-8888174D01*
X7824943Y-8888174D02*
X7834467Y-8850079D01*
X7834467Y-8850079D02*
X7843991Y-8831031D01*
X7843991Y-8831031D02*
X7853515Y-8821508D01*
X7853515Y-8821508D02*
X7872562Y-8811984D01*
X8063039Y-8811984D02*
X8082086Y-8811984D01*
X8082086Y-8811984D02*
X8101134Y-8821508D01*
X8101134Y-8821508D02*
X8110658Y-8831031D01*
X8110658Y-8831031D02*
X8120182Y-8850079D01*
X8120182Y-8850079D02*
X8129705Y-8888174D01*
X8129705Y-8888174D02*
X8129705Y-8935793D01*
X8129705Y-8935793D02*
X8120182Y-8973889D01*
X8120182Y-8973889D02*
X8110658Y-8992936D01*
X8110658Y-8992936D02*
X8101134Y-9002460D01*
X8101134Y-9002460D02*
X8082086Y-9011984D01*
X8082086Y-9011984D02*
X8063039Y-9011984D01*
X8063039Y-9011984D02*
X8043991Y-9002460D01*
X8043991Y-9002460D02*
X8034467Y-8992936D01*
X8034467Y-8992936D02*
X8024943Y-8973889D01*
X8024943Y-8973889D02*
X8015420Y-8935793D01*
X8015420Y-8935793D02*
X8015420Y-8888174D01*
X8015420Y-8888174D02*
X8024943Y-8850079D01*
X8024943Y-8850079D02*
X8034467Y-8831031D01*
X8034467Y-8831031D02*
X8043991Y-8821508D01*
X8043991Y-8821508D02*
X8063039Y-8811984D01*
X8215420Y-9011984D02*
X8215420Y-8878650D01*
X8215420Y-8897698D02*
X8224943Y-8888174D01*
X8224943Y-8888174D02*
X8243991Y-8878650D01*
X8243991Y-8878650D02*
X8272563Y-8878650D01*
X8272563Y-8878650D02*
X8291610Y-8888174D01*
X8291610Y-8888174D02*
X8301134Y-8907222D01*
X8301134Y-8907222D02*
X8301134Y-9011984D01*
X8301134Y-8907222D02*
X8310658Y-8888174D01*
X8310658Y-8888174D02*
X8329705Y-8878650D01*
X8329705Y-8878650D02*
X8358277Y-8878650D01*
X8358277Y-8878650D02*
X8377324Y-8888174D01*
X8377324Y-8888174D02*
X8386848Y-8907222D01*
X8386848Y-8907222D02*
X8386848Y-9011984D01*
X8482086Y-9011984D02*
X8482086Y-8878650D01*
X8482086Y-8897698D02*
X8491610Y-8888174D01*
X8491610Y-8888174D02*
X8510658Y-8878650D01*
X8510658Y-8878650D02*
X8539229Y-8878650D01*
X8539229Y-8878650D02*
X8558277Y-8888174D01*
X8558277Y-8888174D02*
X8567801Y-8907222D01*
X8567801Y-8907222D02*
X8567801Y-9011984D01*
X8567801Y-8907222D02*
X8577325Y-8888174D01*
X8577325Y-8888174D02*
X8596372Y-8878650D01*
X8596372Y-8878650D02*
X8624944Y-8878650D01*
X8624944Y-8878650D02*
X8643991Y-8888174D01*
X8643991Y-8888174D02*
X8653515Y-8907222D01*
X8653515Y-8907222D02*
X8653515Y-9011984D01*
X9043991Y-8802460D02*
X8872563Y-9059603D01*
X9301134Y-8811984D02*
X9320182Y-8811984D01*
X9320182Y-8811984D02*
X9339229Y-8821508D01*
X9339229Y-8821508D02*
X9348753Y-8831031D01*
X9348753Y-8831031D02*
X9358277Y-8850079D01*
X9358277Y-8850079D02*
X9367801Y-8888174D01*
X9367801Y-8888174D02*
X9367801Y-8935793D01*
X9367801Y-8935793D02*
X9358277Y-8973889D01*
X9358277Y-8973889D02*
X9348753Y-8992936D01*
X9348753Y-8992936D02*
X9339229Y-9002460D01*
X9339229Y-9002460D02*
X9320182Y-9011984D01*
X9320182Y-9011984D02*
X9301134Y-9011984D01*
X9301134Y-9011984D02*
X9282087Y-9002460D01*
X9282087Y-9002460D02*
X9272563Y-8992936D01*
X9272563Y-8992936D02*
X9263039Y-8973889D01*
X9263039Y-8973889D02*
X9253515Y-8935793D01*
X9253515Y-8935793D02*
X9253515Y-8888174D01*
X9253515Y-8888174D02*
X9263039Y-8850079D01*
X9263039Y-8850079D02*
X9272563Y-8831031D01*
X9272563Y-8831031D02*
X9282087Y-8821508D01*
X9282087Y-8821508D02*
X9301134Y-8811984D01*
X9453515Y-8992936D02*
X9463039Y-9002460D01*
X9463039Y-9002460D02*
X9453515Y-9011984D01*
X9453515Y-9011984D02*
X9443991Y-9002460D01*
X9443991Y-9002460D02*
X9453515Y-8992936D01*
X9453515Y-8992936D02*
X9453515Y-9011984D01*
X9586848Y-8811984D02*
X9605896Y-8811984D01*
X9605896Y-8811984D02*
X9624944Y-8821508D01*
X9624944Y-8821508D02*
X9634468Y-8831031D01*
X9634468Y-8831031D02*
X9643991Y-8850079D01*
X9643991Y-8850079D02*
X9653515Y-8888174D01*
X9653515Y-8888174D02*
X9653515Y-8935793D01*
X9653515Y-8935793D02*
X9643991Y-8973889D01*
X9643991Y-8973889D02*
X9634468Y-8992936D01*
X9634468Y-8992936D02*
X9624944Y-9002460D01*
X9624944Y-9002460D02*
X9605896Y-9011984D01*
X9605896Y-9011984D02*
X9586848Y-9011984D01*
X9586848Y-9011984D02*
X9567801Y-9002460D01*
X9567801Y-9002460D02*
X9558277Y-8992936D01*
X9558277Y-8992936D02*
X9548753Y-8973889D01*
X9548753Y-8973889D02*
X9539229Y-8935793D01*
X9539229Y-8935793D02*
X9539229Y-8888174D01*
X9539229Y-8888174D02*
X9548753Y-8850079D01*
X9548753Y-8850079D02*
X9558277Y-8831031D01*
X9558277Y-8831031D02*
X9567801Y-8821508D01*
X9567801Y-8821508D02*
X9586848Y-8811984D01*
X9720182Y-8811984D02*
X9843991Y-8811984D01*
X9843991Y-8811984D02*
X9777325Y-8888174D01*
X9777325Y-8888174D02*
X9805896Y-8888174D01*
X9805896Y-8888174D02*
X9824944Y-8897698D01*
X9824944Y-8897698D02*
X9834468Y-8907222D01*
X9834468Y-8907222D02*
X9843991Y-8926270D01*
X9843991Y-8926270D02*
X9843991Y-8973889D01*
X9843991Y-8973889D02*
X9834468Y-8992936D01*
X9834468Y-8992936D02*
X9824944Y-9002460D01*
X9824944Y-9002460D02*
X9805896Y-9011984D01*
X9805896Y-9011984D02*
X9748753Y-9011984D01*
X9748753Y-9011984D02*
X9729706Y-9002460D01*
X9729706Y-9002460D02*
X9720182Y-8992936D01*
X9939229Y-9011984D02*
X9977325Y-9011984D01*
X9977325Y-9011984D02*
X9996372Y-9002460D01*
X9996372Y-9002460D02*
X10005896Y-8992936D01*
X10005896Y-8992936D02*
X10024944Y-8964365D01*
X10024944Y-8964365D02*
X10034468Y-8926270D01*
X10034468Y-8926270D02*
X10034468Y-8850079D01*
X10034468Y-8850079D02*
X10024944Y-8831031D01*
X10024944Y-8831031D02*
X10015420Y-8821508D01*
X10015420Y-8821508D02*
X9996372Y-8811984D01*
X9996372Y-8811984D02*
X9958277Y-8811984D01*
X9958277Y-8811984D02*
X9939229Y-8821508D01*
X9939229Y-8821508D02*
X9929706Y-8831031D01*
X9929706Y-8831031D02*
X9920182Y-8850079D01*
X9920182Y-8850079D02*
X9920182Y-8897698D01*
X9920182Y-8897698D02*
X9929706Y-8916746D01*
X9929706Y-8916746D02*
X9939229Y-8926270D01*
X9939229Y-8926270D02*
X9958277Y-8935793D01*
X9958277Y-8935793D02*
X9996372Y-8935793D01*
X9996372Y-8935793D02*
X10015420Y-8926270D01*
X10015420Y-8926270D02*
X10024944Y-8916746D01*
X10024944Y-8916746D02*
X10034468Y-8897698D01*
X10205896Y-8878650D02*
X10205896Y-9011984D01*
X10158277Y-8802460D02*
X10110658Y-8945317D01*
X10110658Y-8945317D02*
X10234468Y-8945317D01*
X10301134Y-8811984D02*
X10301134Y-8850079D01*
X10377325Y-8811984D02*
X10377325Y-8850079D01*
X10672563Y-9088174D02*
X10663039Y-9078650D01*
X10663039Y-9078650D02*
X10643991Y-9050079D01*
X10643991Y-9050079D02*
X10634468Y-9031031D01*
X10634468Y-9031031D02*
X10624944Y-9002460D01*
X10624944Y-9002460D02*
X10615420Y-8954841D01*
X10615420Y-8954841D02*
X10615420Y-8916746D01*
X10615420Y-8916746D02*
X10624944Y-8869127D01*
X10624944Y-8869127D02*
X10634468Y-8840555D01*
X10634468Y-8840555D02*
X10643991Y-8821508D01*
X10643991Y-8821508D02*
X10663039Y-8792936D01*
X10663039Y-8792936D02*
X10672563Y-8783412D01*
X10834468Y-8878650D02*
X10834468Y-9011984D01*
X10786849Y-8802460D02*
X10739230Y-8945317D01*
X10739230Y-8945317D02*
X10863039Y-8945317D01*
X11091611Y-9011984D02*
X11091611Y-8811984D01*
X11177325Y-9011984D02*
X11177325Y-8907222D01*
X11177325Y-8907222D02*
X11167801Y-8888174D01*
X11167801Y-8888174D02*
X11148753Y-8878650D01*
X11148753Y-8878650D02*
X11120182Y-8878650D01*
X11120182Y-8878650D02*
X11101134Y-8888174D01*
X11101134Y-8888174D02*
X11091611Y-8897698D01*
X11301134Y-9011984D02*
X11282087Y-9002460D01*
X11282087Y-9002460D02*
X11272563Y-8992936D01*
X11272563Y-8992936D02*
X11263039Y-8973889D01*
X11263039Y-8973889D02*
X11263039Y-8916746D01*
X11263039Y-8916746D02*
X11272563Y-8897698D01*
X11272563Y-8897698D02*
X11282087Y-8888174D01*
X11282087Y-8888174D02*
X11301134Y-8878650D01*
X11301134Y-8878650D02*
X11329706Y-8878650D01*
X11329706Y-8878650D02*
X11348753Y-8888174D01*
X11348753Y-8888174D02*
X11358277Y-8897698D01*
X11358277Y-8897698D02*
X11367801Y-8916746D01*
X11367801Y-8916746D02*
X11367801Y-8973889D01*
X11367801Y-8973889D02*
X11358277Y-8992936D01*
X11358277Y-8992936D02*
X11348753Y-9002460D01*
X11348753Y-9002460D02*
X11329706Y-9011984D01*
X11329706Y-9011984D02*
X11301134Y-9011984D01*
X11482087Y-9011984D02*
X11463039Y-9002460D01*
X11463039Y-9002460D02*
X11453515Y-8983412D01*
X11453515Y-8983412D02*
X11453515Y-8811984D01*
X11634468Y-9002460D02*
X11615420Y-9011984D01*
X11615420Y-9011984D02*
X11577325Y-9011984D01*
X11577325Y-9011984D02*
X11558277Y-9002460D01*
X11558277Y-9002460D02*
X11548753Y-8983412D01*
X11548753Y-8983412D02*
X11548753Y-8907222D01*
X11548753Y-8907222D02*
X11558277Y-8888174D01*
X11558277Y-8888174D02*
X11577325Y-8878650D01*
X11577325Y-8878650D02*
X11615420Y-8878650D01*
X11615420Y-8878650D02*
X11634468Y-8888174D01*
X11634468Y-8888174D02*
X11643991Y-8907222D01*
X11643991Y-8907222D02*
X11643991Y-8926270D01*
X11643991Y-8926270D02*
X11548753Y-8945317D01*
X11720182Y-9002460D02*
X11739230Y-9011984D01*
X11739230Y-9011984D02*
X11777325Y-9011984D01*
X11777325Y-9011984D02*
X11796372Y-9002460D01*
X11796372Y-9002460D02*
X11805896Y-8983412D01*
X11805896Y-8983412D02*
X11805896Y-8973889D01*
X11805896Y-8973889D02*
X11796372Y-8954841D01*
X11796372Y-8954841D02*
X11777325Y-8945317D01*
X11777325Y-8945317D02*
X11748753Y-8945317D01*
X11748753Y-8945317D02*
X11729706Y-8935793D01*
X11729706Y-8935793D02*
X11720182Y-8916746D01*
X11720182Y-8916746D02*
X11720182Y-8907222D01*
X11720182Y-8907222D02*
X11729706Y-8888174D01*
X11729706Y-8888174D02*
X11748753Y-8878650D01*
X11748753Y-8878650D02*
X11777325Y-8878650D01*
X11777325Y-8878650D02*
X11796372Y-8888174D01*
X11872563Y-9088174D02*
X11882087Y-9078650D01*
X11882087Y-9078650D02*
X11901134Y-9050079D01*
X11901134Y-9050079D02*
X11910658Y-9031031D01*
X11910658Y-9031031D02*
X11920182Y-9002460D01*
X11920182Y-9002460D02*
X11929706Y-8954841D01*
X11929706Y-8954841D02*
X11929706Y-8916746D01*
X11929706Y-8916746D02*
X11920182Y-8869127D01*
X11920182Y-8869127D02*
X11910658Y-8840555D01*
X11910658Y-8840555D02*
X11901134Y-8821508D01*
X11901134Y-8821508D02*
X11882087Y-8792936D01*
X11882087Y-8792936D02*
X11872563Y-8783412D01*
D13*
X7081391Y-9223391D02*
X7081391Y-9145609D01*
X7003609Y-9145609D01*
X7003609Y-9223391D01*
X7081391Y-9223391D01*
D11*
X7463039Y-9275984D02*
X7348753Y-9275984D01*
X7405896Y-9275984D02*
X7405896Y-9075984D01*
X7405896Y-9075984D02*
X7386848Y-9104555D01*
X7386848Y-9104555D02*
X7367801Y-9123603D01*
X7367801Y-9123603D02*
X7348753Y-9133127D01*
X7548753Y-9256936D02*
X7558277Y-9266460D01*
X7558277Y-9266460D02*
X7548753Y-9275984D01*
X7548753Y-9275984D02*
X7539229Y-9266460D01*
X7539229Y-9266460D02*
X7548753Y-9256936D01*
X7548753Y-9256936D02*
X7548753Y-9275984D01*
X7748753Y-9275984D02*
X7634467Y-9275984D01*
X7691610Y-9275984D02*
X7691610Y-9075984D01*
X7691610Y-9075984D02*
X7672562Y-9104555D01*
X7672562Y-9104555D02*
X7653515Y-9123603D01*
X7653515Y-9123603D02*
X7634467Y-9133127D01*
X7872562Y-9075984D02*
X7891610Y-9075984D01*
X7891610Y-9075984D02*
X7910658Y-9085508D01*
X7910658Y-9085508D02*
X7920182Y-9095031D01*
X7920182Y-9095031D02*
X7929705Y-9114079D01*
X7929705Y-9114079D02*
X7939229Y-9152174D01*
X7939229Y-9152174D02*
X7939229Y-9199793D01*
X7939229Y-9199793D02*
X7929705Y-9237889D01*
X7929705Y-9237889D02*
X7920182Y-9256936D01*
X7920182Y-9256936D02*
X7910658Y-9266460D01*
X7910658Y-9266460D02*
X7891610Y-9275984D01*
X7891610Y-9275984D02*
X7872562Y-9275984D01*
X7872562Y-9275984D02*
X7853515Y-9266460D01*
X7853515Y-9266460D02*
X7843991Y-9256936D01*
X7843991Y-9256936D02*
X7834467Y-9237889D01*
X7834467Y-9237889D02*
X7824943Y-9199793D01*
X7824943Y-9199793D02*
X7824943Y-9152174D01*
X7824943Y-9152174D02*
X7834467Y-9114079D01*
X7834467Y-9114079D02*
X7843991Y-9095031D01*
X7843991Y-9095031D02*
X7853515Y-9085508D01*
X7853515Y-9085508D02*
X7872562Y-9075984D01*
X8063039Y-9075984D02*
X8082086Y-9075984D01*
X8082086Y-9075984D02*
X8101134Y-9085508D01*
X8101134Y-9085508D02*
X8110658Y-9095031D01*
X8110658Y-9095031D02*
X8120182Y-9114079D01*
X8120182Y-9114079D02*
X8129705Y-9152174D01*
X8129705Y-9152174D02*
X8129705Y-9199793D01*
X8129705Y-9199793D02*
X8120182Y-9237889D01*
X8120182Y-9237889D02*
X8110658Y-9256936D01*
X8110658Y-9256936D02*
X8101134Y-9266460D01*
X8101134Y-9266460D02*
X8082086Y-9275984D01*
X8082086Y-9275984D02*
X8063039Y-9275984D01*
X8063039Y-9275984D02*
X8043991Y-9266460D01*
X8043991Y-9266460D02*
X8034467Y-9256936D01*
X8034467Y-9256936D02*
X8024943Y-9237889D01*
X8024943Y-9237889D02*
X8015420Y-9199793D01*
X8015420Y-9199793D02*
X8015420Y-9152174D01*
X8015420Y-9152174D02*
X8024943Y-9114079D01*
X8024943Y-9114079D02*
X8034467Y-9095031D01*
X8034467Y-9095031D02*
X8043991Y-9085508D01*
X8043991Y-9085508D02*
X8063039Y-9075984D01*
X8215420Y-9275984D02*
X8215420Y-9142650D01*
X8215420Y-9161698D02*
X8224943Y-9152174D01*
X8224943Y-9152174D02*
X8243991Y-9142650D01*
X8243991Y-9142650D02*
X8272563Y-9142650D01*
X8272563Y-9142650D02*
X8291610Y-9152174D01*
X8291610Y-9152174D02*
X8301134Y-9171222D01*
X8301134Y-9171222D02*
X8301134Y-9275984D01*
X8301134Y-9171222D02*
X8310658Y-9152174D01*
X8310658Y-9152174D02*
X8329705Y-9142650D01*
X8329705Y-9142650D02*
X8358277Y-9142650D01*
X8358277Y-9142650D02*
X8377324Y-9152174D01*
X8377324Y-9152174D02*
X8386848Y-9171222D01*
X8386848Y-9171222D02*
X8386848Y-9275984D01*
X8482086Y-9275984D02*
X8482086Y-9142650D01*
X8482086Y-9161698D02*
X8491610Y-9152174D01*
X8491610Y-9152174D02*
X8510658Y-9142650D01*
X8510658Y-9142650D02*
X8539229Y-9142650D01*
X8539229Y-9142650D02*
X8558277Y-9152174D01*
X8558277Y-9152174D02*
X8567801Y-9171222D01*
X8567801Y-9171222D02*
X8567801Y-9275984D01*
X8567801Y-9171222D02*
X8577325Y-9152174D01*
X8577325Y-9152174D02*
X8596372Y-9142650D01*
X8596372Y-9142650D02*
X8624944Y-9142650D01*
X8624944Y-9142650D02*
X8643991Y-9152174D01*
X8643991Y-9152174D02*
X8653515Y-9171222D01*
X8653515Y-9171222D02*
X8653515Y-9275984D01*
X9043991Y-9066460D02*
X8872563Y-9323603D01*
X9301134Y-9075984D02*
X9320182Y-9075984D01*
X9320182Y-9075984D02*
X9339229Y-9085508D01*
X9339229Y-9085508D02*
X9348753Y-9095031D01*
X9348753Y-9095031D02*
X9358277Y-9114079D01*
X9358277Y-9114079D02*
X9367801Y-9152174D01*
X9367801Y-9152174D02*
X9367801Y-9199793D01*
X9367801Y-9199793D02*
X9358277Y-9237889D01*
X9358277Y-9237889D02*
X9348753Y-9256936D01*
X9348753Y-9256936D02*
X9339229Y-9266460D01*
X9339229Y-9266460D02*
X9320182Y-9275984D01*
X9320182Y-9275984D02*
X9301134Y-9275984D01*
X9301134Y-9275984D02*
X9282087Y-9266460D01*
X9282087Y-9266460D02*
X9272563Y-9256936D01*
X9272563Y-9256936D02*
X9263039Y-9237889D01*
X9263039Y-9237889D02*
X9253515Y-9199793D01*
X9253515Y-9199793D02*
X9253515Y-9152174D01*
X9253515Y-9152174D02*
X9263039Y-9114079D01*
X9263039Y-9114079D02*
X9272563Y-9095031D01*
X9272563Y-9095031D02*
X9282087Y-9085508D01*
X9282087Y-9085508D02*
X9301134Y-9075984D01*
X9453515Y-9256936D02*
X9463039Y-9266460D01*
X9463039Y-9266460D02*
X9453515Y-9275984D01*
X9453515Y-9275984D02*
X9443991Y-9266460D01*
X9443991Y-9266460D02*
X9453515Y-9256936D01*
X9453515Y-9256936D02*
X9453515Y-9275984D01*
X9586848Y-9075984D02*
X9605896Y-9075984D01*
X9605896Y-9075984D02*
X9624944Y-9085508D01*
X9624944Y-9085508D02*
X9634468Y-9095031D01*
X9634468Y-9095031D02*
X9643991Y-9114079D01*
X9643991Y-9114079D02*
X9653515Y-9152174D01*
X9653515Y-9152174D02*
X9653515Y-9199793D01*
X9653515Y-9199793D02*
X9643991Y-9237889D01*
X9643991Y-9237889D02*
X9634468Y-9256936D01*
X9634468Y-9256936D02*
X9624944Y-9266460D01*
X9624944Y-9266460D02*
X9605896Y-9275984D01*
X9605896Y-9275984D02*
X9586848Y-9275984D01*
X9586848Y-9275984D02*
X9567801Y-9266460D01*
X9567801Y-9266460D02*
X9558277Y-9256936D01*
X9558277Y-9256936D02*
X9548753Y-9237889D01*
X9548753Y-9237889D02*
X9539229Y-9199793D01*
X9539229Y-9199793D02*
X9539229Y-9152174D01*
X9539229Y-9152174D02*
X9548753Y-9114079D01*
X9548753Y-9114079D02*
X9558277Y-9095031D01*
X9558277Y-9095031D02*
X9567801Y-9085508D01*
X9567801Y-9085508D02*
X9586848Y-9075984D01*
X9824944Y-9142650D02*
X9824944Y-9275984D01*
X9777325Y-9066460D02*
X9729706Y-9209317D01*
X9729706Y-9209317D02*
X9853515Y-9209317D01*
X9910658Y-9075984D02*
X10034468Y-9075984D01*
X10034468Y-9075984D02*
X9967801Y-9152174D01*
X9967801Y-9152174D02*
X9996372Y-9152174D01*
X9996372Y-9152174D02*
X10015420Y-9161698D01*
X10015420Y-9161698D02*
X10024944Y-9171222D01*
X10024944Y-9171222D02*
X10034468Y-9190270D01*
X10034468Y-9190270D02*
X10034468Y-9237889D01*
X10034468Y-9237889D02*
X10024944Y-9256936D01*
X10024944Y-9256936D02*
X10015420Y-9266460D01*
X10015420Y-9266460D02*
X9996372Y-9275984D01*
X9996372Y-9275984D02*
X9939229Y-9275984D01*
X9939229Y-9275984D02*
X9920182Y-9266460D01*
X9920182Y-9266460D02*
X9910658Y-9256936D01*
X10101134Y-9075984D02*
X10224944Y-9075984D01*
X10224944Y-9075984D02*
X10158277Y-9152174D01*
X10158277Y-9152174D02*
X10186849Y-9152174D01*
X10186849Y-9152174D02*
X10205896Y-9161698D01*
X10205896Y-9161698D02*
X10215420Y-9171222D01*
X10215420Y-9171222D02*
X10224944Y-9190270D01*
X10224944Y-9190270D02*
X10224944Y-9237889D01*
X10224944Y-9237889D02*
X10215420Y-9256936D01*
X10215420Y-9256936D02*
X10205896Y-9266460D01*
X10205896Y-9266460D02*
X10186849Y-9275984D01*
X10186849Y-9275984D02*
X10129706Y-9275984D01*
X10129706Y-9275984D02*
X10110658Y-9266460D01*
X10110658Y-9266460D02*
X10101134Y-9256936D01*
X10301134Y-9075984D02*
X10301134Y-9114079D01*
X10377325Y-9075984D02*
X10377325Y-9114079D01*
X10672563Y-9352174D02*
X10663039Y-9342650D01*
X10663039Y-9342650D02*
X10643991Y-9314079D01*
X10643991Y-9314079D02*
X10634468Y-9295031D01*
X10634468Y-9295031D02*
X10624944Y-9266460D01*
X10624944Y-9266460D02*
X10615420Y-9218841D01*
X10615420Y-9218841D02*
X10615420Y-9180746D01*
X10615420Y-9180746D02*
X10624944Y-9133127D01*
X10624944Y-9133127D02*
X10634468Y-9104555D01*
X10634468Y-9104555D02*
X10643991Y-9085508D01*
X10643991Y-9085508D02*
X10663039Y-9056936D01*
X10663039Y-9056936D02*
X10672563Y-9047412D01*
X10729706Y-9075984D02*
X10853515Y-9075984D01*
X10853515Y-9075984D02*
X10786849Y-9152174D01*
X10786849Y-9152174D02*
X10815420Y-9152174D01*
X10815420Y-9152174D02*
X10834468Y-9161698D01*
X10834468Y-9161698D02*
X10843991Y-9171222D01*
X10843991Y-9171222D02*
X10853515Y-9190270D01*
X10853515Y-9190270D02*
X10853515Y-9237889D01*
X10853515Y-9237889D02*
X10843991Y-9256936D01*
X10843991Y-9256936D02*
X10834468Y-9266460D01*
X10834468Y-9266460D02*
X10815420Y-9275984D01*
X10815420Y-9275984D02*
X10758277Y-9275984D01*
X10758277Y-9275984D02*
X10739230Y-9266460D01*
X10739230Y-9266460D02*
X10729706Y-9256936D01*
X11091611Y-9275984D02*
X11091611Y-9075984D01*
X11177325Y-9275984D02*
X11177325Y-9171222D01*
X11177325Y-9171222D02*
X11167801Y-9152174D01*
X11167801Y-9152174D02*
X11148753Y-9142650D01*
X11148753Y-9142650D02*
X11120182Y-9142650D01*
X11120182Y-9142650D02*
X11101134Y-9152174D01*
X11101134Y-9152174D02*
X11091611Y-9161698D01*
X11301134Y-9275984D02*
X11282087Y-9266460D01*
X11282087Y-9266460D02*
X11272563Y-9256936D01*
X11272563Y-9256936D02*
X11263039Y-9237889D01*
X11263039Y-9237889D02*
X11263039Y-9180746D01*
X11263039Y-9180746D02*
X11272563Y-9161698D01*
X11272563Y-9161698D02*
X11282087Y-9152174D01*
X11282087Y-9152174D02*
X11301134Y-9142650D01*
X11301134Y-9142650D02*
X11329706Y-9142650D01*
X11329706Y-9142650D02*
X11348753Y-9152174D01*
X11348753Y-9152174D02*
X11358277Y-9161698D01*
X11358277Y-9161698D02*
X11367801Y-9180746D01*
X11367801Y-9180746D02*
X11367801Y-9237889D01*
X11367801Y-9237889D02*
X11358277Y-9256936D01*
X11358277Y-9256936D02*
X11348753Y-9266460D01*
X11348753Y-9266460D02*
X11329706Y-9275984D01*
X11329706Y-9275984D02*
X11301134Y-9275984D01*
X11482087Y-9275984D02*
X11463039Y-9266460D01*
X11463039Y-9266460D02*
X11453515Y-9247412D01*
X11453515Y-9247412D02*
X11453515Y-9075984D01*
X11634468Y-9266460D02*
X11615420Y-9275984D01*
X11615420Y-9275984D02*
X11577325Y-9275984D01*
X11577325Y-9275984D02*
X11558277Y-9266460D01*
X11558277Y-9266460D02*
X11548753Y-9247412D01*
X11548753Y-9247412D02*
X11548753Y-9171222D01*
X11548753Y-9171222D02*
X11558277Y-9152174D01*
X11558277Y-9152174D02*
X11577325Y-9142650D01*
X11577325Y-9142650D02*
X11615420Y-9142650D01*
X11615420Y-9142650D02*
X11634468Y-9152174D01*
X11634468Y-9152174D02*
X11643991Y-9171222D01*
X11643991Y-9171222D02*
X11643991Y-9190270D01*
X11643991Y-9190270D02*
X11548753Y-9209317D01*
X11720182Y-9266460D02*
X11739230Y-9275984D01*
X11739230Y-9275984D02*
X11777325Y-9275984D01*
X11777325Y-9275984D02*
X11796372Y-9266460D01*
X11796372Y-9266460D02*
X11805896Y-9247412D01*
X11805896Y-9247412D02*
X11805896Y-9237889D01*
X11805896Y-9237889D02*
X11796372Y-9218841D01*
X11796372Y-9218841D02*
X11777325Y-9209317D01*
X11777325Y-9209317D02*
X11748753Y-9209317D01*
X11748753Y-9209317D02*
X11729706Y-9199793D01*
X11729706Y-9199793D02*
X11720182Y-9180746D01*
X11720182Y-9180746D02*
X11720182Y-9171222D01*
X11720182Y-9171222D02*
X11729706Y-9152174D01*
X11729706Y-9152174D02*
X11748753Y-9142650D01*
X11748753Y-9142650D02*
X11777325Y-9142650D01*
X11777325Y-9142650D02*
X11796372Y-9152174D01*
X11872563Y-9352174D02*
X11882087Y-9342650D01*
X11882087Y-9342650D02*
X11901134Y-9314079D01*
X11901134Y-9314079D02*
X11910658Y-9295031D01*
X11910658Y-9295031D02*
X11920182Y-9266460D01*
X11920182Y-9266460D02*
X11929706Y-9218841D01*
X11929706Y-9218841D02*
X11929706Y-9180746D01*
X11929706Y-9180746D02*
X11920182Y-9133127D01*
X11920182Y-9133127D02*
X11910658Y-9104555D01*
X11910658Y-9104555D02*
X11901134Y-9085508D01*
X11901134Y-9085508D02*
X11882087Y-9056936D01*
X11882087Y-9056936D02*
X11872563Y-9047412D01*
M02*
