%TF.GenerationSoftware,KiCad,Pcbnew,9.0.2*%
%TF.CreationDate,2026-04-04T19:11:50-05:00*%
%TF.ProjectId,board,626f6172-642e-46b6-9963-61645f706362,rev?*%
%TF.SameCoordinates,Original*%
%TF.FileFunction,Soldermask,Top*%
%TF.FilePolarity,Negative*%
%FSLAX46Y46*%
G04 Gerber Fmt 4.6, Leading zero omitted, Abs format (unit mm)*
G04 Created by KiCad (PCBNEW 9.0.2) date 2026-04-04 19:11:50*
%MOMM*%
%LPD*%
G01*
G04 APERTURE LIST*
G04 Aperture macros list*
%AMRoundRect*
0 Rectangle with rounded corners*
0 $1 Rounding radius*
0 $2 $3 $4 $5 $6 $7 $8 $9 X,Y pos of 4 corners*
0 Add a 4 corners polygon primitive as box body*
4,1,4,$2,$3,$4,$5,$6,$7,$8,$9,$2,$3,0*
0 Add four circle primitives for the rounded corners*
1,1,$1+$1,$2,$3*
1,1,$1+$1,$4,$5*
1,1,$1+$1,$6,$7*
1,1,$1+$1,$8,$9*
0 Add four rect primitives between the rounded corners*
20,1,$1+$1,$2,$3,$4,$5,0*
20,1,$1+$1,$4,$5,$6,$7,0*
20,1,$1+$1,$6,$7,$8,$9,0*
20,1,$1+$1,$8,$9,$2,$3,0*%
G04 Aperture macros list end*
%ADD10C,0.010000*%
%ADD11C,0.000000*%
%ADD12RoundRect,0.102000X-0.635000X0.361950X-0.635000X-0.361950X0.635000X-0.361950X0.635000X0.361950X0*%
%ADD13C,0.861200*%
%ADD14RoundRect,0.140000X-0.140000X-0.170000X0.140000X-0.170000X0.140000X0.170000X-0.140000X0.170000X0*%
%ADD15RoundRect,0.100000X-0.224506X0.083085X0.083085X-0.224506X0.224506X-0.083085X-0.083085X0.224506X0*%
%ADD16RoundRect,0.100000X-0.083085X-0.224506X0.224506X0.083085X0.083085X0.224506X-0.224506X-0.083085X0*%
%ADD17R,1.905000X2.000000*%
%ADD18O,1.905000X2.000000*%
%ADD19RoundRect,0.100000X0.083085X0.224506X-0.224506X-0.083085X-0.083085X-0.224506X0.224506X0.083085X0*%
%ADD20R,0.711200X0.254000*%
%ADD21R,0.254000X0.711200*%
%ADD22RoundRect,0.100000X0.224506X-0.083085X-0.083085X0.224506X-0.224506X0.083085X0.083085X-0.224506X0*%
%ADD23RoundRect,0.155000X-0.212500X-0.155000X0.212500X-0.155000X0.212500X0.155000X-0.212500X0.155000X0*%
%ADD24R,1.700000X1.700000*%
%ADD25C,1.700000*%
%ADD26RoundRect,0.155000X-0.155000X0.212500X-0.155000X-0.212500X0.155000X-0.212500X0.155000X0.212500X0*%
%ADD27RoundRect,0.100000X-0.217500X-0.100000X0.217500X-0.100000X0.217500X0.100000X-0.217500X0.100000X0*%
%ADD28C,0.454000*%
%ADD29C,0.950722*%
G04 APERTURE END LIST*
D10*
%TO.C,J3*%
X114120600Y-59123250D02*
X112904600Y-59123250D01*
X112904600Y-58850200D01*
X108989800Y-58850200D01*
X108989800Y-59123250D01*
X107773800Y-59123250D01*
X107773800Y-55475200D01*
X114120600Y-55475200D01*
X114120600Y-59123250D01*
G36*
X114120600Y-59123250D02*
G01*
X112904600Y-59123250D01*
X112904600Y-58850200D01*
X108989800Y-58850200D01*
X108989800Y-59123250D01*
X107773800Y-59123250D01*
X107773800Y-55475200D01*
X114120600Y-55475200D01*
X114120600Y-59123250D01*
G37*
X108989800Y-60428200D02*
X112904600Y-60428200D01*
X112904600Y-60155150D01*
X114120600Y-60155150D01*
X114120600Y-63803200D01*
X107773800Y-63803200D01*
X107773800Y-60155150D01*
X108989800Y-60155150D01*
X108989800Y-60428200D01*
G36*
X108989800Y-60428200D02*
G01*
X112904600Y-60428200D01*
X112904600Y-60155150D01*
X114120600Y-60155150D01*
X114120600Y-63803200D01*
X107773800Y-63803200D01*
X107773800Y-60155150D01*
X108989800Y-60155150D01*
X108989800Y-60428200D01*
G37*
%TO.C,J1*%
X114095200Y-70604051D02*
X112879200Y-70604051D01*
X112879200Y-70331001D01*
X108964400Y-70331001D01*
X108964400Y-70604051D01*
X107748400Y-70604051D01*
X107748400Y-66956001D01*
X114095200Y-66956001D01*
X114095200Y-70604051D01*
G36*
X114095200Y-70604051D02*
G01*
X112879200Y-70604051D01*
X112879200Y-70331001D01*
X108964400Y-70331001D01*
X108964400Y-70604051D01*
X107748400Y-70604051D01*
X107748400Y-66956001D01*
X114095200Y-66956001D01*
X114095200Y-70604051D01*
G37*
X108964400Y-71909001D02*
X112879200Y-71909001D01*
X112879200Y-71635951D01*
X114095200Y-71635951D01*
X114095200Y-75284001D01*
X107748400Y-75284001D01*
X107748400Y-71635951D01*
X108964400Y-71635951D01*
X108964400Y-71909001D01*
G36*
X108964400Y-71909001D02*
G01*
X112879200Y-71909001D01*
X112879200Y-71635951D01*
X114095200Y-71635951D01*
X114095200Y-75284001D01*
X107748400Y-75284001D01*
X107748400Y-71635951D01*
X108964400Y-71635951D01*
X108964400Y-71909001D01*
G37*
D11*
%TO.C,U1*%
G36*
X89439999Y-67863400D02*
G01*
X86493599Y-67863400D01*
X86493599Y-64917000D01*
X89439999Y-64917000D01*
X89439999Y-67863400D01*
G37*
%TD*%
D12*
%TO.C,J3*%
X113385600Y-59639200D03*
D13*
X113385600Y-58572400D03*
X110845600Y-58369199D03*
X109575600Y-58369200D03*
X108305600Y-58572400D03*
X108305600Y-60706000D03*
X109575600Y-60909200D03*
X110845600Y-60909201D03*
X112115600Y-60909200D03*
X113385600Y-60706000D03*
%TD*%
D14*
%TO.C,C1*%
X89969400Y-70002400D03*
X90929400Y-70002400D03*
%TD*%
D15*
%TO.C,R5*%
X96629927Y-62229581D03*
X97206219Y-62805873D03*
%TD*%
%TO.C,R8*%
X96782327Y-68858981D03*
X97358619Y-69435273D03*
%TD*%
D16*
%TO.C,R9*%
X96629927Y-64583873D03*
X97206219Y-64007581D03*
%TD*%
D12*
%TO.C,J1*%
X113360200Y-71120001D03*
D13*
X113360200Y-70053201D03*
X110820200Y-69850000D03*
X109550200Y-69850001D03*
X108280200Y-70053201D03*
X108280200Y-72186801D03*
X109550200Y-72390001D03*
X110820200Y-72390002D03*
X112090200Y-72390001D03*
X113360200Y-72186801D03*
%TD*%
D17*
%TO.C,U2*%
X77089000Y-71536600D03*
D18*
X79629000Y-71536600D03*
X82169000Y-71536600D03*
%TD*%
D19*
%TO.C,R6*%
X95656819Y-69189181D03*
X95080527Y-69765473D03*
%TD*%
D16*
%TO.C,R2*%
X95283727Y-65955473D03*
X95860019Y-65379181D03*
%TD*%
D20*
%TO.C,U1*%
X86017598Y-65140200D03*
X86017598Y-65640199D03*
X86017598Y-66140200D03*
X86017598Y-66640200D03*
X86017598Y-67140201D03*
X86017598Y-67640200D03*
D21*
X86716799Y-68339401D03*
X87216798Y-68339401D03*
X87716799Y-68339401D03*
X88216799Y-68339401D03*
X88716800Y-68339401D03*
X89216799Y-68339401D03*
D20*
X89916000Y-67640200D03*
X89916000Y-67140201D03*
X89916000Y-66640200D03*
X89916000Y-66140200D03*
X89916000Y-65640199D03*
X89916000Y-65140200D03*
D21*
X89216799Y-64440999D03*
X88716800Y-64440999D03*
X88216799Y-64440999D03*
X87716799Y-64440999D03*
X87216798Y-64440999D03*
X86716799Y-64440999D03*
%TD*%
D22*
%TO.C,R4*%
X95479019Y-64202873D03*
X94902727Y-63626581D03*
%TD*%
D19*
%TO.C,R7*%
X97519765Y-70602835D03*
X96943473Y-71179127D03*
%TD*%
D23*
%TO.C,C3*%
X73896600Y-67360800D03*
X75031600Y-67360800D03*
%TD*%
D24*
%TO.C,J4*%
X75290400Y-64937800D03*
D25*
X75290400Y-62397800D03*
X75290400Y-59857801D03*
X75290400Y-57317800D03*
%TD*%
D26*
%TO.C,C2*%
X86131400Y-72711500D03*
X86131400Y-73846500D03*
%TD*%
D27*
%TO.C,R1*%
X93716573Y-66683327D03*
X94531573Y-66683327D03*
%TD*%
D15*
%TO.C,R3*%
X95343273Y-67470727D03*
X95919565Y-68047019D03*
%TD*%
D28*
X94555873Y-66683327D02*
X95343273Y-67470727D01*
X94555873Y-66683327D02*
X95283727Y-65955473D01*
D29*
X93716573Y-66683327D02*
X91143527Y-66683327D01*
D28*
X96156073Y-64879927D02*
X95479019Y-64202873D01*
X96371973Y-68474027D02*
X95656819Y-69189181D01*
D29*
X111129277Y-71120001D02*
X113360200Y-71120001D01*
X97959473Y-70036127D02*
X99043347Y-71120001D01*
X99043347Y-71120001D02*
X111129277Y-71120001D01*
X97781673Y-63381327D02*
X101523800Y-59639200D01*
D28*
X97206219Y-64007581D02*
X97781673Y-63432127D01*
X97206219Y-62805873D02*
X97781673Y-63381327D01*
D29*
X101523800Y-59639200D02*
X113385600Y-59639200D01*
G36*
X94875722Y-66580681D02*
G01*
X94906397Y-66591413D01*
X94935071Y-66611011D01*
X94956210Y-66635691D01*
X95090321Y-66916707D01*
X95095513Y-66954203D01*
X95088576Y-66994601D01*
X95071172Y-67028218D01*
X94899882Y-67199508D01*
X94864107Y-67217244D01*
X94821016Y-67223102D01*
X94781803Y-67215559D01*
X94369295Y-66982001D01*
X94341214Y-66948591D01*
X94325082Y-66903315D01*
X94325710Y-66859677D01*
X94420214Y-66616764D01*
X94445097Y-66586575D01*
X94481043Y-66563882D01*
X94518999Y-66554401D01*
X94875722Y-66580681D01*
G37*
G36*
X97543095Y-63449228D02*
G01*
X97576736Y-63466637D01*
X97747162Y-63637063D01*
X97764571Y-63670704D01*
X97771497Y-63711136D01*
X97766278Y-63748653D01*
X97630711Y-64032140D01*
X97611328Y-64055546D01*
X97585270Y-64074688D01*
X97557137Y-64086186D01*
X97191588Y-64138581D01*
X97145243Y-64126730D01*
X97138526Y-64120907D01*
X97092892Y-64075273D01*
X97074586Y-64031079D01*
X97075218Y-64022211D01*
X97127613Y-63656662D01*
X97139111Y-63628529D01*
X97158253Y-63602471D01*
X97181659Y-63583088D01*
X97465146Y-63447521D01*
X97502663Y-63442302D01*
X97543095Y-63449228D01*
G37*
G36*
X95084345Y-66910667D02*
G01*
X95367832Y-67046234D01*
X95391238Y-67065617D01*
X95410380Y-67091675D01*
X95421878Y-67119808D01*
X95474273Y-67485357D01*
X95462422Y-67531702D01*
X95456599Y-67538419D01*
X95410965Y-67584053D01*
X95366771Y-67602359D01*
X95357903Y-67601727D01*
X94992354Y-67549332D01*
X94964221Y-67537834D01*
X94938163Y-67518692D01*
X94918780Y-67495286D01*
X94783213Y-67211799D01*
X94777994Y-67174282D01*
X94784920Y-67133850D01*
X94802329Y-67100209D01*
X94972755Y-66929783D01*
X95006396Y-66912374D01*
X95046828Y-66905448D01*
X95084345Y-66910667D01*
G37*
G36*
X97191588Y-62674872D02*
G01*
X97557137Y-62727267D01*
X97585270Y-62738765D01*
X97611328Y-62757907D01*
X97630711Y-62781313D01*
X97766278Y-63064800D01*
X97771497Y-63102317D01*
X97764571Y-63142749D01*
X97747162Y-63176390D01*
X97576736Y-63346816D01*
X97543095Y-63364225D01*
X97502663Y-63371151D01*
X97465146Y-63365932D01*
X97181659Y-63230365D01*
X97158253Y-63210982D01*
X97139111Y-63184924D01*
X97127613Y-63156791D01*
X97075218Y-62791242D01*
X97087069Y-62744897D01*
X97092892Y-62738180D01*
X97138526Y-62692546D01*
X97182720Y-62674240D01*
X97191588Y-62674872D01*
G37*
G36*
X95993695Y-68630828D02*
G01*
X96027336Y-68648237D01*
X96197762Y-68818663D01*
X96215171Y-68852304D01*
X96222097Y-68892736D01*
X96216878Y-68930253D01*
X96081311Y-69213740D01*
X96061928Y-69237146D01*
X96035870Y-69256288D01*
X96007737Y-69267786D01*
X95642188Y-69320181D01*
X95595843Y-69308330D01*
X95589126Y-69302507D01*
X95543492Y-69256873D01*
X95525186Y-69212679D01*
X95525818Y-69203811D01*
X95578213Y-68838262D01*
X95589711Y-68810129D01*
X95608853Y-68784071D01*
X95632259Y-68764688D01*
X95915746Y-68629121D01*
X95953263Y-68623902D01*
X95993695Y-68630828D01*
G37*
G36*
X95344702Y-65836323D02*
G01*
X95351419Y-65842146D01*
X95397053Y-65887780D01*
X95415359Y-65931974D01*
X95414727Y-65940842D01*
X95362332Y-66306391D01*
X95350834Y-66334524D01*
X95331692Y-66360582D01*
X95308286Y-66379965D01*
X95024799Y-66515532D01*
X94987282Y-66520751D01*
X94946850Y-66513825D01*
X94913209Y-66496416D01*
X94742783Y-66325990D01*
X94725374Y-66292349D01*
X94718448Y-66251917D01*
X94723667Y-66214400D01*
X94859234Y-65930913D01*
X94878617Y-65907507D01*
X94904675Y-65888365D01*
X94932808Y-65876867D01*
X95298357Y-65824472D01*
X95344702Y-65836323D01*
G37*
G36*
X94864107Y-66149409D02*
G01*
X94899882Y-66167145D01*
X95071172Y-66338435D01*
X95088576Y-66372052D01*
X95095513Y-66412450D01*
X95090321Y-66449946D01*
X94956210Y-66730962D01*
X94935069Y-66755643D01*
X94906396Y-66775239D01*
X94875723Y-66785970D01*
X94519000Y-66812252D01*
X94481044Y-66802771D01*
X94445097Y-66780078D01*
X94420214Y-66749889D01*
X94325710Y-66506976D01*
X94325082Y-66463338D01*
X94341214Y-66418062D01*
X94369295Y-66384652D01*
X94781803Y-66151094D01*
X94821016Y-66143551D01*
X94864107Y-66149409D01*
G37*
G36*
X95464388Y-64071872D02*
G01*
X95829937Y-64124267D01*
X95858070Y-64135765D01*
X95884128Y-64154907D01*
X95903511Y-64178313D01*
X96039078Y-64461800D01*
X96044297Y-64499317D01*
X96037371Y-64539749D01*
X96019962Y-64573390D01*
X95849536Y-64743816D01*
X95815895Y-64761225D01*
X95775463Y-64768151D01*
X95737946Y-64762932D01*
X95454459Y-64627365D01*
X95431053Y-64607982D01*
X95411911Y-64581924D01*
X95400413Y-64553791D01*
X95348018Y-64188242D01*
X95359869Y-64141897D01*
X95365692Y-64135180D01*
X95411326Y-64089546D01*
X95455520Y-64071240D01*
X95464388Y-64071872D01*
G37*
M02*
