M48
; DRILL file {KiCad 9.0.2} date 2026-04-04T19:11:57-0500
; FORMAT={-:-/ absolute / metric / decimal}
; #@! TF.CreationDate,2026-04-04T19:11:57-05:00
; #@! TF.GenerationSoftware,Kicad,Pcbnew,9.0.2
; #@! TF.FileFunction,Plated,1,4,PTH
FMAT,2
METRIC
; #@! TA.AperFunction,Plated,PTH,ViaDrill
T1C0.300
; #@! TA.AperFunction,Plated,PTH,ComponentDrill
T2C0.457
; #@! TA.AperFunction,Plated,PTH,ComponentDrill
T3C1.000
; #@! TA.AperFunction,Plated,PTH,ComponentDrill
T4C1.100
%
G90
G05
T1
X75.997Y-67.386
X83.515Y-68.174
X84.049Y-63.017
X84.75Y-70.02
X85.68Y-69.04
X86.131Y-75.032
X87.197Y-66.86
X87.325Y-74.447
X87.437Y-65.56
X88.437Y-67.16
X88.797Y-65.87
X89.941Y-61.747
X90.526Y-68.809
X91.084Y-62.967
X91.415Y-63.703
X91.486Y-65.396
X91.486Y-68.396
X91.999Y-70.942
X92.1Y-69.748
X92.55Y-65.45
X92.558Y-67.843
X93.726Y-65.38
X94.107Y-68.097
X94.251Y-62.975
X94.48Y-70.392
X96.029Y-61.578
X96.25Y-66.77
X96.334Y-71.789
X96.82Y-67.39
X97.003Y-66.091
X97.41Y-67.93
X97.87Y-72.03
X97.892Y-65.227
X97.99Y-68.44
X98.095Y-61.366
X98.349Y-64.491
X98.58Y-68.98
X98.58Y-72.39
X98.755Y-60.376
X98.933Y-64.008
X99.24Y-69.48
X99.441Y-63.424
X99.48Y-72.51
X99.543Y-59.639
X99.96Y-69.79
X100.203Y-62.713
X100.355Y-58.953
X100.44Y-72.51
X100.7Y-69.91
X100.863Y-62.484
X101.422Y-61.722
X101.48Y-69.84
X101.48Y-72.44
X101.6Y-58.293
X102.006Y-61.062
X102.19Y-69.89
X102.36Y-72.43
X102.98Y-69.89
X103.124Y-58.395
X103.19Y-72.36
X103.632Y-60.833
X103.74Y-69.84
X104.038Y-58.191
X104.13Y-72.38
X104.6Y-69.89
X105.0Y-72.31
X105.029Y-58.42
X105.054Y-60.935
X105.38Y-69.89
X105.867Y-60.909
X106.03Y-72.39
X106.07Y-58.445
X106.38Y-69.91
X106.68Y-63.805
X106.731Y-61.849
X106.731Y-62.586
X106.782Y-58.191
X106.807Y-60.96
X106.832Y-55.575
X106.832Y-57.252
X106.959Y-56.388
X107.01Y-67.71
X107.06Y-68.74
X107.07Y-72.41
X107.22Y-66.7
X107.29Y-64.668
X107.417Y-76.048
X108.25Y-66.46
X108.585Y-64.668
X108.585Y-76.175
X109.398Y-76.149
X109.65Y-66.44
X109.728Y-64.592
X110.642Y-76.098
X110.922Y-64.643
X110.97Y-66.49
X112.141Y-64.643
X112.19Y-66.39
X112.243Y-76.098
X113.22Y-66.33
X113.259Y-76.251
X113.386Y-64.719
T2
X108.28Y-70.053
X108.28Y-72.187
X108.306Y-58.572
X108.306Y-60.706
X109.55Y-69.85
X109.55Y-72.39
X109.576Y-58.369
X109.576Y-60.909
X110.82Y-69.85
X110.82Y-72.39
X110.846Y-58.369
X110.846Y-60.909
X112.09Y-72.39
X112.116Y-60.909
X113.36Y-70.053
X113.36Y-72.187
X113.386Y-58.572
X113.386Y-60.706
T3
X75.29Y-57.318
X75.29Y-59.858
X75.29Y-62.398
X75.29Y-64.938
T4
X77.089Y-71.537
X79.629Y-71.537
X82.169Y-71.537
M30
