%TF.GenerationSoftware,KiCad,Pcbnew,9.0.2*%
%TF.CreationDate,2026-04-04T19:11:50-05:00*%
%TF.ProjectId,board,626f6172-642e-46b6-9963-61645f706362,rev?*%
%TF.SameCoordinates,Original*%
%TF.FileFunction,Legend,Top*%
%TF.FilePolarity,Positive*%
%FSLAX46Y46*%
G04 Gerber Fmt 4.6, Leading zero omitted, Abs format (unit mm)*
G04 Created by KiCad (PCBNEW 9.0.2) date 2026-04-04 19:11:50*
%MOMM*%
%LPD*%
G01*
G04 APERTURE LIST*
%ADD10C,0.150000*%
%ADD11C,0.120000*%
%ADD12C,0.152400*%
%ADD13C,0.000000*%
G04 APERTURE END LIST*
D10*
X104674819Y-62953333D02*
X105389104Y-62953333D01*
X105389104Y-62953333D02*
X105531961Y-63000952D01*
X105531961Y-63000952D02*
X105627200Y-63096190D01*
X105627200Y-63096190D02*
X105674819Y-63239047D01*
X105674819Y-63239047D02*
X105674819Y-63334285D01*
X104674819Y-62572380D02*
X104674819Y-61953333D01*
X104674819Y-61953333D02*
X105055771Y-62286666D01*
X105055771Y-62286666D02*
X105055771Y-62143809D01*
X105055771Y-62143809D02*
X105103390Y-62048571D01*
X105103390Y-62048571D02*
X105151009Y-62000952D01*
X105151009Y-62000952D02*
X105246247Y-61953333D01*
X105246247Y-61953333D02*
X105484342Y-61953333D01*
X105484342Y-61953333D02*
X105579580Y-62000952D01*
X105579580Y-62000952D02*
X105627200Y-62048571D01*
X105627200Y-62048571D02*
X105674819Y-62143809D01*
X105674819Y-62143809D02*
X105674819Y-62429523D01*
X105674819Y-62429523D02*
X105627200Y-62524761D01*
X105627200Y-62524761D02*
X105579580Y-62572380D01*
X90816133Y-72698780D02*
X90768514Y-72746400D01*
X90768514Y-72746400D02*
X90625657Y-72794019D01*
X90625657Y-72794019D02*
X90530419Y-72794019D01*
X90530419Y-72794019D02*
X90387562Y-72746400D01*
X90387562Y-72746400D02*
X90292324Y-72651161D01*
X90292324Y-72651161D02*
X90244705Y-72555923D01*
X90244705Y-72555923D02*
X90197086Y-72365447D01*
X90197086Y-72365447D02*
X90197086Y-72222590D01*
X90197086Y-72222590D02*
X90244705Y-72032114D01*
X90244705Y-72032114D02*
X90292324Y-71936876D01*
X90292324Y-71936876D02*
X90387562Y-71841638D01*
X90387562Y-71841638D02*
X90530419Y-71794019D01*
X90530419Y-71794019D02*
X90625657Y-71794019D01*
X90625657Y-71794019D02*
X90768514Y-71841638D01*
X90768514Y-71841638D02*
X90816133Y-71889257D01*
X91768514Y-72794019D02*
X91197086Y-72794019D01*
X91482800Y-72794019D02*
X91482800Y-71794019D01*
X91482800Y-71794019D02*
X91387562Y-71936876D01*
X91387562Y-71936876D02*
X91292324Y-72032114D01*
X91292324Y-72032114D02*
X91197086Y-72079733D01*
X94670543Y-60973754D02*
X94771558Y-60401335D01*
X94266482Y-60569693D02*
X94973589Y-59862587D01*
X94973589Y-59862587D02*
X95242963Y-60131961D01*
X95242963Y-60131961D02*
X95276635Y-60232976D01*
X95276635Y-60232976D02*
X95276635Y-60300319D01*
X95276635Y-60300319D02*
X95242963Y-60401335D01*
X95242963Y-60401335D02*
X95141948Y-60502350D01*
X95141948Y-60502350D02*
X95040932Y-60536022D01*
X95040932Y-60536022D02*
X94973589Y-60536022D01*
X94973589Y-60536022D02*
X94872574Y-60502350D01*
X94872574Y-60502350D02*
X94603200Y-60232976D01*
X96017413Y-60906411D02*
X95680696Y-60569693D01*
X95680696Y-60569693D02*
X95310306Y-60872739D01*
X95310306Y-60872739D02*
X95377650Y-60872739D01*
X95377650Y-60872739D02*
X95478665Y-60906411D01*
X95478665Y-60906411D02*
X95647024Y-61074770D01*
X95647024Y-61074770D02*
X95680696Y-61175785D01*
X95680696Y-61175785D02*
X95680696Y-61243128D01*
X95680696Y-61243128D02*
X95647024Y-61344144D01*
X95647024Y-61344144D02*
X95478665Y-61512502D01*
X95478665Y-61512502D02*
X95377650Y-61546174D01*
X95377650Y-61546174D02*
X95310306Y-61546174D01*
X95310306Y-61546174D02*
X95209291Y-61512502D01*
X95209291Y-61512502D02*
X95040932Y-61344144D01*
X95040932Y-61344144D02*
X95007261Y-61243128D01*
X95007261Y-61243128D02*
X95007261Y-61175785D01*
X97560543Y-68733754D02*
X97661558Y-68161335D01*
X97156482Y-68329693D02*
X97863589Y-67622587D01*
X97863589Y-67622587D02*
X98132963Y-67891961D01*
X98132963Y-67891961D02*
X98166635Y-67992976D01*
X98166635Y-67992976D02*
X98166635Y-68060319D01*
X98166635Y-68060319D02*
X98132963Y-68161335D01*
X98132963Y-68161335D02*
X98031948Y-68262350D01*
X98031948Y-68262350D02*
X97930932Y-68296022D01*
X97930932Y-68296022D02*
X97863589Y-68296022D01*
X97863589Y-68296022D02*
X97762574Y-68262350D01*
X97762574Y-68262350D02*
X97493200Y-67992976D01*
X98368665Y-68733754D02*
X98334993Y-68632739D01*
X98334993Y-68632739D02*
X98334993Y-68565396D01*
X98334993Y-68565396D02*
X98368665Y-68464380D01*
X98368665Y-68464380D02*
X98402337Y-68430709D01*
X98402337Y-68430709D02*
X98503352Y-68397037D01*
X98503352Y-68397037D02*
X98570696Y-68397037D01*
X98570696Y-68397037D02*
X98671711Y-68430709D01*
X98671711Y-68430709D02*
X98806398Y-68565396D01*
X98806398Y-68565396D02*
X98840070Y-68666411D01*
X98840070Y-68666411D02*
X98840070Y-68733754D01*
X98840070Y-68733754D02*
X98806398Y-68834770D01*
X98806398Y-68834770D02*
X98772726Y-68868441D01*
X98772726Y-68868441D02*
X98671711Y-68902113D01*
X98671711Y-68902113D02*
X98604367Y-68902113D01*
X98604367Y-68902113D02*
X98503352Y-68868441D01*
X98503352Y-68868441D02*
X98368665Y-68733754D01*
X98368665Y-68733754D02*
X98267650Y-68700083D01*
X98267650Y-68700083D02*
X98200306Y-68700083D01*
X98200306Y-68700083D02*
X98099291Y-68733754D01*
X98099291Y-68733754D02*
X97964604Y-68868441D01*
X97964604Y-68868441D02*
X97930932Y-68969457D01*
X97930932Y-68969457D02*
X97930932Y-69036800D01*
X97930932Y-69036800D02*
X97964604Y-69137815D01*
X97964604Y-69137815D02*
X98099291Y-69272502D01*
X98099291Y-69272502D02*
X98200306Y-69306174D01*
X98200306Y-69306174D02*
X98267650Y-69306174D01*
X98267650Y-69306174D02*
X98368665Y-69272502D01*
X98368665Y-69272502D02*
X98503352Y-69137815D01*
X98503352Y-69137815D02*
X98537024Y-69036800D01*
X98537024Y-69036800D02*
X98537024Y-68969457D01*
X98537024Y-68969457D02*
X98503352Y-68868441D01*
X98173754Y-65659456D02*
X97601335Y-65558441D01*
X97769693Y-66063517D02*
X97062587Y-65356410D01*
X97062587Y-65356410D02*
X97331961Y-65087036D01*
X97331961Y-65087036D02*
X97432976Y-65053364D01*
X97432976Y-65053364D02*
X97500319Y-65053364D01*
X97500319Y-65053364D02*
X97601335Y-65087036D01*
X97601335Y-65087036D02*
X97702350Y-65188051D01*
X97702350Y-65188051D02*
X97736022Y-65289067D01*
X97736022Y-65289067D02*
X97736022Y-65356410D01*
X97736022Y-65356410D02*
X97702350Y-65457425D01*
X97702350Y-65457425D02*
X97432976Y-65726799D01*
X98510472Y-65322738D02*
X98645159Y-65188051D01*
X98645159Y-65188051D02*
X98678831Y-65087036D01*
X98678831Y-65087036D02*
X98678831Y-65019693D01*
X98678831Y-65019693D02*
X98645159Y-64851334D01*
X98645159Y-64851334D02*
X98544144Y-64682975D01*
X98544144Y-64682975D02*
X98274770Y-64413601D01*
X98274770Y-64413601D02*
X98173754Y-64379929D01*
X98173754Y-64379929D02*
X98106411Y-64379929D01*
X98106411Y-64379929D02*
X98005396Y-64413601D01*
X98005396Y-64413601D02*
X97870709Y-64548288D01*
X97870709Y-64548288D02*
X97837037Y-64649303D01*
X97837037Y-64649303D02*
X97837037Y-64716647D01*
X97837037Y-64716647D02*
X97870709Y-64817662D01*
X97870709Y-64817662D02*
X98039067Y-64986021D01*
X98039067Y-64986021D02*
X98140083Y-65019693D01*
X98140083Y-65019693D02*
X98207426Y-65019693D01*
X98207426Y-65019693D02*
X98308441Y-64986021D01*
X98308441Y-64986021D02*
X98443128Y-64851334D01*
X98443128Y-64851334D02*
X98476800Y-64750319D01*
X98476800Y-64750319D02*
X98476800Y-64682975D01*
X98476800Y-64682975D02*
X98443128Y-64581960D01*
X104864819Y-68833333D02*
X105579104Y-68833333D01*
X105579104Y-68833333D02*
X105721961Y-68880952D01*
X105721961Y-68880952D02*
X105817200Y-68976190D01*
X105817200Y-68976190D02*
X105864819Y-69119047D01*
X105864819Y-69119047D02*
X105864819Y-69214285D01*
X105864819Y-67833333D02*
X105864819Y-68404761D01*
X105864819Y-68119047D02*
X104864819Y-68119047D01*
X104864819Y-68119047D02*
X105007676Y-68214285D01*
X105007676Y-68214285D02*
X105102914Y-68309523D01*
X105102914Y-68309523D02*
X105150533Y-68404761D01*
X78848095Y-73414819D02*
X78848095Y-74224342D01*
X78848095Y-74224342D02*
X78895714Y-74319580D01*
X78895714Y-74319580D02*
X78943333Y-74367200D01*
X78943333Y-74367200D02*
X79038571Y-74414819D01*
X79038571Y-74414819D02*
X79229047Y-74414819D01*
X79229047Y-74414819D02*
X79324285Y-74367200D01*
X79324285Y-74367200D02*
X79371904Y-74319580D01*
X79371904Y-74319580D02*
X79419523Y-74224342D01*
X79419523Y-74224342D02*
X79419523Y-73414819D01*
X79848095Y-73510057D02*
X79895714Y-73462438D01*
X79895714Y-73462438D02*
X79990952Y-73414819D01*
X79990952Y-73414819D02*
X80229047Y-73414819D01*
X80229047Y-73414819D02*
X80324285Y-73462438D01*
X80324285Y-73462438D02*
X80371904Y-73510057D01*
X80371904Y-73510057D02*
X80419523Y-73605295D01*
X80419523Y-73605295D02*
X80419523Y-73700533D01*
X80419523Y-73700533D02*
X80371904Y-73843390D01*
X80371904Y-73843390D02*
X79800476Y-74414819D01*
X79800476Y-74414819D02*
X80419523Y-74414819D01*
X93763754Y-71699456D02*
X93191335Y-71598441D01*
X93359693Y-72103517D02*
X92652587Y-71396410D01*
X92652587Y-71396410D02*
X92921961Y-71127036D01*
X92921961Y-71127036D02*
X93022976Y-71093364D01*
X93022976Y-71093364D02*
X93090319Y-71093364D01*
X93090319Y-71093364D02*
X93191335Y-71127036D01*
X93191335Y-71127036D02*
X93292350Y-71228051D01*
X93292350Y-71228051D02*
X93326022Y-71329067D01*
X93326022Y-71329067D02*
X93326022Y-71396410D01*
X93326022Y-71396410D02*
X93292350Y-71497425D01*
X93292350Y-71497425D02*
X93022976Y-71766799D01*
X93662739Y-70386258D02*
X93528052Y-70520945D01*
X93528052Y-70520945D02*
X93494380Y-70621960D01*
X93494380Y-70621960D02*
X93494380Y-70689303D01*
X93494380Y-70689303D02*
X93528052Y-70857662D01*
X93528052Y-70857662D02*
X93629067Y-71026021D01*
X93629067Y-71026021D02*
X93898441Y-71295395D01*
X93898441Y-71295395D02*
X93999457Y-71329067D01*
X93999457Y-71329067D02*
X94066800Y-71329067D01*
X94066800Y-71329067D02*
X94167815Y-71295395D01*
X94167815Y-71295395D02*
X94302502Y-71160708D01*
X94302502Y-71160708D02*
X94336174Y-71059693D01*
X94336174Y-71059693D02*
X94336174Y-70992349D01*
X94336174Y-70992349D02*
X94302502Y-70891334D01*
X94302502Y-70891334D02*
X94134144Y-70722975D01*
X94134144Y-70722975D02*
X94033128Y-70689303D01*
X94033128Y-70689303D02*
X93965785Y-70689303D01*
X93965785Y-70689303D02*
X93864770Y-70722975D01*
X93864770Y-70722975D02*
X93730083Y-70857662D01*
X93730083Y-70857662D02*
X93696411Y-70958677D01*
X93696411Y-70958677D02*
X93696411Y-71026021D01*
X93696411Y-71026021D02*
X93730083Y-71127036D01*
X94553754Y-65579456D02*
X93981335Y-65478441D01*
X94149693Y-65983517D02*
X93442587Y-65276410D01*
X93442587Y-65276410D02*
X93711961Y-65007036D01*
X93711961Y-65007036D02*
X93812976Y-64973364D01*
X93812976Y-64973364D02*
X93880319Y-64973364D01*
X93880319Y-64973364D02*
X93981335Y-65007036D01*
X93981335Y-65007036D02*
X94082350Y-65108051D01*
X94082350Y-65108051D02*
X94116022Y-65209067D01*
X94116022Y-65209067D02*
X94116022Y-65276410D01*
X94116022Y-65276410D02*
X94082350Y-65377425D01*
X94082350Y-65377425D02*
X93812976Y-65646799D01*
X94183365Y-64670319D02*
X94183365Y-64602975D01*
X94183365Y-64602975D02*
X94217037Y-64501960D01*
X94217037Y-64501960D02*
X94385396Y-64333601D01*
X94385396Y-64333601D02*
X94486411Y-64299929D01*
X94486411Y-64299929D02*
X94553754Y-64299929D01*
X94553754Y-64299929D02*
X94654770Y-64333601D01*
X94654770Y-64333601D02*
X94722113Y-64400945D01*
X94722113Y-64400945D02*
X94789457Y-64535632D01*
X94789457Y-64535632D02*
X94789457Y-65343754D01*
X94789457Y-65343754D02*
X95227189Y-64906021D01*
X85658095Y-62714819D02*
X85658095Y-63524342D01*
X85658095Y-63524342D02*
X85705714Y-63619580D01*
X85705714Y-63619580D02*
X85753333Y-63667200D01*
X85753333Y-63667200D02*
X85848571Y-63714819D01*
X85848571Y-63714819D02*
X86039047Y-63714819D01*
X86039047Y-63714819D02*
X86134285Y-63667200D01*
X86134285Y-63667200D02*
X86181904Y-63619580D01*
X86181904Y-63619580D02*
X86229523Y-63524342D01*
X86229523Y-63524342D02*
X86229523Y-62714819D01*
X87229523Y-63714819D02*
X86658095Y-63714819D01*
X86943809Y-63714819D02*
X86943809Y-62714819D01*
X86943809Y-62714819D02*
X86848571Y-62857676D01*
X86848571Y-62857676D02*
X86753333Y-62952914D01*
X86753333Y-62952914D02*
X86658095Y-63000533D01*
X85026999Y-64595019D02*
X85026999Y-64833114D01*
X84788904Y-64737876D02*
X85026999Y-64833114D01*
X85026999Y-64833114D02*
X85265094Y-64737876D01*
X84884142Y-65023590D02*
X85026999Y-64833114D01*
X85026999Y-64833114D02*
X85169856Y-65023590D01*
X85026999Y-64595019D02*
X85026999Y-64833114D01*
X84788904Y-64737876D02*
X85026999Y-64833114D01*
X85026999Y-64833114D02*
X85265094Y-64737876D01*
X84884142Y-65023590D02*
X85026999Y-64833114D01*
X85026999Y-64833114D02*
X85169856Y-65023590D01*
X92690543Y-62363754D02*
X92791558Y-61791335D01*
X92286482Y-61959693D02*
X92993589Y-61252587D01*
X92993589Y-61252587D02*
X93262963Y-61521961D01*
X93262963Y-61521961D02*
X93296635Y-61622976D01*
X93296635Y-61622976D02*
X93296635Y-61690319D01*
X93296635Y-61690319D02*
X93262963Y-61791335D01*
X93262963Y-61791335D02*
X93161948Y-61892350D01*
X93161948Y-61892350D02*
X93060932Y-61926022D01*
X93060932Y-61926022D02*
X92993589Y-61926022D01*
X92993589Y-61926022D02*
X92892574Y-61892350D01*
X92892574Y-61892350D02*
X92623200Y-61622976D01*
X93768039Y-62498441D02*
X93296635Y-62969846D01*
X93869054Y-62060709D02*
X93195619Y-62397426D01*
X93195619Y-62397426D02*
X93633352Y-62835159D01*
X95613754Y-73249456D02*
X95041335Y-73148441D01*
X95209693Y-73653517D02*
X94502587Y-72946410D01*
X94502587Y-72946410D02*
X94771961Y-72677036D01*
X94771961Y-72677036D02*
X94872976Y-72643364D01*
X94872976Y-72643364D02*
X94940319Y-72643364D01*
X94940319Y-72643364D02*
X95041335Y-72677036D01*
X95041335Y-72677036D02*
X95142350Y-72778051D01*
X95142350Y-72778051D02*
X95176022Y-72879067D01*
X95176022Y-72879067D02*
X95176022Y-72946410D01*
X95176022Y-72946410D02*
X95142350Y-73047425D01*
X95142350Y-73047425D02*
X94872976Y-73316799D01*
X95142350Y-72306647D02*
X95613754Y-71835242D01*
X95613754Y-71835242D02*
X96017815Y-72845395D01*
X77253333Y-67809580D02*
X77205714Y-67857200D01*
X77205714Y-67857200D02*
X77062857Y-67904819D01*
X77062857Y-67904819D02*
X76967619Y-67904819D01*
X76967619Y-67904819D02*
X76824762Y-67857200D01*
X76824762Y-67857200D02*
X76729524Y-67761961D01*
X76729524Y-67761961D02*
X76681905Y-67666723D01*
X76681905Y-67666723D02*
X76634286Y-67476247D01*
X76634286Y-67476247D02*
X76634286Y-67333390D01*
X76634286Y-67333390D02*
X76681905Y-67142914D01*
X76681905Y-67142914D02*
X76729524Y-67047676D01*
X76729524Y-67047676D02*
X76824762Y-66952438D01*
X76824762Y-66952438D02*
X76967619Y-66904819D01*
X76967619Y-66904819D02*
X77062857Y-66904819D01*
X77062857Y-66904819D02*
X77205714Y-66952438D01*
X77205714Y-66952438D02*
X77253333Y-67000057D01*
X77586667Y-66904819D02*
X78205714Y-66904819D01*
X78205714Y-66904819D02*
X77872381Y-67285771D01*
X77872381Y-67285771D02*
X78015238Y-67285771D01*
X78015238Y-67285771D02*
X78110476Y-67333390D01*
X78110476Y-67333390D02*
X78158095Y-67381009D01*
X78158095Y-67381009D02*
X78205714Y-67476247D01*
X78205714Y-67476247D02*
X78205714Y-67714342D01*
X78205714Y-67714342D02*
X78158095Y-67809580D01*
X78158095Y-67809580D02*
X78110476Y-67857200D01*
X78110476Y-67857200D02*
X78015238Y-67904819D01*
X78015238Y-67904819D02*
X77729524Y-67904819D01*
X77729524Y-67904819D02*
X77634286Y-67857200D01*
X77634286Y-67857200D02*
X77586667Y-67809580D01*
X74957066Y-66772619D02*
X74957066Y-67486904D01*
X74957066Y-67486904D02*
X74909447Y-67629761D01*
X74909447Y-67629761D02*
X74814209Y-67725000D01*
X74814209Y-67725000D02*
X74671352Y-67772619D01*
X74671352Y-67772619D02*
X74576114Y-67772619D01*
X75861828Y-67105952D02*
X75861828Y-67772619D01*
X75623733Y-66725000D02*
X75385638Y-67439285D01*
X75385638Y-67439285D02*
X76004685Y-67439285D01*
X88589580Y-73561501D02*
X88637200Y-73609120D01*
X88637200Y-73609120D02*
X88684819Y-73751977D01*
X88684819Y-73751977D02*
X88684819Y-73847215D01*
X88684819Y-73847215D02*
X88637200Y-73990072D01*
X88637200Y-73990072D02*
X88541961Y-74085310D01*
X88541961Y-74085310D02*
X88446723Y-74132929D01*
X88446723Y-74132929D02*
X88256247Y-74180548D01*
X88256247Y-74180548D02*
X88113390Y-74180548D01*
X88113390Y-74180548D02*
X87922914Y-74132929D01*
X87922914Y-74132929D02*
X87827676Y-74085310D01*
X87827676Y-74085310D02*
X87732438Y-73990072D01*
X87732438Y-73990072D02*
X87684819Y-73847215D01*
X87684819Y-73847215D02*
X87684819Y-73751977D01*
X87684819Y-73751977D02*
X87732438Y-73609120D01*
X87732438Y-73609120D02*
X87780057Y-73561501D01*
X87780057Y-73180548D02*
X87732438Y-73132929D01*
X87732438Y-73132929D02*
X87684819Y-73037691D01*
X87684819Y-73037691D02*
X87684819Y-72799596D01*
X87684819Y-72799596D02*
X87732438Y-72704358D01*
X87732438Y-72704358D02*
X87780057Y-72656739D01*
X87780057Y-72656739D02*
X87875295Y-72609120D01*
X87875295Y-72609120D02*
X87970533Y-72609120D01*
X87970533Y-72609120D02*
X88113390Y-72656739D01*
X88113390Y-72656739D02*
X88684819Y-73228167D01*
X88684819Y-73228167D02*
X88684819Y-72609120D01*
X93873333Y-68544819D02*
X93540000Y-68068628D01*
X93301905Y-68544819D02*
X93301905Y-67544819D01*
X93301905Y-67544819D02*
X93682857Y-67544819D01*
X93682857Y-67544819D02*
X93778095Y-67592438D01*
X93778095Y-67592438D02*
X93825714Y-67640057D01*
X93825714Y-67640057D02*
X93873333Y-67735295D01*
X93873333Y-67735295D02*
X93873333Y-67878152D01*
X93873333Y-67878152D02*
X93825714Y-67973390D01*
X93825714Y-67973390D02*
X93778095Y-68021009D01*
X93778095Y-68021009D02*
X93682857Y-68068628D01*
X93682857Y-68068628D02*
X93301905Y-68068628D01*
X94825714Y-68544819D02*
X94254286Y-68544819D01*
X94540000Y-68544819D02*
X94540000Y-67544819D01*
X94540000Y-67544819D02*
X94444762Y-67687676D01*
X94444762Y-67687676D02*
X94349524Y-67782914D01*
X94349524Y-67782914D02*
X94254286Y-67830533D01*
X95840543Y-67243754D02*
X95941558Y-66671335D01*
X95436482Y-66839693D02*
X96143589Y-66132587D01*
X96143589Y-66132587D02*
X96412963Y-66401961D01*
X96412963Y-66401961D02*
X96446635Y-66502976D01*
X96446635Y-66502976D02*
X96446635Y-66570319D01*
X96446635Y-66570319D02*
X96412963Y-66671335D01*
X96412963Y-66671335D02*
X96311948Y-66772350D01*
X96311948Y-66772350D02*
X96210932Y-66806022D01*
X96210932Y-66806022D02*
X96143589Y-66806022D01*
X96143589Y-66806022D02*
X96042574Y-66772350D01*
X96042574Y-66772350D02*
X95773200Y-66502976D01*
X96783352Y-66772350D02*
X97221085Y-67210083D01*
X97221085Y-67210083D02*
X96716009Y-67243754D01*
X96716009Y-67243754D02*
X96817024Y-67344770D01*
X96817024Y-67344770D02*
X96850696Y-67445785D01*
X96850696Y-67445785D02*
X96850696Y-67513128D01*
X96850696Y-67513128D02*
X96817024Y-67614144D01*
X96817024Y-67614144D02*
X96648665Y-67782502D01*
X96648665Y-67782502D02*
X96547650Y-67816174D01*
X96547650Y-67816174D02*
X96480306Y-67816174D01*
X96480306Y-67816174D02*
X96379291Y-67782502D01*
X96379291Y-67782502D02*
X96177261Y-67580472D01*
X96177261Y-67580472D02*
X96143589Y-67479457D01*
X96143589Y-67479457D02*
X96143589Y-67412113D01*
D11*
%TO.C,C1*%
X90341564Y-69642400D02*
X90557236Y-69642400D01*
X90341564Y-70362400D02*
X90557236Y-70362400D01*
%TO.C,U2*%
X74519000Y-68276600D02*
X74519000Y-72896600D01*
X74519000Y-68276600D02*
X84739000Y-68276600D01*
X74519000Y-69656600D02*
X84739000Y-69656600D01*
X74519000Y-72896600D02*
X84739000Y-72896600D01*
X77779000Y-68276600D02*
X77779000Y-69656600D01*
X81479000Y-68276600D02*
X81479000Y-69656600D01*
X84739000Y-68276600D02*
X84739000Y-72896600D01*
D12*
%TO.C,U1*%
X85839799Y-64263200D02*
X85839799Y-64680460D01*
X85839799Y-68099940D02*
X85839799Y-68517200D01*
X85839799Y-68517200D02*
X86257059Y-68517200D01*
X86257059Y-64263200D02*
X85839799Y-64263200D01*
X89676539Y-68517200D02*
X90093799Y-68517200D01*
X90093799Y-64263200D02*
X89676539Y-64263200D01*
X90093799Y-64680460D02*
X90093799Y-64263200D01*
X90093799Y-68517200D02*
X90093799Y-68099940D01*
D13*
G36*
X88407299Y-69203001D02*
G01*
X88026298Y-69203001D01*
X88026298Y-68949001D01*
X88407299Y-68949001D01*
X88407299Y-69203001D01*
G37*
G36*
X88907300Y-63831399D02*
G01*
X88526300Y-63831399D01*
X88526300Y-63577399D01*
X88907300Y-63577399D01*
X88907300Y-63831399D01*
G37*
D11*
%TO.C,C3*%
X74348265Y-67000800D02*
X74579935Y-67000800D01*
X74348265Y-67720800D02*
X74579935Y-67720800D01*
%TO.C,J4*%
X73910400Y-63667800D02*
X73910401Y-55937800D01*
X76670399Y-55937800D02*
X73910401Y-55937800D01*
X76670399Y-64937800D02*
X76670400Y-66317800D01*
X76670400Y-63667800D02*
X73910400Y-63667800D01*
X76670400Y-63667800D02*
X76670399Y-55937800D01*
X76670400Y-66317800D02*
X75290400Y-66317799D01*
%TO.C,C2*%
X85771400Y-73163165D02*
X85771400Y-73394835D01*
X86491400Y-73163165D02*
X86491400Y-73394835D01*
%TD*%
M02*
