%TF.GenerationSoftware,KiCad,Pcbnew,9.0.2*%
%TF.CreationDate,2026-04-04T19:11:50-05:00*%
%TF.ProjectId,board,626f6172-642e-46b6-9963-61645f706362,rev?*%
%TF.SameCoordinates,Original*%
%TF.FileFunction,Copper,L3,Inr*%
%TF.FilePolarity,Positive*%
%FSLAX46Y46*%
G04 Gerber Fmt 4.6, Leading zero omitted, Abs format (unit mm)*
G04 Created by KiCad (PCBNEW 9.0.2) date 2026-04-04 19:11:50*
%MOMM*%
%LPD*%
G01*
G04 APERTURE LIST*
%TA.AperFunction,ComponentPad*%
%ADD10C,0.657200*%
%TD*%
%TA.AperFunction,ComponentPad*%
%ADD11R,1.905000X2.000000*%
%TD*%
%TA.AperFunction,ComponentPad*%
%ADD12O,1.905000X2.000000*%
%TD*%
%TA.AperFunction,ComponentPad*%
%ADD13R,1.700000X1.700000*%
%TD*%
%TA.AperFunction,ComponentPad*%
%ADD14C,1.700000*%
%TD*%
%TA.AperFunction,ViaPad*%
%ADD15C,0.600000*%
%TD*%
G04 APERTURE END LIST*
D10*
%TO.N,GND*%
%TO.C,J3*%
X113385600Y-58572400D03*
X110845600Y-58369199D03*
X109575600Y-58369200D03*
X108305600Y-58572400D03*
X108305600Y-60706000D03*
X109575600Y-60909200D03*
X110845600Y-60909201D03*
X112115600Y-60909200D03*
X113385600Y-60706000D03*
%TD*%
%TO.N,GND*%
%TO.C,J1*%
X113360200Y-70053201D03*
X110820200Y-69850000D03*
X109550200Y-69850001D03*
X108280200Y-70053201D03*
X108280200Y-72186801D03*
X109550200Y-72390001D03*
X110820200Y-72390002D03*
X112090200Y-72390001D03*
X113360200Y-72186801D03*
%TD*%
D11*
%TO.N,VCC*%
%TO.C,U2*%
X77089000Y-71536600D03*
D12*
%TO.N,GND*%
X79629000Y-71536600D03*
%TO.N,Net-(U1-VCC)*%
X82169000Y-71536600D03*
%TD*%
D13*
%TO.N,GND*%
%TO.C,J4*%
X75290400Y-64937800D03*
D14*
X75290400Y-62397800D03*
%TO.N,VCC*%
X75290400Y-59857801D03*
%TO.N,VCCQ*%
X75290400Y-57317800D03*
%TD*%
D15*
%TO.N,GND*%
X99441000Y-63423800D03*
X99480000Y-72510000D03*
X105380000Y-69890000D03*
X106781600Y-58191400D03*
X88436799Y-67160200D03*
X110970000Y-66490000D03*
X94251073Y-62974927D03*
X89941400Y-61747400D03*
X91485600Y-65395600D03*
X84048600Y-63017400D03*
X107416600Y-76047600D03*
X100700000Y-69910000D03*
X88796799Y-65870200D03*
X87436799Y-65560200D03*
X112242600Y-76098400D03*
X100355400Y-58953400D03*
X105867200Y-60909200D03*
X98580000Y-68980000D03*
X104038400Y-58191400D03*
X94479673Y-70391727D03*
X113220000Y-66330000D03*
X103124000Y-58394600D03*
X107220000Y-66700000D03*
X98348800Y-64490600D03*
X103740000Y-69840000D03*
X98933000Y-64008000D03*
X113258600Y-76250800D03*
X101480000Y-69840000D03*
X91414600Y-63703200D03*
X106832400Y-55575200D03*
X101600000Y-58293000D03*
X106832400Y-57251600D03*
X100203000Y-62712600D03*
X101480000Y-72440000D03*
X103190000Y-72360000D03*
X91084400Y-62966600D03*
X106380000Y-69910000D03*
X99240000Y-69480000D03*
X112190000Y-66390000D03*
X98094800Y-61366400D03*
X102006400Y-61061600D03*
X93726000Y-65379600D03*
X102190000Y-69890000D03*
X85680000Y-69040000D03*
X97990000Y-68440000D03*
X96820000Y-67390000D03*
X107060000Y-68740000D03*
X108585000Y-64668400D03*
X105000000Y-72310000D03*
X106730800Y-61849000D03*
X97410000Y-67930000D03*
X106730800Y-62585600D03*
X96029073Y-61577927D03*
X99542600Y-59639200D03*
X106070400Y-58445400D03*
X105029000Y-58420000D03*
X75996800Y-67386200D03*
X91998800Y-70942200D03*
X113385600Y-64719200D03*
X87325200Y-74447400D03*
X83515200Y-68173600D03*
X87196799Y-66860200D03*
X98580000Y-72390000D03*
X84750000Y-70020000D03*
X107070000Y-72410000D03*
X100863400Y-62484000D03*
X107289600Y-64668400D03*
X91485600Y-68395600D03*
X100440000Y-72510000D03*
X106680000Y-63804800D03*
X99960000Y-69790000D03*
X106030000Y-72390000D03*
X94107000Y-68097400D03*
X86131400Y-75031600D03*
X102980000Y-69890000D03*
X104130000Y-72380000D03*
X106807000Y-60960000D03*
X98755200Y-60375800D03*
X97891600Y-65227200D03*
X96333873Y-71788727D03*
X101422200Y-61722000D03*
X108250000Y-66460000D03*
X92557600Y-67843400D03*
X96250000Y-66770000D03*
X105054400Y-60934600D03*
X102360000Y-72430000D03*
X92550000Y-65450000D03*
X110642400Y-76098400D03*
X97002600Y-66090800D03*
X110921800Y-64643000D03*
X109650000Y-66440000D03*
X103632000Y-60833000D03*
X104600000Y-69890000D03*
X112141000Y-64643000D03*
X109397800Y-76149200D03*
X107010000Y-67710000D03*
X90525600Y-68808600D03*
X108585000Y-76174600D03*
X92100400Y-69748400D03*
X106959400Y-56388000D03*
X97870000Y-72030000D03*
X109728000Y-64592200D03*
%TD*%
%TA.AperFunction,Conductor*%
%TO.N,GND*%
G36*
X113745939Y-55020185D02*
G01*
X113791694Y-55072989D01*
X113802900Y-55124500D01*
X113802900Y-76875500D01*
X113783215Y-76942539D01*
X113730411Y-76988294D01*
X113678900Y-76999500D01*
X71624500Y-76999500D01*
X71557461Y-76979815D01*
X71511706Y-76927011D01*
X71500500Y-76875500D01*
X71500500Y-70488735D01*
X75636000Y-70488735D01*
X75636000Y-72584470D01*
X75636001Y-72584476D01*
X75642408Y-72644083D01*
X75692702Y-72778928D01*
X75692706Y-72778935D01*
X75778952Y-72894144D01*
X75778955Y-72894147D01*
X75894164Y-72980393D01*
X75894171Y-72980397D01*
X76029017Y-73030691D01*
X76029016Y-73030691D01*
X76035944Y-73031435D01*
X76088627Y-73037100D01*
X78089372Y-73037099D01*
X78148983Y-73030691D01*
X78283831Y-72980396D01*
X78399046Y-72894146D01*
X78485296Y-72778931D01*
X78495872Y-72750574D01*
X78537740Y-72694641D01*
X78603204Y-72670222D01*
X78671477Y-72685072D01*
X78684940Y-72693588D01*
X78867723Y-72826388D01*
X79071429Y-72930182D01*
X79288871Y-73000834D01*
X79379000Y-73015109D01*
X79379000Y-72027347D01*
X79416708Y-72049118D01*
X79556591Y-72086600D01*
X79701409Y-72086600D01*
X79841292Y-72049118D01*
X79879000Y-72027347D01*
X79879000Y-73015108D01*
X79969128Y-73000834D01*
X80186570Y-72930182D01*
X80390276Y-72826388D01*
X80575242Y-72692002D01*
X80736905Y-72530339D01*
X80798371Y-72445737D01*
X80853701Y-72403070D01*
X80923314Y-72397091D01*
X80985109Y-72429696D01*
X80999007Y-72445734D01*
X81060714Y-72530666D01*
X81222434Y-72692386D01*
X81407462Y-72826817D01*
X81539599Y-72894144D01*
X81611244Y-72930649D01*
X81828751Y-73001321D01*
X81828752Y-73001321D01*
X81828755Y-73001322D01*
X82054646Y-73037100D01*
X82054647Y-73037100D01*
X82283353Y-73037100D01*
X82283354Y-73037100D01*
X82509245Y-73001322D01*
X82509248Y-73001321D01*
X82509249Y-73001321D01*
X82726755Y-72930649D01*
X82726755Y-72930648D01*
X82726758Y-72930648D01*
X82930538Y-72826817D01*
X83115566Y-72692386D01*
X83277286Y-72530666D01*
X83411717Y-72345638D01*
X83515548Y-72141858D01*
X83586222Y-71924345D01*
X83622000Y-71698454D01*
X83622000Y-71374746D01*
X83586222Y-71148855D01*
X83586221Y-71148851D01*
X83586221Y-71148850D01*
X83515549Y-70931344D01*
X83411716Y-70727561D01*
X83374333Y-70676108D01*
X83277286Y-70542534D01*
X83115566Y-70380814D01*
X82930538Y-70246383D01*
X82726755Y-70142550D01*
X82509248Y-70071878D01*
X82323812Y-70042508D01*
X82283354Y-70036100D01*
X82054646Y-70036100D01*
X82014188Y-70042508D01*
X81828753Y-70071878D01*
X81828750Y-70071878D01*
X81611244Y-70142550D01*
X81407461Y-70246383D01*
X81341550Y-70294271D01*
X81222434Y-70380814D01*
X81222432Y-70380816D01*
X81222431Y-70380816D01*
X81060716Y-70542531D01*
X81060709Y-70542540D01*
X80999007Y-70627464D01*
X80943677Y-70670130D01*
X80874063Y-70676108D01*
X80812269Y-70643501D01*
X80798372Y-70627463D01*
X80736907Y-70542863D01*
X80736902Y-70542857D01*
X80575242Y-70381197D01*
X80390276Y-70246811D01*
X80186568Y-70143017D01*
X79969124Y-70072365D01*
X79879000Y-70058090D01*
X79879000Y-71045852D01*
X79841292Y-71024082D01*
X79701409Y-70986600D01*
X79556591Y-70986600D01*
X79416708Y-71024082D01*
X79379000Y-71045852D01*
X79379000Y-70058090D01*
X79378999Y-70058090D01*
X79288875Y-70072365D01*
X79071431Y-70143017D01*
X78867719Y-70246813D01*
X78684939Y-70379610D01*
X78619132Y-70403090D01*
X78551079Y-70387264D01*
X78502384Y-70337158D01*
X78495875Y-70322633D01*
X78485296Y-70294269D01*
X78485295Y-70294267D01*
X78485293Y-70294264D01*
X78399047Y-70179055D01*
X78399044Y-70179052D01*
X78283835Y-70092806D01*
X78283828Y-70092802D01*
X78148982Y-70042508D01*
X78148983Y-70042508D01*
X78089383Y-70036101D01*
X78089381Y-70036100D01*
X78089373Y-70036100D01*
X78089364Y-70036100D01*
X76088629Y-70036100D01*
X76088623Y-70036101D01*
X76029016Y-70042508D01*
X75894171Y-70092802D01*
X75894164Y-70092806D01*
X75778955Y-70179052D01*
X75778952Y-70179055D01*
X75692706Y-70294264D01*
X75692702Y-70294271D01*
X75642408Y-70429117D01*
X75636001Y-70488716D01*
X75636000Y-70488735D01*
X71500500Y-70488735D01*
X71500500Y-57211513D01*
X73939900Y-57211513D01*
X73939900Y-57424086D01*
X73973153Y-57634039D01*
X74038844Y-57836214D01*
X74135351Y-58025620D01*
X74260290Y-58197586D01*
X74410613Y-58347909D01*
X74582579Y-58472848D01*
X74582581Y-58472849D01*
X74582584Y-58472851D01*
X74591345Y-58477314D01*
X74642141Y-58525288D01*
X74658937Y-58593108D01*
X74636401Y-58659244D01*
X74591350Y-58698282D01*
X74582587Y-58702747D01*
X74582584Y-58702749D01*
X74410613Y-58827691D01*
X74260290Y-58978014D01*
X74135351Y-59149980D01*
X74038844Y-59339386D01*
X73973153Y-59541561D01*
X73939900Y-59751514D01*
X73939900Y-59964087D01*
X73973153Y-60174040D01*
X74038844Y-60376215D01*
X74135351Y-60565621D01*
X74260290Y-60737587D01*
X74410613Y-60887910D01*
X74582579Y-61012849D01*
X74582581Y-61012850D01*
X74582584Y-61012852D01*
X74591891Y-61017594D01*
X74591895Y-61017596D01*
X74642691Y-61065570D01*
X74659486Y-61133391D01*
X74636949Y-61199526D01*
X74591901Y-61238563D01*
X74582840Y-61243180D01*
X74528682Y-61282527D01*
X74528682Y-61282528D01*
X75160991Y-61914837D01*
X75097407Y-61931875D01*
X74983393Y-61997701D01*
X74890301Y-62090793D01*
X74824475Y-62204807D01*
X74807437Y-62268391D01*
X74175128Y-61636082D01*
X74175127Y-61636082D01*
X74135780Y-61690239D01*
X74039304Y-61879582D01*
X73973642Y-62081669D01*
X73973642Y-62081672D01*
X73940400Y-62291553D01*
X73940400Y-62504046D01*
X73973642Y-62713927D01*
X73973642Y-62713930D01*
X74039304Y-62916017D01*
X74135775Y-63105350D01*
X74175128Y-63159516D01*
X74807437Y-62527208D01*
X74824475Y-62590793D01*
X74890301Y-62704807D01*
X74983393Y-62797899D01*
X75097407Y-62863725D01*
X75160990Y-62880762D01*
X74491595Y-63550156D01*
X74430272Y-63583641D01*
X74415567Y-63582724D01*
X74415844Y-63585297D01*
X74333026Y-63594201D01*
X74333019Y-63594203D01*
X74198313Y-63644445D01*
X74198306Y-63644449D01*
X74083212Y-63730609D01*
X74083209Y-63730612D01*
X73997049Y-63845706D01*
X73997045Y-63845713D01*
X73946803Y-63980420D01*
X73946801Y-63980427D01*
X73940400Y-64039955D01*
X73940400Y-64687800D01*
X74857388Y-64687800D01*
X74824475Y-64744807D01*
X74790400Y-64871974D01*
X74790400Y-65003626D01*
X74824475Y-65130793D01*
X74857388Y-65187800D01*
X73940400Y-65187800D01*
X73940400Y-65835644D01*
X73946801Y-65895172D01*
X73946803Y-65895179D01*
X73997045Y-66029886D01*
X73997049Y-66029893D01*
X74083209Y-66144987D01*
X74083212Y-66144990D01*
X74198306Y-66231150D01*
X74198313Y-66231154D01*
X74333020Y-66281396D01*
X74333027Y-66281398D01*
X74392555Y-66287799D01*
X74392572Y-66287800D01*
X75040400Y-66287800D01*
X75040400Y-65370812D01*
X75097407Y-65403725D01*
X75224574Y-65437800D01*
X75356226Y-65437800D01*
X75483393Y-65403725D01*
X75540400Y-65370812D01*
X75540400Y-66287800D01*
X76188228Y-66287800D01*
X76188244Y-66287799D01*
X76247772Y-66281398D01*
X76247779Y-66281396D01*
X76382486Y-66231154D01*
X76382493Y-66231150D01*
X76497587Y-66144990D01*
X76497590Y-66144987D01*
X76583750Y-66029893D01*
X76583754Y-66029886D01*
X76633996Y-65895179D01*
X76633998Y-65895172D01*
X76640399Y-65835644D01*
X76640400Y-65835627D01*
X76640400Y-65187800D01*
X75723412Y-65187800D01*
X75756325Y-65130793D01*
X75790400Y-65003626D01*
X75790400Y-64871974D01*
X75756325Y-64744807D01*
X75723412Y-64687800D01*
X76640400Y-64687800D01*
X76640400Y-64039972D01*
X76640399Y-64039955D01*
X76633998Y-63980427D01*
X76633996Y-63980420D01*
X76583754Y-63845713D01*
X76583750Y-63845706D01*
X76497590Y-63730612D01*
X76497587Y-63730609D01*
X76382493Y-63644449D01*
X76382486Y-63644445D01*
X76247780Y-63594203D01*
X76247773Y-63594201D01*
X76164955Y-63585297D01*
X76165284Y-63582231D01*
X76148275Y-63583130D01*
X76089203Y-63550156D01*
X75419808Y-62880762D01*
X75483393Y-62863725D01*
X75597407Y-62797899D01*
X75690499Y-62704807D01*
X75756325Y-62590793D01*
X75773362Y-62527208D01*
X76405670Y-63159517D01*
X76405670Y-63159516D01*
X76445022Y-63105354D01*
X76541495Y-62916017D01*
X76607157Y-62713930D01*
X76607157Y-62713927D01*
X76640400Y-62504046D01*
X76640400Y-62291553D01*
X76607157Y-62081672D01*
X76607157Y-62081669D01*
X76541495Y-61879582D01*
X76445024Y-61690249D01*
X76405670Y-61636082D01*
X76405669Y-61636082D01*
X75773362Y-62268390D01*
X75756325Y-62204807D01*
X75690499Y-62090793D01*
X75597407Y-61997701D01*
X75483393Y-61931875D01*
X75419809Y-61914837D01*
X76052116Y-61282528D01*
X75997947Y-61243173D01*
X75997948Y-61243173D01*
X75988905Y-61238566D01*
X75938108Y-61190592D01*
X75921313Y-61122771D01*
X75943850Y-61056636D01*
X75988906Y-61017595D01*
X75998216Y-61012852D01*
X76020189Y-60996887D01*
X76170186Y-60887910D01*
X76170188Y-60887907D01*
X76170192Y-60887905D01*
X76320504Y-60737593D01*
X76320506Y-60737589D01*
X76320509Y-60737587D01*
X76445448Y-60565621D01*
X76445447Y-60565621D01*
X76445451Y-60565617D01*
X76541957Y-60376213D01*
X76607646Y-60174044D01*
X76640900Y-59964088D01*
X76640900Y-59751514D01*
X76607646Y-59541558D01*
X76541957Y-59339389D01*
X76445451Y-59149985D01*
X76445449Y-59149982D01*
X76445448Y-59149980D01*
X76320509Y-58978014D01*
X76170186Y-58827691D01*
X75998217Y-58702750D01*
X75989452Y-58698284D01*
X75938657Y-58650309D01*
X75921862Y-58582488D01*
X75944400Y-58516353D01*
X75989456Y-58477314D01*
X75998216Y-58472851D01*
X75998218Y-58472849D01*
X75998221Y-58472848D01*
X76170186Y-58347909D01*
X76170188Y-58347906D01*
X76170192Y-58347904D01*
X76320504Y-58197592D01*
X76320506Y-58197588D01*
X76320509Y-58197586D01*
X76445448Y-58025620D01*
X76445447Y-58025620D01*
X76445451Y-58025616D01*
X76541957Y-57836212D01*
X76607646Y-57634043D01*
X76640900Y-57424087D01*
X76640900Y-57211513D01*
X76607646Y-57001557D01*
X76541957Y-56799388D01*
X76445451Y-56609984D01*
X76445449Y-56609981D01*
X76445448Y-56609979D01*
X76320509Y-56438013D01*
X76170186Y-56287690D01*
X75998220Y-56162751D01*
X75808814Y-56066244D01*
X75808813Y-56066243D01*
X75808812Y-56066243D01*
X75606643Y-56000554D01*
X75606641Y-56000553D01*
X75606640Y-56000553D01*
X75445357Y-55975008D01*
X75396687Y-55967300D01*
X75184113Y-55967300D01*
X75135442Y-55975008D01*
X74974160Y-56000553D01*
X74771985Y-56066244D01*
X74582579Y-56162751D01*
X74410613Y-56287690D01*
X74260290Y-56438013D01*
X74135351Y-56609979D01*
X74038844Y-56799385D01*
X73973153Y-57001560D01*
X73939900Y-57211513D01*
X71500500Y-57211513D01*
X71500500Y-55124500D01*
X71520185Y-55057461D01*
X71572989Y-55011706D01*
X71624500Y-55000500D01*
X113678900Y-55000500D01*
X113745939Y-55020185D01*
G37*
%TD.AperFunction*%
%TD*%
M02*
