M48
;Layer_Color=9474304
;FILE_FORMAT=2:5
INCH
;TYPE=PLATED
T01F00S00C0.01500
T02F00S00C0.01800
T03F00S00C0.04331
T04F00S00C0.14173
%
T01
X0469794Y0294931
X0477294
X0484794
X0483327Y0301817
X0475827
X0468327
X0460827
X0453327
X0445827
X0438327
X0439794Y0294931
X0447294
X0454794
X0462294
X0424794
X0417294
X0409794
X0402294
X0394794
X0387294
X0379794
X0372294
X0370827Y0301817
X0378327
X0385827
X0393327
X0400827
X0408327
X0415827
X0423327
X0423500Y0272000
X0408000Y0266000
X0400000Y0257000
X0398500Y0252500
X0401500Y0243000
X0394000Y0234000
X0403500Y0222500
X0409500Y0221500
X0420500Y0215000
X0420000Y0206500
X0403500Y0205500
X0393500Y0210000
X0372500
X0361500Y0215500
X0360273Y0222074
X0362635Y0229192
X0365164Y0236253
X0365280Y0249381
X0359047Y0248085
X0352180Y0249200
X0352696Y0256682
X0362422Y0256315
X0364500Y0268500
X0357000Y0275500
X0348783Y0282850
X0346217Y0285283
X0343783Y0282850
Y0287850
X0348783
Y0293284
X0346217Y0295717
X0343783Y0293284
Y0298284
X0348783
X0338350
X0333350
Y0293284
X0335784Y0295717
X0338350Y0293284
Y0287850
X0333350
Y0282850
X0335784Y0285283
X0338350Y0282850
X0338009Y0275738
X0337970Y0268238
X0334904Y0261393
X0343778Y0259888
X0347393Y0261986
X0338853Y0254232
X0341168Y0247098
X0340164Y0236253
X0333518Y0238089
X0327238Y0236580
X0324971Y0229431
X0317471Y0229414
X0316570Y0221677
X0315509Y0211951
X0314887Y0204477
X0317978Y0197643
X0325025Y0195077
X0326230Y0187674
X0319197Y0185070
X0322531Y0214586
X0330031
X0332262Y0207425
X0338499Y0203260
X0344392Y0207899
X0347641Y0214658
X0346014Y0222360
X0338776Y0220394
X0332152Y0223840
X0337248Y0229343
X0352842Y0225463
X0354861Y0232687
X0351328Y0239302
X0354775Y0216972
X0355000Y0206000
X0356500Y0198000
X0373500Y0228500
X0385500Y0247000
X0422500Y0244500
X0425092Y0251550
X0430500Y0248000
X0429000Y0235500
X0435500Y0225000
X0448000Y0218500
X0454500Y0210000
X0461500Y0199000
X0446500Y0198500
X0455000Y0233500
X0450000Y0241000
X0436000Y0259500
X0417500Y0255500
X0397500Y0278000
X0371000
X0357467Y0292950
X0355827Y0301817
X0363327Y0301817
X0338097Y0307950
X0337998Y0311908
X0330223Y0306650
X0317102Y0301266
X0320190Y0293491
X0312690
X0317547Y0287486
X0325047
X0323082Y0275649
X0330234Y0273944
X0329054Y0266538
X0323750Y0261234
X0318447Y0255931
X0313144Y0250628
X0313691Y0240180
X0318994Y0245483
X0324297Y0250787
X0327275Y0249679
X0329601Y0256090
X0316126Y0279712
X0308626
X0301126
X0293626
X0286343Y0277922
X0281040Y0272618
X0275682Y0267370
X0268529Y0265113
X0261029
X0253807Y0263089
X0246324Y0262589
X0239262Y0265113
X0231762
X0224261
X0216761
X0220408Y0272887
X0227908
X0235408
X0238996Y0279473
X0245743Y0282750
X0253242Y0282643
X0260223Y0279901
X0262879Y0272887
X0270377Y0273061
X0275735Y0278308
X0281038Y0283612
X0287548Y0287336
X0295047Y0287486
X0302547
X0310047
X0305190Y0293491
X0297690
X0290190
X0283069Y0295846
X0277748Y0301131
X0272445Y0306434
X0265135Y0308113
X0257635Y0308207
X0251068Y0304586
X0243675Y0305847
X0236525Y0308113
X0229025
X0221525
X0214103Y0307037
X0204000Y0305000
X0195500Y0308000
X0195000Y0273000
Y0265000
X0205000Y0262500
X0202500Y0276000
X0213047Y0274325
X0213228Y0231266
X0220600Y0229887
X0228100
X0235600
X0242799Y0231990
X0248325Y0237062
X0254873Y0233405
X0261497Y0229887
X0268997
X0276497
X0283997
X0291497
X0290553Y0222113
X0290553Y0218513
X0297875Y0220135
X0297716Y0224335
X0303826Y0224700
X0303084Y0229573
X0309983Y0228983
X0308387Y0234877
X0307840Y0245325
X0302537Y0240021
X0297234Y0234718
X0297658Y0212263
X0304685Y0214884
X0307113Y0210852
Y0203352
X0303282Y0196904
X0296537Y0193626
X0297650Y0186209
X0305116Y0186922
X0280999Y0185068
X0281571Y0195915
X0275553Y0200391
X0274914Y0207864
X0267140Y0207500
X0266266Y0200051
X0271247Y0196365
X0260043Y0195865
X0261392Y0185061
X0260553Y0222113
X0268053
X0275553
X0283053
X0281076Y0212140
X0285671Y0206212
X0293171Y0206254
X0310146Y0220025
X0270042Y0214416
X0253055Y0222251
X0245555Y0222355
X0238059Y0222113
X0230559
X0223059
X0215560Y0222009
X0204500Y0219500
X0195500Y0222000
Y0230000
X0202000Y0233000
X0287230Y0302643
X0294602Y0301266
X0302102
X0309602
X0298061Y0309939
X0281927Y0307947
X0276610Y0313237
X0269594Y0315887
X0262094
X0258847Y0322648
X0252006Y0325721
X0244506Y0325715
X0236242Y0315887
X0228742
X0221242
X0213837Y0317073
X0202500Y0319500
X0195500Y0316000
X0194500Y0351000
Y0359500
X0203500Y0362000
X0212895Y0360370
X0220248Y0358887
X0227748
X0235247
X0241883Y0362383
X0249066Y0365994
X0254052Y0360392
X0261400Y0358887
X0268900
X0276400
X0283900
X0291400
X0292130Y0351061
X0284631Y0351113
X0277131
X0269631
X0262131
X0254631
X0247498Y0353431
X0240365Y0351113
X0232865
X0225365
X0217865
X0210505Y0349673
X0203500Y0348000
X0277158Y0368159
X0284502Y0366640
X0291991Y0367057
X0299478Y0366625
X0305874Y0362707
X0311202Y0357429
X0308987Y0345524
X0303684Y0350827
X0298371Y0356121
X0297351Y0345676
X0302893Y0340623
X0308196Y0335319
X0309408Y0370136
X0302895Y0373854
X0295615Y0375659
X0293020Y0382696
X0290464Y0387376
X0289348Y0394792
X0281883Y0394076
X0283719Y0384098
X0279887Y0377650
X0272399Y0373956
X0270989Y0381322
X0264467Y0385026
X0260525Y0391406
X0267796Y0395930
X0304660Y0395769
X0306782Y0385112
X0311870Y0379602
X0320175Y0379749
X0320838Y0372279
X0327237Y0376190
X0330341Y0383018
X0325448Y0385082
X0327122Y0395843
X0337818Y0382425
X0340103Y0375282
X0344706Y0369360
X0345128Y0361586
X0337630Y0361727
X0330130Y0361821
X0334328Y0356630
X0337320Y0349753
X0348732Y0350389
X0351361Y0357413
X0359135Y0355780
X0357649Y0363131
X0352115Y0368193
X0362462Y0349058
X0361708Y0337255
X0358570Y0330443
X0352682Y0325798
X0353000Y0316000
X0338097Y0315450
X0335462Y0318966
X0335241Y0322385
X0330200Y0324311
X0329938Y0327689
X0324897Y0329614
X0326188Y0334184
X0319594Y0334917
X0323150Y0341041
X0314290Y0340220
X0313500Y0330016
X0318803Y0324713
X0324106Y0319409
X0329410Y0314106
X0338684Y0329938
X0343815Y0329166
X0349986Y0333428
X0347828Y0340611
X0337044Y0337256
X0330132Y0343781
X0324016Y0350199
X0318327Y0355086
X0314727Y0364848
X0365967Y0387533
X0362000Y0395500
X0400000Y0384500
X0408000Y0366000
X0420000Y0367500
Y0372000
X0419967Y0377033
X0429500Y0383000
X0439119Y0363433
Y0358433
X0441847Y0360933
X0444619Y0358433
Y0363433
X0447000Y0368500
X0442000Y0349000
X0431119Y0349619
X0412000Y0351000
X0444000Y0339000
X0461000Y0333500
X0480500Y0353500
X0483000Y0361500
X0488500Y0370500
T02
X0493280Y0294174
X0498279Y0293374
X0503279
X0508280
X0513279Y0294174
Y0302574
X0508280Y0303374
X0503279
X0498279
X0493280Y0302574
X0188500Y0307800
X0183500Y0307000
X0178500
X0173500
X0168500Y0307800
Y0273200
X0173500Y0274000
X0178500
X0183500
X0188500Y0273200
Y0264800
X0183500Y0264000
X0178500
X0173500
X0168500Y0264800
Y0230200
X0173500Y0231000
X0178500
X0183500
X0188500Y0230200
Y0221800
X0183500Y0221000
X0178500
X0173500
X0168500Y0221800
Y0316200
X0173500Y0317000
X0178500
X0183500
X0188500Y0316200
Y0350800
X0183500Y0350000
X0178500
X0173500
X0168500Y0350800
Y0359200
X0173500Y0360000
X0178500
X0183500
X0188500Y0359200
T03
X0321000Y0190500
X0346823
X0356823
X0366823
X0376823
X0386823
X0396823
X0406823
X0416823
X0426823
X0436823
X0446823
X0456823
X0311000
X0301000
X0291000
X0281000
X0271000
X0261000
X0251000
X0266000Y0390500
X0276000
X0286000
X0296000
X0306000
X0316000
X0326000
X0336000
X0409953Y0390500
X0419953
X0429953
X0439953
X0449953
T04
X0491000Y0190500
X0191000
Y0390500
X0491000
M30
