G04*
G04 #@! TF.GenerationSoftware,Altium Limited,Altium Designer,26.4.1 (12)*
G04*
G04 Layer_Color=8388736*
%FSLAX25Y25*%
%MOIN*%
G70*
G04*
G04 #@! TF.SameCoordinates,846061B1-5B2C-41D3-B643-472A16EF9E25*
G04*
G04*
G04 #@! TF.FilePolarity,Negative*
G04*
G01*
G75*
%ADD18C,0.00800*%
%ADD20R,0.05755X0.02200*%
%ADD21R,0.09000X0.09000*%
%ADD22R,0.02756X0.02756*%
%ADD23R,0.03197X0.02593*%
%ADD24R,0.02593X0.03197*%
%ADD25R,0.01100X0.02978*%
%ADD26R,0.02756X0.02756*%
%ADD27R,0.03960X0.05151*%
%ADD29R,0.03150X0.03150*%
%ADD30R,0.02400X0.04700*%
%ADD31R,0.02600X0.00800*%
%ADD32R,0.03175X0.03379*%
%ADD33R,0.03379X0.03175*%
%ADD34R,0.01181X0.01181*%
%ADD35R,0.09449X0.09449*%
%ADD37R,0.03366X0.03568*%
%ADD39R,0.03200X0.04100*%
%ADD40R,0.04355X0.03773*%
%ADD41R,0.03174X0.03379*%
%ADD42C,0.01146*%
%ADD43C,0.01146*%
%ADD44C,0.04000*%
G04:AMPARAMS|DCode=45|XSize=69.81mil|YSize=17.45mil|CornerRadius=5.18mil|HoleSize=0mil|Usage=FLASHONLY|Rotation=90.000|XOffset=0mil|YOffset=0mil|HoleType=Round|Shape=RoundedRectangle|*
%AMROUNDEDRECTD45*
21,1,0.06981,0.00709,0,0,90.0*
21,1,0.05945,0.01745,0,0,90.0*
1,1,0.01036,0.00354,0.02972*
1,1,0.01036,0.00354,-0.02972*
1,1,0.01036,-0.00354,-0.02972*
1,1,0.01036,-0.00354,0.02972*
%
%ADD45ROUNDEDRECTD45*%
%ADD46R,0.05800X0.03650*%
G04:AMPARAMS|DCode=47|XSize=46.19mil|YSize=28.87mil|CornerRadius=6.61mil|HoleSize=0mil|Usage=FLASHONLY|Rotation=180.000|XOffset=0mil|YOffset=0mil|HoleType=Round|Shape=RoundedRectangle|*
%AMROUNDEDRECTD47*
21,1,0.04619,0.01565,0,0,180.0*
21,1,0.03297,0.02887,0,0,180.0*
1,1,0.01322,-0.01649,0.00783*
1,1,0.01322,0.01649,0.00783*
1,1,0.01322,0.01649,-0.00783*
1,1,0.01322,-0.01649,-0.00783*
%
%ADD47ROUNDEDRECTD47*%
%ADD48C,0.02254*%
%ADD49C,0.07099*%
%ADD50C,0.03387*%
%ADD51C,0.18110*%
G04:AMPARAMS|DCode=52|XSize=70.99mil|YSize=70.99mil|CornerRadius=19.75mil|HoleSize=0mil|Usage=FLASHONLY|Rotation=180.000|XOffset=0mil|YOffset=0mil|HoleType=Round|Shape=RoundedRectangle|*
%AMROUNDEDRECTD52*
21,1,0.07099,0.03150,0,0,180.0*
21,1,0.03150,0.07099,0,0,180.0*
1,1,0.03950,-0.01575,0.01575*
1,1,0.03950,0.01575,0.01575*
1,1,0.03950,0.01575,-0.01575*
1,1,0.03950,-0.01575,-0.01575*
%
%ADD52ROUNDEDRECTD52*%
G36*
X190594Y357031D02*
X185806D01*
Y358106D01*
X170394D01*
Y357031D01*
X165606D01*
Y371394D01*
X190594D01*
Y357031D01*
D02*
G37*
G36*
X199193Y355722D02*
X199324Y355654D01*
X199489Y355595D01*
X199689Y355543D01*
X199923Y355499D01*
X200494Y355436D01*
X201202Y355404D01*
X201608Y355400D01*
Y354600D01*
X201202Y354596D01*
X199923Y354501D01*
X199689Y354457D01*
X199489Y354405D01*
X199324Y354346D01*
X199193Y354278D01*
X199096Y354203D01*
Y355797D01*
X199193Y355722D01*
D02*
G37*
G36*
X171010Y356359D02*
X171078Y356310D01*
X171191Y356267D01*
X171349Y356230D01*
X171552Y356199D01*
X172092Y356153D01*
X172814Y356130D01*
X173242Y356127D01*
Y353873D01*
X172814Y353870D01*
X171349Y353770D01*
X171191Y353733D01*
X171078Y353690D01*
X171010Y353641D01*
X170988Y353587D01*
Y356413D01*
X171010Y356359D01*
D02*
G37*
G36*
X190594Y338606D02*
X165606D01*
Y352969D01*
X170394D01*
Y351894D01*
X185806D01*
Y352969D01*
X190594D01*
Y338606D01*
D02*
G37*
G36*
Y314031D02*
X185806D01*
Y315106D01*
X170394D01*
Y314031D01*
X165606D01*
Y328394D01*
X190594D01*
Y314031D01*
D02*
G37*
G36*
X199193Y312722D02*
X199324Y312654D01*
X199489Y312595D01*
X199689Y312543D01*
X199923Y312499D01*
X200494Y312436D01*
X201202Y312404D01*
X201608Y312400D01*
Y311600D01*
X201202Y311596D01*
X199923Y311501D01*
X199689Y311457D01*
X199489Y311405D01*
X199324Y311346D01*
X199193Y311278D01*
X199096Y311203D01*
Y312797D01*
X199193Y312722D01*
D02*
G37*
G36*
X171010Y313359D02*
X171078Y313310D01*
X171191Y313267D01*
X171349Y313230D01*
X171552Y313198D01*
X172092Y313153D01*
X172814Y313130D01*
X173242Y313127D01*
Y310873D01*
X172814Y310870D01*
X171349Y310770D01*
X171191Y310733D01*
X171078Y310690D01*
X171010Y310641D01*
X170988Y310587D01*
Y313413D01*
X171010Y313359D01*
D02*
G37*
G36*
X190594Y295606D02*
X165606D01*
Y309969D01*
X170394D01*
Y308894D01*
X185806D01*
Y309969D01*
X190594D01*
Y295606D01*
D02*
G37*
G36*
X516173Y300405D02*
X511386D01*
Y301480D01*
X495973D01*
Y300405D01*
X491186D01*
Y314768D01*
X516173D01*
Y300405D01*
D02*
G37*
G36*
X510791Y296961D02*
X510769Y297015D01*
X510701Y297064D01*
X510589Y297107D01*
X510431Y297144D01*
X510228Y297176D01*
X509687Y297221D01*
X508966Y297244D01*
X508537Y297247D01*
Y299501D01*
X508966Y299504D01*
X510431Y299604D01*
X510589Y299641D01*
X510701Y299684D01*
X510769Y299733D01*
X510791Y299787D01*
Y296961D01*
D02*
G37*
G36*
X516173Y281980D02*
X491186D01*
Y296343D01*
X495973D01*
Y295268D01*
X511386D01*
Y296343D01*
X516173D01*
Y281980D01*
D02*
G37*
G36*
X190594Y271031D02*
X185806D01*
Y272106D01*
X170394D01*
Y271031D01*
X165606D01*
Y285394D01*
X190594D01*
Y271031D01*
D02*
G37*
G36*
X199193Y269722D02*
X199324Y269654D01*
X199489Y269595D01*
X199689Y269543D01*
X199923Y269499D01*
X200494Y269436D01*
X201202Y269404D01*
X201608Y269400D01*
Y268600D01*
X201202Y268596D01*
X199923Y268501D01*
X199689Y268457D01*
X199489Y268405D01*
X199324Y268346D01*
X199193Y268278D01*
X199096Y268203D01*
Y269797D01*
X199193Y269722D01*
D02*
G37*
G36*
X171010Y270359D02*
X171078Y270310D01*
X171191Y270267D01*
X171349Y270230D01*
X171552Y270198D01*
X172092Y270153D01*
X172814Y270130D01*
X173242Y270127D01*
Y267873D01*
X172814Y267870D01*
X171349Y267770D01*
X171191Y267733D01*
X171078Y267690D01*
X171010Y267641D01*
X170988Y267587D01*
Y270413D01*
X171010Y270359D01*
D02*
G37*
G36*
X190594Y252606D02*
X165606D01*
Y266969D01*
X170394D01*
Y265894D01*
X185806D01*
Y266969D01*
X190594D01*
Y252606D01*
D02*
G37*
G36*
Y228031D02*
X185806D01*
Y229106D01*
X170394D01*
Y228031D01*
X165606D01*
Y242394D01*
X190594D01*
Y228031D01*
D02*
G37*
G36*
X199193Y226722D02*
X199324Y226654D01*
X199489Y226595D01*
X199689Y226543D01*
X199923Y226499D01*
X200494Y226436D01*
X201202Y226404D01*
X201608Y226400D01*
Y225600D01*
X201202Y225596D01*
X199923Y225501D01*
X199689Y225457D01*
X199489Y225405D01*
X199324Y225346D01*
X199193Y225278D01*
X199096Y225203D01*
Y226797D01*
X199193Y226722D01*
D02*
G37*
G36*
X171010Y227359D02*
X171078Y227310D01*
X171191Y227267D01*
X171349Y227230D01*
X171552Y227199D01*
X172092Y227153D01*
X172814Y227130D01*
X173242Y227127D01*
Y224873D01*
X172814Y224870D01*
X171349Y224770D01*
X171191Y224733D01*
X171078Y224690D01*
X171010Y224641D01*
X170988Y224587D01*
Y227413D01*
X171010Y227359D01*
D02*
G37*
G36*
X190594Y209606D02*
X165606D01*
Y223969D01*
X170394D01*
Y222894D01*
X185806D01*
Y223969D01*
X190594D01*
Y209606D01*
D02*
G37*
D18*
X210000Y352400D02*
X211800D01*
X210000Y223400D02*
X211800D01*
X210000Y266400D02*
X211800D01*
X210000Y309400D02*
X211800D01*
X210000Y357600D02*
X211800D01*
X210000Y228600D02*
X211800D01*
X210000Y271600D02*
X211800D01*
X210000Y314600D02*
X211800D01*
D20*
X452574Y368433D02*
D03*
Y363433D02*
D03*
Y358433D02*
D03*
Y353433D02*
D03*
X431119D02*
D03*
Y358433D02*
D03*
Y363433D02*
D03*
Y368433D02*
D03*
D21*
X441847Y360933D02*
D03*
D22*
X326822Y346756D02*
D03*
Y341244D02*
D03*
X334318Y346756D02*
D03*
Y341244D02*
D03*
X351500Y346756D02*
D03*
Y341244D02*
D03*
X358996Y346756D02*
D03*
Y341244D02*
D03*
X362496Y240244D02*
D03*
Y245756D02*
D03*
X355000Y240244D02*
D03*
Y245756D02*
D03*
X337496Y240244D02*
D03*
Y245756D02*
D03*
X330000Y240244D02*
D03*
Y245756D02*
D03*
X378802Y228409D02*
D03*
Y233921D02*
D03*
Y210054D02*
D03*
X426000Y226012D02*
D03*
X461000Y348500D02*
D03*
X309571Y270104D02*
D03*
X310904Y315569D02*
D03*
X303408Y315451D02*
D03*
Y309939D02*
D03*
X310904Y310058D02*
D03*
X309571Y275615D02*
D03*
X461000Y354012D02*
D03*
X426000Y220500D02*
D03*
X378802Y215566D02*
D03*
D23*
X457500Y227664D02*
D03*
Y222336D02*
D03*
X426000Y215164D02*
D03*
Y209836D02*
D03*
X417000Y244664D02*
D03*
Y239336D02*
D03*
D24*
X371500Y221500D02*
D03*
X366172D02*
D03*
D25*
X385047Y228189D02*
D03*
X387016D02*
D03*
X388984D02*
D03*
X390953D02*
D03*
Y215811D02*
D03*
X388984D02*
D03*
X387016D02*
D03*
X385047D02*
D03*
X414953D02*
D03*
X409047D02*
D03*
X411016D02*
D03*
X412984D02*
D03*
X414953Y228189D02*
D03*
X412984D02*
D03*
X411016D02*
D03*
X409047D02*
D03*
D26*
X361244Y202000D02*
D03*
X366756D02*
D03*
Y209500D02*
D03*
X361244D02*
D03*
X398244Y215500D02*
D03*
Y228000D02*
D03*
X427000Y243000D02*
D03*
X447244Y345000D02*
D03*
X414369Y357086D02*
D03*
X406988Y379500D02*
D03*
Y372004D02*
D03*
X482512Y367000D02*
D03*
X482927Y375023D02*
D03*
X358302Y319764D02*
D03*
X367256Y293000D02*
D03*
X361744D02*
D03*
X352790Y319764D02*
D03*
X477415Y375023D02*
D03*
X477000Y367000D02*
D03*
X412500Y372004D02*
D03*
Y379500D02*
D03*
X419881Y357086D02*
D03*
X452756Y345000D02*
D03*
X432512Y243000D02*
D03*
X403756Y228000D02*
D03*
Y215500D02*
D03*
D27*
X469098Y358028D02*
D03*
X474816D02*
D03*
X429530Y377308D02*
D03*
X423812D02*
D03*
D29*
X369024Y395339D02*
D03*
X374929D02*
D03*
D30*
X206150Y312000D02*
D03*
Y226000D02*
D03*
Y355000D02*
D03*
Y269000D02*
D03*
D31*
X202300Y309400D02*
D03*
Y314600D02*
D03*
Y223400D02*
D03*
Y228600D02*
D03*
Y352400D02*
D03*
Y357600D02*
D03*
Y266400D02*
D03*
Y271600D02*
D03*
Y269000D02*
D03*
X210000Y266400D02*
D03*
Y269000D02*
D03*
Y271600D02*
D03*
X202300Y355000D02*
D03*
X210000Y352400D02*
D03*
Y355000D02*
D03*
Y357600D02*
D03*
X202300Y226000D02*
D03*
X210000Y223400D02*
D03*
Y226000D02*
D03*
Y228600D02*
D03*
X202300Y312000D02*
D03*
X210000Y309400D02*
D03*
Y312000D02*
D03*
Y314600D02*
D03*
D32*
X357845Y311677D02*
D03*
X352917D02*
D03*
D33*
X317657Y270685D02*
D03*
X318991Y315142D02*
D03*
Y310214D02*
D03*
X317657Y275613D02*
D03*
D34*
X329189Y300342D02*
D03*
Y294437D02*
D03*
Y292469D02*
D03*
Y290500D02*
D03*
Y288531D02*
D03*
Y286563D02*
D03*
Y280658D02*
D03*
X352811Y296406D02*
D03*
Y300342D02*
D03*
Y302311D02*
D03*
X331157Y278689D02*
D03*
X337063D02*
D03*
X339032D02*
D03*
X348874D02*
D03*
Y302311D02*
D03*
X339032D02*
D03*
X337063D02*
D03*
X331157D02*
D03*
X346905Y278689D02*
D03*
X344937D02*
D03*
X342969D02*
D03*
X341000D02*
D03*
X329189Y302311D02*
D03*
Y298374D02*
D03*
Y296406D02*
D03*
Y284594D02*
D03*
Y282626D02*
D03*
Y278689D02*
D03*
X352811D02*
D03*
Y280658D02*
D03*
Y282626D02*
D03*
Y284594D02*
D03*
Y286563D02*
D03*
Y288531D02*
D03*
Y290500D02*
D03*
Y292469D02*
D03*
Y294437D02*
D03*
Y298374D02*
D03*
X333126Y278689D02*
D03*
X335094D02*
D03*
X350842D02*
D03*
Y302311D02*
D03*
X346905D02*
D03*
X344937D02*
D03*
X342969D02*
D03*
X341000D02*
D03*
X335094D02*
D03*
X333126D02*
D03*
D35*
X335784Y295717D02*
D03*
X346217D02*
D03*
X335784Y285283D02*
D03*
X346217D02*
D03*
D37*
X390463Y253000D02*
D03*
X385537D02*
D03*
D39*
X452500Y377500D02*
D03*
X465500D02*
D03*
D40*
X465330Y368095D02*
D03*
X460007D02*
D03*
D41*
X374867Y387500D02*
D03*
X370133D02*
D03*
D42*
X211800Y352400D02*
G03*
X213632Y353159I0J2590D01*
G01*
X215048Y354027D02*
G03*
X214112Y353640I0J-1323D01*
G01*
X211800Y223400D02*
G03*
X213632Y224159I0J2590D01*
G01*
X215048Y225027D02*
G03*
X214112Y224640I0J-1323D01*
G01*
X211800Y266400D02*
G03*
X213632Y267159I0J2590D01*
G01*
X215048Y268027D02*
G03*
X214112Y267639I0J-1323D01*
G01*
X211800Y309400D02*
G03*
X213632Y310159I0J2590D01*
G01*
X215048Y311027D02*
G03*
X214112Y310640I0J-1323D01*
G01*
X250646Y228546D02*
G03*
X254165Y225027I3519J0D01*
G01*
X250646Y230719D02*
G03*
X247500Y230719I-1573J0D01*
G01*
X243981Y225027D02*
G03*
X247500Y228546I0J3519D01*
G01*
X252592D02*
G03*
X254165Y226973I1573J0D01*
G01*
X252592Y230719D02*
G03*
X245554Y230719I-3519J0D01*
G01*
X243981Y226973D02*
G03*
X245554Y228546I0J1573D01*
G01*
X254895Y314546D02*
G03*
X258414Y311027I3519J0D01*
G01*
X254895Y319453D02*
G03*
X251749Y319453I-1573J0D01*
G01*
X244711Y310322D02*
G03*
X251749Y310322I3519J0D01*
G01*
X244711Y319454D02*
G03*
X241565Y319454I-1573J0D01*
G01*
X238046Y311027D02*
G03*
X241565Y314546I0J3519D01*
G01*
X256841D02*
G03*
X258414Y312973I1573J0D01*
G01*
X256841Y319453D02*
G03*
X249803Y319453I-3519J0D01*
G01*
X246657Y310322D02*
G03*
X249803Y310322I1573J0D01*
G01*
X246657Y319454D02*
G03*
X239619Y319454I-3519J0D01*
G01*
X238046Y312973D02*
G03*
X239619Y314546I0J1573D01*
G01*
X256395Y271546D02*
G03*
X259914Y268027I3519J0D01*
G01*
X256395Y276454D02*
G03*
X253249Y276454I-1573J0D01*
G01*
X246211Y268010D02*
G03*
X253249Y268010I3519J0D01*
G01*
X246211Y276454D02*
G03*
X243065Y276454I-1573J0D01*
G01*
X239546Y268027D02*
G03*
X243065Y271546I0J3519D01*
G01*
X258341D02*
G03*
X259914Y269973I1573J0D01*
G01*
X258341Y276454D02*
G03*
X251303Y276454I-3519J0D01*
G01*
X248157Y268010D02*
G03*
X251303Y268010I1573J0D01*
G01*
X248157Y276454D02*
G03*
X241119Y276454I-3519J0D01*
G01*
X239546Y269973D02*
G03*
X241119Y271546I0J1573D01*
G01*
X249271Y357546D02*
G03*
X252790Y354027I3519J0D01*
G01*
X249271Y359733D02*
G03*
X246125Y359733I-1573J0D01*
G01*
X242606Y354027D02*
G03*
X246125Y357546I0J3519D01*
G01*
X251217D02*
G03*
X252790Y355973I1573J0D01*
G01*
X251217Y359733D02*
G03*
X244179Y359733I-3519J0D01*
G01*
X242606Y355973D02*
G03*
X244179Y357546I0J1573D01*
G01*
X269644Y269973D02*
G03*
X272853Y271305I-1J4533D01*
G01*
X269643Y268027D02*
G03*
X274218Y269918I8J6460D01*
G01*
X289082Y282626D02*
G03*
X285394Y281094I6J-5220D01*
G01*
X284020Y282472D02*
G03*
X284017Y282469I1373J-1379D01*
G01*
X289081Y284572D02*
G03*
X284020Y282472I7J-7166D01*
G01*
X289088Y284572D02*
G03*
X289081Y284572I0J-1946D01*
G01*
X213946Y270527D02*
G03*
X215289Y269973I1344J1352D01*
G01*
X285393Y281093D02*
X285394Y281094D01*
X213632Y270841D02*
G03*
X211800Y271600I-1832J-1832D01*
G01*
X333013Y263624D02*
G03*
X335094Y268642I-5010J5018D01*
G01*
X331642Y265005D02*
G03*
X333149Y268637I-3638J3638D01*
G01*
X333149Y268642D02*
G03*
X333149Y268637I1946J0D01*
G01*
X331642Y265005D02*
G03*
X331637Y265000I1371J-1381D01*
G01*
X295000Y228363D02*
G03*
X294995Y228358I1376J-1376D01*
G01*
X291651Y226973D02*
G03*
X291643Y226973I-8J-1946D01*
G01*
X291654Y225027D02*
G03*
X296376Y226987I-3J6676D01*
G01*
X291654Y226973D02*
G03*
X294995Y228358I-3J4730D01*
G01*
X213946Y227527D02*
G03*
X215289Y226973I1344J1352D01*
G01*
X213632Y227841D02*
G03*
X211800Y228600I-1832J-1832D01*
G01*
X289082Y282626D02*
G03*
X289088Y282626I4J973D01*
G01*
X274630Y311122D02*
G03*
X270151Y312973I-4479J-4494D01*
G01*
Y311027D02*
G03*
X270156Y311027I0J1946D01*
G01*
X286166Y299586D02*
G03*
X286164Y299588I-689J-687D01*
G01*
X273258Y309742D02*
G03*
X270156Y311027I-3107J-3114D01*
G01*
X288810Y298365D02*
G03*
X288808Y298365I-77J-970D01*
G01*
X286413Y299358D02*
G03*
X288808Y298365I2729J3199D01*
G01*
X286166Y299586D02*
G03*
X286413Y299358I2977J2970D01*
G01*
X284787Y298213D02*
G03*
X285150Y297877I4355J4343D01*
G01*
X288810Y298365D02*
G03*
X289150Y298352I332J4192D01*
G01*
X285150Y297877D02*
G03*
X288660Y296424I3993J4679D01*
G01*
D02*
G03*
X288663Y296424I73J970D01*
G01*
D02*
G03*
X289147Y296406I480J6132D01*
G01*
D02*
G03*
X289150Y296406I3J1946D01*
G01*
X333009Y317380D02*
G03*
X333008Y317381I-689J-687D01*
G01*
X335083Y312402D02*
G03*
X333021Y317369I-7052J-17D01*
G01*
X335083Y312385D02*
G03*
X335083Y312389I-1946J0D01*
G01*
X331632Y316005D02*
G03*
X331637Y316000I1376J1376D01*
G01*
X333137Y312400D02*
G03*
X331644Y315993I-5106J-15D01*
G01*
X294998Y352639D02*
G03*
X295004Y352634I1381J1371D01*
G01*
X294993Y352644D02*
G03*
X294699Y352914I-3342J-3347D01*
G01*
X294696Y352916D02*
G03*
X291665Y354027I-3045J-3619D01*
G01*
D02*
G03*
X291657Y354027I-1J-1146D01*
G01*
X295947Y354407D02*
G03*
X291670Y355973I-4296J-5110D01*
G01*
X291651Y354027D02*
G03*
X291657Y354027I1J973D01*
G01*
X295952Y354403D02*
G03*
X295947Y354407I-1988J-2368D01*
G01*
X294699Y352914D02*
G03*
X294696Y352916I-735J-879D01*
G01*
X291660Y355973D02*
G03*
X291651Y355973I-9J-1946D01*
G01*
X291670Y355973D02*
G03*
X291660Y355973I-6J-3092D01*
G01*
X296368Y354022D02*
G03*
X295952Y354403I-4717J-4725D01*
G01*
X213946Y356527D02*
G03*
X215289Y355973I1344J1352D01*
G01*
X213632Y356841D02*
G03*
X211800Y357600I-1832J-1832D01*
G01*
X213946Y313527D02*
G03*
X215289Y312973I1344J1352D01*
G01*
X213632Y313841D02*
G03*
X211800Y314600I-1832J-1832D01*
G01*
X302029Y237013D02*
G03*
X303650Y237013I810J810D01*
G01*
X302015Y237027D02*
G03*
X300710Y237027I-653J-653D01*
G01*
D02*
G03*
X300710Y235721I653J-653D01*
G01*
X300724Y234087D02*
G03*
X300724Y235707I-810J810D01*
G01*
X303913Y343725D02*
G03*
X302183Y343725I-865J-865D01*
G01*
X300437Y343708D02*
G03*
X302166Y343708I865J865D01*
G01*
X300437Y345438D02*
G03*
X300437Y343708I865J-865D01*
G01*
X300453Y345454D02*
G03*
X300453Y347184I-865J865D01*
G01*
X213632Y353159D02*
X214112Y353640D01*
X213632Y224159D02*
X214112Y224640D01*
X213632Y267159D02*
X214112Y267639D01*
X213632Y310159D02*
X214112Y310640D01*
X215048Y354027D02*
X241060D01*
X215048Y225027D02*
X242435D01*
X215289Y226973D02*
X242435D01*
X254165Y225027D02*
X273435D01*
X250646Y228546D02*
Y230719D01*
X247500Y228546D02*
Y230719D01*
X242435Y225027D02*
X243981D01*
X254165Y226973D02*
X273435D01*
X252592Y228546D02*
Y230719D01*
X245554Y228546D02*
Y230719D01*
X242435Y226973D02*
X243981D01*
X273435Y225027D02*
X291643D01*
X273435Y226973D02*
X291643D01*
X258414Y311027D02*
X269271D01*
X254895Y314546D02*
Y319453D01*
X251749Y310322D02*
Y319453D01*
X244711Y310322D02*
Y319454D01*
X241565Y314546D02*
Y319454D01*
X236500Y311027D02*
X238046D01*
X258414Y312973D02*
X269271D01*
X256841Y314546D02*
Y319453D01*
X249803Y310322D02*
Y319453D01*
X246657Y310322D02*
Y319454D01*
X239619Y314546D02*
Y319454D01*
X236500Y312973D02*
X238046D01*
X259914Y268027D02*
X267290D01*
X256395Y271546D02*
Y276454D01*
X253249Y268010D02*
Y276454D01*
X246211Y268010D02*
Y276454D01*
X243065Y271546D02*
Y276454D01*
X238000Y268027D02*
X239546D01*
X259914Y269973D02*
X267290D01*
X258341Y271546D02*
Y276454D01*
X251303Y268010D02*
Y276454D01*
X248157Y268010D02*
Y276454D01*
X241119Y271546D02*
Y276454D01*
X238000Y269973D02*
X239546D01*
X215289Y355973D02*
X241060D01*
X252790Y354027D02*
X289740D01*
X249271Y357546D02*
Y359733D01*
X246125Y357546D02*
Y359733D01*
X241060Y354027D02*
X242606D01*
X252790Y355973D02*
X289740D01*
X251217Y357546D02*
Y359733D01*
X244179Y357546D02*
Y359733D01*
X241060Y355973D02*
X242606D01*
X289740Y354027D02*
X291651D01*
X289740Y355973D02*
X291651D01*
X269271Y311027D02*
X270151D01*
X269271Y312973D02*
X270151D01*
X267290Y268027D02*
X269643D01*
X215048D02*
X238000D01*
X215289Y269973D02*
X238000D01*
X269644D02*
X269644Y269973D01*
X267290Y269973D02*
X269644D01*
X215048Y311027D02*
X236500D01*
X215289Y312973D02*
X236500D01*
X273258Y309742D02*
X284787Y298213D01*
X324361Y257724D02*
X331637Y265000D01*
X295000Y228363D02*
X300319Y233681D01*
X319887Y327750D02*
X331632Y316005D01*
X295004Y352634D02*
X298319Y349319D01*
X272853Y271305D02*
X284017Y282469D01*
X274218Y269918D02*
X274788Y270488D01*
Y270488D01*
X285393Y281093D01*
X213771Y270702D02*
X213946Y270527D01*
X215289Y269973D02*
X215289Y269973D01*
X296376Y226987D02*
X333013Y263624D01*
X335094Y268642D02*
Y278689D01*
X333149Y268642D02*
Y278689D01*
X291651Y226973D02*
X291654D01*
X291643Y225027D02*
X291654D01*
X215289Y226973D02*
X215289Y226973D01*
X215048Y225027D02*
X215048D01*
X213771Y227702D02*
X213946Y227527D01*
X289088Y282626D02*
X329189D01*
X289088Y284572D02*
X328796D01*
X328801Y284577D02*
X329171D01*
X328796Y284572D02*
X328801Y284577D01*
X274630Y311122D02*
X286164Y299588D01*
X289150Y296406D02*
X329189D01*
X289150Y298352D02*
X329189D01*
X335083Y312402D02*
X335083Y312389D01*
X331637Y316000D02*
X331644Y315993D01*
X333137Y312400D02*
X333137Y312385D01*
X296379Y354010D02*
X333008Y317381D01*
X333009Y317380D02*
X333021Y317369D01*
X333137Y302322D02*
Y312385D01*
X335083Y302322D02*
Y312385D01*
X294993Y352644D02*
X294998Y352639D01*
X335083Y302322D02*
X335094Y302311D01*
X296368Y354022D02*
X296379Y354010D01*
X333126Y302311D02*
X333137Y302322D01*
X215289Y355973D02*
X215289Y355973D01*
X213771Y356702D02*
X213946Y356527D01*
X215289Y312973D02*
X215289Y312973D01*
X213771Y313702D02*
X213946Y313527D01*
X303650Y237013D02*
X324361Y257724D01*
X302015Y237027D02*
X302029Y237013D01*
X300710Y235721D02*
X300724Y235707D01*
X300724Y235707D02*
X300724Y235707D01*
X300319Y233681D02*
X300724Y234087D01*
X303913Y343725D02*
X319887Y327750D01*
X302166Y343708D02*
X302183Y343725D01*
X300437Y345438D02*
X300453Y345454D01*
X298319Y349319D02*
X300453Y347184D01*
D43*
X285393Y281093D02*
D03*
X335083Y312402D02*
D03*
X296379Y354010D02*
D03*
D44*
X420000Y281000D02*
D03*
X431612Y275888D02*
D03*
X439500Y276000D02*
D03*
X445437Y277063D02*
D03*
X361150Y261350D02*
D03*
X390508Y239508D02*
D03*
X390500Y246000D02*
D03*
X432450Y251550D02*
D03*
X370000Y268500D02*
D03*
X411016Y255984D02*
D03*
X378500Y271000D02*
D03*
X416701Y270799D02*
D03*
X469236Y350303D02*
D03*
X420000Y350500D02*
D03*
X452838Y338752D02*
D03*
X463026Y232748D02*
D03*
X427550Y204752D02*
D03*
X368000Y228500D02*
D03*
D45*
X435988Y233299D02*
D03*
X450161D02*
D03*
Y210701D02*
D03*
X448587D02*
D03*
X432839D02*
D03*
X434413D02*
D03*
X435988D02*
D03*
X437563D02*
D03*
X439138D02*
D03*
X440713D02*
D03*
X442287D02*
D03*
X443862D02*
D03*
X445437D02*
D03*
X447012D02*
D03*
X448587Y233299D02*
D03*
X447012D02*
D03*
X445437D02*
D03*
X443862D02*
D03*
X442287D02*
D03*
X440713D02*
D03*
X439138D02*
D03*
X437563D02*
D03*
X434413D02*
D03*
X432839D02*
D03*
D46*
X513279Y298374D02*
D03*
X168500Y269000D02*
D03*
Y355000D02*
D03*
Y226000D02*
D03*
Y312000D02*
D03*
D47*
X394000Y261350D02*
D03*
Y264500D02*
D03*
Y267650D02*
D03*
Y270799D02*
D03*
X387110D02*
D03*
Y267650D02*
D03*
Y264500D02*
D03*
Y261350D02*
D03*
D48*
X355279Y298374D02*
X513779Y298374D01*
X168500Y226000D02*
X198300D01*
X168500Y269000D02*
X198300D01*
X168500Y312000D02*
X198300D01*
X168500Y355000D02*
X198300D01*
D49*
X271000Y190500D02*
D03*
X409953Y390500D02*
D03*
X419953D02*
D03*
X346823Y190500D02*
D03*
X251000D02*
D03*
X311000D02*
D03*
X291000D02*
D03*
X336000Y390500D02*
D03*
X276000D02*
D03*
X296000D02*
D03*
X316000D02*
D03*
X261000Y190500D02*
D03*
X281000D02*
D03*
X301000D02*
D03*
X439953Y390500D02*
D03*
X429953D02*
D03*
X376823Y190500D02*
D03*
X406823D02*
D03*
X426823D02*
D03*
X446823D02*
D03*
X436823D02*
D03*
X416823D02*
D03*
X396823D02*
D03*
X386823D02*
D03*
X366823D02*
D03*
X356823D02*
D03*
X286000Y390500D02*
D03*
X306000D02*
D03*
X326000D02*
D03*
D50*
X168500Y316200D02*
D03*
X173500Y317000D02*
D03*
X178500D02*
D03*
X183500D02*
D03*
Y307000D02*
D03*
X178500D02*
D03*
X173500D02*
D03*
X168500Y307800D02*
D03*
X188500D02*
D03*
Y316200D02*
D03*
X168500Y230200D02*
D03*
X173500Y231000D02*
D03*
X178500D02*
D03*
X183500D02*
D03*
Y221000D02*
D03*
X178500D02*
D03*
X173500D02*
D03*
X168500Y221800D02*
D03*
X188500D02*
D03*
Y230200D02*
D03*
X168500Y359200D02*
D03*
X173500Y360000D02*
D03*
X178500D02*
D03*
X183500D02*
D03*
Y350000D02*
D03*
X178500D02*
D03*
X173500D02*
D03*
X168500Y350800D02*
D03*
X188500D02*
D03*
Y359200D02*
D03*
X168500Y273200D02*
D03*
X173500Y274000D02*
D03*
X178500D02*
D03*
X183500D02*
D03*
Y264000D02*
D03*
X178500D02*
D03*
X173500D02*
D03*
X168500Y264800D02*
D03*
X188500D02*
D03*
Y273200D02*
D03*
X513279Y294174D02*
D03*
X508280Y293374D02*
D03*
X503279D02*
D03*
X498279D02*
D03*
Y303374D02*
D03*
X503279D02*
D03*
X508280D02*
D03*
X513279Y302574D02*
D03*
X493280D02*
D03*
Y294174D02*
D03*
D51*
X491000Y390500D02*
D03*
X191000D02*
D03*
X491000Y190500D02*
D03*
X191000D02*
D03*
D52*
X321000D02*
D03*
X449953Y390500D02*
D03*
X456823Y190500D02*
D03*
X266000Y390500D02*
D03*
M02*
