G04*
G04 #@! TF.GenerationSoftware,Altium Limited,Altium Designer,26.4.1 (12)*
G04*
G04 Layer_Color=32896*
%FSLAX25Y25*%
%MOIN*%
G70*
G04*
G04 #@! TF.SameCoordinates,846061B1-5B2C-41D3-B643-472A16EF9E25*
G04*
G04*
G04 #@! TF.FilePolarity,Positive*
G04*
G01*
G75*
%ADD14C,0.01500*%
%ADD17C,0.00700*%
%ADD18C,0.00800*%
D14*
X461000Y292500D02*
Y302497D01*
X457668Y299165D01*
X454335Y302497D01*
Y292500D01*
X451003Y302497D02*
X447671D01*
X449337D01*
Y292500D01*
X451003D01*
X447671D01*
X442673D02*
Y302497D01*
X439340Y299165D01*
X436008Y302497D01*
Y292500D01*
X427677Y302497D02*
X431010D01*
X432676Y300831D01*
Y294166D01*
X431010Y292500D01*
X427677D01*
X426011Y294166D01*
Y300831D01*
X427677Y302497D01*
X406018D02*
X412682D01*
Y297498D01*
X409350D01*
X412682D01*
Y292500D01*
X402685D02*
Y302497D01*
X399353Y299165D01*
X396021Y302497D01*
Y292500D01*
X386024Y300831D02*
X387690Y302497D01*
X391023D01*
X392689Y300831D01*
Y294166D01*
X391023Y292500D01*
X387690D01*
X386024Y294166D01*
X382692Y302497D02*
Y292500D01*
X379360Y295832D01*
X376027Y292500D01*
Y302497D01*
X362698Y292500D02*
Y302497D01*
X357700D01*
X356034Y300831D01*
Y297498D01*
X357700Y295832D01*
X362698D01*
X359366D02*
X356034Y292500D01*
X351035Y299165D02*
X347703D01*
X346037Y297498D01*
Y292500D01*
X351035D01*
X352702Y294166D01*
X351035Y295832D01*
X346037D01*
X336040Y302497D02*
Y292500D01*
X341039D01*
X342705Y294166D01*
Y297498D01*
X341039Y299165D01*
X336040D01*
X331042D02*
X327710D01*
X326044Y297498D01*
Y292500D01*
X331042D01*
X332708Y294166D01*
X331042Y295832D01*
X326044D01*
X322711Y299165D02*
Y292500D01*
Y295832D01*
X321045Y297498D01*
X319379Y299165D01*
X317713D01*
X302718Y292500D02*
Y302497D01*
X297719D01*
X296053Y300831D01*
Y297498D01*
X297719Y295832D01*
X302718D01*
X299386D02*
X296053Y292500D01*
X287723D02*
X291055D01*
X292721Y294166D01*
Y297498D01*
X291055Y299165D01*
X287723D01*
X286056Y297498D01*
Y295832D01*
X292721D01*
X276060Y299165D02*
X281058D01*
X282724Y297498D01*
Y294166D01*
X281058Y292500D01*
X276060D01*
X267729D02*
X271061D01*
X272727Y294166D01*
Y297498D01*
X271061Y299165D01*
X267729D01*
X266063Y297498D01*
Y295832D01*
X272727D01*
X262731Y292500D02*
X259399D01*
X261065D01*
Y299165D01*
X262731D01*
X254400D02*
X251068Y292500D01*
X247736Y299165D01*
X239405Y292500D02*
X242737D01*
X244403Y294166D01*
Y297498D01*
X242737Y299165D01*
X239405D01*
X237739Y297498D01*
Y295832D01*
X244403D01*
X234407Y299165D02*
Y292500D01*
Y295832D01*
X232740Y297498D01*
X231074Y299165D01*
X229408D01*
D17*
X267699Y396700D02*
Y397866D01*
Y397283D01*
X264200D01*
Y396700D01*
Y397866D01*
X267699Y401948D02*
Y399616D01*
X265949D01*
Y400782D01*
Y399616D01*
X264200D01*
Y403115D02*
Y404281D01*
Y403698D01*
X267699D01*
X267116Y403115D01*
X264200Y406030D02*
X267699D01*
Y407780D01*
X267116Y408363D01*
X265949D01*
X265366Y407780D01*
Y406030D01*
X277116Y398533D02*
X277699Y397949D01*
Y396783D01*
X277116Y396200D01*
X274783D01*
X274200Y396783D01*
Y397949D01*
X274783Y398533D01*
X275949D01*
Y397366D01*
X274200Y399699D02*
X277699D01*
X274200Y402031D01*
X277699D01*
Y403198D02*
X274200D01*
Y404947D01*
X274783Y405530D01*
X277116D01*
X277699Y404947D01*
Y403198D01*
X288199Y396700D02*
Y397866D01*
Y397283D01*
X284700D01*
Y396700D01*
Y397866D01*
X288199Y401948D02*
Y399616D01*
X286449D01*
Y400782D01*
Y399616D01*
X284700D01*
Y403115D02*
Y404281D01*
Y403698D01*
X288199D01*
X287616Y403115D01*
X284700Y406030D02*
X288199D01*
X284700Y408363D01*
X288199D01*
X297116Y398533D02*
X297699Y397949D01*
Y396783D01*
X297116Y396200D01*
X294783D01*
X294200Y396783D01*
Y397949D01*
X294783Y398533D01*
X295949D01*
Y397366D01*
X294200Y399699D02*
X297699D01*
X294200Y402031D01*
X297699D01*
Y403198D02*
X294200D01*
Y404947D01*
X294783Y405530D01*
X297116D01*
X297699Y404947D01*
Y403198D01*
X308199Y396700D02*
Y397866D01*
Y397283D01*
X304700D01*
Y396700D01*
Y397866D01*
X308199Y401948D02*
Y399616D01*
X306449D01*
Y400782D01*
Y399616D01*
X304700D01*
Y405447D02*
Y403115D01*
X307033Y405447D01*
X307616D01*
X308199Y404864D01*
Y403698D01*
X307616Y403115D01*
X304700Y406613D02*
X308199D01*
Y408363D01*
X307616Y408946D01*
X306449D01*
X305866Y408363D01*
Y406613D01*
X317616Y398533D02*
X318199Y397949D01*
Y396783D01*
X317616Y396200D01*
X315283D01*
X314700Y396783D01*
Y397949D01*
X315283Y398533D01*
X316449D01*
Y397366D01*
X314700Y399699D02*
X318199D01*
X314700Y402031D01*
X318199D01*
Y403198D02*
X314700D01*
Y404947D01*
X315283Y405530D01*
X317616D01*
X318199Y404947D01*
Y403198D01*
X327699Y396700D02*
Y397866D01*
Y397283D01*
X324200D01*
Y396700D01*
Y397866D01*
X327699Y401948D02*
Y399616D01*
X325949D01*
Y400782D01*
Y399616D01*
X324200D01*
Y405447D02*
Y403115D01*
X326533Y405447D01*
X327116D01*
X327699Y404864D01*
Y403698D01*
X327116Y403115D01*
X324200Y406613D02*
X327699D01*
X324200Y408946D01*
X327699D01*
X337116Y398533D02*
X337699Y397949D01*
Y396783D01*
X337116Y396200D01*
X334783D01*
X334200Y396783D01*
Y397949D01*
X334783Y398533D01*
X335949D01*
Y397366D01*
X334200Y399699D02*
X337699D01*
X334200Y402031D01*
X337699D01*
Y403198D02*
X334200D01*
Y404947D01*
X334783Y405530D01*
X337116D01*
X337699Y404947D01*
Y403198D01*
X451699Y396200D02*
X449366D01*
X448200Y397366D01*
X449366Y398533D01*
X451699D01*
X448200Y399699D02*
Y400865D01*
Y400282D01*
X450533D01*
Y399699D01*
X448200Y402615D02*
X450533D01*
Y404364D01*
X449949Y404947D01*
X448200D01*
X441699Y396200D02*
X439366D01*
X438200Y397366D01*
X439366Y398533D01*
X441699D01*
X438200Y399699D02*
Y400865D01*
Y400282D01*
X440533D01*
Y399699D01*
X438200Y402615D02*
X440533D01*
Y404364D01*
X439949Y404947D01*
X438200D01*
X429949Y396200D02*
Y398533D01*
X431116Y397366D02*
X428783D01*
X428200Y399699D02*
Y400865D01*
Y400282D01*
X431699D01*
X431116Y399699D01*
X428200Y402615D02*
X428783D01*
Y403198D01*
X428200D01*
Y402615D01*
X431116Y405530D02*
X431699Y406113D01*
Y407280D01*
X431116Y407863D01*
X430533D01*
X429949Y407280D01*
X429366Y407863D01*
X428783D01*
X428200Y407280D01*
Y406113D01*
X428783Y405530D01*
X429366D01*
X429949Y406113D01*
X430533Y405530D01*
X431116D01*
X429949Y406113D02*
Y407280D01*
X431699Y409029D02*
X429366D01*
X428200Y410195D01*
X429366Y411362D01*
X431699D01*
X421116Y398533D02*
X421699Y397949D01*
Y396783D01*
X421116Y396200D01*
X418783D01*
X418200Y396783D01*
Y397949D01*
X418783Y398533D01*
X419949D01*
Y397366D01*
X418200Y399699D02*
X421699D01*
X418200Y402031D01*
X421699D01*
Y403198D02*
X418200D01*
Y404947D01*
X418783Y405530D01*
X421116D01*
X421699Y404947D01*
Y403198D01*
X411116Y398533D02*
X411699Y397949D01*
Y396783D01*
X411116Y396200D01*
X408783D01*
X408200Y396783D01*
Y397949D01*
X408783Y398533D01*
X409949D01*
Y397366D01*
X408200Y399699D02*
X411699D01*
X408200Y402031D01*
X411699D01*
Y403198D02*
X408200D01*
Y404947D01*
X408783Y405530D01*
X411116D01*
X411699Y404947D01*
Y403198D01*
X252116Y178533D02*
X252699Y177949D01*
Y176783D01*
X252116Y176200D01*
X249783D01*
X249200Y176783D01*
Y177949D01*
X249783Y178533D01*
X250949D01*
Y177366D01*
X249200Y179699D02*
X252699D01*
X249200Y182031D01*
X252699D01*
Y183198D02*
X249200D01*
Y184947D01*
X249783Y185530D01*
X252116D01*
X252699Y184947D01*
Y183198D01*
X262699Y173200D02*
Y174366D01*
Y173783D01*
X259200D01*
Y173200D01*
Y174366D01*
X262699Y178448D02*
Y176116D01*
X260949D01*
Y177282D01*
Y176116D01*
X259200D01*
Y181364D02*
X262699D01*
X260949Y179615D01*
Y181947D01*
X259200Y183114D02*
X262699D01*
Y184863D01*
X262116Y185446D01*
X260949D01*
X260366Y184863D01*
Y183114D01*
X272116Y178033D02*
X272699Y177449D01*
Y176283D01*
X272116Y175700D01*
X269783D01*
X269200Y176283D01*
Y177449D01*
X269783Y178033D01*
X270949D01*
Y176866D01*
X269200Y179199D02*
X272699D01*
X269200Y181531D01*
X272699D01*
Y182698D02*
X269200D01*
Y184447D01*
X269783Y185030D01*
X272116D01*
X272699Y184447D01*
Y182698D01*
X292116Y178033D02*
X292699Y177449D01*
Y176283D01*
X292116Y175700D01*
X289783D01*
X289200Y176283D01*
Y177449D01*
X289783Y178033D01*
X290949D01*
Y176866D01*
X289200Y179199D02*
X292699D01*
X289200Y181531D01*
X292699D01*
Y182698D02*
X289200D01*
Y184447D01*
X289783Y185030D01*
X292116D01*
X292699Y184447D01*
Y182698D01*
X302699Y172700D02*
Y173866D01*
Y173283D01*
X299200D01*
Y172700D01*
Y173866D01*
X302699Y177948D02*
Y175616D01*
X300949D01*
Y176782D01*
Y175616D01*
X299200D01*
X302116Y179115D02*
X302699Y179698D01*
Y180864D01*
X302116Y181447D01*
X301533D01*
X300949Y180864D01*
Y180281D01*
Y180864D01*
X300366Y181447D01*
X299783D01*
X299200Y180864D01*
Y179698D01*
X299783Y179115D01*
X299200Y182614D02*
X302699D01*
Y184363D01*
X302116Y184946D01*
X300949D01*
X300366Y184363D01*
Y182614D01*
X312116Y178033D02*
X312699Y177449D01*
Y176283D01*
X312116Y175700D01*
X309783D01*
X309200Y176283D01*
Y177449D01*
X309783Y178033D01*
X310949D01*
Y176866D01*
X309200Y179199D02*
X312699D01*
X309200Y181531D01*
X312699D01*
Y182698D02*
X309200D01*
Y184447D01*
X309783Y185030D01*
X312116D01*
X312699Y184447D01*
Y182698D01*
X322699Y172700D02*
Y173866D01*
Y173283D01*
X319200D01*
Y172700D01*
Y173866D01*
X322699Y177948D02*
Y175616D01*
X320949D01*
Y176782D01*
Y175616D01*
X319200D01*
X322116Y179115D02*
X322699Y179698D01*
Y180864D01*
X322116Y181447D01*
X321533D01*
X320949Y180864D01*
Y180281D01*
Y180864D01*
X320366Y181447D01*
X319783D01*
X319200Y180864D01*
Y179698D01*
X319783Y179115D01*
X319200Y182614D02*
X322699D01*
X319200Y184946D01*
X322699D01*
X348116Y178033D02*
X348699Y177449D01*
Y176283D01*
X348116Y175700D01*
X345783D01*
X345200Y176283D01*
Y177449D01*
X345783Y178033D01*
X346949D01*
Y176866D01*
X345200Y179199D02*
X348699D01*
X345200Y181531D01*
X348699D01*
Y182698D02*
X345200D01*
Y184447D01*
X345783Y185030D01*
X348116D01*
X348699Y184447D01*
Y182698D01*
X282699Y172700D02*
Y173866D01*
Y173283D01*
X279200D01*
Y172700D01*
Y173866D01*
X282699Y177948D02*
Y175616D01*
X280949D01*
Y176782D01*
Y175616D01*
X279200D01*
Y180864D02*
X282699D01*
X280949Y179115D01*
Y181447D01*
X279200Y182614D02*
X282699D01*
X279200Y184946D01*
X282699D01*
X356449Y169200D02*
Y171533D01*
X357616Y170366D02*
X355283D01*
X354700Y175031D02*
Y172699D01*
X357033Y175031D01*
X357616D01*
X358199Y174448D01*
Y173282D01*
X357616Y172699D01*
X354700Y176198D02*
X355283D01*
Y176781D01*
X354700D01*
Y176198D01*
X358199Y181446D02*
Y179113D01*
X356449D01*
X357033Y180280D01*
Y180863D01*
X356449Y181446D01*
X355283D01*
X354700Y180863D01*
Y179697D01*
X355283Y179113D01*
X358199Y182612D02*
X355866D01*
X354700Y183779D01*
X355866Y184945D01*
X358199D01*
X368699Y176200D02*
X366366D01*
X365200Y177366D01*
X366366Y178533D01*
X368699D01*
Y179699D02*
Y180865D01*
Y180282D01*
X365200D01*
Y179699D01*
Y180865D01*
X368699Y184364D02*
Y183198D01*
X368116Y182615D01*
X365783D01*
X365200Y183198D01*
Y184364D01*
X365783Y184947D01*
X368116D01*
X368699Y184364D01*
X378699Y176200D02*
X375200D01*
Y177949D01*
X375783Y178533D01*
X378116D01*
X378699Y177949D01*
Y176200D01*
Y179699D02*
Y180865D01*
Y180282D01*
X375200D01*
Y179699D01*
Y180865D01*
Y182615D02*
X378699D01*
Y184364D01*
X378116Y184947D01*
X376949D01*
X376366Y184364D01*
Y182615D01*
Y183781D02*
X375200Y184947D01*
X384700Y168700D02*
X388199D01*
Y170449D01*
X387616Y171033D01*
X386449D01*
X385866Y170449D01*
Y168700D01*
Y169866D02*
X384700Y171033D01*
X387033Y172199D02*
X384700Y174531D01*
X385866Y173365D01*
X387033Y174531D01*
X384700Y172199D01*
Y175698D02*
X387033D01*
X388199Y176864D01*
X387033Y178030D01*
X384700D01*
X386449D01*
Y175698D01*
X388199Y179197D02*
X384700D01*
Y180946D01*
X385283Y181529D01*
X387616D01*
X388199Y180946D01*
Y179197D01*
Y182695D02*
X385866D01*
X384700Y183862D01*
X385866Y185028D01*
X388199D01*
X395200Y172200D02*
X398699D01*
X397533Y173366D01*
X398699Y174533D01*
X395200D01*
Y175699D02*
X397533D01*
X398699Y176865D01*
X397533Y178031D01*
X395200D01*
X396949D01*
Y175699D01*
X398699Y179198D02*
X395200D01*
Y180947D01*
X395783Y181530D01*
X398116D01*
X398699Y180947D01*
Y179198D01*
Y182697D02*
X396366D01*
X395200Y183863D01*
X396366Y185029D01*
X398699D01*
X404700Y168700D02*
X408199D01*
Y170449D01*
X407616Y171033D01*
X406449D01*
X405866Y170449D01*
Y168700D01*
Y169866D02*
X404700Y171033D01*
X407033Y172199D02*
X404700Y174531D01*
X405866Y173365D01*
X407033Y174531D01*
X404700Y172199D01*
Y175698D02*
X408199D01*
Y177447D01*
X407616Y178030D01*
X406449D01*
X405866Y177447D01*
Y175698D01*
Y176864D02*
X404700Y178030D01*
X407616Y181529D02*
X408199Y180946D01*
Y179780D01*
X407616Y179197D01*
X407033D01*
X406449Y179780D01*
Y180946D01*
X405866Y181529D01*
X405283D01*
X404700Y180946D01*
Y179780D01*
X405283Y179197D01*
X408199Y182695D02*
Y185028D01*
Y183862D01*
X404700D01*
X414700Y172200D02*
X418199D01*
X417033Y173366D01*
X418199Y174533D01*
X414700D01*
Y175699D02*
X418199D01*
Y177448D01*
X417616Y178031D01*
X416449D01*
X415866Y177448D01*
Y175699D01*
Y176865D02*
X414700Y178031D01*
X417616Y181530D02*
X418199Y180947D01*
Y179781D01*
X417616Y179198D01*
X417033D01*
X416449Y179781D01*
Y180947D01*
X415866Y181530D01*
X415283D01*
X414700Y180947D01*
Y179781D01*
X415283Y179198D01*
X418199Y182697D02*
Y185029D01*
Y183863D01*
X414700D01*
X427616Y178033D02*
X428199Y177449D01*
Y176283D01*
X427616Y175700D01*
X427033D01*
X426449Y176283D01*
Y177449D01*
X425866Y178033D01*
X425283D01*
X424700Y177449D01*
Y176283D01*
X425283Y175700D01*
X428199Y179199D02*
X424700D01*
Y180948D01*
X425283Y181531D01*
X427616D01*
X428199Y180948D01*
Y179199D01*
Y184447D02*
Y183281D01*
X427616Y182698D01*
X425283D01*
X424700Y183281D01*
Y184447D01*
X425283Y185030D01*
X427616D01*
X428199Y184447D01*
X437616Y178033D02*
X438199Y177449D01*
Y176283D01*
X437616Y175700D01*
X437033D01*
X436449Y176283D01*
Y177449D01*
X435866Y178033D01*
X435283D01*
X434700Y177449D01*
Y176283D01*
X435283Y175700D01*
X437616Y181531D02*
X438199Y180948D01*
Y179782D01*
X437616Y179199D01*
X435283D01*
X434700Y179782D01*
Y180948D01*
X435283Y181531D01*
X438199Y182698D02*
X434700D01*
X435866D01*
X438199Y185030D01*
X436449Y183281D01*
X434700Y185030D01*
X448116Y175533D02*
X448699Y174949D01*
Y173783D01*
X448116Y173200D01*
X447533D01*
X446949Y173783D01*
Y174949D01*
X446366Y175533D01*
X445783D01*
X445200Y174949D01*
Y173783D01*
X445783Y173200D01*
X448699Y176699D02*
X445200D01*
Y178448D01*
X445783Y179031D01*
X448116D01*
X448699Y178448D01*
Y176699D01*
Y180198D02*
Y181364D01*
Y180781D01*
X445200D01*
Y180198D01*
Y181364D01*
X448699Y184863D02*
Y183697D01*
X448116Y183114D01*
X445783D01*
X445200Y183697D01*
Y184863D01*
X445783Y185446D01*
X448116D01*
X448699Y184863D01*
X458116Y181533D02*
X458699Y180949D01*
Y179783D01*
X458116Y179200D01*
X455783D01*
X455200Y179783D01*
Y180949D01*
X455783Y181533D01*
X458116Y185031D02*
X458699Y184448D01*
Y183282D01*
X458116Y182699D01*
X457533D01*
X456949Y183282D01*
Y184448D01*
X456366Y185031D01*
X455783D01*
X455200Y184448D01*
Y183282D01*
X455783Y182699D01*
D18*
X193300Y341800D02*
X198298D01*
Y344299D01*
X197465Y345132D01*
X195799D01*
X194966Y344299D01*
Y341800D01*
Y343466D02*
X193300Y345132D01*
X198298Y350131D02*
Y346798D01*
X195799D01*
Y348464D01*
Y346798D01*
X193300D01*
X198298Y351797D02*
Y353463D01*
Y352630D01*
X193300D01*
Y351797D01*
Y353463D01*
Y355962D02*
X198298D01*
X193300Y359294D01*
X198298D01*
X193300Y360961D02*
Y362627D01*
Y361793D01*
X198298D01*
X197465Y360961D01*
Y365126D02*
X194133Y368458D01*
Y365126D02*
X197465Y368458D01*
X195799Y365126D02*
Y368458D01*
X194133Y366792D02*
X197465D01*
X192300Y215300D02*
X197298D01*
Y217799D01*
X196465Y218632D01*
X194799D01*
X193966Y217799D01*
Y215300D01*
Y216966D02*
X192300Y218632D01*
X197298Y223631D02*
Y220298D01*
X194799D01*
Y221965D01*
Y220298D01*
X192300D01*
X197298Y225297D02*
Y226963D01*
Y226130D01*
X192300D01*
Y225297D01*
Y226963D01*
Y229462D02*
X197298D01*
X192300Y232794D01*
X197298D01*
X192300Y236960D02*
X197298D01*
X194799Y234460D01*
Y237793D01*
X192800Y298300D02*
X197798D01*
Y300799D01*
X196965Y301632D01*
X195299D01*
X194466Y300799D01*
Y298300D01*
Y299966D02*
X192800Y301632D01*
X197798Y306631D02*
Y303298D01*
X195299D01*
Y304964D01*
Y303298D01*
X192800D01*
X197798Y308297D02*
Y309963D01*
Y309130D01*
X192800D01*
Y308297D01*
Y309963D01*
Y312462D02*
X197798D01*
X192800Y315794D01*
X197798D01*
X192800Y320793D02*
Y317460D01*
X196132Y320793D01*
X196965D01*
X197798Y319960D01*
Y318293D01*
X196965Y317460D01*
Y322459D02*
X193633Y325791D01*
Y322459D02*
X196965Y325791D01*
X195299Y322459D02*
Y325791D01*
X193633Y324125D02*
X196965D01*
X192800Y257800D02*
X197798D01*
Y260299D01*
X196965Y261132D01*
X195299D01*
X194466Y260299D01*
Y257800D01*
Y259466D02*
X192800Y261132D01*
X197798Y266131D02*
Y262798D01*
X195299D01*
Y264464D01*
Y262798D01*
X192800D01*
X197798Y267797D02*
Y269463D01*
Y268630D01*
X192800D01*
Y267797D01*
Y269463D01*
Y271962D02*
X197798D01*
X192800Y275294D01*
X197798D01*
X196965Y276960D02*
X197798Y277794D01*
Y279460D01*
X196965Y280293D01*
X196132D01*
X195299Y279460D01*
Y278627D01*
Y279460D01*
X194466Y280293D01*
X193633D01*
X192800Y279460D01*
Y277794D01*
X193633Y276960D01*
X488798Y289800D02*
X483800D01*
Y293132D01*
X488798Y297298D02*
Y295631D01*
X487965Y294798D01*
X484633D01*
X483800Y295631D01*
Y297298D01*
X484633Y298131D01*
X487965D01*
X488798Y297298D01*
Y299797D02*
Y301463D01*
Y300630D01*
X483800D01*
Y299797D01*
Y301463D01*
Y303962D02*
X488798D01*
X483800Y307294D01*
X488798D01*
M02*
