G04*
G04 #@! TF.GenerationSoftware,Altium Limited,Altium Designer,26.4.1 (12)*
G04*
G04 Layer_Color=8421504*
%FSLAX25Y25*%
%MOIN*%
G70*
G04*
G04 #@! TF.SameCoordinates,846061B1-5B2C-41D3-B643-472A16EF9E25*
G04*
G04*
G04 #@! TF.FilePolarity,Positive*
G04*
G01*
G75*
%ADD19C,0.03200*%
%ADD20R,0.05755X0.02200*%
%ADD21R,0.09000X0.09000*%
%ADD22R,0.02756X0.02756*%
%ADD23R,0.03197X0.02593*%
%ADD24R,0.02593X0.03197*%
%ADD25R,0.01100X0.02978*%
%ADD26R,0.02756X0.02756*%
%ADD27R,0.03960X0.05151*%
G04:AMPARAMS|DCode=28|XSize=61.81mil|YSize=9.45mil|CornerRadius=1.18mil|HoleSize=0mil|Usage=FLASHONLY|Rotation=90.000|XOffset=0mil|YOffset=0mil|HoleType=Round|Shape=RoundedRectangle|*
%AMROUNDEDRECTD28*
21,1,0.06181,0.00709,0,0,90.0*
21,1,0.05945,0.00945,0,0,90.0*
1,1,0.00236,0.00354,0.02972*
1,1,0.00236,0.00354,-0.02972*
1,1,0.00236,-0.00354,-0.02972*
1,1,0.00236,-0.00354,0.02972*
%
%ADD28ROUNDEDRECTD28*%
%ADD29R,0.03150X0.03150*%
%ADD30R,0.02400X0.04700*%
%ADD31R,0.02600X0.00800*%
%ADD32R,0.03175X0.03379*%
%ADD33R,0.03379X0.03175*%
%ADD34R,0.01181X0.01181*%
%ADD35R,0.09449X0.09449*%
%ADD36R,0.05000X0.02850*%
%ADD37R,0.03366X0.03568*%
G04:AMPARAMS|DCode=38|XSize=38.19mil|YSize=20.87mil|CornerRadius=2.61mil|HoleSize=0mil|Usage=FLASHONLY|Rotation=180.000|XOffset=0mil|YOffset=0mil|HoleType=Round|Shape=RoundedRectangle|*
%AMROUNDEDRECTD38*
21,1,0.03819,0.01565,0,0,180.0*
21,1,0.03297,0.02087,0,0,180.0*
1,1,0.00522,-0.01649,0.00783*
1,1,0.00522,0.01649,0.00783*
1,1,0.00522,0.01649,-0.00783*
1,1,0.00522,-0.01649,-0.00783*
%
%ADD38ROUNDEDRECTD38*%
%ADD39R,0.03200X0.04100*%
%ADD40R,0.04355X0.03773*%
%ADD41R,0.03174X0.03379*%
G36*
X190200Y357425D02*
X186200D01*
Y358500D01*
X170000D01*
Y357425D01*
X166000D01*
Y371000D01*
X190200D01*
Y357425D01*
D02*
G37*
G36*
Y339000D02*
X166000D01*
Y352575D01*
X170000D01*
Y351500D01*
X186200D01*
Y352575D01*
X190200D01*
Y339000D01*
D02*
G37*
G36*
Y314425D02*
X186200D01*
Y315500D01*
X170000D01*
Y314425D01*
X166000D01*
Y328000D01*
X190200D01*
Y314425D01*
D02*
G37*
G36*
Y296000D02*
X166000D01*
Y309575D01*
X170000D01*
Y308500D01*
X186200D01*
Y309575D01*
X190200D01*
Y296000D01*
D02*
G37*
G36*
X515779Y300799D02*
X511779D01*
Y301874D01*
X495579D01*
Y300799D01*
X491579D01*
Y314374D01*
X515779D01*
Y300799D01*
D02*
G37*
G36*
Y282374D02*
X491579D01*
Y295949D01*
X495579D01*
Y294874D01*
X511779D01*
Y295949D01*
X515779D01*
Y282374D01*
D02*
G37*
G36*
X190200Y271425D02*
X186200D01*
Y272500D01*
X170000D01*
Y271425D01*
X166000D01*
Y285000D01*
X190200D01*
Y271425D01*
D02*
G37*
G36*
Y253000D02*
X166000D01*
Y266575D01*
X170000D01*
Y265500D01*
X186200D01*
Y266575D01*
X190200D01*
Y253000D01*
D02*
G37*
G36*
Y228425D02*
X186200D01*
Y229500D01*
X170000D01*
Y228425D01*
X166000D01*
Y242000D01*
X190200D01*
Y228425D01*
D02*
G37*
G36*
Y210000D02*
X166000D01*
Y223575D01*
X170000D01*
Y222500D01*
X186200D01*
Y223575D01*
X190200D01*
Y210000D01*
D02*
G37*
D19*
X420000Y281000D02*
D03*
X431612Y275888D02*
D03*
X439500Y276000D02*
D03*
X445437Y277063D02*
D03*
X361150Y261350D02*
D03*
X390508Y239508D02*
D03*
X390500Y246000D02*
D03*
X432450Y251550D02*
D03*
X370000Y268500D02*
D03*
X411016Y255984D02*
D03*
X378500Y271000D02*
D03*
X416701Y270799D02*
D03*
X469236Y350303D02*
D03*
X420000Y350500D02*
D03*
X452838Y338752D02*
D03*
X463026Y232748D02*
D03*
X427550Y204752D02*
D03*
X368000Y228500D02*
D03*
D20*
X452574Y368433D02*
D03*
Y363433D02*
D03*
Y358433D02*
D03*
Y353433D02*
D03*
X431119D02*
D03*
Y358433D02*
D03*
Y363433D02*
D03*
Y368433D02*
D03*
D21*
X441847Y360933D02*
D03*
D22*
X326822Y346756D02*
D03*
Y341244D02*
D03*
X334318Y346756D02*
D03*
Y341244D02*
D03*
X351500Y346756D02*
D03*
Y341244D02*
D03*
X358996Y346756D02*
D03*
Y341244D02*
D03*
X362496Y240244D02*
D03*
Y245756D02*
D03*
X355000Y240244D02*
D03*
Y245756D02*
D03*
X337496Y240244D02*
D03*
Y245756D02*
D03*
X330000Y240244D02*
D03*
Y245756D02*
D03*
X378802Y228409D02*
D03*
Y233921D02*
D03*
Y210054D02*
D03*
X426000Y226012D02*
D03*
X461000Y348500D02*
D03*
X309571Y270104D02*
D03*
X310904Y315569D02*
D03*
X303408Y315451D02*
D03*
Y309939D02*
D03*
X310904Y310058D02*
D03*
X309571Y275615D02*
D03*
X461000Y354012D02*
D03*
X426000Y220500D02*
D03*
X378802Y215566D02*
D03*
D23*
X457500Y227664D02*
D03*
Y222336D02*
D03*
X426000Y215164D02*
D03*
Y209836D02*
D03*
X417000Y244664D02*
D03*
Y239336D02*
D03*
D24*
X371500Y221500D02*
D03*
X366172D02*
D03*
D25*
X385047Y228189D02*
D03*
X387016D02*
D03*
X388984D02*
D03*
X390953D02*
D03*
Y215811D02*
D03*
X388984D02*
D03*
X387016D02*
D03*
X385047D02*
D03*
X414953D02*
D03*
X409047D02*
D03*
X411016D02*
D03*
X412984D02*
D03*
X414953Y228189D02*
D03*
X412984D02*
D03*
X411016D02*
D03*
X409047D02*
D03*
D26*
X361244Y202000D02*
D03*
X366756D02*
D03*
Y209500D02*
D03*
X361244D02*
D03*
X398244Y215500D02*
D03*
Y228000D02*
D03*
X427000Y243000D02*
D03*
X447244Y345000D02*
D03*
X414369Y357086D02*
D03*
X406988Y379500D02*
D03*
Y372004D02*
D03*
X482512Y367000D02*
D03*
X482927Y375023D02*
D03*
X358302Y319764D02*
D03*
X367256Y293000D02*
D03*
X361744D02*
D03*
X352790Y319764D02*
D03*
X477415Y375023D02*
D03*
X477000Y367000D02*
D03*
X412500Y372004D02*
D03*
Y379500D02*
D03*
X419881Y357086D02*
D03*
X452756Y345000D02*
D03*
X432512Y243000D02*
D03*
X403756Y228000D02*
D03*
Y215500D02*
D03*
D27*
X469098Y358028D02*
D03*
X474816D02*
D03*
X429530Y377308D02*
D03*
X423812D02*
D03*
D28*
X435988Y233299D02*
D03*
X450161D02*
D03*
Y210701D02*
D03*
X448587D02*
D03*
X432839D02*
D03*
X434413D02*
D03*
X435988D02*
D03*
X437563D02*
D03*
X439138D02*
D03*
X440713D02*
D03*
X442287D02*
D03*
X443862D02*
D03*
X445437D02*
D03*
X447012D02*
D03*
X448587Y233299D02*
D03*
X447012D02*
D03*
X445437D02*
D03*
X443862D02*
D03*
X442287D02*
D03*
X440713D02*
D03*
X439138D02*
D03*
X437563D02*
D03*
X434413D02*
D03*
X432839D02*
D03*
D29*
X369024Y395339D02*
D03*
X374929D02*
D03*
D30*
X206150Y312000D02*
D03*
Y226000D02*
D03*
Y355000D02*
D03*
Y269000D02*
D03*
D31*
X202300Y309400D02*
D03*
Y314600D02*
D03*
Y223400D02*
D03*
Y228600D02*
D03*
Y352400D02*
D03*
Y357600D02*
D03*
Y266400D02*
D03*
Y271600D02*
D03*
Y269000D02*
D03*
X210000Y266400D02*
D03*
Y269000D02*
D03*
Y271600D02*
D03*
X202300Y355000D02*
D03*
X210000Y352400D02*
D03*
Y355000D02*
D03*
Y357600D02*
D03*
X202300Y226000D02*
D03*
X210000Y223400D02*
D03*
Y226000D02*
D03*
Y228600D02*
D03*
X202300Y312000D02*
D03*
X210000Y309400D02*
D03*
Y312000D02*
D03*
Y314600D02*
D03*
D32*
X357845Y311677D02*
D03*
X352917D02*
D03*
D33*
X317657Y270685D02*
D03*
X318991Y315142D02*
D03*
Y310214D02*
D03*
X317657Y275613D02*
D03*
D34*
X329189Y300342D02*
D03*
Y294437D02*
D03*
Y292469D02*
D03*
Y290500D02*
D03*
Y288531D02*
D03*
Y286563D02*
D03*
Y280658D02*
D03*
X352811Y296406D02*
D03*
Y300342D02*
D03*
Y302311D02*
D03*
X331157Y278689D02*
D03*
X337063D02*
D03*
X339032D02*
D03*
X348874D02*
D03*
Y302311D02*
D03*
X339032D02*
D03*
X337063D02*
D03*
X331157D02*
D03*
X346905Y278689D02*
D03*
X344937D02*
D03*
X342969D02*
D03*
X341000D02*
D03*
X329189Y302311D02*
D03*
Y298374D02*
D03*
Y296406D02*
D03*
Y284594D02*
D03*
Y282626D02*
D03*
Y278689D02*
D03*
X352811D02*
D03*
Y280658D02*
D03*
Y282626D02*
D03*
Y284594D02*
D03*
Y286563D02*
D03*
Y288531D02*
D03*
Y290500D02*
D03*
Y292469D02*
D03*
Y294437D02*
D03*
Y298374D02*
D03*
X333126Y278689D02*
D03*
X335094D02*
D03*
X350842D02*
D03*
Y302311D02*
D03*
X346905D02*
D03*
X344937D02*
D03*
X342969D02*
D03*
X341000D02*
D03*
X335094D02*
D03*
X333126D02*
D03*
D35*
X335784Y295717D02*
D03*
X346217D02*
D03*
X335784Y285283D02*
D03*
X346217D02*
D03*
D36*
X513279Y298374D02*
D03*
X168500Y269000D02*
D03*
Y355000D02*
D03*
Y226000D02*
D03*
Y312000D02*
D03*
D37*
X390463Y253000D02*
D03*
X385537D02*
D03*
D38*
X394000Y261350D02*
D03*
Y264500D02*
D03*
Y267650D02*
D03*
Y270799D02*
D03*
X387110D02*
D03*
Y267650D02*
D03*
Y264500D02*
D03*
Y261350D02*
D03*
D39*
X452500Y377500D02*
D03*
X465500D02*
D03*
D40*
X465330Y368095D02*
D03*
X460007D02*
D03*
D41*
X374867Y387500D02*
D03*
X370133D02*
D03*
M02*
