G04*
G04 #@! TF.GenerationSoftware,Altium Limited,Altium Designer,26.4.1 (12)*
G04*
G04 Layer_Color=16711935*
%FSLAX25Y25*%
%MOIN*%
G70*
G04*
G04 #@! TF.SameCoordinates,846061B1-5B2C-41D3-B643-472A16EF9E25*
G04*
G04*
G04 #@! TF.FilePolarity,Negative*
G04*
G01*
G75*
%ADD49C,0.07099*%
%ADD50C,0.03387*%
%ADD51C,0.18110*%
G04:AMPARAMS|DCode=52|XSize=70.99mil|YSize=70.99mil|CornerRadius=19.75mil|HoleSize=0mil|Usage=FLASHONLY|Rotation=180.000|XOffset=0mil|YOffset=0mil|HoleType=Round|Shape=RoundedRectangle|*
%AMROUNDEDRECTD52*
21,1,0.07099,0.03150,0,0,180.0*
21,1,0.03150,0.07099,0,0,180.0*
1,1,0.03950,-0.01575,0.01575*
1,1,0.03950,0.01575,0.01575*
1,1,0.03950,0.01575,-0.01575*
1,1,0.03950,-0.01575,-0.01575*
%
%ADD52ROUNDEDRECTD52*%
G36*
X190200Y339000D02*
X166000D01*
Y371000D01*
X190200D01*
Y339000D01*
D02*
G37*
G36*
Y296000D02*
X166000D01*
Y328000D01*
X190200D01*
Y296000D01*
D02*
G37*
G36*
X515779Y282374D02*
X491579D01*
Y314374D01*
X515779D01*
Y282374D01*
D02*
G37*
G36*
X190200Y253000D02*
X166000D01*
Y285000D01*
X190200D01*
Y253000D01*
D02*
G37*
G36*
Y210000D02*
X166000D01*
Y242000D01*
X190200D01*
Y210000D01*
D02*
G37*
D49*
X271000Y190500D02*
D03*
X409953Y390500D02*
D03*
X419953D02*
D03*
X346823Y190500D02*
D03*
X251000D02*
D03*
X311000D02*
D03*
X291000D02*
D03*
X336000Y390500D02*
D03*
X276000D02*
D03*
X296000D02*
D03*
X316000D02*
D03*
X261000Y190500D02*
D03*
X281000D02*
D03*
X301000D02*
D03*
X439953Y390500D02*
D03*
X429953D02*
D03*
X376823Y190500D02*
D03*
X406823D02*
D03*
X426823D02*
D03*
X446823D02*
D03*
X436823D02*
D03*
X416823D02*
D03*
X396823D02*
D03*
X386823D02*
D03*
X366823D02*
D03*
X356823D02*
D03*
X286000Y390500D02*
D03*
X306000D02*
D03*
X326000D02*
D03*
D50*
X168500Y316200D02*
D03*
X173500Y317000D02*
D03*
X178500D02*
D03*
X183500D02*
D03*
Y307000D02*
D03*
X178500D02*
D03*
X173500D02*
D03*
X168500Y307800D02*
D03*
X188500D02*
D03*
Y316200D02*
D03*
X168500Y230200D02*
D03*
X173500Y231000D02*
D03*
X178500D02*
D03*
X183500D02*
D03*
Y221000D02*
D03*
X178500D02*
D03*
X173500D02*
D03*
X168500Y221800D02*
D03*
X188500D02*
D03*
Y230200D02*
D03*
X168500Y359200D02*
D03*
X173500Y360000D02*
D03*
X178500D02*
D03*
X183500D02*
D03*
Y350000D02*
D03*
X178500D02*
D03*
X173500D02*
D03*
X168500Y350800D02*
D03*
X188500D02*
D03*
Y359200D02*
D03*
X168500Y273200D02*
D03*
X173500Y274000D02*
D03*
X178500D02*
D03*
X183500D02*
D03*
Y264000D02*
D03*
X178500D02*
D03*
X173500D02*
D03*
X168500Y264800D02*
D03*
X188500D02*
D03*
Y273200D02*
D03*
X513279Y294174D02*
D03*
X508280Y293374D02*
D03*
X503279D02*
D03*
X498279D02*
D03*
Y303374D02*
D03*
X503279D02*
D03*
X508280D02*
D03*
X513279Y302574D02*
D03*
X493280D02*
D03*
Y294174D02*
D03*
D51*
X491000Y390500D02*
D03*
X191000D02*
D03*
X491000Y190500D02*
D03*
X191000D02*
D03*
D52*
X321000D02*
D03*
X449953Y390500D02*
D03*
X456823Y190500D02*
D03*
X266000Y390500D02*
D03*
M02*
