G04*
G04 #@! TF.GenerationSoftware,Altium Limited,Altium Designer,26.4.1 (12)*
G04*
G04 Layer_Physical_Order=1*
G04 Layer_Color=255*
%FSLAX25Y25*%
%MOIN*%
G70*
G04*
G04 #@! TF.SameCoordinates,846061B1-5B2C-41D3-B643-472A16EF9E25*
G04*
G04*
G04 #@! TF.FilePolarity,Positive*
G04*
G01*
G75*
%ADD10C,0.02000*%
%ADD11C,0.01000*%
%ADD18C,0.00800*%
%ADD19C,0.03200*%
%ADD20R,0.05755X0.02200*%
%ADD21R,0.09000X0.09000*%
%ADD22R,0.02756X0.02756*%
%ADD23R,0.03197X0.02593*%
%ADD24R,0.02593X0.03197*%
%ADD25R,0.01100X0.02978*%
%ADD26R,0.02756X0.02756*%
%ADD27R,0.03960X0.05151*%
G04:AMPARAMS|DCode=28|XSize=61.81mil|YSize=9.45mil|CornerRadius=1.18mil|HoleSize=0mil|Usage=FLASHONLY|Rotation=90.000|XOffset=0mil|YOffset=0mil|HoleType=Round|Shape=RoundedRectangle|*
%AMROUNDEDRECTD28*
21,1,0.06181,0.00709,0,0,90.0*
21,1,0.05945,0.00945,0,0,90.0*
1,1,0.00236,0.00354,0.02972*
1,1,0.00236,0.00354,-0.02972*
1,1,0.00236,-0.00354,-0.02972*
1,1,0.00236,-0.00354,0.02972*
%
%ADD28ROUNDEDRECTD28*%
%ADD29R,0.03150X0.03150*%
%ADD30R,0.02400X0.04700*%
%ADD31R,0.02600X0.00800*%
%ADD32R,0.03175X0.03379*%
%ADD33R,0.03379X0.03175*%
%ADD34R,0.01181X0.01181*%
%ADD35R,0.09449X0.09449*%
%ADD36R,0.05000X0.02850*%
%ADD37R,0.03366X0.03568*%
G04:AMPARAMS|DCode=38|XSize=38.19mil|YSize=20.87mil|CornerRadius=2.61mil|HoleSize=0mil|Usage=FLASHONLY|Rotation=180.000|XOffset=0mil|YOffset=0mil|HoleType=Round|Shape=RoundedRectangle|*
%AMROUNDEDRECTD38*
21,1,0.03819,0.01565,0,0,180.0*
21,1,0.03297,0.02087,0,0,180.0*
1,1,0.00522,-0.01649,0.00783*
1,1,0.00522,0.01649,0.00783*
1,1,0.00522,0.01649,-0.00783*
1,1,0.00522,-0.01649,-0.00783*
%
%ADD38ROUNDEDRECTD38*%
%ADD39R,0.03200X0.04100*%
%ADD40R,0.04355X0.03773*%
%ADD41R,0.03174X0.03379*%
%ADD42C,0.01146*%
%ADD43C,0.01146*%
%ADD48C,0.02254*%
%ADD51C,0.18110*%
%ADD53R,0.03937X0.03937*%
%ADD54C,0.01181*%
%ADD55R,0.07355X0.08800*%
%ADD56R,0.05300X0.04075*%
%ADD57R,0.05800X0.04075*%
%ADD58R,0.05800X0.04575*%
%ADD59R,0.06800X0.05075*%
%ADD60R,0.06300X0.04575*%
%ADD61R,0.05800X0.05075*%
%ADD62R,0.05300X0.04575*%
%ADD63R,0.16797X0.09467*%
%ADD64R,0.08550X0.19150*%
%ADD65R,0.13184X0.04500*%
%ADD66R,0.16593X0.15500*%
%ADD67R,0.19500X0.20000*%
%ADD68C,0.06299*%
%ADD69C,0.02587*%
G04:AMPARAMS|DCode=70|XSize=62.99mil|YSize=62.99mil|CornerRadius=15.75mil|HoleSize=0mil|Usage=FLASHONLY|Rotation=180.000|XOffset=0mil|YOffset=0mil|HoleType=Round|Shape=RoundedRectangle|*
%AMROUNDEDRECTD70*
21,1,0.06299,0.03150,0,0,180.0*
21,1,0.03150,0.06299,0,0,180.0*
1,1,0.03150,-0.01575,0.01575*
1,1,0.03150,0.01575,0.01575*
1,1,0.03150,0.01575,-0.01575*
1,1,0.03150,-0.01575,-0.01575*
%
%ADD70ROUNDEDRECTD70*%
%ADD71C,0.02500*%
G36*
X494673Y415259D02*
X497082Y414780D01*
X499432Y414067D01*
X501702Y413127D01*
X503868Y411969D01*
X505910Y410604D01*
X507809Y409046D01*
X509546Y407309D01*
X511104Y405410D01*
X512469Y403368D01*
X513627Y401202D01*
X514567Y398932D01*
X515280Y396582D01*
X515759Y394173D01*
X516000Y391728D01*
Y390500D01*
Y303568D01*
X515779Y303524D01*
Y300799D01*
X511779D01*
Y301874D01*
X495579D01*
Y300799D01*
X491613D01*
X491423Y300339D01*
X355279Y300339D01*
X355002Y300284D01*
X354426Y300703D01*
X354402Y300772D01*
Y301811D01*
X352811D01*
Y302311D01*
X352311D01*
Y303902D01*
X352168D01*
Y304794D01*
X353728Y306353D01*
X354015Y306783D01*
X354116Y307290D01*
Y309188D01*
X355257D01*
Y308988D01*
X357345D01*
Y311677D01*
Y314367D01*
X355257D01*
X355257Y314367D01*
X355257Y314367D01*
X355156Y314408D01*
X355094Y314472D01*
X354859Y315132D01*
X355050Y315592D01*
Y316408D01*
X354811Y316986D01*
X354968Y317586D01*
X354968D01*
Y321942D01*
X350612D01*
Y317586D01*
X350838D01*
X350962Y317462D01*
X351189Y316986D01*
X350950Y316408D01*
Y315592D01*
X351262Y314839D01*
X351334Y314767D01*
X351086Y314167D01*
X350529D01*
Y309188D01*
X351465D01*
Y307839D01*
X349905Y306280D01*
X349618Y305850D01*
X349517Y305343D01*
Y303902D01*
X349374D01*
Y302311D01*
X348374D01*
Y303902D01*
X348294D01*
Y322916D01*
X348278Y322997D01*
X348466Y324422D01*
X349047Y325824D01*
X349613Y326562D01*
X349970Y326973D01*
X350378Y327162D01*
X350506Y327215D01*
X351105Y327224D01*
X351962D01*
Y327210D01*
X353211Y327374D01*
X354376Y327857D01*
X355376Y328624D01*
X355366Y328634D01*
X356128Y329397D01*
X356140Y329385D01*
X356953Y330444D01*
X357464Y331677D01*
X357638Y333000D01*
X357621D01*
Y334000D01*
X357626D01*
X357697Y334356D01*
X357899Y334658D01*
X357895Y334662D01*
X359450Y336217D01*
X359451Y336216D01*
X359964Y336885D01*
X360287Y337664D01*
X360397Y338500D01*
X360397Y338500D01*
X360478Y339066D01*
X361174D01*
Y343422D01*
X356818D01*
Y339066D01*
X357586D01*
X357590Y339042D01*
X357596Y338976D01*
Y338500D01*
X357599Y338483D01*
X357485Y338206D01*
X357470Y338196D01*
X355915Y336641D01*
X355912Y336645D01*
X355626Y336273D01*
X354870D01*
X354585Y336645D01*
X354581Y336641D01*
X353026Y338196D01*
X353011Y338206D01*
X352896Y338483D01*
X352900Y338500D01*
Y338976D01*
X352906Y339042D01*
X352910Y339066D01*
X353678D01*
Y343422D01*
X349322D01*
Y339066D01*
X350018D01*
X350099Y338500D01*
X350099D01*
X350209Y337664D01*
X350532Y336885D01*
X351045Y336216D01*
X351046Y336217D01*
X352601Y334662D01*
X352597Y334658D01*
X352598Y334658D01*
X352799Y334356D01*
X352870Y334000D01*
X352875D01*
Y333000D01*
X352876Y332994D01*
X352778Y332756D01*
X352772Y332752D01*
X352429Y332408D01*
X351996Y332004D01*
X351962Y331989D01*
X351370Y331970D01*
X350506D01*
Y331990D01*
X349084Y331803D01*
X347758Y331254D01*
X346620Y330380D01*
X346630Y330370D01*
X345556Y329112D01*
X344692Y327702D01*
X344059Y326174D01*
X343673Y324565D01*
X343543Y322916D01*
X343478Y322869D01*
X343428Y322850D01*
X342699Y323013D01*
X341820Y324447D01*
X340458Y326042D01*
X340448Y326031D01*
X340448Y326031D01*
X333271Y333209D01*
X333272Y333210D01*
X333103Y333463D01*
X332951Y334000D01*
X333009Y334290D01*
X333173Y334535D01*
X333167Y334541D01*
X333167Y334541D01*
X334772Y336146D01*
X334773Y336146D01*
X335286Y336815D01*
X335609Y337594D01*
X335719Y338430D01*
X335719D01*
X335723Y339028D01*
X335724Y339042D01*
X335728Y339066D01*
X336496D01*
Y343422D01*
X332140D01*
Y339066D01*
X332908D01*
X332912Y339042D01*
X332918Y338976D01*
Y338430D01*
X332922Y338413D01*
X332807Y338136D01*
X332792Y338126D01*
X331188Y336521D01*
X331187Y336521D01*
X331185Y336524D01*
X330948Y336215D01*
X330192D01*
X329955Y336524D01*
X329953Y336521D01*
X329953Y336521D01*
X328348Y338126D01*
X328333Y338136D01*
X328219Y338413D01*
X328222Y338430D01*
Y338976D01*
X328228Y339042D01*
X328232Y339066D01*
X329000D01*
Y343422D01*
X324644D01*
Y339066D01*
X325412D01*
X325416Y339042D01*
X325418Y339028D01*
X325421Y338430D01*
X325421D01*
X325532Y337594D01*
X325854Y336815D01*
X326367Y336146D01*
X326368Y336146D01*
X327973Y334541D01*
X327973Y334541D01*
X327967Y334535D01*
X328131Y334290D01*
X328189Y334000D01*
X328196D01*
X328309Y332856D01*
X328642Y331755D01*
X329184Y330741D01*
X329914Y329853D01*
X329915Y329854D01*
X336668Y323100D01*
X337092Y322676D01*
X337478Y322235D01*
X338177Y321383D01*
X338974Y319893D01*
X339464Y318276D01*
X339624Y316656D01*
X339611Y316595D01*
Y303902D01*
X339531D01*
Y302311D01*
X338531D01*
Y303902D01*
X337563D01*
Y302311D01*
X336563D01*
Y303902D01*
X336483D01*
Y311794D01*
X336483Y312385D01*
X336485D01*
X336485Y312386D01*
X336494Y312403D01*
X336495Y312405D01*
X336495Y312405D01*
X336440Y312967D01*
X336334Y314036D01*
X335853Y315625D01*
X335070Y317088D01*
X334380Y317929D01*
X334021Y318367D01*
X334013Y318382D01*
X334011Y318385D01*
X333574Y318795D01*
X297792Y354577D01*
X297370Y355000D01*
X297370Y355000D01*
X297383Y355013D01*
X296942Y355393D01*
X296941Y355394D01*
X296937Y355397D01*
X296833Y355466D01*
X296833Y355466D01*
X296833Y355466D01*
X296828Y355470D01*
X296369Y355838D01*
X296144Y356022D01*
X294746Y356769D01*
X293229Y357229D01*
X292239Y357327D01*
X291674Y357383D01*
X291673Y357383D01*
X291664Y357384D01*
X291659Y357384D01*
X291059Y357373D01*
X252790D01*
Y357384D01*
X252675Y357431D01*
X252628Y357546D01*
X252617D01*
Y359733D01*
X252632D01*
X252464Y361010D01*
X251971Y362200D01*
X251187Y363222D01*
X250165Y364006D01*
X248975Y364499D01*
X247698Y364667D01*
X246421Y364499D01*
X245231Y364006D01*
X244209Y363222D01*
X243425Y362200D01*
X242932Y361010D01*
X242764Y359733D01*
X242779D01*
Y357546D01*
X242768D01*
X242721Y357431D01*
X242606Y357384D01*
Y357373D01*
X215289D01*
X215262Y357367D01*
X215066Y357449D01*
X214627Y357836D01*
X214627Y357836D01*
X213799Y358472D01*
X212835Y358871D01*
X211800Y359007D01*
Y359000D01*
X211264Y358893D01*
X211160Y358823D01*
X210000D01*
X209882Y358800D01*
X207900D01*
Y358350D01*
X206650D01*
Y355000D01*
Y351650D01*
X207900D01*
Y351200D01*
X209882D01*
X210000Y351177D01*
X211160D01*
X211264Y351107D01*
X211800Y351000D01*
Y350993D01*
X211800Y350993D01*
X212835Y351129D01*
X213799Y351528D01*
X214627Y352164D01*
X214622Y352169D01*
X215049Y352596D01*
X215124Y352627D01*
X242606D01*
Y352612D01*
X243883Y352780D01*
X245073Y353273D01*
X246095Y354057D01*
X246879Y355079D01*
X247372Y356269D01*
X247395Y356446D01*
X248001D01*
X248024Y356269D01*
X248517Y355079D01*
X249301Y354057D01*
X250323Y353273D01*
X251513Y352780D01*
X252790Y352612D01*
Y352627D01*
X291063D01*
X291663Y352581D01*
X291664Y352581D01*
X291665Y352582D01*
X292252Y352553D01*
X292514Y352519D01*
X293319Y352186D01*
X293777Y351812D01*
X293780Y351810D01*
X294224Y351432D01*
X294438Y351220D01*
X297329Y348329D01*
X299356Y346302D01*
X299034Y345882D01*
X298773Y345251D01*
X298683Y344573D01*
X298773Y343895D01*
X299034Y343264D01*
X299409Y342775D01*
X299447Y342718D01*
X299447Y342718D01*
X299447Y342718D01*
X299447Y342718D01*
X299460Y342708D01*
X299913Y342366D01*
X299992Y342305D01*
X300624Y342044D01*
X301302Y341954D01*
X301979Y342044D01*
X302611Y342305D01*
X303030Y342627D01*
X318897Y326761D01*
X330227Y315430D01*
X330642Y315015D01*
X330642Y315015D01*
X330641Y315014D01*
X330651Y315006D01*
X331008Y314556D01*
X331248Y314242D01*
X331619Y313346D01*
X331741Y312420D01*
X331737Y312399D01*
X331737Y312384D01*
X331737Y312384D01*
Y303902D01*
X331658D01*
Y302311D01*
X330658D01*
Y303902D01*
X329567D01*
Y303702D01*
X327798D01*
Y303637D01*
X323238D01*
X320325Y306549D01*
Y307826D01*
X321480D01*
Y312554D01*
X321680D01*
Y314642D01*
X318991D01*
X316301D01*
Y312554D01*
X316501D01*
Y311383D01*
X313082D01*
Y312235D01*
X308726D01*
Y311324D01*
X305586D01*
Y312117D01*
X301230D01*
Y311265D01*
X299634D01*
X299222Y311677D01*
X298468Y311989D01*
X297653D01*
X296899Y311677D01*
X296323Y311101D01*
X296011Y310347D01*
Y309532D01*
X296323Y308778D01*
X296899Y308202D01*
X297653Y307889D01*
X298468D01*
X299222Y308202D01*
X299634Y308614D01*
X301230D01*
Y307762D01*
X305586D01*
Y308673D01*
X308726D01*
Y307880D01*
X313082D01*
Y308732D01*
X316501D01*
Y307826D01*
X317674D01*
Y306000D01*
X317775Y305493D01*
X318063Y305063D01*
X321752Y301374D01*
X322182Y301086D01*
X322689Y300986D01*
X327598D01*
Y300842D01*
X329189D01*
Y299843D01*
X327598D01*
Y299751D01*
X289512D01*
X288921Y299780D01*
X288348Y299874D01*
X287739Y300126D01*
X287618Y300220D01*
X287170Y300587D01*
X287168Y300591D01*
X287154Y300578D01*
X286733Y300998D01*
X275620Y312112D01*
X275619Y312115D01*
X275624Y312121D01*
X274460Y313076D01*
X273119Y313793D01*
X271664Y314234D01*
X270151Y314383D01*
Y314373D01*
X270151Y314373D01*
X258414D01*
Y314384D01*
X258299Y314431D01*
X258252Y314546D01*
X258241D01*
Y319453D01*
X258256D01*
X258088Y320730D01*
X257595Y321920D01*
X256811Y322942D01*
X255789Y323726D01*
X254599Y324219D01*
X253322Y324387D01*
X252045Y324219D01*
X250855Y323726D01*
X249833Y322942D01*
X249049Y321920D01*
X248556Y320730D01*
X248533Y320553D01*
X247927D01*
X247904Y320731D01*
X247411Y321921D01*
X246627Y322943D01*
X245605Y323727D01*
X244415Y324220D01*
X243138Y324388D01*
X241861Y324220D01*
X240671Y323727D01*
X239649Y322943D01*
X238865Y321921D01*
X238372Y320731D01*
X238204Y319454D01*
X238219D01*
Y314546D01*
X238208D01*
X238161Y314431D01*
X238046Y314384D01*
Y314373D01*
X215289D01*
X215262Y314368D01*
X215066Y314449D01*
X214627Y314836D01*
X214627Y314836D01*
X213799Y315472D01*
X212835Y315871D01*
X211800Y316007D01*
Y316000D01*
X211264Y315893D01*
X211160Y315824D01*
X210000D01*
X209882Y315800D01*
X207900D01*
Y315350D01*
X206650D01*
Y312000D01*
Y308650D01*
X207900D01*
Y308200D01*
X209882D01*
X210000Y308176D01*
X211160D01*
X211264Y308107D01*
X211800Y308000D01*
Y307993D01*
X211800Y307993D01*
X212835Y308129D01*
X213799Y308528D01*
X214627Y309164D01*
X214622Y309169D01*
X215049Y309596D01*
X215124Y309627D01*
X238046D01*
Y309612D01*
X239323Y309780D01*
X240513Y310273D01*
X241535Y311057D01*
X242319Y312079D01*
X242711Y313025D01*
X243311Y312906D01*
Y310322D01*
X243296D01*
X243464Y309045D01*
X243957Y307855D01*
X244741Y306834D01*
X245763Y306049D01*
X246953Y305556D01*
X248230Y305388D01*
X249507Y305556D01*
X250697Y306049D01*
X251719Y306834D01*
X252503Y307855D01*
X252996Y309045D01*
X253164Y310322D01*
X253149D01*
Y312906D01*
X253749Y313025D01*
X254141Y312079D01*
X254925Y311057D01*
X255947Y310273D01*
X257137Y309780D01*
X258414Y309612D01*
Y309627D01*
X269561D01*
X270151Y309627D01*
X270151Y309625D01*
X270160Y309627D01*
X270728Y309554D01*
X270928Y309527D01*
X271652Y309228D01*
X272265Y308757D01*
X272268Y308752D01*
X283790Y297231D01*
X283790Y297219D01*
X283796Y297211D01*
X283825Y297187D01*
X284160Y296887D01*
X284253Y296826D01*
X284253Y296826D01*
X284321Y296780D01*
X284942Y296270D01*
X286249Y295572D01*
X287667Y295141D01*
X287976Y295111D01*
X288518Y295049D01*
X288556Y295039D01*
X288556Y295038D01*
X288556Y295038D01*
X288562Y295037D01*
X288633Y295028D01*
X288660Y295024D01*
X288662Y295024D01*
X288663Y295024D01*
X289071Y295001D01*
X289142Y294996D01*
X289142Y294996D01*
X289148Y294997D01*
X289748Y295006D01*
X327598D01*
Y294937D01*
X329189D01*
Y293937D01*
X327598D01*
Y292969D01*
X329189D01*
Y291968D01*
X327598D01*
Y291000D01*
X329189D01*
Y290000D01*
X327598D01*
Y289032D01*
X329189D01*
Y288032D01*
X327598D01*
Y287063D01*
X329189D01*
Y286063D01*
X327598D01*
Y285972D01*
X289090D01*
X289088Y285974D01*
X289079Y285985D01*
X288506Y285929D01*
X287414Y285821D01*
X285805Y285333D01*
X284321Y284540D01*
X283472Y283843D01*
X283021Y283473D01*
X283020Y283472D01*
X282609Y283041D01*
X271863Y272295D01*
X271855Y272283D01*
X271212Y271790D01*
X270455Y271476D01*
X269655Y271371D01*
X269644Y271373D01*
X259914D01*
Y271384D01*
X259799Y271431D01*
X259752Y271546D01*
X259741D01*
Y276454D01*
X259756D01*
X259588Y277731D01*
X259095Y278921D01*
X258311Y279943D01*
X257289Y280727D01*
X256099Y281220D01*
X254822Y281388D01*
X253545Y281220D01*
X252355Y280727D01*
X251333Y279943D01*
X250549Y278921D01*
X250056Y277731D01*
X250033Y277554D01*
X249428D01*
X249404Y277731D01*
X248911Y278921D01*
X248127Y279943D01*
X247105Y280727D01*
X245915Y281220D01*
X244638Y281388D01*
X243361Y281220D01*
X242171Y280727D01*
X241149Y279943D01*
X240365Y278921D01*
X239872Y277731D01*
X239704Y276454D01*
X239719D01*
Y271546D01*
X239708D01*
X239661Y271431D01*
X239546Y271384D01*
Y271373D01*
X215289D01*
X215262Y271368D01*
X215066Y271449D01*
X214627Y271836D01*
X214627Y271836D01*
X213799Y272472D01*
X212835Y272871D01*
X211800Y273007D01*
Y273000D01*
X211264Y272893D01*
X211160Y272824D01*
X210000D01*
X209882Y272800D01*
X207900D01*
Y272350D01*
X206650D01*
Y269000D01*
Y265650D01*
X207900D01*
Y265200D01*
X209882D01*
X210000Y265177D01*
X211160D01*
X211264Y265107D01*
X211800Y265000D01*
Y264993D01*
X211800Y264993D01*
X212835Y265129D01*
X213799Y265528D01*
X214627Y266164D01*
X214622Y266169D01*
X215049Y266596D01*
X215124Y266627D01*
X239546D01*
Y266612D01*
X240823Y266780D01*
X242013Y267273D01*
X243035Y268057D01*
X243819Y269079D01*
X244211Y270025D01*
X244811Y269906D01*
Y268010D01*
X244796D01*
X244964Y266733D01*
X245457Y265543D01*
X246241Y264521D01*
X247263Y263737D01*
X248453Y263244D01*
X249730Y263076D01*
X251007Y263244D01*
X252197Y263737D01*
X253219Y264521D01*
X254003Y265543D01*
X254496Y266733D01*
X254664Y268010D01*
X254649D01*
Y269906D01*
X255249Y270025D01*
X255641Y269079D01*
X256425Y268057D01*
X257447Y267273D01*
X258637Y266780D01*
X259914Y266612D01*
Y266627D01*
X269045D01*
X269641Y266617D01*
X269651Y266616D01*
X270218Y266672D01*
X271187Y266767D01*
X272663Y267215D01*
X274024Y267943D01*
X275216Y268921D01*
X275208Y268928D01*
X275208Y268929D01*
X275778Y269498D01*
X275778Y269498D01*
X285960Y279680D01*
X286383Y280103D01*
X286396Y280090D01*
X286397Y280091D01*
X286841Y280468D01*
X287173Y280723D01*
X288097Y281105D01*
X288499Y281158D01*
X289077Y281209D01*
X289086Y281207D01*
X289091Y281208D01*
X289109Y281226D01*
X289676Y281226D01*
X327598D01*
Y281157D01*
X329189D01*
Y280157D01*
X327598D01*
Y280014D01*
X326189D01*
X325682Y279914D01*
X325252Y279626D01*
X323324Y277699D01*
X322674D01*
X321921Y277386D01*
X321475Y276941D01*
X320147D01*
Y278000D01*
X315168D01*
Y276941D01*
X311749D01*
Y277793D01*
X307393D01*
Y273437D01*
X311749D01*
Y274290D01*
X315168D01*
Y273272D01*
X314968D01*
Y271185D01*
X317657D01*
X320347D01*
Y273272D01*
X320147D01*
Y274290D01*
X321542D01*
X321921Y273911D01*
X322674Y273599D01*
X323490D01*
X324243Y273911D01*
X324820Y274487D01*
X325132Y275241D01*
Y275758D01*
X326738Y277363D01*
X327798D01*
Y277298D01*
X329567D01*
Y277098D01*
X330658D01*
Y278689D01*
X331658D01*
Y277098D01*
X331749D01*
Y269232D01*
X331749Y268642D01*
X331747Y268642D01*
X331748Y268633D01*
X331681Y268062D01*
X331630Y267671D01*
X331255Y266765D01*
X331012Y266449D01*
X330655Y265998D01*
X330646Y265991D01*
X330647Y265990D01*
X330232Y265575D01*
X323372Y258714D01*
X302819Y238162D01*
X302258Y238537D01*
X301362Y238715D01*
X300467Y238537D01*
X299707Y238029D01*
X299707Y238029D01*
X299707Y238029D01*
X299200Y237270D01*
X299022Y236374D01*
X299200Y235478D01*
X299574Y234917D01*
X294425Y229768D01*
X294011Y229354D01*
X294009Y229354D01*
X294002Y229345D01*
X293549Y228991D01*
X293319Y228814D01*
X292514Y228481D01*
X292228Y228443D01*
X291657Y228373D01*
X291643Y228375D01*
Y228373D01*
X254165D01*
Y228384D01*
X254050Y228431D01*
X254003Y228546D01*
X253992D01*
Y230719D01*
X254007D01*
X253839Y231996D01*
X253346Y233186D01*
X252562Y234208D01*
X251540Y234992D01*
X250350Y235485D01*
X249073Y235653D01*
X247796Y235485D01*
X246606Y234992D01*
X245584Y234208D01*
X244800Y233186D01*
X244307Y231996D01*
X244139Y230719D01*
X244154D01*
Y228546D01*
X244143D01*
X244096Y228431D01*
X243981Y228384D01*
Y228373D01*
X215289D01*
X215262Y228367D01*
X215066Y228449D01*
X214627Y228836D01*
X214627Y228836D01*
X213799Y229472D01*
X212835Y229871D01*
X211800Y230007D01*
Y230000D01*
X211264Y229893D01*
X211160Y229823D01*
X210000D01*
X209882Y229800D01*
X207900D01*
Y229350D01*
X206650D01*
Y226000D01*
Y222650D01*
X207900D01*
Y222200D01*
X209882D01*
X210000Y222177D01*
X211160D01*
X211264Y222107D01*
X211800Y222000D01*
Y221993D01*
X211800Y221993D01*
X212835Y222129D01*
X213799Y222528D01*
X214627Y223164D01*
X214622Y223169D01*
X215049Y223596D01*
X215124Y223627D01*
X243981D01*
Y223612D01*
X245258Y223780D01*
X246448Y224273D01*
X247470Y225057D01*
X248254Y226079D01*
X248747Y227269D01*
X248770Y227446D01*
X249376D01*
X249399Y227269D01*
X249892Y226079D01*
X250676Y225057D01*
X251698Y224273D01*
X252888Y223780D01*
X254165Y223612D01*
Y223627D01*
X291643D01*
X291643Y223627D01*
X291654D01*
X291655Y223626D01*
X291655Y223615D01*
X293229Y223770D01*
X294746Y224231D01*
X296144Y224978D01*
X296924Y225618D01*
X297370Y225984D01*
X297375Y225990D01*
X297788Y226419D01*
X333582Y262213D01*
X334012Y262624D01*
X334017Y262629D01*
X334381Y263071D01*
X335075Y263917D01*
X335861Y265388D01*
X336345Y266983D01*
X336508Y268642D01*
X336494D01*
X336494Y268642D01*
Y277098D01*
X336563D01*
Y278689D01*
X337563D01*
Y277098D01*
X338531D01*
Y278689D01*
X339531D01*
Y277098D01*
X339611D01*
Y269000D01*
X339611Y267405D01*
X339624Y267344D01*
X339464Y265724D01*
X338974Y264107D01*
X338177Y262617D01*
X337145Y261359D01*
X337092Y261324D01*
X333134Y257366D01*
X333133Y257367D01*
X332386Y256457D01*
X331830Y255418D01*
X331488Y254291D01*
X331373Y253119D01*
X331373Y253119D01*
X331250Y252570D01*
X331098Y252343D01*
X331097Y252342D01*
X331101Y252339D01*
X329546Y250783D01*
X329545Y250784D01*
X329032Y250115D01*
X328709Y249336D01*
X328599Y248500D01*
X328599Y248500D01*
X328518Y247934D01*
X327822D01*
Y243578D01*
X332178D01*
Y247934D01*
X331410D01*
X331406Y247958D01*
X331400Y248024D01*
Y248500D01*
X331397Y248517D01*
X331511Y248794D01*
X331526Y248803D01*
X333081Y250359D01*
X333085Y250355D01*
X333370Y250727D01*
X334126D01*
X334412Y250355D01*
X334415Y250359D01*
X335970Y248803D01*
X335985Y248794D01*
X336100Y248517D01*
X336096Y248500D01*
Y248024D01*
X336090Y247958D01*
X336086Y247934D01*
X335318D01*
Y243578D01*
X339674D01*
Y247934D01*
X338978D01*
X338897Y248500D01*
X338897D01*
X338787Y249336D01*
X338464Y250115D01*
X337951Y250784D01*
X337950Y250783D01*
X336395Y252339D01*
X336399Y252342D01*
X336398Y252343D01*
X336197Y252644D01*
X336126Y253000D01*
X336204Y253534D01*
X336490Y254010D01*
X336490Y254010D01*
X338240Y255760D01*
X338240Y255760D01*
X340448Y257968D01*
X340458Y257958D01*
X341820Y259553D01*
X342915Y261340D01*
X343718Y263277D01*
X344207Y265316D01*
X344320Y266747D01*
X344932Y266875D01*
X345012Y266725D01*
X346103Y265395D01*
X346114Y265406D01*
X351760Y259760D01*
X356010Y255510D01*
X356010Y255510D01*
X356010Y255510D01*
X356296Y255029D01*
X356376Y254631D01*
X356375Y254629D01*
Y253000D01*
X356370D01*
X356299Y252644D01*
X356098Y252343D01*
X356097Y252342D01*
X356101Y252339D01*
X354546Y250783D01*
X354545Y250784D01*
X354032Y250115D01*
X353709Y249336D01*
X353599Y248500D01*
X353599Y248500D01*
X353518Y247934D01*
X352822D01*
Y243578D01*
X357178D01*
Y247934D01*
X356410D01*
X356406Y247958D01*
X356400Y248024D01*
Y248500D01*
X356397Y248517D01*
X356511Y248794D01*
X356526Y248803D01*
X358081Y250359D01*
X358085Y250355D01*
X358370Y250727D01*
X359126D01*
X359412Y250355D01*
X359415Y250359D01*
X360970Y248803D01*
X360985Y248794D01*
X361100Y248517D01*
X361096Y248500D01*
Y248024D01*
X361090Y247958D01*
X361086Y247934D01*
X360318D01*
Y243578D01*
X364674D01*
Y247934D01*
X363978D01*
X363897Y248500D01*
X363897D01*
X363787Y249336D01*
X363464Y250115D01*
X362951Y250784D01*
X362950Y250783D01*
X361395Y252339D01*
X361399Y252342D01*
X361398Y252343D01*
X361197Y252644D01*
X361126Y253000D01*
X361121D01*
Y254629D01*
X361123D01*
X361008Y255798D01*
X360667Y256923D01*
X360113Y257959D01*
X359367Y258867D01*
X359366Y258866D01*
X355116Y263116D01*
X349470Y268762D01*
X349441Y268782D01*
X348822Y269588D01*
X348420Y270558D01*
X348287Y271566D01*
X348294Y271600D01*
Y277098D01*
X348374D01*
Y278689D01*
X349374D01*
Y277098D01*
X349619D01*
Y271657D01*
X349712Y271189D01*
X349977Y270792D01*
X358806Y261964D01*
X358750Y261828D01*
Y260873D01*
X359115Y259991D01*
X359790Y259316D01*
X360672Y258950D01*
X361627D01*
X362509Y259316D01*
X363184Y259991D01*
X363241Y260127D01*
X384481D01*
X384697Y259803D01*
X385048Y259569D01*
X385462Y259486D01*
X388759D01*
X389197Y258962D01*
Y255584D01*
X383054D01*
Y250416D01*
X384174D01*
Y248574D01*
X383762Y248161D01*
X383450Y247408D01*
Y246592D01*
X383762Y245839D01*
X384339Y245262D01*
X385092Y244950D01*
X385908D01*
X386661Y245262D01*
X387238Y245839D01*
X387500Y246472D01*
X388100Y246352D01*
Y245523D01*
X388465Y244640D01*
X389141Y243965D01*
X390023Y243600D01*
X390977D01*
X391860Y243965D01*
X392172Y244278D01*
X392688Y244070D01*
X392749Y243479D01*
X391121Y241851D01*
X390985Y241908D01*
X390031D01*
X389148Y241543D01*
X388473Y240867D01*
X388108Y239985D01*
Y239031D01*
X388164Y238895D01*
X386151Y236881D01*
X385885Y236484D01*
X385792Y236016D01*
Y230478D01*
X383697D01*
Y229514D01*
X380980D01*
Y230587D01*
X376624D01*
Y229780D01*
X375119D01*
X374661Y230238D01*
X373908Y230550D01*
X373092D01*
X372339Y230238D01*
X371762Y229661D01*
X371450Y228908D01*
Y228092D01*
X371762Y227339D01*
X372339Y226762D01*
X373092Y226450D01*
X373908D01*
X374661Y226762D01*
X375028Y227129D01*
X376624D01*
Y226231D01*
X380980D01*
Y226864D01*
X383697D01*
Y225900D01*
X388886D01*
X389115Y225346D01*
X386493Y222724D01*
X373597D01*
Y223899D01*
X372724D01*
Y225000D01*
X372630Y225468D01*
X372365Y225865D01*
X370344Y227887D01*
X370400Y228023D01*
Y228977D01*
X370035Y229859D01*
X369359Y230535D01*
X368477Y230900D01*
X367523D01*
X366640Y230535D01*
X365965Y229859D01*
X365600Y228977D01*
Y228023D01*
X365965Y227140D01*
X366640Y226465D01*
X367523Y226100D01*
X368477D01*
X368613Y226156D01*
X370271Y224499D01*
X370263Y223899D01*
X369403D01*
Y219101D01*
X373597D01*
Y220276D01*
X387000D01*
X387468Y220370D01*
X387865Y220635D01*
X391818Y224588D01*
X392083Y224985D01*
X392176Y225453D01*
Y225900D01*
X392303D01*
Y230478D01*
X388239D01*
Y235509D01*
X389895Y237164D01*
X390031Y237108D01*
X390985D01*
X391867Y237473D01*
X392543Y238148D01*
X392908Y239031D01*
Y239985D01*
X392851Y240121D01*
X394865Y242135D01*
X395130Y242532D01*
X395223Y243000D01*
Y259486D01*
X395649D01*
X396062Y259569D01*
X396413Y259803D01*
X396648Y260154D01*
X396730Y260568D01*
Y262133D01*
X396716Y262205D01*
X397269Y262501D01*
X398777Y260993D01*
Y258676D01*
X398262Y258161D01*
X397950Y257408D01*
Y256592D01*
X398262Y255839D01*
X398751Y255350D01*
X398665Y254934D01*
X398567Y254750D01*
X398052D01*
X397225Y254408D01*
X396592Y253774D01*
X396272Y253000D01*
X400728D01*
X400408Y253774D01*
X399832Y254350D01*
X399868Y254618D01*
X400016Y254950D01*
X400408D01*
X401161Y255262D01*
X401738Y255839D01*
X402050Y256592D01*
Y257408D01*
X401738Y258161D01*
X401224Y258676D01*
Y261500D01*
X401130Y261968D01*
X400865Y262365D01*
X397865Y265365D01*
X397468Y265630D01*
X397300Y265664D01*
X397083Y266095D01*
X397250Y266406D01*
X397268Y266426D01*
X398844D01*
X408672Y256598D01*
X408616Y256462D01*
Y255507D01*
X408981Y254625D01*
X409656Y253950D01*
X409792Y253893D01*
Y230478D01*
X407697D01*
Y229420D01*
X405934D01*
Y230178D01*
X401578D01*
Y225822D01*
X402303D01*
Y224202D01*
X401762Y223661D01*
X401450Y222908D01*
Y222092D01*
X401762Y221339D01*
X402339Y220762D01*
X403092Y220450D01*
X403908D01*
X404661Y220762D01*
X405238Y221339D01*
X405550Y222092D01*
Y222908D01*
X405238Y223661D01*
X404953Y223946D01*
Y225822D01*
X405934D01*
Y226769D01*
X407697D01*
Y225900D01*
X413729D01*
Y222547D01*
X413822Y222079D01*
X414088Y221682D01*
X416277Y219493D01*
Y218300D01*
X415453D01*
Y215811D01*
X414453D01*
Y218300D01*
X413403D01*
Y218100D01*
X407697D01*
Y216981D01*
X405934D01*
Y217678D01*
X401578D01*
Y213322D01*
X402303D01*
Y207202D01*
X401762Y206661D01*
X401450Y205908D01*
Y205092D01*
X401762Y204339D01*
X402277Y203823D01*
X402236Y203536D01*
X402093Y203223D01*
X391500D01*
X391032Y203130D01*
X390635Y202865D01*
X385958Y198188D01*
X385693Y197791D01*
X385599Y197323D01*
Y194261D01*
X385298Y194180D01*
X384398Y193660D01*
X383662Y192925D01*
X383142Y192025D01*
X382873Y191020D01*
Y189980D01*
X383142Y188976D01*
X383662Y188075D01*
X384398Y187339D01*
X385298Y186820D01*
X386303Y186550D01*
X387343D01*
X388347Y186820D01*
X389248Y187339D01*
X389983Y188075D01*
X390503Y188976D01*
X390772Y189980D01*
Y191020D01*
X390503Y192025D01*
X389983Y192925D01*
X389248Y193660D01*
X388347Y194180D01*
X388046Y194261D01*
Y196816D01*
X392007Y200777D01*
X398262D01*
X398492Y200222D01*
X395958Y197688D01*
X395692Y197291D01*
X395599Y196823D01*
Y194261D01*
X395298Y194180D01*
X394398Y193660D01*
X393662Y192925D01*
X393142Y192025D01*
X392873Y191020D01*
Y189980D01*
X393142Y188976D01*
X393662Y188075D01*
X394398Y187339D01*
X395298Y186820D01*
X396303Y186550D01*
X397343D01*
X398347Y186820D01*
X399248Y187339D01*
X399983Y188075D01*
X400503Y188976D01*
X400772Y189980D01*
Y191020D01*
X400503Y192025D01*
X399983Y192925D01*
X399248Y193660D01*
X398347Y194180D01*
X398046Y194261D01*
Y196316D01*
X401007Y199276D01*
X407500D01*
X407968Y199370D01*
X408365Y199635D01*
X418365Y209635D01*
X418630Y210032D01*
X418723Y210500D01*
Y213029D01*
X419323Y213277D01*
X419339Y213262D01*
X420092Y212950D01*
X420908D01*
X421661Y213262D01*
X422238Y213839D01*
X423601D01*
Y213068D01*
X428399D01*
Y217261D01*
X427325D01*
Y218322D01*
X428178D01*
Y219175D01*
X429451D01*
X431513Y217112D01*
Y210701D01*
X431548Y210525D01*
Y207728D01*
X431619Y207370D01*
X431822Y207066D01*
X432126Y206863D01*
X432022Y206272D01*
X432001Y206224D01*
X429473D01*
X428910Y206786D01*
X428028Y207152D01*
X428058Y207739D01*
X428399D01*
Y211932D01*
X423601D01*
Y207739D01*
X424777D01*
Y206500D01*
X424870Y206032D01*
X425135Y205635D01*
X425265Y205505D01*
X425150Y205229D01*
Y204274D01*
X425516Y203392D01*
X425630Y203278D01*
X425400Y202724D01*
X417823D01*
X417355Y202630D01*
X416958Y202365D01*
X408617Y194025D01*
X408347Y194180D01*
X407343Y194450D01*
X406303D01*
X405298Y194180D01*
X404398Y193660D01*
X403662Y192925D01*
X403142Y192025D01*
X402873Y191020D01*
Y189980D01*
X403142Y188976D01*
X403662Y188075D01*
X404398Y187339D01*
X405298Y186820D01*
X406303Y186550D01*
X407343D01*
X408347Y186820D01*
X409248Y187339D01*
X409983Y188075D01*
X410503Y188976D01*
X410772Y189980D01*
Y191020D01*
X410503Y192025D01*
X410348Y192294D01*
X418330Y200276D01*
X422698D01*
X422946Y199677D01*
X417640Y194370D01*
X417343Y194450D01*
X416303D01*
X415298Y194180D01*
X414398Y193660D01*
X413662Y192925D01*
X413142Y192025D01*
X412873Y191020D01*
Y189980D01*
X413142Y188976D01*
X413662Y188075D01*
X414398Y187339D01*
X415298Y186820D01*
X416303Y186550D01*
X417343D01*
X418347Y186820D01*
X419248Y187339D01*
X419983Y188075D01*
X420503Y188976D01*
X420772Y189980D01*
Y191020D01*
X420503Y192025D01*
X419983Y192925D01*
X419819Y193089D01*
X424507Y197776D01*
X431585D01*
X431815Y197222D01*
X428617Y194025D01*
X428347Y194180D01*
X427343Y194450D01*
X426303D01*
X425298Y194180D01*
X424398Y193660D01*
X423662Y192925D01*
X423142Y192025D01*
X422873Y191020D01*
Y189980D01*
X423142Y188976D01*
X423662Y188075D01*
X424398Y187339D01*
X425298Y186820D01*
X426303Y186550D01*
X427343D01*
X428347Y186820D01*
X429248Y187339D01*
X429983Y188075D01*
X430503Y188976D01*
X430772Y189980D01*
Y191020D01*
X430503Y192025D01*
X430347Y192294D01*
X435045Y196992D01*
X435599Y196762D01*
Y194261D01*
X435298Y194180D01*
X434398Y193660D01*
X433662Y192925D01*
X433142Y192025D01*
X432873Y191020D01*
Y189980D01*
X433142Y188976D01*
X433662Y188075D01*
X434398Y187339D01*
X435298Y186820D01*
X436303Y186550D01*
X437343D01*
X438347Y186820D01*
X439248Y187339D01*
X439983Y188075D01*
X440503Y188976D01*
X440772Y189980D01*
Y191020D01*
X440503Y192025D01*
X439983Y192925D01*
X439248Y193660D01*
X438347Y194180D01*
X438046Y194261D01*
Y197570D01*
X440510Y200034D01*
X441064Y199804D01*
Y195035D01*
X441157Y194567D01*
X441422Y194170D01*
X443298Y192294D01*
X443142Y192025D01*
X442873Y191020D01*
Y189980D01*
X443142Y188976D01*
X443662Y188075D01*
X444398Y187339D01*
X445298Y186820D01*
X446303Y186550D01*
X447343D01*
X448347Y186820D01*
X449248Y187339D01*
X449983Y188075D01*
X450503Y188976D01*
X450772Y189980D01*
Y191020D01*
X450503Y192025D01*
X449983Y192925D01*
X449248Y193660D01*
X448347Y194180D01*
X447343Y194450D01*
X446303D01*
X445298Y194180D01*
X445028Y194025D01*
X443511Y195542D01*
Y203475D01*
X444065Y203705D01*
X446420Y201350D01*
X446171Y200750D01*
X446053D01*
X445225Y200408D01*
X444593Y199775D01*
X444272Y199000D01*
X448728D01*
X448408Y199775D01*
X448328Y199854D01*
X448577Y200454D01*
X452816D01*
X455599Y197670D01*
Y194496D01*
X455248D01*
X454321Y194312D01*
X453536Y193787D01*
X453011Y193001D01*
X452827Y192075D01*
Y188925D01*
X453011Y187999D01*
X453536Y187213D01*
X454321Y186688D01*
X455248Y186504D01*
X458398D01*
X459324Y186688D01*
X460110Y187213D01*
X460635Y187999D01*
X460819Y188925D01*
Y192075D01*
X460635Y193001D01*
X460110Y193787D01*
X459324Y194312D01*
X458398Y194496D01*
X458046D01*
Y198177D01*
X457953Y198645D01*
X457688Y199042D01*
X454188Y202542D01*
X453791Y202807D01*
X453323Y202901D01*
X448330D01*
X445088Y206142D01*
Y206792D01*
X445791D01*
X446150Y206863D01*
X446224Y206913D01*
X446299Y206863D01*
X446658Y206792D01*
X447366D01*
X447562Y206831D01*
X447796Y206675D01*
X448087Y206617D01*
Y207154D01*
X448231Y207370D01*
X448302Y207728D01*
Y210701D01*
Y213673D01*
X448231Y214032D01*
X448087Y214248D01*
Y214784D01*
X447796Y214726D01*
X447562Y214570D01*
X447366Y214609D01*
X446658D01*
X446299Y214538D01*
X446224Y214488D01*
X446150Y214538D01*
X445791Y214609D01*
X445083D01*
X444724Y214538D01*
X444650Y214488D01*
X444575Y214538D01*
X444216Y214609D01*
X443508D01*
X443150Y214538D01*
X443075Y214488D01*
X443000Y214538D01*
X442642Y214609D01*
X441933D01*
X441575Y214538D01*
X441500Y214488D01*
X441425Y214538D01*
X441067Y214609D01*
X440358D01*
X440000Y214538D01*
X439925Y214488D01*
X439850Y214538D01*
X439492Y214609D01*
X438784D01*
X438425Y214538D01*
X438350Y214488D01*
X438276Y214538D01*
X437917Y214609D01*
X437209D01*
X436850Y214538D01*
X436776Y214488D01*
X436701Y214538D01*
X436342Y214609D01*
X435634D01*
X435276Y214538D01*
X435201Y214488D01*
X435126Y214538D01*
X434768Y214609D01*
X434164D01*
Y217661D01*
X434063Y218169D01*
X433776Y218599D01*
X430937Y221437D01*
X430507Y221725D01*
X430000Y221826D01*
X428178D01*
Y222678D01*
X423822D01*
Y218322D01*
X424675D01*
Y217261D01*
X423601D01*
Y216490D01*
X421910D01*
X421661Y216738D01*
X420908Y217050D01*
X420092D01*
X419339Y216738D01*
X419323Y216723D01*
X418723Y216971D01*
Y220000D01*
X418630Y220468D01*
X418365Y220865D01*
X416176Y223054D01*
Y225900D01*
X416303D01*
Y230478D01*
X416176D01*
Y232946D01*
X417865Y234635D01*
X418130Y235032D01*
X418223Y235500D01*
Y237239D01*
X419399D01*
Y241432D01*
X414601D01*
Y237239D01*
X415776D01*
Y236007D01*
X414088Y234318D01*
X413822Y233921D01*
X413729Y233453D01*
Y230478D01*
X412239D01*
Y253893D01*
X412375Y253950D01*
X413050Y254625D01*
X413416Y255507D01*
Y256462D01*
X413050Y257344D01*
X412375Y258019D01*
X411493Y258384D01*
X410538D01*
X410402Y258328D01*
X400215Y268515D01*
X399819Y268780D01*
X399350Y268873D01*
X397349D01*
X397146Y269224D01*
X397349Y269576D01*
X414610D01*
X414666Y269440D01*
X415341Y268765D01*
X416223Y268399D01*
X417178D01*
X418060Y268765D01*
X418735Y269440D01*
X418792Y269576D01*
X419694D01*
X437914Y251355D01*
Y248600D01*
X437360Y248370D01*
X434794Y250937D01*
X434850Y251073D01*
Y252027D01*
X434485Y252909D01*
X433810Y253585D01*
X432927Y253950D01*
X431973D01*
X431090Y253585D01*
X430415Y252909D01*
X430359Y252773D01*
X426768D01*
X426254Y253288D01*
X425500Y253600D01*
X424684D01*
X423931Y253288D01*
X423354Y252711D01*
X423042Y251958D01*
Y251142D01*
X423354Y250389D01*
X423931Y249812D01*
X424684Y249500D01*
X425500D01*
X426254Y249812D01*
X426768Y250326D01*
X429192D01*
X429326Y249791D01*
X429327Y249727D01*
X428762Y249161D01*
X428450Y248408D01*
Y247592D01*
X428762Y246839D01*
X429339Y246262D01*
X430092Y245950D01*
X430269D01*
X430384Y245778D01*
X430334Y245178D01*
X430334D01*
Y240822D01*
X431615D01*
Y236608D01*
X430995Y236564D01*
X430907Y236774D01*
X430274Y237407D01*
X429500Y237728D01*
Y235500D01*
Y233272D01*
X430274Y233593D01*
X430907Y234226D01*
X430948Y234324D01*
X431548Y234204D01*
Y230327D01*
X431619Y229969D01*
X431822Y229665D01*
X432126Y229462D01*
X432484Y229391D01*
X433193D01*
X433551Y229462D01*
X433626Y229512D01*
X433701Y229462D01*
X434059Y229391D01*
X434765D01*
Y228709D01*
X434858Y228240D01*
X435123Y227843D01*
X435162Y227804D01*
X434922Y227196D01*
X434226Y226907D01*
X433593Y226274D01*
X433272Y225500D01*
X437728D01*
X437587Y225841D01*
X437988Y226441D01*
X455101D01*
Y225568D01*
X459899D01*
Y226441D01*
X460664D01*
X461132Y226534D01*
X461529Y226799D01*
X463891Y229161D01*
X464157Y229558D01*
X464250Y230026D01*
Y230657D01*
X464386Y230714D01*
X465061Y231389D01*
X465426Y232271D01*
Y233226D01*
X465061Y234108D01*
X464386Y234783D01*
X463504Y235148D01*
X462549D01*
X461667Y234783D01*
X460992Y234108D01*
X460626Y233226D01*
Y232271D01*
X460992Y231389D01*
X461667Y230714D01*
X461433Y230163D01*
X460499Y229229D01*
X459899Y229478D01*
Y229761D01*
X455101D01*
Y228888D01*
X451455D01*
X451273Y229488D01*
X451322Y229521D01*
X451569Y229890D01*
X451656Y230327D01*
Y232799D01*
X450161D01*
Y233299D01*
X449877D01*
Y236272D01*
X449806Y236630D01*
X449661Y236846D01*
Y237383D01*
X449371Y237325D01*
X449137Y237169D01*
X448941Y237208D01*
X448232D01*
X447874Y237137D01*
X447799Y237087D01*
X447724Y237137D01*
X447366Y237208D01*
X446661D01*
Y274972D01*
X446797Y275028D01*
X447472Y275704D01*
X447837Y276586D01*
Y277540D01*
X447472Y278422D01*
X446797Y279098D01*
X445914Y279463D01*
X444960D01*
X444824Y279407D01*
X432865Y291365D01*
X432468Y291630D01*
X432000Y291723D01*
X369634D01*
Y292500D01*
X367256D01*
X364878D01*
Y291723D01*
X363922D01*
Y295178D01*
X359566D01*
Y294598D01*
X358966Y294350D01*
X358628Y294688D01*
X357874Y295000D01*
X357059D01*
X356306Y294688D01*
X355729Y294111D01*
X355597Y293794D01*
X354202D01*
Y294815D01*
X354402D01*
Y295976D01*
X355002Y296465D01*
X355279Y296409D01*
X491422Y296409D01*
X491613Y295949D01*
X495579D01*
Y294874D01*
X511779D01*
Y295949D01*
X515779D01*
Y293224D01*
X516000Y293180D01*
Y190500D01*
Y189272D01*
X515759Y186827D01*
X515280Y184418D01*
X514567Y182068D01*
X513627Y179798D01*
X512469Y177632D01*
X511104Y175590D01*
X509546Y173691D01*
X507809Y171954D01*
X505910Y170396D01*
X503868Y169031D01*
X501702Y167873D01*
X499432Y166933D01*
X497082Y166220D01*
X494673Y165741D01*
X492228Y165500D01*
X189772D01*
X187327Y165741D01*
X184918Y166220D01*
X182568Y166933D01*
X180298Y167873D01*
X178132Y169031D01*
X176090Y170396D01*
X174191Y171954D01*
X172454Y173691D01*
X170896Y175590D01*
X169531Y177632D01*
X168373Y179798D01*
X167433Y182068D01*
X166720Y184418D01*
X166241Y186827D01*
X166000Y189272D01*
Y190500D01*
Y220274D01*
D01*
Y223575D01*
X170000D01*
Y222500D01*
X186200D01*
Y223575D01*
X190166D01*
X190357Y224035D01*
X198300D01*
X199052Y224185D01*
X199400Y224417D01*
X199986Y224104D01*
X200000Y224075D01*
Y223900D01*
X202300D01*
Y223400D01*
X202800D01*
Y222000D01*
X204600D01*
Y222650D01*
X205650D01*
Y226000D01*
Y229350D01*
X204600D01*
Y230000D01*
X202800D01*
Y228600D01*
X202300D01*
Y228100D01*
X200000D01*
Y227925D01*
X199986Y227896D01*
X199400Y227583D01*
X199052Y227815D01*
X198300Y227965D01*
X190357D01*
X190166Y228425D01*
X186200D01*
Y229500D01*
X170000D01*
Y228425D01*
X166000D01*
Y231726D01*
Y231726D01*
Y263274D01*
D01*
Y266575D01*
X170000D01*
Y265500D01*
X186200D01*
Y266575D01*
X190166D01*
X190357Y267035D01*
X198300D01*
X199052Y267185D01*
X199400Y267417D01*
X199986Y267104D01*
X200000Y267075D01*
Y266900D01*
X202300D01*
Y266400D01*
X202800D01*
Y265000D01*
X204600D01*
Y265650D01*
X205650D01*
Y269000D01*
Y272350D01*
X204600D01*
Y273000D01*
X202800D01*
Y271600D01*
X202300D01*
Y271100D01*
X200000D01*
Y270925D01*
X199986Y270896D01*
X199400Y270583D01*
X199052Y270815D01*
X198300Y270965D01*
X190357D01*
X190166Y271425D01*
X186200D01*
Y272500D01*
X170000D01*
Y271425D01*
X166000D01*
Y274726D01*
D01*
X166000Y306274D01*
X166000Y306274D01*
Y309575D01*
X170000D01*
Y308500D01*
X186200D01*
Y309575D01*
X190166D01*
X190357Y310035D01*
X198300D01*
X199052Y310185D01*
X199400Y310417D01*
X199986Y310104D01*
X200000Y310075D01*
Y309900D01*
X202300D01*
Y309400D01*
X202800D01*
Y308000D01*
X204600D01*
Y308650D01*
X205650D01*
Y312000D01*
Y315350D01*
X204600D01*
Y316000D01*
X202800D01*
Y314600D01*
X202300D01*
Y314100D01*
X200000D01*
Y313925D01*
X199986Y313896D01*
X199400Y313583D01*
X199052Y313815D01*
X198300Y313965D01*
X190357D01*
X190166Y314425D01*
X186200D01*
Y315500D01*
X170000D01*
Y314425D01*
X166000D01*
Y317726D01*
X166000D01*
Y349274D01*
X166000D01*
Y352575D01*
X170000D01*
Y351500D01*
X186200D01*
Y352575D01*
X190166D01*
X190357Y353035D01*
X198300D01*
X199052Y353185D01*
X199400Y353417D01*
X199986Y353104D01*
X200000Y353075D01*
Y352900D01*
X202300D01*
Y352400D01*
X202800D01*
Y351000D01*
X204600D01*
Y351650D01*
X205650D01*
Y355000D01*
Y358350D01*
X204600D01*
Y359000D01*
X202800D01*
Y357600D01*
X202300D01*
Y357100D01*
X200000D01*
Y356925D01*
X199986Y356896D01*
X199400Y356583D01*
X199052Y356815D01*
X198300Y356965D01*
X190357D01*
X190166Y357425D01*
X186200D01*
Y358500D01*
X170000D01*
Y357425D01*
X166000D01*
Y360726D01*
X166000D01*
Y390500D01*
Y391728D01*
X166241Y394173D01*
X166720Y396582D01*
X167433Y398932D01*
X168373Y401202D01*
X169531Y403368D01*
X170896Y405410D01*
X172454Y407309D01*
X174191Y409046D01*
X176090Y410604D01*
X178132Y411969D01*
X180298Y413127D01*
X182568Y414067D01*
X184918Y414780D01*
X187327Y415259D01*
X189772Y415500D01*
X191000Y415500D01*
X191000Y415500D01*
X492228D01*
X494673Y415259D01*
D02*
G37*
G36*
X199193Y355722D02*
X199324Y355654D01*
X199489Y355595D01*
X199689Y355543D01*
X199923Y355499D01*
X200494Y355436D01*
X201202Y355404D01*
X201608Y355400D01*
Y354600D01*
X201202Y354596D01*
X199923Y354501D01*
X199689Y354457D01*
X199489Y354405D01*
X199324Y354346D01*
X199193Y354278D01*
X199096Y354203D01*
Y355797D01*
X199193Y355722D01*
D02*
G37*
G36*
X171010Y356359D02*
X171078Y356310D01*
X171191Y356267D01*
X171349Y356230D01*
X171552Y356199D01*
X172092Y356153D01*
X172814Y356130D01*
X173242Y356127D01*
Y353873D01*
X172814Y353870D01*
X171349Y353770D01*
X171191Y353733D01*
X171078Y353690D01*
X171010Y353641D01*
X170988Y353587D01*
Y356413D01*
X171010Y356359D01*
D02*
G37*
G36*
X360033Y339867D02*
X359936Y339832D01*
X359850Y339775D01*
X359775Y339695D01*
X359712Y339592D01*
X359661Y339466D01*
X359621Y339317D01*
X359592Y339145D01*
X359575Y338950D01*
X359569Y338732D01*
X358423D01*
X358417Y338950D01*
X358400Y339145D01*
X358371Y339317D01*
X358331Y339466D01*
X358280Y339592D01*
X358217Y339695D01*
X358142Y339775D01*
X358056Y339832D01*
X357959Y339867D01*
X357850Y339878D01*
X360142D01*
X360033Y339867D01*
D02*
G37*
G36*
X352537D02*
X352440Y339832D01*
X352354Y339775D01*
X352279Y339695D01*
X352216Y339592D01*
X352165Y339466D01*
X352125Y339317D01*
X352096Y339145D01*
X352079Y338950D01*
X352073Y338732D01*
X350927D01*
X350921Y338950D01*
X350904Y339145D01*
X350875Y339317D01*
X350835Y339466D01*
X350784Y339592D01*
X350721Y339695D01*
X350646Y339775D01*
X350560Y339832D01*
X350463Y339867D01*
X350354Y339878D01*
X352646D01*
X352537Y339867D01*
D02*
G37*
G36*
X335355D02*
X335258Y339832D01*
X335172Y339775D01*
X335097Y339695D01*
X335034Y339592D01*
X334983Y339466D01*
X334943Y339317D01*
X334914Y339145D01*
X334897Y338950D01*
X334891Y338732D01*
X333745D01*
X333739Y338950D01*
X333722Y339145D01*
X333694Y339317D01*
X333653Y339466D01*
X333602Y339592D01*
X333539Y339695D01*
X333464Y339775D01*
X333378Y339832D01*
X333281Y339867D01*
X333172Y339878D01*
X335464D01*
X335355Y339867D01*
D02*
G37*
G36*
X327859D02*
X327762Y339832D01*
X327676Y339775D01*
X327601Y339695D01*
X327538Y339592D01*
X327487Y339466D01*
X327447Y339317D01*
X327418Y339145D01*
X327401Y338950D01*
X327395Y338732D01*
X326249D01*
X326243Y338950D01*
X326226Y339145D01*
X326198Y339317D01*
X326157Y339466D01*
X326106Y339592D01*
X326043Y339695D01*
X325968Y339775D01*
X325882Y339832D01*
X325785Y339867D01*
X325676Y339878D01*
X327968D01*
X327859Y339867D01*
D02*
G37*
G36*
X199193Y312722D02*
X199324Y312654D01*
X199489Y312595D01*
X199689Y312543D01*
X199923Y312499D01*
X200494Y312436D01*
X201202Y312404D01*
X201608Y312400D01*
Y311600D01*
X201202Y311596D01*
X199923Y311501D01*
X199689Y311457D01*
X199489Y311405D01*
X199324Y311346D01*
X199193Y311278D01*
X199096Y311203D01*
Y312797D01*
X199193Y312722D01*
D02*
G37*
G36*
X171010Y313359D02*
X171078Y313310D01*
X171191Y313267D01*
X171349Y313230D01*
X171552Y313198D01*
X172092Y313153D01*
X172814Y313130D01*
X173242Y313127D01*
Y310873D01*
X172814Y310870D01*
X171349Y310770D01*
X171191Y310733D01*
X171078Y310690D01*
X171010Y310641D01*
X170988Y310587D01*
Y313413D01*
X171010Y313359D01*
D02*
G37*
G36*
X510791Y296961D02*
X510769Y297015D01*
X510701Y297064D01*
X510589Y297107D01*
X510431Y297144D01*
X510228Y297176D01*
X509687Y297221D01*
X508966Y297244D01*
X508537Y297247D01*
Y299501D01*
X508966Y299504D01*
X510431Y299604D01*
X510589Y299641D01*
X510701Y299684D01*
X510769Y299733D01*
X510791Y299787D01*
Y296961D01*
D02*
G37*
G36*
X199193Y269722D02*
X199324Y269654D01*
X199489Y269595D01*
X199689Y269543D01*
X199923Y269499D01*
X200494Y269436D01*
X201202Y269404D01*
X201608Y269400D01*
Y268600D01*
X201202Y268596D01*
X199923Y268501D01*
X199689Y268457D01*
X199489Y268405D01*
X199324Y268346D01*
X199193Y268278D01*
X199096Y268203D01*
Y269797D01*
X199193Y269722D01*
D02*
G37*
G36*
X171010Y270359D02*
X171078Y270310D01*
X171191Y270267D01*
X171349Y270230D01*
X171552Y270198D01*
X172092Y270153D01*
X172814Y270130D01*
X173242Y270127D01*
Y267873D01*
X172814Y267870D01*
X171349Y267770D01*
X171191Y267733D01*
X171078Y267690D01*
X171010Y267641D01*
X170988Y267587D01*
Y270413D01*
X171010Y270359D01*
D02*
G37*
G36*
X357420Y278350D02*
X357171Y277750D01*
X356552D01*
X355726Y277408D01*
X355093Y276775D01*
X354772Y276000D01*
X357000D01*
Y275500D01*
X357500D01*
Y273272D01*
X358275Y273592D01*
X358908Y274225D01*
X359250Y275052D01*
Y275671D01*
X359850Y275920D01*
X364420Y271350D01*
X364171Y270750D01*
X364052D01*
X363226Y270408D01*
X362593Y269775D01*
X362272Y269000D01*
X364500D01*
Y268000D01*
X362272D01*
X362593Y267226D01*
X363226Y266593D01*
X363875Y266323D01*
X363756Y265723D01*
X362007D01*
X354034Y273696D01*
Y277298D01*
X354202D01*
Y279434D01*
X356336D01*
X357420Y278350D01*
D02*
G37*
G36*
X417803Y281967D02*
X417600Y281477D01*
Y280523D01*
X417965Y279641D01*
X418641Y278965D01*
X419523Y278600D01*
X420477D01*
X420967Y278803D01*
X439489Y260281D01*
Y254025D01*
X438935Y253796D01*
X436080Y256650D01*
X436329Y257250D01*
X436447D01*
X437275Y257593D01*
X437908Y258225D01*
X438228Y259000D01*
X436000D01*
Y259500D01*
X435500D01*
Y261728D01*
X434726Y261407D01*
X434093Y260774D01*
X433750Y259948D01*
Y259829D01*
X433150Y259580D01*
X423580Y269150D01*
X423829Y269750D01*
X423947D01*
X424775Y270093D01*
X425408Y270725D01*
X425728Y271500D01*
X423500D01*
Y272000D01*
X423000D01*
Y274228D01*
X422226Y273907D01*
X421593Y273274D01*
X421250Y272448D01*
Y272263D01*
X420671Y271931D01*
X420650Y271933D01*
X420201Y272023D01*
X418792D01*
X418735Y272159D01*
X418060Y272834D01*
X417178Y273199D01*
X416223D01*
X415341Y272834D01*
X414666Y272159D01*
X414610Y272023D01*
X396630D01*
X396413Y272346D01*
X396062Y272581D01*
X395649Y272663D01*
X392351D01*
X391937Y272581D01*
X391587Y272346D01*
X391352Y271996D01*
X391270Y271582D01*
Y270017D01*
X391352Y269603D01*
X391587Y269252D01*
Y269197D01*
X391352Y268846D01*
X391270Y268432D01*
Y266867D01*
X391352Y266453D01*
X391571Y266075D01*
X391352Y265696D01*
X391349Y265681D01*
X391120Y265545D01*
X390691Y265449D01*
X390420Y265630D01*
X389952Y265723D01*
X389653Y266271D01*
X389758Y266453D01*
X389841Y266867D01*
Y268432D01*
X389758Y268846D01*
X389524Y269197D01*
Y269252D01*
X389758Y269603D01*
X389841Y270017D01*
Y271582D01*
X389758Y271996D01*
X389524Y272346D01*
X389173Y272581D01*
X388759Y272663D01*
X385462D01*
X385048Y272581D01*
X384697Y272346D01*
X384481Y272023D01*
X380674D01*
X380535Y272359D01*
X379859Y273035D01*
X378977Y273400D01*
X378023D01*
X377140Y273035D01*
X376465Y272359D01*
X376326Y272023D01*
X372708D01*
X361914Y282817D01*
X362143Y283371D01*
X416399D01*
X417803Y281967D01*
D02*
G37*
G36*
X363075Y248050D02*
X363092Y247855D01*
X363121Y247683D01*
X363161Y247534D01*
X363212Y247408D01*
X363275Y247305D01*
X363350Y247225D01*
X363436Y247168D01*
X363533Y247133D01*
X363642Y247122D01*
X361350D01*
X361459Y247133D01*
X361556Y247168D01*
X361642Y247225D01*
X361717Y247305D01*
X361780Y247408D01*
X361831Y247534D01*
X361872Y247683D01*
X361900Y247855D01*
X361917Y248050D01*
X361923Y248268D01*
X363069D01*
X363075Y248050D01*
D02*
G37*
G36*
X355579D02*
X355596Y247855D01*
X355625Y247683D01*
X355665Y247534D01*
X355716Y247408D01*
X355779Y247305D01*
X355854Y247225D01*
X355940Y247168D01*
X356037Y247133D01*
X356146Y247122D01*
X353854D01*
X353963Y247133D01*
X354060Y247168D01*
X354146Y247225D01*
X354221Y247305D01*
X354284Y247408D01*
X354335Y247534D01*
X354375Y247683D01*
X354404Y247855D01*
X354421Y248050D01*
X354427Y248268D01*
X355573D01*
X355579Y248050D01*
D02*
G37*
G36*
X338075D02*
X338092Y247855D01*
X338121Y247683D01*
X338161Y247534D01*
X338212Y247408D01*
X338275Y247305D01*
X338350Y247225D01*
X338436Y247168D01*
X338533Y247133D01*
X338642Y247122D01*
X336350D01*
X336459Y247133D01*
X336556Y247168D01*
X336642Y247225D01*
X336717Y247305D01*
X336780Y247408D01*
X336831Y247534D01*
X336872Y247683D01*
X336900Y247855D01*
X336917Y248050D01*
X336923Y248268D01*
X338069D01*
X338075Y248050D01*
D02*
G37*
G36*
X330579D02*
X330596Y247855D01*
X330625Y247683D01*
X330665Y247534D01*
X330716Y247408D01*
X330779Y247305D01*
X330854Y247225D01*
X330940Y247168D01*
X331037Y247133D01*
X331146Y247122D01*
X328854D01*
X328963Y247133D01*
X329060Y247168D01*
X329146Y247225D01*
X329221Y247305D01*
X329284Y247408D01*
X329335Y247534D01*
X329375Y247683D01*
X329404Y247855D01*
X329421Y248050D01*
X329427Y248268D01*
X330573D01*
X330579Y248050D01*
D02*
G37*
G36*
X199193Y226722D02*
X199324Y226654D01*
X199489Y226595D01*
X199689Y226543D01*
X199923Y226499D01*
X200494Y226436D01*
X201202Y226404D01*
X201608Y226400D01*
Y225600D01*
X201202Y225596D01*
X199923Y225501D01*
X199689Y225457D01*
X199489Y225405D01*
X199324Y225346D01*
X199193Y225278D01*
X199096Y225203D01*
Y226797D01*
X199193Y226722D01*
D02*
G37*
G36*
X171010Y227359D02*
X171078Y227310D01*
X171191Y227267D01*
X171349Y227230D01*
X171552Y227199D01*
X172092Y227153D01*
X172814Y227130D01*
X173242Y227127D01*
Y224873D01*
X172814Y224870D01*
X171349Y224770D01*
X171191Y224733D01*
X171078Y224690D01*
X171010Y224641D01*
X170988Y224587D01*
Y227413D01*
X171010Y227359D01*
D02*
G37*
%LPC*%
G36*
X362500Y397728D02*
Y396000D01*
X364228D01*
X363908Y396775D01*
X363275Y397408D01*
X362500Y397728D01*
D02*
G37*
G36*
X361500D02*
X360725Y397408D01*
X360092Y396775D01*
X359772Y396000D01*
X361500D01*
Y397728D01*
D02*
G37*
G36*
X371599Y397913D02*
X369524D01*
Y395839D01*
X371599D01*
Y397913D01*
D02*
G37*
G36*
X368524D02*
X366449D01*
Y395839D01*
X368524D01*
Y397913D01*
D02*
G37*
G36*
X364228Y395000D02*
X362500D01*
Y393272D01*
X363275Y393593D01*
X363908Y394226D01*
X364228Y395000D01*
D02*
G37*
G36*
X361500D02*
X359772D01*
X360092Y394226D01*
X360725Y393593D01*
X361500Y393272D01*
Y395000D01*
D02*
G37*
G36*
X371599Y394839D02*
X369524D01*
Y392764D01*
X371599D01*
Y394839D01*
D02*
G37*
G36*
X368524D02*
X366449D01*
Y392764D01*
X368524D01*
Y394839D01*
D02*
G37*
G36*
X410499Y394650D02*
X410453D01*
Y391000D01*
X414102D01*
Y391046D01*
X413820Y392102D01*
X413273Y393048D01*
X412501Y393821D01*
X411554Y394367D01*
X410499Y394650D01*
D02*
G37*
G36*
X420499D02*
X420453D01*
Y391000D01*
X424102D01*
Y391046D01*
X423820Y392102D01*
X423273Y393048D01*
X422501Y393821D01*
X421554Y394367D01*
X420499Y394650D01*
D02*
G37*
G36*
X419453D02*
X419407D01*
X418351Y394367D01*
X417405Y393821D01*
X416632Y393048D01*
X416086Y392102D01*
X415803Y391046D01*
Y391000D01*
X419453D01*
Y394650D01*
D02*
G37*
G36*
X409453D02*
X409406D01*
X408351Y394367D01*
X407405Y393821D01*
X406632Y393048D01*
X406086Y392102D01*
X405803Y391046D01*
Y391000D01*
X409453D01*
Y394650D01*
D02*
G37*
G36*
X491990Y400555D02*
X491500D01*
Y391000D01*
X501055D01*
Y391490D01*
X500669Y393433D01*
X499911Y395263D01*
X498810Y396910D01*
X497410Y398310D01*
X495763Y399411D01*
X493933Y400169D01*
X491990Y400555D01*
D02*
G37*
G36*
X490500D02*
X490010D01*
X488067Y400169D01*
X486237Y399411D01*
X484590Y398310D01*
X483190Y396910D01*
X482089Y395263D01*
X481331Y393433D01*
X480945Y391490D01*
Y391000D01*
X490500D01*
Y400555D01*
D02*
G37*
G36*
X336546Y394650D02*
X336500D01*
Y391000D01*
X340150D01*
Y391046D01*
X339867Y392102D01*
X339320Y393048D01*
X338548Y393821D01*
X337602Y394367D01*
X336546Y394650D01*
D02*
G37*
G36*
X335500D02*
X335454D01*
X334398Y394367D01*
X333452Y393821D01*
X332680Y393048D01*
X332133Y392102D01*
X331850Y391046D01*
Y391000D01*
X335500D01*
Y394650D01*
D02*
G37*
G36*
X316546D02*
X316500D01*
Y391000D01*
X320150D01*
Y391046D01*
X319867Y392102D01*
X319321Y393048D01*
X318548Y393821D01*
X317602Y394367D01*
X316546Y394650D01*
D02*
G37*
G36*
X315500D02*
X315454D01*
X314398Y394367D01*
X313452Y393821D01*
X312680Y393048D01*
X312133Y392102D01*
X311850Y391046D01*
Y391000D01*
X315500D01*
Y394650D01*
D02*
G37*
G36*
X296546D02*
X296500D01*
Y391000D01*
X300150D01*
Y391046D01*
X299867Y392102D01*
X299321Y393048D01*
X298548Y393821D01*
X297602Y394367D01*
X296546Y394650D01*
D02*
G37*
G36*
X295500D02*
X295454D01*
X294398Y394367D01*
X293452Y393821D01*
X292680Y393048D01*
X292133Y392102D01*
X291850Y391046D01*
Y391000D01*
X295500D01*
Y394650D01*
D02*
G37*
G36*
X276546D02*
X276500D01*
Y391000D01*
X280150D01*
Y391046D01*
X279867Y392102D01*
X279321Y393048D01*
X278548Y393821D01*
X277602Y394367D01*
X276546Y394650D01*
D02*
G37*
G36*
X275500D02*
X275454D01*
X274398Y394367D01*
X273452Y393821D01*
X272679Y393048D01*
X272133Y392102D01*
X271850Y391046D01*
Y391000D01*
X275500D01*
Y394650D01*
D02*
G37*
G36*
X191990Y400555D02*
X191500D01*
Y391000D01*
X201055D01*
Y391490D01*
X200669Y393433D01*
X199911Y395263D01*
X198810Y396910D01*
X197410Y398310D01*
X195763Y399411D01*
X193933Y400169D01*
X191990Y400555D01*
D02*
G37*
G36*
X190500D02*
X190010D01*
X188067Y400169D01*
X186237Y399411D01*
X184590Y398310D01*
X183190Y396910D01*
X182089Y395263D01*
X181331Y393433D01*
X180945Y391490D01*
Y391000D01*
X190500D01*
Y400555D01*
D02*
G37*
G36*
X377304Y397713D02*
X372554D01*
Y392964D01*
X373604D01*
Y389989D01*
X367747D01*
Y389501D01*
X367147Y389252D01*
X367128Y389271D01*
X366374Y389583D01*
X365559D01*
X364806Y389271D01*
X364229Y388695D01*
X363917Y387941D01*
Y387125D01*
X364229Y386372D01*
X364806Y385795D01*
X365559Y385483D01*
X366374D01*
X367128Y385795D01*
X367147Y385814D01*
X367747Y385566D01*
Y385011D01*
X377253D01*
Y389989D01*
X376255D01*
Y392964D01*
X377304D01*
Y397713D01*
D02*
G37*
G36*
X430473Y394450D02*
X429433D01*
X428428Y394180D01*
X427528Y393660D01*
X426792Y392925D01*
X426272Y392024D01*
X426003Y391020D01*
Y389980D01*
X426179Y389322D01*
X422193Y385335D01*
X413842D01*
X413139Y385196D01*
X412544Y384798D01*
X411372Y383626D01*
X410975Y383031D01*
X410835Y382328D01*
Y381678D01*
X410322D01*
Y377322D01*
X410665D01*
Y374182D01*
X410322D01*
Y369826D01*
X414678D01*
Y374182D01*
X414335D01*
Y377322D01*
X414678D01*
Y381665D01*
X417027D01*
X417035Y381657D01*
X417293Y381065D01*
X417246Y380995D01*
X417184Y380683D01*
Y371000D01*
Y361533D01*
X417246Y361221D01*
X417423Y360957D01*
X417688Y360780D01*
X418000Y360718D01*
X425616D01*
X425731Y360129D01*
X425136Y359731D01*
X424326Y358922D01*
X422059D01*
Y359264D01*
X417703D01*
Y354908D01*
X418105D01*
Y351999D01*
X417965Y351859D01*
X417600Y350977D01*
Y350023D01*
X417965Y349141D01*
X418641Y348465D01*
X419523Y348100D01*
X420477D01*
X421359Y348465D01*
X422035Y349141D01*
X422400Y350023D01*
Y350977D01*
X422035Y351859D01*
X421776Y352118D01*
Y354908D01*
X422059D01*
Y355251D01*
X425086D01*
X425789Y355391D01*
X426384Y355789D01*
X426926Y356330D01*
X427442Y356533D01*
X427442Y356533D01*
Y356533D01*
X427442Y356533D01*
X434797D01*
Y360118D01*
X434797Y360322D01*
X434929Y360515D01*
X435131Y360795D01*
X435373Y360957D01*
X435550Y361221D01*
X435612Y361533D01*
Y371000D01*
X435550Y371312D01*
X435373Y371577D01*
X435109Y371754D01*
X434797Y371816D01*
X427366D01*
Y373733D01*
X429030D01*
Y377308D01*
X429530D01*
Y377808D01*
X432510D01*
Y380883D01*
X431414D01*
X431165Y381483D01*
X431407Y381726D01*
X431728Y382500D01*
X427272D01*
X427510Y381924D01*
X427296Y381383D01*
X427199Y381271D01*
X427136Y381261D01*
X427101Y381278D01*
X426863Y381437D01*
X426550Y381499D01*
X424277D01*
X424095Y382099D01*
X424251Y382202D01*
X428775Y386727D01*
X429433Y386550D01*
X430473D01*
X431477Y386820D01*
X432378Y387339D01*
X433113Y388075D01*
X433633Y388976D01*
X433902Y389980D01*
Y391020D01*
X433633Y392024D01*
X433113Y392925D01*
X432378Y393660D01*
X431477Y394180D01*
X430473Y394450D01*
D02*
G37*
G36*
X340150Y390000D02*
X336500D01*
Y386350D01*
X336546D01*
X337602Y386633D01*
X338548Y387179D01*
X339320Y387952D01*
X339867Y388898D01*
X340150Y389954D01*
Y390000D01*
D02*
G37*
G36*
X335500D02*
X331850D01*
Y389954D01*
X332133Y388898D01*
X332680Y387952D01*
X333452Y387179D01*
X334398Y386633D01*
X335454Y386350D01*
X335500D01*
Y390000D01*
D02*
G37*
G36*
X320150D02*
X316500D01*
Y386350D01*
X316546D01*
X317602Y386633D01*
X318548Y387179D01*
X319321Y387952D01*
X319867Y388898D01*
X320150Y389954D01*
Y390000D01*
D02*
G37*
G36*
X315500D02*
X311850D01*
Y389954D01*
X312133Y388898D01*
X312680Y387952D01*
X313452Y387179D01*
X314398Y386633D01*
X315454Y386350D01*
X315500D01*
Y390000D01*
D02*
G37*
G36*
X300150D02*
X296500D01*
Y386350D01*
X296546D01*
X297602Y386633D01*
X298548Y387179D01*
X299321Y387952D01*
X299867Y388898D01*
X300150Y389954D01*
Y390000D01*
D02*
G37*
G36*
X295500D02*
X291850D01*
Y389954D01*
X292133Y388898D01*
X292680Y387952D01*
X293452Y387179D01*
X294398Y386633D01*
X295454Y386350D01*
X295500D01*
Y390000D01*
D02*
G37*
G36*
X280150D02*
X276500D01*
Y386350D01*
X276546D01*
X277602Y386633D01*
X278548Y387179D01*
X279321Y387952D01*
X279867Y388898D01*
X280150Y389954D01*
Y390000D01*
D02*
G37*
G36*
X275500D02*
X271850D01*
Y389954D01*
X272133Y388898D01*
X272679Y387952D01*
X273452Y387179D01*
X274398Y386633D01*
X275454Y386350D01*
X275500D01*
Y390000D01*
D02*
G37*
G36*
X424102Y390000D02*
X420453D01*
Y386350D01*
X420499D01*
X421554Y386633D01*
X422501Y387179D01*
X423273Y387952D01*
X423820Y388898D01*
X424102Y389954D01*
Y390000D01*
D02*
G37*
G36*
X419453D02*
X415803D01*
Y389954D01*
X416086Y388898D01*
X416632Y387952D01*
X417405Y387179D01*
X418351Y386633D01*
X419407Y386350D01*
X419453D01*
Y390000D01*
D02*
G37*
G36*
X414102D02*
X410453D01*
Y386350D01*
X410499D01*
X411554Y386633D01*
X412501Y387179D01*
X413273Y387952D01*
X413820Y388898D01*
X414102Y389954D01*
Y390000D01*
D02*
G37*
G36*
X409453D02*
X405803D01*
Y389954D01*
X406086Y388898D01*
X406632Y387952D01*
X407405Y387179D01*
X408351Y386633D01*
X409406Y386350D01*
X409453D01*
Y390000D01*
D02*
G37*
G36*
X400500Y386728D02*
Y385000D01*
X402228D01*
X401907Y385774D01*
X401274Y386407D01*
X400500Y386728D01*
D02*
G37*
G36*
X399500D02*
X398726Y386407D01*
X398093Y385774D01*
X397772Y385000D01*
X399500D01*
Y386728D01*
D02*
G37*
G36*
X326520Y394450D02*
X325480D01*
X324476Y394180D01*
X323575Y393660D01*
X322839Y392925D01*
X322320Y392024D01*
X322050Y391020D01*
Y390558D01*
X322035Y390491D01*
X322012Y389664D01*
X321980Y389331D01*
X321934Y389025D01*
X321876Y388755D01*
X321807Y388523D01*
X321732Y388329D01*
X321652Y388172D01*
X321572Y388052D01*
X318439Y384919D01*
X318439Y384919D01*
X318425Y384933D01*
X317205Y383447D01*
X316318Y381786D01*
X316171Y381752D01*
X315829Y381752D01*
X315683Y381786D01*
X314795Y383447D01*
X313575Y384933D01*
X313561Y384919D01*
X310427Y388052D01*
X310348Y388172D01*
X310268Y388329D01*
X310193Y388523D01*
X310124Y388755D01*
X310066Y389025D01*
X310021Y389321D01*
X309969Y390059D01*
X309965Y390475D01*
X309950Y390550D01*
Y391020D01*
X309680Y392024D01*
X309160Y392925D01*
X308425Y393660D01*
X307524Y394180D01*
X306520Y394450D01*
X305480D01*
X304475Y394180D01*
X303575Y393660D01*
X302839Y392925D01*
X302320Y392024D01*
X302050Y391020D01*
Y389980D01*
X302320Y388976D01*
X302839Y388075D01*
X303575Y387339D01*
X304475Y386820D01*
X305480Y386550D01*
X305942D01*
X306009Y386535D01*
X306836Y386512D01*
X307169Y386480D01*
X307475Y386434D01*
X307745Y386375D01*
X307977Y386307D01*
X308171Y386232D01*
X308328Y386152D01*
X308448Y386072D01*
X311581Y382939D01*
X311612Y382919D01*
X312459Y381886D01*
X313105Y380677D01*
X313503Y379365D01*
X313634Y378036D01*
X313627Y378000D01*
Y376226D01*
X313626Y376224D01*
X313610Y376224D01*
X313791Y373919D01*
X314335Y371652D01*
X315227Y369499D01*
X316445Y367512D01*
X317958Y365740D01*
X318224Y365513D01*
X318632Y365073D01*
X318649Y365066D01*
X318649Y365066D01*
X318699Y365073D01*
X319045Y364789D01*
X319683Y364265D01*
X320884Y363623D01*
X322188Y363227D01*
X323545Y363093D01*
Y363100D01*
X328578D01*
Y363085D01*
X329855Y363253D01*
X331045Y363746D01*
X332067Y364530D01*
X332851Y365552D01*
X333344Y366742D01*
X333367Y366919D01*
X333973D01*
X333996Y366742D01*
X334489Y365552D01*
X335273Y364530D01*
X336295Y363746D01*
X337485Y363253D01*
X338762Y363085D01*
Y363100D01*
X347000D01*
X347017Y363104D01*
X348141Y362993D01*
X349238Y362660D01*
X350249Y362120D01*
X350686Y361761D01*
X351131Y361389D01*
X351510Y361010D01*
X351554Y360981D01*
X352265Y360053D01*
X352733Y358925D01*
X352885Y357766D01*
X352875Y357715D01*
Y353500D01*
X352878Y353483D01*
X352764Y353206D01*
X352749Y353197D01*
X350841Y351288D01*
X350841Y351288D01*
X350825Y351303D01*
X350272Y350476D01*
X350078Y349500D01*
X350078Y349500D01*
X349996Y348934D01*
X349322D01*
Y344578D01*
X353678D01*
Y348934D01*
X353251D01*
X353046Y349534D01*
X354729Y351217D01*
X354730Y351216D01*
X354870Y351399D01*
X355626D01*
X355766Y351216D01*
X355767Y351217D01*
X357450Y349534D01*
X357245Y348934D01*
X356818D01*
Y344578D01*
X361174D01*
Y348934D01*
X360500D01*
X360418Y349500D01*
X360418D01*
X360224Y350476D01*
X359671Y351303D01*
X359655Y351288D01*
X359655Y351288D01*
X357747Y353197D01*
X357732Y353206D01*
X357618Y353483D01*
X357621Y353500D01*
Y357715D01*
X357639D01*
X357458Y359553D01*
X356922Y361321D01*
X356051Y362951D01*
X354918Y364331D01*
X354879Y364379D01*
D01*
X354492Y364748D01*
X354491Y364749D01*
X354448Y364786D01*
X353227Y365828D01*
X351810Y366697D01*
X350274Y367333D01*
X348657Y367721D01*
X347000Y367852D01*
Y367846D01*
X338762D01*
Y367857D01*
X338647Y367904D01*
X338600Y368019D01*
X338589D01*
Y377558D01*
X338604D01*
X338436Y378836D01*
X337943Y380026D01*
X337159Y381047D01*
X336137Y381832D01*
X334947Y382325D01*
X333670Y382493D01*
X332393Y382325D01*
X331203Y381832D01*
X330181Y381047D01*
X329397Y380026D01*
X328904Y378836D01*
X328736Y377558D01*
X328751D01*
Y368019D01*
X328740D01*
X328693Y367904D01*
X328578Y367857D01*
Y367846D01*
X323545D01*
X323496Y367836D01*
X322696Y367995D01*
X322463Y368151D01*
X322179Y368359D01*
X321818Y368674D01*
X321309Y369091D01*
X320052Y370623D01*
X319117Y372372D01*
X318542Y374269D01*
X318357Y376146D01*
X318373Y376227D01*
Y378000D01*
X318366Y378036D01*
X318497Y379365D01*
X318895Y380677D01*
X319541Y381886D01*
X320389Y382919D01*
X320419Y382939D01*
X323552Y386072D01*
X323672Y386152D01*
X323829Y386232D01*
X324023Y386307D01*
X324255Y386375D01*
X324525Y386434D01*
X324821Y386478D01*
X325559Y386531D01*
X325975Y386535D01*
X326050Y386550D01*
X326520D01*
X327524Y386820D01*
X328425Y387339D01*
X329160Y388075D01*
X329680Y388976D01*
X329950Y389980D01*
Y391020D01*
X329680Y392024D01*
X329160Y392925D01*
X328425Y393660D01*
X327524Y394180D01*
X326520Y394450D01*
D02*
G37*
G36*
X430000Y385228D02*
Y383500D01*
X431728D01*
X431407Y384275D01*
X430774Y384908D01*
X430000Y385228D01*
D02*
G37*
G36*
X429000D02*
X428226Y384908D01*
X427593Y384275D01*
X427272Y383500D01*
X429000D01*
Y385228D01*
D02*
G37*
G36*
X402228Y384000D02*
X400500D01*
Y382272D01*
X401274Y382593D01*
X401907Y383225D01*
X402228Y384000D01*
D02*
G37*
G36*
X399500D02*
X397772D01*
X398093Y383225D01*
X398726Y382593D01*
X399500Y382272D01*
Y384000D01*
D02*
G37*
G36*
X501055Y390000D02*
X491500D01*
Y380445D01*
X491990D01*
X493933Y380831D01*
X495763Y381589D01*
X497410Y382690D01*
X498810Y384090D01*
X499911Y385737D01*
X500669Y387567D01*
X501055Y389510D01*
Y390000D01*
D02*
G37*
G36*
X490500D02*
X480945D01*
Y389510D01*
X481331Y387567D01*
X482089Y385737D01*
X483190Y384090D01*
X484590Y382690D01*
X486237Y381589D01*
X488067Y380831D01*
X490010Y380445D01*
X490500D01*
Y390000D01*
D02*
G37*
G36*
X201055D02*
X191500D01*
Y380445D01*
X191990D01*
X193933Y380831D01*
X195763Y381589D01*
X197410Y382690D01*
X198810Y384090D01*
X199911Y385737D01*
X200669Y387567D01*
X201055Y389510D01*
Y390000D01*
D02*
G37*
G36*
X190500D02*
X180945D01*
Y389510D01*
X181331Y387567D01*
X182089Y385737D01*
X183190Y384090D01*
X184590Y382690D01*
X186237Y381589D01*
X188067Y380831D01*
X190010Y380445D01*
X190500D01*
Y390000D01*
D02*
G37*
G36*
X409366Y381878D02*
X407488D01*
Y380000D01*
X409366D01*
Y381878D01*
D02*
G37*
G36*
X406488D02*
X404610D01*
Y380000D01*
X406488D01*
Y381878D01*
D02*
G37*
G36*
X409366Y379000D02*
X407488D01*
Y377122D01*
X409366D01*
Y379000D01*
D02*
G37*
G36*
X406488D02*
X404610D01*
Y377122D01*
X406488D01*
Y379000D01*
D02*
G37*
G36*
X483427Y377400D02*
Y375522D01*
X485305D01*
Y377400D01*
X483427D01*
D02*
G37*
G36*
X455000Y395816D02*
X435500D01*
X435188Y395754D01*
X434923Y395577D01*
X434746Y395312D01*
X434684Y395000D01*
Y375000D01*
X434746Y374688D01*
X434923Y374423D01*
X435188Y374246D01*
X435500Y374184D01*
X455000D01*
X455312Y374246D01*
X455577Y374423D01*
X455754Y374688D01*
X455816Y375000D01*
Y395000D01*
X455754Y395312D01*
X455577Y395577D01*
X455312Y395754D01*
X455000Y395816D01*
D02*
G37*
G36*
X432510Y376808D02*
X430030D01*
Y373733D01*
X432510D01*
Y376808D01*
D02*
G37*
G36*
X485305Y374522D02*
X483427D01*
Y372645D01*
X485305D01*
Y374522D01*
D02*
G37*
G36*
X409366Y374382D02*
X407488D01*
Y372504D01*
X409366D01*
Y374382D01*
D02*
G37*
G36*
X406488D02*
X404610D01*
Y372504D01*
X406488D01*
Y374382D01*
D02*
G37*
G36*
X489000Y372728D02*
Y371000D01*
X490728D01*
X490408Y371775D01*
X489775Y372408D01*
X489000Y372728D01*
D02*
G37*
G36*
X488000D02*
X487225Y372408D01*
X486592Y371775D01*
X486272Y371000D01*
X488000D01*
Y372728D01*
D02*
G37*
G36*
X479593Y381316D02*
X463000D01*
X462688Y381254D01*
X462423Y381077D01*
X462246Y380812D01*
X462184Y380500D01*
Y371316D01*
X449000D01*
X448688Y371254D01*
X448423Y371077D01*
X448246Y370812D01*
X447664Y370480D01*
X447584Y370477D01*
X447408Y370550D01*
X446592D01*
X445839Y370238D01*
X445262Y369661D01*
X444950Y368908D01*
Y368092D01*
X445262Y367339D01*
X445568Y367033D01*
X445319Y366433D01*
X442347D01*
Y361433D01*
X447347D01*
Y365896D01*
X447354Y365964D01*
X447584Y366082D01*
X447718Y366064D01*
X448236Y365742D01*
X448246Y365688D01*
X448423Y365423D01*
X448688Y365246D01*
X448897Y365205D01*
Y361749D01*
X448897Y361545D01*
X448765Y361352D01*
X448562Y361072D01*
X448320Y360910D01*
X448143Y360646D01*
X448081Y360333D01*
Y351533D01*
X448143Y351221D01*
X448320Y350957D01*
X448585Y350780D01*
X448897Y350718D01*
X450921D01*
Y347178D01*
X450578D01*
Y342822D01*
X450962D01*
Y340270D01*
X450804Y340111D01*
X450438Y339229D01*
Y338275D01*
X450804Y337392D01*
X451479Y336717D01*
X452361Y336352D01*
X453315D01*
X454198Y336717D01*
X454873Y337392D01*
X455238Y338275D01*
Y339229D01*
X454873Y340111D01*
X454632Y340352D01*
Y342822D01*
X454934D01*
Y347178D01*
X454591D01*
Y350718D01*
X456251D01*
X456564Y350780D01*
X456828Y350957D01*
X457005Y351221D01*
X457067Y351533D01*
Y360333D01*
X457028Y360528D01*
X457385Y360818D01*
X457523Y360881D01*
X459165Y359240D01*
Y356190D01*
X458822D01*
Y351834D01*
X463178D01*
Y351975D01*
X464969D01*
X466836Y350108D01*
Y349826D01*
X467202Y348944D01*
X467877Y348269D01*
X468759Y347903D01*
X469714D01*
X470596Y348269D01*
X471271Y348944D01*
X471636Y349826D01*
Y350781D01*
X471271Y351663D01*
X470596Y352338D01*
X469714Y352703D01*
X469432D01*
X468037Y354098D01*
X468267Y354652D01*
X471836D01*
Y354452D01*
X474316D01*
Y358028D01*
Y361603D01*
X471836D01*
Y361403D01*
X466318D01*
X466318Y361403D01*
Y361403D01*
X465867Y361728D01*
X463965Y363630D01*
X464195Y364184D01*
X479593D01*
X479905Y364246D01*
X480170Y364423D01*
X480303Y364622D01*
X482012D01*
Y367000D01*
Y369378D01*
X480409D01*
Y372103D01*
X480549Y372645D01*
X481009Y372645D01*
X482427D01*
Y375023D01*
Y377400D01*
X480549Y377400D01*
X480409Y377942D01*
Y380500D01*
X480347Y380812D01*
X480170Y381077D01*
X479905Y381254D01*
X479593Y381316D01*
D02*
G37*
G36*
X409366Y371504D02*
X407488D01*
Y369626D01*
X409366D01*
Y371504D01*
D02*
G37*
G36*
X406488D02*
X404610D01*
Y369626D01*
X406488D01*
Y371504D01*
D02*
G37*
G36*
X490728Y370000D02*
X489000D01*
Y368272D01*
X489775Y368593D01*
X490408Y369226D01*
X490728Y370000D01*
D02*
G37*
G36*
X488000D02*
X486272D01*
X486592Y369226D01*
X487225Y368593D01*
X488000Y368272D01*
Y370000D01*
D02*
G37*
G36*
X484890Y369378D02*
X483012D01*
Y367500D01*
X484890D01*
Y369378D01*
D02*
G37*
G36*
X408500Y368228D02*
Y366500D01*
X410228D01*
X409907Y367274D01*
X409274Y367908D01*
X408500Y368228D01*
D02*
G37*
G36*
X407500D02*
X406726Y367908D01*
X406093Y367274D01*
X405772Y366500D01*
X407500D01*
Y368228D01*
D02*
G37*
G36*
X484890Y366500D02*
X483012D01*
Y364622D01*
X484890D01*
Y366500D01*
D02*
G37*
G36*
X410228Y365500D02*
X408500D01*
Y363772D01*
X409274Y364092D01*
X409907Y364725D01*
X410228Y365500D01*
D02*
G37*
G36*
X407500D02*
X405772D01*
X406093Y364725D01*
X406726Y364092D01*
X407500Y363772D01*
Y365500D01*
D02*
G37*
G36*
X483500Y363728D02*
Y362000D01*
X485228D01*
X484907Y362774D01*
X484274Y363407D01*
X483500Y363728D01*
D02*
G37*
G36*
X482500D02*
X481726Y363407D01*
X481093Y362774D01*
X480772Y362000D01*
X482500D01*
Y363728D01*
D02*
G37*
G36*
X441347Y366433D02*
X436347D01*
Y361433D01*
X441347D01*
Y366433D01*
D02*
G37*
G36*
X190200Y360744D02*
Y359700D01*
X190776D01*
X190445Y360499D01*
X190200Y360744D01*
D02*
G37*
G36*
X485228Y361000D02*
X483500D01*
Y359272D01*
X484274Y359593D01*
X484907Y360226D01*
X485228Y361000D01*
D02*
G37*
G36*
X482500D02*
X480772D01*
X481093Y360226D01*
X481726Y359593D01*
X482500Y359272D01*
Y361000D01*
D02*
G37*
G36*
X477796Y361603D02*
X475316D01*
Y358528D01*
X477796D01*
Y361603D01*
D02*
G37*
G36*
X201800Y359000D02*
X200000D01*
Y358100D01*
X201800D01*
Y359000D01*
D02*
G37*
G36*
X190776Y358700D02*
X190200D01*
Y357656D01*
X190445Y357901D01*
X190776Y358700D01*
D02*
G37*
G36*
X416747Y359464D02*
X414869D01*
Y357586D01*
X416747D01*
Y359464D01*
D02*
G37*
G36*
X413869D02*
X411992D01*
Y357586D01*
X413869D01*
Y359464D01*
D02*
G37*
G36*
X447347Y360433D02*
X442347D01*
Y355433D01*
X447347D01*
Y360433D01*
D02*
G37*
G36*
X441347D02*
X436347D01*
Y355433D01*
X441347D01*
Y360433D01*
D02*
G37*
G36*
X416747Y356586D02*
X414869D01*
Y354708D01*
X416747D01*
Y356586D01*
D02*
G37*
G36*
X413869D02*
X411992D01*
Y354708D01*
X413869D01*
Y356586D01*
D02*
G37*
G36*
X477796Y357528D02*
X475316D01*
Y354452D01*
X477796D01*
Y357528D01*
D02*
G37*
G36*
X481000Y355728D02*
Y354000D01*
X482728D01*
X482408Y354774D01*
X481775Y355408D01*
X481000Y355728D01*
D02*
G37*
G36*
X480000D02*
X479225Y355408D01*
X478592Y354774D01*
X478272Y354000D01*
X480000D01*
Y355728D01*
D02*
G37*
G36*
X412500Y353228D02*
Y351500D01*
X414228D01*
X413907Y352274D01*
X413274Y352907D01*
X412500Y353228D01*
D02*
G37*
G36*
X411500D02*
X410725Y352907D01*
X410092Y352274D01*
X409772Y351500D01*
X411500D01*
Y353228D01*
D02*
G37*
G36*
X190200Y352344D02*
Y351300D01*
X190776D01*
X190445Y352099D01*
X190200Y352344D01*
D02*
G37*
G36*
X482728Y353000D02*
X481000D01*
Y351272D01*
X481775Y351592D01*
X482408Y352225D01*
X482728Y353000D01*
D02*
G37*
G36*
X480000D02*
X478272D01*
X478592Y352225D01*
X479225Y351592D01*
X480000Y351272D01*
Y353000D01*
D02*
G37*
G36*
X201800Y351900D02*
X200000D01*
Y351000D01*
X201800D01*
Y351900D01*
D02*
G37*
G36*
X442500Y351228D02*
Y349500D01*
X444228D01*
X443907Y350274D01*
X443274Y350907D01*
X442500Y351228D01*
D02*
G37*
G36*
X441500D02*
X440726Y350907D01*
X440093Y350274D01*
X439772Y349500D01*
X441500D01*
Y351228D01*
D02*
G37*
G36*
X190776Y350300D02*
X190200D01*
Y349256D01*
X190445Y349501D01*
X190776Y350300D01*
D02*
G37*
G36*
X463378Y350878D02*
X461500D01*
Y349000D01*
X463378D01*
Y350878D01*
D02*
G37*
G36*
X460500D02*
X458622D01*
Y349000D01*
X460500D01*
Y350878D01*
D02*
G37*
G36*
X414228Y350500D02*
X412500D01*
Y348772D01*
X413274Y349093D01*
X413907Y349726D01*
X414228Y350500D01*
D02*
G37*
G36*
X411500D02*
X409772D01*
X410092Y349726D01*
X410725Y349093D01*
X411500Y348772D01*
Y350500D01*
D02*
G37*
G36*
X434797Y355333D02*
X427442D01*
Y351533D01*
X429284D01*
Y350546D01*
X429069Y350027D01*
Y349212D01*
X429381Y348458D01*
X429958Y347881D01*
X430712Y347569D01*
X431527D01*
X432280Y347881D01*
X432857Y348458D01*
X433169Y349212D01*
Y350027D01*
X432955Y350546D01*
Y351533D01*
X434797D01*
Y355333D01*
D02*
G37*
G36*
X444228Y348500D02*
X442500D01*
Y346772D01*
X443274Y347093D01*
X443907Y347726D01*
X444228Y348500D01*
D02*
G37*
G36*
X441500D02*
X439772D01*
X440093Y347726D01*
X440726Y347093D01*
X441500Y346772D01*
Y348500D01*
D02*
G37*
G36*
X463378Y348000D02*
X461500D01*
Y346122D01*
X463378D01*
Y348000D01*
D02*
G37*
G36*
X460500D02*
X458622D01*
Y346122D01*
X460500D01*
Y348000D01*
D02*
G37*
G36*
X449622Y347378D02*
X447744D01*
Y345500D01*
X449622D01*
Y347378D01*
D02*
G37*
G36*
X446744D02*
X444866D01*
Y345500D01*
X446744D01*
Y347378D01*
D02*
G37*
G36*
X267575Y394496D02*
X264425D01*
X263499Y394312D01*
X262713Y393787D01*
X262188Y393001D01*
X262004Y392075D01*
Y388925D01*
X262188Y387999D01*
X262713Y387213D01*
X263499Y386688D01*
X264425Y386504D01*
X267575D01*
X267685Y386526D01*
X267704Y386523D01*
X267791Y386504D01*
X267877Y386478D01*
X267964Y386442D01*
X268053Y386398D01*
X268144Y386342D01*
X268238Y386274D01*
X268281Y386239D01*
X271581Y382939D01*
X271611Y382919D01*
X272459Y381886D01*
X273105Y380677D01*
X273503Y379365D01*
X273634Y378036D01*
X273627Y378000D01*
Y375979D01*
X273621D01*
X273753Y374641D01*
X274143Y373355D01*
X274777Y372169D01*
X275630Y371130D01*
X275618Y371118D01*
X277164Y369850D01*
X278926Y368908D01*
X280839Y368328D01*
X282828Y368132D01*
Y368154D01*
X284540D01*
Y368140D01*
X285778Y368303D01*
X286931Y368781D01*
X287922Y369541D01*
X288682Y370532D01*
X289007Y371317D01*
X289657D01*
X289982Y370532D01*
X290742Y369541D01*
X291733Y368781D01*
X292886Y368303D01*
X294124Y368140D01*
Y368154D01*
X299006D01*
X299068Y368166D01*
X300687Y368007D01*
X302304Y367516D01*
X303794Y366720D01*
X305052Y365688D01*
X305087Y365635D01*
X312034Y358688D01*
X312029Y358683D01*
X313110Y357795D01*
X314344Y357136D01*
X315683Y356730D01*
X317075Y356593D01*
Y356600D01*
X326586D01*
X326626Y356608D01*
X327363Y356462D01*
X327543Y356341D01*
X327933Y356054D01*
X328186Y355558D01*
X328186D01*
X328197Y355547D01*
Y353500D01*
X328201Y353483D01*
X328086Y353206D01*
X328071Y353197D01*
X326163Y351288D01*
X326163Y351288D01*
X326147Y351303D01*
X325594Y350476D01*
X325400Y349500D01*
X325400Y349500D01*
X325318Y348934D01*
X324644D01*
Y344578D01*
X329000D01*
Y348934D01*
X328573D01*
X328368Y349534D01*
X330051Y351217D01*
X330052Y351216D01*
X330192Y351399D01*
X330948D01*
X331088Y351216D01*
X331089Y351217D01*
X332772Y349534D01*
X332567Y348934D01*
X332140D01*
Y344578D01*
X336496D01*
Y348934D01*
X335822D01*
X335740Y349500D01*
X335740D01*
X335546Y350476D01*
X334993Y351303D01*
X334978Y351288D01*
X334978Y351288D01*
X333069Y353197D01*
X333054Y353206D01*
X332940Y353483D01*
X332943Y353500D01*
Y355558D01*
X332962D01*
X332778Y356957D01*
X332238Y358260D01*
X331380Y359380D01*
X331370Y359370D01*
X330345Y360211D01*
X329175Y360837D01*
X327906Y361222D01*
X326586Y361352D01*
Y361346D01*
X317075D01*
X317017Y361334D01*
X316154Y361506D01*
X315423Y361995D01*
X315390Y362044D01*
X308443Y368991D01*
X308453Y369001D01*
X306859Y370363D01*
X305071Y371458D01*
X303134Y372260D01*
X301096Y372750D01*
X299006Y372914D01*
Y372900D01*
X294124D01*
Y372923D01*
X294101D01*
Y377665D01*
X294115D01*
X293952Y378903D01*
X293474Y380057D01*
X292714Y381048D01*
X291723Y381807D01*
X290570Y382285D01*
X289332Y382448D01*
X288094Y382285D01*
X286941Y381807D01*
X285950Y381048D01*
X285190Y380057D01*
X284712Y378903D01*
X284549Y377665D01*
X284563D01*
Y372923D01*
X284540D01*
Y372900D01*
X282828D01*
X282757Y372886D01*
X281417Y373062D01*
X280102Y373607D01*
X279030Y374429D01*
X278990Y374490D01*
X278952Y374515D01*
X278517Y375167D01*
X278364Y375935D01*
X278373Y375979D01*
Y378000D01*
X278366Y378036D01*
X278497Y379365D01*
X278895Y380677D01*
X279541Y381886D01*
X280388Y382919D01*
X280419Y382939D01*
X283552Y386072D01*
X283672Y386152D01*
X283829Y386232D01*
X284023Y386307D01*
X284255Y386375D01*
X284525Y386434D01*
X284821Y386478D01*
X285559Y386531D01*
X285975Y386535D01*
X286050Y386550D01*
X286520D01*
X287525Y386820D01*
X288425Y387339D01*
X289160Y388075D01*
X289680Y388976D01*
X289950Y389980D01*
Y391020D01*
X289680Y392024D01*
X289160Y392925D01*
X288425Y393660D01*
X287525Y394180D01*
X286520Y394450D01*
X285480D01*
X284475Y394180D01*
X283575Y393660D01*
X282839Y392925D01*
X282320Y392024D01*
X282050Y391020D01*
Y390558D01*
X282035Y390491D01*
X282012Y389664D01*
X281980Y389331D01*
X281934Y389025D01*
X281875Y388755D01*
X281807Y388523D01*
X281732Y388329D01*
X281652Y388172D01*
X281573Y388052D01*
X278439Y384919D01*
X278439Y384919D01*
X278425Y384933D01*
X277205Y383447D01*
X276318Y381786D01*
X276171Y381752D01*
X275829Y381752D01*
X275682Y381786D01*
X274795Y383447D01*
X273575Y384933D01*
X273561Y384919D01*
X270261Y388219D01*
X270226Y388262D01*
X270158Y388356D01*
X270103Y388447D01*
X270058Y388536D01*
X270022Y388623D01*
X269996Y388709D01*
X269977Y388796D01*
X269974Y388815D01*
X269996Y388925D01*
Y392075D01*
X269812Y393001D01*
X269287Y393787D01*
X268501Y394312D01*
X267575Y394496D01*
D02*
G37*
G36*
X449622Y344500D02*
X447744D01*
Y342622D01*
X449622D01*
Y344500D01*
D02*
G37*
G36*
X446744D02*
X444866D01*
Y342622D01*
X446744D01*
Y344500D01*
D02*
G37*
G36*
X444500Y341228D02*
Y339500D01*
X446228D01*
X445907Y340275D01*
X445274Y340908D01*
X444500Y341228D01*
D02*
G37*
G36*
X443500D02*
X442726Y340908D01*
X442093Y340275D01*
X441772Y339500D01*
X443500D01*
Y341228D01*
D02*
G37*
G36*
X446228Y338500D02*
X444500D01*
Y336772D01*
X445274Y337092D01*
X445907Y337725D01*
X446228Y338500D01*
D02*
G37*
G36*
X443500D02*
X441772D01*
X442093Y337725D01*
X442726Y337092D01*
X443500Y336772D01*
Y338500D01*
D02*
G37*
G36*
X461500Y335728D02*
Y334000D01*
X463228D01*
X462908Y334774D01*
X462275Y335407D01*
X461500Y335728D01*
D02*
G37*
G36*
X460500D02*
X459726Y335407D01*
X459093Y334774D01*
X458772Y334000D01*
X460500D01*
Y335728D01*
D02*
G37*
G36*
X463228Y333000D02*
X461500D01*
Y331272D01*
X462275Y331592D01*
X462908Y332225D01*
X463228Y333000D01*
D02*
G37*
G36*
X460500D02*
X458772D01*
X459093Y332225D01*
X459726Y331592D01*
X460500Y331272D01*
Y333000D01*
D02*
G37*
G36*
X360680Y322142D02*
X358802D01*
Y320264D01*
X360680D01*
Y322142D01*
D02*
G37*
G36*
X357802D02*
X355924D01*
Y320264D01*
X357802D01*
Y322142D01*
D02*
G37*
G36*
X360680Y319264D02*
X358802D01*
Y317386D01*
X360680D01*
Y319264D01*
D02*
G37*
G36*
X357802D02*
X355924D01*
Y317386D01*
X357802D01*
Y319264D01*
D02*
G37*
G36*
X190200Y317744D02*
Y316700D01*
X190776D01*
X190445Y317499D01*
X190200Y317744D01*
D02*
G37*
G36*
X313282Y317947D02*
X311404D01*
Y316069D01*
X313282D01*
Y317947D01*
D02*
G37*
G36*
X310404D02*
X308526D01*
Y316069D01*
X310404D01*
Y317947D01*
D02*
G37*
G36*
X305786Y317829D02*
X303908D01*
Y315951D01*
X305786D01*
Y317829D01*
D02*
G37*
G36*
X302908D02*
X301030D01*
Y315951D01*
X302908D01*
Y317829D01*
D02*
G37*
G36*
X321680Y317729D02*
X319491D01*
Y315642D01*
X321680D01*
Y317729D01*
D02*
G37*
G36*
X318491D02*
X316301D01*
Y315642D01*
X318491D01*
Y317729D01*
D02*
G37*
G36*
X201800Y316000D02*
X200000D01*
Y315100D01*
X201800D01*
Y316000D01*
D02*
G37*
G36*
X190776Y315700D02*
X190200D01*
Y314656D01*
X190445Y314901D01*
X190776Y315700D01*
D02*
G37*
G36*
X313282Y315069D02*
X311404D01*
Y313192D01*
X313282D01*
Y315069D01*
D02*
G37*
G36*
X310404D02*
X308526D01*
Y313192D01*
X310404D01*
Y315069D01*
D02*
G37*
G36*
X305786Y314951D02*
X303908D01*
Y313073D01*
X305786D01*
Y314951D01*
D02*
G37*
G36*
X302908D02*
X301030D01*
Y313073D01*
X302908D01*
Y314951D01*
D02*
G37*
G36*
X360432Y314367D02*
X358345D01*
Y312177D01*
X360432D01*
Y314367D01*
D02*
G37*
G36*
Y311177D02*
X358345D01*
Y308988D01*
X360432D01*
Y311177D01*
D02*
G37*
G36*
X190200Y309344D02*
Y308300D01*
X190776D01*
X190445Y309099D01*
X190200Y309344D01*
D02*
G37*
G36*
X201800Y308900D02*
X200000D01*
Y308000D01*
X201800D01*
Y308900D01*
D02*
G37*
G36*
X190776Y307300D02*
X190200D01*
Y306256D01*
X190445Y306501D01*
X190776Y307300D01*
D02*
G37*
G36*
X491579Y304118D02*
X491335Y303873D01*
X491004Y303074D01*
X491579D01*
Y304118D01*
D02*
G37*
G36*
X354402Y303902D02*
X353311D01*
Y302811D01*
X354402D01*
Y303902D01*
D02*
G37*
G36*
X491579Y302074D02*
X491004D01*
X491335Y301275D01*
X491579Y301030D01*
Y302074D01*
D02*
G37*
G36*
Y295718D02*
X491335Y295473D01*
X491004Y294674D01*
X491579D01*
Y295718D01*
D02*
G37*
G36*
X369634Y295378D02*
X367756D01*
Y293500D01*
X369634D01*
Y295378D01*
D02*
G37*
G36*
X366756D02*
X364878D01*
Y293500D01*
X366756D01*
Y295378D01*
D02*
G37*
G36*
X491579Y293674D02*
X491004D01*
X491335Y292875D01*
X491579Y292630D01*
Y293674D01*
D02*
G37*
G36*
X190200Y274744D02*
Y273700D01*
X190776D01*
X190445Y274499D01*
X190200Y274744D01*
D02*
G37*
G36*
X201800Y273000D02*
X200000D01*
Y272100D01*
X201800D01*
Y273000D01*
D02*
G37*
G36*
X190776Y272700D02*
X190200D01*
Y271656D01*
X190445Y271901D01*
X190776Y272700D01*
D02*
G37*
G36*
X311949Y272481D02*
X310071D01*
Y270603D01*
X311949D01*
Y272481D01*
D02*
G37*
G36*
X309071D02*
X307193D01*
Y270603D01*
X309071D01*
Y272481D01*
D02*
G37*
G36*
X320347Y270185D02*
X318158D01*
Y268097D01*
X320347D01*
Y270185D01*
D02*
G37*
G36*
X317158D02*
X314968D01*
Y268097D01*
X317158D01*
Y270185D01*
D02*
G37*
G36*
X311949Y269603D02*
X310071D01*
Y267725D01*
X311949D01*
Y269603D01*
D02*
G37*
G36*
X309071D02*
X307193D01*
Y267725D01*
X309071D01*
Y269603D01*
D02*
G37*
G36*
X408500Y268228D02*
Y266500D01*
X410228D01*
X409907Y267274D01*
X409274Y267908D01*
X408500Y268228D01*
D02*
G37*
G36*
X407500D02*
X406726Y267908D01*
X406093Y267274D01*
X405772Y266500D01*
X407500D01*
Y268228D01*
D02*
G37*
G36*
X190200Y266344D02*
Y265300D01*
X190776D01*
X190445Y266099D01*
X190200Y266344D01*
D02*
G37*
G36*
X201800Y265900D02*
X200000D01*
Y265000D01*
X201800D01*
Y265900D01*
D02*
G37*
G36*
X410228Y265500D02*
X408500D01*
Y263772D01*
X409274Y264092D01*
X409907Y264725D01*
X410228Y265500D01*
D02*
G37*
G36*
X407500D02*
X405772D01*
X406093Y264725D01*
X406726Y264092D01*
X407500Y263772D01*
Y265500D01*
D02*
G37*
G36*
X190776Y264300D02*
X190200D01*
Y263256D01*
X190445Y263501D01*
X190776Y264300D01*
D02*
G37*
G36*
X418000Y257728D02*
Y256000D01*
X419728D01*
X419408Y256774D01*
X418775Y257407D01*
X418000Y257728D01*
D02*
G37*
G36*
X417000D02*
X416225Y257407D01*
X415592Y256774D01*
X415272Y256000D01*
X417000D01*
Y257728D01*
D02*
G37*
G36*
X419728Y255000D02*
X418000D01*
Y253272D01*
X418775Y253592D01*
X419408Y254225D01*
X419728Y255000D01*
D02*
G37*
G36*
X417000D02*
X415272D01*
X415592Y254225D01*
X416225Y253592D01*
X417000Y253272D01*
Y255000D01*
D02*
G37*
G36*
X400728Y252000D02*
X399000D01*
Y250272D01*
X399775Y250592D01*
X400408Y251225D01*
X400728Y252000D01*
D02*
G37*
G36*
X398000D02*
X396272D01*
X396592Y251225D01*
X397225Y250592D01*
X398000Y250272D01*
Y252000D01*
D02*
G37*
G36*
X427500Y245378D02*
Y243500D01*
X429378D01*
Y245378D01*
X427500D01*
D02*
G37*
G36*
X402000Y245228D02*
Y243500D01*
X403728D01*
X403407Y244274D01*
X402774Y244907D01*
X402000Y245228D01*
D02*
G37*
G36*
X401000D02*
X400225Y244907D01*
X399592Y244274D01*
X399272Y243500D01*
X401000D01*
Y245228D01*
D02*
G37*
G36*
X450500Y243228D02*
Y241500D01*
X452228D01*
X451907Y242274D01*
X451274Y242908D01*
X450500Y243228D01*
D02*
G37*
G36*
X449500D02*
X448726Y242908D01*
X448093Y242274D01*
X447772Y241500D01*
X449500D01*
Y243228D01*
D02*
G37*
G36*
X403728Y242500D02*
X402000D01*
Y240772D01*
X402774Y241092D01*
X403407Y241725D01*
X403728Y242500D01*
D02*
G37*
G36*
X401000D02*
X399272D01*
X399592Y241725D01*
X400225Y241092D01*
X401000Y240772D01*
Y242500D01*
D02*
G37*
G36*
X429378D02*
X427500D01*
Y240622D01*
X429378D01*
Y242500D01*
D02*
G37*
G36*
X419399Y246761D02*
X414601D01*
Y242567D01*
X419399D01*
Y243257D01*
X420844D01*
X421339Y242762D01*
X422092Y242450D01*
X422908D01*
X423661Y242762D01*
X424022Y243123D01*
X424622Y242874D01*
Y240622D01*
X426500D01*
Y243000D01*
Y245378D01*
X424721Y245378D01*
X424319Y245614D01*
X424168Y245731D01*
X423661Y246238D01*
X422908Y246550D01*
X422092D01*
X421339Y246238D01*
X421008Y245908D01*
X419399D01*
Y246761D01*
D02*
G37*
G36*
X452228Y240500D02*
X450500D01*
Y238772D01*
X451274Y239092D01*
X451907Y239725D01*
X452228Y240500D01*
D02*
G37*
G36*
X449500D02*
X447772D01*
X448093Y239725D01*
X448726Y239092D01*
X449500Y238772D01*
Y240500D01*
D02*
G37*
G36*
X428500Y237728D02*
X427726Y237407D01*
X427093Y236774D01*
X426772Y236000D01*
X428500D01*
Y237728D01*
D02*
G37*
G36*
X364674Y242422D02*
X360318D01*
Y238066D01*
X360745D01*
X360950Y237466D01*
X359267Y235783D01*
X359266Y235784D01*
X359126Y235601D01*
X358370D01*
X358230Y235784D01*
X358229Y235783D01*
X356546Y237466D01*
X356751Y238066D01*
X357178D01*
Y242422D01*
X352822D01*
Y238066D01*
X353496D01*
X353578Y237500D01*
X353578D01*
X353772Y236524D01*
X354325Y235697D01*
X354341Y235712D01*
X354341Y235712D01*
X356249Y233804D01*
X356264Y233794D01*
X356379Y233517D01*
X356375Y233500D01*
Y228785D01*
X356385Y228734D01*
X356233Y227575D01*
X355765Y226447D01*
X355053Y225519D01*
X355010Y225490D01*
X352939Y223419D01*
X352902Y223364D01*
X351619Y222310D01*
X350097Y221497D01*
X348445Y220996D01*
X346799Y220834D01*
X346737Y220846D01*
X343341D01*
Y220861D01*
X342064Y220693D01*
X340874Y220200D01*
X339852Y219416D01*
X339068Y218394D01*
X338575Y217204D01*
X338551Y217027D01*
X337946D01*
X337923Y217204D01*
X337430Y218394D01*
X336646Y219416D01*
X335624Y220200D01*
X334434Y220693D01*
X333157Y220861D01*
Y220846D01*
X321753D01*
X321753Y220846D01*
X321735D01*
X321735Y220846D01*
X320947D01*
X320947Y220846D01*
Y220860D01*
X318881Y220697D01*
X316865Y220213D01*
X314950Y219420D01*
X313183Y218337D01*
X311607Y216991D01*
X310981Y216257D01*
X310548Y215841D01*
X310536Y215812D01*
X310184Y215327D01*
X310154Y215291D01*
X309777Y214831D01*
X309143Y213645D01*
X308753Y212359D01*
X308621Y211021D01*
X308627D01*
Y203000D01*
X308634Y202964D01*
X308503Y201635D01*
X308105Y200323D01*
X307459Y199114D01*
X306611Y198081D01*
X306581Y198061D01*
X303448Y194928D01*
X303328Y194848D01*
X303171Y194768D01*
X302977Y194693D01*
X302745Y194624D01*
X302475Y194566D01*
X302179Y194521D01*
X301441Y194469D01*
X301025Y194465D01*
X300950Y194450D01*
X300480D01*
X299476Y194180D01*
X298575Y193660D01*
X297839Y192925D01*
X297320Y192025D01*
X297050Y191020D01*
Y189980D01*
X297320Y188976D01*
X297839Y188075D01*
X298575Y187339D01*
X299476Y186820D01*
X300480Y186550D01*
X301520D01*
X302524Y186820D01*
X303425Y187339D01*
X304160Y188075D01*
X304680Y188976D01*
X304950Y189980D01*
Y190442D01*
X304965Y190509D01*
X304988Y191336D01*
X305020Y191669D01*
X305066Y191975D01*
X305124Y192245D01*
X305193Y192477D01*
X305268Y192671D01*
X305348Y192828D01*
X305428Y192948D01*
X308561Y196081D01*
X308561Y196081D01*
X308576Y196067D01*
X309795Y197553D01*
X310683Y199214D01*
X310829Y199248D01*
X311171Y199248D01*
X311317Y199214D01*
X312205Y197553D01*
X313425Y196067D01*
X313439Y196081D01*
X316739Y192781D01*
X316774Y192738D01*
X316842Y192644D01*
X316898Y192552D01*
X316942Y192464D01*
X316978Y192377D01*
X317004Y192291D01*
X317023Y192204D01*
X317026Y192185D01*
X317004Y192075D01*
Y188925D01*
X317188Y187999D01*
X317713Y187213D01*
X318499Y186688D01*
X319425Y186504D01*
X322575D01*
X323501Y186688D01*
X324287Y187213D01*
X324812Y187999D01*
X324996Y188925D01*
Y192075D01*
X324812Y193001D01*
X324287Y193787D01*
X323501Y194312D01*
X322575Y194496D01*
X319425D01*
X319315Y194474D01*
X319296Y194477D01*
X319209Y194496D01*
X319123Y194522D01*
X319036Y194557D01*
X318948Y194603D01*
X318856Y194658D01*
X318762Y194726D01*
X318719Y194761D01*
X315419Y198061D01*
X315388Y198081D01*
X314541Y199114D01*
X313895Y200323D01*
X313497Y201635D01*
X313366Y202964D01*
X313373Y203000D01*
Y211021D01*
X313364Y211065D01*
X313517Y211834D01*
X313650Y212032D01*
X313650Y212033D01*
X313979Y212492D01*
X314311Y212846D01*
X314385Y212936D01*
X314960Y213638D01*
X316243Y214691D01*
X317707Y215473D01*
X319295Y215955D01*
X320888Y216112D01*
X320947Y216100D01*
X333157D01*
Y216089D01*
X333272Y216042D01*
X333319Y215927D01*
X333330D01*
Y209658D01*
X333315D01*
X333483Y208381D01*
X333976Y207191D01*
X334760Y206169D01*
X335782Y205385D01*
X336972Y204892D01*
X338249Y204724D01*
X339526Y204892D01*
X340716Y205385D01*
X341738Y206169D01*
X342522Y207191D01*
X343015Y208381D01*
X343183Y209658D01*
X343168D01*
Y215572D01*
X343696Y216100D01*
X346137D01*
X346148Y216100D01*
X346738Y216083D01*
X346738Y216081D01*
X346738Y216081D01*
X346739Y216081D01*
X346903Y216095D01*
X347326Y216132D01*
X347323Y216132D01*
X347326Y216132D01*
X347335Y216133D01*
X348846Y216252D01*
X350913Y216748D01*
X352877Y217562D01*
X354689Y218672D01*
X355858Y219670D01*
X356305Y220053D01*
X356305Y220053D01*
X356715Y220483D01*
X358366Y222134D01*
X358379Y222121D01*
X359551Y223549D01*
X360422Y225179D01*
X360958Y226947D01*
X361139Y228785D01*
X361121D01*
Y233500D01*
X361118Y233517D01*
X361232Y233794D01*
X361247Y233804D01*
X362731Y235288D01*
X363171Y235697D01*
X363171Y235697D01*
X363724Y236524D01*
X363918Y237500D01*
X363918Y237500D01*
X364000Y238066D01*
X364674D01*
Y242422D01*
D02*
G37*
G36*
X339674D02*
X335318D01*
Y238066D01*
X335745D01*
X335950Y237466D01*
X334267Y235783D01*
X334266Y235784D01*
X334126Y235601D01*
X333370D01*
X333230Y235784D01*
X333229Y235783D01*
X331546Y237466D01*
X331751Y238066D01*
X332178D01*
Y242422D01*
X327822D01*
Y238066D01*
X328496D01*
X328578Y237500D01*
X328578D01*
X328772Y236524D01*
X329325Y235697D01*
X329341Y235712D01*
X329341Y235712D01*
X331249Y233804D01*
X331264Y233794D01*
X331379Y233517D01*
X331375Y233500D01*
Y231866D01*
X331326Y231435D01*
X331044Y231027D01*
X330509Y230374D01*
X329219Y229316D01*
X327748Y228530D01*
X326152Y228046D01*
X325085Y227940D01*
X325084Y227940D01*
X324497Y227911D01*
X324491Y227911D01*
X324480Y227910D01*
X324470Y227900D01*
X323897Y227900D01*
X316000D01*
X316000Y227900D01*
X312752D01*
Y227915D01*
X311061Y227748D01*
X309435Y227255D01*
X307937Y226454D01*
X306624Y225376D01*
X306634Y225366D01*
X302187Y220919D01*
X302152Y220866D01*
X300894Y219834D01*
X299404Y219038D01*
X297787Y218547D01*
X296168Y218388D01*
X296106Y218400D01*
X294485D01*
Y218415D01*
X293208Y218247D01*
X292018Y217754D01*
X290996Y216970D01*
X290212Y215948D01*
X289719Y214758D01*
X289696Y214581D01*
X289091D01*
X289067Y214758D01*
X288575Y215948D01*
X287790Y216970D01*
X286768Y217754D01*
X285578Y218247D01*
X284301Y218415D01*
Y218400D01*
X278338D01*
Y218418D01*
X276977Y218239D01*
X275710Y217714D01*
X274621Y216879D01*
X274634Y216866D01*
X269988Y212220D01*
X269988Y212220D01*
X269979Y212228D01*
X269253Y211283D01*
X268797Y210182D01*
X268642Y209000D01*
X268654D01*
Y203942D01*
X268627Y203806D01*
Y203000D01*
X268634Y202964D01*
X268503Y201635D01*
X268105Y200323D01*
X267459Y199114D01*
X266612Y198081D01*
X266581Y198061D01*
X263448Y194928D01*
X263328Y194848D01*
X263171Y194768D01*
X262977Y194693D01*
X262745Y194624D01*
X262475Y194566D01*
X262179Y194521D01*
X261441Y194469D01*
X261025Y194465D01*
X260950Y194450D01*
X260480D01*
X259475Y194180D01*
X258575Y193660D01*
X257839Y192925D01*
X257320Y192025D01*
X257050Y191020D01*
Y189980D01*
X257320Y188976D01*
X257839Y188075D01*
X258575Y187339D01*
X259475Y186820D01*
X260480Y186550D01*
X261520D01*
X262525Y186820D01*
X263425Y187339D01*
X264160Y188075D01*
X264680Y188976D01*
X264950Y189980D01*
Y190442D01*
X264965Y190509D01*
X264988Y191336D01*
X265020Y191669D01*
X265066Y191975D01*
X265125Y192245D01*
X265193Y192477D01*
X265268Y192671D01*
X265348Y192828D01*
X265427Y192948D01*
X268561Y196081D01*
X268561Y196081D01*
X268576Y196067D01*
X269795Y197553D01*
X270683Y199214D01*
X270829Y199248D01*
X271171Y199248D01*
X271318Y199214D01*
X272205Y197553D01*
X273425Y196067D01*
X273439Y196081D01*
X276572Y192948D01*
X276652Y192828D01*
X276732Y192671D01*
X276807Y192477D01*
X276875Y192245D01*
X276934Y191975D01*
X276978Y191679D01*
X277031Y190941D01*
X277035Y190525D01*
X277050Y190450D01*
Y189980D01*
X277320Y188976D01*
X277839Y188075D01*
X278575Y187339D01*
X279475Y186820D01*
X280480Y186550D01*
X281520D01*
X282524Y186820D01*
X283425Y187339D01*
X284160Y188075D01*
X284680Y188976D01*
X284950Y189980D01*
Y191020D01*
X284680Y192025D01*
X284160Y192925D01*
X283425Y193660D01*
X282524Y194180D01*
X281520Y194450D01*
X281058D01*
X280991Y194465D01*
X280164Y194488D01*
X279831Y194520D01*
X279525Y194566D01*
X279255Y194624D01*
X279023Y194693D01*
X278829Y194768D01*
X278672Y194848D01*
X278552Y194928D01*
X275419Y198061D01*
X275389Y198081D01*
X274541Y199114D01*
X273895Y200323D01*
X273497Y201635D01*
X273373Y202892D01*
X273400Y203027D01*
Y208901D01*
X273413Y208933D01*
X277990Y213510D01*
X278004Y213532D01*
X278312Y213659D01*
X278338Y213654D01*
X284301D01*
Y213643D01*
X284416Y213596D01*
X284464Y213481D01*
X284474D01*
Y211405D01*
X284459D01*
X284627Y210128D01*
X285120Y208938D01*
X285904Y207916D01*
X286926Y207132D01*
X288116Y206639D01*
X289393Y206471D01*
X290670Y206639D01*
X291860Y207132D01*
X292882Y207916D01*
X293667Y208938D01*
X294159Y210128D01*
X294327Y211405D01*
X294312D01*
Y213481D01*
X294323D01*
X294371Y213596D01*
X294485Y213643D01*
Y213654D01*
X296106D01*
Y213640D01*
X298196Y213804D01*
X300234Y214294D01*
X302171Y215096D01*
X303959Y216191D01*
X305553Y217553D01*
X305543Y217563D01*
X309990Y222010D01*
X310008Y222037D01*
X310794Y222640D01*
X311738Y223031D01*
X312720Y223160D01*
X312752Y223154D01*
X316000D01*
X324493Y223154D01*
X324493Y223154D01*
Y223140D01*
X326565Y223303D01*
X328587Y223789D01*
X330508Y224584D01*
X332281Y225671D01*
X333862Y227021D01*
X334307Y227542D01*
X334311Y227546D01*
X334748Y227955D01*
X334757Y227977D01*
X334734Y227996D01*
X335071Y228435D01*
X335471Y228956D01*
X335967Y230155D01*
X336137Y231441D01*
X336121D01*
Y233500D01*
X336118Y233517D01*
X336232Y233794D01*
X336247Y233804D01*
X337731Y235288D01*
X338171Y235697D01*
X338171Y235697D01*
X338724Y236524D01*
X338918Y237500D01*
X338918Y237500D01*
X339000Y238066D01*
X339674D01*
Y242422D01*
D02*
G37*
G36*
X394500Y236228D02*
Y234500D01*
X396228D01*
X395907Y235275D01*
X395274Y235908D01*
X394500Y236228D01*
D02*
G37*
G36*
X393500D02*
X392725Y235908D01*
X392092Y235275D01*
X391772Y234500D01*
X393500D01*
Y236228D01*
D02*
G37*
G36*
X381180Y236299D02*
X379302D01*
Y234421D01*
X381180D01*
Y236299D01*
D02*
G37*
G36*
X378302D02*
X376424D01*
Y234421D01*
X378302D01*
Y236299D01*
D02*
G37*
G36*
X455500Y235728D02*
Y234000D01*
X457228D01*
X456908Y234774D01*
X456275Y235407D01*
X455500Y235728D01*
D02*
G37*
G36*
X454500D02*
X453725Y235407D01*
X453092Y234774D01*
X452772Y234000D01*
X454500D01*
Y235728D01*
D02*
G37*
G36*
X450661Y237383D02*
Y233799D01*
X451656D01*
Y236272D01*
X451569Y236708D01*
X451322Y237078D01*
X450952Y237325D01*
X450661Y237383D01*
D02*
G37*
G36*
X428500Y235000D02*
X426772D01*
X427093Y234226D01*
X427726Y233593D01*
X428500Y233272D01*
Y235000D01*
D02*
G37*
G36*
X396228Y233500D02*
X394500D01*
Y231772D01*
X395274Y232092D01*
X395907Y232726D01*
X396228Y233500D01*
D02*
G37*
G36*
X393500D02*
X391772D01*
X392092Y232726D01*
X392725Y232092D01*
X393500Y231772D01*
Y233500D01*
D02*
G37*
G36*
X381180Y233421D02*
X379302D01*
Y231543D01*
X381180D01*
Y233421D01*
D02*
G37*
G36*
X378302D02*
X376424D01*
Y231543D01*
X378302D01*
Y233421D01*
D02*
G37*
G36*
X457228Y233000D02*
X455500D01*
Y231272D01*
X456275Y231592D01*
X456908Y232225D01*
X457228Y233000D01*
D02*
G37*
G36*
X454500D02*
X452772D01*
X453092Y232225D01*
X453725Y231592D01*
X454500Y231272D01*
Y233000D01*
D02*
G37*
G36*
X190200Y231744D02*
Y230700D01*
X190776D01*
X190445Y231499D01*
X190200Y231744D01*
D02*
G37*
G36*
X201800Y230000D02*
X200000D01*
Y229100D01*
X201800D01*
Y230000D01*
D02*
G37*
G36*
X190776Y229700D02*
X190200D01*
Y228656D01*
X190445Y228901D01*
X190776Y229700D01*
D02*
G37*
G36*
X400622Y230378D02*
X398744D01*
Y228500D01*
X400622D01*
Y230378D01*
D02*
G37*
G36*
X397744D02*
X395866D01*
Y228500D01*
X397744D01*
Y230378D01*
D02*
G37*
G36*
X428378Y228390D02*
X426500D01*
Y226512D01*
X428378D01*
Y228390D01*
D02*
G37*
G36*
X425500D02*
X423622D01*
Y226512D01*
X425500D01*
Y228390D01*
D02*
G37*
G36*
X400622Y227500D02*
X398744D01*
Y225622D01*
X400622D01*
Y227500D01*
D02*
G37*
G36*
X397744D02*
X395866D01*
Y225622D01*
X397744D01*
Y227500D01*
D02*
G37*
G36*
X428378Y225512D02*
X426500D01*
Y223634D01*
X428378D01*
Y225512D01*
D02*
G37*
G36*
X425500D02*
X423622D01*
Y223634D01*
X425500D01*
Y225512D01*
D02*
G37*
G36*
X460099Y224633D02*
X458000D01*
Y222836D01*
X460099D01*
Y224633D01*
D02*
G37*
G36*
X457000D02*
X454901D01*
Y222836D01*
X457000D01*
Y224633D01*
D02*
G37*
G36*
X437728Y224500D02*
X436000D01*
Y222772D01*
X436774Y223093D01*
X437407Y223726D01*
X437728Y224500D01*
D02*
G37*
G36*
X435000D02*
X433272D01*
X433593Y223726D01*
X434226Y223093D01*
X435000Y222772D01*
Y224500D01*
D02*
G37*
G36*
X190200Y223344D02*
Y222300D01*
X190776D01*
X190445Y223099D01*
X190200Y223344D01*
D02*
G37*
G36*
X410000Y223728D02*
Y222000D01*
X411728D01*
X411408Y222775D01*
X410775Y223408D01*
X410000Y223728D01*
D02*
G37*
G36*
X409000D02*
X408225Y223408D01*
X407592Y222775D01*
X407272Y222000D01*
X409000D01*
Y223728D01*
D02*
G37*
G36*
X368468Y224099D02*
X366672D01*
Y222000D01*
X368468D01*
Y224099D01*
D02*
G37*
G36*
X365672D02*
X363875D01*
Y222000D01*
X365672D01*
Y224099D01*
D02*
G37*
G36*
X201800Y222900D02*
X200000D01*
Y222000D01*
X201800D01*
Y222900D01*
D02*
G37*
G36*
X190776Y221300D02*
X190200D01*
Y220256D01*
X190445Y220501D01*
X190776Y221300D01*
D02*
G37*
G36*
X460099Y221836D02*
X458000D01*
Y220039D01*
X460099D01*
Y221836D01*
D02*
G37*
G36*
X457000D02*
X454901D01*
Y220039D01*
X457000D01*
Y221836D01*
D02*
G37*
G36*
X411728Y221000D02*
X410000D01*
Y219272D01*
X410775Y219592D01*
X411408Y220226D01*
X411728Y221000D01*
D02*
G37*
G36*
X409000D02*
X407272D01*
X407592Y220226D01*
X408225Y219592D01*
X409000Y219272D01*
Y221000D01*
D02*
G37*
G36*
X448500Y220728D02*
Y219000D01*
X450228D01*
X449907Y219775D01*
X449274Y220408D01*
X448500Y220728D01*
D02*
G37*
G36*
X447500D02*
X446726Y220408D01*
X446093Y219775D01*
X445772Y219000D01*
X447500D01*
Y220728D01*
D02*
G37*
G36*
X368468Y221000D02*
X366672D01*
Y218901D01*
X368468D01*
Y221000D01*
D02*
G37*
G36*
X365672D02*
X363875D01*
Y218901D01*
X365672D01*
Y221000D01*
D02*
G37*
G36*
X390453Y218300D02*
X389403D01*
Y218100D01*
X383697D01*
Y217014D01*
X380980D01*
Y217744D01*
X376624D01*
Y216892D01*
X369066D01*
X368559Y216791D01*
X368129Y216503D01*
X365819Y214193D01*
X365531Y213763D01*
X365430Y213256D01*
Y211678D01*
X364578D01*
Y207322D01*
X364921D01*
Y204178D01*
X364578D01*
Y199822D01*
X364921D01*
Y193962D01*
X364398Y193660D01*
X363662Y192925D01*
X363142Y192025D01*
X362873Y191020D01*
Y189980D01*
X363142Y188976D01*
X363662Y188075D01*
X364398Y187339D01*
X365298Y186820D01*
X366303Y186550D01*
X367343D01*
X368347Y186820D01*
X369248Y187339D01*
X369983Y188075D01*
X370503Y188976D01*
X370772Y189980D01*
Y191020D01*
X370503Y192025D01*
X369983Y192925D01*
X369248Y193660D01*
X368591Y194040D01*
Y199822D01*
X368934D01*
Y204178D01*
X368591D01*
Y207322D01*
X368934D01*
Y211678D01*
X368081D01*
Y212707D01*
X369615Y214241D01*
X376624D01*
Y213388D01*
X380980D01*
Y214363D01*
X383697D01*
Y213522D01*
X385792D01*
Y209023D01*
X375958Y199188D01*
X375693Y198791D01*
X375599Y198323D01*
Y194261D01*
X375298Y194180D01*
X374398Y193660D01*
X373662Y192925D01*
X373142Y192025D01*
X372873Y191020D01*
Y189980D01*
X373142Y188976D01*
X373662Y188075D01*
X374398Y187339D01*
X375298Y186820D01*
X376303Y186550D01*
X377343D01*
X378347Y186820D01*
X379248Y187339D01*
X379983Y188075D01*
X380503Y188976D01*
X380772Y189980D01*
Y191020D01*
X380503Y192025D01*
X379983Y192925D01*
X379248Y193660D01*
X378347Y194180D01*
X378046Y194261D01*
Y197816D01*
X387881Y207651D01*
X388146Y208048D01*
X388239Y208516D01*
Y213522D01*
X389403D01*
Y213322D01*
X390453D01*
Y215811D01*
Y218300D01*
D02*
G37*
G36*
X392503D02*
X391453D01*
Y216311D01*
X392503D01*
Y218300D01*
D02*
G37*
G36*
X450228Y218000D02*
X448500D01*
Y216272D01*
X449274Y216593D01*
X449907Y217226D01*
X450228Y218000D01*
D02*
G37*
G36*
X447500D02*
X445772D01*
X446093Y217226D01*
X446726Y216593D01*
X447500Y216272D01*
Y218000D01*
D02*
G37*
G36*
X400622Y217878D02*
X398744D01*
Y216000D01*
X400622D01*
Y217878D01*
D02*
G37*
G36*
X362000Y217728D02*
Y216000D01*
X363728D01*
X363407Y216775D01*
X362774Y217407D01*
X362000Y217728D01*
D02*
G37*
G36*
X361000D02*
X360226Y217407D01*
X359593Y216775D01*
X359272Y216000D01*
X361000D01*
Y217728D01*
D02*
G37*
G36*
X397744Y217878D02*
X395866D01*
Y216000D01*
X397744D01*
Y217878D01*
D02*
G37*
G36*
X449661Y214784D02*
X449374Y214727D01*
X449087Y214784D01*
Y210701D01*
Y206617D01*
X449374Y206675D01*
X449661Y206617D01*
Y210701D01*
Y214784D01*
D02*
G37*
G36*
X392503Y215311D02*
X391453D01*
Y213322D01*
X392503D01*
Y215311D01*
D02*
G37*
G36*
X363728Y215000D02*
X362000D01*
Y213272D01*
X362774Y213593D01*
X363407Y214226D01*
X363728Y215000D01*
D02*
G37*
G36*
X361000D02*
X359272D01*
X359593Y214226D01*
X360226Y213593D01*
X361000Y213272D01*
Y215000D01*
D02*
G37*
G36*
X400622D02*
X398744D01*
Y213122D01*
X400622D01*
Y215000D01*
D02*
G37*
G36*
X397744D02*
X395866D01*
Y213122D01*
X397744D01*
Y215000D01*
D02*
G37*
G36*
X381180Y212432D02*
X379302D01*
Y210554D01*
X381180D01*
Y212432D01*
D02*
G37*
G36*
X378302D02*
X376424D01*
Y210554D01*
X378302D01*
Y212432D01*
D02*
G37*
G36*
X455000Y212228D02*
Y210500D01*
X456728D01*
X456407Y211275D01*
X455774Y211908D01*
X455000Y212228D01*
D02*
G37*
G36*
X394000D02*
Y210500D01*
X395728D01*
X395408Y211275D01*
X394775Y211908D01*
X394000Y212228D01*
D02*
G37*
G36*
X393000D02*
X392226Y211908D01*
X391593Y211275D01*
X391272Y210500D01*
X393000D01*
Y212228D01*
D02*
G37*
G36*
X373000D02*
Y210500D01*
X374728D01*
X374408Y211275D01*
X373775Y211908D01*
X373000Y212228D01*
D02*
G37*
G36*
X372000D02*
X371226Y211908D01*
X370592Y211275D01*
X370272Y210500D01*
X372000D01*
Y212228D01*
D02*
G37*
G36*
X363622Y211878D02*
X361744D01*
Y210000D01*
X363622D01*
Y211878D01*
D02*
G37*
G36*
X360744D02*
X358866D01*
Y210000D01*
X360744D01*
Y211878D01*
D02*
G37*
G36*
X456728Y209500D02*
X455000D01*
Y207772D01*
X455774Y208092D01*
X456407Y208726D01*
X456728Y209500D01*
D02*
G37*
G36*
X450661Y214784D02*
Y210701D01*
Y206617D01*
X450952Y206675D01*
X451322Y206922D01*
X451569Y207292D01*
X451656Y207728D01*
Y209539D01*
X452250Y209552D01*
X452593Y208726D01*
X453226Y208092D01*
X454000Y207772D01*
Y210000D01*
Y212228D01*
X453226Y211908D01*
X452593Y211275D01*
X452250Y210448D01*
X451656Y210461D01*
Y213673D01*
X451569Y214109D01*
X451322Y214479D01*
X450952Y214726D01*
X450661Y214784D01*
D02*
G37*
G36*
X395728Y209500D02*
X394000D01*
Y207772D01*
X394775Y208092D01*
X395408Y208726D01*
X395728Y209500D01*
D02*
G37*
G36*
X393000D02*
X391272D01*
X391593Y208726D01*
X392226Y208092D01*
X393000Y207772D01*
Y209500D01*
D02*
G37*
G36*
X374728D02*
X373000D01*
Y207772D01*
X373775Y208092D01*
X374408Y208726D01*
X374728Y209500D01*
D02*
G37*
G36*
X372000D02*
X370272D01*
X370592Y208726D01*
X371226Y208092D01*
X372000Y207772D01*
Y209500D01*
D02*
G37*
G36*
X381180Y209554D02*
X379302D01*
Y207676D01*
X381180D01*
Y209554D01*
D02*
G37*
G36*
X378302D02*
X376424D01*
Y207676D01*
X378302D01*
Y209554D01*
D02*
G37*
G36*
X363622Y209000D02*
X361744D01*
Y207122D01*
X363622D01*
Y209000D01*
D02*
G37*
G36*
X360744D02*
X358866D01*
Y207122D01*
X360744D01*
Y209000D01*
D02*
G37*
G36*
X420500Y208728D02*
Y207000D01*
X422228D01*
X421908Y207774D01*
X421275Y208407D01*
X420500Y208728D01*
D02*
G37*
G36*
X419500D02*
X418725Y208407D01*
X418092Y207774D01*
X417772Y207000D01*
X419500D01*
Y208728D01*
D02*
G37*
G36*
X355500Y208228D02*
Y206500D01*
X357228D01*
X356908Y207275D01*
X356275Y207908D01*
X355500Y208228D01*
D02*
G37*
G36*
X354500D02*
X353726Y207908D01*
X353093Y207275D01*
X352772Y206500D01*
X354500D01*
Y208228D01*
D02*
G37*
G36*
X422228Y206000D02*
X420500D01*
Y204272D01*
X421275Y204592D01*
X421908Y205225D01*
X422228Y206000D01*
D02*
G37*
G36*
X419500D02*
X417772D01*
X418092Y205225D01*
X418725Y204592D01*
X419500Y204272D01*
Y206000D01*
D02*
G37*
G36*
X357228Y205500D02*
X355500D01*
Y203772D01*
X356275Y204093D01*
X356908Y204726D01*
X357228Y205500D01*
D02*
G37*
G36*
X354500D02*
X352772D01*
X353093Y204726D01*
X353726Y204093D01*
X354500Y203772D01*
Y205500D01*
D02*
G37*
G36*
X363622Y204378D02*
X361744D01*
Y202500D01*
X363622D01*
Y204378D01*
D02*
G37*
G36*
X360744D02*
X358866D01*
Y202500D01*
X360744D01*
Y204378D01*
D02*
G37*
G36*
X363622Y201500D02*
X361744D01*
Y199622D01*
X363622D01*
Y201500D01*
D02*
G37*
G36*
X360744D02*
X358866D01*
Y199622D01*
X360744D01*
Y201500D01*
D02*
G37*
G36*
X462000Y201228D02*
Y199500D01*
X463728D01*
X463408Y200274D01*
X462775Y200907D01*
X462000Y201228D01*
D02*
G37*
G36*
X461000D02*
X460225Y200907D01*
X459592Y200274D01*
X459272Y199500D01*
X461000D01*
Y201228D01*
D02*
G37*
G36*
X357000Y200228D02*
Y198500D01*
X358728D01*
X358407Y199275D01*
X357774Y199908D01*
X357000Y200228D01*
D02*
G37*
G36*
X356000D02*
X355225Y199908D01*
X354592Y199275D01*
X354272Y198500D01*
X356000D01*
Y200228D01*
D02*
G37*
G36*
X463728Y198500D02*
X462000D01*
Y196772D01*
X462775Y197092D01*
X463408Y197725D01*
X463728Y198500D01*
D02*
G37*
G36*
X461000D02*
X459272D01*
X459592Y197725D01*
X460225Y197092D01*
X461000Y196772D01*
Y198500D01*
D02*
G37*
G36*
X448728Y198000D02*
X447000D01*
Y196272D01*
X447775Y196592D01*
X448408Y197225D01*
X448728Y198000D01*
D02*
G37*
G36*
X446000D02*
X444272D01*
X444593Y197225D01*
X445225Y196592D01*
X446000Y196272D01*
Y198000D01*
D02*
G37*
G36*
X358728Y197500D02*
X357000D01*
Y195772D01*
X357774Y196092D01*
X358407Y196725D01*
X358728Y197500D01*
D02*
G37*
G36*
X356000D02*
X354272D01*
X354592Y196725D01*
X355225Y196092D01*
X356000Y195772D01*
Y197500D01*
D02*
G37*
G36*
X347369Y194650D02*
X347323D01*
Y191000D01*
X350972D01*
Y191046D01*
X350690Y192102D01*
X350143Y193048D01*
X349371Y193821D01*
X348425Y194367D01*
X347369Y194650D01*
D02*
G37*
G36*
X291546D02*
X291500D01*
Y191000D01*
X295150D01*
Y191046D01*
X294867Y192102D01*
X294321Y193048D01*
X293548Y193821D01*
X292602Y194367D01*
X291546Y194650D01*
D02*
G37*
G36*
X251546D02*
X251500D01*
Y191000D01*
X255150D01*
Y191046D01*
X254867Y192102D01*
X254321Y193048D01*
X253548Y193821D01*
X252602Y194367D01*
X251546Y194650D01*
D02*
G37*
G36*
X311546D02*
X311500D01*
Y191000D01*
X315150D01*
Y191046D01*
X314867Y192102D01*
X314320Y193048D01*
X313548Y193821D01*
X312602Y194367D01*
X311546Y194650D01*
D02*
G37*
G36*
X271546D02*
X271500D01*
Y191000D01*
X275150D01*
Y191046D01*
X274867Y192102D01*
X274321Y193048D01*
X273548Y193821D01*
X272602Y194367D01*
X271546Y194650D01*
D02*
G37*
G36*
X491990Y200555D02*
X491500D01*
Y191000D01*
X501055D01*
Y191490D01*
X500669Y193433D01*
X499911Y195263D01*
X498810Y196910D01*
X497410Y198310D01*
X495763Y199411D01*
X493933Y200169D01*
X491990Y200555D01*
D02*
G37*
G36*
X490500D02*
X490010D01*
X488067Y200169D01*
X486237Y199411D01*
X484590Y198310D01*
X483190Y196910D01*
X482089Y195263D01*
X481331Y193433D01*
X480945Y191490D01*
Y191000D01*
X490500D01*
Y200555D01*
D02*
G37*
G36*
X191990D02*
X191500D01*
Y191000D01*
X201055D01*
Y191490D01*
X200669Y193433D01*
X199911Y195263D01*
X198810Y196910D01*
X197410Y198310D01*
X195763Y199411D01*
X193933Y200169D01*
X191990Y200555D01*
D02*
G37*
G36*
X190500D02*
X190010D01*
X188067Y200169D01*
X186237Y199411D01*
X184590Y198310D01*
X183190Y196910D01*
X182089Y195263D01*
X181331Y193433D01*
X180945Y191490D01*
Y191000D01*
X190500D01*
Y200555D01*
D02*
G37*
G36*
X290500Y194650D02*
X290454D01*
X289398Y194367D01*
X288452Y193821D01*
X287680Y193048D01*
X287133Y192102D01*
X286850Y191046D01*
Y191000D01*
X290500D01*
Y194650D01*
D02*
G37*
G36*
X250500D02*
X250454D01*
X249398Y194367D01*
X248452Y193821D01*
X247679Y193048D01*
X247133Y192102D01*
X246850Y191046D01*
Y191000D01*
X250500D01*
Y194650D01*
D02*
G37*
G36*
X310500D02*
X310454D01*
X309398Y194367D01*
X308452Y193821D01*
X307680Y193048D01*
X307133Y192102D01*
X306850Y191046D01*
Y191000D01*
X310500D01*
Y194650D01*
D02*
G37*
G36*
X270500D02*
X270454D01*
X269398Y194367D01*
X268452Y193821D01*
X267680Y193048D01*
X267133Y192102D01*
X266850Y191046D01*
Y191000D01*
X270500D01*
Y194650D01*
D02*
G37*
G36*
X346323D02*
X346276D01*
X345221Y194367D01*
X344275Y193821D01*
X343502Y193048D01*
X342956Y192102D01*
X342673Y191046D01*
Y191000D01*
X346323D01*
Y194650D01*
D02*
G37*
G36*
X357343Y194450D02*
X356303D01*
X355298Y194180D01*
X354398Y193660D01*
X353662Y192925D01*
X353142Y192025D01*
X352873Y191020D01*
Y189980D01*
X353142Y188976D01*
X353662Y188075D01*
X354398Y187339D01*
X355298Y186820D01*
X356303Y186550D01*
X357343D01*
X358347Y186820D01*
X359248Y187339D01*
X359983Y188075D01*
X360503Y188976D01*
X360772Y189980D01*
Y191020D01*
X360503Y192025D01*
X359983Y192925D01*
X359248Y193660D01*
X358347Y194180D01*
X357343Y194450D01*
D02*
G37*
G36*
X350972Y190000D02*
X347323D01*
Y186350D01*
X347369D01*
X348425Y186633D01*
X349371Y187180D01*
X350143Y187952D01*
X350690Y188898D01*
X350972Y189954D01*
Y190000D01*
D02*
G37*
G36*
X346323D02*
X342673D01*
Y189954D01*
X342956Y188898D01*
X343502Y187952D01*
X344275Y187180D01*
X345221Y186633D01*
X346276Y186350D01*
X346323D01*
Y190000D01*
D02*
G37*
G36*
X315150D02*
X311500D01*
Y186350D01*
X311546D01*
X312602Y186633D01*
X313548Y187180D01*
X314320Y187952D01*
X314867Y188898D01*
X315150Y189954D01*
Y190000D01*
D02*
G37*
G36*
X310500D02*
X306850D01*
Y189954D01*
X307133Y188898D01*
X307680Y187952D01*
X308452Y187180D01*
X309398Y186633D01*
X310454Y186350D01*
X310500D01*
Y190000D01*
D02*
G37*
G36*
X295150D02*
X291500D01*
Y186350D01*
X291546D01*
X292602Y186633D01*
X293548Y187180D01*
X294321Y187952D01*
X294867Y188898D01*
X295150Y189954D01*
Y190000D01*
D02*
G37*
G36*
X290500D02*
X286850D01*
Y189954D01*
X287133Y188898D01*
X287680Y187952D01*
X288452Y187180D01*
X289398Y186633D01*
X290454Y186350D01*
X290500D01*
Y190000D01*
D02*
G37*
G36*
X275150D02*
X271500D01*
Y186350D01*
X271546D01*
X272602Y186633D01*
X273548Y187180D01*
X274321Y187952D01*
X274867Y188898D01*
X275150Y189954D01*
Y190000D01*
D02*
G37*
G36*
X270500D02*
X266850D01*
Y189954D01*
X267133Y188898D01*
X267680Y187952D01*
X268452Y187180D01*
X269398Y186633D01*
X270454Y186350D01*
X270500D01*
Y190000D01*
D02*
G37*
G36*
X255150D02*
X251500D01*
Y186350D01*
X251546D01*
X252602Y186633D01*
X253548Y187180D01*
X254321Y187952D01*
X254867Y188898D01*
X255150Y189954D01*
Y190000D01*
D02*
G37*
G36*
X250500D02*
X246850D01*
Y189954D01*
X247133Y188898D01*
X247679Y187952D01*
X248452Y187180D01*
X249398Y186633D01*
X250454Y186350D01*
X250500D01*
Y190000D01*
D02*
G37*
G36*
X501055D02*
X491500D01*
Y180445D01*
X491990D01*
X493933Y180831D01*
X495763Y181589D01*
X497410Y182690D01*
X498810Y184090D01*
X499911Y185737D01*
X500669Y187567D01*
X501055Y189510D01*
Y190000D01*
D02*
G37*
G36*
X490500D02*
X480945D01*
Y189510D01*
X481331Y187567D01*
X482089Y185737D01*
X483190Y184090D01*
X484590Y182690D01*
X486237Y181589D01*
X488067Y180831D01*
X490010Y180445D01*
X490500D01*
Y190000D01*
D02*
G37*
G36*
X201055D02*
X191500D01*
Y180445D01*
X191990D01*
X193933Y180831D01*
X195763Y181589D01*
X197410Y182690D01*
X198810Y184090D01*
X199911Y185737D01*
X200669Y187567D01*
X201055Y189510D01*
Y190000D01*
D02*
G37*
G36*
X190500D02*
X180945D01*
Y189510D01*
X181331Y187567D01*
X182089Y185737D01*
X183190Y184090D01*
X184590Y182690D01*
X186237Y181589D01*
X188067Y180831D01*
X190010Y180445D01*
X190500D01*
Y190000D01*
D02*
G37*
%LPD*%
G36*
X325969Y387351D02*
X325526Y387347D01*
X324731Y387290D01*
X324377Y387236D01*
X324054Y387167D01*
X323760Y387080D01*
X323495Y386977D01*
X323260Y386857D01*
X323055Y386721D01*
X322879Y386569D01*
X322069Y387379D01*
X322221Y387555D01*
X322357Y387760D01*
X322477Y387995D01*
X322580Y388260D01*
X322667Y388554D01*
X322736Y388878D01*
X322790Y389231D01*
X322827Y389614D01*
X322851Y390469D01*
X325969Y387351D01*
D02*
G37*
G36*
X309153Y390026D02*
X309210Y389231D01*
X309264Y388878D01*
X309333Y388554D01*
X309420Y388260D01*
X309523Y387995D01*
X309643Y387760D01*
X309779Y387555D01*
X309931Y387379D01*
X309121Y386569D01*
X308945Y386721D01*
X308740Y386857D01*
X308505Y386977D01*
X308240Y387080D01*
X307946Y387167D01*
X307623Y387236D01*
X307269Y387290D01*
X306886Y387327D01*
X306031Y387351D01*
X309149Y390469D01*
X309153Y390026D01*
D02*
G37*
G36*
X359575Y349050D02*
X359592Y348855D01*
X359621Y348683D01*
X359661Y348534D01*
X359712Y348408D01*
X359775Y348305D01*
X359850Y348225D01*
X359936Y348168D01*
X360033Y348133D01*
X360142Y348122D01*
X357850D01*
X357959Y348133D01*
X358056Y348168D01*
X358142Y348225D01*
X358217Y348305D01*
X358280Y348408D01*
X358331Y348534D01*
X358371Y348683D01*
X358400Y348855D01*
X358417Y349050D01*
X358423Y349268D01*
X359569D01*
X359575Y349050D01*
D02*
G37*
G36*
X352079D02*
X352096Y348855D01*
X352125Y348683D01*
X352165Y348534D01*
X352216Y348408D01*
X352279Y348305D01*
X352354Y348225D01*
X352440Y348168D01*
X352537Y348133D01*
X352646Y348122D01*
X350354D01*
X350463Y348133D01*
X350560Y348168D01*
X350646Y348225D01*
X350721Y348305D01*
X350784Y348408D01*
X350835Y348534D01*
X350875Y348683D01*
X350904Y348855D01*
X350921Y349050D01*
X350927Y349268D01*
X352073D01*
X352079Y349050D01*
D02*
G37*
G36*
X269152Y388815D02*
X269172Y388657D01*
X269206Y388501D01*
X269253Y388349D01*
X269314Y388198D01*
X269389Y388051D01*
X269477Y387906D01*
X269579Y387764D01*
X269694Y387625D01*
X269822Y387488D01*
X269012Y386678D01*
X268875Y386806D01*
X268736Y386922D01*
X268594Y387023D01*
X268449Y387111D01*
X268302Y387186D01*
X268151Y387246D01*
X267999Y387294D01*
X267843Y387328D01*
X267685Y387348D01*
X267525Y387355D01*
X269145Y388976D01*
X269152Y388815D01*
D02*
G37*
G36*
X285968Y387351D02*
X285526Y387347D01*
X284731Y387290D01*
X284378Y387236D01*
X284054Y387167D01*
X283760Y387080D01*
X283495Y386977D01*
X283260Y386857D01*
X283055Y386721D01*
X282879Y386569D01*
X282069Y387379D01*
X282221Y387555D01*
X282357Y387760D01*
X282477Y387995D01*
X282580Y388260D01*
X282666Y388554D01*
X282736Y388878D01*
X282790Y389231D01*
X282827Y389614D01*
X282851Y390469D01*
X285968Y387351D01*
D02*
G37*
G36*
X334897Y349050D02*
X334914Y348855D01*
X334943Y348683D01*
X334983Y348534D01*
X335034Y348408D01*
X335097Y348305D01*
X335172Y348225D01*
X335258Y348168D01*
X335355Y348133D01*
X335464Y348122D01*
X333172D01*
X333281Y348133D01*
X333378Y348168D01*
X333464Y348225D01*
X333539Y348305D01*
X333602Y348408D01*
X333653Y348534D01*
X333694Y348683D01*
X333722Y348855D01*
X333739Y349050D01*
X333745Y349268D01*
X334891D01*
X334897Y349050D01*
D02*
G37*
G36*
X327401D02*
X327418Y348855D01*
X327447Y348683D01*
X327487Y348534D01*
X327538Y348408D01*
X327601Y348305D01*
X327676Y348225D01*
X327762Y348168D01*
X327859Y348133D01*
X327968Y348122D01*
X325676D01*
X325785Y348133D01*
X325882Y348168D01*
X325968Y348225D01*
X326043Y348305D01*
X326106Y348408D01*
X326157Y348534D01*
X326198Y348683D01*
X326226Y348855D01*
X326243Y349050D01*
X326249Y349268D01*
X327395D01*
X327401Y349050D01*
D02*
G37*
G36*
X363533Y238867D02*
X363436Y238832D01*
X363350Y238775D01*
X363275Y238695D01*
X363212Y238592D01*
X363161Y238466D01*
X363121Y238317D01*
X363092Y238145D01*
X363075Y237950D01*
X363069Y237732D01*
X361923D01*
X361917Y237950D01*
X361900Y238145D01*
X361872Y238317D01*
X361831Y238466D01*
X361780Y238592D01*
X361717Y238695D01*
X361642Y238775D01*
X361556Y238832D01*
X361459Y238867D01*
X361350Y238878D01*
X363642D01*
X363533Y238867D01*
D02*
G37*
G36*
X356037D02*
X355940Y238832D01*
X355854Y238775D01*
X355779Y238695D01*
X355716Y238592D01*
X355665Y238466D01*
X355625Y238317D01*
X355596Y238145D01*
X355579Y237950D01*
X355573Y237732D01*
X354427D01*
X354421Y237950D01*
X354404Y238145D01*
X354375Y238317D01*
X354335Y238466D01*
X354284Y238592D01*
X354221Y238695D01*
X354146Y238775D01*
X354060Y238832D01*
X353963Y238867D01*
X353854Y238878D01*
X356146D01*
X356037Y238867D01*
D02*
G37*
G36*
X318125Y194194D02*
X318264Y194079D01*
X318406Y193977D01*
X318551Y193889D01*
X318699Y193814D01*
X318849Y193754D01*
X319001Y193706D01*
X319157Y193672D01*
X319315Y193652D01*
X319476Y193645D01*
X317855Y192025D01*
X317848Y192185D01*
X317828Y192343D01*
X317794Y192499D01*
X317746Y192651D01*
X317686Y192801D01*
X317611Y192949D01*
X317523Y193094D01*
X317422Y193236D01*
X317306Y193375D01*
X317178Y193512D01*
X317988Y194322D01*
X318125Y194194D01*
D02*
G37*
G36*
X304931Y193621D02*
X304779Y193445D01*
X304643Y193240D01*
X304523Y193005D01*
X304420Y192740D01*
X304333Y192446D01*
X304264Y192122D01*
X304210Y191769D01*
X304173Y191386D01*
X304149Y190532D01*
X301031Y193649D01*
X301474Y193653D01*
X302269Y193710D01*
X302623Y193764D01*
X302946Y193833D01*
X303240Y193920D01*
X303505Y194023D01*
X303740Y194143D01*
X303945Y194279D01*
X304121Y194431D01*
X304931Y193621D01*
D02*
G37*
G36*
X338533Y238867D02*
X338436Y238832D01*
X338350Y238775D01*
X338275Y238695D01*
X338212Y238592D01*
X338161Y238466D01*
X338121Y238317D01*
X338092Y238145D01*
X338075Y237950D01*
X338069Y237732D01*
X336923D01*
X336917Y237950D01*
X336900Y238145D01*
X336872Y238317D01*
X336831Y238466D01*
X336780Y238592D01*
X336717Y238695D01*
X336642Y238775D01*
X336556Y238832D01*
X336459Y238867D01*
X336350Y238878D01*
X338642D01*
X338533Y238867D01*
D02*
G37*
G36*
X331037D02*
X330940Y238832D01*
X330854Y238775D01*
X330779Y238695D01*
X330716Y238592D01*
X330665Y238466D01*
X330625Y238317D01*
X330596Y238145D01*
X330579Y237950D01*
X330573Y237732D01*
X329427D01*
X329421Y237950D01*
X329404Y238145D01*
X329375Y238317D01*
X329335Y238466D01*
X329284Y238592D01*
X329221Y238695D01*
X329146Y238775D01*
X329060Y238832D01*
X328963Y238867D01*
X328854Y238878D01*
X331146D01*
X331037Y238867D01*
D02*
G37*
G36*
X278055Y194279D02*
X278260Y194143D01*
X278495Y194023D01*
X278760Y193920D01*
X279054Y193833D01*
X279378Y193764D01*
X279731Y193710D01*
X280114Y193673D01*
X280968Y193649D01*
X277851Y190532D01*
X277847Y190974D01*
X277790Y191769D01*
X277736Y192122D01*
X277666Y192446D01*
X277580Y192740D01*
X277477Y193005D01*
X277357Y193240D01*
X277221Y193445D01*
X277069Y193621D01*
X277879Y194431D01*
X278055Y194279D01*
D02*
G37*
G36*
X264931Y193621D02*
X264779Y193445D01*
X264643Y193240D01*
X264523Y193005D01*
X264420Y192740D01*
X264334Y192446D01*
X264264Y192122D01*
X264210Y191769D01*
X264173Y191386D01*
X264149Y190532D01*
X261032Y193649D01*
X261474Y193653D01*
X262269Y193710D01*
X262622Y193764D01*
X262946Y193833D01*
X263240Y193920D01*
X263505Y194023D01*
X263740Y194143D01*
X263945Y194279D01*
X264121Y194431D01*
X264931Y193621D01*
D02*
G37*
%LPC*%
G36*
X356500Y275000D02*
X354772D01*
X355093Y274225D01*
X355726Y273592D01*
X356500Y273272D01*
Y275000D01*
D02*
G37*
G36*
X398000Y280228D02*
Y278500D01*
X399728D01*
X399408Y279275D01*
X398775Y279907D01*
X398000Y280228D01*
D02*
G37*
G36*
X397000D02*
X396226Y279907D01*
X395592Y279275D01*
X395272Y278500D01*
X397000D01*
Y280228D01*
D02*
G37*
G36*
X371500D02*
Y278500D01*
X373228D01*
X372907Y279275D01*
X372274Y279907D01*
X371500Y280228D01*
D02*
G37*
G36*
X370500D02*
X369725Y279907D01*
X369092Y279275D01*
X368772Y278500D01*
X370500D01*
Y280228D01*
D02*
G37*
G36*
X399728Y277500D02*
X398000D01*
Y275772D01*
X398775Y276093D01*
X399408Y276726D01*
X399728Y277500D01*
D02*
G37*
G36*
X397000D02*
X395272D01*
X395592Y276726D01*
X396226Y276093D01*
X397000Y275772D01*
Y277500D01*
D02*
G37*
G36*
X373228D02*
X371500D01*
Y275772D01*
X372274Y276093D01*
X372907Y276726D01*
X373228Y277500D01*
D02*
G37*
G36*
X370500D02*
X368772D01*
X369092Y276726D01*
X369725Y276093D01*
X370500Y275772D01*
Y277500D01*
D02*
G37*
G36*
X424000Y274228D02*
Y272500D01*
X425728D01*
X425408Y273274D01*
X424775Y273907D01*
X424000Y274228D01*
D02*
G37*
G36*
X436500Y261728D02*
Y260000D01*
X438228D01*
X437908Y260774D01*
X437275Y261407D01*
X436500Y261728D01*
D02*
G37*
%LPD*%
D10*
X461000Y354012D02*
Y360000D01*
X452574Y363433D02*
X457567D01*
X461000Y360000D01*
X469098Y358028D02*
Y358384D01*
X465636Y359364D02*
X468118D01*
X469098Y358384D01*
X460718Y364282D02*
X465636Y359364D01*
X465729Y353810D02*
X469236Y350303D01*
X461202Y353810D02*
X465729D01*
X461000Y354012D02*
X461202Y353810D01*
X460718Y364282D02*
Y368137D01*
X460500Y368355D02*
X460718Y368137D01*
X452797Y338793D02*
Y344959D01*
X452756Y345000D02*
Y358252D01*
X419941Y350559D02*
Y357027D01*
X366756Y202000D02*
Y209500D01*
X412670Y382328D02*
X413842Y383500D01*
X422953D01*
X412500Y379500D02*
X412670Y379670D01*
Y382328D01*
X422953Y383500D02*
X429953Y390500D01*
X412500Y372004D02*
Y379500D01*
X366756Y190567D02*
Y202000D01*
X455592Y368250D02*
X460500Y368355D01*
X419881Y357086D02*
X425086D01*
X426433Y358433D01*
X431119D01*
Y349619D02*
Y353433D01*
X447033Y368467D02*
X452541D01*
D11*
X352790Y316210D02*
X352895Y316314D01*
X352790Y319764D02*
X352895Y319659D01*
Y316314D02*
Y319659D01*
X352790Y311677D02*
X353000Y311887D01*
Y316000D01*
X352790Y307290D02*
Y311677D01*
X378757Y228455D02*
X378802Y228409D01*
X373545Y228455D02*
X378757D01*
X373500Y228500D02*
X373545Y228455D01*
X403628Y227872D02*
X403850Y228095D01*
X390463Y253000D02*
X390500Y252963D01*
X452797Y338793D02*
X452838Y338752D01*
X452756Y345000D02*
X452797Y344959D01*
X419941Y350559D02*
X420000Y350500D01*
X419881Y357086D02*
X419941Y357027D01*
X352811Y300342D02*
Y302311D01*
X429500Y377338D02*
X429530Y377308D01*
X429500Y377338D02*
Y383000D01*
X366756Y209500D02*
Y213256D01*
X369066Y215566D01*
X378802D01*
X422418Y244582D02*
X422500Y244500D01*
X417000Y244664D02*
X417082Y244582D01*
X422418D01*
X403500Y205500D02*
X403628Y205628D01*
Y215372D02*
X403911Y215655D01*
X403628Y205628D02*
Y215372D01*
X420500Y215000D02*
X420664Y215164D01*
X426000D01*
X430000Y220500D02*
X432839Y217661D01*
X426000Y220500D02*
X430000D01*
X432839Y210701D02*
Y217661D01*
X426000Y215164D02*
Y220500D01*
X357634Y292663D02*
X360542D01*
X352811Y292469D02*
X356579D01*
X357061Y292950D01*
X357467D01*
X430500Y248000D02*
X432512Y245988D01*
Y243000D02*
Y245988D01*
X385500Y247000D02*
Y252963D01*
X385537Y253000D01*
X403628Y222628D02*
Y227872D01*
X403500Y222500D02*
X403628Y222628D01*
X378933Y228189D02*
X385047D01*
X378802Y215566D02*
X378924Y215689D01*
X384997D01*
X385047Y215739D01*
Y215811D01*
X403911Y215655D02*
X408997D01*
X409047Y215705D01*
Y215811D01*
X403850Y228095D02*
X408997D01*
X409047Y228145D01*
Y228189D01*
X298061Y309939D02*
X303408D01*
X303467Y309998D01*
X310845D01*
X310904Y310058D01*
X322689Y302311D02*
X329189D01*
X319000Y309901D02*
X319156Y310058D01*
X319000Y306000D02*
Y309901D01*
Y306000D02*
X322689Y302311D01*
X346217Y295717D02*
X346905Y296406D01*
X352811D01*
X350842Y305343D02*
X352790Y307290D01*
X350842Y302311D02*
Y305343D01*
X309571Y275615D02*
X323115D01*
X326189Y278689D01*
X329189D01*
X318835Y310058D02*
X318991Y310214D01*
X310904Y310058D02*
X318835D01*
X352811Y292469D02*
Y294437D01*
X366000Y387500D02*
X370133D01*
X374867D02*
X374929Y387563D01*
Y395339D01*
X452574Y358433D02*
X452756Y358252D01*
D18*
X426968Y288531D02*
X443862Y271638D01*
Y233299D02*
Y271638D01*
X352811Y288531D02*
X426968D01*
X442287Y233299D02*
Y265213D01*
X352811Y286563D02*
X420937D01*
X442287Y265213D01*
X352811Y284594D02*
X416905D01*
X440713Y233299D02*
Y260787D01*
X416905Y284594D02*
X440713Y260787D01*
X445437Y233299D02*
Y277063D01*
X352811Y290500D02*
X432000D01*
X445437Y277063D01*
X368000Y228500D02*
X371500Y225000D01*
Y221500D02*
Y225000D01*
Y221500D02*
X387000D01*
X390953Y225453D01*
Y228189D01*
X460664Y227664D02*
X463026Y230026D01*
Y232748D01*
X457500Y227664D02*
X460664D01*
X435988Y228709D02*
X437033Y227664D01*
X457500D01*
X435988Y228709D02*
Y233299D01*
X390500Y246000D02*
Y252963D01*
X387110Y264500D02*
X389952D01*
X420201Y270799D02*
X439138Y251862D01*
Y233299D02*
Y251862D01*
X416701Y270799D02*
X420201D01*
X394000D02*
X416701D01*
X417823Y201500D02*
X432500D01*
X435986Y204986D01*
X406823Y190500D02*
X417823Y201500D01*
X369850Y267650D02*
X387110D01*
X356842Y280658D02*
X369850Y267650D01*
X352811Y280658D02*
X356842D01*
X443865Y205635D02*
X447823Y201677D01*
X453323D01*
X443865Y205635D02*
Y208110D01*
X453323Y201677D02*
X456823Y198177D01*
Y190500D02*
Y198177D01*
X442287Y195035D02*
X446823Y190500D01*
X442287Y195035D02*
Y210701D01*
X440713Y201967D02*
Y210701D01*
X436823Y198077D02*
X440713Y201967D01*
X436823Y190500D02*
Y198077D01*
X432500Y199000D02*
X437563Y204063D01*
X424000Y199000D02*
X432500D01*
X437563Y204063D02*
Y210701D01*
X426823Y190500D02*
X439138Y202815D01*
Y210701D01*
X416823Y190500D02*
Y191823D01*
X424000Y199000D01*
X426000Y206500D02*
Y209836D01*
X427500Y205000D02*
X433000D01*
X426000Y206500D02*
X427500Y205000D01*
X433000D02*
X434407Y206407D01*
Y208106D01*
X434411Y208110D01*
X435986Y204986D02*
Y210698D01*
X435988Y210701D01*
X407500Y200500D02*
X417500Y210500D01*
X396823Y196823D02*
X400500Y200500D01*
X407500D01*
X417500Y210500D02*
Y220000D01*
X396823Y190500D02*
Y196823D01*
X414953Y222547D02*
X417500Y220000D01*
X414953Y222547D02*
Y228189D01*
X411016Y206516D02*
Y215811D01*
X406500Y202000D02*
X411016Y206516D01*
X391500Y202000D02*
X406500D01*
X386823Y197323D02*
X391500Y202000D01*
X386823Y190500D02*
Y197323D01*
X376823Y190500D02*
Y198323D01*
X387016Y208516D01*
Y215811D01*
X352811Y282626D02*
X360374D01*
X372201Y270799D01*
X399350Y267650D02*
X411016Y255984D01*
X394000Y267650D02*
X399350D01*
X411016Y228189D02*
Y255984D01*
X432450Y251550D02*
X437563Y246437D01*
X425092Y251550D02*
X432450D01*
X400000Y257000D02*
Y261500D01*
X397000Y264500D02*
X400000Y261500D01*
X394000Y264500D02*
X397000D01*
X437563Y233299D02*
Y246437D01*
X387016Y228189D02*
Y236016D01*
X394000Y243000D01*
Y261350D01*
X389952Y264500D02*
X390420Y264031D01*
Y253043D02*
Y264031D01*
X361500Y264500D02*
X387110D01*
X372201Y270799D02*
X387110D01*
X352811Y273189D02*
X361500Y264500D01*
X352811Y273189D02*
Y278689D01*
X361150Y261350D02*
X387110D01*
X350842Y271657D02*
X361150Y261350D01*
X350842Y271657D02*
Y278689D01*
X414953Y233453D02*
X417000Y235500D01*
Y239336D01*
X414953Y228189D02*
Y233453D01*
X432839Y233299D02*
Y242173D01*
X432512Y242500D02*
X432839Y242173D01*
Y233299D02*
X434413D01*
X210000Y352400D02*
X211800D01*
X210000Y223400D02*
X211800D01*
X210000Y266400D02*
X211800D01*
X210000Y309400D02*
X211800D01*
X210000Y357600D02*
X211800D01*
X210000Y228600D02*
X211800D01*
X210000Y271600D02*
X211800D01*
X210000Y314600D02*
X211800D01*
X198300Y226000D02*
X202300D01*
X198300Y269000D02*
X202300D01*
X198300Y312000D02*
X202300D01*
X198300Y355000D02*
X202300D01*
D19*
X420000Y281000D02*
D03*
X431612Y275888D02*
D03*
X439500Y276000D02*
D03*
X445437Y277063D02*
D03*
X361150Y261350D02*
D03*
X390508Y239508D02*
D03*
X390500Y246000D02*
D03*
X432450Y251550D02*
D03*
X370000Y268500D02*
D03*
X411016Y255984D02*
D03*
X378500Y271000D02*
D03*
X416701Y270799D02*
D03*
X469236Y350303D02*
D03*
X420000Y350500D02*
D03*
X452838Y338752D02*
D03*
X463026Y232748D02*
D03*
X427550Y204752D02*
D03*
X368000Y228500D02*
D03*
D20*
X452574Y368433D02*
D03*
Y363433D02*
D03*
Y358433D02*
D03*
Y353433D02*
D03*
X431119D02*
D03*
Y358433D02*
D03*
Y363433D02*
D03*
Y368433D02*
D03*
D21*
X441847Y360933D02*
D03*
D22*
X326822Y346756D02*
D03*
Y341244D02*
D03*
X334318Y346756D02*
D03*
Y341244D02*
D03*
X351500Y346756D02*
D03*
Y341244D02*
D03*
X358996Y346756D02*
D03*
Y341244D02*
D03*
X362496Y240244D02*
D03*
Y245756D02*
D03*
X355000Y240244D02*
D03*
Y245756D02*
D03*
X337496Y240244D02*
D03*
Y245756D02*
D03*
X330000Y240244D02*
D03*
Y245756D02*
D03*
X378802Y228409D02*
D03*
Y233921D02*
D03*
Y210054D02*
D03*
X426000Y226012D02*
D03*
X461000Y348500D02*
D03*
X309571Y270104D02*
D03*
X310904Y315569D02*
D03*
X303408Y315451D02*
D03*
Y309939D02*
D03*
X310904Y310058D02*
D03*
X309571Y275615D02*
D03*
X461000Y354012D02*
D03*
X426000Y220500D02*
D03*
X378802Y215566D02*
D03*
D23*
X457500Y227664D02*
D03*
Y222336D02*
D03*
X426000Y215164D02*
D03*
Y209836D02*
D03*
X417000Y244664D02*
D03*
Y239336D02*
D03*
D24*
X371500Y221500D02*
D03*
X366172D02*
D03*
D25*
X385047Y228189D02*
D03*
X387016D02*
D03*
X388984D02*
D03*
X390953D02*
D03*
Y215811D02*
D03*
X388984D02*
D03*
X387016D02*
D03*
X385047D02*
D03*
X414953D02*
D03*
X409047D02*
D03*
X411016D02*
D03*
X412984D02*
D03*
X414953Y228189D02*
D03*
X412984D02*
D03*
X411016D02*
D03*
X409047D02*
D03*
D26*
X361244Y202000D02*
D03*
X366756D02*
D03*
Y209500D02*
D03*
X361244D02*
D03*
X398244Y215500D02*
D03*
Y228000D02*
D03*
X427000Y243000D02*
D03*
X447244Y345000D02*
D03*
X414369Y357086D02*
D03*
X406988Y379500D02*
D03*
Y372004D02*
D03*
X482512Y367000D02*
D03*
X482927Y375023D02*
D03*
X358302Y319764D02*
D03*
X367256Y293000D02*
D03*
X361744D02*
D03*
X352790Y319764D02*
D03*
X477415Y375023D02*
D03*
X477000Y367000D02*
D03*
X412500Y372004D02*
D03*
Y379500D02*
D03*
X419881Y357086D02*
D03*
X452756Y345000D02*
D03*
X432512Y243000D02*
D03*
X403756Y228000D02*
D03*
Y215500D02*
D03*
D27*
X469098Y358028D02*
D03*
X474816D02*
D03*
X429530Y377308D02*
D03*
X423812D02*
D03*
D28*
X435988Y233299D02*
D03*
X450161D02*
D03*
Y210701D02*
D03*
X448587D02*
D03*
X432839D02*
D03*
X434413D02*
D03*
X435988D02*
D03*
X437563D02*
D03*
X439138D02*
D03*
X440713D02*
D03*
X442287D02*
D03*
X443862D02*
D03*
X445437D02*
D03*
X447012D02*
D03*
X448587Y233299D02*
D03*
X447012D02*
D03*
X445437D02*
D03*
X443862D02*
D03*
X442287D02*
D03*
X440713D02*
D03*
X439138D02*
D03*
X437563D02*
D03*
X434413D02*
D03*
X432839D02*
D03*
D29*
X369024Y395339D02*
D03*
X374929D02*
D03*
D30*
X206150Y312000D02*
D03*
Y226000D02*
D03*
Y355000D02*
D03*
Y269000D02*
D03*
D31*
X202300Y309400D02*
D03*
Y314600D02*
D03*
Y223400D02*
D03*
Y228600D02*
D03*
Y352400D02*
D03*
Y357600D02*
D03*
Y266400D02*
D03*
Y271600D02*
D03*
Y269000D02*
D03*
X210000Y266400D02*
D03*
Y269000D02*
D03*
Y271600D02*
D03*
X202300Y355000D02*
D03*
X210000Y352400D02*
D03*
Y355000D02*
D03*
Y357600D02*
D03*
X202300Y226000D02*
D03*
X210000Y223400D02*
D03*
Y226000D02*
D03*
Y228600D02*
D03*
X202300Y312000D02*
D03*
X210000Y309400D02*
D03*
Y312000D02*
D03*
Y314600D02*
D03*
D32*
X357845Y311677D02*
D03*
X352917D02*
D03*
D33*
X317657Y270685D02*
D03*
X318991Y315142D02*
D03*
Y310214D02*
D03*
X317657Y275613D02*
D03*
D34*
X329189Y300342D02*
D03*
Y294437D02*
D03*
Y292469D02*
D03*
Y290500D02*
D03*
Y288531D02*
D03*
Y286563D02*
D03*
Y280658D02*
D03*
X352811Y296406D02*
D03*
Y300342D02*
D03*
Y302311D02*
D03*
X331157Y278689D02*
D03*
X337063D02*
D03*
X339032D02*
D03*
X348874D02*
D03*
Y302311D02*
D03*
X339032D02*
D03*
X337063D02*
D03*
X331157D02*
D03*
X346905Y278689D02*
D03*
X344937D02*
D03*
X342969D02*
D03*
X341000D02*
D03*
X329189Y302311D02*
D03*
Y298374D02*
D03*
Y296406D02*
D03*
Y284594D02*
D03*
Y282626D02*
D03*
Y278689D02*
D03*
X352811D02*
D03*
Y280658D02*
D03*
Y282626D02*
D03*
Y284594D02*
D03*
Y286563D02*
D03*
Y288531D02*
D03*
Y290500D02*
D03*
Y292469D02*
D03*
Y294437D02*
D03*
Y298374D02*
D03*
X333126Y278689D02*
D03*
X335094D02*
D03*
X350842D02*
D03*
Y302311D02*
D03*
X346905D02*
D03*
X344937D02*
D03*
X342969D02*
D03*
X341000D02*
D03*
X335094D02*
D03*
X333126D02*
D03*
D35*
X335784Y295717D02*
D03*
X346217D02*
D03*
X335784Y285283D02*
D03*
X346217D02*
D03*
D36*
X513279Y298374D02*
D03*
X168500Y269000D02*
D03*
Y355000D02*
D03*
Y226000D02*
D03*
Y312000D02*
D03*
D37*
X390463Y253000D02*
D03*
X385537D02*
D03*
D38*
X394000Y261350D02*
D03*
Y264500D02*
D03*
Y267650D02*
D03*
Y270799D02*
D03*
X387110D02*
D03*
Y267650D02*
D03*
Y264500D02*
D03*
Y261350D02*
D03*
D39*
X452500Y377500D02*
D03*
X465500D02*
D03*
D40*
X465330Y368095D02*
D03*
X460007D02*
D03*
D41*
X374867Y387500D02*
D03*
X370133D02*
D03*
D42*
X354275Y357715D02*
G03*
X352500Y362000I-6060J0D01*
G01*
X352121Y362379D02*
G03*
X347000Y364500I-5121J-5121D01*
G01*
X353739Y352207D02*
G03*
X354275Y353500I-1293J1293D01*
G01*
X351831Y350298D02*
G03*
X351500Y349500I798J-798D01*
G01*
X290755Y372923D02*
G03*
X294124Y369554I3369J0D01*
G01*
X290755Y377665D02*
G03*
X287909Y377665I-1423J0D01*
G01*
X284540Y369554D02*
G03*
X287909Y372923I0J3369D01*
G01*
X292701D02*
G03*
X294124Y371500I1423J0D01*
G01*
X292701Y377665D02*
G03*
X285963Y377665I-3369J0D01*
G01*
X284540Y371500D02*
G03*
X285963Y372923I0J1423D01*
G01*
X335243Y368019D02*
G03*
X338762Y364500I3519J0D01*
G01*
X335243Y377558D02*
G03*
X332097Y377558I-1573J0D01*
G01*
X328578Y364500D02*
G03*
X332097Y368019I0J3519D01*
G01*
X337189D02*
G03*
X338762Y366446I1573J0D01*
G01*
X337189Y377558D02*
G03*
X330151Y377558I-3519J0D01*
G01*
X328578Y366446D02*
G03*
X330151Y368019I0J1573D01*
G01*
X336676Y215927D02*
G03*
X333157Y219446I-3519J0D01*
G01*
X336676Y209658D02*
G03*
X339822Y209658I1573J0D01*
G01*
X343341Y219446D02*
G03*
X339822Y215927I0J-3519D01*
G01*
X334730D02*
G03*
X333157Y217500I-1573J0D01*
G01*
X334730Y209658D02*
G03*
X341768Y209658I3519J0D01*
G01*
X343341Y217500D02*
G03*
X341768Y215927I0J-1573D01*
G01*
X287820Y213481D02*
G03*
X284301Y217000I-3519J0D01*
G01*
X287820Y211405D02*
G03*
X290966Y211405I1573J0D01*
G01*
X294485Y217000D02*
G03*
X290966Y213481I0J-3519D01*
G01*
X285874D02*
G03*
X284301Y215054I-1573J0D01*
G01*
X285874Y211405D02*
G03*
X292912Y211405I3519J0D01*
G01*
X294485Y215054D02*
G03*
X292912Y213481I0J-1573D01*
G01*
X333710Y228958D02*
G03*
X333650Y228891I824J-797D01*
G01*
X332317Y230317D02*
G03*
X332775Y231441I-1151J1125D01*
G01*
X332317Y230317D02*
G03*
X332146Y230125I2217J-2155D01*
G01*
X324498Y226500D02*
G03*
X324496Y226500I-6J-1946D01*
G01*
X333710Y228958D02*
G03*
X334721Y231441I-2544J2483D01*
G01*
X324496Y226500D02*
G03*
X324483Y226500I-4J-3092D01*
G01*
X324498D02*
G03*
X332146Y230125I-6J9891D01*
G01*
X324493Y224554D02*
G03*
X333650Y228891I-1J11837D01*
G01*
X272354Y209854D02*
G03*
X272000Y209000I854J-854D01*
G01*
X278338Y215054D02*
G03*
X277000Y214500I0J-1891D01*
G01*
X296106Y215054D02*
G03*
X304553Y218553I0J11946D01*
G01*
X312752Y224554D02*
G03*
X309000Y223000I0J-5306D01*
G01*
X270977Y211230D02*
G03*
X270054Y209000I2230J-2230D01*
G01*
X278338Y217000D02*
G03*
X275624Y215876I0J-3838D01*
G01*
X296106Y217000D02*
G03*
X303177Y219929I0J10000D01*
G01*
X312752Y226500D02*
G03*
X307624Y224376I0J-7252D01*
G01*
X320947Y217500D02*
G03*
X313192Y213722I0J-9849D01*
G01*
X312977Y213476D02*
G03*
X313192Y213722I-2215J2157D01*
G01*
X312977Y213476D02*
G03*
X312943Y213442I2503J-2456D01*
G01*
X311584Y214836D02*
G03*
X311661Y214923I-823J798D01*
G01*
X311536Y214786D02*
G03*
X311532Y214782I1405J-1346D01*
G01*
X346738Y217500D02*
G03*
X346739Y217500I0J973D01*
G01*
X346739Y217500D02*
G03*
X355305Y221053I-11J12130D01*
G01*
X312941Y213440D02*
G03*
X312943Y213442I-1409J1343D01*
G01*
X311532Y214782D02*
G03*
X310027Y211021I3947J-3762D01*
G01*
X320947Y219446D02*
G03*
X311661Y214923I0J-11795D01*
G01*
X312941Y213440D02*
G03*
X311973Y211021I2538J-2419D01*
G01*
X311584Y214836D02*
G03*
X311536Y214786I3895J-3815D01*
G01*
X346737Y219446D02*
G03*
X353929Y222429I-9J10184D01*
G01*
X356000Y224500D02*
G03*
X357775Y228785I-4285J4285D01*
G01*
X357376Y223124D02*
G03*
X359721Y228785I-5661J5661D01*
G01*
X362166Y236702D02*
G03*
X362496Y237500I-798J798D01*
G01*
X360257Y234793D02*
G03*
X359721Y233500I1293J-1293D01*
G01*
X357775D02*
G03*
X357239Y234793I-1829J0D01*
G01*
X355000Y237500D02*
G03*
X355330Y236702I1128J0D01*
G01*
X337166D02*
G03*
X337496Y237500I-798J798D01*
G01*
X335257Y234793D02*
G03*
X334721Y233500I1293J-1293D01*
G01*
X332775D02*
G03*
X332239Y234793I-1829J0D01*
G01*
X330000Y237500D02*
G03*
X330330Y236702I1128J0D01*
G01*
X271973Y203000D02*
G03*
X274429Y197071I8385J0D01*
G01*
X267571Y197071D02*
G03*
X270027Y203000I-5929J5929D01*
G01*
X311973D02*
G03*
X314429Y197071I8385J0D01*
G01*
X307571Y197071D02*
G03*
X310027Y203000I-5929J5929D01*
G01*
X346894Y271600D02*
G03*
X348480Y267772I5413J0D01*
G01*
X344948Y271600D02*
G03*
X347104Y266396I7359J0D01*
G01*
X357775Y254629D02*
G03*
X357000Y256500I-2646J0D01*
G01*
X359721Y254629D02*
G03*
X358376Y257876I-4592J0D01*
G01*
X357092Y251349D02*
G03*
X357775Y253000I-1652J1651D01*
G01*
X357091Y251349D02*
G03*
X357092Y251349I-1651J1651D01*
G01*
X355536Y249793D02*
G03*
X355000Y248500I1293J-1293D01*
G01*
X360404Y251349D02*
G03*
X360405Y251349I1652J1651D01*
G01*
X362496Y248500D02*
G03*
X361960Y249793I-1829J0D01*
G01*
X359721Y253000D02*
G03*
X360404Y251349I2335J0D01*
G01*
X339458Y258958D02*
G03*
X342957Y267405I-8447J8447D01*
G01*
X338082Y260334D02*
G03*
X341011Y267405I-7071J7071D01*
G01*
X334124Y256376D02*
G03*
X332775Y253119I3257J-3257D01*
G01*
X332092Y251349D02*
G03*
X332775Y253000I-1652J1651D01*
G01*
X332091Y251349D02*
G03*
X332092Y251349I-1651J1651D01*
G01*
X330536Y249793D02*
G03*
X330000Y248500I1293J-1293D01*
G01*
X337496D02*
G03*
X336960Y249793I-1829J0D01*
G01*
X335500Y255000D02*
G03*
X334721Y253119I1881J-1881D01*
G01*
Y253000D02*
G03*
X335404Y251349I2335J0D01*
G01*
D02*
G03*
X335405Y251349I1652J1651D01*
G01*
X331543Y355558D02*
G03*
X330376Y358376I-3985J0D01*
G01*
D02*
G03*
X326586Y359946I-3790J-3790D01*
G01*
X314400Y361054D02*
G03*
X317075Y359946I2675J2675D01*
G01*
X334318Y349500D02*
G03*
X333988Y350298I-1128J0D01*
G01*
X331543Y353500D02*
G03*
X332079Y352207I1829J0D01*
G01*
X279429Y383929D02*
G03*
X276973Y378000I5929J-5929D01*
G01*
Y375979D02*
G03*
X278000Y373500I3506J0D01*
G01*
X307453Y368001D02*
G03*
X299006Y371500I-8447J-8447D01*
G01*
X278000Y373500D02*
G03*
X282828Y371500I4828J4828D01*
G01*
X306077Y366625D02*
G03*
X299006Y369554I-7071J-7071D01*
G01*
X313024Y359678D02*
G03*
X317075Y358000I4051J4051D01*
G01*
X329000Y357000D02*
G03*
X326586Y358000I-2414J-2414D01*
G01*
X329597Y355558D02*
G03*
X329000Y357000I-2039J0D01*
G01*
X319646Y366102D02*
G03*
X319668Y366081I3898J3943D01*
G01*
X315027Y376226D02*
G03*
X319599Y366146I13434J17D01*
G01*
X316973Y376227D02*
G03*
X320883Y367608I11488J15D01*
G01*
X319668Y366081D02*
G03*
X319674Y366074I1365J1387D01*
G01*
X321013Y367487D02*
G03*
X320883Y367608I-2172J-2201D01*
G01*
X319646Y366102D02*
G03*
X319599Y366146I-804J-816D01*
G01*
X321013Y367487D02*
G03*
X321033Y367468I2531J2558D01*
G01*
X319675Y366074D02*
G03*
X323545Y364500I3870J3971D01*
G01*
X321033Y367468D02*
G03*
X323545Y366446I2512J2577D01*
G01*
X329061Y352207D02*
G03*
X329597Y353500I-1293J1293D01*
G01*
X327152Y350298D02*
G03*
X326822Y349500I798J-798D01*
G01*
X276624Y372124D02*
G03*
X282828Y369554I6205J6205D01*
G01*
X275027Y375979D02*
G03*
X276624Y372124I5452J0D01*
G01*
X275027Y378000D02*
G03*
X272571Y383929I-8385J0D01*
G01*
X342957Y316595D02*
G03*
X339458Y325042I-11946J0D01*
G01*
X331543Y334000D02*
G03*
X332281Y332219I2518J0D01*
G01*
X332177Y335531D02*
G03*
X331543Y334000I1531J-1531D01*
G01*
X341011Y316595D02*
G03*
X338082Y323666I-10000J0D01*
G01*
X329597Y334000D02*
G03*
X330905Y330843I4464J0D01*
G01*
X329597Y334000D02*
G03*
X328963Y335531I-2165J0D01*
G01*
X353592Y335651D02*
G03*
X353591Y335651I-1652J-1651D01*
G01*
X354275Y334000D02*
G03*
X353592Y335651I-2335J0D01*
G01*
X351500Y338500D02*
G03*
X352036Y337207I1829J0D01*
G01*
X351962Y330570D02*
G03*
X353000Y331000I0J1468D01*
G01*
X350506Y330570D02*
G03*
X347624Y329376I0J-4076D01*
G01*
D02*
G03*
X344948Y322916I6460J-6460D01*
G01*
X349000Y328000D02*
G03*
X346894Y322916I5084J-5084D01*
G01*
X350506Y328624D02*
G03*
X349000Y328000I0J-2130D01*
G01*
X351962Y328624D02*
G03*
X354376Y329624I0J3414D01*
G01*
X355138Y330386D02*
G03*
X356221Y333000I-2614J2614D01*
G01*
X356905Y335651D02*
G03*
X356221Y334000I1651J-1651D01*
G01*
X353762Y331762D02*
G03*
X354275Y333000I-1238J1238D01*
G01*
X358460Y337207D02*
G03*
X358996Y338500I-1293J1293D01*
G01*
X326822Y338430D02*
G03*
X327358Y337136I1829J0D01*
G01*
X333782D02*
G03*
X334318Y338430I-1293J1293D01*
G01*
X319429Y383929D02*
G03*
X316973Y378000I5929J-5929D01*
G01*
X315027D02*
G03*
X312571Y383929I-8385J0D01*
G01*
X358996Y349500D02*
G03*
X358666Y350298I-1128J0D01*
G01*
X356221Y353500D02*
G03*
X356757Y352207I1829J0D01*
G01*
X356221Y357715D02*
G03*
X353876Y363376I-8006J0D01*
G01*
X353497Y363755D02*
G03*
X347000Y366446I-6497J-6497D01*
G01*
X211800Y352400D02*
G03*
X213632Y353159I0J2590D01*
G01*
X215048Y354027D02*
G03*
X214112Y353640I0J-1323D01*
G01*
X211800Y223400D02*
G03*
X213632Y224159I0J2590D01*
G01*
X215048Y225027D02*
G03*
X214112Y224640I0J-1323D01*
G01*
X211800Y266400D02*
G03*
X213632Y267159I0J2590D01*
G01*
X215048Y268027D02*
G03*
X214112Y267639I0J-1323D01*
G01*
X211800Y309400D02*
G03*
X213632Y310159I0J2590D01*
G01*
X215048Y311027D02*
G03*
X214112Y310640I0J-1323D01*
G01*
X250646Y228546D02*
G03*
X254165Y225027I3519J0D01*
G01*
X250646Y230719D02*
G03*
X247500Y230719I-1573J0D01*
G01*
X243981Y225027D02*
G03*
X247500Y228546I0J3519D01*
G01*
X252592D02*
G03*
X254165Y226973I1573J0D01*
G01*
X252592Y230719D02*
G03*
X245554Y230719I-3519J0D01*
G01*
X243981Y226973D02*
G03*
X245554Y228546I0J1573D01*
G01*
X254895Y314546D02*
G03*
X258414Y311027I3519J0D01*
G01*
X254895Y319453D02*
G03*
X251749Y319453I-1573J0D01*
G01*
X244711Y310322D02*
G03*
X251749Y310322I3519J0D01*
G01*
X244711Y319454D02*
G03*
X241565Y319454I-1573J0D01*
G01*
X238046Y311027D02*
G03*
X241565Y314546I0J3519D01*
G01*
X256841D02*
G03*
X258414Y312973I1573J0D01*
G01*
X256841Y319453D02*
G03*
X249803Y319453I-3519J0D01*
G01*
X246657Y310322D02*
G03*
X249803Y310322I1573J0D01*
G01*
X246657Y319454D02*
G03*
X239619Y319454I-3519J0D01*
G01*
X238046Y312973D02*
G03*
X239619Y314546I0J1573D01*
G01*
X256395Y271546D02*
G03*
X259914Y268027I3519J0D01*
G01*
X256395Y276454D02*
G03*
X253249Y276454I-1573J0D01*
G01*
X246211Y268010D02*
G03*
X253249Y268010I3519J0D01*
G01*
X246211Y276454D02*
G03*
X243065Y276454I-1573J0D01*
G01*
X239546Y268027D02*
G03*
X243065Y271546I0J3519D01*
G01*
X258341D02*
G03*
X259914Y269973I1573J0D01*
G01*
X258341Y276454D02*
G03*
X251303Y276454I-3519J0D01*
G01*
X248157Y268010D02*
G03*
X251303Y268010I1573J0D01*
G01*
X248157Y276454D02*
G03*
X241119Y276454I-3519J0D01*
G01*
X239546Y269973D02*
G03*
X241119Y271546I0J1573D01*
G01*
X249271Y357546D02*
G03*
X252790Y354027I3519J0D01*
G01*
X249271Y359733D02*
G03*
X246125Y359733I-1573J0D01*
G01*
X242606Y354027D02*
G03*
X246125Y357546I0J3519D01*
G01*
X251217D02*
G03*
X252790Y355973I1573J0D01*
G01*
X251217Y359733D02*
G03*
X244179Y359733I-3519J0D01*
G01*
X242606Y355973D02*
G03*
X244179Y357546I0J1573D01*
G01*
X269644Y269973D02*
G03*
X272853Y271305I-1J4533D01*
G01*
X269643Y268027D02*
G03*
X274218Y269918I8J6460D01*
G01*
X289082Y282626D02*
G03*
X285394Y281094I6J-5220D01*
G01*
X284020Y282472D02*
G03*
X284017Y282469I1373J-1379D01*
G01*
X289081Y284572D02*
G03*
X284020Y282472I7J-7166D01*
G01*
X289088Y284572D02*
G03*
X289081Y284572I0J-1946D01*
G01*
X213946Y270527D02*
G03*
X215289Y269973I1344J1352D01*
G01*
X285393Y281093D02*
X285394Y281094D01*
X213632Y270841D02*
G03*
X211800Y271600I-1832J-1832D01*
G01*
X333013Y263624D02*
G03*
X335094Y268642I-5010J5018D01*
G01*
X331642Y265005D02*
G03*
X333149Y268637I-3638J3638D01*
G01*
X333149Y268642D02*
G03*
X333149Y268637I1946J0D01*
G01*
X331642Y265005D02*
G03*
X331637Y265000I1371J-1381D01*
G01*
X295000Y228363D02*
G03*
X294995Y228358I1376J-1376D01*
G01*
X291651Y226973D02*
G03*
X291643Y226973I-8J-1946D01*
G01*
X291654Y225027D02*
G03*
X296376Y226987I-3J6676D01*
G01*
X291654Y226973D02*
G03*
X294995Y228358I-3J4730D01*
G01*
X213946Y227527D02*
G03*
X215289Y226973I1344J1352D01*
G01*
X213632Y227841D02*
G03*
X211800Y228600I-1832J-1832D01*
G01*
X289082Y282626D02*
G03*
X289088Y282626I4J973D01*
G01*
X274630Y311122D02*
G03*
X270151Y312973I-4479J-4494D01*
G01*
Y311027D02*
G03*
X270156Y311027I0J1946D01*
G01*
X286166Y299586D02*
G03*
X286164Y299588I-689J-687D01*
G01*
X273258Y309742D02*
G03*
X270156Y311027I-3107J-3114D01*
G01*
X288810Y298365D02*
G03*
X288808Y298365I-77J-970D01*
G01*
X286413Y299358D02*
G03*
X288808Y298365I2729J3199D01*
G01*
X286166Y299586D02*
G03*
X286413Y299358I2977J2970D01*
G01*
X284787Y298213D02*
G03*
X285150Y297877I4355J4343D01*
G01*
X288810Y298365D02*
G03*
X289150Y298352I332J4192D01*
G01*
X285150Y297877D02*
G03*
X288660Y296424I3993J4679D01*
G01*
D02*
G03*
X288663Y296424I73J970D01*
G01*
D02*
G03*
X289147Y296406I480J6132D01*
G01*
D02*
G03*
X289150Y296406I3J1946D01*
G01*
X333009Y317380D02*
G03*
X333008Y317381I-689J-687D01*
G01*
X335083Y312402D02*
G03*
X333021Y317369I-7052J-17D01*
G01*
X335083Y312385D02*
G03*
X335083Y312389I-1946J0D01*
G01*
X331632Y316005D02*
G03*
X331637Y316000I1376J1376D01*
G01*
X333137Y312400D02*
G03*
X331644Y315993I-5106J-15D01*
G01*
X294998Y352639D02*
G03*
X295004Y352634I1381J1371D01*
G01*
X294993Y352644D02*
G03*
X294699Y352914I-3342J-3347D01*
G01*
X294696Y352916D02*
G03*
X291665Y354027I-3045J-3619D01*
G01*
D02*
G03*
X291657Y354027I-1J-1146D01*
G01*
X295947Y354407D02*
G03*
X291670Y355973I-4296J-5110D01*
G01*
X291651Y354027D02*
G03*
X291657Y354027I1J973D01*
G01*
X295952Y354403D02*
G03*
X295947Y354407I-1988J-2368D01*
G01*
X294699Y352914D02*
G03*
X294696Y352916I-735J-879D01*
G01*
X291660Y355973D02*
G03*
X291651Y355973I-9J-1946D01*
G01*
X291670Y355973D02*
G03*
X291660Y355973I-6J-3092D01*
G01*
X296368Y354022D02*
G03*
X295952Y354403I-4717J-4725D01*
G01*
X213946Y356527D02*
G03*
X215289Y355973I1344J1352D01*
G01*
X213632Y356841D02*
G03*
X211800Y357600I-1832J-1832D01*
G01*
X213946Y313527D02*
G03*
X215289Y312973I1344J1352D01*
G01*
X213632Y313841D02*
G03*
X211800Y314600I-1832J-1832D01*
G01*
X302029Y237013D02*
G03*
X303650Y237013I810J810D01*
G01*
X302015Y237027D02*
G03*
X300710Y237027I-653J-653D01*
G01*
D02*
G03*
X300710Y235721I653J-653D01*
G01*
X300724Y234087D02*
G03*
X300724Y235707I-810J810D01*
G01*
X303913Y343725D02*
G03*
X302183Y343725I-865J-865D01*
G01*
X300437Y343708D02*
G03*
X302166Y343708I865J865D01*
G01*
X300437Y345438D02*
G03*
X300437Y343708I865J-865D01*
G01*
X300453Y345454D02*
G03*
X300453Y347184I-865J865D01*
G01*
X352121Y362379D02*
X352500Y362000D01*
X351831Y350298D02*
X353739Y352207D01*
X346944Y364500D02*
X347000D01*
X354275Y353500D02*
Y357715D01*
X351500Y346756D02*
Y349500D01*
X294124Y369554D02*
X298110D01*
X290755Y372923D02*
Y377665D01*
X287909Y372923D02*
Y377665D01*
X282994Y369554D02*
X284540D01*
X294124Y371500D02*
X298110D01*
X292701Y372923D02*
Y377665D01*
X285963Y372923D02*
Y377665D01*
X282994Y371500D02*
X284540D01*
X298110Y369554D02*
X299006D01*
X298110Y371500D02*
X299006D01*
X282828Y369554D02*
X282994D01*
X282828Y371500D02*
X282994D01*
X323545Y364500D02*
X327032D01*
X323545Y366446D02*
X327032D01*
X338762Y364500D02*
X346944D01*
X335243Y368019D02*
Y377558D01*
X332097Y368019D02*
Y377558D01*
X327032Y364500D02*
X328578D01*
X338762Y366446D02*
X346944D01*
X337189Y368019D02*
Y377558D01*
X330151Y368019D02*
Y377558D01*
X327032Y366446D02*
X328578D01*
X346944D02*
X347000D01*
X344887Y219446D02*
X346737D01*
X344887Y217500D02*
X346737D01*
X321735Y219446D02*
Y219446D01*
X321753D01*
X321753Y219446D01*
X333157D01*
X336676Y209658D02*
Y215927D01*
X339822Y209658D02*
Y215927D01*
X343341Y219446D02*
X344887D01*
X321735Y217500D02*
X333157D01*
X334730Y209658D02*
Y215927D01*
X341768Y209658D02*
Y215927D01*
X343341Y217500D02*
X344887D01*
X320947Y219446D02*
X321735D01*
X320947Y217500D02*
X321735D01*
X320947Y217500D02*
X320947Y217500D01*
X278338Y217000D02*
X278490D01*
X278338Y215054D02*
X278490D01*
Y217000D02*
X284301D01*
X287820Y211405D02*
Y213481D01*
X290966Y211405D02*
Y213481D01*
X294485Y217000D02*
X296031D01*
X278490Y215054D02*
X284301D01*
X285874Y211405D02*
Y213481D01*
X292912Y211405D02*
Y213481D01*
X294485Y215054D02*
X296031D01*
Y217000D02*
X296106D01*
X296031Y215054D02*
X296106D01*
X324492Y224554D02*
X324493D01*
X316000Y226500D02*
X324483D01*
X334721Y231441D02*
Y233500D01*
X332775Y231441D02*
Y233500D01*
X316000Y224554D02*
X324492Y224554D01*
X315063Y224554D02*
X316000D01*
X315063Y226500D02*
X316000D01*
X312752Y224554D02*
X315063D01*
X312752Y226500D02*
X315063D01*
X271973Y203000D02*
X272000Y203027D01*
Y209000D01*
X272354Y209854D02*
X277000Y214500D01*
X304553Y218553D02*
X309000Y223000D01*
X270027Y203000D02*
Y203806D01*
X270054Y203833D01*
Y209000D01*
X270977Y211230D02*
X275624Y215876D01*
X303177Y219929D02*
X307624Y224376D01*
X346737Y217500D02*
X346738D01*
X310027Y203000D02*
Y211021D01*
X311973Y203000D02*
Y211021D01*
X353929Y222429D02*
X356000Y224500D01*
X357775Y228785D02*
Y233500D01*
X355305Y221053D02*
X357376Y223124D01*
X360257Y234793D02*
X362166Y236702D01*
X362496Y237500D02*
Y240244D01*
X359721Y228785D02*
Y233500D01*
X355330Y236702D02*
X357239Y234793D01*
X355000Y237500D02*
Y240244D01*
X335257Y234793D02*
X337166Y236702D01*
X337496Y237500D02*
Y240244D01*
X330330Y236702D02*
X332239Y234793D01*
X330000Y237500D02*
Y240244D01*
X274429Y197071D02*
X281000Y190500D01*
X261000D02*
X267571Y197071D01*
X314429Y197071D02*
X321000Y190500D01*
X301000D02*
X307571Y197071D01*
X348480Y267772D02*
X354126Y262126D01*
X347104Y266396D02*
X352750Y260750D01*
X357000Y256500D01*
X344948Y271600D02*
Y278678D01*
X346894Y271600D02*
Y278678D01*
X359721Y253000D02*
Y254629D01*
X354126Y262126D02*
X358376Y257876D01*
X357775Y253000D02*
Y254629D01*
X360404Y251349D02*
X360405Y251349D01*
X357091D02*
X357092Y251349D01*
X355536Y249793D02*
X357091Y251349D01*
X355000Y245756D02*
Y248500D01*
X360405Y251349D02*
X361960Y249793D01*
X362496Y245756D02*
Y248500D01*
X346894Y278678D02*
X346905Y278689D01*
X344937D02*
X344948Y278678D01*
X342957Y269806D02*
X342957Y267600D01*
Y267405D02*
Y267600D01*
X337250Y256750D02*
X339458Y258958D01*
X342957Y269806D02*
Y278678D01*
X341011Y269000D02*
X341011Y267600D01*
Y267405D02*
Y267600D01*
X334124Y256376D02*
X338082Y260334D01*
X332775Y253000D02*
Y253119D01*
X332091Y251349D02*
X332092Y251349D01*
X330536Y249793D02*
X332091Y251349D01*
X330000Y245756D02*
Y248500D01*
X337496Y245756D02*
Y248500D01*
X335500Y255000D02*
X337250Y256750D01*
X334721Y253000D02*
Y253119D01*
X335404Y251349D02*
X335405Y251349D01*
X336960Y249793D01*
X342957Y278678D02*
X342969Y278689D01*
X341011Y269000D02*
Y278678D01*
X341000Y278689D02*
X341011Y278678D01*
X331543Y353500D02*
Y355558D01*
X317075Y359946D02*
X326586D01*
X334318Y346756D02*
Y349500D01*
X332079Y352207D02*
X333988Y350298D01*
X276973Y375979D02*
Y378000D01*
X307453Y368001D02*
X314400Y361054D01*
X306077Y366625D02*
X313024Y359678D01*
X317075Y358000D02*
X326586D01*
X329597Y353500D02*
Y355558D01*
X326822Y346756D02*
Y349500D01*
X327152Y350298D02*
X329061Y352207D01*
X275027Y375979D02*
Y378000D01*
X266000Y390500D02*
X272571Y383929D01*
X279429Y383929D02*
X286000Y390500D01*
X342957Y302322D02*
Y316595D01*
X332281Y332219D02*
X339458Y325042D01*
X332177Y335531D02*
X333782Y337136D01*
X341011Y302322D02*
Y316595D01*
X330905Y330843D02*
X338082Y323666D01*
X327358Y337136D02*
X328963Y335531D01*
X353591Y335651D02*
X353592Y335651D01*
X352036Y337207D02*
X353591Y335651D01*
X351500Y338500D02*
Y341244D01*
X354275Y333000D02*
Y334000D01*
X350506Y330570D02*
X351962D01*
X344948Y302322D02*
Y322916D01*
X346894Y302322D02*
Y322916D01*
Y302322D02*
X346905Y302311D01*
X344937D02*
X344948Y302322D01*
X350506Y328624D02*
X351962D01*
X354376Y329624D02*
X355138Y330386D01*
X356221Y333000D02*
Y334000D01*
X356905Y335651D02*
X358460Y337207D01*
X353000Y331000D02*
X353762Y331762D01*
X334318Y338430D02*
Y341244D01*
X326822Y338430D02*
Y341244D01*
X358996Y338500D02*
Y341244D01*
X319429Y383929D02*
X326000Y390500D01*
X306000D02*
X312571Y383929D01*
X356757Y352207D02*
X358666Y350298D01*
X356221Y353500D02*
Y357715D01*
X358996Y346756D02*
Y349500D01*
X315027Y376226D02*
Y378000D01*
X353497Y363755D02*
X353876Y363376D01*
X316973Y376227D02*
Y378000D01*
X341000Y302311D02*
X341011Y302322D01*
X342957D02*
X342969Y302311D01*
X213632Y353159D02*
X214112Y353640D01*
X213632Y224159D02*
X214112Y224640D01*
X213632Y267159D02*
X214112Y267639D01*
X213632Y310159D02*
X214112Y310640D01*
X215048Y354027D02*
X241060D01*
X215048Y225027D02*
X242435D01*
X215289Y226973D02*
X242435D01*
X254165Y225027D02*
X273435D01*
X250646Y228546D02*
Y230719D01*
X247500Y228546D02*
Y230719D01*
X242435Y225027D02*
X243981D01*
X254165Y226973D02*
X273435D01*
X252592Y228546D02*
Y230719D01*
X245554Y228546D02*
Y230719D01*
X242435Y226973D02*
X243981D01*
X273435Y225027D02*
X291643D01*
X273435Y226973D02*
X291643D01*
X258414Y311027D02*
X269271D01*
X254895Y314546D02*
Y319453D01*
X251749Y310322D02*
Y319453D01*
X244711Y310322D02*
Y319454D01*
X241565Y314546D02*
Y319454D01*
X236500Y311027D02*
X238046D01*
X258414Y312973D02*
X269271D01*
X256841Y314546D02*
Y319453D01*
X249803Y310322D02*
Y319453D01*
X246657Y310322D02*
Y319454D01*
X239619Y314546D02*
Y319454D01*
X236500Y312973D02*
X238046D01*
X259914Y268027D02*
X267290D01*
X256395Y271546D02*
Y276454D01*
X253249Y268010D02*
Y276454D01*
X246211Y268010D02*
Y276454D01*
X243065Y271546D02*
Y276454D01*
X238000Y268027D02*
X239546D01*
X259914Y269973D02*
X267290D01*
X258341Y271546D02*
Y276454D01*
X251303Y268010D02*
Y276454D01*
X248157Y268010D02*
Y276454D01*
X241119Y271546D02*
Y276454D01*
X238000Y269973D02*
X239546D01*
X215289Y355973D02*
X241060D01*
X252790Y354027D02*
X289740D01*
X249271Y357546D02*
Y359733D01*
X246125Y357546D02*
Y359733D01*
X241060Y354027D02*
X242606D01*
X252790Y355973D02*
X289740D01*
X251217Y357546D02*
Y359733D01*
X244179Y357546D02*
Y359733D01*
X241060Y355973D02*
X242606D01*
X289740Y354027D02*
X291651D01*
X289740Y355973D02*
X291651D01*
X269271Y311027D02*
X270151D01*
X269271Y312973D02*
X270151D01*
X267290Y268027D02*
X269643D01*
X215048D02*
X238000D01*
X215289Y269973D02*
X238000D01*
X269644D02*
X269644Y269973D01*
X267290Y269973D02*
X269644D01*
X215048Y311027D02*
X236500D01*
X215289Y312973D02*
X236500D01*
X273258Y309742D02*
X284787Y298213D01*
X324361Y257724D02*
X331637Y265000D01*
X295000Y228363D02*
X300319Y233681D01*
X319887Y327750D02*
X331632Y316005D01*
X295004Y352634D02*
X298319Y349319D01*
X272853Y271305D02*
X284017Y282469D01*
X274218Y269918D02*
X274788Y270488D01*
Y270488D01*
X285393Y281093D01*
X213771Y270702D02*
X213946Y270527D01*
X215289Y269973D02*
X215289Y269973D01*
X296376Y226987D02*
X333013Y263624D01*
X335094Y268642D02*
Y278689D01*
X333149Y268642D02*
Y278689D01*
X291651Y226973D02*
X291654D01*
X291643Y225027D02*
X291654D01*
X215289Y226973D02*
X215289Y226973D01*
X215048Y225027D02*
X215048D01*
X213771Y227702D02*
X213946Y227527D01*
X289088Y282626D02*
X329189D01*
X289088Y284572D02*
X328796D01*
X328801Y284577D02*
X329171D01*
X328796Y284572D02*
X328801Y284577D01*
X274630Y311122D02*
X286164Y299588D01*
X289150Y296406D02*
X329189D01*
X289150Y298352D02*
X329189D01*
X335083Y312402D02*
X335083Y312389D01*
X331637Y316000D02*
X331644Y315993D01*
X333137Y312400D02*
X333137Y312385D01*
X296379Y354010D02*
X333008Y317381D01*
X333009Y317380D02*
X333021Y317369D01*
X333137Y302322D02*
Y312385D01*
X335083Y302322D02*
Y312385D01*
X294993Y352644D02*
X294998Y352639D01*
X335083Y302322D02*
X335094Y302311D01*
X296368Y354022D02*
X296379Y354010D01*
X333126Y302311D02*
X333137Y302322D01*
X215289Y355973D02*
X215289Y355973D01*
X213771Y356702D02*
X213946Y356527D01*
X215289Y312973D02*
X215289Y312973D01*
X213771Y313702D02*
X213946Y313527D01*
X303650Y237013D02*
X324361Y257724D01*
X302015Y237027D02*
X302029Y237013D01*
X300710Y235721D02*
X300724Y235707D01*
X300724Y235707D02*
X300724Y235707D01*
X300319Y233681D02*
X300724Y234087D01*
X303913Y343725D02*
X319887Y327750D01*
X302166Y343708D02*
X302183Y343725D01*
X300437Y345438D02*
X300453Y345454D01*
X298319Y349319D02*
X300453Y347184D01*
D43*
X346737Y217500D02*
D03*
X285393Y281093D02*
D03*
X335083Y312402D02*
D03*
X296379Y354010D02*
D03*
D48*
X355279Y298374D02*
X513779Y298374D01*
X168500Y226000D02*
X198300D01*
X168500Y269000D02*
X198300D01*
X168500Y312000D02*
X198300D01*
X168500Y355000D02*
X198300D01*
D51*
X491000Y390500D02*
D03*
X191000D02*
D03*
X491000Y190500D02*
D03*
X191000D02*
D03*
D53*
X178100Y321000D02*
D03*
Y303000D02*
D03*
Y235000D02*
D03*
Y217000D02*
D03*
Y364000D02*
D03*
Y346000D02*
D03*
Y278000D02*
D03*
Y260000D02*
D03*
X503680Y289374D02*
D03*
Y307374D02*
D03*
D54*
X352811Y298374D02*
X355279D01*
D55*
X452574Y355933D02*
D03*
D56*
X493150Y302962D02*
D03*
D57*
X492900Y294038D02*
D03*
D58*
X189100Y359713D02*
D03*
Y350288D02*
D03*
Y307288D02*
D03*
D59*
X189600Y316963D02*
D03*
D60*
X189350Y273712D02*
D03*
Y230713D02*
D03*
D61*
X189100Y264037D02*
D03*
D62*
X188850Y221287D02*
D03*
D63*
X426398Y366267D02*
D03*
D64*
X422275Y371108D02*
D03*
D65*
X455592Y368250D02*
D03*
D66*
X471297Y372750D02*
D03*
D67*
X445250Y385000D02*
D03*
D68*
X271000Y190500D02*
D03*
X409953Y390500D02*
D03*
X419953D02*
D03*
X346823Y190500D02*
D03*
X251000D02*
D03*
X311000D02*
D03*
X291000D02*
D03*
X336000Y390500D02*
D03*
X276000D02*
D03*
X296000D02*
D03*
X316000D02*
D03*
X261000Y190500D02*
D03*
X281000D02*
D03*
X301000D02*
D03*
X439953Y390500D02*
D03*
X429953D02*
D03*
X376823Y190500D02*
D03*
X406823D02*
D03*
X426823D02*
D03*
X446823D02*
D03*
X436823D02*
D03*
X416823D02*
D03*
X396823D02*
D03*
X386823D02*
D03*
X366823D02*
D03*
X356823D02*
D03*
X286000Y390500D02*
D03*
X306000D02*
D03*
X326000D02*
D03*
D69*
X168500Y316200D02*
D03*
X173500Y317000D02*
D03*
X178500D02*
D03*
X183500D02*
D03*
Y307000D02*
D03*
X178500D02*
D03*
X173500D02*
D03*
X168500Y307800D02*
D03*
X188500D02*
D03*
Y316200D02*
D03*
X168500Y230200D02*
D03*
X173500Y231000D02*
D03*
X178500D02*
D03*
X183500D02*
D03*
Y221000D02*
D03*
X178500D02*
D03*
X173500D02*
D03*
X168500Y221800D02*
D03*
X188500D02*
D03*
Y230200D02*
D03*
X168500Y359200D02*
D03*
X173500Y360000D02*
D03*
X178500D02*
D03*
X183500D02*
D03*
Y350000D02*
D03*
X178500D02*
D03*
X173500D02*
D03*
X168500Y350800D02*
D03*
X188500D02*
D03*
Y359200D02*
D03*
X168500Y273200D02*
D03*
X173500Y274000D02*
D03*
X178500D02*
D03*
X183500D02*
D03*
Y264000D02*
D03*
X178500D02*
D03*
X173500D02*
D03*
X168500Y264800D02*
D03*
X188500D02*
D03*
Y273200D02*
D03*
X513279Y294174D02*
D03*
X508280Y293374D02*
D03*
X503279D02*
D03*
X498279D02*
D03*
Y303374D02*
D03*
X503279D02*
D03*
X508280D02*
D03*
X513279Y302574D02*
D03*
X493280D02*
D03*
Y294174D02*
D03*
D70*
X321000Y190500D02*
D03*
X449953Y390500D02*
D03*
X456823Y190500D02*
D03*
X266000Y390500D02*
D03*
D71*
X436000Y259500D02*
D03*
X330132Y343781D02*
D03*
X323150Y341041D02*
D03*
X326188Y334184D02*
D03*
X329938Y327689D02*
D03*
X335241Y322385D02*
D03*
X338097Y315450D02*
D03*
Y307950D02*
D03*
X338684Y329938D02*
D03*
X337044Y337256D02*
D03*
X347828Y340611D02*
D03*
X349986Y333428D02*
D03*
X343815Y329166D02*
D03*
X352682Y325798D02*
D03*
X358570Y330443D02*
D03*
X361708Y337255D02*
D03*
X304660Y395769D02*
D03*
X306782Y385112D02*
D03*
X311870Y379602D02*
D03*
X330130Y361821D02*
D03*
X337630Y361727D02*
D03*
X345128Y361586D02*
D03*
X351361Y357413D02*
D03*
X348732Y350389D02*
D03*
X362462Y349058D02*
D03*
X359135Y355780D02*
D03*
X357649Y363131D02*
D03*
X352115Y368193D02*
D03*
X344706Y369360D02*
D03*
X340103Y375282D02*
D03*
X337818Y382425D02*
D03*
X330341Y383018D02*
D03*
X327237Y376190D02*
D03*
X320838Y372279D02*
D03*
X320175Y379749D02*
D03*
X325448Y385082D02*
D03*
X327122Y395843D02*
D03*
X260525Y391406D02*
D03*
X264467Y385026D02*
D03*
X270989Y381322D02*
D03*
X272399Y373956D02*
D03*
X277158Y368159D02*
D03*
X284502Y366640D02*
D03*
X291991Y367057D02*
D03*
X299478Y366625D02*
D03*
X305874Y362707D02*
D03*
X311202Y357429D02*
D03*
X318327Y355086D02*
D03*
X324016Y350199D02*
D03*
X337320Y349753D02*
D03*
X334328Y356630D02*
D03*
X314727Y364848D02*
D03*
X309408Y370136D02*
D03*
X302895Y373854D02*
D03*
X295615Y375659D02*
D03*
X293020Y382696D02*
D03*
X279887Y377650D02*
D03*
X283719Y384098D02*
D03*
X290464Y387376D02*
D03*
X289348Y394792D02*
D03*
X281883Y394076D02*
D03*
X267796Y395930D02*
D03*
X347393Y261986D02*
D03*
X352696Y256682D02*
D03*
X352180Y249200D02*
D03*
X359047Y248085D02*
D03*
X365280Y249381D02*
D03*
X362422Y256315D02*
D03*
X327275Y249679D02*
D03*
X341168Y247098D02*
D03*
X338853Y254232D02*
D03*
X343778Y259888D02*
D03*
X351328Y239302D02*
D03*
X354861Y232687D02*
D03*
X352842Y225463D02*
D03*
X346014Y222360D02*
D03*
X338776Y220394D02*
D03*
X316570Y221677D02*
D03*
X307113Y210852D02*
D03*
Y203352D02*
D03*
X303282Y196904D02*
D03*
X296537Y193626D02*
D03*
X297650Y186209D02*
D03*
X305116Y186922D02*
D03*
X319197Y185070D02*
D03*
X326230Y187674D02*
D03*
X325025Y195077D02*
D03*
X317978Y197643D02*
D03*
X314887Y204477D02*
D03*
X315509Y211951D02*
D03*
X322531Y214586D02*
D03*
X330031D02*
D03*
X332262Y207425D02*
D03*
X338499Y203260D02*
D03*
X344392Y207899D02*
D03*
X347641Y214658D02*
D03*
X354775Y216972D02*
D03*
X360273Y222074D02*
D03*
X362635Y229192D02*
D03*
X365164Y236253D02*
D03*
X333518Y238089D02*
D03*
X327238Y236580D02*
D03*
X324971Y229431D02*
D03*
X317471Y229414D02*
D03*
X309983Y228983D02*
D03*
X303826Y224700D02*
D03*
X297875Y220135D02*
D03*
X290553Y218513D02*
D03*
X270042Y214416D02*
D03*
X267140Y207500D02*
D03*
X266266Y200051D02*
D03*
X260043Y195865D02*
D03*
X261392Y185061D02*
D03*
X271247Y196365D02*
D03*
X280999Y185068D02*
D03*
X281571Y195915D02*
D03*
X275553Y200391D02*
D03*
X274914Y207864D02*
D03*
X281076Y212140D02*
D03*
X285671Y206212D02*
D03*
X293171Y206254D02*
D03*
X297658Y212263D02*
D03*
X304685Y214884D02*
D03*
X310146Y220025D02*
D03*
X332152Y223840D02*
D03*
X337248Y229343D02*
D03*
X340164Y236253D02*
D03*
X337970Y268238D02*
D03*
X353000Y316000D02*
D03*
X335462Y318966D02*
D03*
X330200Y324311D02*
D03*
X373500Y228500D02*
D03*
X348783Y298284D02*
D03*
X346217Y295717D02*
D03*
X343783Y298284D02*
D03*
Y293284D02*
D03*
X348783D02*
D03*
Y287850D02*
D03*
X346217Y285283D02*
D03*
X343783Y287850D02*
D03*
Y282850D02*
D03*
X348783D02*
D03*
X338350Y287850D02*
D03*
X335784Y285283D02*
D03*
X333350Y287850D02*
D03*
Y282850D02*
D03*
X338350D02*
D03*
Y298284D02*
D03*
X335784Y295717D02*
D03*
X333350Y298284D02*
D03*
Y293284D02*
D03*
X338350D02*
D03*
X204500Y219500D02*
D03*
X205000Y262500D02*
D03*
X204000Y305000D02*
D03*
X203500Y348000D02*
D03*
X194500Y351000D02*
D03*
Y359500D02*
D03*
X203500Y362000D02*
D03*
X202500Y319500D02*
D03*
X195500Y308000D02*
D03*
Y316000D02*
D03*
X195000Y265000D02*
D03*
Y273000D02*
D03*
X202500Y276000D02*
D03*
X195500Y222000D02*
D03*
Y230000D02*
D03*
X202000Y233000D02*
D03*
X362000Y395500D02*
D03*
X483000Y361500D02*
D03*
X488500Y370500D02*
D03*
X429500Y383000D02*
D03*
X400000Y384500D02*
D03*
X408000Y366000D02*
D03*
X412000Y351000D02*
D03*
X444000Y339000D02*
D03*
X442000Y349000D02*
D03*
X461000Y333500D02*
D03*
X480500Y353500D02*
D03*
X429000Y235500D02*
D03*
X371000Y278000D02*
D03*
X397500D02*
D03*
X423500Y272000D02*
D03*
X417500Y255500D02*
D03*
X408000Y266000D02*
D03*
X401500Y243000D02*
D03*
X398500Y252500D02*
D03*
X394000Y234000D02*
D03*
X355000Y206000D02*
D03*
X356500Y198000D02*
D03*
X361500Y215500D02*
D03*
X372500Y210000D02*
D03*
X409500Y221500D02*
D03*
X393500Y210000D02*
D03*
X420000Y206500D02*
D03*
X435500Y225000D02*
D03*
X450000Y241000D02*
D03*
X455000Y233500D02*
D03*
X448000Y218500D02*
D03*
X446500Y198500D02*
D03*
X461500Y199000D02*
D03*
X454500Y210000D02*
D03*
X422500Y244500D02*
D03*
X403500Y205500D02*
D03*
X420500Y215000D02*
D03*
X483327Y301817D02*
D03*
X475827D02*
D03*
X468327D02*
D03*
X460827D02*
D03*
X453327D02*
D03*
X445827D02*
D03*
X438327D02*
D03*
X423327D02*
D03*
X415827D02*
D03*
X408327D02*
D03*
X400827D02*
D03*
X393327D02*
D03*
X385827D02*
D03*
X378327D02*
D03*
X370827D02*
D03*
X363327D02*
D03*
X355827Y301817D02*
D03*
X372294Y294931D02*
D03*
X379794D02*
D03*
X387294D02*
D03*
X394794D02*
D03*
X402294D02*
D03*
X409794D02*
D03*
X417294D02*
D03*
X424794D02*
D03*
X439794D02*
D03*
X447294D02*
D03*
X454794D02*
D03*
X462294D02*
D03*
X469794D02*
D03*
X477294D02*
D03*
X484794D02*
D03*
X357467Y292950D02*
D03*
X430500Y248000D02*
D03*
X425092Y251550D02*
D03*
X400000Y257000D02*
D03*
X385500Y247000D02*
D03*
X364500Y268500D02*
D03*
X357000Y275500D02*
D03*
X403500Y222500D02*
D03*
X241883Y362383D02*
D03*
X235247Y358887D02*
D03*
X227748D02*
D03*
X220248D02*
D03*
X212895Y360370D02*
D03*
X210505Y349673D02*
D03*
X217865Y351113D02*
D03*
X225365D02*
D03*
X232865D02*
D03*
X240365D02*
D03*
X247498Y353431D02*
D03*
X254631Y351113D02*
D03*
X262131D02*
D03*
X269631D02*
D03*
X277131D02*
D03*
X284631D02*
D03*
X292130Y351061D02*
D03*
X297351Y345676D02*
D03*
X302893Y340623D02*
D03*
X308196Y335319D02*
D03*
X313500Y330016D02*
D03*
X318803Y324713D02*
D03*
X324106Y319409D02*
D03*
X329410Y314106D02*
D03*
X330223Y306650D02*
D03*
X337998Y311908D02*
D03*
X324897Y329614D02*
D03*
X319594Y334917D02*
D03*
X314290Y340220D02*
D03*
X308987Y345524D02*
D03*
X303684Y350827D02*
D03*
X298371Y356121D02*
D03*
X291400Y358887D02*
D03*
X283900D02*
D03*
X276400D02*
D03*
X268900D02*
D03*
X261400D02*
D03*
X254052Y360392D02*
D03*
X249066Y365994D02*
D03*
X236242Y315887D02*
D03*
X228742D02*
D03*
X221242D02*
D03*
X213837Y317073D02*
D03*
X214103Y307037D02*
D03*
X221525Y308113D02*
D03*
X229025D02*
D03*
X236525D02*
D03*
X243675Y305847D02*
D03*
X251068Y304586D02*
D03*
X257635Y308207D02*
D03*
X265135Y308113D02*
D03*
X272445Y306434D02*
D03*
X277748Y301131D02*
D03*
X283069Y295846D02*
D03*
X290190Y293491D02*
D03*
X297690D02*
D03*
X305190D02*
D03*
X312690D02*
D03*
X320190D02*
D03*
X317102Y301266D02*
D03*
X309602D02*
D03*
X302102D02*
D03*
X294602D02*
D03*
X287230Y302643D02*
D03*
X281927Y307947D02*
D03*
X276610Y313237D02*
D03*
X269594Y315887D02*
D03*
X262094D02*
D03*
X258847Y322648D02*
D03*
X252006Y325721D02*
D03*
X244506Y325715D02*
D03*
X298061Y309939D02*
D03*
X325047Y287486D02*
D03*
X317547D02*
D03*
X310047D02*
D03*
X302547D02*
D03*
X295047D02*
D03*
X287548Y287336D02*
D03*
X281038Y283612D02*
D03*
X275735Y278308D02*
D03*
X270377Y273061D02*
D03*
X262879Y272887D02*
D03*
X260223Y279901D02*
D03*
X253242Y282643D02*
D03*
X245743Y282750D02*
D03*
X238996Y279473D02*
D03*
X235408Y272887D02*
D03*
X227908D02*
D03*
X220408D02*
D03*
X213047Y274325D02*
D03*
X216761Y265113D02*
D03*
X224261D02*
D03*
X231762D02*
D03*
X239262D02*
D03*
X246324Y262589D02*
D03*
X253807Y263089D02*
D03*
X261029Y265113D02*
D03*
X268529D02*
D03*
X275682Y267370D02*
D03*
X281040Y272618D02*
D03*
X286343Y277922D02*
D03*
X293626Y279712D02*
D03*
X301126D02*
D03*
X308626D02*
D03*
X316126D02*
D03*
X330234Y273944D02*
D03*
X329054Y266538D02*
D03*
X323750Y261234D02*
D03*
X318447Y255931D02*
D03*
X313144Y250628D02*
D03*
X307840Y245325D02*
D03*
X302537Y240021D02*
D03*
X297234Y234718D02*
D03*
X291497Y229887D02*
D03*
X283997D02*
D03*
X276497D02*
D03*
X268997D02*
D03*
X261497D02*
D03*
X254873Y233405D02*
D03*
X248325Y237062D02*
D03*
X242799Y231990D02*
D03*
X235600Y229887D02*
D03*
X228100D02*
D03*
X220600D02*
D03*
X213228Y231266D02*
D03*
X215560Y222009D02*
D03*
X223059Y222113D02*
D03*
X230559D02*
D03*
X238059D02*
D03*
X245555Y222355D02*
D03*
X253055Y222251D02*
D03*
X260553Y222113D02*
D03*
X268053D02*
D03*
X275553D02*
D03*
X283053D02*
D03*
X290553D02*
D03*
X297716Y224335D02*
D03*
X303084Y229573D02*
D03*
X308387Y234877D02*
D03*
X313691Y240180D02*
D03*
X318994Y245483D02*
D03*
X324297Y250787D02*
D03*
X329601Y256090D02*
D03*
X334904Y261393D02*
D03*
X338009Y275738D02*
D03*
X323082Y275649D02*
D03*
X365967Y387533D02*
D03*
X439119Y358433D02*
D03*
X441847Y360933D02*
D03*
X439119Y363433D02*
D03*
X444619Y358433D02*
D03*
Y363433D02*
D03*
X420000Y372000D02*
D03*
Y367500D02*
D03*
X419967Y377033D02*
D03*
X431119Y349619D02*
D03*
X447000Y368500D02*
D03*
M02*
